<?xml version="1.0" encoding="UTF-8" standalone="no"?>
<!-- Created with Inkscape (http://www.inkscape.org/) -->

<svg
   xmlns:dc="http://purl.org/dc/elements/1.1/"
   xmlns:cc="http://creativecommons.org/ns#"
   xmlns:rdf="http://www.w3.org/1999/02/22-rdf-syntax-ns#"
   xmlns:svg="http://www.w3.org/2000/svg"
   xmlns="http://www.w3.org/2000/svg"
   xmlns:xlink="http://www.w3.org/1999/xlink"
   xmlns:sodipodi="http://sodipodi.sourceforge.net/DTD/sodipodi-0.dtd"
   xmlns:inkscape="http://www.inkscape.org/namespaces/inkscape"
   width="96"
   height="96"
   id="svg10212"
   sodipodi:version="0.32"
   inkscape:version="0.48.4 r9939"
   version="1.0"
   sodipodi:docname="applications-audio.svg"
   inkscape:output_extension="org.inkscape.output.svg.inkscape">
  <defs
     id="defs10214">
    <filter
       inkscape:collect="always"
       id="filter6448"
       color-interpolation-filters="sRGB">
      <feGaussianBlur
         inkscape:collect="always"
         stdDeviation="0.37043075"
         id="feGaussianBlur6450" />
    </filter>
    <radialGradient
       gradientUnits="userSpaceOnUse"
       id="radialGradient5658"
       r="26.416201"
       cy="18.0903"
       cx="54.212399">
      <stop
         id="stop5660"
         offset="0.33140001"
         style="stop-color:#f0ff80;stop-opacity:1" />
      <stop
         id="stop5662"
         offset="0.67438829"
         style="stop-color:#00ff00;stop-opacity:0;" />
    </radialGradient>
    <linearGradient
       y2="49"
       x2="48.117199"
       y1="49"
       x1="40.117199"
       gradientUnits="userSpaceOnUse"
       id="linearGradient6045">
      <stop
         id="stop6047"
         style="stop-color:#008e00;stop-opacity:1;"
         offset="0" />
      <stop
         id="stop6049"
         style="stop-color:#008700"
         offset="0.2294" />
      <stop
         id="stop6051"
         style="stop-color:#007800"
         offset="0.5127" />
      <stop
         id="stop6053"
         style="stop-color:#005F00"
         offset="0.8231" />
      <stop
         id="stop6055"
         style="stop-color:#004D00"
         offset="1" />
    </linearGradient>
    <filter
       inkscape:collect="always"
       id="filter3619"
       color-interpolation-filters="sRGB">
      <feGaussianBlur
         inkscape:collect="always"
         stdDeviation="0.69944247"
         id="feGaussianBlur3621" />
    </filter>
    <linearGradient
       y2="19.949699"
       x2="52.913101"
       y1="8.6162004"
       x1="62.246101"
       gradientUnits="userSpaceOnUse"
       id="linearGradient5332">
      <stop
         id="stop5334"
         style="stop-color:#000000;stop-opacity:0;"
         offset="0" />
      <stop
         id="stop5336"
         style="stop-color:#07631a;stop-opacity:1;"
         offset="1" />
    </linearGradient>
    <filter
       inkscape:collect="always"
       x="-0.073310807"
       width="1.1466216"
       y="-0.13902833"
       height="1.2780566"
       id="filter2844"
       color-interpolation-filters="sRGB">
      <feGaussianBlur
         inkscape:collect="always"
         stdDeviation="0.73249726"
         id="feGaussianBlur2846" />
    </filter>
    <linearGradient
       id="linearGradient2848">
      <stop
         style="stop-color:#c3ff6a;stop-opacity:1;"
         offset="0"
         id="stop2850" />
      <stop
         style="stop-color:#a6ff88;stop-opacity:0;"
         offset="1"
         id="stop2852" />
    </linearGradient>
    <filter
       inkscape:collect="always"
       id="filter5558"
       color-interpolation-filters="sRGB">
      <feGaussianBlur
         inkscape:collect="always"
         stdDeviation="0.61029092"
         id="feGaussianBlur5560" />
    </filter>
    <radialGradient
       gradientUnits="userSpaceOnUse"
       fy="88.667"
       fx="17.117201"
       r="14"
       cy="94"
       cx="19.783701"
       id="radialGradient4531">
      <stop
         id="stop4533"
         style="stop-color:#ffffff;stop-opacity:1;"
         offset="0" />
      <stop
         offset="0.5"
         style="stop-color:#ffffff;stop-opacity:0.70886075;"
         id="stop4537" />
      <stop
         id="stop4535"
         style="stop-color:#ffffff;stop-opacity:0;"
         offset="1" />
    </radialGradient>
    <filter
       inkscape:collect="always"
       x="-0.12256312"
       width="1.2451262"
       y="-0.17750549"
       height="1.355011"
       id="filter6116"
       color-interpolation-filters="sRGB">
      <feGaussianBlur
         inkscape:collect="always"
         stdDeviation="2.0368781"
         id="feGaussianBlur6118" />
    </filter>
    <linearGradient
       id="linearGradient4540">
      <stop
         style="stop-color:#008800;stop-opacity:1;"
         offset="0"
         id="stop4542" />
      <stop
         style="stop-color:#0aa800;stop-opacity:0.60759491;"
         offset="1"
         id="stop4544" />
    </linearGradient>
    <radialGradient
       id="10"
       cx="23.783701"
       cy="100"
       r="25.195101"
       gradientUnits="userSpaceOnUse"
       style="fill:url(#linearGradient6728);fill-opacity:1">
      <stop
         offset="0"
         style="stop-color:#287f00;stop-opacity:1;"
         id="stop35" />
      <stop
         id="stop9094"
         style="stop-color:#3cf000;stop-opacity:1;"
         offset="0.5" />
      <stop
         offset="1"
         style="stop-color:#003a00;stop-opacity:1;"
         id="stop6199" />
    </radialGradient>
    <linearGradient
       y2="19.949699"
       x2="52.913101"
       y1="8.6162004"
       x1="62.246101"
       gradientUnits="userSpaceOnUse"
       id="linearGradient5206">
      <stop
         id="stop5208"
         style="stop-color:#000000;stop-opacity:1;"
         offset="0" />
      <stop
         id="stop5210"
         style="stop-color:#000000;stop-opacity:0;"
         offset="1" />
    </linearGradient>
    <filter
       inkscape:collect="always"
       x="-0.55894202"
       width="2.1178839"
       y="-0.012263282"
       height="1.0245266"
       id="filter5551"
       color-interpolation-filters="sRGB">
      <feGaussianBlur
         inkscape:collect="always"
         stdDeviation="0.465785"
         id="feGaussianBlur5553" />
    </filter>
    <linearGradient
       id="linearGradient4390">
      <stop
         style="stop-color:#00a208;stop-opacity:1;"
         offset="0"
         id="stop4392" />
      <stop
         id="stop4398"
         offset="0.5"
         style="stop-color:#dfffa8;stop-opacity:1;" />
      <stop
         style="stop-color:#8aff47;stop-opacity:0.63291138;"
         offset="1"
         id="stop4394" />
    </linearGradient>
    <linearGradient
       y2="49"
       x2="48.117199"
       y1="49"
       x1="40.117199"
       gradientUnits="userSpaceOnUse"
       id="linearGradient4629">
      <stop
         id="stop4631"
         style="stop-color:#008e00;stop-opacity:1;"
         offset="0" />
      <stop
         id="stop4633"
         style="stop-color:#008700"
         offset="0.2294" />
      <stop
         id="stop4635"
         style="stop-color:#007800"
         offset="0.5127" />
      <stop
         id="stop4637"
         style="stop-color:#005F00"
         offset="0.8231" />
      <stop
         id="stop4639"
         style="stop-color:#004D00"
         offset="1" />
    </linearGradient>
    <linearGradient
       id="linearGradient5022">
      <stop
         style="stop-color:#000000;stop-opacity:1"
         offset="0"
         id="stop5024" />
      <stop
         style="stop-color:#000000;stop-opacity:0"
         offset="1"
         id="stop5026" />
    </linearGradient>
    <filter
       inkscape:collect="always"
       id="filter10169"
       color-interpolation-filters="sRGB">
      <feGaussianBlur
         inkscape:collect="always"
         stdDeviation="1.7200789"
         id="feGaussianBlur10171" />
    </filter>
    <linearGradient
       inkscape:collect="always"
       id="linearGradient10157">
      <stop
         style="stop-color:#000000;stop-opacity:1;"
         offset="0"
         id="stop10159" />
      <stop
         style="stop-color:#000000;stop-opacity:0;"
         offset="1"
         id="stop10161" />
    </linearGradient>
    <linearGradient
       inkscape:collect="always"
       xlink:href="#linearGradient10157"
       id="linearGradient3738"
       gradientUnits="userSpaceOnUse"
       x1="-21.462681"
       y1="124.00789"
       x2="-24.748737"
       y2="9.3140812" />
    <radialGradient
       inkscape:collect="always"
       xlink:href="#linearGradient5022"
       id="radialGradient3740"
       gradientUnits="userSpaceOnUse"
       gradientTransform="matrix(1,0,0,0.2670157,0,81.512404)"
       cx="45.43161"
       cy="111.20621"
       fx="45.43161"
       fy="111.20621"
       r="33.764351" />
    <linearGradient
       inkscape:collect="always"
       xlink:href="#linearGradient4629"
       id="linearGradient3742"
       gradientUnits="userSpaceOnUse"
       gradientTransform="matrix(0.9696967,0,0,0.996978,-70.901324,4.0000062)"
       x1="40.117199"
       y1="49"
       x2="48.117199"
       y2="49" />
    <linearGradient
       inkscape:collect="always"
       xlink:href="#linearGradient4390"
       id="linearGradient3744"
       gradientUnits="userSpaceOnUse"
       x1="44.142799"
       y1="3.4933131"
       x2="44.142799"
       y2="94.157005" />
    <linearGradient
       inkscape:collect="always"
       xlink:href="#linearGradient5206"
       id="linearGradient3746"
       gradientUnits="userSpaceOnUse"
       gradientTransform="matrix(0.9999995,0,0,0.9459306,-72.116992,9.7064198)"
       x1="44.117001"
       y1="88.249001"
       x2="44.117001"
       y2="83.652809" />
    <linearGradient
       inkscape:collect="always"
       xlink:href="#10"
       id="linearGradient3748"
       gradientUnits="userSpaceOnUse"
       gradientTransform="matrix(1.0913678,-0.1276356,0.108629,0.8513796,-87.2925,24.23041)"
       x1="0.1174117"
       y1="101.0003"
       x2="43.927124"
       y2="92.500053" />
    <linearGradient
       inkscape:collect="always"
       xlink:href="#linearGradient4540"
       id="linearGradient3750"
       gradientUnits="userSpaceOnUse"
       x1="3.9885471"
       y1="100.01298"
       x2="43.87418"
       y2="100.01298" />
    <radialGradient
       inkscape:collect="always"
       xlink:href="#radialGradient4531"
       id="radialGradient3752"
       gradientUnits="userSpaceOnUse"
       gradientTransform="matrix(0.6862309,-0.2788753,0.2607269,0.6833644,-0.06742055,33.863485)"
       cx="22.501722"
       cy="91.356857"
       fx="19.835222"
       fy="86.023857"
       r="14" />
    <radialGradient
       inkscape:collect="always"
       xlink:href="#linearGradient2848"
       id="radialGradient3754"
       gradientUnits="userSpaceOnUse"
       gradientTransform="matrix(1,-0.02648657,0.0139617,0.5271235,18.16764,52.58348)"
       cx="27.127048"
       cy="113.89391"
       fx="27.127048"
       fy="113.89391"
       r="11.990002" />
    <linearGradient
       inkscape:collect="always"
       xlink:href="#linearGradient5332"
       id="linearGradient3756"
       gradientUnits="userSpaceOnUse"
       gradientTransform="matrix(1,0,0,-1,39.75779,128)"
       x1="22.025112"
       y1="29.212114"
       x2="21.785669"
       y2="7.9726162" />
    <linearGradient
       inkscape:collect="always"
       xlink:href="#linearGradient6045"
       id="linearGradient3758"
       gradientUnits="userSpaceOnUse"
       gradientTransform="matrix(1.0655765,0,0,1.0863933,38.188771,-7.7785754)"
       x1="54.103237"
       y1="32.580181"
       x2="32.584381"
       y2="31.295557" />
    <radialGradient
       inkscape:collect="always"
       xlink:href="#radialGradient5658"
       id="radialGradient3760"
       gradientUnits="userSpaceOnUse"
       gradientTransform="matrix(0.624346,0,0,0.624346,51.00981,20.880096)"
       cx="54.212399"
       cy="18.0903"
       r="26.416201" />
  </defs>
  <sodipodi:namedview
     id="base"
     pagecolor="#ffffff"
     bordercolor="#666666"
     borderopacity="1.0"
     inkscape:pageopacity="0.0"
     inkscape:pageshadow="2"
     inkscape:zoom="4"
     inkscape:cx="48"
     inkscape:cy="48"
     inkscape:document-units="px"
     inkscape:current-layer="layer1"
     width="128px"
     height="128px"
     inkscape:window-width="999"
     inkscape:window-height="717"
     inkscape:window-x="0"
     inkscape:window-y="25"
     showgrid="false"
     inkscape:window-maximized="0"
     fit-margin-top="0"
     fit-margin-left="0"
     fit-margin-right="0"
     fit-margin-bottom="0" />
  <metadata
     id="metadata10217">
    <rdf:RDF>
      <cc:Work
         rdf:about="">
        <dc:format>image/svg+xml</dc:format>
        <dc:type
           rdf:resource="http://purl.org/dc/dcmitype/StillImage" />
        <dc:title />
      </cc:Work>
    </rdf:RDF>
  </metadata>
  <g
     inkscape:label="Livello 1"
     inkscape:groupmode="layer"
     id="layer1"
     transform="translate(0,-32)">
    <g
       id="g10173"
       transform="matrix(0.75,0,0,0.75,76.451932,30.470712)">
      <path
         id="path9722"
         d="m -25.890024,12 0,82.687888 c -4.993426,-2.720302 -12.32173,-2.982506 -19.456595,-0.145834 -10.709141,4.25773 -16.918516,13.864536 -13.883722,21.437596 3.034876,7.57386 14.174863,10.2653 24.884088,6.00837 8.147598,-3.23915 13.685135,-9.57398 14.53793,-15.75008 l 0.121149,0.0875 0,-1.34167 c 0.0084,-0.25225 0.0081,-0.50756 0,-0.75834 l 0,-68.075317 0,-24.150113 -6.20285,0 z m 6.20285,24.150113 C 8.6878855,50.500856 -9.6317733,88.621193 -9.6317733,88.621193 11.329778,62.678726 -7.8797559,34.485242 -11.739773,28.945913 -15.933565,22.926978 -18.05627,15.608726 -19.614485,12 l -0.07269,24.150113 z"
         style="opacity:0.5;fill:url(#linearGradient3738);fill-opacity:1;filter:url(#filter10169)"
         inkscape:connector-curvature="0" />
      <path
         transform="matrix(0.8885111,0,0,-0.8873497,-90.366489,218.67879)"
         d="m 79.195961,111.20621 c 0,4.97918 -15.116815,9.01561 -33.764351,9.01561 -18.647536,0 -33.764351,-4.03643 -33.764351,-9.01561 0,-4.97919 15.116815,-9.01561 33.764351,-9.01561 18.647536,0 33.764351,4.03642 33.764351,9.01561 z"
         sodipodi:ry="9.0156116"
         sodipodi:rx="33.764351"
         sodipodi:cy="111.20621"
         sodipodi:cx="45.43161"
         id="path7037"
         style="opacity:0.6;fill:url(#radialGradient3740);fill-opacity:1;fill-rule:evenodd;stroke:none"
         sodipodi:type="arc" />
      <path
         style="fill:url(#linearGradient3742);fill-opacity:1"
         d="m -32,4.0000062 8,-1.5e-6 0,101.0526253 -8,-5.342726 0,-95.7098978 z"
         id="path2733"
         sodipodi:nodetypes="ccccc"
         inkscape:connector-curvature="0" />
      <path
         d="m 43.117,3 c 0,5.489 0,86.342 0,90.657 0.813,0.204 1.005,0.252 2,0.5 0,-6.867 0,-85.747 0,-91.157 -0.937,0 -1.062,0 -2,0 z"
         id="path2735"
         style="opacity:0.7;fill:url(#linearGradient3744);fill-opacity:1;filter:url(#filter5551)"
         transform="matrix(1.5818487,0,0,-1.0400307,-99.20457,103.03083)"
         inkscape:connector-curvature="0" />
      <path
         d="m -24,88.303697 c -1.713999,-1.911727 -3.749,-1.755556 -6.086999,-3.235935 -0.628004,-0.397293 -1.268,-0.762423 -1.913001,-1.107687 l 0,16.555675 8,5.23639 0,-17.448443 z"
         id="path2737"
         style="opacity:0.3;fill:url(#linearGradient3746);fill-opacity:1"
         sodipodi:nodetypes="cscccc"
         inkscape:connector-curvature="0" />
      <path
         style="fill:url(#linearGradient3748);fill-opacity:1"
         id="path2741"
         d="m -75.008571,115.40112 c 3.914172,8.11481 18.284586,10.99483 32.096594,6.43385 13.812988,-4.56196 21.833809,-14.83815 17.920727,-22.953091 -3.914065,-8.11396 -18.283498,-10.994953 -32.095395,-6.433123 -13.811897,4.561829 -21.83599,14.838404 -17.921926,22.952364 z"
         inkscape:connector-curvature="0" />
      <path
         style="opacity:0.9;fill:url(#linearGradient3750);fill-opacity:1;filter:url(#filter6116)"
         id="path2743"
         d="M 43.576,95.141 C 41.685,87.924 31.358,84.38 20.508,87.226 9.659,90.072 2.397,98.231 4.288,105.45 c 1.104,4.218 5.1,7.166 10.387,8.333 -3.231,-1.651 -5.652,-4.326 -6.545,-7.736 -1.904,-7.269 3.803,-15.064 12.748,-17.412 8.945,-2.347 17.741,1.644 19.645,8.912 0.894,3.41 0.095,6.931 -1.911,9.956 4.034,-3.612 6.069,-8.145 4.964,-12.362 z"
         transform="matrix(1.163926,-0.1361213,0.108629,0.8513796,-88.519188,24.373871)"
         inkscape:connector-curvature="0" />
      <path
         d="m 34.447549,87.550082 c -7.626375,4.164496 -12.096252,10.313936 -9.566387,13.160718 1.100762,1.23833 3.231368,1.53678 4.823819,1.56891 4.124595,0.0834 9.446953,-1.428 14.234531,-4.042258 7.625626,-4.163549 12.09604,-10.314544 9.565214,-13.160989 -1.100763,-1.238336 -3.231366,-1.536781 -4.823822,-1.568919 -4.125344,-0.0825 -9.445778,1.428283 -14.233355,4.042538 z"
         id="path2745"
         style="opacity:0.8;fill:url(#radialGradient3752);fill-opacity:1;filter:url(#filter5558)"
         transform="matrix(1.2006985,-0.1404219,0.1229454,0.9635845,-116.30812,18.114385)"
         inkscape:connector-curvature="0" />
      <path
         d="m 46.87479,109 c -7.172,1.882 -12.588,0.601 -11.925,3.134 0.273,1.045 1.302,1.832 2.116,2.308 2.241,1.311 6.431,2.239 11.471,0.917 7.171,-1.882 10.926,-6.96 10.263,-9.492 -0.273,-1.046 -1.302,-1.832 -2.116,-2.309 -2.241,-1.31 -4.77,4.12 -9.809,5.442 z"
         id="path2747"
         style="opacity:0.6;fill:url(#radialGradient3754);fill-opacity:1;filter:url(#filter2844)"
         transform="matrix(1.2316626,0.05332049,-0.1609546,1.2338552,-88.573075,-25.852562)"
         inkscape:connector-curvature="0" />
      <path
         style="opacity:0.8;fill:url(#linearGradient3756);fill-opacity:1;filter:url(#filter3619)"
         d="m 87.84375,97.625 c -0.647929,8.38965 -8.33824,16.48063 -19.25,19.34375 -12.995,3.409 -25.651001,-1.86025 -28.25,-11.78125 -0.232934,-0.88908 -0.377065,-1.79014 -0.4375,-2.6875 -0.107691,1.56171 0.03141,3.1375 0.4375,4.6875 2.598999,9.921 15.255,15.19025 28.25,11.78125 11.777624,-3.09031 19.782779,-12.26827 19.25,-21.34375 z"
         id="path2749"
         clip-path="none"
         transform="matrix(1.0486504,-0.1226398,0.108629,0.8513796,-127.88961,28.978247)"
         inkscape:connector-curvature="0" />
      <g
         transform="translate(-102.68886,4.0000044)"
         id="g2494">
        <path
           sodipodi:nodetypes="ccccc"
           d="M 88.930452,18.168841 C 83.521594,11.720011 80.790522,3.8664747 78.780846,3.388676e-7 L 78.68886,25.876673 C 115.28502,41.252397 91.646614,82.10526 91.646614,82.10526 118.68135,54.309889 93.908831,24.103809 88.930452,18.168841 z"
           style="fill:url(#linearGradient3758);fill-opacity:1"
           id="path2751"
           inkscape:connector-curvature="0" />
        <path
           d="m 79.261468,35.834433 c -3.124227,-3.830364 -3.782911,-6.407664 -4.516521,-7.486534 0,11.959973 3.892177,11.817622 0.318418,11.130841 C 81.404225,42.7397 86.277247,47.233118 88.135921,52 86.051229,44.152595 81.894957,39.062926 79.261468,35.834433 z"
           style="fill:url(#radialGradient3760);fill-opacity:1;filter:url(#filter6448)"
           id="path2753"
           transform="matrix(1.5818487,0,0,1.5789473,-38.332317,-37.894734)"
           inkscape:connector-curvature="0" />
      </g>
    </g>
  </g>
</svg>
