<?xml version="1.0" encoding="UTF-8" standalone="no"?>
<!-- Created with Inkscape (http://www.inkscape.org/) -->

<svg
   xmlns:dc="http://purl.org/dc/elements/1.1/"
   xmlns:cc="http://creativecommons.org/ns#"
   xmlns:rdf="http://www.w3.org/1999/02/22-rdf-syntax-ns#"
   xmlns:svg="http://www.w3.org/2000/svg"
   xmlns="http://www.w3.org/2000/svg"
   xmlns:xlink="http://www.w3.org/1999/xlink"
   xmlns:sodipodi="http://sodipodi.sourceforge.net/DTD/sodipodi-0.dtd"
   xmlns:inkscape="http://www.inkscape.org/namespaces/inkscape"
   width="96"
   height="96"
   id="svg8025"
   sodipodi:version="0.32"
   inkscape:version="0.48.3.1 r9886"
   sodipodi:docname="preferences-system.svg"
   inkscape:output_extension="org.inkscape.output.svg.inkscape"
   version="1.1"
   inkscape:export-filename="preferences-system.png"
   inkscape:export-xdpi="90"
   inkscape:export-ydpi="90">
  <sodipodi:namedview
     id="base"
     pagecolor="#ffffff"
     bordercolor="#666666"
     borderopacity="1.0"
     inkscape:pageopacity="0.0"
     inkscape:pageshadow="2"
     inkscape:zoom="5.1666667"
     inkscape:cx="48"
     inkscape:cy="48"
     inkscape:current-layer="layer1"
     showgrid="true"
     inkscape:grid-bbox="true"
     inkscape:document-units="px"
     inkscape:window-width="1010"
     inkscape:window-height="718"
     inkscape:window-x="49"
     inkscape:window-y="89"
     inkscape:object-paths="true"
     inkscape:snap-midpoints="true"
     inkscape:window-maximized="0"
     fit-margin-top="0"
     fit-margin-left="0"
     fit-margin-right="0"
     fit-margin-bottom="0"
     inkscape:snap-global="true"
     inkscape:object-nodes="true"
     inkscape:snap-intersection-paths="true" />
  <defs
     id="defs8027">
    <linearGradient
       inkscape:collect="always"
       id="linearGradient4292">
      <stop
         style="stop-color:#000000;stop-opacity:1;"
         offset="0"
         id="stop4294" />
      <stop
         style="stop-color:#000000;stop-opacity:0;"
         offset="1"
         id="stop4296" />
    </linearGradient>
    <linearGradient
       inkscape:collect="always"
       id="linearGradient5928">
      <stop
         style="stop-color:#000000;stop-opacity:1;"
         offset="0"
         id="stop5930" />
      <stop
         style="stop-color:#000000;stop-opacity:0;"
         offset="1"
         id="stop5932" />
    </linearGradient>
    <linearGradient
       id="linearGradient4174">
      <stop
         style="stop-color:#ffffff;stop-opacity:1;"
         offset="0"
         id="stop4176" />
      <stop
         style="stop-color:#3e3e3e;stop-opacity:0;"
         offset="1"
         id="stop4178" />
    </linearGradient>
    <linearGradient
       id="linearGradient22831">
      <stop
         style="stop-color:#ffffff;stop-opacity:1;"
         offset="0"
         id="stop22833" />
      <stop
         style="stop-color:#ffffff;stop-opacity:0;"
         offset="1"
         id="stop22835" />
    </linearGradient>
    <linearGradient
       id="linearGradient10539">
      <stop
         style="stop-color:#ffffff;stop-opacity:1;"
         offset="0"
         id="stop10541" />
      <stop
         style="stop-color:#b0b0b0;stop-opacity:1;"
         offset="1"
         id="stop10543" />
    </linearGradient>
    <linearGradient
       id="linearGradient25485">
      <stop
         style="stop-color:#000000;stop-opacity:1;"
         offset="0"
         id="stop25487" />
      <stop
         style="stop-color:#000000;stop-opacity:0;"
         offset="1"
         id="stop25489" />
    </linearGradient>
    <linearGradient
       inkscape:collect="always"
       id="linearGradient26369">
      <stop
         style="stop-color:#000000;stop-opacity:1;"
         offset="0"
         id="stop26371" />
      <stop
         style="stop-color:#000000;stop-opacity:0;"
         offset="1"
         id="stop26373" />
    </linearGradient>
    <linearGradient
       inkscape:collect="always"
       id="linearGradient6184">
      <stop
         style="stop-color:#ffffff;stop-opacity:1;"
         offset="0"
         id="stop6186" />
      <stop
         style="stop-color:#ffffff;stop-opacity:0;"
         offset="1"
         id="stop6188" />
    </linearGradient>
    <linearGradient
       id="linearGradient17579">
      <stop
         style="stop-color:#ffffff;stop-opacity:1;"
         offset="0"
         id="stop17581" />
      <stop
         style="stop-color:#000000;stop-opacity:0;"
         offset="1"
         id="stop17583" />
    </linearGradient>
    <linearGradient
       id="linearGradient15825">
      <stop
         style="stop-color:#ffffff;stop-opacity:1;"
         offset="0"
         id="stop15827" />
      <stop
         style="stop-color:#555753;stop-opacity:0;"
         offset="1"
         id="stop15829" />
    </linearGradient>
    <linearGradient
       inkscape:collect="always"
       id="linearGradient11428">
      <stop
         style="stop-color:#ffffff;stop-opacity:1;"
         offset="0"
         id="stop11430" />
      <stop
         style="stop-color:#ffffff;stop-opacity:0;"
         offset="1"
         id="stop11432" />
    </linearGradient>
    <linearGradient
       id="linearGradient13184">
      <stop
         style="stop-color:#000000;stop-opacity:0.66666669;"
         offset="0"
         id="stop13186" />
      <stop
         style="stop-color:#000000;stop-opacity:0;"
         offset="1"
         id="stop13188" />
    </linearGradient>
    <radialGradient
       gradientUnits="userSpaceOnUse"
       r="139.55859"
       cy="112.3047"
       cx="102"
       id="radialGradient9613">
      <stop
         id="stop9615"
         style="stop-color:#535557"
         offset="0" />
      <stop
         id="stop9617"
         style="stop-color:#898A8C"
         offset="0.13804179" />
      <stop
         id="stop9619"
         style="stop-color:#ECECEC"
         offset="0.20296688" />
      <stop
         id="stop9621"
         style="stop-color:#FAFAFA"
         offset="0.33539036" />
      <stop
         id="stop9623"
         style="stop-color:#FFFFFF"
         offset="0.39464113" />
      <stop
         id="stop9625"
         style="stop-color:#FAFAFA"
         offset="0.5313" />
      <stop
         id="stop9627"
         style="stop-color:#EBECEC"
         offset="0.8449" />
      <stop
         id="stop9629"
         style="stop-color:#E1E2E3"
         offset="1" />
    </radialGradient>
    <linearGradient
       id="linearGradient3904">
      <stop
         style="stop-color:#141515;stop-opacity:1;"
         offset="0"
         id="stop3906" />
      <stop
         style="stop-color:#535557;stop-opacity:0;"
         offset="1"
         id="stop3908" />
    </linearGradient>
    <linearGradient
       id="linearGradient3916">
      <stop
         style="stop-color:#d3d6d6;stop-opacity:1;"
         offset="0"
         id="stop3918" />
      <stop
         style="stop-color:#f7f7f7;stop-opacity:1;"
         offset="1"
         id="stop3921" />
    </linearGradient>
    <linearGradient
       id="linearGradient6511">
      <stop
         style="stop-color:#ffffff;stop-opacity:1;"
         offset="0"
         id="stop6513" />
      <stop
         style="stop-color:#393939;stop-opacity:1;"
         offset="1"
         id="stop6515" />
    </linearGradient>
    <linearGradient
       id="linearGradient6924">
      <stop
         style="stop-color:#ffffff;stop-opacity:0.73885351;"
         offset="0"
         id="stop6926" />
      <stop
         id="stop10395"
         offset="0.24999999"
         style="stop-color:#ffffff;stop-opacity:0;" />
      <stop
         id="stop10393"
         offset="0.5"
         style="stop-color:#cccccc;stop-opacity:0;" />
      <stop
         style="stop-color:#9a9a9a;stop-opacity:1;"
         offset="1"
         id="stop6928" />
    </linearGradient>
    <linearGradient
       id="linearGradient2575"
       gradientUnits="userSpaceOnUse"
       x1="28"
       y1="57.5"
       x2="28"
       y2="0">
      <stop
         offset="0"
         style="stop-color:#FFEA00"
         id="stop2577" />
      <stop
         offset="1"
         style="stop-color:#cd8000;stop-opacity:1;"
         id="stop2579" />
    </linearGradient>
    <linearGradient
       inkscape:collect="always"
       id="linearGradient4322">
      <stop
         style="stop-color:#ffffff;stop-opacity:1;"
         offset="0"
         id="stop4324" />
      <stop
         style="stop-color:#ffffff;stop-opacity:0;"
         offset="1"
         id="stop4326" />
    </linearGradient>
    <linearGradient
       inkscape:collect="always"
       id="linearGradient4465">
      <stop
         style="stop-color:#ffa300;stop-opacity:1;"
         offset="0"
         id="stop4467" />
      <stop
         style="stop-color:#ffa300;stop-opacity:0;"
         offset="1"
         id="stop4469" />
    </linearGradient>
    <linearGradient
       inkscape:collect="always"
       id="linearGradient4509">
      <stop
         style="stop-color:#ffe900;stop-opacity:1;"
         offset="0"
         id="stop4511" />
      <stop
         style="stop-color:#ffe900;stop-opacity:0;"
         offset="1"
         id="stop4513" />
    </linearGradient>
    <linearGradient
       y2="0"
       x2="28"
       y1="57.5"
       x1="28"
       gradientUnits="userSpaceOnUse"
       id="linearGradient8081">
      <stop
         id="stop8083"
         style="stop-color:#ffd700;stop-opacity:1;"
         offset="0" />
      <stop
         offset="0.25242719"
         style="stop-color:#ffea00;stop-opacity:1;"
         id="stop8087" />
      <stop
         id="stop8085"
         style="stop-color:#b06d00;stop-opacity:1;"
         offset="1" />
    </linearGradient>
    <radialGradient
       inkscape:collect="always"
       xlink:href="#linearGradient11428"
       id="radialGradient3283"
       gradientUnits="userSpaceOnUse"
       gradientTransform="matrix(0.59061834,0.00455558,-0.07576177,7.3486945,5.3897105,-276.94769)"
       cx="94.138443"
       cy="38.927982"
       fx="94.138443"
       fy="38.927982"
       r="6.8733773" />
    <linearGradient
       inkscape:collect="always"
       xlink:href="#linearGradient13184"
       id="linearGradient3285"
       gradientUnits="userSpaceOnUse"
       gradientTransform="matrix(0.74918894,-8.464704e-7,-8.735648e-8,0.79589835,-7.1167126,-33.615945)"
       x1="79.735275"
       y1="48.538784"
       x2="95"
       y2="48.538784" />
    <radialGradient
       inkscape:collect="always"
       xlink:href="#linearGradient11428"
       id="radialGradient3288"
       gradientUnits="userSpaceOnUse"
       gradientTransform="matrix(0.55444859,0.00457082,-0.07112136,7.3715659,9.7206869,-273.68841)"
       cx="94.138443"
       cy="38.927982"
       fx="94.138443"
       fy="38.927982"
       r="6.8733773" />
    <linearGradient
       inkscape:collect="always"
       xlink:href="#linearGradient13184"
       id="linearGradient3290"
       gradientUnits="userSpaceOnUse"
       gradientTransform="matrix(0.70330628,5.0292758e-7,-1.8229498e-8,0.79837556,-2.0197971,-29.599407)"
       x1="79.735275"
       y1="48.538784"
       x2="95"
       y2="48.538784" />
    <radialGradient
       inkscape:collect="always"
       xlink:href="#linearGradient11428"
       id="radialGradient3293"
       gradientUnits="userSpaceOnUse"
       gradientTransform="matrix(0.56893302,0.00534116,-0.07297808,8.6154292,6.7252612,-327.69744)"
       cx="94.138443"
       cy="38.927982"
       fx="94.138443"
       fy="38.927982"
       r="6.8733773" />
    <linearGradient
       inkscape:collect="always"
       xlink:href="#linearGradient13184"
       id="linearGradient3295"
       gradientUnits="userSpaceOnUse"
       gradientTransform="matrix(0.72168095,-6.1132812e-7,1.2457627e-7,0.93309263,-5.3218759,-42.42146)"
       x1="79.735275"
       y1="48.538784"
       x2="95"
       y2="48.538784" />
    <radialGradient
       inkscape:collect="always"
       xlink:href="#linearGradient15825"
       id="radialGradient3298"
       gradientUnits="userSpaceOnUse"
       gradientTransform="matrix(0.70108289,0.0481792,0.12093982,9.4097081,-6.380688,-602.37315)"
       cx="77.371063"
       cy="64.803642"
       fx="77.371063"
       fy="64.803642"
       r="4.1422901" />
    <radialGradient
       inkscape:collect="always"
       xlink:href="#linearGradient17579"
       id="radialGradient3301"
       gradientUnits="userSpaceOnUse"
       gradientTransform="matrix(0.34466946,-3.8691026,4.8983906,-1.4097324,-340.21293,369.96275)"
       cx="64.035408"
       cy="72.25351"
       fx="64.035408"
       fy="72.25351"
       r="8.0720015" />
    <radialGradient
       inkscape:collect="always"
       xlink:href="#linearGradient6184"
       id="radialGradient3304"
       gradientUnits="userSpaceOnUse"
       gradientTransform="matrix(0.97981264,-0.07956246,0.11813877,1.2120052,-38.835573,-65.60693)"
       cx="18.988297"
       cy="99.099472"
       fx="18.988297"
       fy="99.099472"
       r="4.9090157" />
    <radialGradient
       inkscape:collect="always"
       xlink:href="#linearGradient6184"
       id="radialGradient3307"
       gradientUnits="userSpaceOnUse"
       gradientTransform="matrix(0.97981264,-0.07956246,0.11813877,1.2120052,-38.835573,-65.60693)"
       cx="18.988297"
       cy="99.099472"
       fx="18.988297"
       fy="99.099472"
       r="4.9090157" />
    <linearGradient
       inkscape:collect="always"
       xlink:href="#linearGradient26369"
       id="linearGradient3311"
       gradientUnits="userSpaceOnUse"
       gradientTransform="matrix(0.97981264,-0.07956246,0.08889279,0.91196711,-35.937343,-35.873356)"
       x1="114.74419"
       y1="51.131916"
       x2="141.67282"
       y2="13.184787" />
    <radialGradient
       inkscape:collect="always"
       xlink:href="#linearGradient25485"
       id="radialGradient3314"
       gradientUnits="userSpaceOnUse"
       gradientTransform="matrix(0.27475596,-0.08054005,0.2879363,0.84212037,-9.389493,23.732929)"
       cx="302.08856"
       cy="-10.284327"
       fx="302.08856"
       fy="-10.284327"
       r="59.073311" />
    <radialGradient
       inkscape:collect="always"
       xlink:href="#linearGradient10539"
       id="radialGradient3317"
       gradientUnits="userSpaceOnUse"
       gradientTransform="matrix(2.2671115,-0.19689486,0.71294282,6.5532978,-443.0384,36.435116)"
       cx="222.09877"
       cy="1.2351388"
       fx="222.09877"
       fy="1.2351388"
       r="16.390625" />
    <radialGradient
       inkscape:collect="always"
       xlink:href="#linearGradient22831"
       id="radialGradient3320"
       gradientUnits="userSpaceOnUse"
       gradientTransform="matrix(0.97981264,-0.07956246,0.08691507,0.89167678,-35.848943,-34.675319)"
       cx="78.344902"
       cy="47.896503"
       fx="78.344902"
       fy="47.896503"
       r="59.069851" />
    <radialGradient
       inkscape:collect="always"
       xlink:href="#linearGradient4174"
       id="radialGradient3324"
       gradientUnits="userSpaceOnUse"
       gradientTransform="matrix(4.6994804,-0.07372933,0.09671928,4.1252961,-736.85879,-117.38797)"
       cx="173.35292"
       cy="29.473955"
       fx="173.35292"
       fy="29.473955"
       r="7.125" />
    <radialGradient
       inkscape:collect="always"
       xlink:href="#linearGradient5928"
       id="radialGradient3327"
       gradientUnits="userSpaceOnUse"
       gradientTransform="matrix(0.92249772,-0.02102568,0.02590751,0.83772942,-74.040463,-34.749514)"
       cx="154.17799"
       cy="33.309246"
       fx="154.17799"
       fy="33.309246"
       r="11.547417" />
    <linearGradient
       inkscape:collect="always"
       xlink:href="#linearGradient2575"
       id="linearGradient4233"
       gradientUnits="userSpaceOnUse"
       gradientTransform="matrix(0.89383084,-0.93519366,0.93849048,0.88720451,-32.482144,36.729684)"
       spreadMethod="reflect"
       x1="36"
       y1="100"
       x2="28"
       y2="100" />
    <linearGradient
       inkscape:collect="always"
       xlink:href="#linearGradient4322"
       id="linearGradient4235"
       gradientUnits="userSpaceOnUse"
       gradientTransform="matrix(0.66648129,-0.6973233,0.69978156,0.66154039,-0.35878265,2.2876234)"
       x1="5.1934605"
       y1="103.9544"
       x2="5.1348171"
       y2="115.65614" />
    <linearGradient
       inkscape:collect="always"
       xlink:href="#linearGradient4465"
       id="linearGradient4237"
       gradientUnits="userSpaceOnUse"
       gradientTransform="matrix(0.9660937,-0.02530234,0.02354685,0.9608617,-1.6246857,2.3871712)"
       x1="83.886719"
       y1="77.661766"
       x2="86.300743"
       y2="86.671021" />
    <linearGradient
       inkscape:collect="always"
       xlink:href="#linearGradient4509"
       id="linearGradient4239"
       gradientUnits="userSpaceOnUse"
       gradientTransform="matrix(-0.9660937,0.02530234,-0.02354685,-0.9608617,170.18297,163.75311)"
       x1="75.585938"
       y1="85.083641"
       x2="89.453125"
       y2="79.224266" />
    <linearGradient
       inkscape:collect="always"
       xlink:href="#linearGradient2575"
       id="linearGradient4241"
       gradientUnits="userSpaceOnUse"
       gradientTransform="matrix(1.048723,0,0,1.0469592,-71.495858,34.33378)"
       x1="58.557281"
       y1="107.76735"
       x2="63.943447"
       y2="107.76735" />
    <linearGradient
       inkscape:collect="always"
       xlink:href="#linearGradient8081"
       id="linearGradient4243"
       gradientUnits="userSpaceOnUse"
       gradientTransform="matrix(1.048723,0,0,1.0469592,-59.900554,35.01471)"
       x1="58.557281"
       y1="107.76735"
       x2="63.943447"
       y2="107.76735" />
    <linearGradient
       inkscape:collect="always"
       xlink:href="#linearGradient4322"
       id="linearGradient4245"
       gradientUnits="userSpaceOnUse"
       gradientTransform="matrix(0.96460203,0,0,0.96297972,-5.3874716,26.311378)"
       x1="5.1934605"
       y1="88.98745"
       x2="5.1934605"
       y2="145.64882" />
    <linearGradient
       inkscape:collect="always"
       xlink:href="#linearGradient6924"
       id="linearGradient4274"
       gradientUnits="userSpaceOnUse"
       gradientTransform="matrix(1.0386242,0.01032117,-0.01200359,1.0329366,2.155059,-44.318003)"
       x1="8.3827581"
       y1="8.3199806"
       x2="15.021504"
       y2="14.958727" />
    <linearGradient
       inkscape:collect="always"
       xlink:href="#linearGradient3916"
       id="linearGradient4277"
       gradientUnits="userSpaceOnUse"
       gradientTransform="matrix(0.71208397,-0.69309802,0.69581262,0.70708877,-9.0581504,-5.3070434)"
       x1="34.165016"
       y1="4.863008"
       x2="34.165016"
       y2="-14.006344" />
    <linearGradient
       inkscape:collect="always"
       xlink:href="#linearGradient6511"
       id="linearGradient4279"
       gradientUnits="userSpaceOnUse"
       gradientTransform="matrix(0.71208397,-0.69309802,0.69581262,0.70708877,-9.0581504,-5.3070434)"
       x1="38.074299"
       y1="4.2695875"
       x2="38.074299"
       y2="-10.42289" />
    <linearGradient
       inkscape:collect="always"
       xlink:href="#linearGradient3904"
       id="linearGradient4282"
       gradientUnits="userSpaceOnUse"
       gradientTransform="matrix(0.7120839,-0.69309796,0.69581265,0.70708881,-8.7814505,-4.8841883)"
       x1="38.827515"
       y1="104.49192"
       x2="36.460194"
       y2="17.509802" />
    <linearGradient
       inkscape:collect="always"
       xlink:href="#linearGradient3904"
       id="linearGradient4285"
       gradientUnits="userSpaceOnUse"
       gradientTransform="matrix(0.99370431,0,0,0.99203319,-67.624703,-102.99319)"
       x1="36.460194"
       y1="108.28275"
       x2="39.503891"
       y2="69.41713" />
    <linearGradient
       inkscape:collect="always"
       xlink:href="#radialGradient9613"
       id="linearGradient4288"
       gradientUnits="userSpaceOnUse"
       gradientTransform="matrix(0.7322276,-0.71270458,0.69581262,0.70708877,-10.038395,-4.6783139)"
       spreadMethod="reflect"
       x1="32.228344"
       y1="47.999996"
       x2="35.935673"
       y2="47.999996" />
    <linearGradient
       inkscape:collect="always"
       xlink:href="#linearGradient4292"
       id="linearGradient4298"
       x1="44.624229"
       y1="46.257"
       x2="40.498207"
       y2="42.06221"
       gradientUnits="userSpaceOnUse" />
  </defs>
  <metadata
     id="metadata8030">
    <rdf:RDF>
      <cc:Work
         rdf:about="">
        <dc:format>image/svg+xml</dc:format>
        <dc:type
           rdf:resource="http://purl.org/dc/dcmitype/StillImage" />
        <dc:title></dc:title>
      </cc:Work>
    </rdf:RDF>
  </metadata>
  <g
     transform="translate(9.2374505e-6,48)"
     inkscape:groupmode="layer"
     inkscape:label="Layer 1"
     id="layer1">
    <g
       id="g4099">
      <path
         inkscape:connector-curvature="0"
         id="path4298"
         d="m 69.316969,-44.724472 c 5.228411,0.195871 10.525115,2.172259 14.243229,6.037891 a 0.99093246,0.99093246 0 0 1 -0.402526,1.610104 c -4.380168,1.46375 -8.766895,2.927036 -13.128542,4.427787 -0.205573,1.695079 -0.553778,3.485595 -0.588307,5.108984 -0.03752,1.764082 0.283095,3.223326 1.269505,4.334896 0.836983,0.250504 1.528796,0.677716 2.105521,1.145651 0.695634,0.564415 1.310468,1.134138 1.857812,1.424323 a 0.99093246,0.99093246 0 0 1 0.123855,0.06193 l 3.375026,2.415156 c 4.057292,-1.65702 8.108734,-3.519129 12.292526,-5.047058 a 0.99093246,0.99093246 0 0 1 0.464454,-0.06193 c 0.698756,0.08833 1.375142,0.514966 1.672031,1.083724 0.296889,0.568758 0.259048,1.142201 0.185781,1.641068 -0.14065,0.95767 -0.541,1.790136 -0.712161,2.229375 -0.0081,0.03128 -0.02274,0.06161 -0.03096,0.09289 -1.794329,6.820188 -5.917324,13.4726928 -12.385418,16.9370575 -0.307693,0.59869622 -0.782557,1.06127174 -1.331432,1.36239591 C 77.65801,0.44699114 76.901929,0.66522714 76.128947,0.82289744 74.582983,1.1382371 72.890731,1.2286288 71.825015,1.4421683 68.133203,2.1819027 65.517343,2.1763431 62.133426,3.1451631 57.892922,4.3592253 53.51025,4.9803451 50.98655,8.2231842 a 0.99093246,0.99093246 0 0 1 -0.06193,0.061927 C 41.591089,18.214883 34.352366,30.18916 24.141159,39.744074 a 0.99093246,0.99093246 0 0 1 0,0.03101 c -2.352463,2.138208 -5.527398,3.362928 -8.700756,3.467916 -3.145597,0.104078 -6.342608,-0.947474 -8.607864,-3.467916 -0.01,-0.0111 -0.02101,-0.01982 -0.03096,-0.03101 -0.01037,-0.01021 -0.02063,-0.02071 -0.03096,-0.03101 -4.82146,-4.799914 -4.996603,-13.597573 0.588308,-17.958855 0.02014,-0.02011 0.102555,-0.07184 0.123854,-0.09284 1.437719,-1.419616 5.426532,-4.796539 7.895703,-6.811979 0.0061,-0.0052 0.02478,0.0052 0.03096,0 8.571411,-7.1908411 17.690112,-13.6691703 25.668773,-21.3029232 3.737621,-6.0120888 5.157569,-13.2666028 6.997761,-20.3120838 0.0038,-0.01868 -0.0038,-0.04322 0,-0.06193 0.85906,-4.22188 1.55122,-9.271357 5.449584,-12.540235 0.02131,-0.01991 0.04054,-0.04213 0.06193,-0.06193 4.243401,-3.925059 10.132537,-5.548101 15.72948,-5.294766 z M 15.564258,24.757719 a 0.99093246,0.99093246 0 0 1 -0.03096,0 c -4.352353,-0.294981 -7.32982,5.609801 -4.551641,9.010391 a 0.99093246,0.99093246 0 0 1 0.09289,0.123854 c 0.7883,1.367419 2.207679,2.350742 3.715625,2.662865 1.507946,0.312122 3.028721,0.0069 4.180078,-1.176615 a 0.99093246,0.99093246 0 0 1 0.123855,-0.123854 c 4.339207,-3.141002 1.542548,-10.38542 -3.529844,-10.496641 z"
         style="font-size:medium;font-style:normal;font-variant:normal;font-weight:normal;font-stretch:normal;text-indent:0;text-align:start;text-decoration:none;line-height:normal;letter-spacing:normal;word-spacing:normal;text-transform:none;direction:ltr;block-progression:tb;writing-mode:lr-tb;text-anchor:start;baseline-shift:baseline;opacity:0.25;color:#000000;fill:#000000;fill-opacity:1;fill-rule:evenodd;stroke:none;stroke-width:2.1932559;marker:none;visibility:visible;display:inline;overflow:visible;enable-background:accumulate;font-family:Sans;-inkscape-font-specification:Sans" />
      <path
         sodipodi:nodetypes="cccccccccssccccccccccccc"
         inkscape:connector-curvature="0"
         id="path4213"
         d="m 69.286005,-43.733638 c 5.003819,0.187457 10.054524,2.081588 13.562032,5.728256 -4.587666,1.53309 -9.175237,3.066866 -13.747813,4.644531 -0.367019,3.595328 -1.665217,8.204948 0.952613,10.966516 1.619115,0.246114 2.742836,1.867184 4.170746,2.62422 1.275035,0.919338 2.55007,1.838676 3.825105,2.758015 4.257931,-1.717768 8.450148,-3.681208 12.74783,-5.250729 1.900854,0.240298 0.698686,2.720991 0.32716,3.715454 -1.753482,6.746089 -5.863746,13.3210058 -12.208011,16.5835565 -0.64273,2.06347795 -4.912082,1.95844564 -7.291253,2.43516434 C 68.02954,1.1916569 65.377836,1.1825214 61.86213,2.1890724 57.724949,3.3735532 53.017763,3.9894513 50.200253,7.6098227 40.770885,17.641547 33.52694,29.608799 23.448066,39.039888 19.119259,42.974448 11.633601,43.705098 7.528075,39.056338 3.045679,34.662091 2.875574,26.403554 8.07108,22.466418 9.331702,21.205145 13.546746,17.660889 16.036437,15.629141 24.606171,8.4380405 33.775341,1.9114577 41.852306,-5.8342614 c 3.922895,-6.2553936 5.333622,-13.6871556 7.179163,-20.7428396 0.878908,-4.303328 1.543809,-9.075364 5.168183,-12.064702 4.008942,-3.744986 9.684794,-5.336327 15.086353,-5.091835 z M 15.595221,23.766885 c -5.243956,-0.355412 -8.7273,6.520506 -5.390114,10.605336 1.883749,3.26763 6.691736,4.560221 9.491124,1.683654 5.083595,-3.679837 1.897067,-12.157476 -4.10101,-12.28899 z"
         style="font-size:medium;font-style:normal;font-variant:normal;font-weight:normal;font-stretch:normal;text-indent:0;text-align:start;text-decoration:none;line-height:normal;letter-spacing:normal;word-spacing:normal;text-transform:none;direction:ltr;block-progression:tb;writing-mode:lr-tb;text-anchor:start;baseline-shift:baseline;opacity:0.5;color:#000000;fill:#000000;fill-opacity:1;fill-rule:evenodd;stroke:none;stroke-width:2.1932559;marker:none;visibility:visible;display:inline;overflow:visible;enable-background:accumulate;font-family:Sans;-inkscape-font-specification:Sans" />
      <path
         inkscape:connector-curvature="0"
         style="fill:#888a85;fill-opacity:1;fill-rule:evenodd;stroke:url(#radialGradient3327);stroke-width:2.1932559;stroke-linecap:round;stroke-linejoin:round;stroke-miterlimit:4;stroke-opacity:1;stroke-dasharray:none"
         d="m 90.787275,-21.173082 -12.878397,5.420747 -7.700703,-5.575648 c -0.948958,1.296739 -1.137006,19.5411896 3.459822,19.2810127 8.415411,-0.4763061 14.321483,-8.7158247 17.119278,-19.1261117 z"
         id="path4070"
         inkscape:r_cx="true"
         inkscape:r_cy="true"
         sodipodi:nodetypes="cccsc" />
      <path
         inkscape:connector-curvature="0"
         style="fill:url(#radialGradient3324);fill-opacity:1;fill-rule:evenodd;stroke:none"
         d="m 90.330464,-20.568612 -12.216935,5.141895 -0.515983,8.5017055 1.528123,3.7041203 c 5.303512,-3.0206001 9.115974,-9.5754428 11.204795,-17.3477208 z"
         id="path4072"
         inkscape:r_cx="true"
         inkscape:r_cy="true" />
      <path
         style="fill:#888a85;fill-opacity:1;fill-rule:evenodd;stroke:none"
         d="m 66.05398,-43.646113 c -8.584009,0.690885 -15.319932,6.222464 -16.139214,13.059417 -0.0061,0.03069 -0.02346,0.09596 -0.02934,0.126696 0,0 -4.022845,19.511514 -8.031367,24.635532 C 38.707907,-1.8028249 8.827702,20.421227 5.966381,24.704382 -0.077013,33.75082 9.910378,47.432623 21.417187,40.248487 29.003283,35.512185 46.769434,8.5154811 52.946253,4.8790978 c 4.175119,-2.4579633 25.478213,-6.072143 25.478213,-6.072143 1.219612,0.32826905 -8.041848,-18.3760808 -10.497756,-24.2714358 0.164926,-3.927285 0.16977,-4.24624 0.682524,-7.812013 4.845666,-1.678944 13.760377,-4.661066 13.760377,-4.661066 -3.36478,-3.525411 -8.708285,-5.787284 -14.67244,-5.725559 -0.03907,4.03e-4 -0.08737,7.05e-4 -0.126376,0.0013 -0.217352,0.0034 -1.005304,0.0068 -1.07442,0.01112 -0.06,0.0038 -0.158467,2.76e-4 -0.221201,0.0023 -0.06781,0.0049 -0.153605,-0.0032 -0.221198,0.0023 z M 15.575635,23.676501 c 3.4708,-0.03587 6.67986,3.46761 6.67272,7.463572 -0.0059,3.305866 -3.450712,6.608304 -6.9215,6.644221 -3.470775,0.03587 -6.85386,-3.593624 -6.918512,-7.221015 -0.06213,-3.485722 2.780691,-6.841378 7.167292,-6.886778 z"
         id="path4076"
         inkscape:r_cx="true"
         inkscape:r_cy="true"
         sodipodi:nodetypes="cccssssccccssssccssss"
         inkscape:connector-curvature="0" />
      <path
         sodipodi:nodetypes="cccssssccccssssccssss"
         inkscape:r_cy="true"
         inkscape:r_cx="true"
         id="path4078"
         d="m 66.544431,-43.721101 c -8.584003,0.690885 -15.319924,6.222465 -16.13921,13.059417 -0.0061,0.03069 -0.02346,0.09596 -0.02933,0.126698 0,0 -4.022845,19.511512 -8.031369,24.6355308 C 39.198366,-1.8778122 9.318171,20.346231 6.456845,24.629396 0.41345,33.675823 10.400842,47.357617 21.907652,40.173481 29.49374,35.437188 47.259899,8.4404918 53.436716,4.8041086 c 4.17512,-2.4579624 25.4782,-6.0721411 25.4782,-6.0721411 1.219612,0.3282681 -8.041848,-18.3760805 -10.49775,-24.2714355 0.164924,-3.927285 0.169955,-4.246233 0.682518,-7.812013 4.845665,-1.678944 13.760377,-4.661066 13.760377,-4.661066 -3.364789,-3.52541 -8.708285,-5.787284 -14.672432,-5.725558 -0.03907,4.03e-4 -0.08737,7.03e-4 -0.126375,0.0013 -0.217353,0.0034 -1.005305,0.0068 -1.07442,0.01112 -0.05999,0.0038 -0.158468,2.75e-4 -0.2212,0.0023 -0.06781,0.0049 -0.153608,-0.0032 -0.221199,0.0023 z M 16.066093,23.601525 c 3.470793,-0.03597 6.679867,3.46759 6.67272,7.463552 -0.0059,3.305856 -3.450712,6.608293 -6.921507,6.644231 -3.470769,0.03587 -6.853858,-3.593624 -6.918505,-7.221025 -0.06213,-3.485722 2.780696,-6.841358 7.167292,-6.886758 z"
         style="fill:url(#radialGradient3320);fill-opacity:1;fill-rule:evenodd;stroke:none"
         inkscape:connector-curvature="0" />
      <path
         style="fill:url(#radialGradient3317);fill-opacity:1;fill-rule:evenodd;stroke:none"
         d="m 51.815361,-29.934624 6.442608,15.7002 3.072947,-1.160094 4.537913,11.4267915 -2.532237,1.0743151 3.224795,4.6007644 c 5.695297,-1.17642436 11.875521,-3.3339879 11.875521,-3.3339879 0.0046,7.134e-4 0.02675,-4.488e-4 0.03082,-2.784e-4 0.0038,-4.449e-4 0.02735,7.055e-4 0.03082,-2.794e-4 0.0029,-0.00267 0.02802,-0.026277 0.03028,-0.029517 0.0021,-0.00436 -0.0018,-0.024335 -6.23e-4,-0.02922 0.0023,-0.01082 0.02874,-0.045777 0.02975,-0.058727 0.04663,-1.6876608 -8.278161,-18.593807 -10.580774,-24.144494 0.16201,-3.92705 0.181538,-4.242378 0.689732,-7.80778 4.819095,-1.676784 13.695086,-4.276844 13.695086,-4.276844 -3.348685,-3.526762 -10.454501,-5.301701 -15.840726,-4.534451 -8.460202,1.20513 -13.654729,6.012198 -14.705897,12.573605 z"
         id="path4080"
         sodipodi:nodetypes="cccccccssssscccsc"
         inkscape:r_cx="true"
         inkscape:r_cy="true"
         inkscape:connector-curvature="0" />
      <path
         style="fill:url(#radialGradient3314);fill-opacity:1;fill-rule:evenodd;stroke:none"
         d="m 65.071221,-43.483606 c -8.10397,1.02212 -14.365959,6.408922 -15.153225,12.978806 -0.0061,0.03069 -0.01363,0.08575 -0.01951,0.116482 -1.1e-5,3e-6 -4.021189,19.513001 -8.029723,24.6370191 L 52.972882,4.9517427 c 4.175109,-2.4579613 25.453652,-6.0883173 25.453652,-6.0883173 0.0046,0.00129 0.0289,0.025306 0.03341,0.026019 0.0037,1.08e-4 0.02681,-0.00198 0.03063,-0.00248 0.0029,-0.00158 0.02498,-0.028853 0.02784,-0.030983 0.002,-0.00377 0.02619,-0.026644 0.02784,-0.030993 0.0011,-0.00486 -0.0037,-0.023076 -0.0025,-0.028496 0.0026,-0.017835 -0.0081,-0.062918 -0.0083,-0.085499 -0.08979,-1.9223506 -8.296496,-18.5978896 -10.589309,-24.1017566 0.164916,-3.927284 0.176317,-4.245807 0.689076,-7.811579 4.845666,-1.67894 13.740334,-4.677584 13.740334,-4.677584 -3.36478,-3.525411 -8.695494,-5.765225 -14.659637,-5.703499 -0.03907,4.01e-4 -0.08625,-0.01915 -0.125257,-0.01856 -0.217352,0.0034 -1.00811,0.02572 -1.077226,0.03002 -0.06,0.0038 -0.15438,-0.01311 -0.217112,-0.0111 -0.05934,0.0043 -0.151708,0.01522 -0.214332,0.0174 -0.335316,0.02699 -0.681001,0.0405 -1.010433,0.08205 z m 1.244025,1.047965 c 5.352612,-0.689001 12.265354,0.722409 15.561803,4.194016 0,0 -8.829386,2.993338 -13.648487,4.670125 -0.508207,3.565401 -0.527047,3.884531 -0.689076,7.81158 2.284627,5.507321 10.476044,22.1954449 10.558698,24.1042428 7.4e-5,0.00703 0.0028,0.021897 0.0025,0.028486 -0.0051,0.010543 -0.01947,0.049482 -0.02507,0.05948 1.13e-4,0.00258 0.0027,0.025425 0.0025,0.028487 -0.0067,0.00664 -0.02658,0.029646 -0.02784,0.030993 -0.0064,-9.11e-5 -0.02877,0.00228 -0.03063,0.00248 -0.0037,7.43e-5 -0.02785,0.00248 -0.03063,0.00248 0,0 -6.789159,0.87141815 -12.484471,2.04784354 l -1.58578,-2.52261924 3.407538,-2.0370088 -5.569985,-12.0054013 -4.244499,1.276339 -6.13819,-15.074648 c 1.051212,-6.561348 6.23929,-11.363351 14.699482,-12.56848 0.08416,-0.01199 0.157215,-0.03745 0.242177,-0.04839 z"
         id="path4082"
         inkscape:r_cx="true"
         inkscape:r_cy="true"
         sodipodi:nodetypes="ccscccsssssscccsssssccsccsssssscccccccsccs"
         inkscape:connector-curvature="0" />
      <path
         style="fill:url(#linearGradient3311);fill-opacity:1;fill-rule:evenodd;stroke:none"
         d="m 77.864078,-3.2662452 c 3.975979,-0.5823742 10.484702,-8.5569848 12.844584,-17.7205608 0.104981,-0.407607 0.281854,2.916399 0.158392,3.352695 -2.39208,8.4537944 -8.121602,14.0517315 -12.313691,15.8367674 -0.247972,0.1055862 -0.04047,1.63784067 -0.689285,-1.4689016 z"
         id="path4100"
         sodipodi:nodetypes="csssc"
         inkscape:r_cx="true"
         inkscape:r_cy="true"
         inkscape:connector-curvature="0" />
      <path
         style="opacity:0.3853211;fill:#000000;fill-opacity:1;fill-rule:evenodd;stroke:none"
         d="m 7.738628,22.68978 c 0,0 30.527403,-24.52978 34.497565,-28.8379057 3.812297,-4.1368223 7.805746,-23.4982793 7.805746,-23.4982793 0,0 2.047231,-1.265142 1.617803,-0.111673 -0.588385,1.58043 -6.480731,21.0399673 -7.804491,22.8979692 C 40.839569,-2.6273628 24.553072,9.9525686 24.553072,9.9525686 L 13.48978,18.908045 7.738628,22.68978 z"
         id="path4104"
         sodipodi:nodetypes="cscssccc"
         inkscape:r_cx="true"
         inkscape:r_cy="true"
         inkscape:connector-curvature="0" />
      <path
         inkscape:r_cy="true"
         inkscape:r_cx="true"
         sodipodi:nodetypes="csccszscc"
         id="path4124"
         d="m 14.932713,21.333121 c 0,0 4.114197,-0.806667 7.457675,2.601116 3.656532,3.726871 2.320405,7.925815 2.320405,7.925815 l -0.642797,0.705216 c 0,0 0.403002,-1.611502 0.07423,-3.222815 -0.32876,-1.611313 -1.100662,-3.285078 -2.478051,-4.664239 -1.357332,-1.359086 -2.660581,-2.252105 -4.101669,-2.62444 -1.441089,-0.372325 -3.103555,-0.217161 -3.067781,-0.278355 l 0.437982,-0.442298 z"
         style="fill:url(#radialGradient3307);fill-opacity:1;fill-rule:evenodd;stroke:none"
         inkscape:connector-curvature="0" />
      <path
         style="fill:url(#radialGradient3304);fill-opacity:1;fill-rule:evenodd;stroke:none"
         d="m 14.932713,21.333121 c 0,0 4.114197,-0.806667 7.457675,2.601116 3.656532,3.726871 2.320405,7.925815 2.320405,7.925815 l -0.642797,0.705216 c 0,0 0.403002,-1.611502 0.07423,-3.222815 -0.32876,-1.611313 -1.100662,-3.285078 -2.478051,-4.664239 -1.357332,-1.359086 -2.660581,-2.252105 -4.101669,-2.62444 -1.441089,-0.372325 -3.103555,-0.217161 -3.067781,-0.278355 l 0.437982,-0.442298 z"
         id="path4126"
         sodipodi:nodetypes="csccszscc"
         inkscape:r_cx="true"
         inkscape:r_cy="true"
         inkscape:connector-curvature="0" />
      <rect
         style="fill:#2e3436;fill-opacity:1;fill-rule:evenodd;stroke:url(#radialGradient3301);stroke-width:2.14862132;stroke-linecap:round;stroke-linejoin:round;stroke-miterlimit:4;stroke-opacity:1;stroke-dasharray:none"
         id="rect4088"
         width="13.042541"
         height="12.145863"
         x="49.113491"
         y="7.4468651"
         inkscape:r_cx="true"
         inkscape:r_cy="true"
         transform="matrix(0.93594441,-0.35214778,0.41829103,0.90831306,0,0)" />
      <rect
         transform="matrix(0.949179,-0.31473676,0.41600613,0.90936181,0,0)"
         inkscape:r_cy="true"
         inkscape:r_cx="true"
         y="6.0168276"
         x="51.932938"
         height="10.241521"
         width="7.5345759"
         id="rect4090"
         style="fill:url(#radialGradient3298);fill-opacity:1;fill-rule:evenodd;stroke:none" />
      <rect
         style="fill:url(#radialGradient3293);fill-opacity:1;fill-rule:evenodd;stroke:url(#linearGradient3295);stroke-width:0.53357905;stroke-linecap:round;stroke-linejoin:round;stroke-miterlimit:4;stroke-opacity:1;stroke-dasharray:none"
         id="rect4092"
         width="11.01626"
         height="1.1317165"
         x="52.221535"
         y="2.3038793"
         inkscape:r_cx="true"
         inkscape:r_cy="true"
         ry="0"
         transform="matrix(0.97193901,-0.23523301,0.18899041,0.98197893,0,0)" />
      <rect
         transform="matrix(0.97632583,-0.21630504,0.20197227,0.97939124,0,0)"
         ry="0"
         inkscape:r_cy="true"
         inkscape:r_cx="true"
         y="8.6686049"
         x="54.058552"
         height="0.96832275"
         width="10.735779"
         id="rect4094"
         style="fill:url(#radialGradient3288);fill-opacity:1;fill-rule:evenodd;stroke:url(#linearGradient3290);stroke-width:0.48723641;stroke-linecap:round;stroke-linejoin:round;stroke-miterlimit:4;stroke-opacity:1;stroke-dasharray:none" />
      <rect
         style="fill:url(#radialGradient3283);fill-opacity:1;fill-rule:evenodd;stroke:url(#linearGradient3285);stroke-width:0.50209796;stroke-linecap:round;stroke-linejoin:round;stroke-miterlimit:4;stroke-opacity:1;stroke-dasharray:none"
         id="rect4096"
         width="11.436156"
         height="0.9653194"
         x="52.620064"
         y="4.5333939"
         inkscape:r_cx="true"
         inkscape:r_cy="true"
         ry="0"
         transform="matrix(0.97822481,-0.20754814,0.20924469,0.97786331,0,0)" />
      <path
         style="opacity:0.8;fill:#000000;fill-opacity:1;fill-rule:evenodd;stroke:none"
         d="m 15.14911,21.153186 c 5.307702,-1.016694 11.040642,5.127969 9.654641,10.636011 C 28.874104,28.697361 47.16707,6.8621914 48.207739,4.4722735 49.801335,0.81255314 46.060567,-2.711758 42.301819,-1.2823242 39.680109,-0.2853031 14.803636,21.219363 15.14911,21.153186 z"
         id="path4116"
         inkscape:r_cx="true"
         inkscape:r_cy="true"
         sodipodi:nodetypes="ccsss"
         inkscape:connector-curvature="0" />
    </g>
    <g
       id="g4457">
      <path
         style="opacity:0.25;fill:#000000;fill-opacity:1;stroke:#000000;stroke-width:3;stroke-miterlimit:4;stroke-dasharray:none"
         clip-path="none"
         d="m 10.973345,-41.706285 a 0.2059661,0.2059661 0 0 0 -0.03125,0.03125 l -5.7187506,5.5625 a 0.2059661,0.2059661 0 0 0 -0.03125,0.0625 0.2059661,0.2059661 0 0 0 0,0.03125 0.2059661,0.2059661 0 0 0 -0.03125,0.0625 0.2059661,0.2059661 0 0 0 0.03125,0.03125 0.2059661,0.2059661 0 0 0 0,0.03125 0.2059661,0.2059661 0 0 0 0,0.03125 l 4.15625,7.03125 a 0.2059661,0.2059661 0 0 0 0.0625,0.0625 0.2059661,0.2059661 0 0 0 0.03125,0.03125 c 0.7178596,0.361119 1.3959686,0.691433 2.0312506,0.96875 2.804387,1.709255 5.556689,3.645133 7.8125,5.9375 l 22.5,22.8749999 -3.75,3.625 4.53125,4.59375 c 2.572212,0.386267 5.223983,1.5646311 7.34375,3.7187501 2.143431,2.178163 3.371606,4.906933 3.6875,7.5 l 21.3125,21.625 c 4.941988,5.022095 18.193219,-7.819915 13.21875,-12.875 L 66.817095,7.5749649 c -2.59988,-0.36997 -5.262813,-1.665587 -7.40625,-3.84375 -2.119768,-2.154117 -3.292125,-4.777856 -3.625,-7.34375 l -4.5,-4.59375 -3.8125,3.6875 -22.5,-22.8749999 c -2.254891,-2.291433 -4.439569,-5.023186 -5.96875,-7.84375 -0.227531,-0.675193 -0.46801,-1.366422 -0.75,-2.09375 a 0.2059661,0.2059661 0 0 0 -0.0625,-0.0625 0.2059661,0.2059661 0 0 0 -0.03125,-0.03125 l -6.96875,-4.28125 a 0.2059661,0.2059661 0 0 0 -0.03125,0 0.2059661,0.2059661 0 0 0 -0.03125,0 0.2059661,0.2059661 0 0 0 -0.03125,0 0.2059661,0.2059661 0 0 0 -0.03125,0 0.2059661,0.2059661 0 0 0 -0.03125,0 0.2059661,0.2059661 0 0 0 -0.03125,0 0.2059661,0.2059661 0 0 0 -0.03125,0 z"
         id="path4533"
         inkscape:connector-curvature="0" />
      <path
         id="path3627"
         d="m 10.973345,-41.706285 a 0.2059661,0.2059661 0 0 0 -0.03125,0.03125 l -5.7187506,5.5625 a 0.2059661,0.2059661 0 0 0 -0.03125,0.0625 0.2059661,0.2059661 0 0 0 0,0.03125 0.2059661,0.2059661 0 0 0 -0.03125,0.0625 0.2059661,0.2059661 0 0 0 0.03125,0.03125 0.2059661,0.2059661 0 0 0 0,0.03125 0.2059661,0.2059661 0 0 0 0,0.03125 l 4.15625,7.03125 a 0.2059661,0.2059661 0 0 0 0.0625,0.0625 0.2059661,0.2059661 0 0 0 0.03125,0.03125 c 0.7178596,0.361119 1.3959686,0.691433 2.0312506,0.96875 2.804387,1.709255 5.556689,3.645133 7.8125,5.9375 l 22.5,22.8749999 -3.75,3.625 4.53125,4.59375 c 2.572212,0.386267 5.223983,1.5646311 7.34375,3.7187501 2.143431,2.178163 3.371606,4.906933 3.6875,7.5 l 21.3125,21.625 c 4.941988,5.022095 18.193219,-7.819915 13.21875,-12.875 L 66.817095,7.5749649 c -2.59988,-0.36997 -5.262813,-1.665587 -7.40625,-3.84375 -2.119768,-2.154117 -3.292125,-4.777856 -3.625,-7.34375 l -4.5,-4.59375 -3.8125,3.6875 -22.5,-22.8749999 c -2.254891,-2.291433 -4.439569,-5.023186 -5.96875,-7.84375 -0.227531,-0.675193 -0.46801,-1.366422 -0.75,-2.09375 a 0.2059661,0.2059661 0 0 0 -0.0625,-0.0625 0.2059661,0.2059661 0 0 0 -0.03125,-0.03125 l -6.96875,-4.28125 a 0.2059661,0.2059661 0 0 0 -0.03125,0 0.2059661,0.2059661 0 0 0 -0.03125,0 0.2059661,0.2059661 0 0 0 -0.03125,0 0.2059661,0.2059661 0 0 0 -0.03125,0 0.2059661,0.2059661 0 0 0 -0.03125,0 0.2059661,0.2059661 0 0 0 -0.03125,0 0.2059661,0.2059661 0 0 0 -0.03125,0 z"
         clip-path="none"
         style="opacity:0.75;fill:#000000;fill-opacity:1;stroke:#000000;stroke-width:1;stroke-miterlimit:4;stroke-dasharray:none"
         inkscape:connector-curvature="0" />
      <g
         id="g4337">
        <g
           id="g4329">
          <path
             inkscape:connector-curvature="0"
             id="rect3006"
             d="m 11.076842,-41.519753 -5.6865986,5.559144 4.1159579,7.029116 c 3.4582127,1.978948 7.0014467,4.281644 9.7846977,7.109998 l 41.555037,42.195086 5.746265,-5.495002 -41.614703,-42.259228 c -2.78325,-2.828355 -5.457366,-6.367985 -6.927042,-9.858058 l -6.973614,-4.281056 z"
             clip-path="none"
             style="fill:url(#linearGradient4288);fill-opacity:1;stroke:none" />
          <rect
             clip-path="none"
             style="opacity:0.3857678;fill:url(#linearGradient4285);fill-opacity:1;stroke:none"
             id="rect4944"
             width="1.3782469"
             height="54.545441"
             x="-31.898163"
             y="-45.862103"
             transform="matrix(-0.71659535,0.69748914,-0.70140058,-0.7127673,0,0)" />
          <path
             inkscape:connector-curvature="0"
             id="rect3886"
             d="m 30.559783,-18.903862 -1.187738,1.134801 34.588114,35.155922 1.187738,-1.134801 -34.588114,-35.155922 z"
             clip-path="none"
             style="fill:url(#linearGradient4282);fill-opacity:1;stroke:none" />
          <path
             clip-path="none"
             id="path3925"
             d="m 5.3787853,-35.971245 4.1423335,7.042906 c 11.4403462,5.75506 12.0654092,0.762881 8.5450072,-8.317177 l -6.990669,-4.270513 -5.6966717,5.544784 z"
             style="fill:url(#linearGradient4277);fill-opacity:1;stroke:url(#linearGradient4279);stroke-width:0.41189101;stroke-linecap:round;stroke-linejoin:round;stroke-miterlimit:4;stroke-opacity:1;stroke-dasharray:none;stroke-dashoffset:1.08779998"
             sodipodi:nodetypes="ccccc"
             inkscape:connector-curvature="0" />
          <path
             clip-path="none"
             sodipodi:nodetypes="ccccc"
             style="fill:url(#linearGradient4274);fill-opacity:1;stroke:none"
             d="m 6.3691586,-35.704773 3.5805833,6.087806 c 9.8889021,4.974604 10.4291981,0.659424 7.3862031,-7.18927 l -6.042651,-3.691382 -4.9241354,4.792846 z"
             id="path6537"
             inkscape:connector-curvature="0" />
          <path
             transform="translate(-9.2374505e-6,-48)"
             sodipodi:nodetypes="ccccc"
             inkscape:connector-curvature="0"
             id="path4290"
             d="m 47.473354,43.481215 -5.698249,5.551571 -4.196484,-4.266425 5.839169,-5.408303 z"
             style="opacity:0.35;fill:url(#linearGradient4298);fill-opacity:1;stroke:none" />
        </g>
        <g
           id="g4600"
           transform="matrix(0.89130113,0.03220904,-0.03220904,0.89130113,-17.812282,-68.361837)">
          <path
             clip-path="none"
             sodipodi:nodetypes="ccsccccsccc"
             id="rect3956"
             d="m 65.548569,79.558266 5.249441,4.962575 c 2.897783,0.328657 5.901377,1.564523 8.363782,3.892364 2.489894,2.353824 3.995676,5.332839 4.454629,8.225559 l 24.735729,23.383966 c 5.74081,5.42711 20.07982,-9.50033 14.30128,-14.96309 L 97.917709,81.67566 C 94.989584,81.366384 91.921753,80.021711 89.431852,77.667887 86.969446,75.340048 85.576186,72.419326 85.099305,69.557741 L 79.849861,64.595167 65.548569,79.558266 z"
             style="fill:url(#linearGradient4233);fill-opacity:1;stroke:none"
             inkscape:connector-curvature="0" />
          <path
             clip-path="none"
             sodipodi:nodetypes="ccccccc"
             id="rect4320"
             d="m 74.449858,70.314319 2.753075,-2.880475 5.120323,4.84051 c -0.12684,0.571545 -0.208133,1.150919 0.541654,1.873141 l -2.352801,2.869994 c -0.688268,-0.429325 -1.064416,-0.9923 -0.873588,-1.798052 l -5.188663,-4.905118 z"
             style="opacity:0.83895126;fill:url(#linearGradient4235);fill-opacity:1;stroke:none"
             inkscape:connector-curvature="0" />
          <path
             clip-path="none"
             sodipodi:nodetypes="ccc"
             id="path4454"
             d="M 84.71074,69.863246 70.710613,84.126282 C 86.36382,89.093457 79.76102,75.568025 84.71074,69.863246 z"
             style="fill:url(#linearGradient4237);fill-opacity:1;fill-rule:evenodd;stroke:none"
             inkscape:connector-curvature="0" />
          <path
             clip-path="none"
             style="fill:url(#linearGradient4239);fill-opacity:1;fill-rule:evenodd;stroke:none"
             d="M 83.847544,96.277035 97.847672,82.014 C 82.194464,77.046825 88.797265,90.572257 83.847544,96.277035 z"
             id="path4505"
             sodipodi:nodetypes="ccc"
             inkscape:connector-curvature="0" />
          <rect
             clip-path="none"
             transform="matrix(0.69093912,-0.72291295,0.7266836,0.6869723,0,0)"
             ry="2.8195474"
             rx="2.8242974"
             y="133.06407"
             x="-10.085495"
             height="28.195473"
             width="5.6485949"
             id="rect4517"
             style="opacity:0.83895126;fill:url(#linearGradient4241);fill-opacity:1;stroke:none" />
          <rect
             clip-path="none"
             style="opacity:0.83895126;fill:url(#linearGradient4243);fill-opacity:1;stroke:none"
             id="rect7696"
             width="5.6485949"
             height="28.195473"
             x="1.5098075"
             y="133.74501"
             rx="2.8242974"
             ry="2.8195474"
             transform="matrix(0.69093912,-0.72291295,0.7266836,0.6869723,0,0)" />
          <rect
             clip-path="none"
             style="opacity:0.95131088;fill:url(#linearGradient4245);fill-opacity:1;stroke:none"
             id="rect4336"
             width="2.4918697"
             height="36.766071"
             x="-1.9371914"
             y="127.39525"
             transform="matrix(0.69093912,-0.72291295,0.7266836,0.6869723,0,0)" />
        </g>
      </g>
    </g>
  </g>
</svg>
