<?xml version="1.0" encoding="UTF-8" standalone="no"?>
<!-- Created with Inkscape (http://www.inkscape.org/) -->

<svg
   xmlns:dc="http://purl.org/dc/elements/1.1/"
   xmlns:cc="http://creativecommons.org/ns#"
   xmlns:rdf="http://www.w3.org/1999/02/22-rdf-syntax-ns#"
   xmlns:svg="http://www.w3.org/2000/svg"
   xmlns="http://www.w3.org/2000/svg"
   xmlns:xlink="http://www.w3.org/1999/xlink"
   xmlns:sodipodi="http://sodipodi.sourceforge.net/DTD/sodipodi-0.dtd"
   xmlns:inkscape="http://www.inkscape.org/namespaces/inkscape"
   version="1.0"
   x="0.00000000"
   y="0.00000000"
   width="96"
   height="96"
   id="svg1443"
   sodipodi:version="0.32"
   inkscape:version="0.48.3.1 r9886"
   sodipodi:docname="start-here-ubuntu.svg"
   inkscape:export-filename="start-here.png"
   inkscape:export-xdpi="90"
   inkscape:export-ydpi="90"
   inkscape:output_extension="org.inkscape.output.svg.inkscape">
  <metadata
     id="metadata84">
    <rdf:RDF>
      <cc:Work
         rdf:about="">
        <dc:format>image/svg+xml</dc:format>
        <dc:type
           rdf:resource="http://purl.org/dc/dcmitype/StillImage" />
        <dc:title></dc:title>
        <dc:creator>
          <cc:Agent>
            <dc:title>by andrefelipe</dc:title>
          </cc:Agent>
        </dc:creator>
      </cc:Work>
    </rdf:RDF>
  </metadata>
  <sodipodi:namedview
     inkscape:window-height="730"
     inkscape:window-width="1019"
     inkscape:pageshadow="2"
     inkscape:pageopacity="0.0"
     borderopacity="1.0"
     bordercolor="#666666"
     pagecolor="#ffffff"
     id="base"
     inkscape:zoom="4"
     inkscape:cx="48"
     inkscape:cy="48"
     inkscape:window-x="23"
     inkscape:window-y="34"
     inkscape:current-layer="svg1443"
     showguides="false"
     inkscape:guide-bbox="true"
     showgrid="false"
     inkscape:window-maximized="0"
     fit-margin-top="0"
     fit-margin-left="0"
     fit-margin-right="0"
     fit-margin-bottom="0">
    <sodipodi:guide
       orientation="horizontal"
       position="0,121.92459"
       id="guide1331" />
    <sodipodi:guide
       orientation="horizontal"
       position="0,38.075431"
       id="guide1333" />
    <sodipodi:guide
       orientation="vertical"
       position="13.524057,8.4373016e-06"
       id="guide1335" />
    <sodipodi:guide
       orientation="vertical"
       position="146.26788,8.4373016e-06"
       id="guide1337" />
    <sodipodi:guide
       orientation="horizontal"
       position="0,145.01952"
       id="guide6086" />
    <sodipodi:guide
       orientation="horizontal"
       position="173.73212,15.396627"
       id="guide6088" />
    <sodipodi:guide
       orientation="vertical"
       position="2.0806242,8.4373016e-06"
       id="guide1329" />
    <sodipodi:guide
       orientation="vertical"
       position="157.50325,8.4373016e-06"
       id="guide1332" />
  </sodipodi:namedview>
  <defs
     id="defs1446">
    <linearGradient
       id="linearGradient3292">
      <stop
         style="stop-color:#a0a0a0;stop-opacity:1;"
         offset="0"
         id="stop3294" />
      <stop
         style="stop-color:#ffffff;stop-opacity:1;"
         offset="1"
         id="stop3296" />
    </linearGradient>
    <linearGradient
       inkscape:collect="always"
       xlink:href="#linearGradient3292"
       id="linearGradient3013"
       gradientUnits="userSpaceOnUse"
       gradientTransform="matrix(0.59632966,0,0,0.59632744,0.16968136,0.54179217)"
       x1="86.782135"
       y1="157.45517"
       x2="86.782135"
       y2="24.018677" />
  </defs>
  <path
     inkscape:connector-curvature="0"
     id="path3236"
     d="M 92.350695,55.57806 C 88.174762,80.016601 65.01599,96.471759 40.564162,92.374261 16.112328,88.276786 -0.41707853,65.170938 3.6019236,40.706091 7.6209247,16.241238 30.673604,-0.36221846 55.151233,3.5782333 79.62885,7.5186843 96.306195,30.517992 92.444325,55.008123"
     style="opacity:0.25;fill:#000000;fill-opacity:1;fill-rule:evenodd;stroke:none" />
  <path
     id="path3869"
     d="M 88.654815,54.946515 C 84.826875,77.348431 63.598002,92.432259 41.183814,88.676244 18.769632,84.920244 3.6176739,63.739951 7.3017599,41.313926 10.985843,18.887893 32.117467,3.6681145 54.555295,7.2801824 76.99311,10.89225 92.280682,31.97487 88.740637,54.424074"
     style="fill:#000000;fill-opacity:1;fill-rule:evenodd;stroke:none;opacity:0.75"
     inkscape:connector-curvature="0" />
  <g
     id="layer2"
     inkscape:label="buracos"
     style="display:inline"
     transform="matrix(0.6,0,0,0.6,-203.50398,-288.49405)" />
  <g
     id="layer3"
     inkscape:label="interior"
     style="display:inline"
     transform="matrix(0.6,0,0,0.6,-203.50398,-288.49405)" />
  <g
     id="g3290"
     inkscape:label="buracos"
     style="display:inline"
     transform="matrix(0.6,0,0,0.6,-30.592074,-418.20355)" />
  <g
     id="g3292"
     inkscape:label="interior"
     style="display:inline"
     transform="matrix(0.6,0,0,0.6,-30.592074,-418.20355)" />
  <g
     id="g3630"
     inkscape:label="buracos"
     style="display:inline"
     transform="matrix(0.6,0,0,0.6,-30.633246,-417.80057)" />
  <g
     id="g3632"
     inkscape:label="interior"
     style="display:inline"
     transform="matrix(0.6,0,0,0.6,-30.633246,-417.80057)" />
  <g
     id="g3452"
     inkscape:label="buracos"
     style="display:inline"
     transform="matrix(0.6,0,0,0.6,-28.47351,-421.0283)" />
  <g
     id="g3454"
     inkscape:label="interior"
     style="display:inline"
     transform="matrix(0.6,0,0,0.6,-28.47351,-421.0283)" />
  <g
     id="g3587"
     inkscape:label="buracos"
     style="display:inline"
     transform="matrix(0.6,0,0,0.6,80.279325,-406.90456)" />
  <g
     id="g3589"
     inkscape:label="interior"
     style="display:inline"
     transform="matrix(0.6,0,0,0.6,80.279325,-406.90456)" />
  <g
     id="g3694"
     inkscape:label="buracos"
     style="display:inline"
     transform="matrix(0.6,0,0,0.6,2.252748,-367.63675)" />
  <g
     id="g3696"
     inkscape:label="interior"
     style="display:inline"
     transform="matrix(0.6,0,0,0.6,2.252748,-367.63675)" />
  <g
     style="display:inline"
     inkscape:label="solto"
     id="g6613"
     transform="matrix(2.8422714,0,0,2.8422714,-693.29964,-1422.0741)" />
  <path
     inkscape:connector-curvature="0"
     style="fill:url(#linearGradient3013);fill-opacity:1;fill-rule:evenodd;stroke:none"
     d="M 86.437275,54.567602 C 82.818135,75.747601 62.747203,90.008671 41.555608,86.457534 20.364018,82.906404 6.0385309,62.881395 9.5216663,41.678609 13.0048,20.475815 32.983789,6.0862066 54.197735,9.5012523 75.411667,12.916298 89.865368,32.848957 86.518417,54.073657"
     id="path3389" />
  <path
     inkscape:connector-curvature="0"
     style="fill:#4d4d4d"
     d="m 45.596337,13 c -0.733804,6.86e-4 -1.42374,0.296337 -1.942245,0.815528 -0.518159,0.519534 -0.805826,1.207067 -0.804797,1.942244 0.001,1.513276 1.233766,2.74704 2.747042,2.74704 l 0.01074,0 c 1.514993,-0.0014 2.737685,-1.240717 2.736314,-2.75777 C 48.342331,14.234452 47.112028,13 45.596349,13 z m 8.241122,4.131292 c -1.703847,0.001 -3.091109,1.382792 -3.09042,3.090422 0.0021,1.701448 1.398675,3.090421 3.101151,3.090421 0.825488,-0.001 1.594568,-0.327671 2.178316,-0.912103 0.583058,-0.583747 0.902063,-1.361159 0.901372,-2.189049 -0.0021,-1.701792 -1.385882,-3.079691 -3.090419,-3.079691 z m -6.524222,5.494082 c -0.917168,6.88e-4 -1.77682,0.348617 -2.425121,0.997949 -0.647958,0.648645 -1.009366,1.515251 -1.008679,2.435853 0.0017,1.890652 1.541776,3.433802 3.433801,3.433802 l 0.01075,0 c 0.917509,-6.87e-4 1.777167,-0.360034 2.425122,-1.00868 0.647955,-0.648988 0.998633,-1.515593 0.997953,-2.435852 -10e-4,-1.890994 -1.538691,-3.423071 -3.433807,-3.423071 z m 7.554369,5.837464 c -2.082947,0.0017 -3.779249,1.691833 -3.777188,3.777181 0.0011,2.079853 1.695612,3.777182 3.777188,3.777182 l 0.01073,0 c 2.082606,-0.002 3.768167,-1.702565 3.766456,-3.787912 -0.0021,-2.079855 -1.692871,-3.766451 -3.777187,-3.766451 z m -12.36169,2.060281 c -2.271803,0.0024 -4.122279,1.844638 -4.120562,4.120561 0.0024,2.268369 1.850819,4.120562 4.120562,4.120562 l 0.01074,0 c 2.271804,-0.0024 4.111549,-1.855369 4.109832,-4.131293 -0.0028,-2.268369 -1.847385,-4.10983 -4.120561,-4.10983 z m -6.813949,7.210982 c -0.762047,-4.4e-5 -1.527013,0.252041 -2.146128,0.772606 -5.43399,4.567986 -8.55231,11.342532 -8.55231,18.58545 C 24.993529,70.271774 35.314162,81 48,81 60.685835,81 71.006471,70.272117 71.006471,57.092157 c 0,-7.246695 -3.112063,-14.021928 -8.541587,-18.585451 -1.238567,-1.041128 -3.042947,-1.041472 -4.281524,0 -2.920791,2.456885 -6.446698,3.755721 -10.18336,3.755721 -3.7322,0 -7.241116,-1.299179 -10.161909,-3.755721 -0.619456,-0.520735 -1.384078,-0.77256 -2.146124,-0.772605 z m 0.332648,7.715323 c 3.587294,2.27661 7.74494,3.508915 11.975385,3.508915 4.234562,0 8.398477,-1.232648 11.986115,-3.508915 2.775197,3.156007 4.324439,7.277428 4.324439,11.653464 0,9.477636 -7.317087,17.190469 -16.310554,17.190469 -8.993814,0 -16.310558,-7.712833 -16.310558,-17.190469 0,-4.372947 1.555854,-8.49574 4.335173,-11.653464 z"
     id="path52" />
  <path
     style="opacity:0.5;fill:#000000"
     d="m 45.59375,11 c -0.733804,6.86e-4 -1.418995,0.293309 -1.9375,0.8125 -0.518159,0.519534 -0.813529,1.202323 -0.8125,1.9375 5.21e-4,0.787947 0.340859,1.498324 0.875,2 0.510441,-0.479856 1.17156,-0.749342 1.875,-0.75 0.726481,0 1.383578,0.288103 1.875,0.75 0.531481,-0.503768 0.875714,-1.210086 0.875,-2 -0.0011,-1.51259 -1.234321,-2.75 -2.75,-2.75 z m 8.25,4.125 c -1.703847,10e-4 -3.094439,1.38612 -3.09375,3.09375 9.43e-4,0.764268 0.284993,1.459392 0.75,2 0.56736,-0.662104 1.405249,-1.093199 2.34375,-1.09375 0.938881,0 1.776795,0.433794 2.34375,1.09375 0.475073,-0.558457 0.750621,-1.256245 0.75,-2 C 56.9354,16.516958 55.548287,15.125 53.84375,15.125 z m -6.53125,5.5 c -0.917168,6.88e-4 -1.789199,0.350668 -2.4375,1 -0.647958,0.648645 -1.000687,1.516898 -1,2.4375 6.73e-4,0.748727 0.24674,1.434526 0.65625,2 0.109289,-0.152278 0.208995,-0.302602 0.34375,-0.4375 0.648301,-0.649332 1.520332,-0.999312 2.4375,-1 1.152119,0 2.158304,0.56861 2.78125,1.4375 0.421279,-0.583485 0.656794,-1.263996 0.65625,-2 -10e-4,-1.890994 -1.542384,-3.4375 -3.4375,-3.4375 z m 7.5625,5.84375 c -2.082947,0.0017 -3.783311,1.695902 -3.78125,3.78125 3.91e-4,0.739801 0.223643,1.416165 0.59375,2 0.668083,-1.067391 1.83759,-1.780148 3.1875,-1.78125 1.343704,0 2.517916,0.69461 3.1875,1.75 0.360154,-0.580781 0.594351,-1.26716 0.59375,-2 -0.0021,-2.079855 -1.696934,-3.75 -3.78125,-3.75 z M 42.5,28.53125 c -2.271803,0.0024 -4.126717,1.849077 -4.125,4.125 7.66e-4,0.724217 0.231762,1.37611 0.5625,1.96875 0.708356,-1.249841 2.025958,-2.092127 3.5625,-2.09375 1.550407,0 2.890464,0.860566 3.59375,2.125 0.33744,-0.599591 0.531806,-1.294655 0.53125,-2.03125 -5.46e-4,-0.442568 -0.08848,-0.850439 -0.21875,-1.25 C 45.189677,31.040157 44.214975,30.051347 43.9375,28.8125 43.485527,28.642165 43.011465,28.53125 42.5,28.53125 z m -6.8125,7.1875 C 34.925453,35.718706 34.150365,35.979435 33.53125,36.5 28.09726,41.067986 25,47.850832 25,55.09375 c 0,0.644445 0.04533,1.274495 0.09375,1.90625 0.541491,-6.440085 3.532871,-12.377012 8.4375,-16.5 0.619115,-0.520565 1.394203,-0.781294 2.15625,-0.78125 0.762046,4.5e-5 1.536794,0.260515 2.15625,0.78125 2.920793,2.456542 6.42405,3.75 10.15625,3.75 3.736662,0 7.266709,-1.293115 10.1875,-3.75 1.238577,-1.041472 3.042683,-1.041128 4.28125,0 4.900598,4.11896 7.89704,10.057067 8.4375,16.5 C 70.954672,56.368232 71,55.738211 71,55.09375 71,47.847055 67.898274,41.063523 62.46875,36.5 61.230183,35.458872 59.426077,35.458528 58.1875,36.5 55.266709,38.956885 51.736662,40.25 48,40.25 c -1.040765,0 -2.064373,-0.08227 -3.0625,-0.28125 -0.679709,0.500386 -1.498914,0.780291 -2.40625,0.78125 l -0.03125,0 c -2.171581,0 -3.941235,-1.679244 -4.09375,-3.8125 C 38.219195,36.793043 38.0263,36.653534 37.84375,36.5 37.224294,35.979265 36.449546,35.718795 35.6875,35.71875 z m -3.875,21.3125 c -0.07766,0.681189 -0.125,1.365716 -0.125,2.0625 0,9.477636 7.318686,17.1875 16.3125,17.1875 8.993467,0 16.3125,-7.709864 16.3125,-17.1875 0,-0.697276 -0.04764,-1.381029 -0.125,-2.0625 -0.919117,8.566085 -7.817629,15.25 -16.1875,15.25 -8.370194,0 -15.268422,-6.683915 -16.1875,-15.25 z"
     id="path3019"
     inkscape:connector-curvature="0" />
  <path
     style="fill:#ffffff"
     d="M 43.0625 16.75 C 42.933426 17.070843 42.84325 17.392877 42.84375 17.75 C 42.84475 19.263276 44.080474 20.5 45.59375 20.5 C 47.108743 20.4986 48.345121 19.267053 48.34375 17.75 C 48.343502 17.396748 48.278564 17.06073 48.15625 16.75 C 47.758038 17.773191 46.75493 18.498927 45.59375 18.5 C 44.437252 18.5 43.466734 17.765237 43.0625 16.75 z M 56.75 21.1875 C 56.601387 21.6385 56.376018 22.061075 56.03125 22.40625 C 55.447502 22.990682 54.669238 23.3115 53.84375 23.3125 C 52.489167 23.3125 51.356454 22.43514 50.9375 21.21875 C 50.826849 21.536683 50.749856 21.862994 50.75 22.21875 C 50.7521 23.920198 52.141274 25.3125 53.84375 25.3125 C 54.669238 25.3115 55.447502 24.990682 56.03125 24.40625 C 56.614308 23.822503 56.938191 23.04664 56.9375 22.21875 C 56.937058 21.860816 56.862815 21.50697 56.75 21.1875 z M 44.03125 27.03125 C 43.927713 27.361439 43.874734 27.706717 43.875 28.0625 C 43.8767 29.953152 45.420475 31.5 47.3125 31.5 C 48.230009 31.499313 49.102045 31.117396 49.75 30.46875 C 50.397955 29.819762 50.75068 28.982759 50.75 28.0625 C 50.749819 27.72031 50.687583 27.374232 50.59375 27.0625 C 50.433377 27.592597 50.151406 28.066704 49.75 28.46875 C 49.102045 29.117396 48.230009 29.499313 47.3125 29.5 C 45.758337 29.5 44.452879 28.451022 44.03125 27.03125 z M 58.5 33.21875 C 58.066999 34.825879 56.615226 36.029579 54.875 36.03125 C 53.142754 36.03125 51.66204 34.843153 51.21875 33.25 C 51.133113 33.565721 51.093411 33.90717 51.09375 34.25 C 51.09485 36.329853 52.793424 38.03125 54.875 38.03125 C 56.957606 38.02925 58.657961 36.304097 58.65625 34.21875 C 58.655898 33.869709 58.589349 33.539527 58.5 33.21875 z M 38.53125 35.625 C 38.447725 35.951914 38.374734 36.303218 38.375 36.65625 C 38.3774 38.924619 40.230257 40.75 42.5 40.75 L 42.53125 40.75 C 44.803054 40.7476 46.626717 38.900924 46.625 36.625 C 46.624565 36.27246 46.552853 35.951606 46.46875 35.625 C 46.02584 37.421886 44.460514 38.747962 42.53125 38.75 L 42.5 38.75 C 40.572036 38.75 38.978083 37.417676 38.53125 35.625 z M 36.03125 45.4375 C 33.251931 48.595224 31.6875 52.720803 31.6875 57.09375 C 31.6875 57.379096 31.705639 57.655516 31.71875 57.9375 C 31.968403 53.998995 33.499021 50.314492 36.03125 47.4375 C 39.618544 49.71411 43.769555 50.96875 48 50.96875 C 52.234562 50.96875 56.412362 49.713767 60 47.4375 C 62.528473 50.312928 64.032602 53.996874 64.28125 57.9375 C 64.294361 57.655516 64.3125 57.379096 64.3125 57.09375 C 64.3125 52.717714 62.775197 48.593507 60 45.4375 C 56.412362 47.713767 52.234562 48.96875 48 48.96875 C 43.769555 48.96875 39.618544 47.71411 36.03125 45.4375 z M 25.03125 58.3125 C 25.023047 58.574469 25 58.83046 25 59.09375 C 25 72.273367 35.314162 83 48 83 C 60.685835 83 71 72.27371 71 59.09375 C 71 58.830323 70.976937 58.574598 70.96875 58.3125 C 70.351394 70.924291 60.289403 81 48 81 C 35.710594 81 25.648606 70.924 25.03125 58.3125 z "
     id="path3024" />
</svg>
