<?xml version="1.0" encoding="UTF-8" standalone="no"?>
<!-- Created with Inkscape (http://www.inkscape.org/) -->

<svg
   xmlns:dc="http://purl.org/dc/elements/1.1/"
   xmlns:cc="http://creativecommons.org/ns#"
   xmlns:rdf="http://www.w3.org/1999/02/22-rdf-syntax-ns#"
   xmlns:svg="http://www.w3.org/2000/svg"
   xmlns="http://www.w3.org/2000/svg"
   xmlns:xlink="http://www.w3.org/1999/xlink"
   xmlns:sodipodi="http://sodipodi.sourceforge.net/DTD/sodipodi-0.dtd"
   xmlns:inkscape="http://www.inkscape.org/namespaces/inkscape"
   version="1.0"
   x="0.00000000"
   y="0.00000000"
   width="96"
   height="96"
   id="svg1443"
   sodipodi:version="0.32"
   inkscape:version="0.48.3.1 r9886"
   sodipodi:docname="start-here-arch.svg"
   inkscape:export-filename="start-here.png"
   inkscape:export-xdpi="90"
   inkscape:export-ydpi="90"
   inkscape:output_extension="org.inkscape.output.svg.inkscape">
  <metadata
     id="metadata84">
    <rdf:RDF>
      <cc:Work
         rdf:about="">
        <dc:format>image/svg+xml</dc:format>
        <dc:type
           rdf:resource="http://purl.org/dc/dcmitype/StillImage" />
        <dc:title></dc:title>
        <dc:creator>
          <cc:Agent>
            <dc:title>by andrefelipe</dc:title>
          </cc:Agent>
        </dc:creator>
      </cc:Work>
    </rdf:RDF>
  </metadata>
  <sodipodi:namedview
     inkscape:window-height="694"
     inkscape:window-width="1001"
     inkscape:pageshadow="2"
     inkscape:pageopacity="0.0"
     borderopacity="1.0"
     bordercolor="#666666"
     pagecolor="#ffffff"
     id="base"
     inkscape:zoom="4"
     inkscape:cx="48"
     inkscape:cy="48"
     inkscape:window-x="86"
     inkscape:window-y="111"
     inkscape:current-layer="svg1443"
     showguides="false"
     inkscape:guide-bbox="true"
     showgrid="false"
     inkscape:window-maximized="0"
     fit-margin-top="0"
     fit-margin-left="0"
     fit-margin-right="0"
     fit-margin-bottom="0">
    <sodipodi:guide
       orientation="horizontal"
       position="0,121.92459"
       id="guide1331" />
    <sodipodi:guide
       orientation="horizontal"
       position="0,38.075431"
       id="guide1333" />
    <sodipodi:guide
       orientation="vertical"
       position="13.524057,8.4373016e-06"
       id="guide1335" />
    <sodipodi:guide
       orientation="vertical"
       position="146.26788,8.4373016e-06"
       id="guide1337" />
    <sodipodi:guide
       orientation="horizontal"
       position="0,145.01952"
       id="guide6086" />
    <sodipodi:guide
       orientation="horizontal"
       position="173.73212,15.396627"
       id="guide6088" />
    <sodipodi:guide
       orientation="vertical"
       position="2.0806242,8.4373016e-06"
       id="guide1329" />
    <sodipodi:guide
       orientation="vertical"
       position="157.50325,8.4373016e-06"
       id="guide1332" />
  </sodipodi:namedview>
  <defs
     id="defs1446">
    <linearGradient
       id="linearGradient3292">
      <stop
         style="stop-color:#a0a0a0;stop-opacity:1;"
         offset="0"
         id="stop3294" />
      <stop
         style="stop-color:#ffffff;stop-opacity:1;"
         offset="1"
         id="stop3296" />
    </linearGradient>
    <linearGradient
       inkscape:collect="always"
       xlink:href="#linearGradient3292"
       id="linearGradient3033"
       gradientUnits="userSpaceOnUse"
       gradientTransform="matrix(0.59632966,0,0,0.59632744,0.16968359,0.54196263)"
       x1="86.782135"
       y1="157.45517"
       x2="86.782135"
       y2="24.018677" />
  </defs>
  <path
     inkscape:connector-curvature="0"
     id="path3236"
     d="M 92.350697,55.578231 C 88.174765,80.016772 65.015992,96.471929 40.564165,92.374432 16.11233,88.276957 -0.41707631,65.171109 3.6019258,40.706261 7.620927,16.241409 30.673606,-0.362048 55.151235,3.5784038 79.628852,7.5188548 96.306197,30.518163 92.444327,55.008293"
     style="opacity:0.25;fill:#000000;fill-opacity:1;fill-rule:evenodd;stroke:none" />
  <path
     id="path3869"
     d="M 88.654817,54.946686 C 84.826877,77.348602 63.598004,92.432429 41.183816,88.676414 18.769634,84.920414 3.6176761,63.740122 7.3017621,41.314096 10.985845,18.888064 32.117469,3.668285 54.555298,7.2803528 76.993112,10.89242 92.280685,31.975041 88.74064,54.424245"
     style="fill:#000000;fill-opacity:1;fill-rule:evenodd;stroke:none;opacity:0.75"
     inkscape:connector-curvature="0" />
  <path
     inkscape:connector-curvature="0"
     style="fill:url(#linearGradient3033);fill-opacity:1;fill-rule:evenodd;stroke:none"
     d="m 86.437277,54.567772 c -3.61914,21.18 -23.690072,35.44107 -44.881667,31.889932 C 20.36402,82.906574 6.0385332,62.881566 9.5216685,41.678779 13.004802,20.475985 32.983791,6.0863771 54.197737,9.5014228 75.41167,12.916468 89.86537,32.849128 86.51842,54.073828"
     id="path3389" />
  <path
     style="fill:#4d4d4d;fill-opacity:1"
     d="m 51.729902,16.000417 c -0.989957,0.08258 -1.973701,0.140387 -2.949466,0.266323 l 0.421354,0.04335 0,0.02271 c 0.715322,-0.260541 1.765242,-0.158967 2.528112,-0.332799 z M 47.4055,16.466171 c -1.610896,0.09703 -3.83954,0.942452 -3.149056,0.17755 -2.627819,1.172231 -7.292853,2.819715 -9.912865,5.277934 l -0.08872,-0.554529 c -1.200718,1.438555 -5.24765,4.318762 -5.566282,6.187354 l -0.31047,0.06606 c -0.623069,1.056 -1.036969,2.261471 -1.530174,3.348644 -0.611537,1.043613 -0.96807,0.815278 -1.064468,0.731871 0.0035,0 -0.006,0.02065 0,0.02065 -1.605217,3.257392 -2.417051,5.981728 -3.104698,8.227715 0.491076,0.731665 0.01425,4.432723 0.199577,7.384567 -0.803318,14.578374 10.223332,28.73476 22.287314,32.000618 1.766307,0.632362 4.416123,0.604284 6.652927,0.665394 -2.639172,-0.753755 -2.993819,-0.410013 -5.566284,-1.30849 -1.852174,-0.872877 -2.25685,-1.854968 -3.570405,-2.993755 l 0.532234,0.909213 c -2.575306,-0.909213 -1.496999,-1.133626 -3.592582,-1.796335 l 0.554411,-0.709575 c -0.834545,-0.064 -2.217112,-1.406142 -2.594644,-2.151225 l -0.909233,0.02271 c -1.09498,-1.352465 -1.682923,-2.326091 -1.641052,-3.082323 l -0.288296,0.532025 C 34.410627,68.850995 30.69279,64.338789 32.613802,65.386117 32.25898,65.061782 31.795581,64.856569 31.283217,63.922582 l 0.377,-0.443665 c -0.922542,-1.189367 -1.699246,-2.708025 -1.641057,-3.215483 0.490365,0.664981 0.837559,0.773574 1.175351,0.887123 -2.334024,-5.790761 -2.467262,-0.296878 -4.235697,-5.876851 l 0.376997,-0.04335 c -0.285985,-0.432929 -0.457542,-0.89311 -0.68747,-1.352671 l 0.155231,-1.618994 C 25.123133,50.318459 26.33769,43.992575 26.581809,40.527285 26.74856,39.119492 27.995776,37.627673 28.93251,35.271646 l -0.576589,-0.109419 c 1.092146,-1.906787 6.240093,-7.656464 8.626632,-7.362684 1.156012,-1.449702 -0.216442,-0.02064 -0.443528,-0.37698 2.539113,-2.625032 3.320964,-1.854555 5.03405,-2.328568 1.846498,-1.095019 -1.585348,0.443252 -0.709646,-0.399277 3.193407,-0.815071 2.261997,-1.871071 6.431165,-2.284181 0.307974,0.175484 -0.315189,0.319794 -0.842704,0.487846 2.839358,-1.034117 8.112359,-0.662298 11.62045,0.953806 4.340903,2.029625 9.230541,8.016928 9.424983,13.660696 l 0.221764,0.06606 c -0.107871,2.242683 0.341338,4.845419 -0.443529,7.229729 l 0.510058,-1.086762 c 0.04594,1.665446 -0.51697,2.496 -1.020115,3.947561 l -0.909236,0.465549 c -0.748674,1.455484 0.06936,0.925936 -0.465702,2.084748 -1.170207,1.039484 -3.54007,3.254297 -4.302229,3.459509 -0.554944,-0.02064 0.365822,-0.659406 0.487881,-0.909212 -1.566186,1.075612 -1.264057,1.607639 -3.65911,2.261883 l -0.06654,-0.156903 c -5.909929,2.780284 -14.12124,-2.724748 -14.015504,-10.245573 -0.06103,0.476696 -0.179902,0.362942 -0.310468,0.554528 -0.305148,-3.867044 1.793982,-7.770425 5.322341,-9.358451 3.448879,-1.70529 7.487651,-0.995303 9.957217,1.308284 -1.355423,-1.776929 -4.04977,-3.656257 -7.251691,-3.4816 -3.135216,0.04955 -6.070664,2.026116 -7.052104,4.191381 -1.604513,1.00831 -1.807649,3.905858 -2.505939,4.434993 -0.942412,6.924799 1.771809,9.919174 6.364637,13.438968 0.3605,0.242786 0.426498,0.384206 0.399176,0.510141 5.416725,2.021161 11.010861,1.538478 15.700911,-2.217703 1.192204,-0.928207 2.506113,-2.505909 2.882935,-2.528 -0.494885,0.744464 -0.05089,0.499406 -0.221766,0.931303 0.891551,-1.573368 -0.551953,-0.670761 1.108823,-3.082322 l 0.643113,0.886916 c -0.238437,-1.591742 1.976188,-3.536929 1.751944,-6.054194 0.507397,-0.767793 0.562927,0.848517 0.02221,2.616775 0.748678,-1.962735 0.186118,-2.284387 0.376998,-3.902968 0.205092,0.542762 0.479718,1.111949 0.620941,1.685471 -0.485402,-1.895638 0.50704,-3.177497 0.753996,-4.280155 -0.24128,-0.10529 -0.748499,0.817548 -0.864885,-1.419354 0.01694,-0.9728 0.257609,-0.493213 0.354823,-0.731665 -0.188753,-0.109419 -0.693496,-0.851406 -0.997938,-2.284181 0.218578,-0.33569 0.585458,0.858839 0.887058,0.909214 -0.190908,-1.136929 -0.518748,-2.010013 -0.532235,-2.882891 -0.879247,-1.838038 -0.307633,0.254762 -1.020113,-0.776257 -0.933892,-2.919433 0.770673,-0.670969 0.887059,-1.995975 1.416452,2.0544 2.223492,5.223019 2.594635,6.542245 -0.282437,-1.607432 -0.726315,-3.149832 -1.28623,-4.657135 0.432884,0.179613 -0.698109,-3.310039 0.554409,-0.997987 -1.338391,-4.925729 -5.738368,-9.549832 -9.779801,-11.709109 0.490366,0.451302 1.111304,1.017393 0.887059,1.108644 -2.00972,-1.194115 -1.640524,-1.269471 -1.92935,-1.774038 -1.635025,-0.6656 -1.754954,0.05367 -2.838584,0 -3.085539,-1.635716 -3.679158,-1.480258 -6.519869,-2.505703 l 0.133058,0.620799 c -2.04307,-0.679225 -2.380687,0.255381 -4.590522,0 -0.132743,-0.103226 0.704466,-0.388542 1.39708,-0.487845 -1.973524,0.260542 -1.879141,-0.390606 -3.814348,0.06606 0.474043,-0.331974 0.978425,-0.557212 1.485822,-0.842529 z m -0.953588,6.431175 c -0.222462,0.07019 -0.423616,0.125935 -0.532236,0.221729 0.166317,-0.08258 0.342945,-0.152775 0.532236,-0.221729 z m 2.550289,-6.076284 c 0.565589,0.0991 1.225381,0.19613 1.130998,0.332594 0.618101,-0.134194 0.756659,-0.277264 -1.130998,-0.332594 z m 1.130998,0.332594 -0.399175,0.06606 0.376999,-0.02271 0.02217,-0.04336 z M 24.03154,29.705707 c 0.163923,1.526915 -1.148027,2.116954 0.288294,1.108644 0.772804,-1.741419 -0.298938,-0.47649 -0.288294,-1.108644 z m -1.175349,4.856361 c -0.917572,1.172438 -0.413546,1.419354 -0.510059,2.217702 0.332116,-1.0176 0.382321,-1.627251 0.510059,-2.217702 z m 37.788635,7.096567 c -0.13056,0 -0.292552,0.324542 -0.376999,0.687483 0.193734,0.103227 0.363516,1.344414 0.554411,0.57662 0.06386,-0.953806 -0.04684,-1.267612 -0.177403,-1.264103 z m 11.598273,3.21569 -0.155228,0.376981 c -0.282438,2.026529 -0.894692,4.036129 -1.84065,5.898941 1.042475,-1.963148 1.712734,-4.099509 1.995878,-6.275922 z m -12.285742,0.709574 c -0.141213,0.70111 -0.50438,1.311588 -0.864882,1.951381 -1.98204,1.247793 -0.185909,-0.729187 0,-1.485833 -2.128935,2.683459 -0.298937,1.599175 -0.376999,2.350865 0.631585,-0.870813 1.081501,-1.829367 1.241881,-2.816413 z m -4.324403,4.102607 c -0.859382,0.210787 -1.7326,0.213471 -2.61682,0.134193 -1.058792,0.02065 0.213603,0.541109 1.596705,0.754168 0.383209,-0.298942 0.712838,-0.593342 1.020115,-0.887123 z m -13.372389,0.134193 c 0.232764,0.859459 0.70681,1.6 1.153175,2.350865 L 43.103271,51.217758 C 42.734254,50.810635 42.50752,50.308337 42.260565,49.820699 z m -0.820527,1.441445 -0.133058,0.754168 c 0.69545,0.945135 1.23904,1.965213 2.128939,2.705548 -0.637265,-1.247587 -1.120178,-1.768464 -1.995881,-3.459716 z m 1.352761,1.109058 c 2.478086,4.440775 10.065794,7.780542 14.037683,6.120671 -1.835146,0.06606 -4.166507,0.04955 -6.231576,-0.709781 -0.758791,-0.390606 -1.766542,-1.165625 -1.862822,-1.463535 -0.0391,0.09497 -0.103225,0.192 -0.06654,0.332593 -1.524321,-0.712671 -2.932966,-1.781883 -4.080464,-3.104825 0.609585,0.890012 1.278072,1.757522 2.128938,2.439432 -1.438452,-0.485368 -3.365317,-3.492749 -3.92523,-3.614555 z"
     id="path3159"
     inkscape:connector-curvature="0" />
  <path
     style="opacity:0.5;fill:#000000;fill-opacity:1"
     d="m 51.71875,14 c -0.432244,0.03606 -0.851522,0.09066 -1.28125,0.125 0.447254,-0.0289 0.899815,-0.03808 1.28125,-0.125 z m -1.28125,0.125 c -0.219867,0.01757 -0.4371,0.04232 -0.65625,0.0625 0.210942,-0.02983 0.432623,-0.04805 0.65625,-0.0625 z m -0.65625,0.0625 c -0.333509,0.03072 -0.668266,0.05094 -1,0.09375 l 0.40625,0.03125 0,0.03125 c 0.178831,-0.06513 0.382808,-0.126418 0.59375,-0.15625 z m -2.375,0.28125 c -1.610896,0.09703 -3.846734,0.952402 -3.15625,0.1875 -2.627819,1.172231 -7.286238,2.791781 -9.90625,5.25 L 34.25,19.375 c -1.200718,1.438555 -5.243868,4.318908 -5.5625,6.1875 L 28.375,25.625 c -0.623069,1.056 -1.038045,2.256577 -1.53125,3.34375 -0.611537,1.043613 -0.966102,0.802157 -1.0625,0.71875 0.0035,0 -0.006,0.03125 0,0.03125 -1.605217,3.257392 -2.406103,5.972763 -3.09375,8.21875 0.269727,0.401872 0.26292,1.735176 0.21875,3.3125 0.647779,-2.110022 1.428078,-4.59508 2.875,-7.53125 -0.006,0 0.0035,-0.03125 0,-0.03125 0.0964,0.08341 0.450963,0.324863 1.0625,-0.71875 C 27.336955,31.881577 27.751931,30.681 28.375,29.625 l 0.3125,-0.0625 c 0.318632,-1.868592 4.361782,-4.748945 5.5625,-6.1875 l 0.09375,0.53125 c 2.620012,-2.458219 7.278431,-4.077769 9.90625,-5.25 -0.690484,0.764902 1.545354,-0.09047 3.15625,-0.1875 -0.507397,0.285317 -1.025957,0.511776 -1.5,0.84375 1.935207,-0.456666 1.838976,0.198042 3.8125,-0.0625 -0.692614,0.0993 -1.507743,0.365524 -1.375,0.46875 2.209835,0.255381 2.55068,-0.679225 4.59375,0 l -0.15625,-0.625 c 2.840711,1.025445 3.445711,0.895534 6.53125,2.53125 1.08363,0.05367 1.208725,-0.6656 2.84375,0 0.288826,0.504567 -0.07222,0.555885 1.9375,1.75 0.224245,-0.09125 -0.415884,-0.642448 -0.90625,-1.09375 2.772228,1.48116 5.744244,4.116238 7.75,7.21875 0.08806,-0.06278 0.168102,-0.185416 0.1875,-0.40625 1.416452,2.0544 2.222607,5.243274 2.59375,6.5625 C 73.436313,34.048818 72.966165,32.507303 72.40625,31 c 0.432884,0.179613 -0.690018,-3.312052 0.5625,-1 -1.338391,-4.925729 -5.739817,-9.559473 -9.78125,-11.71875 0.490366,0.451302 1.130495,1.002499 0.90625,1.09375 -2.00972,-1.194115 -1.648674,-1.245433 -1.9375,-1.75 -1.635025,-0.6656 -1.76012,0.05367 -2.84375,0 -3.085539,-1.635716 -3.690539,-1.505805 -6.53125,-2.53125 l 0.15625,0.625 c -2.04307,-0.679225 -2.383915,0.255381 -4.59375,0 -0.132743,-0.103226 0.682386,-0.369447 1.375,-0.46875 -1.973524,0.260542 -1.877293,-0.394166 -3.8125,0.0625 0.474043,-0.331974 0.992603,-0.558433 1.5,-0.84375 z M 49,14.8125 c 0.565589,0.0991 1.219383,0.207286 1.125,0.34375 C 50.743101,15.022056 50.887657,14.86783 49,14.8125 z m 1.125,0.34375 -0.40625,0.0625 0.40625,-0.03125 0,-0.03125 z M 51.71875,18 c -0.381435,0.08692 -0.833996,0.0961 -1.28125,0.125 -0.223627,0.01445 -0.445308,0.03267 -0.65625,0.0625 -0.210942,0.02983 -0.414919,0.09111 -0.59375,0.15625 l 0,-0.03125 -0.40625,-0.03125 c 0.331734,-0.04282 0.666491,-0.06303 1,-0.09375 0.21915,-0.02018 0.436383,-0.04493 0.65625,-0.0625 0.429728,-0.03434 0.849006,-0.08894 1.28125,-0.125 z M 49,18.8125 c 1.887657,0.05533 1.743101,0.209556 1.125,0.34375 l 0,0.03125 -0.40625,0.03125 0.40625,-0.0625 C 50.219383,19.019786 49.565589,18.9116 49,18.8125 z m -24.96875,8.90625 c 0.09426,0.877976 -0.265134,1.429785 -0.34375,1.5625 0.08155,-0.06262 0.26592,-0.216673 0.625,-0.46875 0.772804,-1.741419 -0.291894,-0.461596 -0.28125,-1.09375 z m 27.53125,3.9375 c -3.135216,0.04955 -6.08106,2.022235 -7.0625,4.1875 -1.604513,1.00831 -1.80171,3.908365 -2.5,4.4375 -0.235603,1.7312 -0.256194,3.221731 -0.0625,4.53125 0.01993,-0.17878 0.03742,-0.346989 0.0625,-0.53125 0.548225,-0.415422 0.800669,-2.287751 1.65625,-3.5625 0.536071,-2.963491 2.41701,-5.659322 5.1875,-6.90625 3.448879,-1.70529 7.499184,-0.991087 9.96875,1.3125 -1.355423,-1.776929 -4.048079,-3.643407 -7.25,-3.46875 z M 22.84375,32.5625 c -0.917572,1.172438 -0.403487,1.420402 -0.5,2.21875 0.332116,-1.0176 0.372262,-1.628299 0.5,-2.21875 z M 71.125,33.09375 c -0.116386,1.325006 -1.840142,-0.919433 -0.90625,2 0.71248,1.031019 0.152003,-1.056788 1.03125,0.78125 0.01349,0.872878 0.340342,1.738071 0.53125,2.875 -0.3016,-0.05038 -0.687672,-1.24194 -0.90625,-0.90625 0.266387,1.253678 0.679027,1.952588 0.90625,2.1875 0.215578,-0.652888 0.507456,-1.225167 0.625,-1.75 -0.24128,-0.10529 -0.758614,0.830652 -0.875,-1.40625 0.01694,-0.9728 0.246536,-0.511548 0.34375,-0.75 -0.188753,-0.109419 -0.695558,-0.848475 -1,-2.28125 0.218578,-0.33569 0.60465,0.855875 0.90625,0.90625 C 71.7227,34.401303 71.633793,34.119166 71.5625,33.8125 71.420922,33.562895 71.281159,33.320241 71.125,33.09375 z m -10.46875,6.5625 c -0.13056,0 -0.290553,0.324559 -0.375,0.6875 0.193734,0.103227 0.340355,1.361544 0.53125,0.59375 0.06386,-0.953806 -0.02569,-1.284759 -0.15625,-1.28125 z m 7.0625,0.40625 c -0.0417,0.925043 -0.143175,1.855884 -0.4375,2.75 l 0.4375,-0.96875 c -0.01654,-0.612897 -0.01021,-1.200207 0,-1.78125 z m 3.96875,0.15625 c -0.07444,0.03151 -0.14778,0.16985 -0.15625,0.65625 0.004,0.07678 0.02636,0.117997 0.03125,0.1875 0.03465,-0.296345 0.07745,-0.578998 0.15625,-0.84375 -0.01275,0.0014 -0.01884,-0.0053 -0.03125,0 z M 22.84375,42.625 c -0.01885,0.907844 -0.02356,1.845777 0.03125,2.71875 -0.0251,0.455574 -0.02892,0.889319 -0.03125,1.34375 0.03259,-1.638602 0.105366,-3.171123 0,-4.0625 z M 67.75,42.65625 c -0.139956,1.099126 -0.600317,1.846926 -1,3 L 65.84375,46.125 c -0.748674,1.455484 0.06631,0.934938 -0.46875,2.09375 -1.170207,1.039484 -3.519091,3.263538 -4.28125,3.46875 -0.554944,-0.02064 0.346691,-0.656444 0.46875,-0.90625 -1.566186,1.075612 -1.261197,1.595756 -3.65625,2.25 L 57.84375,52.875 c -5.624333,2.645927 -13.296732,-2.229461 -13.9375,-9.1875 -0.331811,1.126674 -0.468745,2.311999 -0.375,3.5 0.130566,-0.191586 0.25147,-0.0858 0.3125,-0.5625 -0.01765,1.255739 0.197099,2.448339 0.59375,3.5625 1.051365,1.232435 2.363702,2.349091 3.90625,3.53125 0.3605,0.242786 0.433572,0.374065 0.40625,0.5 5.416725,2.021161 11.0287,1.537431 15.71875,-2.21875 0.354267,-0.27582 0.714521,-0.604839 1.0625,-0.9375 0.0074,-0.180283 0.05849,-0.443675 0.3125,-0.9375 L 66.75,49.65625 c 0.503145,-1.451561 1.07719,-2.272054 1.03125,-3.9375 l -0.5,1.09375 c 0.44563,-1.353757 0.490937,-2.767547 0.46875,-4.15625 z m 4.5,0.21875 -0.15625,0.375 c -0.120137,0.861999 -0.322717,1.716621 -0.5625,2.5625 0.0043,0.06159 0.0239,0.124489 0.03125,0.1875 0.317818,-1.021673 0.550154,-2.06928 0.6875,-3.125 z m -12.28125,0.71875 c -0.141213,0.70111 -0.514498,1.297707 -0.875,1.9375 -1.98204,1.247793 -0.185909,-0.712104 0,-1.46875 -2.128935,2.683459 -0.296938,1.59206 -0.375,2.34375 0.631585,-0.870813 1.08962,-1.825454 1.25,-2.8125 z m 11.5,2.4375 c -0.138164,0.465595 -0.293976,0.919576 -0.46875,1.375 -0.0069,0.05557 0.0099,0.09736 0,0.15625 0.189687,-0.4596 0.34846,-0.934233 0.5,-1.40625 -0.0138,-0.04058 -0.01667,-0.08453 -0.03125,-0.125 z M 55.625,47.6875 c -0.859382,0.210787 -1.70953,0.204278 -2.59375,0.125 -1.058792,0.02065 0.210648,0.536941 1.59375,0.75 0.383209,-0.298942 0.692723,-0.581219 1,-0.875 z m -29.59375,0.40625 c -0.200094,2.582568 -0.165896,5.062676 0.78125,6.15625 l -0.15625,1.625 c 0.229928,0.459561 0.401515,0.910821 0.6875,1.34375 l -0.375,0.0625 c 1.768435,5.579973 1.884726,0.08424 4.21875,5.875 -0.337792,-0.113549 -0.665885,-0.241269 -1.15625,-0.90625 -0.05819,0.507458 0.702458,2.029383 1.625,3.21875 l -0.375,0.46875 c 0.512364,0.933987 0.988928,1.113165 1.34375,1.4375 -1.921012,-1.047328 1.792893,3.491251 2.125,4.0625 l 0.28125,-0.5625 c -0.02039,0.368197 0.110955,0.8226 0.375,1.3125 0.0071,0.0132 0.02394,0.01795 0.03125,0.03125 2.993708,2.416259 6.318616,4.204545 9.71875,5.125 1.766307,0.632362 4.419446,0.59514 6.65625,0.65625 -2.639172,-0.753755 -2.990035,-0.414023 -5.5625,-1.3125 -1.852174,-0.872877 -2.248945,-1.861213 -3.5625,-3 l 0.53125,0.90625 C 40.643444,73.684537 41.720583,73.475209 39.625,72.8125 l 0.5625,-0.71875 c -0.834545,-0.064 -2.216218,-1.411167 -2.59375,-2.15625 L 36.6875,69.96875 C 35.59252,68.616285 34.989379,67.631232 35.03125,66.875 L 34.75,67.4375 C 34.417893,66.866251 30.703988,62.327672 32.625,63.375 32.270178,63.050665 31.793614,62.871487 31.28125,61.9375 l 0.375,-0.46875 c -0.922542,-1.189367 -1.683189,-2.711292 -1.625,-3.21875 0.490365,0.664981 0.818458,0.792701 1.15625,0.90625 -2.334024,-5.790761 -2.450315,-0.295027 -4.21875,-5.875 l 0.375,-0.0625 C 27.057765,52.785821 26.886178,52.334561 26.65625,51.875 L 26.8125,50.25 C 26.39239,49.764942 26.149883,49.013792 26.03125,48.09375 z M 41.4375,49.25 l -0.125,0.78125 c 0.64633,0.878379 1.15361,1.808124 1.9375,2.53125 C 43.052911,52.230519 42.909144,51.856163 42.75,51.5 42.7426,51.48807 42.72614,51.48068 42.71875,51.46875 42.355371,50.882289 41.967232,50.273076 41.4375,49.25 z m 4.25,3.40625 c 0.603183,0.887521 1.347414,1.66386 2.15625,2.34375 3.065682,1.695299 6.66014,2.477838 9,1.5 -1.835146,0.06606 -4.184931,0.04058 -6.25,-0.71875 -0.758791,-0.390606 -1.74747,-1.17084 -1.84375,-1.46875 -0.0391,0.09497 -0.130435,0.203157 -0.09375,0.34375 -1.07106,-0.500756 -2.062377,-1.182852 -2.96875,-2 z"
     id="path3801"
     inkscape:connector-curvature="0" />
  <path
     style="fill:#ffffff;fill-opacity:1"
     d="M 50.4375 22.3125 C 48.909687 22.313399 47.502259 22.518456 46.4375 22.90625 C 46.965015 22.738198 47.589224 22.581734 47.28125 22.40625 C 43.112082 22.81936 44.068407 23.872429 40.875 24.6875 C 39.999298 25.530029 43.408998 23.998731 41.5625 25.09375 C 39.849414 25.567763 39.070363 24.812468 36.53125 27.4375 C 36.758336 27.79384 38.124762 26.362798 36.96875 27.8125 C 34.582211 27.51872 29.435896 33.249463 28.34375 35.15625 L 28.9375 35.28125 C 28.000766 37.637277 26.760501 39.123457 26.59375 40.53125 C 26.433537 42.805487 25.872268 46.278636 25.96875 48.96875 C 26.092849 46.711589 26.471691 44.263895 26.59375 42.53125 C 26.760501 41.123457 28.000766 39.637277 28.9375 37.28125 L 28.34375 37.15625 C 29.435896 35.249463 34.582211 29.51872 36.96875 29.8125 C 38.124762 28.362798 36.758336 29.79384 36.53125 29.4375 C 39.070363 26.812468 39.849414 27.567763 41.5625 27.09375 C 43.408998 25.998731 39.999298 27.530029 40.875 26.6875 C 44.068407 25.872429 43.112082 24.81936 47.28125 24.40625 C 47.589224 24.581734 46.965015 24.738198 46.4375 24.90625 C 49.276858 23.872133 54.554409 24.227646 58.0625 25.84375 C 62.403403 27.873375 67.305558 33.856232 67.5 39.5 L 67.71875 39.59375 C 67.70018 38.901634 67.68767 38.239922 67.71875 37.59375 L 67.5 37.5 C 67.305558 31.856232 62.403403 25.873375 58.0625 23.84375 C 55.869943 22.833685 52.983855 22.311002 50.4375 22.3125 z M 67.71875 39.59375 C 67.684471 40.306423 67.697996 41.045672 67.71875 41.8125 C 67.741304 41.066639 67.738242 40.320238 67.71875 39.59375 z M 71.125 31.09375 C 71.008614 32.418756 69.284858 30.174317 70.21875 33.09375 C 70.85252 34.010869 70.473344 32.467237 71 33.40625 C 71.047276 33.335194 71.111907 33.242813 71.125 33.09375 C 72.541452 35.14815 73.347607 38.337024 73.71875 39.65625 C 73.436313 38.048818 72.966165 36.507303 72.40625 35 C 72.652207 35.102053 72.414722 34.029823 72.375 33.5 C 72.024238 32.647563 71.613746 31.80262 71.125 31.09375 z M 24.03125 31.71875 C 24.125506 32.596726 23.766116 33.148535 23.6875 33.28125 C 23.769049 33.218631 23.95342 33.064577 24.3125 32.8125 C 25.085304 31.071081 24.020606 32.350904 24.03125 31.71875 z M 72.5 32.59375 C 72.525586 32.859521 72.514471 33.044903 72.40625 33 C 72.440934 33.09337 72.466217 33.187603 72.5 33.28125 C 72.593277 33.369258 72.733903 33.56649 72.96875 34 C 72.841537 33.531813 72.679595 33.05463 72.5 32.59375 z M 51.5625 35.65625 C 49.461283 35.689458 47.456179 36.602728 46.0625 37.84375 C 46.041814 37.866145 46.020462 37.883649 46 37.90625 C 44.253839 39.835007 43.321461 42.528907 43.53125 45.1875 C 43.553011 45.155569 43.572852 45.144115 43.59375 45.125 C 44.025517 42.003154 45.94841 39.11562 48.84375 37.8125 C 52.292629 36.10721 56.342934 36.821413 58.8125 39.125 C 57.457077 37.348071 54.764421 35.481593 51.5625 35.65625 z M 70.96875 35.78125 C 70.93721 35.780615 70.902322 35.801789 70.875 35.84375 C 71.058836 36.708926 71.31502 37.31327 71.53125 37.6875 C 71.39959 37.1273 71.317042 36.591097 71.28125 36.09375 C 71.179279 35.927926 71.051938 35.782924 70.96875 35.78125 z M 22.84375 36.5625 C 21.926178 37.734938 22.440263 37.982902 22.34375 38.78125 C 22.675866 37.76365 22.716012 37.152951 22.84375 36.5625 z M 71.65625 38.25 C 71.615471 38.282458 71.584685 38.398965 71.5625 38.5625 C 71.633737 38.657576 71.714126 38.738788 71.78125 38.75 C 71.749911 38.563367 71.692972 38.42358 71.65625 38.25 z M 71.6875 39.9375 C 71.717175 40.049519 71.715207 40.156393 71.75 40.21875 C 71.751284 40.221051 71.77996 40.216508 71.78125 40.21875 C 71.817748 40.214979 71.850696 40.184613 71.875 40.125 C 71.827812 40.097645 71.76612 40.044835 71.6875 39.9375 z M 22.90625 41.21875 C 22.832284 41.459564 22.758122 41.706835 22.6875 41.9375 C 22.807404 42.116148 22.878025 42.490177 22.90625 42.96875 C 22.923863 42.301765 22.924453 41.718197 22.90625 41.21875 z M 71.75 42.15625 C 71.541892 42.829393 71.437722 43.592348 71.65625 44.5 C 71.865206 43.640989 72.261242 42.92871 72.40625 42.28125 C 72.242381 42.209741 71.953455 42.59124 71.75 42.15625 z M 71.03125 42.875 C 70.966378 43.425085 70.971871 43.821682 71 44.1875 C 70.944428 43.922605 70.815274 43.868328 70.625 44.15625 C 70.849244 46.673515 68.636563 48.627008 68.875 50.21875 L 68.21875 49.34375 C 66.557974 51.755311 68.016551 50.832882 67.125 52.40625 C 67.295876 51.974353 66.848865 52.213214 67.34375 51.46875 C 66.966928 51.490841 65.660954 53.071793 64.46875 54 C 62.096484 55.899908 59.476169 56.956741 56.78125 57.28125 C 56.759115 57.287828 56.740928 57.306127 56.71875 57.3125 C 54.876779 57.841835 52.882024 57.65357 51.03125 56.9375 C 50.26746 56.754647 49.509793 56.502254 48.75 56.21875 C 48.777322 56.092815 48.70425 55.961536 48.34375 55.71875 C 44.646586 52.885364 42.17875 50.383007 41.84375 45.90625 C 41.676313 48.930482 42.311102 51.154227 43.5625 53.03125 C 43.584348 53.055565 43.602581 53.099775 43.625 53.125 C 44.474327 54.080632 45.708733 55.659196 46.71875 56 C 45.867884 55.31809 45.203335 54.421262 44.59375 53.53125 C 45.741248 54.854192 47.131929 55.943579 48.65625 56.65625 C 48.619565 56.515657 48.7109 56.40747 48.75 56.3125 C 48.84628 56.61041 49.834959 57.390644 50.59375 57.78125 C 52.658819 58.540581 55.008604 58.56606 56.84375 58.5 C 54.138275 59.630631 49.74069 58.4329 46.4375 56.15625 C 47.03308 56.672678 47.658673 57.193729 48.34375 57.71875 C 48.70425 57.961536 48.777322 58.092815 48.75 58.21875 C 54.166725 60.239911 59.7787 59.756181 64.46875 56 C 65.660954 55.071793 66.966928 53.490841 67.34375 53.46875 C 66.848865 54.213214 67.295876 53.974353 67.125 54.40625 C 68.016551 52.832882 66.557974 53.755311 68.21875 51.34375 L 68.875 52.21875 C 68.636563 50.627008 70.849244 48.673515 70.625 46.15625 C 70.718272 46.015112 70.781913 45.962631 70.84375 45.96875 C 70.948407 45.473194 71.02487 45.031797 71.03125 44.6875 C 71.033735 44.74408 71.030683 44.816981 71.03125 44.875 C 71.236342 45.417762 71.515027 45.988978 71.65625 46.5625 C 71.456833 45.783719 71.479721 45.101728 71.625 44.5 C 71.479618 43.94897 71.228425 43.396811 71.03125 42.875 z M 60.65625 43.65625 C 60.52569 43.65625 60.365697 43.980809 60.28125 44.34375 C 60.474984 44.446977 60.621605 45.705294 60.8125 44.9375 C 60.87636 43.983694 60.786813 43.652741 60.65625 43.65625 z M 67.78125 43.71875 L 67.71875 43.84375 C 67.704137 44.300418 67.685844 44.764662 67.625 45.21875 C 67.72919 44.778399 67.79731 44.300965 67.78125 43.71875 z M 70.96875 45.65625 C 70.94929 45.759691 70.936233 45.884164 70.90625 46 C 70.940305 46.035594 70.981476 46.099202 71 46.1875 C 70.987024 46.018743 70.971226 45.851001 70.96875 45.65625 z M 22.84375 46.625 C 22.832865 47.149125 22.836023 47.661448 22.84375 48.1875 C 22.850484 47.901754 22.859232 47.6299 22.875 47.34375 C 22.860593 47.114282 22.85092 46.861776 22.84375 46.625 z M 71.03125 46.6875 C 71.021394 47.219411 70.905671 47.965592 70.65625 48.78125 C 71.030589 47.799882 71.054445 47.215578 71.03125 46.6875 z M 72.25 46.875 L 72.09375 47.25 C 71.811312 49.276529 71.195958 51.293438 70.25 53.15625 C 71.292475 51.193102 71.966856 49.051413 72.25 46.875 z M 59.96875 47.59375 C 59.827537 48.29486 59.454252 48.891457 59.09375 49.53125 C 57.11171 50.779043 58.907841 48.819146 59.09375 48.0625 C 56.964815 50.745959 58.796812 49.65456 58.71875 50.40625 C 59.350335 49.535437 59.80837 48.580796 59.96875 47.59375 z M 22.875 49.6875 C 22.264946 64.142042 33.188658 78.103986 45.15625 81.34375 C 46.922557 81.976112 49.575696 81.93889 51.8125 82 C 49.173328 81.246245 48.822465 81.585977 46.25 80.6875 C 45.1366 80.162786 44.547879 79.582709 43.96875 78.96875 C 33.02827 75.340151 23.278923 62.927458 22.875 49.6875 z M 42.25 49.8125 C 42.496955 50.300138 42.724733 50.811627 43.09375 51.21875 L 43.40625 52.15625 C 42.959885 51.405385 42.482764 50.671959 42.25 49.8125 z M 55.625 51.6875 C 54.765618 51.898287 53.91547 51.891778 53.03125 51.8125 C 51.972458 51.83315 53.241898 52.349441 54.625 52.5625 C 55.008209 52.263558 55.317723 51.981281 55.625 51.6875 z M 42.25 51.8125 C 42.482764 52.671959 42.959885 53.405385 43.40625 54.15625 L 43.09375 53.21875 C 42.724733 52.811627 42.496955 52.300138 42.25 51.8125 z M 41.4375 53.25 L 41.3125 54.03125 C 42.00795 54.976385 42.547601 55.978415 43.4375 56.71875 C 42.800235 55.471163 42.313203 54.941252 41.4375 53.25 z M 42.78125 54.375 C 45.259336 58.815775 52.871861 62.159871 56.84375 60.5 C 55.008604 60.56606 52.658819 60.540581 50.59375 59.78125 C 49.834959 59.390644 48.84628 58.61041 48.75 58.3125 C 48.7109 58.40747 48.619565 58.515657 48.65625 58.65625 C 47.131929 57.943579 45.741248 56.854192 44.59375 55.53125 C 45.203335 56.421262 45.867884 57.31809 46.71875 58 C 45.280298 57.514632 43.341163 54.496806 42.78125 54.375 z "
     id="path3806" />
</svg>
