<?xml version="1.0" encoding="UTF-8" standalone="no"?>
<!-- Created with Inkscape (http://www.inkscape.org/) -->

<svg
   xmlns:dc="http://purl.org/dc/elements/1.1/"
   xmlns:cc="http://creativecommons.org/ns#"
   xmlns:rdf="http://www.w3.org/1999/02/22-rdf-syntax-ns#"
   xmlns:svg="http://www.w3.org/2000/svg"
   xmlns="http://www.w3.org/2000/svg"
   xmlns:xlink="http://www.w3.org/1999/xlink"
   xmlns:sodipodi="http://sodipodi.sourceforge.net/DTD/sodipodi-0.dtd"
   xmlns:inkscape="http://www.inkscape.org/namespaces/inkscape"
   version="1.0"
   x="0.00000000"
   y="0.00000000"
   width="96"
   height="96"
   id="svg1443"
   sodipodi:version="0.32"
   inkscape:version="0.48.3.1 r9886"
   sodipodi:docname="start-here-opensuse.svg"
   inkscape:export-filename="start-here.png"
   inkscape:export-xdpi="90"
   inkscape:export-ydpi="90"
   inkscape:output_extension="org.inkscape.output.svg.inkscape">
  <metadata
     id="metadata84">
    <rdf:RDF>
      <cc:Work
         rdf:about="">
        <dc:format>image/svg+xml</dc:format>
        <dc:type
           rdf:resource="http://purl.org/dc/dcmitype/StillImage" />
        <dc:title />
        <dc:creator>
          <cc:Agent>
            <dc:title>by andrefelipe</dc:title>
          </cc:Agent>
        </dc:creator>
      </cc:Work>
    </rdf:RDF>
  </metadata>
  <sodipodi:namedview
     inkscape:window-height="682"
     inkscape:window-width="966"
     inkscape:pageshadow="2"
     inkscape:pageopacity="0.0"
     borderopacity="1.0"
     bordercolor="#666666"
     pagecolor="#ffffff"
     id="base"
     inkscape:zoom="4"
     inkscape:cx="48"
     inkscape:cy="48"
     inkscape:window-x="22"
     inkscape:window-y="27"
     inkscape:current-layer="svg1443"
     showguides="false"
     inkscape:guide-bbox="true"
     showgrid="false"
     inkscape:window-maximized="0"
     fit-margin-top="0"
     fit-margin-left="0"
     fit-margin-right="0"
     fit-margin-bottom="0">
    <sodipodi:guide
       orientation="horizontal"
       position="0,121.92459"
       id="guide1331" />
    <sodipodi:guide
       orientation="horizontal"
       position="0,38.075431"
       id="guide1333" />
    <sodipodi:guide
       orientation="vertical"
       position="13.524057,8.4373016e-06"
       id="guide1335" />
    <sodipodi:guide
       orientation="vertical"
       position="146.26788,8.4373016e-06"
       id="guide1337" />
    <sodipodi:guide
       orientation="horizontal"
       position="0,145.01952"
       id="guide6086" />
    <sodipodi:guide
       orientation="horizontal"
       position="173.73212,15.396627"
       id="guide6088" />
    <sodipodi:guide
       orientation="vertical"
       position="2.0806242,8.4373016e-06"
       id="guide1329" />
    <sodipodi:guide
       orientation="vertical"
       position="157.50325,8.4373016e-06"
       id="guide1332" />
  </sodipodi:namedview>
  <defs
     id="defs1446">
    <linearGradient
       id="linearGradient3292">
      <stop
         style="stop-color:#a0a0a0;stop-opacity:1;"
         offset="0"
         id="stop3294" />
      <stop
         style="stop-color:#ffffff;stop-opacity:1;"
         offset="1"
         id="stop3296" />
    </linearGradient>
    <linearGradient
       inkscape:collect="always"
       xlink:href="#linearGradient3292"
       id="linearGradient3033"
       gradientUnits="userSpaceOnUse"
       gradientTransform="matrix(0.59632966,0,0,0.59632744,0.16968359,0.54196263)"
       x1="86.782135"
       y1="157.45517"
       x2="86.782135"
       y2="24.018677" />
    <linearGradient
       inkscape:collect="always"
       xlink:href="#linearGradient3292"
       id="linearGradient3010"
       gradientUnits="userSpaceOnUse"
       gradientTransform="matrix(0.58103917,0,0,0.581037,1.3961003,1.7588348)"
       x1="86.782135"
       y1="157.45517"
       x2="86.782135"
       y2="24.018677" />
  </defs>
  <path
     inkscape:connector-curvature="0"
     id="path3236"
     d="M 92.350697,55.578231 C 88.174765,80.016772 65.015992,96.471929 40.564165,92.374432 16.11233,88.276957 -0.41707631,65.171109 3.6019258,40.706261 7.620927,16.241409 30.673606,-0.362048 55.151235,3.5784038 79.628852,7.5188548 96.306197,30.518163 92.444327,55.008293"
     style="opacity:0.25;fill:#000000;fill-opacity:1;fill-rule:evenodd;stroke:none" />
  <path
     id="path3869"
     d="M 88.654817,54.946686 C 84.826877,77.348602 63.598004,92.432429 41.183816,88.676414 18.769634,84.920414 3.6176761,63.740122 7.3017621,41.314096 10.985845,18.888064 32.117469,3.668285 54.555298,7.2803528 76.993112,10.89242 92.280685,31.975041 88.74064,54.424245"
     style="fill:#000000;fill-opacity:1;fill-rule:evenodd;stroke:none;opacity:0.75"
     inkscape:connector-curvature="0" />
  <path
     inkscape:connector-curvature="0"
     style="fill:url(#linearGradient3033);fill-opacity:1;fill-rule:evenodd;stroke:none"
     d="m 86.437277,54.567772 c -3.61914,21.18 -23.690072,35.44107 -44.881667,31.889932 C 20.36402,82.906574 6.0385332,62.881566 9.5216685,41.678779 13.004802,20.475985 32.983791,6.0863771 54.197737,9.5014228 75.41167,12.916468 89.86537,32.849128 86.51842,54.073828"
     id="path3389" />
  <path
     style="fill:#4d4d4d;fill-opacity:1;fill-rule:evenodd;stroke:none"
     d="M 48.1875 14.40625 C 35.302659 14.40625 27.930006 19.680052 23.125 25.625 C 26.806849 26.634863 29.389786 27.475854 30.21875 27.75 C 30.229006 27.193317 30.3125 22.1875 30.3125 22.1875 L 30.375 22 L 30.5625 21.96875 C 31.693583 22.133797 55.856161 25.694504 66.03125 31.625 C 67.289616 32.36398 67.907957 33.14024 68.6875 33.9375 C 71.498424 36.844468 75.231499 48.937087 75.625 51.4375 L 75.46875 51.71875 C 75.323285 51.772367 74.994687 51.996394 74.53125 52.3125 C 72.157187 53.972293 66.584412 57.882213 59.46875 57.25 C 53.068757 56.679796 44.728301 53.007643 34.65625 46.375 C 35.099638 47.420762 37.181575 52.383725 37.53125 53.21875 L 37.6875 53.375 C 39.146812 54.127967 53.151061 61.270465 60.09375 61.125 C 65.696949 61.013104 71.668388 58.279284 74.0625 56.84375 L 74.8125 56.71875 C 75.025563 56.885196 75.00324 57.199746 74.9375 57.5 C 74.790636 58.186297 74.447204 59.446592 74.21875 60.03125 L 74.03125 60.5 C 73.75897 61.223595 73.509128 61.926471 73 62.34375 C 71.588244 63.628691 69.339093 64.640535 65.8125 66.1875 C 60.357097 68.57182 51.496291 70.07881 43.28125 70.03125 C 40.341179 69.965977 37.499014 69.659403 35 69.375 C 29.785174 68.780552 25.561967 68.28529 23.03125 70.25 C 29.18647 77.206676 38.1672 81.59375 48.1875 81.59375 C 66.743143 81.59375 81.8125 66.557508 81.8125 48 C 81.8125 29.445289 66.745008 14.40625 48.1875 14.40625 z M 57.0625 32.1875 C 54.490288 32.226198 52.077146 33.196595 50.1875 34.96875 C 48.163113 36.843477 47.00369 39.396611 46.90625 42.15625 C 46.721621 47.844303 51.184615 52.631147 56.875 52.84375 C 59.645828 52.933267 62.26339 51.953078 64.28125 50.0625 C 66.293516 48.181712 67.461327 45.630443 67.5625 42.875 C 67.757386 37.179021 63.293459 32.392177 57.59375 32.1875 C 57.420777 32.1814 57.233608 32.1847 57.0625 32.1875 z M 56.78125 35.21875 C 57.018097 35.2043 57.25989 35.20985 57.5 35.21875 C 61.473712 35.358154 64.601626 38.70493 64.46875 42.6875 C 64.408606 44.603721 63.593661 46.40024 62.1875 47.71875 C 60.777608 49.027002 58.930674 49.68421 57 49.625 C 53.02722 49.47767 49.930555 46.132293 50.0625 42.15625 C 50.12311 40.231637 50.945981 38.468232 52.34375 37.15625 C 53.570412 36.006517 55.120991 35.319923 56.78125 35.21875 z M 58.6875 38.84375 C 56.916277 38.84375 55.46875 39.787779 55.46875 40.96875 C 55.46875 42.142261 56.916277 43.125 58.6875 43.125 C 60.453127 43.125 61.875 42.144126 61.875 40.96875 C 61.875 39.787779 60.453127 38.84375 58.6875 38.84375 z "
     id="path3006" />
  <path
     style="opacity:0.5;fill:#000000;fill-opacity:1;fill-rule:evenodd;stroke:none"
     d="m 48.1875,12.40625 c -12.884841,0 -20.257494,5.273802 -25.0625,11.21875 1.15673,0.31727 1.986766,0.572158 2.90625,0.84375 1.258619,-1.196339 2.673271,-2.302602 4.25,-3.3125 0.0042,-0.253835 0.03125,-0.96875 0.03125,-0.96875 L 30.375,20 30.5625,19.96875 c 0.08271,0.01207 1.029213,0.170769 1.34375,0.21875 4.173316,-2.283004 9.442738,-3.78125 16.28125,-3.78125 17.882517,0 32.52103,13.975068 33.5625,31.59375 0.03932,-0.66512 0.0625,-1.325009 0.0625,-2 0,-18.554711 -15.067492,-33.59375 -33.625,-33.59375 z m 8.875,17.78125 c -2.572212,0.0387 -4.985354,1.009095 -6.875,2.78125 -2.024387,1.874727 -3.18381,4.427861 -3.28125,7.1875 -0.02598,0.800462 0.07018,1.58922 0.21875,2.34375 0.415162,-2.116165 1.449675,-4.037659 3.0625,-5.53125 0.500725,-0.469592 1.02629,-0.895419 1.59375,-1.25 0.173047,-0.201172 0.366275,-0.378318 0.5625,-0.5625 1.226662,-1.149733 2.777241,-1.836327 4.4375,-1.9375 0.236847,-0.01445 0.47864,-0.0089 0.71875,0 2.147136,0.07532 4.040228,1.082499 5.3125,2.625 2.314834,1.491899 4.00377,3.852894 4.5625,6.625 0.09924,-0.518446 0.167766,-1.056309 0.1875,-1.59375 0.118001,-3.448846 -1.461864,-6.564354 -4,-8.53125 -1.613435,-0.748007 -3.445423,-1.436189 -5.375,-2.09375 -0.196197,-0.01822 -0.394382,-0.05534 -0.59375,-0.0625 -0.172973,-0.0061 -0.360142,-0.0028 -0.53125,0 z m -0.15625,7.03125 c -0.856508,0.380367 -1.4375,1.011893 -1.4375,1.75 0,0.910915 0.875003,1.689385 2.09375,2 0.35095,-0.0864 0.729176,-0.125 1.125,-0.125 0.419161,0 0.821511,0.0593 1.1875,0.15625 1.17892,-0.320309 2,-1.13335 2,-2.03125 0,-0.02067 8.65e-4,-0.04198 0,-0.0625 -1.190783,-0.996797 -2.708704,-1.629044 -4.375,-1.6875 -0.198352,-0.0074 -0.396838,-0.0066 -0.59375,0 z m -6.5625,5.1875 c -0.162102,0.561099 -0.262309,1.148558 -0.28125,1.75 -0.06907,2.08121 0.762255,3.976329 2.125,5.34375 1.392718,0.786371 2.98232,1.280041 4.6875,1.34375 2.006186,0.06482 3.917709,-0.441236 5.59375,-1.4375 1.22508,-1.285721 1.944187,-2.940532 2,-4.71875 0.0261,-0.782291 -0.07402,-1.536263 -0.28125,-2.25 -0.354695,1.241911 -1.033264,2.374774 -2,3.28125 C 60.777608,47.027002 58.930674,47.68421 57,47.625 53.807587,47.50661 51.184019,45.322588 50.34375,42.40625 z M 34.65625,44.375 c 0.353932,0.834775 1.553689,3.733996 2.28125,5.46875 5.365419,3.37855 10.247464,5.894059 14.53125,7.46875 0.218154,0.07381 0.438848,0.147971 0.65625,0.21875 0.590092,0.192114 1.171996,0.39727 1.75,0.5625 2.312016,0.660918 4.483078,1.067616 6.21875,1.03125 4.608264,-0.09203 9.432225,-1.948079 12.34375,-3.40625 0.846104,-0.527582 1.5563,-1.0305 2.09375,-1.40625 0.463437,-0.316106 0.792035,-0.540133 0.9375,-0.59375 L 75.625,53.4375 c -0.09677,-0.614935 -0.375142,-1.816549 -0.8125,-3.3125 -0.114754,0.07697 -0.140124,0.09124 -0.28125,0.1875 -2.374063,1.659793 -7.946838,5.569713 -15.0625,4.9375 -0.914591,-0.08149 -1.881763,-0.229733 -2.875,-0.4375 -1.463608,-0.09412 -2.830799,-0.488771 -4.0625,-1.125 -5.137357,-1.741494 -11.113945,-4.860213 -17.875,-9.3125 z m 40.15625,14.34375 -0.75,0.125 c -0.06194,0.03714 -0.152085,0.08619 -0.21875,0.125 -0.214183,0.542927 -0.449324,1.051731 -0.84375,1.375 -1.411756,1.284941 -3.660907,2.296785 -7.1875,3.84375 -5.455403,2.38432 -14.316209,3.89131 -22.53125,3.84375 C 40.341179,67.965977 37.499014,67.659403 35,67.375 29.785174,66.780552 25.561967,66.28529 23.03125,68.25 c 0.878024,0.992349 1.824672,1.93 2.8125,2.8125 2.428523,-0.469767 5.541103,-0.0996 9.15625,0.3125 2.499014,0.284403 5.341179,0.590977 8.28125,0.65625 C 51.496291,72.07881 60.357097,70.57182 65.8125,68.1875 69.339093,66.640535 71.588244,65.628691 73,64.34375 73.509128,63.926471 73.75897,63.223595 74.03125,62.5 l 0.1875,-0.46875 c 0.228454,-0.584658 0.571886,-1.844953 0.71875,-2.53125 0.06574,-0.300254 0.08806,-0.614804 -0.125,-0.78125 z"
     id="path3015"
     inkscape:connector-curvature="0" />
  <path
     style="fill:#ffffff;fill-opacity:1;fill-rule:evenodd;stroke:none"
     d="M 30.5625 21.96875 L 30.375 22 L 30.3125 22.1875 C 30.3125 22.1875 30.22901 27.193317 30.21875 27.75 C 29.515755 27.517513 27.357549 26.836337 24.53125 26.03125 C 24.046914 26.5599 23.564186 27.081621 23.125 27.625 C 26.806849 28.634863 29.389786 29.475854 30.21875 29.75 C 30.22901 29.193317 30.3125 24.1875 30.3125 24.1875 L 30.375 24 L 30.5625 23.96875 C 31.693583 24.133797 55.856161 27.694504 66.03125 33.625 C 67.289616 34.36398 67.907957 35.14024 68.6875 35.9375 C 71.104113 38.436684 74.20954 47.698123 75.28125 51.84375 C 75.325473 51.819474 75.439219 51.729636 75.46875 51.71875 L 75.625 51.4375 C 75.231499 48.937087 71.498424 36.844468 68.6875 33.9375 C 67.907957 33.14024 67.289616 32.36398 66.03125 31.625 C 55.856161 25.694504 31.693583 22.133797 30.5625 21.96875 z M 56.78125 35.21875 C 55.120991 35.319923 53.570412 36.006517 52.34375 37.15625 C 50.945981 38.468232 50.12311 40.231637 50.0625 42.15625 C 50.048521 42.577504 50.069295 43.002208 50.125 43.40625 C 50.347913 41.773681 51.12839 40.297018 52.34375 39.15625 C 53.570412 38.006517 55.120991 37.319923 56.78125 37.21875 C 57.018097 37.2043 57.25989 37.20985 57.5 37.21875 C 61.042088 37.343012 63.918661 40.006428 64.40625 43.40625 C 64.437036 43.171163 64.461232 42.927028 64.46875 42.6875 C 64.601626 38.70493 61.473712 35.358154 57.5 35.21875 C 57.25989 35.20985 57.018097 35.2043 56.78125 35.21875 z M 55.875 41.96875 C 55.631163 42.267828 55.46875 42.60337 55.46875 42.96875 C 55.46875 44.142261 56.916277 45.125 58.6875 45.125 C 60.453127 45.125 61.875 44.144126 61.875 42.96875 C 61.875 42.607005 61.735835 42.26571 61.5 41.96875 C 60.965918 42.650255 59.912294 43.125 58.6875 43.125 C 57.464274 43.125 56.419287 42.645312 55.875 41.96875 z M 46.96875 43.46875 C 46.945994 43.695579 46.91437 43.92628 46.90625 44.15625 C 46.721621 49.844303 51.184615 54.631147 56.875 54.84375 C 59.645828 54.93327 62.26339 53.953078 64.28125 52.0625 C 66.293516 50.181712 67.461327 47.630443 67.5625 44.875 C 67.578374 44.411034 67.544097 43.949916 67.5 43.5 C 67.258197 46.015435 66.140947 48.324313 64.28125 50.0625 C 62.26339 51.953078 59.645828 52.93327 56.875 52.84375 C 51.626521 52.647657 47.44523 48.565544 46.96875 43.46875 z M 34.65625 48.375 C 35.099638 49.420762 37.181575 54.383725 37.53125 55.21875 L 37.6875 55.375 C 39.146812 56.127967 53.151061 63.270465 60.09375 63.125 C 65.696949 63.013104 71.668388 60.279284 74.0625 58.84375 L 74.625 58.75 C 74.750011 58.299103 74.867769 57.825855 74.9375 57.5 C 75.00324 57.199746 75.025563 56.885196 74.8125 56.71875 L 74.0625 56.84375 C 71.668388 58.279284 65.696949 61.013104 60.09375 61.125 C 53.151061 61.270465 39.146812 54.127967 37.6875 53.375 L 37.53125 53.21875 C 37.320745 52.716063 36.543164 50.833217 35.8125 49.09375 C 35.425489 48.844418 35.048526 48.633322 34.65625 48.375 z M 81.78125 49 C 81.246872 67.090532 66.405688 81.59375 48.1875 81.59375 C 38.809321 81.59375 30.34284 77.758167 24.25 71.5625 C 23.814103 71.751121 23.398139 71.965168 23.03125 72.25 C 29.18647 79.206676 38.1672 83.59375 48.1875 83.59375 C 66.743143 83.59375 81.8125 68.557508 81.8125 50 C 81.8125 49.662561 81.791147 49.335044 81.78125 49 z "
     id="path3020" />
</svg>
