<?xml version="1.0" encoding="UTF-8" standalone="no"?>
<!-- Created with Inkscape (http://www.inkscape.org/) -->

<svg
   xmlns:dc="http://purl.org/dc/elements/1.1/"
   xmlns:cc="http://creativecommons.org/ns#"
   xmlns:rdf="http://www.w3.org/1999/02/22-rdf-syntax-ns#"
   xmlns:svg="http://www.w3.org/2000/svg"
   xmlns="http://www.w3.org/2000/svg"
   xmlns:xlink="http://www.w3.org/1999/xlink"
   xmlns:sodipodi="http://sodipodi.sourceforge.net/DTD/sodipodi-0.dtd"
   xmlns:inkscape="http://www.inkscape.org/namespaces/inkscape"
   version="1.0"
   x="0.00000000"
   y="0.00000000"
   width="96"
   height="96"
   id="svg1443"
   sodipodi:version="0.32"
   inkscape:version="0.48.3.1 r9886"
   sodipodi:docname="start-here-linuxmint.svg"
   inkscape:export-filename="start-here.png"
   inkscape:export-xdpi="90"
   inkscape:export-ydpi="90"
   inkscape:output_extension="org.inkscape.output.svg.inkscape">
  <metadata
     id="metadata84">
    <rdf:RDF>
      <cc:Work
         rdf:about="">
        <dc:format>image/svg+xml</dc:format>
        <dc:type
           rdf:resource="http://purl.org/dc/dcmitype/StillImage" />
        <dc:title />
        <dc:creator>
          <cc:Agent>
            <dc:title>by andrefelipe</dc:title>
          </cc:Agent>
        </dc:creator>
      </cc:Work>
    </rdf:RDF>
  </metadata>
  <sodipodi:namedview
     inkscape:window-height="694"
     inkscape:window-width="972"
     inkscape:pageshadow="2"
     inkscape:pageopacity="0.0"
     borderopacity="1.0"
     bordercolor="#666666"
     pagecolor="#ffffff"
     id="base"
     inkscape:zoom="4"
     inkscape:cx="48"
     inkscape:cy="50.75"
     inkscape:window-x="23"
     inkscape:window-y="34"
     inkscape:current-layer="svg1443"
     showguides="false"
     inkscape:guide-bbox="true"
     showgrid="false"
     inkscape:window-maximized="0"
     fit-margin-top="0"
     fit-margin-left="0"
     fit-margin-right="0"
     fit-margin-bottom="0">
    <sodipodi:guide
       orientation="horizontal"
       position="0,121.92459"
       id="guide1331" />
    <sodipodi:guide
       orientation="horizontal"
       position="0,38.075431"
       id="guide1333" />
    <sodipodi:guide
       orientation="vertical"
       position="13.524057,8.4373016e-06"
       id="guide1335" />
    <sodipodi:guide
       orientation="vertical"
       position="146.26788,8.4373016e-06"
       id="guide1337" />
    <sodipodi:guide
       orientation="horizontal"
       position="0,145.01952"
       id="guide6086" />
    <sodipodi:guide
       orientation="horizontal"
       position="173.73212,15.396627"
       id="guide6088" />
    <sodipodi:guide
       orientation="vertical"
       position="2.0806242,8.4373016e-06"
       id="guide1329" />
    <sodipodi:guide
       orientation="vertical"
       position="157.50325,8.4373016e-06"
       id="guide1332" />
  </sodipodi:namedview>
  <defs
     id="defs1446">
    <linearGradient
       id="linearGradient3292-2">
      <stop
         style="stop-color:#a0a0a0;stop-opacity:1;"
         offset="0"
         id="stop3294-5" />
      <stop
         style="stop-color:#ffffff;stop-opacity:1;"
         offset="1"
         id="stop3296-7" />
    </linearGradient>
    <linearGradient
       inkscape:collect="always"
       xlink:href="#linearGradient3292-2"
       id="linearGradient3083"
       gradientUnits="userSpaceOnUse"
       gradientTransform="matrix(0.59632966,0,0,0.59632744,0.16968136,0.54179217)"
       x1="86.782135"
       y1="157.45517"
       x2="86.782135"
       y2="24.018677" />
  </defs>
  <path
     style="opacity:0.75;color:#000000;fill:#000000;fill-opacity:1;fill-rule:evenodd;stroke:none;stroke-width:2;marker:none;visibility:visible;display:inline;overflow:visible;enable-background:accumulate"
     d="M 8.78125,11.8125 A 2.250225,2.250225 0 0 0 6.75,14.0625 l 0,19.875 a 2.250225,2.250225 0 0 0 2.25,2.25 l 5.0625,0 c 1.297084,-9.79e-4 2.782182,1.484063 2.78125,2.78125 l 0,22.9375 c 0,12.326157 9.777836,22.28125 22.125,22.28125 l 48.03125,0 a 2.250225,2.250225 0 0 0 2.25,-2.25 l 0,-48 c 0,-12.347171 -9.9551,-22.125 -22.28125,-22.125 L 9,11.8125 a 2.250225,2.250225 0 0 0 -0.21875,0 z"
     id="path3085" />
  <path
     style="opacity:0.25;color:#000000;fill:#000000;fill-opacity:1;fill-rule:evenodd;stroke:none;stroke-width:2;marker:none;visibility:visible;display:inline;overflow:visible;enable-background:accumulate"
     d="m 9,8.0625 a 6.0006,6.0006 0 0 0 -6,6 l 0,19.875 a 6.0006,6.0006 0 0 0 6,6 l 4.09375,0 0,21.96875 c 0,14.281181 11.537789,26.03125 25.875,26.03125 l 48.03125,0 a 6.0006,6.0006 0 0 0 6,-6 l 0,-48 C 93,19.600282 81.249924,8.0625 66.96875,8.0625 L 9,8.0625 z"
     id="path3088" />
  <path
     inkscape:connector-curvature="0"
     style="color:#000000;fill:url(#linearGradient3083);fill-opacity:1;fill-rule:evenodd;stroke:none;stroke-width:2;marker:none;visibility:visible;display:inline;overflow:visible;enable-background:accumulate"
     d="m 9,14.047058 0,19.882354 5.047057,0 c 2.648609,-0.002 5.048964,2.398452 5.047061,5.04706 l 0,22.941176 c 0,11.153142 8.729216,20.035294 19.882351,20.035294 l 48.023531,0 0,-48.02353 C 87,22.77627 78.117841,14.047058 66.964705,14.047058 z"
     id="path3098"
     sodipodi:nodetypes="cccccccccc" />
  <path
     style="color:#000000;fill:#4d4d4d;fill-opacity:1;fill-rule:evenodd;stroke:none;stroke-width:2;marker:none;visibility:visible;display:inline;overflow:visible;enable-background:accumulate"
     d="m 28.4375,23.375 0,39.78125 c 0,5.255642 4.248093,9.46875 9.625,9.46875 l 29.65625,0 c 5.376908,0 9.65625,-4.213109 9.65625,-9.46875 l 0,-20.21875 c 0,-5.405891 -4.40661,-9.78125 -9.8125,-9.78125 -2.940617,0 -5.518242,1.322166 -7.3125,3.375 -1.794258,-2.052835 -4.403133,-3.375 -7.34375,-3.375 -5.40589,0 -9.8125,4.375359 -9.8125,9.78125 l 0,14.6875 4.90625,0 0,-14.6875 c 0,-2.702947 2.203302,-4.875 4.90625,-4.875 2.702949,0 4.875,2.172054 4.875,4.875 l 0,14.6875 4.90625,0 0,-14.6875 c 0,-2.702947 2.172053,-4.875 4.875,-4.875 2.702948,0 4.90625,2.172054 4.90625,4.875 l 0,20.21875 c 0,2.627824 -2.061549,4.71875 -4.75,4.71875 l -29.65625,0 c -2.688453,0 -4.90625,-2.090928 -4.90625,-4.71875 l 0,-39.78125 z"
     id="path3047"
     inkscape:connector-curvature="0"
     sodipodi:nodetypes="ccssccscssccssccccsccssccc" />
  <path
     style="opacity:0.5;color:#000000;fill:#000000;fill-opacity:1;fill-rule:evenodd;stroke:none;stroke-width:2;marker:none;visibility:visible;display:inline;overflow:visible;enable-background:accumulate"
     d="m 28.4375,21.375 0,4 4.71875,0 0,-4 -4.71875,0 z m 24.46875,9.78125 c -5.40589,0 -9.8125,4.375359 -9.8125,9.78125 l 0,4 c 0,-5.405891 4.40661,-9.78125 9.8125,-9.78125 2.940617,0 5.549492,1.322165 7.34375,3.375 1.794258,-2.052834 4.371883,-3.375 7.3125,-3.375 5.40589,0 9.8125,4.375359 9.8125,9.78125 l 0,-4 c 0,-5.405891 -4.40661,-9.78125 -9.8125,-9.78125 -2.940617,0 -5.518242,1.322166 -7.3125,3.375 -1.794258,-2.052835 -4.403133,-3.375 -7.34375,-3.375 z m -19.75,30 0,4 c 0,2.627822 2.217797,4.71875 4.90625,4.71875 l 29.65625,0 c 2.688451,0 4.75,-2.090926 4.75,-4.71875 l 0,-4 c 0,2.627824 -2.061549,4.71875 -4.75,4.71875 l -29.65625,0 c -2.688453,0 -4.90625,-2.090928 -4.90625,-4.71875 z"
     id="path3091"
     inkscape:connector-curvature="0" />
  <path
     style="color:#000000;fill:#ffffff;fill-opacity:1;fill-rule:evenodd;stroke:none;stroke-width:2;marker:none;visibility:visible;display:inline;overflow:visible;enable-background:accumulate"
     d="M 52.90625 38.0625 C 50.203302 38.0625 48 40.234553 48 42.9375 L 48 44.9375 C 48 42.234553 50.203302 40.0625 52.90625 40.0625 C 55.609199 40.0625 57.78125 42.234554 57.78125 44.9375 L 57.78125 42.9375 C 57.78125 40.234554 55.609199 38.0625 52.90625 38.0625 z M 67.5625 38.0625 C 64.859553 38.0625 62.6875 40.234553 62.6875 42.9375 L 62.6875 44.9375 C 62.6875 42.234553 64.859553 40.0625 67.5625 40.0625 C 70.265448 40.0625 72.46875 42.234554 72.46875 44.9375 L 72.46875 42.9375 C 72.46875 40.234554 70.265448 38.0625 67.5625 38.0625 z M 43.09375 57.625 L 43.09375 59.625 L 48 59.625 L 48 57.625 L 43.09375 57.625 z M 57.78125 57.625 L 57.78125 59.625 L 62.6875 59.625 L 62.6875 57.625 L 57.78125 57.625 z M 28.4375 63.15625 L 28.4375 65.15625 C 28.4375 70.411892 32.685593 74.625 38.0625 74.625 L 67.71875 74.625 C 73.095658 74.625 77.375 70.411891 77.375 65.15625 L 77.375 63.15625 C 77.375 68.411891 73.095658 72.625 67.71875 72.625 L 38.0625 72.625 C 32.685593 72.625 28.4375 68.411892 28.4375 63.15625 z "
     id="path3096" />
</svg>
