<?xml version="1.0" encoding="UTF-8" standalone="no"?>
<!-- Created with Inkscape (http://www.inkscape.org/) -->

<svg
   xmlns:dc="http://purl.org/dc/elements/1.1/"
   xmlns:cc="http://creativecommons.org/ns#"
   xmlns:rdf="http://www.w3.org/1999/02/22-rdf-syntax-ns#"
   xmlns:svg="http://www.w3.org/2000/svg"
   xmlns="http://www.w3.org/2000/svg"
   xmlns:xlink="http://www.w3.org/1999/xlink"
   xmlns:sodipodi="http://sodipodi.sourceforge.net/DTD/sodipodi-0.dtd"
   xmlns:inkscape="http://www.inkscape.org/namespaces/inkscape"
   version="1.0"
   x="0.00000000"
   y="0.00000000"
   width="96"
   height="96"
   id="svg1443"
   sodipodi:version="0.32"
   inkscape:version="0.48.3.1 r9886"
   sodipodi:docname="start-here-fedora.svg"
   inkscape:export-filename="start-here.png"
   inkscape:export-xdpi="90"
   inkscape:export-ydpi="90"
   inkscape:output_extension="org.inkscape.output.svg.inkscape">
  <metadata
     id="metadata84">
    <rdf:RDF>
      <cc:Work
         rdf:about="">
        <dc:format>image/svg+xml</dc:format>
        <dc:type
           rdf:resource="http://purl.org/dc/dcmitype/StillImage" />
        <dc:title></dc:title>
        <dc:creator>
          <cc:Agent>
            <dc:title>by andrefelipe</dc:title>
          </cc:Agent>
        </dc:creator>
      </cc:Work>
    </rdf:RDF>
  </metadata>
  <sodipodi:namedview
     inkscape:window-height="694"
     inkscape:window-width="1001"
     inkscape:pageshadow="2"
     inkscape:pageopacity="0.0"
     borderopacity="1.0"
     bordercolor="#666666"
     pagecolor="#ffffff"
     id="base"
     inkscape:zoom="4"
     inkscape:cx="48"
     inkscape:cy="48"
     inkscape:window-x="86"
     inkscape:window-y="111"
     inkscape:current-layer="svg1443"
     showguides="false"
     inkscape:guide-bbox="true"
     showgrid="false"
     inkscape:window-maximized="0"
     fit-margin-top="0"
     fit-margin-left="0"
     fit-margin-right="0"
     fit-margin-bottom="0">
    <sodipodi:guide
       orientation="horizontal"
       position="0,121.92459"
       id="guide1331" />
    <sodipodi:guide
       orientation="horizontal"
       position="0,38.075431"
       id="guide1333" />
    <sodipodi:guide
       orientation="vertical"
       position="13.524057,8.4373016e-06"
       id="guide1335" />
    <sodipodi:guide
       orientation="vertical"
       position="146.26788,8.4373016e-06"
       id="guide1337" />
    <sodipodi:guide
       orientation="horizontal"
       position="0,145.01952"
       id="guide6086" />
    <sodipodi:guide
       orientation="horizontal"
       position="173.73212,15.396627"
       id="guide6088" />
    <sodipodi:guide
       orientation="vertical"
       position="2.0806242,8.4373016e-06"
       id="guide1329" />
    <sodipodi:guide
       orientation="vertical"
       position="157.50325,8.4373016e-06"
       id="guide1332" />
  </sodipodi:namedview>
  <defs
     id="defs1446">
    <linearGradient
       id="linearGradient3292">
      <stop
         style="stop-color:#a0a0a0;stop-opacity:1;"
         offset="0"
         id="stop3294" />
      <stop
         style="stop-color:#ffffff;stop-opacity:1;"
         offset="1"
         id="stop3296" />
    </linearGradient>
    <linearGradient
       inkscape:collect="always"
       xlink:href="#linearGradient3292"
       id="linearGradient3033"
       gradientUnits="userSpaceOnUse"
       gradientTransform="matrix(0.59632966,0,0,0.59632744,0.16968359,0.54196263)"
       x1="86.782135"
       y1="157.45517"
       x2="86.782135"
       y2="24.018677" />
  </defs>
  <path
     inkscape:connector-curvature="0"
     id="path3236"
     d="M 92.350697,55.578231 C 88.174765,80.016772 65.015992,96.471929 40.564165,92.374432 16.11233,88.276957 -0.41707631,65.171109 3.6019258,40.706261 7.620927,16.241409 30.673606,-0.362048 55.151235,3.5784038 79.628852,7.5188548 96.306197,30.518163 92.444327,55.008293"
     style="opacity:0.25;fill:#000000;fill-opacity:1;fill-rule:evenodd;stroke:none" />
  <path
     id="path3869"
     d="M 88.654817,54.946686 C 84.826877,77.348602 63.598004,92.432429 41.183816,88.676414 18.769634,84.920414 3.6176761,63.740122 7.3017621,41.314096 10.985845,18.888064 32.117469,3.668285 54.555298,7.2803528 76.993112,10.89242 92.280685,31.975041 88.74064,54.424245"
     style="fill:#000000;fill-opacity:1;fill-rule:evenodd;stroke:none;opacity:0.75"
     inkscape:connector-curvature="0" />
  <path
     inkscape:connector-curvature="0"
     style="fill:url(#linearGradient3033);fill-opacity:1;fill-rule:evenodd;stroke:none"
     d="m 86.437277,54.567772 c -3.61914,21.18 -23.690072,35.44107 -44.881667,31.889932 C 20.36402,82.906574 6.0385332,62.881566 9.5216685,41.678779 13.004802,20.475985 32.983791,6.0863771 54.197737,9.5014228 75.41167,12.916468 89.86537,32.849128 86.51842,54.073828"
     id="path3389" />
  <path
     inkscape:connector-curvature="0"
     sodipodi:nodetypes="cssssssssssscsscsss"
     id="path2977"
     d="m 44.394453,17.085761 c -6.388111,0.673306 -7.611555,1.495385 -13.398688,5.873831 -1.93958,1.467571 -5.509395,5.038126 -6.424069,9.274146 -0.348361,1.61317 0.06341,3.006074 1.225301,3.982713 3.72042,3.127782 9.947251,5.665511 15.055773,8.118494 1.496291,0.718479 0.505571,2.021224 -1.907348,4.110207 -6.088677,5.271085 -14.320651,11.687554 -14.895337,16.576719 -0.270809,2.304024 0.517941,5.434605 3.314418,7.036762 3.266729,1.871519 10.047979,0.649974 14.576078,-1.036183 C 48.557535,68.558452 57.249557,63.120302 64.150179,57.774924 71.325955,52.216373 77.997855,45.156091 78.327885,44.004732 78.733153,42.590548 78.692757,41.28463 77.91064,39.783086 76.682433,37.424929 75.040397,35.672691 73.277281,33.711575 68.546549,28.724223 63.541145,24.341857 57.552495,20.983542 53.227864,18.558373 49.422906,16.555816 44.394453,17.085761 z m 9.38379,11.181316 c 4.615112,2.23141 9.354482,8.092174 -0.04112,11.465422 -2.554886,0.917278 -10.657541,-2.252876 -10.409499,-6.57887 0.361702,-6.390336 4.815507,-7.610948 10.450625,-4.886552 z"
     style="fill:#4d4d4d;fill-opacity:1;fill-rule:evenodd;stroke:none" />
  <path
     style="opacity:0.5;fill:#000000;fill-opacity:1;fill-rule:evenodd;stroke:none"
     d="m 45.3125,15 c -0.305145,0.01385 -0.591972,0.06063 -0.90625,0.09375 -6.388111,0.673306 -7.619117,1.496554 -13.40625,5.875 -1.93958,1.467571 -5.522826,5.01398 -6.4375,9.25 -0.232642,1.077307 -0.09864,2.052538 0.34375,2.875 1.23956,-3.727373 4.33146,-6.791574 6.09375,-8.125 5.787133,-4.378446 7.018139,-5.201694 13.40625,-5.875 5.028453,-0.529945 8.831619,1.449831 13.15625,3.875 5.98865,3.358315 10.988018,7.762648 15.71875,12.75 1.763116,1.961116 3.396793,3.704343 4.625,6.0625 0.09776,0.187693 0.174836,0.380327 0.25,0.5625 0.08579,-0.139348 0.132735,-0.261716 0.15625,-0.34375 0.405268,-1.414184 0.375867,-2.717206 -0.40625,-4.21875 -1.228207,-2.358157 -2.861884,-4.101384 -4.625,-6.0625 -4.730732,-4.987352 -9.7301,-9.391685 -15.71875,-12.75 C 53.508158,16.695154 49.88968,14.792227 45.3125,15 z m -1.625,17.90625 c -0.182486,0.66435 -0.327433,1.409622 -0.375,2.25 -0.248042,4.325994 7.882614,7.479778 10.4375,6.5625 5.478145,-1.966786 6.118455,-4.741869 4.8125,-7.1875 -0.744964,1.172537 -2.236931,2.262808 -4.8125,3.1875 -2.194241,0.787796 -8.488613,-1.42758 -10.0625,-4.8125 z m -4.03125,12.875 c -0.225652,0.207099 -0.458737,0.431144 -0.71875,0.65625 -6.088677,5.271085 -14.300314,11.704585 -14.875,16.59375 -0.105829,0.900383 -0.05563,1.925205 0.21875,2.9375 1.490162,-4.732824 8.995595,-10.630712 14.65625,-15.53125 2.412919,-2.088983 3.402541,-3.375271 1.90625,-4.09375 -0.382317,-0.183579 -0.794175,-0.37776 -1.1875,-0.5625 z"
     id="path3974"
     inkscape:connector-curvature="0" />
  <path
     style="fill:#ffffff;fill-opacity:1;fill-rule:evenodd;stroke:none"
     d="M 48.9375 26.90625 C 45.766378 26.810574 43.56117 28.762894 43.3125 33.15625 C 43.293225 33.492413 43.362445 33.804172 43.4375 34.125 C 44.211914 28.656393 48.469335 27.713112 53.78125 30.28125 C 56.088806 31.396955 58.412719 33.396727 59 35.5625 C 59.833337 32.71854 56.788851 29.735427 53.78125 28.28125 C 52.020276 27.429876 50.378919 26.949739 48.9375 26.90625 z M 24.5625 34.21875 C 24.214139 35.83192 24.650609 37.242111 25.8125 38.21875 C 29.53292 41.346532 35.735228 43.890767 40.84375 46.34375 C 40.896927 46.369284 40.921808 46.410481 40.96875 46.4375 C 41.740031 45.466397 41.788976 44.797622 40.84375 44.34375 C 35.735228 41.890767 29.53292 39.346532 25.8125 36.21875 C 25.162984 35.672793 24.741443 34.990633 24.5625 34.21875 z M 78.46875 43.28125 C 78.42675 43.522949 78.38319 43.753326 78.3125 44 C 77.98247 45.151359 71.332026 52.222699 64.15625 57.78125 C 57.255628 63.126628 48.554454 68.567252 41.9375 71.03125 C 37.409401 72.717407 30.641729 73.934019 27.375 72.0625 C 25.310249 70.879563 24.319883 68.870228 24.0625 66.96875 C 24.059952 66.988387 24.064802 67.011662 24.0625 67.03125 C 23.791691 69.335274 24.578523 72.460343 27.375 74.0625 C 30.641729 75.934019 37.409401 74.717407 41.9375 73.03125 C 48.554454 70.567252 57.255628 65.126628 64.15625 59.78125 C 71.332026 54.222699 77.98247 47.151359 78.3125 46 C 78.577751 45.074405 78.668335 44.199292 78.46875 43.28125 z "
     id="path3979" />
</svg>
