<?xml version="1.0" encoding="UTF-8" standalone="no"?>
<!-- Created with Inkscape (http://www.inkscape.org/) -->

<svg
   xmlns:dc="http://purl.org/dc/elements/1.1/"
   xmlns:cc="http://creativecommons.org/ns#"
   xmlns:rdf="http://www.w3.org/1999/02/22-rdf-syntax-ns#"
   xmlns:svg="http://www.w3.org/2000/svg"
   xmlns="http://www.w3.org/2000/svg"
   xmlns:xlink="http://www.w3.org/1999/xlink"
   xmlns:sodipodi="http://sodipodi.sourceforge.net/DTD/sodipodi-0.dtd"
   xmlns:inkscape="http://www.inkscape.org/namespaces/inkscape"
   version="1.0"
   x="0.00000000"
   y="0.00000000"
   width="96"
   height="96"
   id="svg1443"
   sodipodi:version="0.32"
   inkscape:version="0.48.3.1 r9886"
   sodipodi:docname="start-here-fedora.svg"
   inkscape:export-filename="start-here.png"
   inkscape:export-xdpi="90"
   inkscape:export-ydpi="90"
   inkscape:output_extension="org.inkscape.output.svg.inkscape">
  <metadata
     id="metadata84">
    <rdf:RDF>
      <cc:Work
         rdf:about="">
        <dc:format>image/svg+xml</dc:format>
        <dc:type
           rdf:resource="http://purl.org/dc/dcmitype/StillImage" />
        <dc:title></dc:title>
        <dc:creator>
          <cc:Agent>
            <dc:title>by andrefelipe</dc:title>
          </cc:Agent>
        </dc:creator>
      </cc:Work>
    </rdf:RDF>
  </metadata>
  <sodipodi:namedview
     inkscape:window-height="694"
     inkscape:window-width="1001"
     inkscape:pageshadow="2"
     inkscape:pageopacity="0.0"
     borderopacity="1.0"
     bordercolor="#666666"
     pagecolor="#ffffff"
     id="base"
     inkscape:zoom="4"
     inkscape:cx="48"
     inkscape:cy="48"
     inkscape:window-x="86"
     inkscape:window-y="111"
     inkscape:current-layer="svg1443"
     showguides="false"
     inkscape:guide-bbox="true"
     showgrid="false"
     inkscape:window-maximized="0"
     fit-margin-top="0"
     fit-margin-left="0"
     fit-margin-right="0"
     fit-margin-bottom="0">
    <sodipodi:guide
       orientation="horizontal"
       position="0,121.92459"
       id="guide1331" />
    <sodipodi:guide
       orientation="horizontal"
       position="0,38.075431"
       id="guide1333" />
    <sodipodi:guide
       orientation="vertical"
       position="13.524057,8.4373016e-06"
       id="guide1335" />
    <sodipodi:guide
       orientation="vertical"
       position="146.26788,8.4373016e-06"
       id="guide1337" />
    <sodipodi:guide
       orientation="horizontal"
       position="0,145.01952"
       id="guide6086" />
    <sodipodi:guide
       orientation="horizontal"
       position="173.73212,15.396627"
       id="guide6088" />
    <sodipodi:guide
       orientation="vertical"
       position="2.0806242,8.4373016e-06"
       id="guide1329" />
    <sodipodi:guide
       orientation="vertical"
       position="157.50325,8.4373016e-06"
       id="guide1332" />
  </sodipodi:namedview>
  <defs
     id="defs1446">
    <linearGradient
       id="linearGradient3292">
      <stop
         style="stop-color:#a0a0a0;stop-opacity:1;"
         offset="0"
         id="stop3294" />
      <stop
         style="stop-color:#ffffff;stop-opacity:1;"
         offset="1"
         id="stop3296" />
    </linearGradient>
    <linearGradient
       inkscape:collect="always"
       xlink:href="#linearGradient3292"
       id="linearGradient3033"
       gradientUnits="userSpaceOnUse"
       gradientTransform="matrix(0.59632966,0,0,0.59632744,0.16968359,0.54196263)"
       x1="86.782135"
       y1="157.45517"
       x2="86.782135"
       y2="24.018677" />
  </defs>
  <path
     inkscape:connector-curvature="0"
     id="path3236"
     d="M 92.350697,55.578231 C 88.174765,80.016772 65.015992,96.471929 40.564165,92.374432 16.11233,88.276957 -0.41707631,65.171109 3.6019258,40.706261 7.620927,16.241409 30.673606,-0.362048 55.151235,3.5784038 79.628852,7.5188548 96.306197,30.518163 92.444327,55.008293"
     style="opacity:0.25;fill:#000000;fill-opacity:1;fill-rule:evenodd;stroke:none" />
  <path
     id="path3869"
     d="M 88.654817,54.946686 C 84.826877,77.348602 63.598004,92.432429 41.183816,88.676414 18.769634,84.920414 3.6176761,63.740122 7.3017621,41.314096 10.985845,18.888064 32.117469,3.668285 54.555298,7.2803528 76.993112,10.89242 92.280685,31.975041 88.74064,54.424245"
     style="fill:#000000;fill-opacity:1;fill-rule:evenodd;stroke:none;opacity:0.75"
     inkscape:connector-curvature="0" />
  <path
     inkscape:connector-curvature="0"
     style="fill:url(#linearGradient3033);fill-opacity:1;fill-rule:evenodd;stroke:none"
     d="m 86.437277,54.567772 c -3.61914,21.18 -23.690072,35.44107 -44.881667,31.889932 C 20.36402,82.906574 6.0385332,62.881566 9.5216685,41.678779 13.004802,20.475985 32.983791,6.0863771 54.197737,9.5014228 75.41167,12.916468 89.86537,32.849128 86.51842,54.073828"
     id="path3389" />
  <path
     inkscape:connector-curvature="0"
     style="font-size:medium;font-style:normal;font-variant:normal;font-weight:normal;font-stretch:normal;text-indent:0;text-align:start;text-decoration:none;line-height:normal;letter-spacing:normal;word-spacing:normal;text-transform:none;direction:ltr;block-progression:tb;writing-mode:lr-tb;text-anchor:start;color:#000000;fill:#4d4d4d;fill-opacity:1;stroke:none;stroke-width:3.97420979000000019;marker:none;visibility:visible;display:inline;overflow:visible;enable-background:accumulate;font-family:'A.C.M.E. Secret Agent';-inkscape-font-specification:'A.C.M.E. Secret Agent';opacity:0.38"
     d="m 61,18 c -9.33696,0 -17,7.663 -17,17 l 0,9 -9,0 c -9.336886,0 -17,7.6632 -17,17 0,9.3368 7.66304,17 17,17 9.33696,0 17,-7.6632 17,-17 l 0,-9 9,0 C 70.336886,52 78,44.3368 78,35 78,25.663 70.33696,18 61,18 z m 0,7.9374 c 5.036212,0 9.0625,4.0264 9.0625,9.0626 0,5.0362 -4.026214,9.0624 -9.0625,9.0624 l -9,0 0,-0.062 -0.0625,0 0,-9 c 0,-5.0362 4.026288,-9.0626 9.0625,-9.0626 z m -26,26 9,0 0,0.062 0.0625,0 0,9 c 0,5.0362 -4.026288,9.0624 -9.0625,9.0624 -5.036212,0 -9.0625,-4.0262 -9.0625,-9.0624 0,-5.0362 4.026214,-9.0626 9.0625,-9.0626 z"
     id="in" />
  <path
     inkscape:connector-curvature="0"
     style="fill:#4d4d4d;fill-opacity:1"
     d="m 61,18 c -9.389324,0 -17,7.6112 -17,17 l 0,9.0624 -7.125,0 c -2.220246,0 -4.001088,1.7216 -4,3.9376 0,2.2026 1.740968,3.9374 3.9375,3.9374 l 5.875,0 C 43.387388,51.9374 44,52.5512 44,53.25 L 44,61 c -0.0086,4.9504 -4.049826,9 -9,9 -1.676826,0 -2.105392,-0.25 -3.25,-0.25 -2.404916,0 -4,1.596 -4,3.8124 6.5e-4,1.8336 1.577262,3.4344 3.5,3.9376 1.31862,0.3454 2.325504,0.5 3.75,0.5 9.389324,0 17,-7.6112 17,-17 l 0,-9 7.125,0 c 2.220246,0 4.001088,-1.784 4,-4 0,-2.2026 -1.740968,-3.9376 -3.9375,-3.9376 l -5.875,0 C 52.612612,44.0624 52,43.5112 52,42.8124 L 52,35 c 0.0086,-4.9504 4.049826,-8.9376 9,-8.9376 1.676826,0 2.105392,0.188 3.25,0.188 2.404916,0 4,-1.5962 4,-3.8126 -6.5e-4,-1.8336 -1.577262,-3.4342 -3.5,-3.9374 -1.31862,-0.3454 -2.325504,-0.5 -3.75,-0.5 z"
     id="free" />
  <path
     style="font-size:medium;font-style:normal;font-variant:normal;font-weight:normal;font-stretch:normal;text-indent:0;text-align:start;text-decoration:none;line-height:normal;letter-spacing:normal;word-spacing:normal;text-transform:none;direction:ltr;block-progression:tb;writing-mode:lr-tb;text-anchor:start;opacity:1;color:#000000;fill:#ffffff;fill-opacity:1;stroke:none;stroke-width:3.97420979000000019;marker:none;visibility:visible;display:inline;overflow:visible;enable-background:accumulate;font-family:'A.C.M.E. Secret Agent';-inkscape-font-specification:'A.C.M.E. Secret Agent'"
     d="M 61 26.0625 C 56.049826 26.0625 52.0086 30.0496 52 35 L 52 37 C 52.0086 32.0496 56.049826 28.0625 61 28.0625 C 61.99132 28.0625 62.537854 28.13378 63.0625 28.1875 C 66.791342 29.040781 69.597492 32.145035 70 36.03125 C 70.037496 35.693701 70.0625 35.348201 70.0625 35 C 70.0625 30.672677 67.094196 27.110084 63.0625 26.1875 C 62.537854 26.13378 61.99132 26.0625 61 26.0625 z M 77.96875 35.8125 C 77.534746 44.772725 70.061265 52 61 52 L 59.125 52 L 52 52 L 52 54 L 59.125 54 L 61 54 C 70.336886 54 78 46.3368 78 37 C 78 36.603358 77.996001 36.202577 77.96875 35.8125 z M 35 51.9375 C 29.963714 51.9375 25.9375 55.9638 25.9375 61 C 25.9375 61.330227 25.966331 61.648042 26 61.96875 C 26.504828 57.424167 30.311921 53.9375 35 53.9375 L 36.8125 53.9375 L 42.6875 53.9375 C 43.387388 53.9375 44 54.5512 44 55.25 L 44 53.25 C 44 52.5512 43.387388 51.9375 42.6875 51.9375 L 36.8125 51.9375 L 35 51.9375 z M 52 61 C 52 61.58355 51.964655 62.149737 51.90625 62.71875 C 51.90525 62.72893 51.90725 62.73982 51.90625 62.75 C 51.84789 63.308417 51.768073 63.864694 51.65625 64.40625 C 51.65425 64.41628 51.65835 64.42747 51.65625 64.4375 C 51.431786 65.534486 51.08093 66.584836 50.65625 67.59375 C 50.65255 67.60264 50.66005 67.6161 50.65625 67.625 C 50.226143 68.631268 49.701688 69.571502 49.09375 70.46875 C 49.08875 70.47615 49.09875 70.4926 49.09375 70.5 C 47.87178 72.308813 46.308802 73.871737 44.5 75.09375 C 43.589202 75.712791 42.617111 76.220839 41.59375 76.65625 C 40.584824 77.08095 39.534522 77.431773 38.4375 77.65625 C 37.886388 77.771085 37.318622 77.84682 36.75 77.90625 C 36.73982 77.90725 36.72893 77.90525 36.71875 77.90625 C 36.14973 77.96466 35.58356 78 35 78 C 34.45911 78 33.991648 77.952811 33.53125 77.90625 C 33.448514 77.89785 33.36291 77.91615 33.28125 77.90625 C 33.217856 77.89974 33.15694 77.8822 33.09375 77.875 C 25.034187 76.955224 18.600932 70.341894 18.03125 62.1875 C 18.018049 62.460048 18 62.724381 18 63 C 18 71.688237 24.648653 78.911226 33.09375 79.875 C 33.15694 79.8822 33.217856 79.89974 33.28125 79.90625 C 33.36291 79.91615 33.448514 79.89785 33.53125 79.90625 C 33.991648 79.952811 34.45911 80 35 80 C 35.58356 80 36.14973 79.96466 36.71875 79.90625 C 36.72893 79.90525 36.73982 79.90725 36.75 79.90625 C 37.318622 79.84682 37.886388 79.771085 38.4375 79.65625 C 39.534522 79.431773 40.584824 79.08095 41.59375 78.65625 C 42.617111 78.220839 43.589202 77.712791 44.5 77.09375 C 46.308802 75.871737 47.87178 74.308813 49.09375 72.5 C 49.09875 72.4926 49.08875 72.47615 49.09375 72.46875 C 49.701688 71.571502 50.226143 70.631268 50.65625 69.625 C 50.66005 69.6161 50.65255 69.60264 50.65625 69.59375 C 51.08093 68.584836 51.431786 67.534486 51.65625 66.4375 C 51.65835 66.42747 51.65425 66.41628 51.65625 66.40625 C 51.768073 65.864694 51.84789 65.308417 51.90625 64.75 C 51.90725 64.73982 51.90525 64.72893 51.90625 64.71875 C 51.964655 64.149737 52 63.58355 52 63 L 52 61 z "
     id="path3856" />
  <path
     style="font-size:medium;font-style:normal;font-variant:normal;font-weight:normal;font-stretch:normal;text-indent:0;text-align:start;text-decoration:none;line-height:normal;letter-spacing:normal;word-spacing:normal;text-transform:none;direction:ltr;block-progression:tb;writing-mode:lr-tb;text-anchor:start;opacity:0.5;color:#000000;fill:#000000;fill-opacity:1;stroke:none;stroke-width:3.97420979;marker:none;visibility:visible;display:inline;overflow:visible;enable-background:accumulate;font-family:'A.C.M.E. Secret Agent';-inkscape-font-specification:'A.C.M.E. Secret Agent'"
     d="m 61,16 c -0.58356,0 -1.14973,0.03534 -1.71875,0.09375 -0.581993,0.05804 -1.155551,0.134756 -1.71875,0.25 -1.097022,0.224477 -2.147324,0.5753 -3.15625,1 -0.0089,0.0037 -0.02236,-0.0038 -0.03125,0 -0.498837,0.213215 -0.995292,0.46042 -1.46875,0.71875 -0.481758,0.261707 -0.954049,0.538247 -1.40625,0.84375 -1.808802,1.222012 -3.37178,2.784938 -4.59375,4.59375 -0.311831,0.458803 -0.577008,0.917377 -0.84375,1.40625 -0.261696,0.481757 -0.503698,0.960287 -0.71875,1.46875 -0.0037,0.0086 0.0037,0.02265 0,0.03125 -0.42468,1.008914 -0.775536,2.059264 -1,3.15625 -0.0021,0.0099 0.002,0.02136 0,0.03125 -0.110213,0.543649 -0.193017,1.095118 -0.25,1.65625 C 44.033236,31.829038 44,32.405863 44,33 l 0,4 c 0,-0.594137 0.03324,-1.170962 0.09375,-1.75 0.05698,-0.561132 0.139787,-1.112601 0.25,-1.65625 0.002,-0.0099 -0.0021,-0.02137 0,-0.03125 0.224464,-1.096986 0.57532,-2.147336 1,-3.15625 0.0037,-0.0086 -0.0037,-0.02265 0,-0.03125 0.215052,-0.508463 0.457054,-0.986993 0.71875,-1.46875 0.266742,-0.488873 0.531919,-0.947447 0.84375,-1.40625 1.22197,-1.808812 2.784948,-3.371738 4.59375,-4.59375 0.452201,-0.305503 0.924492,-0.582043 1.40625,-0.84375 0.473458,-0.25833 0.969913,-0.505535 1.46875,-0.71875 0.0089,-0.0038 0.02236,0.0037 0.03125,0 1.008926,-0.4247 2.059228,-0.775523 3.15625,-1 0.563199,-0.115244 1.136757,-0.191955 1.71875,-0.25 C 59.85027,20.035345 60.41644,20 61,20 c 0.54089,0 1.008352,0.04719 1.46875,0.09375 0.08285,0.0073 0.167479,-0.0085 0.25,0 0.0623,0.0076 0.125591,0.02273 0.1875,0.03125 7.780177,0.887871 14.031937,7.079395 14.96875,14.84375 C 77.951642,34.31847 78,33.669712 78,33 78,24.311577 71.351347,17.088751 62.90625,16.125 c -0.06191,-0.0085 -0.125201,-0.02366 -0.1875,-0.03125 -0.08252,-0.0085 -0.167147,0.0073 -0.25,0 C 62.008352,16.047189 61.54089,16 61,16 z m 8.84375,19 C 68.945604,39.065528 65.351203,42.0625 61,42.0625 l -1.8125,0 -5.875,0 C 52.612612,42.0625 52,41.5113 52,40.8125 l 0,4 c 0,0.6988 0.612612,1.25 1.3125,1.25 l 5.875,0 1.8125,0 c 5.036286,0 9.0625,-4.0263 9.0625,-9.0625 0,-0.68675 -0.07685,-1.359266 -0.21875,-2 z M 35,42 c -9.336886,0 -17,7.6632 -17,17 0,0.684063 0.04494,1.367693 0.125,2.03125 C 19.116866,52.615635 26.332832,46 35,46 l 9,0 0,-4 -9,0 z m 9,17 c -0.0086,4.9504 -4.049826,9 -9,9 -0.419207,0 -0.768634,-0.0078 -1.0625,-0.03125 C 33.617406,67.94322 33.372462,67.90897 33.125,67.875 29.645635,67.1581 26.926041,64.458295 26.15625,61 c -0.14141,0.640104 -0.21875,1.314929 -0.21875,2 0,4.396095 3.058024,8.024149 7.1875,8.875 0.247462,0.03397 0.492406,0.06822 0.8125,0.09375 C 34.231366,71.992188 34.580793,72 35,72 c 4.950174,0 8.9914,-4.0496 9,-9 l 0,-4 z"
     id="path3861"
     inkscape:connector-curvature="0" />
</svg>
