<?xml version="1.0" encoding="UTF-8" standalone="no"?>
<!-- Created with Inkscape (http://www.inkscape.org/) -->

<svg
   xmlns:dc="http://purl.org/dc/elements/1.1/"
   xmlns:cc="http://creativecommons.org/ns#"
   xmlns:rdf="http://www.w3.org/1999/02/22-rdf-syntax-ns#"
   xmlns:svg="http://www.w3.org/2000/svg"
   xmlns="http://www.w3.org/2000/svg"
   xmlns:xlink="http://www.w3.org/1999/xlink"
   xmlns:sodipodi="http://sodipodi.sourceforge.net/DTD/sodipodi-0.dtd"
   xmlns:inkscape="http://www.inkscape.org/namespaces/inkscape"
   version="1.0"
   x="0.00000000"
   y="0.00000000"
   width="96"
   height="96"
   id="svg1443"
   sodipodi:version="0.32"
   inkscape:version="0.48.3.1 r9886"
   sodipodi:docname="start-here-gnome.svg"
   inkscape:export-filename="start-here.png"
   inkscape:export-xdpi="90"
   inkscape:export-ydpi="90"
   inkscape:output_extension="org.inkscape.output.svg.inkscape">
  <metadata
     id="metadata84">
    <rdf:RDF>
      <cc:Work
         rdf:about="">
        <dc:format>image/svg+xml</dc:format>
        <dc:type
           rdf:resource="http://purl.org/dc/dcmitype/StillImage" />
        <dc:title />
        <dc:creator>
          <cc:Agent>
            <dc:title>by andrefelipe</dc:title>
          </cc:Agent>
        </dc:creator>
      </cc:Work>
    </rdf:RDF>
  </metadata>
  <sodipodi:namedview
     inkscape:window-height="730"
     inkscape:window-width="1019"
     inkscape:pageshadow="2"
     inkscape:pageopacity="0.0"
     borderopacity="1.0"
     bordercolor="#666666"
     pagecolor="#ffffff"
     id="base"
     inkscape:zoom="4"
     inkscape:cx="48"
     inkscape:cy="48"
     inkscape:window-x="23"
     inkscape:window-y="34"
     inkscape:current-layer="svg1443"
     showguides="false"
     inkscape:guide-bbox="true"
     showgrid="false"
     inkscape:window-maximized="0"
     fit-margin-top="0"
     fit-margin-left="0"
     fit-margin-right="0"
     fit-margin-bottom="0">
    <sodipodi:guide
       orientation="horizontal"
       position="0,121.92459"
       id="guide1331" />
    <sodipodi:guide
       orientation="horizontal"
       position="0,38.075431"
       id="guide1333" />
    <sodipodi:guide
       orientation="vertical"
       position="13.524057,8.4373016e-06"
       id="guide1335" />
    <sodipodi:guide
       orientation="vertical"
       position="146.26788,8.4373016e-06"
       id="guide1337" />
    <sodipodi:guide
       orientation="horizontal"
       position="0,145.01952"
       id="guide6086" />
    <sodipodi:guide
       orientation="horizontal"
       position="173.73212,15.396627"
       id="guide6088" />
    <sodipodi:guide
       orientation="vertical"
       position="2.0806242,8.4373016e-06"
       id="guide1329" />
    <sodipodi:guide
       orientation="vertical"
       position="157.50325,8.4373016e-06"
       id="guide1332" />
  </sodipodi:namedview>
  <defs
     id="defs1446">
    <linearGradient
       id="linearGradient3292">
      <stop
         style="stop-color:#a0a0a0;stop-opacity:1;"
         offset="0"
         id="stop3294" />
      <stop
         style="stop-color:#ffffff;stop-opacity:1;"
         offset="1"
         id="stop3296" />
    </linearGradient>
    <linearGradient
       inkscape:collect="always"
       xlink:href="#linearGradient3292"
       id="linearGradient3033"
       gradientUnits="userSpaceOnUse"
       gradientTransform="matrix(0.59632966,0,0,0.59632744,0.16968359,0.54196263)"
       x1="86.782135"
       y1="157.45517"
       x2="86.782135"
       y2="24.018677" />
  </defs>
  <path
     inkscape:connector-curvature="0"
     id="path3236"
     d="M 92.350697,55.578231 C 88.174765,80.016772 65.015992,96.471929 40.564165,92.374432 16.11233,88.276957 -0.41707631,65.171109 3.6019258,40.706261 7.620927,16.241409 30.673606,-0.362048 55.151235,3.5784038 79.628852,7.5188548 96.306197,30.518163 92.444327,55.008293"
     style="opacity:0.25;fill:#000000;fill-opacity:1;fill-rule:evenodd;stroke:none" />
  <path
     id="path3869"
     d="M 88.654817,54.946686 C 84.826877,77.348602 63.598004,92.432429 41.183816,88.676414 18.769634,84.920414 3.6176761,63.740122 7.3017621,41.314096 10.985845,18.888064 32.117469,3.668285 54.555298,7.2803528 76.993112,10.89242 92.280685,31.975041 88.74064,54.424245"
     style="fill:#000000;fill-opacity:1;fill-rule:evenodd;stroke:none;opacity:0.75"
     inkscape:connector-curvature="0" />
  <g
     id="layer2"
     inkscape:label="buracos"
     style="display:inline"
     transform="matrix(0.6,0,0,0.6,-203.50398,-288.49388)" />
  <g
     id="layer3"
     inkscape:label="interior"
     style="display:inline"
     transform="matrix(0.6,0,0,0.6,-203.50398,-288.49388)" />
  <g
     id="g3290"
     inkscape:label="buracos"
     style="display:inline"
     transform="matrix(0.6,0,0,0.6,-30.592072,-418.20338)" />
  <g
     id="g3292"
     inkscape:label="interior"
     style="display:inline"
     transform="matrix(0.6,0,0,0.6,-30.592072,-418.20338)" />
  <g
     id="g3630"
     inkscape:label="buracos"
     style="display:inline"
     transform="matrix(0.6,0,0,0.6,-30.633244,-417.8004)" />
  <g
     id="g3632"
     inkscape:label="interior"
     style="display:inline"
     transform="matrix(0.6,0,0,0.6,-30.633244,-417.8004)" />
  <g
     id="g3452"
     inkscape:label="buracos"
     style="display:inline"
     transform="matrix(0.6,0,0,0.6,-28.473508,-421.02813)" />
  <g
     id="g3454"
     inkscape:label="interior"
     style="display:inline"
     transform="matrix(0.6,0,0,0.6,-28.473508,-421.02813)" />
  <g
     id="g3587"
     inkscape:label="buracos"
     style="display:inline"
     transform="matrix(0.6,0,0,0.6,80.279327,-406.90439)" />
  <g
     id="g3589"
     inkscape:label="interior"
     style="display:inline"
     transform="matrix(0.6,0,0,0.6,80.279327,-406.90439)" />
  <g
     id="g3694"
     inkscape:label="buracos"
     style="display:inline"
     transform="matrix(0.6,0,0,0.6,2.2527502,-367.63658)" />
  <g
     id="g3696"
     inkscape:label="interior"
     style="display:inline"
     transform="matrix(0.6,0,0,0.6,2.2527502,-367.63658)" />
  <g
     style="display:inline"
     inkscape:label="solto"
     id="g6613"
     transform="matrix(2.8422714,0,0,2.8422714,-693.29964,-1422.0739)" />
  <path
     inkscape:connector-curvature="0"
     style="fill:url(#linearGradient3033);fill-opacity:1;fill-rule:evenodd;stroke:none"
     d="m 86.437277,54.567772 c -3.61914,21.18 -23.690072,35.44107 -44.881667,31.889932 C 20.36402,82.906574 6.0385332,62.881566 9.5216685,41.678779 13.004802,20.475985 32.983791,6.0863771 54.197737,9.5014228 75.41167,12.916468 89.86537,32.849128 86.51842,54.073828"
     id="path3389" />
  <path
     style="fill:#4d4d4d"
     d="M 65.9375,20.5 C 53.663675,20.5 51.376398,37.96875 58.28125,37.96875 65.185001,37.96875 78.211875,20.5 65.9375,20.5 z m -18.96875,2.15625 c -0.194893,-6.64e-4 -0.409079,0.0032 -0.625,0.03125 -6.907054,0.89648 -4.459048,12.900398 -0.78125,13.125 3.561427,0.217481 7.44794,-13.135659 1.40625,-13.15625 z m -12.1875,4.75 c -0.302893,0.03216 -0.621839,0.106837 -0.96875,0.25 -5.551737,2.290883 -0.860073,11.760271 2.25,11.125 2.918017,-0.594947 3.262146,-11.857374 -1.28125,-11.375 z m -8.625,7.40625 c -0.482684,-0.01624 -1.00674,0.147487 -1.5625,0.53125 -4.444087,3.070658 1.510316,10.494283 4.125,9.34375 2.287848,-1.007054 0.816289,-9.761293 -2.5625,-9.875 z m 25.375,5.65625 C 42.003788,40.307596 29.455988,45.089285 27.3125,54.6875 24.991175,65.075331 36.857269,79.5 49.25,79.5 c 6.096176,0 13.121818,-5.495417 14.4375,-12.46875 1.004762,-5.317611 -11.804514,-3.206129 -11.34375,0.3125 0.552256,4.217558 -3.116222,6.312642 -6.6875,3.59375 C 34.287989,62.282075 64.490038,57.950172 62.5,46.125 61.88057,42.444257 57.247727,40.565442 51.53125,40.46875 z"
     id="path9"
     inkscape:connector-curvature="0" />
  <path
     style="opacity:0.5;fill:#000000"
     d="m 65.9375,19 c -8.768114,0 -12.447669,8.907389 -11.3125,14 0.857495,-4.743317 4.584658,-10 11.3125,-10 2.554861,0 4.010347,0.770154 4.65625,1.96875 C 71.669298,21.700943 70.753054,19 65.9375,19 z m -18.96875,2.15625 c -0.194893,-6.64e-4 -0.409079,0.0032 -0.625,0.03125 -3.968062,0.515022 -4.822725,4.680115 -4.15625,8.1875 0.451066,-2.109642 1.69072,-3.867494 4.15625,-4.1875 0.215921,-0.02802 0.430107,-0.03191 0.625,-0.03125 1.66421,0.0057 2.565602,1.033391 2.9375,2.5 0.612475,-3.260285 0.0346,-6.489871 -2.9375,-6.5 z m -12.1875,4.75 c -0.302893,0.03216 -0.621839,0.106837 -0.96875,0.25 -2.629683,1.085119 -2.960094,3.780452 -2.25,6.25 0.370601,-0.959432 1.079297,-1.766918 2.25,-2.25 0.346911,-0.143163 0.665857,-0.217842 0.96875,-0.25 1.881652,-0.199776 2.911874,1.606635 3.28125,3.84375 0.563405,-3.46239 -0.308985,-8.159316 -3.28125,-7.84375 z m -8.625,7.40625 c -0.482684,-0.01624 -1.00674,0.147487 -1.5625,0.53125 -1.850505,1.278613 -1.888545,3.301453 -1.125,5.15625 0.25547,-0.425645 0.636409,-0.818657 1.125,-1.15625 0.55576,-0.383763 1.079816,-0.547494 1.5625,-0.53125 1.719935,0.05788 2.950277,2.344569 3.4375,4.71875 0.853684,-2.650197 -0.647508,-8.624858 -3.4375,-8.71875 z m 25.375,5.65625 C 42.003788,38.807596 29.455988,43.589285 27.3125,53.1875 c -0.336448,1.505589 -0.343028,3.099767 -0.125,4.71875 0.03792,-0.236592 0.07299,-0.486004 0.125,-0.71875 2.143488,-9.598215 14.691288,-14.379904 24.21875,-14.21875 5.254477,0.08888 9.601931,1.696833 10.75,4.8125 0.32554,-0.994616 0.407022,-2.037502 0.21875,-3.15625 -0.312919,-1.85941 -1.641348,-3.276488 -3.625,-4.21875 -0.204476,0.02719 -0.39837,0.0625 -0.59375,0.0625 -1.01249,0 -1.822807,-0.390188 -2.4375,-1.03125 -1.325098,-0.284938 -2.772985,-0.44271 -4.3125,-0.46875 z m 7.8125,23.34375 c -3.317883,0.01699 -7.25918,1.552021 -7,3.53125 0.552256,4.217558 -3.116222,6.312642 -6.6875,3.59375 -0.856491,-0.652104 -1.458887,-1.266925 -1.875,-1.875 -1.201686,1.808053 -0.967065,3.711144 1.875,5.875 3.571278,2.718892 7.239756,0.623808 6.6875,-3.59375 -0.38397,-2.932191 8.439515,-4.882102 10.8125,-2.375 0.222832,-0.633241 0.406073,-1.274043 0.53125,-1.9375 0.439583,-2.326455 -1.763174,-3.231966 -4.34375,-3.21875 z"
     id="path3140"
     inkscape:connector-curvature="0" />
  <path
     style="opacity:1;fill:#ffffff"
     d="M 70.90625 25.34375 C 69.940009 30.513966 62.794916 37.96875 58.28125 37.96875 C 56.030034 37.96875 54.769472 36.096719 54.5 33.59375 C 54.306035 35.802721 54.744756 37.791359 55.84375 38.9375 C 56.953358 39.176101 57.989471 39.485612 58.875 39.90625 C 64.046995 39.218502 71.896697 30.101715 70.90625 25.34375 z M 50.0625 28.09375 C 49.678344 31.770889 47.565803 35.934833 45.5625 35.8125 C 43.816766 35.705889 42.353838 32.935675 42.03125 29.96875 C 41.72596 33.567348 43.419239 37.681612 45.5625 37.8125 C 47.944477 37.957957 50.458567 32.03895 50.0625 28.09375 z M 31.3125 32.78125 C 30.696268 36.359589 33.800188 41.243355 36.0625 40.78125 C 37.591417 40.469523 38.375577 37.227651 38.15625 34.28125 C 37.973051 36.534363 37.244955 38.540162 36.0625 38.78125 C 34.203572 39.160959 31.776415 35.930896 31.3125 32.78125 z M 23.125 39.34375 C 22.186895 42.802927 26.574525 47.631018 28.71875 46.6875 C 29.670558 46.268538 29.965163 44.485425 29.75 42.5625 C 29.637136 43.611942 29.324811 44.420727 28.71875 44.6875 C 26.96986 45.45706 23.751087 42.377777 23.125 39.34375 z M 62.5 48.25 C 61.2179 56.28015 45.099752 60.669251 43.28125 66.09375 C 43.391701 66.415067 43.55405 66.730487 43.78125 67.0625 C 47.369204 61.664075 63.815218 57.037017 62.5 48.25 z M 27.0625 58.375 C 26.250278 68.567754 37.513532 81.5 49.25 81.5 C 55.346176 81.5 62.371818 76.004583 63.6875 69.03125 C 63.793366 68.470966 63.733977 67.994632 63.5625 67.59375 C 61.984278 74.295287 55.179738 79.5 49.25 79.5 C 38.269479 79.5 27.713502 68.181864 27.0625 58.375 z "
     id="path3145" />
</svg>
