<?xml version="1.0" encoding="UTF-8" standalone="no"?>
<!-- Created with Inkscape (http://www.inkscape.org/) -->

<svg
   xmlns:dc="http://purl.org/dc/elements/1.1/"
   xmlns:cc="http://creativecommons.org/ns#"
   xmlns:rdf="http://www.w3.org/1999/02/22-rdf-syntax-ns#"
   xmlns:svg="http://www.w3.org/2000/svg"
   xmlns="http://www.w3.org/2000/svg"
   xmlns:xlink="http://www.w3.org/1999/xlink"
   xmlns:sodipodi="http://sodipodi.sourceforge.net/DTD/sodipodi-0.dtd"
   xmlns:inkscape="http://www.inkscape.org/namespaces/inkscape"
   inkscape:output_extension="org.inkscape.output.svg.inkscape"
   inkscape:export-ydpi="90"
   inkscape:export-xdpi="90"
   inkscape:export-filename="zoncolor.png"
   sodipodi:docname="zoncolor-circle.svg"
   inkscape:version="0.48.3.1 r9886"
   sodipodi:version="0.32"
   id="svg1443"
   height="96"
   width="96"
   y="0.00000000"
   x="0.00000000"
   version="1.0">
  <sodipodi:namedview
     inkscape:window-height="759"
     inkscape:window-width="1027"
     inkscape:pageshadow="2"
     inkscape:pageopacity="0.0"
     borderopacity="1.0"
     bordercolor="#666666"
     pagecolor="#ffffff"
     id="base"
     inkscape:zoom="4"
     inkscape:cx="48"
     inkscape:cy="48"
     inkscape:window-x="24"
     inkscape:window-y="58"
     inkscape:current-layer="g3149"
     showguides="false"
     inkscape:guide-bbox="true"
     showgrid="false"
     inkscape:window-maximized="0"
     fit-margin-top="0"
     fit-margin-left="0"
     fit-margin-right="0"
     fit-margin-bottom="0"
     inkscape:object-nodes="true"
     inkscape:snap-object-midpoints="true"
     inkscape:snap-center="true"
     inkscape:snap-global="true"
     inkscape:snap-midpoints="true">
    <sodipodi:guide
       orientation="horizontal"
       position="0,121.92459"
       id="guide1331" />
    <sodipodi:guide
       orientation="horizontal"
       position="0,38.075431"
       id="guide1333" />
    <sodipodi:guide
       orientation="vertical"
       position="13.524057,8.4373016e-06"
       id="guide1335" />
    <sodipodi:guide
       orientation="vertical"
       position="146.26788,8.4373016e-06"
       id="guide1337" />
    <sodipodi:guide
       orientation="horizontal"
       position="0,145.01952"
       id="guide6086" />
    <sodipodi:guide
       orientation="horizontal"
       position="173.73212,15.396627"
       id="guide6088" />
    <sodipodi:guide
       orientation="vertical"
       position="2.0806242,8.4373016e-06"
       id="guide1329" />
    <sodipodi:guide
       orientation="vertical"
       position="157.50325,8.4373016e-06"
       id="guide1332" />
  </sodipodi:namedview>
  <metadata
     id="metadata84">
    <rdf:RDF>
      <cc:Work
         rdf:about="">
        <dc:format>image/svg+xml</dc:format>
        <dc:type
           rdf:resource="http://purl.org/dc/dcmitype/StillImage" />
        <dc:title></dc:title>
        <dc:creator>
          <cc:Agent>
            <dc:title>by andrefelipe</dc:title>
          </cc:Agent>
        </dc:creator>
      </cc:Work>
    </rdf:RDF>
  </metadata>
  <defs
     id="defs1446">
    <linearGradient
       id="linearGradient3828-4-4-9">
      <stop
         style="stop-color:#ffc1c1;stop-opacity:1;"
         offset="0"
         id="stop3830-1-1-1" />
      <stop
         id="stop3832-0-6-9"
         offset="0.75"
         style="stop-color:#ff8181;stop-opacity:1;" />
      <stop
         style="stop-color:#ff2121;stop-opacity:1;"
         offset="1"
         id="stop3834-8-1-0" />
    </linearGradient>
    <linearGradient
       id="linearGradient3165-7">
      <stop
         id="stop3167-9"
         offset="0"
         style="stop-color:#000000;stop-opacity:0;" />
      <stop
         style="stop-color:#000000;stop-opacity:0;"
         offset="0.60000002"
         id="stop3169-0" />
      <stop
         id="stop3171-5"
         offset="1"
         style="stop-color:#000000;stop-opacity:1;" />
    </linearGradient>
    <linearGradient
       id="linearGradient3844-9-9">
      <stop
         style="stop-color:#ffffff;stop-opacity:0;"
         offset="0"
         id="stop3846-2-5" />
      <stop
         style="stop-color:#ffffff;stop-opacity:1;"
         offset="1"
         id="stop3848-7-0" />
    </linearGradient>
    <linearGradient
       id="linearGradient4017-9">
      <stop
         id="stop4019-2"
         offset="0"
         style="stop-color:#fff3c1;stop-opacity:1;" />
      <stop
         style="stop-color:#ffd841;stop-opacity:1;"
         offset="0.75"
         id="stop4021-8" />
      <stop
         id="stop4023-8"
         offset="1"
         style="stop-color:#e0b300;stop-opacity:1;" />
    </linearGradient>
    <linearGradient
       id="linearGradient3975-9">
      <stop
         id="stop3977-2"
         offset="0"
         style="stop-color:#e0ffc1;stop-opacity:1;" />
      <stop
         style="stop-color:#b7ff71;stop-opacity:1;"
         offset="0.75"
         id="stop3979-2" />
      <stop
         id="stop3981-3"
         offset="1"
         style="stop-color:#6fe000;stop-opacity:1;" />
    </linearGradient>
    <linearGradient
       id="linearGradient3836-4">
      <stop
         id="stop3838-6"
         offset="0"
         style="stop-color:#e1c1ff;stop-opacity:1;" />
      <stop
         style="stop-color:#c281ff;stop-opacity:1;"
         offset="0.75"
         id="stop3840-1" />
      <stop
         id="stop3842-3"
         offset="1"
         style="stop-color:#9421ff;stop-opacity:1;" />
    </linearGradient>
    <linearGradient
       id="linearGradient3995-0">
      <stop
         style="stop-color:#c1edff;stop-opacity:1;"
         offset="0"
         id="stop3997-9" />
      <stop
         id="stop4027"
         offset="0.75"
         style="stop-color:#71d5ff;stop-opacity:1;" />
      <stop
         style="stop-color:#01b5ff;stop-opacity:1;"
         offset="1"
         id="stop4029" />
    </linearGradient>
    <linearGradient
       id="linearGradient3292-5-9-4">
      <stop
         style="stop-color:#ffffff;stop-opacity:1;"
         offset="0"
         id="stop3294-3-8-6" />
      <stop
         style="stop-color:#a0a0a0;stop-opacity:1;"
         offset="1"
         id="stop3296-0-5-3" />
    </linearGradient>
    <linearGradient
       y2="116.48959"
       x2="55.710159"
       y1="31.224613"
       x1="55.710159"
       gradientTransform="matrix(0.59632966,0,0,0.59632744,0.16968359,0.54196263)"
       gradientUnits="userSpaceOnUse"
       id="linearGradient3122"
       xlink:href="#linearGradient3292-5-9-4"
       inkscape:collect="always" />
    <radialGradient
       inkscape:collect="always"
       xlink:href="#linearGradient3995-0"
       id="radialGradient3369"
       gradientUnits="userSpaceOnUse"
       gradientTransform="matrix(0.29788967,0,0,0.29729501,-134.54196,36.582002)"
       cx="371.50317"
       cy="-1.7960877"
       fx="370.9519"
       fy="12.467011"
       r="38.290279" />
    <radialGradient
       inkscape:collect="always"
       xlink:href="#linearGradient3836-4"
       id="radialGradient3371"
       gradientUnits="userSpaceOnUse"
       gradientTransform="matrix(0.29788967,0,0,0.29729501,-134.54196,36.582002)"
       cx="371.50317"
       cy="-1.7960877"
       fx="370.9519"
       fy="12.467011"
       r="38.290279" />
    <radialGradient
       inkscape:collect="always"
       xlink:href="#linearGradient3975-9"
       id="radialGradient3373"
       gradientUnits="userSpaceOnUse"
       gradientTransform="matrix(0.29788967,0,0,0.29729501,-134.54196,36.582002)"
       cx="371.50317"
       cy="-1.7960877"
       fx="370.9519"
       fy="12.467011"
       r="38.290279" />
    <radialGradient
       inkscape:collect="always"
       xlink:href="#linearGradient4017-9"
       id="radialGradient3375"
       gradientUnits="userSpaceOnUse"
       gradientTransform="matrix(0.29788967,0,0,0.29729501,-134.54196,36.582002)"
       cx="371.50317"
       cy="-1.7960877"
       fx="370.9519"
       fy="12.467011"
       r="38.290279" />
    <radialGradient
       inkscape:collect="always"
       xlink:href="#linearGradient3828-4-4-9"
       id="radialGradient3377"
       gradientUnits="userSpaceOnUse"
       gradientTransform="matrix(0.29788967,0,0,0.29729501,-134.54196,36.582002)"
       cx="371.50317"
       cy="-1.7960877"
       fx="370.9519"
       fy="12.467011"
       r="38.290279" />
    <radialGradient
       inkscape:collect="always"
       xlink:href="#linearGradient3844-9-9"
       id="radialGradient3381"
       gradientUnits="userSpaceOnUse"
       gradientTransform="matrix(1.4864865,-8.4172741e-7,1.0406811e-6,1.8378378,-221.5964,32.464567)"
       cx="455.50381"
       cy="-40.349792"
       fx="455.50381"
       fy="-32.883251"
       r="14.103466" />
    <radialGradient
       inkscape:collect="always"
       xlink:href="#linearGradient3844-9-9"
       id="radialGradient3385"
       gradientUnits="userSpaceOnUse"
       gradientTransform="matrix(1.4864865,-8.4172741e-7,1.0406811e-6,1.8378378,-221.5964,32.464567)"
       cx="455.50381"
       cy="-40.349792"
       fx="455.50381"
       fy="-32.883251"
       r="14.103466" />
    <radialGradient
       inkscape:collect="always"
       xlink:href="#linearGradient3844-9-9"
       id="radialGradient3389"
       gradientUnits="userSpaceOnUse"
       gradientTransform="matrix(1.4864865,-8.4172741e-7,1.0406811e-6,1.8378378,-221.5964,32.464567)"
       cx="455.50381"
       cy="-40.349792"
       fx="455.50381"
       fy="-32.883251"
       r="14.103466" />
    <radialGradient
       inkscape:collect="always"
       xlink:href="#linearGradient3844-9-9"
       id="radialGradient3393"
       gradientUnits="userSpaceOnUse"
       gradientTransform="matrix(1.4864865,-8.4172741e-7,1.0406811e-6,1.8378378,-221.5964,32.464567)"
       cx="455.50381"
       cy="-40.349792"
       fx="455.50381"
       fy="-32.883251"
       r="14.103466" />
    <radialGradient
       inkscape:collect="always"
       xlink:href="#linearGradient3844-9-9"
       id="radialGradient3397"
       gradientUnits="userSpaceOnUse"
       gradientTransform="matrix(1.4864865,-8.4172741e-7,1.0406811e-6,1.8378378,-221.5964,32.464567)"
       cx="455.50381"
       cy="-40.349792"
       fx="455.50381"
       fy="-32.883251"
       r="14.103466" />
    <radialGradient
       inkscape:collect="always"
       xlink:href="#linearGradient3165-7"
       id="radialGradient3406"
       gradientUnits="userSpaceOnUse"
       gradientTransform="matrix(-0.35294118,0,0,0.35294118,63.198529,46.194853)"
       cx="-23.875"
       cy="33.625"
       fx="-23.875"
       fy="33.625"
       r="14.875" />
    <radialGradient
       inkscape:collect="always"
       xlink:href="#linearGradient3165-7"
       id="radialGradient3410"
       gradientUnits="userSpaceOnUse"
       gradientTransform="matrix(-0.47058824,0,0,0.47058824,49.014706,53.613971)"
       cx="-23.875"
       cy="33.625"
       fx="-23.875"
       fy="33.625"
       r="14.875" />
    <radialGradient
       inkscape:collect="always"
       xlink:href="#linearGradient3165-7"
       id="radialGradient3414"
       gradientUnits="userSpaceOnUse"
       gradientTransform="matrix(-0.5882353,0,0,0.5882353,26.955883,49.658089)"
       cx="-23.875"
       cy="33.625"
       fx="-23.875"
       fy="33.625"
       r="14.875" />
    <radialGradient
       inkscape:collect="always"
       xlink:href="#linearGradient3165-7"
       id="radialGradient3418"
       gradientUnits="userSpaceOnUse"
       gradientTransform="matrix(-0.70588235,0,0,0.70588235,13.647059,25.577206)"
       cx="-23.875"
       cy="33.625"
       fx="-23.875"
       fy="33.625"
       r="14.875" />
    <radialGradient
       inkscape:collect="always"
       xlink:href="#linearGradient3165-7"
       id="radialGradient3422"
       gradientUnits="userSpaceOnUse"
       gradientTransform="matrix(-0.82352941,0,0,0.82352941,29.213235,2.3713228)"
       cx="-23.875"
       cy="33.625"
       fx="-23.875"
       fy="33.625"
       r="14.875" />
  </defs>
  <g
     inkscape:groupmode="layer"
     id="layer1"
     inkscape:label="circle-bg-dark"
     style="display:inline"
     sodipodi:insensitive="true">
    <path
       sodipodi:type="arc"
       style="opacity:0.15;color:#000000;fill:#000000;fill-opacity:1;fill-rule:evenodd;stroke:none;stroke-width:1;marker:none;visibility:visible;display:inline;overflow:visible;enable-background:accumulate"
       id="path3226"
       sodipodi:cx="33.391304"
       sodipodi:cy="44.58498"
       sodipodi:rx="25.422924"
       sodipodi:ry="25.422924"
       d="m 58.814228,44.58498 a 25.422924,25.422924 0 1 1 -50.845848,0 25.422924,25.422924 0 1 1 50.845848,0 z"
       transform="matrix(1.770056,0,0,1.770056,-11.104478,-30.917911)" />
    <path
       transform="matrix(1.6913869,0,0,1.6913869,-8.4776142,-27.410451)"
       d="m 58.814228,44.58498 a 25.422924,25.422924 0 1 1 -50.845848,0 25.422924,25.422924 0 1 1 50.845848,0 z"
       sodipodi:ry="25.422924"
       sodipodi:rx="25.422924"
       sodipodi:cy="44.58498"
       sodipodi:cx="33.391304"
       id="path3073"
       style="opacity:0.25;color:#000000;fill:#000000;fill-opacity:1;fill-rule:evenodd;stroke:none;stroke-width:1;marker:none;visibility:visible;display:inline;overflow:visible;enable-background:accumulate"
       sodipodi:type="arc" />
    <path
       transform="matrix(1.6127177,0,0,1.6127177,-5.850747,-23.902986)"
       d="m 58.814228,44.58498 a 25.422924,25.422924 0 1 1 -50.845848,0 25.422924,25.422924 0 1 1 50.845848,0 z"
       sodipodi:ry="25.422924"
       sodipodi:rx="25.422924"
       sodipodi:cy="44.58498"
       sodipodi:cx="33.391304"
       id="path3224"
       style="opacity:0.75;color:#000000;fill:#000000;fill-opacity:1;fill-rule:evenodd;stroke:none;stroke-width:1;marker:none;visibility:visible;display:inline;overflow:visible;enable-background:accumulate"
       sodipodi:type="arc" />
  </g>
  <g
     inkscape:groupmode="layer"
     id="layer6"
     inkscape:label="circle-fg-mono-light"
     style="display:inline"
     sodipodi:insensitive="true">
    <path
       sodipodi:type="arc"
       style="color:#000000;fill:url(#linearGradient3122);fill-opacity:1;fill-rule:evenodd;stroke:none;stroke-width:1;marker:none;visibility:visible;display:inline;overflow:visible;enable-background:accumulate"
       id="path3189"
       sodipodi:cx="33.391304"
       sodipodi:cy="44.58498"
       sodipodi:rx="25.422924"
       sodipodi:ry="25.422924"
       d="m 58.814228,44.58498 a 25.422924,25.422924 0 1 1 -50.845848,0 25.422924,25.422924 0 1 1 50.845848,0 z"
       transform="matrix(1.5340486,0,0,1.5340486,-3.2238832,-20.395526)" />
  </g>
  <g
     style="display:inline"
     inkscape:label="bubble-shrinked"
     id="g3149"
     inkscape:groupmode="layer"
     sodipodi:insensitive="true">
    <path
       transform="matrix(-0.82352941,0,0,0.82352941,29.213235,2.3713228)"
       d="m -9,33.625 a 14.875,14.875 0 1 1 -29.75,0 14.875,14.875 0 1 1 29.75,0 z"
       sodipodi:ry="14.875"
       sodipodi:rx="14.875"
       sodipodi:cy="33.625"
       sodipodi:cx="-23.875"
       id="path3151"
       style="color:#000000;fill:url(#radialGradient3369);fill-opacity:1;fill-rule:nonzero;stroke:none;stroke-width:1;marker:none;visibility:visible;display:inline;overflow:visible;enable-background:accumulate"
       sodipodi:type="arc" />
    <path
       sodipodi:type="arc"
       style="color:#000000;fill:url(#radialGradient3371);fill-opacity:1;fill-rule:nonzero;stroke:none;stroke-width:1;marker:none;visibility:visible;display:inline;overflow:visible;enable-background:accumulate"
       id="path3153"
       sodipodi:cx="-23.875"
       sodipodi:cy="33.625"
       sodipodi:rx="14.875"
       sodipodi:ry="14.875"
       d="m -9,33.625 a 14.875,14.875 0 1 1 -29.75,0 14.875,14.875 0 1 1 29.75,0 z"
       transform="matrix(0.35294117,0,0,0.35294117,80.05147,46.194853)" />
    <path
       sodipodi:type="arc"
       style="color:#000000;fill:url(#radialGradient3373);fill-opacity:1;fill-rule:nonzero;stroke:none;stroke-width:1;marker:none;visibility:visible;display:inline;overflow:visible;enable-background:accumulate"
       id="path3155"
       sodipodi:cx="-23.875"
       sodipodi:cy="33.625"
       sodipodi:rx="14.875"
       sodipodi:ry="14.875"
       d="m -9,33.625 a 14.875,14.875 0 1 1 -29.75,0 14.875,14.875 0 1 1 29.75,0 z"
       transform="matrix(0.70588235,0,0,0.70588235,47.352941,25.577206)" />
    <path
       sodipodi:type="arc"
       style="color:#000000;fill:url(#radialGradient3375);fill-opacity:1;fill-rule:nonzero;stroke:none;stroke-width:1;marker:none;visibility:visible;display:inline;overflow:visible;enable-background:accumulate"
       id="path3157"
       sodipodi:cx="-23.875"
       sodipodi:cy="33.625"
       sodipodi:rx="14.875"
       sodipodi:ry="14.875"
       d="m -9,33.625 a 14.875,14.875 0 1 1 -29.75,0 14.875,14.875 0 1 1 29.75,0 z"
       transform="matrix(-0.5882353,0,0,0.5882353,26.955883,49.658088)" />
    <path
       transform="matrix(0.47058823,0,0,0.47058823,71.485294,53.613971)"
       d="m -9,33.625 a 14.875,14.875 0 1 1 -29.75,0 14.875,14.875 0 1 1 29.75,0 z"
       sodipodi:ry="14.875"
       sodipodi:rx="14.875"
       sodipodi:cy="33.625"
       sodipodi:cx="-23.875"
       id="path3159"
       style="color:#000000;fill:url(#radialGradient3377);fill-opacity:1;fill-rule:nonzero;stroke:none;stroke-width:1;marker:none;visibility:visible;display:inline;overflow:visible;enable-background:accumulate"
       sodipodi:type="arc" />
    <path
       inkscape:connector-curvature="0"
       id="path3161"
       d="m 48.875,17.8125 c -6.765488,0 -12.25,5.484512 -12.25,12.25 0,6.40687 4.916512,11.655882 11.183594,12.195312 C 42.513905,41.720107 38.375,37.249053 38.375,31.8125 c 0,-5.79899 4.70101,-10.5 10.5,-10.5 5.79899,0 10.5,4.70101 10.5,10.5 0,5.436553 -4.138905,9.907607 -9.433594,10.445312 C 56.208488,41.718382 61.125,36.46937 61.125,30.0625 c 0,-6.765488 -5.484512,-12.25 -12.25,-12.25 z"
       style="opacity:0.75;color:#000000;fill:url(#radialGradient3422);fill-opacity:1;fill-rule:nonzero;stroke:none;stroke-width:1;marker:none;visibility:visible;display:inline;overflow:visible;enable-background:accumulate" />
    <path
       sodipodi:type="arc"
       style="opacity:0.75;fill:url(#radialGradient3381);fill-opacity:1;stroke:none"
       id="path3163"
       sodipodi:cx="455.50381"
       sodipodi:cy="-34.831043"
       sodipodi:rx="14.103466"
       sodipodi:ry="17.534039"
       d="m 469.60728,-34.831043 a 14.103466,17.534039 0 1 1 -28.20693,0 14.103466,17.534039 0 1 1 28.20693,0 z"
       transform="matrix(-0.3257178,0,0,0.2619904,197.2407,33.062899)" />
    <path
       inkscape:connector-curvature="0"
       style="opacity:0.75;color:#000000;fill:url(#radialGradient3418);fill-opacity:1;fill-rule:nonzero;stroke:none;stroke-width:1;marker:none;visibility:visible;display:inline;overflow:visible;enable-background:accumulate"
       d="m 30.5,38.8125 c -5.79899,0 -10.5,4.701011 -10.5,10.5 0,5.491603 4.214153,9.990756 9.585937,10.453125 C 25.047633,59.304736 21.5,55.472403 21.5,50.8125 c 0,-4.970562 4.029437,-9 9,-9 4.970563,0 9,4.029438 9,9 0,4.659903 -3.547633,8.492236 -8.085937,8.953125 C 36.785847,59.303256 41,54.804103 41,49.3125 c 0,-5.798989 -4.70101,-10.5 -10.5,-10.5 z"
       id="path3165" />
    <path
       transform="matrix(0.27918668,0,0,0.2245632,-96.670601,51.884272)"
       d="m 469.60728,-34.831043 a 14.103466,17.534039 0 1 1 -28.20693,0 14.103466,17.534039 0 1 1 28.20693,0 z"
       sodipodi:ry="17.534039"
       sodipodi:rx="14.103466"
       sodipodi:cy="-34.831043"
       sodipodi:cx="455.50381"
       id="path3167"
       style="opacity:0.75;fill:url(#radialGradient3385);fill-opacity:1;stroke:none"
       sodipodi:type="arc" />
    <path
       id="path3169"
       d="m 41,60.6875 c -4.832492,0 -8.75,3.91751 -8.75,8.75 0,4.576337 3.511794,8.32563 7.988281,8.710938 C 36.45636,77.764363 33.5,74.570753 33.5,70.6875 c 0,-4.142135 3.357865,-7.499999 7.5,-7.499999 4.142135,0 7.5,3.357864 7.5,7.499999 0,3.883253 -2.95636,7.076863 -6.738281,7.460938 C 46.238206,77.76313 49.75,74.013837 49.75,69.4375 c 0,-4.83249 -3.917509,-8.75 -8.75,-8.75 z"
       style="opacity:0.75;color:#000000;fill:url(#radialGradient3414);fill-opacity:1;fill-rule:nonzero;stroke:none;stroke-width:1;marker:none;visibility:visible;display:inline;overflow:visible;enable-background:accumulate"
       inkscape:connector-curvature="0" />
    <path
       transform="matrix(-0.23265556,0,0,0.187136,146.9755,71.580642)"
       d="m 469.60728,-34.831043 a 14.103466,17.534039 0 1 1 -28.20693,0 14.103466,17.534039 0 1 1 28.20693,0 z"
       sodipodi:ry="17.534039"
       sodipodi:rx="14.103466"
       sodipodi:cy="-34.831043"
       sodipodi:cx="455.50381"
       id="path3171"
       style="opacity:0.75;fill:url(#radialGradient3389);fill-opacity:1;stroke:none"
       sodipodi:type="arc" />
    <path
       inkscape:connector-curvature="0"
       style="opacity:0.75;color:#000000;fill:url(#radialGradient3410);fill-opacity:1;fill-rule:nonzero;stroke:none;stroke-width:1;marker:none;visibility:visible;display:inline;overflow:visible;enable-background:accumulate"
       d="m 60.25,62.4375 c -3.865993,0 -7,3.134008 -7,7 0,3.661069 2.809435,6.660504 6.390625,6.96875 -3.025537,-0.307259 -5.390624,-2.862148 -5.390624,-5.968749 0,-3.313708 2.686291,-5.999999 5.999999,-5.999999 3.313708,0 5.999999,2.686291 5.999999,5.999999 0,3.106602 -2.365087,5.66149 -5.390624,5.968749 C 64.440565,76.098004 67.25,73.098569 67.25,69.4375 c 0,-3.865992 -3.134007,-7 -7,-7 z"
       id="path3174" />
    <path
       sodipodi:type="arc"
       style="opacity:0.75;fill:url(#radialGradient3393);fill-opacity:1;stroke:none"
       id="path3176"
       sodipodi:cx="455.50381"
       sodipodi:cy="-34.831043"
       sodipodi:rx="14.103466"
       sodipodi:ry="17.534039"
       d="m 469.60728,-34.831043 a 14.103466,17.534039 0 1 1 -28.20693,0 14.103466,17.534039 0 1 1 28.20693,0 z"
       transform="matrix(0.18612445,0,0,0.1497088,-24.530398,71.152015)" />
    <path
       id="path3178"
       d="m 71.625,52.8125 c -2.899495,0 -5.25,2.350506 -5.25,5.25 0,2.745802 2.107076,4.995377 4.792968,5.226562 C 68.898816,63.058618 67.125,61.142451 67.125,58.8125 c 0,-2.485281 2.014719,-4.499999 4.5,-4.499999 2.485281,0 4.499999,2.014718 4.499999,4.499999 0,2.329952 -1.773815,4.246118 -4.042967,4.476562 2.685892,-0.231185 4.792968,-2.48076 4.792968,-5.226562 0,-2.899494 -2.350505,-5.25 -5.25,-5.25 z"
       style="opacity:0.75;color:#000000;fill:url(#radialGradient3406);fill-opacity:1;fill-rule:nonzero;stroke:none;stroke-width:1;marker:none;visibility:visible;display:inline;overflow:visible;enable-background:accumulate"
       inkscape:connector-curvature="0" />
    <path
       transform="matrix(0.13959333,0,0,0.1122816,8.0397,59.348387)"
       d="m 469.60728,-34.831043 a 14.103466,17.534039 0 1 1 -28.20693,0 14.103466,17.534039 0 1 1 28.20693,0 z"
       sodipodi:ry="17.534039"
       sodipodi:rx="14.103466"
       sodipodi:cy="-34.831043"
       sodipodi:cx="455.50381"
       id="path3180"
       style="opacity:0.75;fill:url(#radialGradient3397);fill-opacity:1;stroke:none"
       sodipodi:type="arc" />
    <path
       sodipodi:type="arc"
       style="opacity:0.5;color:#000000;fill:none;stroke:#000000;stroke-width:2.42857146;stroke-miterlimit:4;stroke-dasharray:none;marker:none;visibility:visible;display:inline;overflow:visible;enable-background:accumulate"
       id="path3182"
       sodipodi:cx="-23.875"
       sodipodi:cy="33.625"
       sodipodi:rx="14.875"
       sodipodi:ry="14.875"
       d="m -9,33.625 a 14.875,14.875 0 1 1 -29.75,0 14.875,14.875 0 1 1 29.75,0 z"
       transform="matrix(-0.82352941,0,0,0.82352941,29.213235,2.3713228)" />
    <path
       transform="matrix(0.70588235,0,0,0.70588235,47.352941,25.577206)"
       d="m -9,33.625 a 14.875,14.875 0 1 1 -29.75,0 14.875,14.875 0 1 1 29.75,0 z"
       sodipodi:ry="14.875"
       sodipodi:rx="14.875"
       sodipodi:cy="33.625"
       sodipodi:cx="-23.875"
       id="path3184"
       style="opacity:0.5;color:#000000;fill:none;stroke:#000000;stroke-width:2.83333349;stroke-miterlimit:4;stroke-dasharray:none;marker:none;visibility:visible;display:inline;overflow:visible;enable-background:accumulate"
       sodipodi:type="arc" />
    <path
       transform="matrix(-0.5882353,0,0,0.5882353,26.955883,49.658088)"
       d="m -9,33.625 a 14.875,14.875 0 1 1 -29.75,0 14.875,14.875 0 1 1 29.75,0 z"
       sodipodi:ry="14.875"
       sodipodi:rx="14.875"
       sodipodi:cy="33.625"
       sodipodi:cx="-23.875"
       id="path3186"
       style="opacity:0.5;color:#000000;fill:none;stroke:#000000;stroke-width:3.39999986;stroke-miterlimit:4;stroke-dasharray:none;marker:none;visibility:visible;display:inline;overflow:visible;enable-background:accumulate"
       sodipodi:type="arc" />
    <path
       sodipodi:type="arc"
       style="opacity:0.5;color:#000000;fill:none;stroke:#000000;stroke-width:4.25;stroke-miterlimit:4;stroke-dasharray:none;marker:none;visibility:visible;display:inline;overflow:visible;enable-background:accumulate"
       id="path3188"
       sodipodi:cx="-23.875"
       sodipodi:cy="33.625"
       sodipodi:rx="14.875"
       sodipodi:ry="14.875"
       d="m -9,33.625 a 14.875,14.875 0 1 1 -29.75,0 14.875,14.875 0 1 1 29.75,0 z"
       transform="matrix(0.47058823,0,0,0.47058823,71.485294,53.613971)" />
    <path
       transform="matrix(0.35294117,0,0,0.35294117,80.05147,46.194853)"
       d="m -9,33.625 a 14.875,14.875 0 1 1 -29.75,0 14.875,14.875 0 1 1 29.75,0 z"
       sodipodi:ry="14.875"
       sodipodi:rx="14.875"
       sodipodi:cy="33.625"
       sodipodi:cx="-23.875"
       id="path3190"
       style="opacity:0.5;color:#000000;fill:none;stroke:#000000;stroke-width:5.66666698;stroke-miterlimit:4;stroke-dasharray:none;marker:none;visibility:visible;display:inline;overflow:visible;enable-background:accumulate"
       sodipodi:type="arc" />
  </g>
</svg>
