<?xml version="1.0" encoding="UTF-8" standalone="no"?>
<!-- Created with Inkscape (http://www.inkscape.org/) -->

<svg
   xmlns:dc="http://purl.org/dc/elements/1.1/"
   xmlns:cc="http://creativecommons.org/ns#"
   xmlns:rdf="http://www.w3.org/1999/02/22-rdf-syntax-ns#"
   xmlns:svg="http://www.w3.org/2000/svg"
   xmlns="http://www.w3.org/2000/svg"
   xmlns:xlink="http://www.w3.org/1999/xlink"
   xmlns:sodipodi="http://sodipodi.sourceforge.net/DTD/sodipodi-0.dtd"
   xmlns:inkscape="http://www.inkscape.org/namespaces/inkscape"
   version="1.0"
   x="0.00000000"
   y="0.00000000"
   width="96"
   height="96"
   id="svg1443"
   sodipodi:version="0.32"
   inkscape:version="0.48.3.1 r9886"
   sodipodi:docname="start-here-ubuntu.svg"
   inkscape:export-filename="start-here.png"
   inkscape:export-xdpi="90"
   inkscape:export-ydpi="90"
   inkscape:output_extension="org.inkscape.output.svg.inkscape">
  <metadata
     id="metadata84">
    <rdf:RDF>
      <cc:Work
         rdf:about="">
        <dc:format>image/svg+xml</dc:format>
        <dc:type
           rdf:resource="http://purl.org/dc/dcmitype/StillImage" />
        <dc:title />
        <dc:creator>
          <cc:Agent>
            <dc:title>by andrefelipe</dc:title>
          </cc:Agent>
        </dc:creator>
      </cc:Work>
    </rdf:RDF>
  </metadata>
  <sodipodi:namedview
     inkscape:window-height="730"
     inkscape:window-width="1019"
     inkscape:pageshadow="2"
     inkscape:pageopacity="0.0"
     borderopacity="1.0"
     bordercolor="#666666"
     pagecolor="#ffffff"
     id="base"
     inkscape:zoom="4"
     inkscape:cx="48"
     inkscape:cy="48"
     inkscape:window-x="23"
     inkscape:window-y="34"
     inkscape:current-layer="svg1443"
     showguides="false"
     inkscape:guide-bbox="true"
     showgrid="false"
     inkscape:window-maximized="0"
     fit-margin-top="0"
     fit-margin-left="0"
     fit-margin-right="0"
     fit-margin-bottom="0">
    <sodipodi:guide
       orientation="horizontal"
       position="0,121.92459"
       id="guide1331" />
    <sodipodi:guide
       orientation="horizontal"
       position="0,38.075431"
       id="guide1333" />
    <sodipodi:guide
       orientation="vertical"
       position="13.524057,8.4373016e-06"
       id="guide1335" />
    <sodipodi:guide
       orientation="vertical"
       position="146.26788,8.4373016e-06"
       id="guide1337" />
    <sodipodi:guide
       orientation="horizontal"
       position="0,145.01952"
       id="guide6086" />
    <sodipodi:guide
       orientation="horizontal"
       position="173.73212,15.396627"
       id="guide6088" />
    <sodipodi:guide
       orientation="vertical"
       position="2.0806242,8.4373016e-06"
       id="guide1329" />
    <sodipodi:guide
       orientation="vertical"
       position="157.50325,8.4373016e-06"
       id="guide1332" />
  </sodipodi:namedview>
  <defs
     id="defs1446">
    <linearGradient
       id="linearGradient3292">
      <stop
         style="stop-color:#a0a0a0;stop-opacity:1;"
         offset="0"
         id="stop3294" />
      <stop
         style="stop-color:#ffffff;stop-opacity:1;"
         offset="1"
         id="stop3296" />
    </linearGradient>
    <linearGradient
       inkscape:collect="always"
       xlink:href="#linearGradient3292"
       id="linearGradient3013"
       gradientUnits="userSpaceOnUse"
       gradientTransform="matrix(0.59632966,0,0,0.59632744,0.16968136,0.54179217)"
       x1="86.782135"
       y1="157.45517"
       x2="86.782135"
       y2="24.018677" />
  </defs>
  <path
     inkscape:connector-curvature="0"
     id="path3236"
     d="M 92.350695,55.57806 C 88.174762,80.016601 65.01599,96.471759 40.564162,92.374261 16.112328,88.276786 -0.41707853,65.170938 3.6019236,40.706091 7.6209247,16.241238 30.673604,-0.36221846 55.151233,3.5782333 79.62885,7.5186843 96.306195,30.517992 92.444325,55.008123"
     style="opacity:0.25;fill:#000000;fill-opacity:1;fill-rule:evenodd;stroke:none" />
  <path
     id="path3869"
     d="M 88.654815,54.946515 C 84.826875,77.348431 63.598002,92.432259 41.183814,88.676244 18.769632,84.920244 3.6176739,63.739951 7.3017599,41.313926 10.985843,18.887893 32.117467,3.6681145 54.555295,7.2801824 76.99311,10.89225 92.280682,31.97487 88.740637,54.424074"
     style="fill:#000000;fill-opacity:1;fill-rule:evenodd;stroke:none;opacity:0.75"
     inkscape:connector-curvature="0" />
  <g
     id="layer2"
     inkscape:label="buracos"
     style="display:inline"
     transform="matrix(0.6,0,0,0.6,-203.50398,-288.49405)" />
  <g
     id="layer3"
     inkscape:label="interior"
     style="display:inline"
     transform="matrix(0.6,0,0,0.6,-203.50398,-288.49405)" />
  <g
     id="g3290"
     inkscape:label="buracos"
     style="display:inline"
     transform="matrix(0.6,0,0,0.6,-30.592074,-418.20355)" />
  <g
     id="g3292"
     inkscape:label="interior"
     style="display:inline"
     transform="matrix(0.6,0,0,0.6,-30.592074,-418.20355)" />
  <g
     id="g3630"
     inkscape:label="buracos"
     style="display:inline"
     transform="matrix(0.6,0,0,0.6,-30.633246,-417.80057)" />
  <g
     id="g3632"
     inkscape:label="interior"
     style="display:inline"
     transform="matrix(0.6,0,0,0.6,-30.633246,-417.80057)" />
  <g
     id="g3452"
     inkscape:label="buracos"
     style="display:inline"
     transform="matrix(0.6,0,0,0.6,-28.47351,-421.0283)" />
  <g
     id="g3454"
     inkscape:label="interior"
     style="display:inline"
     transform="matrix(0.6,0,0,0.6,-28.47351,-421.0283)" />
  <g
     id="g3587"
     inkscape:label="buracos"
     style="display:inline"
     transform="matrix(0.6,0,0,0.6,80.279325,-406.90456)" />
  <g
     id="g3589"
     inkscape:label="interior"
     style="display:inline"
     transform="matrix(0.6,0,0,0.6,80.279325,-406.90456)" />
  <g
     id="g3694"
     inkscape:label="buracos"
     style="display:inline"
     transform="matrix(0.6,0,0,0.6,2.252748,-367.63675)" />
  <g
     id="g3696"
     inkscape:label="interior"
     style="display:inline"
     transform="matrix(0.6,0,0,0.6,2.252748,-367.63675)" />
  <g
     style="display:inline"
     inkscape:label="solto"
     id="g6613"
     transform="matrix(2.8422714,0,0,2.8422714,-693.29964,-1422.0741)" />
  <path
     inkscape:connector-curvature="0"
     style="fill:url(#linearGradient3013);fill-opacity:1;fill-rule:evenodd;stroke:none"
     d="M 86.437275,54.567602 C 82.818135,75.747601 62.747203,90.008671 41.555608,86.457534 20.364018,82.906404 6.0385309,62.881395 9.5216663,41.678609 13.0048,20.475815 32.983789,6.0862066 54.197735,9.5012523 75.411667,12.916298 89.865368,32.848957 86.518417,54.073657"
     id="path3389" />
  <path
     inkscape:connector-curvature="0"
     id="path3859"
     style="fill:#4d4d4d;stroke:none"
     d="m 59.27126,28.46763 c 2.634306,1.521569 6.000844,0.620403 7.520583,-2.013924 1.52155,-2.634238 0.620304,-6.00082 -2.013907,-7.522389 -2.63421,-1.519747 -6.000755,-0.616763 -7.522305,2.017473 -1.519731,2.632509 -0.616754,5.999091 2.015629,7.51884 z M 48,64.081025 c -2.420977,0 -4.71746,-0.538587 -6.775768,-1.496723 l -3.826955,6.857663 c 3.19591,1.583728 6.795341,2.477794 10.602362,2.477794 2.214757,0 4.356612,-0.307427 6.391813,-0.870951 0.359022,-2.21296 1.672621,-4.249999 3.766515,-5.460503 2.092082,-1.206952 4.509509,-1.325992 6.603315,-0.535038 4.07231,-4.004732 6.722534,-9.451219 7.108222,-15.517837 l -7.849382,-0.115489 c -0.72169,8.218966 -7.61732,14.661448 -16.020939,14.661448 z m 0,-32.175099 c 8.403892,0 15.298343,6.443392 16.021846,14.660538 l 7.847658,-0.11549 c -0.385688,-6.066617 -3.035912,-11.512558 -7.108222,-15.517836 -2.093806,0.790953 -4.512964,0.670094 -6.603315,-0.535039 -2.093893,-1.208681 -3.407493,-3.247542 -3.766515,-5.460502 -2.035201,-0.561704 -4.177056,-0.869221 -6.391813,-0.869221 -3.807389,0 -7.40682,0.894158 -10.602362,2.476065 l 3.826955,6.857663 C 43.28254,32.444058 45.579023,31.905471 48,31.905471 z M 31.913539,47.993475 c 0,-5.442755 2.703555,-10.251183 6.839751,-13.16254 l -4.025985,-6.743903 c -4.818752,3.220878 -8.403988,8.142792 -9.893415,13.90699 1.738334,1.418456 2.851082,3.578085 2.851082,5.99909 0,2.419548 -1.112748,4.579177 -2.851082,5.997633 1.487792,5.766291 5.072932,10.688024 9.893415,13.908809 L 38.75329,61.153923 C 34.617094,58.244204 31.913539,53.435958 31.913539,47.993202 z m 27.359548,19.523117 c -2.63421,1.521477 -3.537187,4.888059 -2.015725,7.520572 1.519819,2.63433 4.886364,3.537225 7.520574,2.015745 2.634211,-1.519838 3.537188,-4.886427 2.015726,-7.520665 -1.519827,-2.632507 -4.888096,-3.535493 -7.520575,-2.015652 z M 19.951533,42.485649 c -3.043109,0 -5.508496,2.465326 -5.508496,5.508464 0,3.041681 2.465387,5.507098 5.508496,5.507098 3.041282,0 5.50658,-2.465417 5.50658,-5.507098 0,-3.043138 -2.465298,-5.508464 -5.50658,-5.508464" />
  <path
     style="opacity:0.5;fill:#000000;stroke:none"
     d="m 62.1875,16.1875 c -1.952656,-0.05023 -3.891434,0.938963 -4.9375,2.75 -0.872414,1.511213 -0.936951,3.274467 -0.34375,4.78125 0.101476,-0.262219 0.198791,-0.530149 0.34375,-0.78125 1.52155,-2.634236 4.89704,-3.519747 7.53125,-2 1.122778,0.648538 1.935299,1.630664 2.375,2.75 0.972713,-2.491191 0.01225,-5.371078 -2.375,-6.75 -0.823191,-0.474921 -1.706179,-0.727166 -2.59375,-0.75 z M 48,22.0625 c -3.807389,0 -7.398208,0.886843 -10.59375,2.46875 L 39.1875,27.75 c 2.730251,-1.084867 5.696178,-1.6875 8.8125,-1.6875 2.214757,0 4.371049,0.313296 6.40625,0.875 0.359022,2.21296 1.656107,4.260069 3.75,5.46875 2.090351,1.205133 4.499944,1.322203 6.59375,0.53125 3.151451,3.099576 5.442304,7.054885 6.5,11.5 l 0.625,0 C 71.518142,38.824366 69.191836,33.775923 65.625,29.875 63.901288,31.36581 61.367121,31.673544 59.28125,30.46875 58.048784,29.757213 57.215621,28.631329 56.8125,27.375 55.514002,26.182381 54.679036,24.618916 54.40625,22.9375 52.371049,22.375796 50.214757,22.0625 48,22.0625 z m -13.28125,4.03125 c -4.818752,3.220878 -8.385573,8.142052 -9.875,13.90625 0.358263,0.292338 0.667895,0.617649 0.96875,0.96875 1.816709,-4.458066 4.95291,-8.232567 8.90625,-10.875 L 37.125,34.125 c 0.513242,-0.471125 1.053758,-0.879168 1.625,-1.28125 l -4.03125,-6.75 z M 19.375,40.5 c -2.7783,0.281993 -4.9375,2.647058 -4.9375,5.5 0,0.710941 0.12973,1.376146 0.375,2 0.796995,-2.060366 2.782744,-3.5 5.125,-3.5 2.34085,0 4.359354,1.439634 5.15625,3.5 0.245239,-0.623854 0.375,-1.289059 0.375,-2 0,-0.570588 -0.08911,-1.138731 -0.25,-1.65625 C 25.09466,44.228215 24.975206,44.107266 24.84375,44 24.87393,43.883213 24.90561,43.772338 24.9375,43.65625 24.058607,41.782422 22.143482,40.5 19.9375,40.5 c -0.190194,0 -0.37728,-0.0188 -0.5625,0 z m 52.4375,7.03125 c 0.0159,0.15609 0.01837,0.31178 0.03125,0.46875 0.01308,-0.156914 0.02122,-0.310983 0.03125,-0.46875 l -0.0625,0 z M 27.40625,48 c -0.385425,1.436571 -1.156429,2.709587 -2.21875,3.6875 -0.06942,0.213487 -0.156095,0.423854 -0.25,0.625 0.251734,0.922271 0.519186,1.8133 0.875,2.6875 1.155617,-1.351562 1.875,-3.082177 1.875,-5 0,-0.687065 -0.113147,-1.366004 -0.28125,-2 z m 4.625,0 c -0.082,0.658055 -0.125,1.319656 -0.125,2 0,4.699158 2.037357,8.904046 5.25,11.84375 L 38.75,59.15625 C 35.130828,56.610246 32.605277,52.606331 32.03125,48 z M 63.9375,48 C 62.943428,55.932487 56.199531,62.09375 48,62.09375 c -2.420977,0 -4.722942,-0.541864 -6.78125,-1.5 l -3.8125,6.84375 c 0.57857,0.286709 1.177393,0.540959 1.78125,0.78125 l 2.03125,-3.625 c 2.058308,0.958136 4.360273,1.5 6.78125,1.5 8.403619,0 15.30956,-6.468534 16.03125,-14.6875 l 7.21875,0.125 c 0.238135,-1.004317 0.455649,-2.044629 0.5625,-3.09375 l -7.78125,0.125 C 64.014242,48.369338 63.961267,48.191141 63.9375,48 z m 1.6875,18.125 c -0.288163,0.315124 -0.570593,0.638144 -0.875,0.9375 -2.093806,-0.790954 -4.501668,-0.675702 -6.59375,0.53125 -0.51013,0.294912 -0.960018,0.647629 -1.375,1.03125 -0.369951,1.16982 -0.342076,2.460242 0.125,3.65625 0.438196,-1.127835 1.245242,-2.09747 2.375,-2.75 2.632479,-1.519841 5.980173,-0.632507 7.5,2 0.14015,0.242654 0.275452,0.496934 0.375,0.75 0.582924,-1.501445 0.493663,-3.246009 -0.375,-4.75 C 66.464838,66.983189 66.078327,66.51688 65.625,66.125 z"
     id="path3030"
     inkscape:connector-curvature="0" />
  <path
     style="fill:#ffffff;stroke:none"
     d="M 67.4375 24.6875 C 67.326622 25.290391 67.105473 25.907427 66.78125 26.46875 C 65.261511 29.103077 61.915556 29.990319 59.28125 28.46875 C 57.839373 27.636314 56.915209 26.23524 56.625 24.71875 C 56.216817 26.944268 57.209794 29.27284 59.28125 30.46875 C 61.915556 31.990319 65.261511 31.103077 66.78125 28.46875 C 67.465108 27.284796 67.66984 25.933328 67.4375 24.6875 z M 38.28125 28.125 C 37.987794 28.255863 37.693329 28.389136 37.40625 28.53125 L 41.21875 35.40625 C 43.277058 34.448204 45.579023 33.90625 48 33.90625 C 56.403892 33.90625 63.307747 40.345354 64.03125 48.5625 L 71.875 48.4375 C 71.83161 47.755006 71.755761 47.103116 71.65625 46.4375 L 64.03125 46.5625 C 63.307747 38.345354 56.403892 31.90625 48 31.90625 C 45.579023 31.90625 43.277058 32.448204 41.21875 33.40625 L 38.28125 28.125 z M 37.9375 35.46875 C 34.272331 38.417234 31.90625 42.929523 31.90625 48 C 31.90625 48.329552 31.917959 48.644131 31.9375 48.96875 C 32.249669 43.945127 34.872316 39.573147 38.75 36.84375 L 37.9375 35.46875 z M 25.3125 42.40625 C 25.136736 42.93113 24.983384 43.459606 24.84375 44 C 26.340887 45.221643 27.335882 46.985337 27.59375 49 C 27.637882 48.665868 27.6875 48.346184 27.6875 48 C 27.6875 45.802202 26.782089 43.814294 25.3125 42.40625 z M 14.53125 49 C 14.473158 49.32076 14.4375 49.662445 14.4375 50 C 14.4375 53.041681 16.894391 55.5 19.9375 55.5 C 22.978782 55.5 25.46875 53.041681 25.46875 50 C 25.46875 49.662445 25.433088 49.32076 25.375 49 C 24.899868 51.558163 22.633066 53.5 19.9375 53.5 C 17.240315 53.5 15.006419 51.558163 14.53125 49 z M 71.65625 51.53125 C 70.875267 56.792099 68.369724 61.502843 64.75 65.0625 C 62.656194 64.271546 60.248332 64.386798 58.15625 65.59375 C 56.062356 66.804254 54.765272 68.84954 54.40625 71.0625 C 52.371049 71.626024 50.214757 71.90625 48 71.90625 C 44.534992 71.90625 41.254598 71.170916 38.28125 69.84375 L 37.40625 71.4375 C 40.60216 73.021228 44.192979 73.90625 48 73.90625 C 50.214757 73.90625 52.371049 73.626024 54.40625 73.0625 C 54.765272 70.84954 56.062356 68.804254 58.15625 67.59375 C 60.248332 66.386798 62.656194 66.271546 64.75 67.0625 C 68.82231 63.057768 71.489312 57.597868 71.875 51.53125 L 71.65625 51.53125 z M 25.3125 55.59375 C 25.163249 55.736749 25.004018 55.869224 24.84375 56 C 26.331542 61.766291 29.898267 66.685465 34.71875 69.90625 L 38.75 63.15625 C 38.467557 62.957558 38.206178 62.747245 37.9375 62.53125 L 34.71875 67.90625 C 30.350187 64.987414 27.010331 60.669121 25.3125 55.59375 z M 56.625 73.28125 C 56.392263 74.526835 56.566181 75.848071 57.25 77.03125 C 58.769819 79.66558 62.14704 80.58398 64.78125 79.0625 C 66.854144 77.86652 67.846461 75.507615 67.4375 73.28125 C 67.153637 74.809333 66.233305 76.22472 64.78125 77.0625 C 62.14704 78.58398 58.769819 77.66558 57.25 75.03125 C 56.925796 74.470295 56.735742 73.883913 56.625 73.28125 z "
     id="path3035" />
</svg>
