<?xml version="1.0" encoding="UTF-8" standalone="no"?>
<!-- Created with Inkscape (http://www.inkscape.org/) -->

<svg
   xmlns:dc="http://purl.org/dc/elements/1.1/"
   xmlns:cc="http://creativecommons.org/ns#"
   xmlns:rdf="http://www.w3.org/1999/02/22-rdf-syntax-ns#"
   xmlns:svg="http://www.w3.org/2000/svg"
   xmlns="http://www.w3.org/2000/svg"
   xmlns:xlink="http://www.w3.org/1999/xlink"
   xmlns:sodipodi="http://sodipodi.sourceforge.net/DTD/sodipodi-0.dtd"
   xmlns:inkscape="http://www.inkscape.org/namespaces/inkscape"
   inkscape:output_extension="org.inkscape.output.svg.inkscape"
   inkscape:export-ydpi="90"
   inkscape:export-xdpi="90"
   inkscape:export-filename="zoncolor.png"
   sodipodi:docname="zoncolor-circle-mono.svg"
   inkscape:version="0.48.3.1 r9886"
   sodipodi:version="0.32"
   id="svg1443"
   height="96"
   width="96"
   y="0.00000000"
   x="0.00000000"
   version="1.0">
  <sodipodi:namedview
     inkscape:window-height="759"
     inkscape:window-width="1027"
     inkscape:pageshadow="2"
     inkscape:pageopacity="0.0"
     borderopacity="1.0"
     bordercolor="#666666"
     pagecolor="#ffffff"
     id="base"
     inkscape:zoom="4"
     inkscape:cx="48"
     inkscape:cy="48"
     inkscape:window-x="95"
     inkscape:window-y="56"
     inkscape:current-layer="g3430"
     showguides="false"
     inkscape:guide-bbox="true"
     showgrid="false"
     inkscape:window-maximized="0"
     fit-margin-top="0"
     fit-margin-left="0"
     fit-margin-right="0"
     fit-margin-bottom="0"
     inkscape:object-nodes="true"
     inkscape:snap-object-midpoints="true"
     inkscape:snap-center="true"
     inkscape:snap-global="true"
     inkscape:snap-midpoints="true">
    <sodipodi:guide
       orientation="horizontal"
       position="0,121.92459"
       id="guide1331" />
    <sodipodi:guide
       orientation="horizontal"
       position="0,38.075431"
       id="guide1333" />
    <sodipodi:guide
       orientation="vertical"
       position="13.524057,8.4373016e-06"
       id="guide1335" />
    <sodipodi:guide
       orientation="vertical"
       position="146.26788,8.4373016e-06"
       id="guide1337" />
    <sodipodi:guide
       orientation="horizontal"
       position="0,145.01952"
       id="guide6086" />
    <sodipodi:guide
       orientation="horizontal"
       position="173.73212,15.396627"
       id="guide6088" />
    <sodipodi:guide
       orientation="vertical"
       position="2.0806242,8.4373016e-06"
       id="guide1329" />
    <sodipodi:guide
       orientation="vertical"
       position="157.50325,8.4373016e-06"
       id="guide1332" />
  </sodipodi:namedview>
  <metadata
     id="metadata84">
    <rdf:RDF>
      <cc:Work
         rdf:about="">
        <dc:format>image/svg+xml</dc:format>
        <dc:type
           rdf:resource="http://purl.org/dc/dcmitype/StillImage" />
        <dc:title></dc:title>
        <dc:creator>
          <cc:Agent>
            <dc:title>by andrefelipe</dc:title>
          </cc:Agent>
        </dc:creator>
      </cc:Work>
    </rdf:RDF>
  </metadata>
  <defs
     id="defs1446">
    <linearGradient
       id="linearGradient3292-5-9-4">
      <stop
         style="stop-color:#ffffff;stop-opacity:1;"
         offset="0"
         id="stop3294-3-8-6" />
      <stop
         style="stop-color:#a0a0a0;stop-opacity:1;"
         offset="1"
         id="stop3296-0-5-3" />
    </linearGradient>
    <linearGradient
       y2="116.48959"
       x2="55.710159"
       y1="31.224613"
       x1="55.710159"
       gradientTransform="matrix(0.59632966,0,0,0.59632744,0.16968359,0.54196263)"
       gradientUnits="userSpaceOnUse"
       id="linearGradient3122"
       xlink:href="#linearGradient3292-5-9-4"
       inkscape:collect="always" />
  </defs>
  <g
     inkscape:groupmode="layer"
     id="layer1"
     inkscape:label="circle-bg-dark"
     style="display:inline"
     sodipodi:insensitive="true">
    <path
       sodipodi:type="arc"
       style="opacity:0.15;color:#000000;fill:#000000;fill-opacity:1;fill-rule:evenodd;stroke:none;stroke-width:1;marker:none;visibility:visible;display:inline;overflow:visible;enable-background:accumulate"
       id="path3226"
       sodipodi:cx="33.391304"
       sodipodi:cy="44.58498"
       sodipodi:rx="25.422924"
       sodipodi:ry="25.422924"
       d="m 58.814228,44.58498 a 25.422924,25.422924 0 1 1 -50.845848,0 25.422924,25.422924 0 1 1 50.845848,0 z"
       transform="matrix(1.770056,0,0,1.770056,-11.104478,-30.917911)" />
    <path
       transform="matrix(1.6913869,0,0,1.6913869,-8.4776142,-27.410451)"
       d="m 58.814228,44.58498 a 25.422924,25.422924 0 1 1 -50.845848,0 25.422924,25.422924 0 1 1 50.845848,0 z"
       sodipodi:ry="25.422924"
       sodipodi:rx="25.422924"
       sodipodi:cy="44.58498"
       sodipodi:cx="33.391304"
       id="path3073"
       style="opacity:0.25;color:#000000;fill:#000000;fill-opacity:1;fill-rule:evenodd;stroke:none;stroke-width:1;marker:none;visibility:visible;display:inline;overflow:visible;enable-background:accumulate"
       sodipodi:type="arc" />
    <path
       transform="matrix(1.6127177,0,0,1.6127177,-5.850747,-23.902986)"
       d="m 58.814228,44.58498 a 25.422924,25.422924 0 1 1 -50.845848,0 25.422924,25.422924 0 1 1 50.845848,0 z"
       sodipodi:ry="25.422924"
       sodipodi:rx="25.422924"
       sodipodi:cy="44.58498"
       sodipodi:cx="33.391304"
       id="path3224"
       style="opacity:0.75;color:#000000;fill:#000000;fill-opacity:1;fill-rule:evenodd;stroke:none;stroke-width:1;marker:none;visibility:visible;display:inline;overflow:visible;enable-background:accumulate"
       sodipodi:type="arc" />
  </g>
  <g
     inkscape:groupmode="layer"
     id="layer6"
     inkscape:label="circle-fg-mono-light"
     style="display:inline"
     sodipodi:insensitive="true">
    <path
       sodipodi:type="arc"
       style="color:#000000;fill:url(#linearGradient3122);fill-opacity:1;fill-rule:evenodd;stroke:none;stroke-width:1;marker:none;visibility:visible;display:inline;overflow:visible;enable-background:accumulate"
       id="path3189"
       sodipodi:cx="33.391304"
       sodipodi:cy="44.58498"
       sodipodi:rx="25.422924"
       sodipodi:ry="25.422924"
       d="m 58.814228,44.58498 a 25.422924,25.422924 0 1 1 -50.845848,0 25.422924,25.422924 0 1 1 50.845848,0 z"
       transform="matrix(1.5340486,0,0,1.5340486,-3.2238832,-20.395526)" />
  </g>
  <g
     style="display:inline"
     inkscape:label="bubble-mono-dark-shrinked"
     id="g3430"
     inkscape:groupmode="layer"
     sodipodi:insensitive="true">
    <path
       inkscape:connector-curvature="0"
       id="path3432"
       d="m 48.875,17.8125 c -6.765488,0 -12.25,5.484512 -12.25,12.25 0,6.765488 5.484512,12.25 12.25,12.25 6.765488,0 12.25,-5.484512 12.25,-12.25 0,-6.765488 -5.484512,-12.25 -12.25,-12.25 z m -18.375,21 c -5.79899,0 -10.5,4.70101 -10.5,10.5 0,5.79899 4.70101,10.5 10.5,10.5 5.79899,0 10.5,-4.70101 10.5,-10.5 0,-5.79899 -4.70101,-10.5 -10.5,-10.5 z m 41.125,14 c -2.899495,0 -5.25,2.350506 -5.25,5.25 0,2.899494 2.350505,5.25 5.25,5.25 2.899495,0 5.25,-2.350506 5.25,-5.25 0,-2.899494 -2.350505,-5.25 -5.25,-5.25 z M 41,60.6875 c -4.832492,0 -8.75,3.917508 -8.75,8.75 0,4.832492 3.917508,8.75 8.75,8.75 4.832492,0 8.75,-3.917508 8.75,-8.75 0,-4.832492 -3.917508,-8.75 -8.75,-8.75 z m 19.25,1.75 c -3.865993,0 -7,3.134007 -7,7 0,3.865993 3.134007,7 7,7 3.865993,0 7,-3.134007 7,-7 0,-3.865993 -3.134007,-7 -7,-7 z"
       style="color:#000000;fill:#4d4d4d;fill-opacity:1;fill-rule:nonzero;stroke:none;stroke-width:1;marker:none;visibility:visible;display:inline;overflow:visible;enable-background:accumulate" />
    <path
       inkscape:connector-curvature="0"
       id="path3434"
       d="m 36.652344,30.9375 c -0.02037,0.288813 -0.02734,0.581004 -0.02734,0.875 0,6.765488 5.484512,12.25 12.25,12.25 6.765488,0 12.25,-5.484512 12.25,-12.25 0,-0.293996 -0.007,-0.586187 -0.02734,-0.875 -0.448354,6.357407 -5.751164,11.375 -12.222656,11.375 -6.471492,0 -11.774302,-5.017593 -12.222656,-11.375 z m -16.597657,19.25 C 20.03042,50.478787 20,50.764945 20,51.0625 c 0,5.79899 4.70101,10.5 10.5,10.5 5.79899,0 10.5,-4.70101 10.5,-10.5 0,-0.297555 -0.03042,-0.583713 -0.05469,-0.875 -0.448678,5.385539 -4.943877,9.625 -10.445312,9.625 -5.501435,0 -9.996634,-4.239461 -10.445313,-9.625 z m 46.402344,8.75 c -0.04702,0.282484 -0.08203,0.579173 -0.08203,0.875 0,2.899495 2.350505,5.25 5.25,5.25 2.899495,0 5.25,-2.350505 5.25,-5.25 0,-0.295827 -0.03501,-0.592516 -0.08203,-0.875 -0.413856,2.486234 -2.564302,4.375 -5.167969,4.375 -2.603668,0 -4.754113,-1.888766 -5.167969,-4.375 z m -13.152344,11.375 c -0.03602,0.287728 -0.05469,0.577509 -0.05469,0.875 0,3.865993 3.134007,7 7,7 3.865993,0 7,-3.134007 7,-7 0,-0.297491 -0.01866,-0.587272 -0.05469,-0.875 -0.432084,3.451388 -3.37681,6.125 -6.945312,6.125 -3.568502,0 -6.513228,-2.673612 -6.945313,-6.125 z m -21,0.02734 C 32.278275,70.616717 32.25,70.903707 32.25,71.1875 c 0,4.832492 3.917508,8.75 8.75,8.75 4.832492,0 8.75,-3.917508 8.75,-8.75 0,-0.283793 -0.02827,-0.570783 -0.05469,-0.847656 C 49.247225,74.752085 45.530461,78.1875 41,78.1875 c -4.530461,0 -8.247225,-3.435415 -8.695313,-7.847656 z"
       style="opacity:0.5;color:#000000;fill:#ffffff;fill-opacity:1;fill-rule:nonzero;stroke:none;stroke-width:1;marker:none;visibility:visible;display:inline;overflow:visible;enable-background:accumulate" />
    <path
       inkscape:connector-curvature="0"
       id="path3436"
       d="m 48.875,16.9375 c -6.765488,0 -12.25,5.484512 -12.25,12.25 0,0.596027 0.05446,1.176731 0.136719,1.75 0.851467,-5.93389 5.94382,-10.5 12.113281,-10.5 6.16946,0 11.261814,4.56611 12.113281,10.5 0.08226,-0.573269 0.136719,-1.153973 0.136719,-1.75 0,-6.765488 -5.484512,-12.25 -12.25,-12.25 z m -18.375,21 c -5.79899,0 -10.5,4.70101 -10.5,10.5 0,0.60096 0.0671,1.176634 0.164062,1.75 0.83869,-4.959358 5.137908,-8.75 10.335938,-8.75 5.19803,0 9.497248,3.790642 10.335937,8.75 C 40.932901,49.614134 41,49.03846 41,48.4375 c 0,-5.79899 -4.70101,-10.5 -10.5,-10.5 z m 41.125,14 c -2.899495,0 -5.25,2.350506 -5.25,5.25 0,0.613122 0.107611,1.203007 0.300781,1.75 0.720344,-2.039771 2.662847,-3.5 4.949219,-3.5 2.286372,0 4.228875,1.460229 4.949219,3.5 0.19317,-0.546993 0.300781,-1.136878 0.300781,-1.75 0,-2.899494 -2.350505,-5.25 -5.25,-5.25 z M 41,59.8125 c -4.832492,0 -8.75,3.917508 -8.75,8.75 0,0.604061 0.07485,1.180396 0.191406,1.75 0.815905,-3.987228 4.330163,-7 8.558594,-7 4.228431,0 7.742689,3.012772 8.558594,7 0.116558,-0.569604 0.191406,-1.145939 0.191406,-1.75 0,-4.832492 -3.917508,-8.75 -8.75,-8.75 z m 19.25,1.75 c -3.865993,0 -7,3.134007 -7,7 0,0.602709 0.07551,1.191975 0.21875,1.75 0.775562,-3.021354 3.517966,-5.25 6.78125,-5.25 3.263284,0 6.005688,2.228646 6.78125,5.25 0.143241,-0.558025 0.21875,-1.147291 0.21875,-1.75 0,-3.865993 -3.134007,-7 -7,-7 z"
       style="opacity:0.5;color:#000000;fill:#000000;fill-opacity:1;fill-rule:nonzero;stroke:none;stroke-width:1;marker:none;visibility:visible;display:inline;overflow:visible;enable-background:accumulate" />
  </g>
</svg>
