<?xml version="1.0" encoding="UTF-8" standalone="no"?>
<!-- Created with Inkscape (http://www.inkscape.org/) -->

<svg
   xmlns:dc="http://purl.org/dc/elements/1.1/"
   xmlns:cc="http://creativecommons.org/ns#"
   xmlns:rdf="http://www.w3.org/1999/02/22-rdf-syntax-ns#"
   xmlns:svg="http://www.w3.org/2000/svg"
   xmlns="http://www.w3.org/2000/svg"
   xmlns:sodipodi="http://sodipodi.sourceforge.net/DTD/sodipodi-0.dtd"
   xmlns:inkscape="http://www.inkscape.org/namespaces/inkscape"
   id="svg7384"
   height="16"
   width="16"
   version="1.1"
   inkscape:version="0.48.3.1 r9886"
   sodipodi:docname="network-workgroup-symbolic.svg">
  <defs
     id="defs12" />
  <sodipodi:namedview
     pagecolor="#ffffff"
     bordercolor="#666666"
     borderopacity="1"
     objecttolerance="10"
     gridtolerance="10"
     guidetolerance="10"
     inkscape:pageopacity="0"
     inkscape:pageshadow="2"
     inkscape:window-width="1080"
     inkscape:window-height="771"
     id="namedview10"
     showgrid="true"
     inkscape:zoom="33.8125"
     inkscape:cx="8"
     inkscape:cy="8"
     inkscape:window-x="0"
     inkscape:window-y="24"
     inkscape:window-maximized="0"
     inkscape:current-layer="svg7384">
    <inkscape:grid
       type="xygrid"
       id="grid2989" />
  </sodipodi:namedview>
  <metadata
     id="metadata90">
    <rdf:RDF>
      <cc:Work
         rdf:about="">
        <dc:format>image/svg+xml</dc:format>
        <dc:type
           rdf:resource="http://purl.org/dc/dcmitype/StillImage" />
        <dc:title>Gnome Symbolic Icon Theme</dc:title>
      </cc:Work>
    </rdf:RDF>
  </metadata>
  <title
     id="title9167">Gnome Symbolic Icon Theme</title>
  <path
     style="opacity:1;color:#000000;fill:#bebebe;fill-opacity:1;fill-rule:evenodd;stroke:none;stroke-width:1px;marker:none;visibility:visible;display:inline;overflow:visible;enable-background:accumulate"
     d="M 1 1.5 C 0.446 1.5 0 1.946 0 2.5 L 0 8 C 0 8.554 0.446 9 1 9 L 4 9 L 4 7.5 L 1.5 7.5 L 1.5 3 L 9.5 3 L 9.5 4 L 11 4 L 11 2.5 C 11 1.946 10.554 1.5 10 1.5 L 1 1.5 z M 6 5 C 5.446 5 5 5.446 5 6 L 5 11.5 C 5 12.054 5.446 12.5 6 12.5 L 10 12.5 L 10 13.34375 C 9.7009041 13.470257 9.4702569 13.700904 9.34375 14 L 6 14 L 6 15 L 9.34375 15 C 9.5335103 15.448644 9.982233 15.75 10.5 15.75 C 11.017767 15.75 11.46649 15.448644 11.65625 15 L 15 15 L 15 14 L 11.65625 14 C 11.529743 13.700904 11.299096 13.470257 11 13.34375 L 11 12.5 L 15 12.5 C 15.554 12.5 16 12.054 16 11.5 L 16 6 C 16 5.446 15.554 5 15 5 L 6 5 z M 6.5 6.5 L 14.5 6.5 L 14.5 11 L 6.5 11 L 6.5 6.5 z M 1 10.5 L 1 11.5 L 4 11.5 L 4 10.5 L 1 10.5 z "
     id="rect2993" />
</svg>
