<?xml version="1.0" encoding="UTF-8" standalone="no"?>
<!-- Created with Inkscape (http://www.inkscape.org/) -->

<svg
   xmlns:dc="http://purl.org/dc/elements/1.1/"
   xmlns:cc="http://creativecommons.org/ns#"
   xmlns:rdf="http://www.w3.org/1999/02/22-rdf-syntax-ns#"
   xmlns:svg="http://www.w3.org/2000/svg"
   xmlns="http://www.w3.org/2000/svg"
   xmlns:sodipodi="http://sodipodi.sourceforge.net/DTD/sodipodi-0.dtd"
   xmlns:inkscape="http://www.inkscape.org/namespaces/inkscape"
   id="svg7384"
   height="16"
   width="16"
   version="1.1"
   inkscape:version="0.48.3.1 r9886"
   sodipodi:docname="user-trash-full-symbolic.svg">
  <defs
     id="defs9" />
  <sodipodi:namedview
     pagecolor="#ffffff"
     bordercolor="#666666"
     borderopacity="1"
     objecttolerance="10"
     gridtolerance="10"
     guidetolerance="10"
     inkscape:pageopacity="0"
     inkscape:pageshadow="2"
     inkscape:window-width="1090"
     inkscape:window-height="771"
     id="namedview7"
     showgrid="true"
     inkscape:snap-midpoints="true"
     inkscape:object-nodes="true"
     inkscape:zoom="30.578089"
     inkscape:cx="7.9998205"
     inkscape:cy="8.7519931"
     inkscape:window-x="0"
     inkscape:window-y="24"
     inkscape:window-maximized="0"
     inkscape:current-layer="svg7384"
     inkscape:snap-global="true"
     inkscape:snap-nodes="true">
    <inkscape:grid
       type="xygrid"
       id="grid2986" />
  </sodipodi:namedview>
  <metadata
     id="metadata90">
    <rdf:RDF>
      <cc:Work
         rdf:about="">
        <dc:format>image/svg+xml</dc:format>
        <dc:type
           rdf:resource="http://purl.org/dc/dcmitype/StillImage" />
        <dc:title>Gnome Symbolic Icon Theme</dc:title>
      </cc:Work>
    </rdf:RDF>
  </metadata>
  <title
     id="title9167">Gnome Symbolic Icon Theme</title>
  <path
     style="color:#000000;fill:#bebebe;fill-opacity:1;fill-rule:evenodd;stroke:none;stroke-width:1px;marker:none;visibility:visible;display:inline;overflow:visible;enable-background:accumulate;opacity:1"
     d="m 8,0.5 c -3.589851,0 -6.5,1.3431458 -6.5,3 0,1.6568542 2.910149,3 6.5,3 3.589851,0 6.5,-1.3431458 6.5,-3 0,-1.6568542 -2.910149,-3 -6.5,-3 z m 0,1 c 2.820597,0 4.875,0.6715729 4.875,1.5 C 12.875,3.8284271 10.820597,4.5 8,4.5 5.1794029,4.5 3.125,3.8284271 3.125,3 3.125,2.1715729 5.1794029,1.5 8,1.5 z"
     id="path2988"
     inkscape:connector-curvature="0"
     sodipodi:nodetypes="ssssssssss" />
  <path
     style="opacity:1;color:#000000;fill:#bebebe;fill-opacity:1;fill-rule:evenodd;stroke:none;stroke-width:1px;marker:none;visibility:visible;display:inline;overflow:visible;enable-background:accumulate"
     d="M 8 10.5 C 6.7343475 10.5 5.5995405 10.73734 4.71875 11.125 L 4.875 12.0625 C 5.6077994 11.716936 6.731156 11.5 8 11.5 C 9.268844 11.5 10.392201 11.716936 11.125 12.0625 L 11.28125 11.125 C 10.40046 10.73734 9.2656527 10.5 8 10.5 z M 3 13 C 3 14.380712 5.2385763 15.5 8 15.5 C 10.761424 15.5 13 14.380712 13 13 L 12 13 C 12 13.828427 10.209139 14.5 8 14.5 C 5.790861 14.5 4 13.828427 4 13 L 3 13 z "
     id="path2989" />
  <path
     style="color:#000000;fill:#bebebe;fill-opacity:1;fill-rule:evenodd;stroke:none;stroke-width:1px;marker:none;visibility:visible;display:inline;overflow:visible;enable-background:accumulate;opacity:1"
     d="M 2 5 L 3 13 L 4 13 L 3 6 L 2 5 z M 14 5 L 13 6 L 12 13 L 13 13 L 14 5 z "
     id="rect2990" />
  <path
     style="color:#000000;fill:#bebebe;fill-opacity:1;fill-rule:evenodd;stroke:none;stroke-width:1px;marker:none;visibility:visible;display:inline;overflow:visible;enable-background:accumulate"
     d="M 5 2 L 5 3 L 6 3 L 6 2 L 5 2 z M 6 3 L 6 4 L 7 4 L 7 3 L 6 3 z M 8 2 L 8 4 L 9 4 L 9 2 L 8 2 z M 10 2.4375 L 10 3 L 11 3 L 11 2.4375 L 10 2.4375 z M 7 7 L 7 8 L 7 9 L 8 9 L 8 8 L 9 8 L 9 7 L 8 7 L 7 7 z M 8 9 L 8 10 L 12 10 L 12 9 L 11 9 L 11 8 L 10 8 L 10 9 L 8 9 z M 7 9 L 6 9 L 6 10 L 7 10 L 7 9 z M 6 9 L 6 8 L 5 8 L 5 7.25 L 4 7.25 L 4 9.25 L 5 9.25 L 5 9 L 6 9 z M 10 7 L 10 7.59375 L 12 7.59375 L 12 7 L 10 7 z M 5 12 L 5 13 L 6 13 L 6 12 L 5 12 z M 6 13 L 6 14 L 7 14 L 7 13 L 6 13 z M 8 12 L 8 13 L 9 13 L 9 12 L 8 12 z M 9.34375 13 L 9.34375 14 L 11 14 L 11 13 L 9.34375 13 z "
     id="rect2986" />
</svg>
