<?xml version="1.0" encoding="UTF-8" standalone="no"?>
<!-- Created with Inkscape (http://www.inkscape.org/) -->

<svg
   xmlns:dc="http://purl.org/dc/elements/1.1/"
   xmlns:cc="http://creativecommons.org/ns#"
   xmlns:rdf="http://www.w3.org/1999/02/22-rdf-syntax-ns#"
   xmlns:svg="http://www.w3.org/2000/svg"
   xmlns="http://www.w3.org/2000/svg"
   xmlns:xlink="http://www.w3.org/1999/xlink"
   xmlns:sodipodi="http://sodipodi.sourceforge.net/DTD/sodipodi-0.dtd"
   xmlns:inkscape="http://www.inkscape.org/namespaces/inkscape"
   version="1.0"
   width="96"
   height="96"
   id="svg2"
   sodipodi:version="0.32"
   inkscape:version="0.48.3.1 r9886"
   sodipodi:docname="inkscape.svg"
   inkscape:output_extension="org.inkscape.output.svgz.inkscape"
   inkscape:export-filename="/home/pinheiro/pics/oxygen/scalable/apps/inkscape.png"
   inkscape:export-xdpi="59.076923"
   inkscape:export-ydpi="59.076923">
  <metadata
     id="metadata14">
    <rdf:RDF>
      <cc:Work
         rdf:about="">
        <dc:format>image/svg+xml</dc:format>
        <dc:type
           rdf:resource="http://purl.org/dc/dcmitype/StillImage" />
        <dc:title />
      </cc:Work>
      <cc:Work
         rdf:about="">
        <dc:format>image/svg+xml</dc:format>
        <dc:type
           rdf:resource="http://purl.org/dc/dcmitype/StillImage" />
      </cc:Work>
    </rdf:RDF>
  </metadata>
  <defs
     id="defs12">
    <linearGradient
       id="linearGradient3819">
      <stop
         style="stop-color:#ffd701;stop-opacity:1;"
         offset="0"
         id="stop3821" />
      <stop
         style="stop-color:#241f1c;stop-opacity:0;"
         offset="1"
         id="stop3823" />
    </linearGradient>
    <linearGradient
       id="linearGradient2984">
      <stop
         style="stop-color:#ffd701;stop-opacity:1;"
         offset="0"
         id="stop2986" />
      <stop
         style="stop-color:#ffd701;stop-opacity:0;"
         offset="1"
         id="stop2988" />
    </linearGradient>
    <linearGradient
       id="linearGradient3291"
       inkscape:collect="always">
      <stop
         id="stop3293"
         offset="0"
         style="stop-color:#000000;stop-opacity:1;" />
      <stop
         id="stop3295"
         offset="1"
         style="stop-color:#000000;stop-opacity:0;" />
    </linearGradient>
    <linearGradient
       id="linearGradient2663">
      <stop
         style="stop-color:#ff4141;stop-opacity:1;"
         offset="0"
         id="stop2665" />
      <stop
         style="stop-color:#600000;stop-opacity:1;"
         offset="1"
         id="stop2667" />
    </linearGradient>
    <linearGradient
       inkscape:collect="always"
       id="linearGradient3565">
      <stop
         style="stop-color:#ffffff;stop-opacity:1;"
         offset="0"
         id="stop3567" />
      <stop
         style="stop-color:#ffffff;stop-opacity:0;"
         offset="1"
         id="stop3569" />
    </linearGradient>
    <linearGradient
       id="linearGradient3225">
      <stop
         id="stop3227"
         offset="0"
         style="stop-color:#ffffff;stop-opacity:1;" />
      <stop
         id="stop3229"
         offset="1"
         style="stop-color:#aeaeae;stop-opacity:1;" />
    </linearGradient>
    <linearGradient
       id="linearGradient2616">
      <stop
         style="stop-color:#554513;stop-opacity:1;"
         offset="0"
         id="stop2618" />
      <stop
         style="stop-color:#b59e69;stop-opacity:1;"
         offset="1"
         id="stop2620" />
    </linearGradient>
    <linearGradient
       id="linearGradient1648">
      <stop
         id="stop1650"
         offset="0"
         style="stop-color:#b4942a;stop-opacity:1;" />
      <stop
         id="stop1652"
         offset="1"
         style="stop-color:#e4dcc9;stop-opacity:1" />
    </linearGradient>
    <linearGradient
       inkscape:collect="always"
       id="linearGradient2626">
      <stop
         style="stop-color:#000000;stop-opacity:1;"
         offset="0"
         id="stop2628" />
      <stop
         style="stop-color:#000000;stop-opacity:0;"
         offset="1"
         id="stop2630" />
    </linearGradient>
    <linearGradient
       inkscape:collect="always"
       id="linearGradient3280">
      <stop
         style="stop-color:#000000;stop-opacity:1;"
         offset="0"
         id="stop3282" />
      <stop
         style="stop-color:#000000;stop-opacity:0;"
         offset="1"
         id="stop3284" />
    </linearGradient>
    <radialGradient
       inkscape:collect="always"
       xlink:href="#linearGradient3819"
       id="radialGradient3144"
       gradientUnits="userSpaceOnUse"
       gradientTransform="matrix(-1.100766,0.00930365,-0.01108255,-1.311238,136.26195,32.422951)"
       cx="66.128479"
       cy="8.6505957"
       fx="66.128479"
       fy="8.6505957"
       r="55.997173" />
    <linearGradient
       inkscape:collect="always"
       xlink:href="#linearGradient2984"
       id="linearGradient3146"
       gradientUnits="userSpaceOnUse"
       gradientTransform="matrix(0.30006858,0,0,0.30006858,-128.35275,6.4131747)"
       x1="798.237"
       y1="-29.82695"
       x2="637.71497"
       y2="114.65477" />
    <linearGradient
       inkscape:collect="always"
       xlink:href="#linearGradient2984"
       id="linearGradient3148"
       gradientUnits="userSpaceOnUse"
       gradientTransform="matrix(0.3016902,0,0,0.3016902,-126.90775,5.8685175)"
       x1="381.12454"
       y1="-44.903305"
       x2="606.12512"
       y2="141.10208" />
    <linearGradient
       inkscape:collect="always"
       xlink:href="#linearGradient2984"
       id="linearGradient3150"
       gradientUnits="userSpaceOnUse"
       gradientTransform="matrix(0.30776774,0,0,0.30776774,3.456649,4.7753574)"
       x1="217.91417"
       y1="202.50394"
       x2="206.34135"
       y2="363.45081" />
    <linearGradient
       inkscape:collect="always"
       xlink:href="#linearGradient2984"
       id="linearGradient3152"
       gradientUnits="userSpaceOnUse"
       gradientTransform="matrix(0.3265891,0,0,0.3265891,-0.18931817,2.3234938)"
       x1="212.88094"
       y1="27.388142"
       x2="212.88094"
       y2="230.08389" />
    <radialGradient
       inkscape:collect="always"
       xlink:href="#linearGradient3291"
       id="radialGradient3154"
       gradientUnits="userSpaceOnUse"
       gradientTransform="matrix(1,0,0,0.197802,0,92.82166)"
       cx="63.912209"
       cy="115.70919"
       fx="27.036068"
       fy="115.7093"
       r="63.912209" />
    <radialGradient
       inkscape:collect="always"
       xlink:href="#linearGradient2663"
       id="radialGradient3156"
       gradientUnits="userSpaceOnUse"
       gradientTransform="matrix(0.59466849,0.53666966,-1.6282347,1.6857513,102.0169,-12.877242)"
       cx="34.699203"
       cy="23.848236"
       fx="25.839911"
       fy="27.013157"
       r="18.765305" />
    <linearGradient
       inkscape:collect="always"
       xlink:href="#linearGradient3565"
       id="linearGradient3158"
       gradientUnits="userSpaceOnUse"
       gradientTransform="matrix(3.2154738,0.35530897,1.3093381,3.2284123,1.4155037,-54.199727)"
       x1="24.086939"
       y1="16.355263"
       x2="26.619194"
       y2="20.057724" />
    <radialGradient
       inkscape:collect="always"
       xlink:href="#linearGradient3225"
       id="radialGradient3160"
       gradientUnits="userSpaceOnUse"
       gradientTransform="matrix(1.6660708,1.3925868,-0.2914601,0.38930806,27.665527,-55.624438)"
       cx="49.009884"
       cy="8.4953117"
       fx="47.370888"
       fy="6.7701697"
       r="3.9750404" />
    <linearGradient
       inkscape:collect="always"
       xlink:href="#linearGradient2616"
       id="linearGradient3162"
       gradientUnits="userSpaceOnUse"
       gradientTransform="matrix(4.0137821,-0.23267356,1.1358704,4.6196796,15.353354,-125.64727)"
       x1="-9.112999"
       y1="52.430771"
       x2="-10.734963"
       y2="49.68412" />
    <radialGradient
       inkscape:collect="always"
       xlink:href="#linearGradient1648"
       id="radialGradient3164"
       gradientUnits="userSpaceOnUse"
       gradientTransform="matrix(0.26268962,0.83842158,-1.8557369,0.56170398,234.66934,17.025214)"
       cx="37.498978"
       cy="114.05495"
       fx="43.631195"
       fy="115.16036"
       r="11.61476" />
    <linearGradient
       inkscape:collect="always"
       xlink:href="#linearGradient2626"
       id="linearGradient3166"
       gradientUnits="userSpaceOnUse"
       gradientTransform="matrix(1.4417645,0.19625627,0.13398317,1.4335369,-29.799377,-57.83481)"
       x1="47.745087"
       y1="100.18176"
       x2="37.852875"
       y2="107.42576" />
    <radialGradient
       inkscape:collect="always"
       xlink:href="#linearGradient3225"
       id="radialGradient3168"
       gradientUnits="userSpaceOnUse"
       gradientTransform="matrix(1.006114,0.804017,0.402416,-0.496946,-8.95131,64.78593)"
       cx="49.009884"
       cy="8.4953117"
       fx="47.356842"
       fy="9.7852488"
       r="3.9750404" />
    <radialGradient
       inkscape:collect="always"
       xlink:href="#linearGradient3225"
       id="radialGradient3170"
       gradientUnits="userSpaceOnUse"
       gradientTransform="matrix(1.023607,0.818166,0.402456,-0.496915,-6.729909,60.21586)"
       cx="49.009884"
       cy="8.4953117"
       fx="47.424515"
       fy="9.6082344"
       r="3.9750404" />
    <radialGradient
       inkscape:collect="always"
       xlink:href="#linearGradient3225"
       id="radialGradient3172"
       gradientUnits="userSpaceOnUse"
       gradientTransform="matrix(1.05859,0.846463,0.402535,-0.496852,-5.327913,54.90227)"
       cx="49.009884"
       cy="8.4953117"
       fx="48.025326"
       fy="9.788682"
       r="3.9750404" />
    <radialGradient
       inkscape:collect="always"
       xlink:href="#linearGradient3225"
       id="radialGradient3174"
       gradientUnits="userSpaceOnUse"
       gradientTransform="matrix(1.076084,0.86061,0.402574,-0.496821,-3.078406,50.29781)"
       cx="49.009884"
       cy="8.4953117"
       fx="48.361217"
       fy="9.4356842"
       r="3.9750404" />
    <linearGradient
       inkscape:collect="always"
       xlink:href="#linearGradient3280"
       id="linearGradient3176"
       gradientUnits="userSpaceOnUse"
       gradientTransform="matrix(1.086544,-0.0911518,-0.132743,1.144289,8.908611,-9.844197)"
       x1="59.634602"
       y1="106.41199"
       x2="50.843105"
       y2="95.266502" />
  </defs>
  <sodipodi:namedview
     inkscape:window-height="717"
     inkscape:window-width="1009"
     inkscape:pageshadow="2"
     inkscape:pageopacity="0.0"
     guidetolerance="10.0"
     gridtolerance="10.0"
     objecttolerance="10.0"
     borderopacity="1.0"
     bordercolor="#666666"
     pagecolor="#ffffff"
     id="base"
     showguides="true"
     inkscape:guide-bbox="true"
     inkscape:zoom="4"
     inkscape:cx="48"
     inkscape:cy="48"
     inkscape:window-x="85"
     inkscape:window-y="47"
     inkscape:current-layer="svg2"
     width="128px"
     height="128px"
     showgrid="false"
     inkscape:window-maximized="0"
     fit-margin-top="0"
     fit-margin-left="0"
     fit-margin-right="0"
     fit-margin-bottom="0"
     inkscape:object-paths="true"
     inkscape:snap-intersection-paths="true"
     inkscape:object-nodes="true"
     inkscape:snap-smooth-nodes="true"
     inkscape:snap-midpoints="true"
     inkscape:snap-object-midpoints="true"
     inkscape:snap-global="false">
    <sodipodi:guide
       orientation="horizontal"
       position="0,444.75244"
       id="guide3944" />
  </sodipodi:namedview>
  <g
     id="g3326"
     transform="matrix(0.75,0,0,0.75,-2.2432165,5.0067902e-6)">
    <path
       d="m 63.048175,9.5457559 c -3.463158,-0.00694 -6.892074,1.2553081 -9.377297,3.7990081 L 12.324206,55.653209 c -13.9695763,17.299624 9.5081,15.281822 19.572105,20.26458 3.610114,3.690133 -13.843393,6.415032 -10.233278,10.108247 3.610116,3.690133 21.832274,7.110589 25.448542,10.800724 3.610115,3.69013 -7.389886,7.60109 -3.77977,11.29122 3.61011,3.69014 11.959085,0.0862 13.522544,8.60525 1.114121,6.08765 15.047149,2.72831 21.861126,-2.25754 3.610119,-3.6932 -6.899382,-3.35004 -3.289268,-7.04018 8.977584,-9.180716 17.32771,-3.33275 20.39923,-12.531916 C 97.342732,90.347863 82.610662,87.888802 86.226931,84.198667 96.61409,78.132566 132.51904,74.178902 115.48411,57.14396 L 72.627443,13.344764 C 70.006804,10.828763 66.511331,9.5526809 63.048175,9.5457559 z M 43.77422,78.206812 c 1.104886,0.68632 17.815519,4.083695 21.899598,4.760782 1.41573,0.298535 0.412408,1.756198 -1.538838,2.741055 -4.40108,1.169517 -25.746694,-7.501837 -20.36076,-7.501837 z"
       id="path4172"
       style="fill:#000000;fill-opacity:1;stroke:none"
       sodipodi:nodetypes="ccccccscccccccccccc"
       inkscape:connector-curvature="0" />
    <path
       id="path3024"
       d="m 63.0625,9.53125 c -3.463158,-0.00694 -6.921027,1.2688 -9.40625,3.8125 L 12.3125,55.65625 c -13.9695763,17.299624 9.529745,15.267242 19.59375,20.25 l 11.875,2.3125 c 1.104886,0.68632 17.822171,4.072913 21.90625,4.75 l 20.53125,1.21875 c 10.387159,-6.066101 46.28493,-9.996308 29.25,-27.03125 L 72.625,13.34375 C 70.004361,10.827749 66.525656,9.538175 63.0625,9.53125 z"
       style="opacity:0.25;fill:url(#radialGradient3144);fill-opacity:1;stroke:none"
       inkscape:connector-curvature="0" />
    <path
       sodipodi:nodetypes="cccccssscccc"
       d="m 62.068896,11.664375 c -3.229902,-0.0065 -24.231035,21.387816 -26.530605,23.741499 l 48.707511,48.021866 0.05626,-0.05626 0.06563,-0.0375 c 2.637328,-1.540201 6.739263,-2.87927 11.186934,-4.332242 4.447654,-1.452976 9.230284,-3.012406 13.146734,-4.876114 3.91647,-1.863706 6.91273,-4.053278 7.91432,-6.582757 0.50078,-1.264735 0.54257,-2.620365 -0.0281,-4.210335 -0.57071,-1.58997 -1.78177,-3.404013 -3.8165,-5.438743 L 70.995935,15.199558 c -2.435886,-2.33863 -5.697131,-3.528724 -8.927039,-3.535183 z"
       id="path3232"
       style="fill:url(#linearGradient3146);fill-opacity:1"
       inkscape:connector-curvature="0" />
    <path
       sodipodi:nodetypes="sccccssccccs"
       style="fill:url(#linearGradient3148);fill-opacity:1"
       id="path3214"
       d="m 64.542979,11.148096 c -3.247358,-0.0065 -6.446443,1.178458 -8.758447,3.544859 L 15.29205,56.118793 c -0.0094,0.01159 -0.01902,0.01677 -0.02829,0.02826 l -0.0094,0.01887 c -3.341108,4.151527 -4.334657,7.053178 -3.997395,9.041277 0.338687,1.996495 2.007642,3.35738 4.563065,4.440503 5.110841,2.166247 13.330813,2.881663 18.459669,5.420994 l 0.09428,0.03771 0.06598,0.07542 59.615765,-39.937471 C 91.606721,32.893094 67.790339,11.154589 64.542979,11.148096 z"
       inkscape:connector-curvature="0" />
    <path
       sodipodi:nodetypes="ccssssc"
       id="path3480"
       d="M 84.306813,85.697568 C 54.222756,96.962769 53.151724,79.579367 49.109192,96.308859 c 7.512518,4.414381 -5.080553,7.630681 -1.857423,10.237411 5.737303,4.64009 19.895577,1.71211 28.655329,-2.11187 3.965716,-1.7312 7.72739,-3.69806 11.993813,-4.42025 4.041859,-0.684172 7.684936,-4.879093 6.021441,-6.863811 -2.976812,-3.551643 -9.122488,-4.21354 -9.615539,-7.452771 z"
       style="opacity:0.32958799;fill:url(#linearGradient3150);fill-opacity:1;fill-rule:evenodd;stroke:none"
       inkscape:connector-curvature="0" />
    <path
       d="m 70.559679,14.560787 17.358213,17.62928 c 1.646006,1.681935 1.623147,4.941295 0.702163,5.878604 l -8.618683,-6.894296 -1.694997,10.209176 -7.201291,-3.801496 -11.531862,7.286204 -3.817825,-15.359489 -6.195395,10.718654 -9.471083,0 c -3.860286,0 -4.314246,-4.898835 -0.806677,-8.406402 6.126811,-6.613429 13.158274,-13.35423 16.979367,-17.260235 3.840687,-3.9256 10.532499,-3.81456 14.29807,0 z"
       id="path9"
       style="fill:url(#linearGradient3152);fill-opacity:1"
       inkscape:connector-curvature="0" />
  </g>
  <g
     id="g3420"
     transform="matrix(0.75,0,0,0.75,1.1189675,1.500005)">
    <path
       transform="matrix(0.78232314,0,0,0.36508443,20.033615,73.98905)"
       d="m 127.82442,115.70919 c 0,6.98197 -28.614473,12.64198 -63.912211,12.64198 C 28.61447,128.35117 0,122.69116 0,115.70919 c 0,-6.98197 28.61447,-12.64198 63.912209,-12.64198 35.297738,0 63.912211,5.66001 63.912211,12.64198 z"
       sodipodi:ry="12.641975"
       sodipodi:rx="63.912209"
       sodipodi:cy="115.70919"
       sodipodi:cx="63.912209"
       id="path3289"
       style="opacity:0.38139535;fill:url(#radialGradient3154);fill-opacity:1;fill-rule:nonzero;stroke:none"
       sodipodi:type="arc" />
    <g
       transform="matrix(0.87620192,0,0,0.87620192,16.011021,8.6274445)"
       id="g4053">
      <g
         id="g4029">
        <path
           sodipodi:nodetypes="czszszcc"
           inkscape:r_cy="true"
           inkscape:r_cx="true"
           id="path1324"
           d="M 48.082739,83.334977 C 53.346939,72.949125 53.595713,65.782779 63.875331,52.177433 74.154947,38.572089 94.559353,18.608109 109.76044,1.7029192 c 0.9682,-1.07673531 4.83931,-1.50874913 7.42647,0.6334587 2.68584,2.2239097 2.80339,6.1537629 2.10683,7.2602469 C 107.0896,28.983087 93.22153,54.359505 82.941914,67.964849 72.662293,81.570189 66.057994,83.474066 57.616033,91.228672 54.438267,88.597443 51.260503,85.966206 48.082739,83.334977 z"
           style="fill:url(#radialGradient3156);fill-opacity:1;fill-rule:evenodd;stroke:#000000;stroke-width:1.49553299;stroke-linecap:butt;stroke-linejoin:miter;stroke-miterlimit:4;stroke-opacity:1;stroke-dasharray:none"
           inkscape:connector-curvature="0" />
        <path
           sodipodi:nodetypes="cscsscsc"
           id="path3560"
           d="M 111.85624,0.78070589 C 111.1711,0.96697655 110.13816,1.3503924 109.80535,1.7205212 100.55989,12.002429 80.430704,32.82989 71.429609,44.163034 c 3.017417,0.181043 7.125821,0.269951 10.32364,-1.760753 6.064241,-3.85097 26.734691,-32.9022366 30.226321,-36.3516556 2.19334,-2.1668103 5.01397,1.0300407 7.34831,1.6368321 0.34508,-1.5158498 -0.44306,-3.9800085 -2.12169,-5.3699492 -1.69783,-1.40582402 -3.92993,-1.92285639 -5.34995,-1.53680241 z"
           style="opacity:0.86976743;fill:url(#linearGradient3158);fill-opacity:1;fill-rule:evenodd;stroke:none"
           inkscape:r_cx="true"
           inkscape:r_cy="true"
           inkscape:connector-curvature="0" />
        <path
           style="fill:url(#radialGradient3160);fill-opacity:1;fill-rule:nonzero;stroke:none"
           d="m 101.65631,9.0864713 c -1.15557,0.6194643 -2.369452,1.6593697 -2.66893,2.8452097 l 10.69257,8.888403 2.31711,-3.09503 -10.34075,-8.6385827 z m 9.21462,7.6973127 -2.31715,3.095018 3.75379,3.137585 c 1.01729,-0.507348 1.6058,-2.01282 1.94451,-3.397274 l -3.38115,-2.835329 z"
           id="path2274"
           sodipodi:nodetypes="cccccccccc"
           inkscape:connector-curvature="0" />
      </g>
      <g
         id="g4042">
        <path
           sodipodi:nodetypes="cscscc"
           inkscape:r_cy="true"
           inkscape:r_cx="true"
           id="path1330"
           d="m 49.955317,97.195774 c -2.080538,6.857366 -1.109681,14.521206 -6.241616,20.572106 -7.247371,8.54516 -29.58052,9.30018 -40.8055069,-0.3942 12.6323059,-0.10624 17.7302009,-8.91733 25.9482399,-15.97363 5.313688,-4.562518 11.418138,-6.924184 13.913428,-10.250412 2.395162,2.01538 4.790306,4.030777 7.185455,6.046136 z"
           style="fill:url(#linearGradient3162);fill-opacity:1;fill-rule:evenodd;stroke:#000000;stroke-width:0;stroke-linecap:round;stroke-linejoin:round;stroke-miterlimit:4;stroke-opacity:1;stroke-dasharray:none"
           inkscape:connector-curvature="0" />
        <path
           style="fill:url(#radialGradient3164);fill-opacity:1;fill-rule:evenodd;stroke:#000000;stroke-width:0;stroke-linecap:round;stroke-linejoin:round;stroke-miterlimit:4;stroke-opacity:1;stroke-dasharray:none"
           d="m 47.956386,96.306516 c -0.967287,4.153284 -2.665584,11.484934 -5.262906,15.134654 -3.667971,5.15417 -17.755101,9.61819 -24.110125,5.2632 7.475248,-0.56227 11.015207,-10.83563 15.062538,-15.27591 1.430682,-1.56958 9.270223,-6.467773 10.525649,-8.475532 1.306372,1.234437 2.478478,2.119122 3.784844,3.353588 z"
           id="path3530"
           inkscape:r_cx="true"
           inkscape:r_cy="true"
           sodipodi:nodetypes="cscscc"
           inkscape:connector-curvature="0" />
        <path
           style="fill:url(#linearGradient3166);fill-opacity:1;fill-rule:evenodd;stroke:#000000;stroke-width:0;stroke-linecap:round;stroke-linejoin:round;stroke-miterlimit:4;stroke-opacity:1;stroke-dasharray:none"
           d="m 49.955317,97.195774 c -2.080538,6.857366 -1.109681,14.521206 -6.241616,20.572106 -7.247371,8.54516 -20.835654,-9.08632 -12.942725,-16.49022 5.277443,-4.950454 9.503596,-6.801794 11.998886,-10.128022 2.395162,2.01538 4.790306,4.030777 7.185455,6.046136 z"
           id="path2624"
           inkscape:r_cx="true"
           inkscape:r_cy="true"
           sodipodi:nodetypes="csscc"
           inkscape:connector-curvature="0" />
      </g>
      <g
         id="g2634"
         transform="matrix(1.151424,0.38333947,0.35125492,1.017341,-38.727572,-23.434029)">
        <path
           inkscape:connector-curvature="0"
           sodipodi:nodetypes="cccccccccc"
           id="path3213"
           d="m 38.34944,98.879422 c 0.751011,-1.450103 1.895586,-3.192465 3.027228,-4.145441 l 6.412295,5.187625 -3.199247,3.950744 -6.240276,-4.992928 z m 5.560223,4.449478 3.19925,-3.95078 2.266831,1.81152 c -0.626426,1.2552 -2.096426,2.66359 -3.415851,3.76577 l -2.05023,-1.62651 z"
           style="fill:url(#radialGradient3168);fill-opacity:1;fill-rule:nonzero;stroke:none" />
        <path
           inkscape:connector-curvature="0"
           style="fill:url(#radialGradient3170);fill-opacity:1;fill-rule:nonzero;stroke:none"
           d="m 41.361775,94.94897 c 0.746637,-1.453636 1.888528,-3.198165 3.024064,-4.148003 l 6.52432,5.278231 -3.199564,3.950502 -6.34882,-5.08073 z m 5.656954,4.52771 3.199556,-3.95053 2.306244,1.843402 c -0.622393,1.258459 -2.095991,2.663928 -3.420035,3.762378 l -2.085765,-1.65525 z"
           id="path3217"
           sodipodi:nodetypes="cccccccccc" />
        <path
           inkscape:connector-curvature="0"
           sodipodi:nodetypes="cccccccccc"
           id="path3221"
           d="m 44.345464,90.914825 c 0.737901,-1.460703 1.874426,-3.209577 3.017737,-4.153123 l 6.748372,5.459444 -3.200191,3.949994 -6.565918,-5.256315 z m 5.850403,4.684175 3.200183,-3.95003 2.385064,1.907161 c -0.614324,1.264978 -2.095127,2.664625 -3.428391,3.755622 L 50.195867,95.599 z"
           style="fill:url(#radialGradient3172);fill-opacity:1;fill-rule:nonzero;stroke:none" />
        <path
           inkscape:connector-curvature="0"
           style="fill:url(#radialGradient3174);fill-opacity:1;fill-rule:nonzero;stroke:none"
           d="m 47.385861,86.950051 c 0.733532,-1.46424 1.86737,-3.215282 3.014569,-4.155681 l 6.860405,5.550042 -3.20051,3.949749 -6.674464,-5.34411 z m 5.947126,4.762406 3.200498,-3.949777 2.424476,1.939032 c -0.610288,1.26824 -2.094701,2.664978 -3.432577,3.752246 l -2.192397,-1.741501 z"
           id="path3225"
           sodipodi:nodetypes="cccccccccc" />
        <path
           inkscape:connector-curvature="0"
           id="path3271"
           d="m 50.41561,82.77934 c -1.111349,0.911013 -2.222017,2.602204 -2.956499,4.037011 l -0.09357,-0.06297 c -1.107583,0.914062 -2.217891,2.605539 -2.956497,4.03701 l -0.03395,0.0028 c -1.089405,0.911249 -2.171914,2.582859 -2.918393,3.998402 l -0.09357,-0.06297 c -1.131642,0.952977 -2.251889,2.697034 -3.002898,4.147137 l 6.245645,5.00016 1.35296,1.09048 c 1.319431,-1.10219 2.806202,-2.53846 3.432627,-3.79366 l -0.153181,-0.12879 c 1.290777,-1.082291 2.681424,-2.455868 3.284367,-3.675001 l -0.123373,-0.09588 c 1.322309,-1.085948 2.782454,-2.467493 3.390379,-3.7193 L 55.60667,93.392065 c 1.315547,-1.077056 2.7547,-2.43887 3.352276,-3.680689 L 57.269822,88.330443 50.41561,82.77934 z"
           style="fill:url(#linearGradient3176);fill-opacity:1;fill-rule:nonzero;stroke:none" />
      </g>
    </g>
  </g>
</svg>
