<?xml version="1.0" encoding="UTF-8" standalone="no"?>
<!-- Created with Inkscape (http://www.inkscape.org/) -->

<svg
   xmlns:dc="http://purl.org/dc/elements/1.1/"
   xmlns:cc="http://creativecommons.org/ns#"
   xmlns:rdf="http://www.w3.org/1999/02/22-rdf-syntax-ns#"
   xmlns:svg="http://www.w3.org/2000/svg"
   xmlns="http://www.w3.org/2000/svg"
   xmlns:xlink="http://www.w3.org/1999/xlink"
   xmlns:sodipodi="http://sodipodi.sourceforge.net/DTD/sodipodi-0.dtd"
   xmlns:inkscape="http://www.inkscape.org/namespaces/inkscape"
   version="1.0"
   width="96"
   height="96"
   id="svg2"
   sodipodi:version="0.32"
   inkscape:version="0.48.3.1 r9886"
   sodipodi:docname="mtpaint.svg"
   inkscape:output_extension="org.inkscape.output.svgz.inkscape"
   inkscape:export-filename="/home/pinheiro/pics/oxygen/scalable/apps/inkscape.png"
   inkscape:export-xdpi="59.076923"
   inkscape:export-ydpi="59.076923">
  <metadata
     id="metadata14">
    <rdf:RDF>
      <cc:Work
         rdf:about="">
        <dc:format>image/svg+xml</dc:format>
        <dc:type
           rdf:resource="http://purl.org/dc/dcmitype/StillImage" />
        <dc:title />
      </cc:Work>
      <cc:Work
         rdf:about="">
        <dc:format>image/svg+xml</dc:format>
        <dc:type
           rdf:resource="http://purl.org/dc/dcmitype/StillImage" />
      </cc:Work>
    </rdf:RDF>
  </metadata>
  <defs
     id="defs12">
    <linearGradient
       id="linearGradient3963">
      <stop
         style="stop-color:#41b5ff;stop-opacity:1;"
         offset="0"
         id="stop3965" />
      <stop
         style="stop-color:#003b60;stop-opacity:1;"
         offset="1"
         id="stop3967" />
    </linearGradient>
    <linearGradient
       id="linearGradient3879">
      <stop
         id="stop3881"
         offset="0"
         style="stop-color:#fff441;stop-opacity:1;" />
      <stop
         id="stop3883"
         offset="1"
         style="stop-color:#605a00;stop-opacity:1;" />
    </linearGradient>
    <linearGradient
       id="linearGradient3291"
       inkscape:collect="always">
      <stop
         id="stop3293"
         offset="0"
         style="stop-color:#000000;stop-opacity:1;" />
      <stop
         id="stop3295"
         offset="1"
         style="stop-color:#000000;stop-opacity:0;" />
    </linearGradient>
    <linearGradient
       id="linearGradient2663">
      <stop
         style="stop-color:#ff4141;stop-opacity:1;"
         offset="0"
         id="stop2665" />
      <stop
         style="stop-color:#600000;stop-opacity:1;"
         offset="1"
         id="stop2667" />
    </linearGradient>
    <linearGradient
       inkscape:collect="always"
       id="linearGradient3565">
      <stop
         style="stop-color:#ffffff;stop-opacity:1;"
         offset="0"
         id="stop3567" />
      <stop
         style="stop-color:#ffffff;stop-opacity:0;"
         offset="1"
         id="stop3569" />
    </linearGradient>
    <linearGradient
       id="linearGradient3225">
      <stop
         id="stop3227"
         offset="0"
         style="stop-color:#ffffff;stop-opacity:1;" />
      <stop
         id="stop3229"
         offset="1"
         style="stop-color:#aeaeae;stop-opacity:1;" />
    </linearGradient>
    <linearGradient
       id="linearGradient2616">
      <stop
         style="stop-color:#554513;stop-opacity:1;"
         offset="0"
         id="stop2618" />
      <stop
         style="stop-color:#b59e69;stop-opacity:1;"
         offset="1"
         id="stop2620" />
    </linearGradient>
    <linearGradient
       id="linearGradient1648">
      <stop
         id="stop1650"
         offset="0"
         style="stop-color:#b4942a;stop-opacity:1;" />
      <stop
         id="stop1652"
         offset="1"
         style="stop-color:#e4dcc9;stop-opacity:1" />
    </linearGradient>
    <linearGradient
       inkscape:collect="always"
       id="linearGradient2626">
      <stop
         style="stop-color:#000000;stop-opacity:1;"
         offset="0"
         id="stop2628" />
      <stop
         style="stop-color:#000000;stop-opacity:0;"
         offset="1"
         id="stop2630" />
    </linearGradient>
    <radialGradient
       inkscape:collect="always"
       xlink:href="#linearGradient3291"
       id="radialGradient3268"
       gradientUnits="userSpaceOnUse"
       gradientTransform="matrix(1,0,0,0.197802,0,92.82166)"
       cx="63.912209"
       cy="115.70919"
       fx="27.036068"
       fy="115.7093"
       r="63.912209" />
    <radialGradient
       inkscape:collect="always"
       xlink:href="#linearGradient2663"
       id="radialGradient3270"
       gradientUnits="userSpaceOnUse"
       gradientTransform="matrix(0.39078725,0.35267324,-1.0699968,1.1077939,74.441708,-2.4840242)"
       cx="34.699203"
       cy="23.848236"
       fx="25.839911"
       fy="27.013157"
       r="18.765305" />
    <linearGradient
       inkscape:collect="always"
       xlink:href="#linearGradient3565"
       id="linearGradient3272"
       gradientUnits="userSpaceOnUse"
       gradientTransform="matrix(2.1130532,0.2334918,0.86043342,2.1215558,8.3313556,-29.639155)"
       x1="24.086939"
       y1="16.355263"
       x2="26.619194"
       y2="20.057724" />
    <radialGradient
       inkscape:collect="always"
       xlink:href="#linearGradient3225"
       id="radialGradient3274"
       gradientUnits="userSpaceOnUse"
       gradientTransform="matrix(1.0948608,0.91514042,-0.19153342,0.25583435,25.581596,-30.575406)"
       cx="49.009884"
       cy="8.4953117"
       fx="47.370888"
       fy="6.7701697"
       r="3.9750404" />
    <linearGradient
       inkscape:collect="always"
       xlink:href="#linearGradient2616"
       id="linearGradient3276"
       gradientUnits="userSpaceOnUse"
       gradientTransform="matrix(2.6376627,-0.15290177,0.74643887,3.0358291,17.490634,-76.591011)"
       x1="-9.112999"
       y1="52.430771"
       x2="-10.734963"
       y2="49.68412" />
    <radialGradient
       inkscape:collect="always"
       xlink:href="#linearGradient1648"
       id="radialGradient3278"
       gradientUnits="userSpaceOnUse"
       gradientTransform="matrix(0.17262686,0.55096995,-1.2195002,0.36912458,161.61445,17.166418)"
       cx="37.498978"
       cy="114.05495"
       fx="43.631195"
       fy="115.16036"
       r="11.61476" />
    <linearGradient
       inkscape:collect="always"
       xlink:href="#linearGradient2626"
       id="linearGradient3281"
       gradientUnits="userSpaceOnUse"
       gradientTransform="matrix(0.94745762,0.12897009,0.08804723,0.94205084,-12.181548,-32.027955)"
       x1="47.745087"
       y1="100.18176"
       x2="37.852875"
       y2="107.42576" />
    <radialGradient
       inkscape:collect="always"
       xlink:href="#linearGradient3225"
       id="radialGradient3283"
       gradientUnits="userSpaceOnUse"
       gradientTransform="matrix(0.94687554,0.7909755,0.18978317,-0.23085836,-9.8674358,31.636071)"
       cx="49.009884"
       cy="8.4953117"
       fx="47.356842"
       fy="9.7852488"
       r="3.9750404" />
    <radialGradient
       inkscape:collect="always"
       xlink:href="#linearGradient3225"
       id="radialGradient3285"
       gradientUnits="userSpaceOnUse"
       gradientTransform="matrix(0.96337777,0.80484148,0.1898206,-0.23082755,-9.2414893,29.140361)"
       cx="49.009884"
       cy="8.4953117"
       fx="47.424515"
       fy="9.6082344"
       r="3.9750404" />
    <radialGradient
       inkscape:collect="always"
       xlink:href="#linearGradient3225"
       id="radialGradient3287"
       gradientUnits="userSpaceOnUse"
       gradientTransform="matrix(0.99637974,0.83257199,0.18989491,-0.23076553,-9.4071787,25.941156)"
       cx="49.009884"
       cy="8.4953117"
       fx="48.025326"
       fy="9.788682"
       r="3.9750404" />
    <radialGradient
       inkscape:collect="always"
       xlink:href="#linearGradient3225"
       id="radialGradient3289"
       gradientUnits="userSpaceOnUse"
       gradientTransform="matrix(1.0128823,0.84643688,0.18993158,-0.23073499,-8.7679037,23.429535)"
       cx="49.009884"
       cy="8.4953117"
       fx="48.361217"
       fy="9.4356842"
       r="3.9750404" />
    <linearGradient
       inkscape:collect="always"
       xlink:href="#linearGradient2616"
       id="linearGradient3063"
       gradientUnits="userSpaceOnUse"
       gradientTransform="matrix(2.6376627,-0.15290177,0.74643887,3.0358291,17.490634,-76.591011)"
       x1="-9.112999"
       y1="52.430771"
       x2="-10.734963"
       y2="49.68412" />
    <radialGradient
       inkscape:collect="always"
       xlink:href="#linearGradient1648"
       id="radialGradient3065"
       gradientUnits="userSpaceOnUse"
       gradientTransform="matrix(0.17262686,0.55096995,-1.2195002,0.36912458,161.61445,17.166418)"
       cx="37.498978"
       cy="114.05495"
       fx="43.631195"
       fy="115.16036"
       r="11.61476" />
    <linearGradient
       inkscape:collect="always"
       xlink:href="#linearGradient2626"
       id="linearGradient3067"
       gradientUnits="userSpaceOnUse"
       gradientTransform="matrix(0.94745762,0.12897009,0.08804723,0.94205084,-12.181548,-32.027955)"
       x1="47.745087"
       y1="100.18176"
       x2="37.852875"
       y2="107.42576" />
    <radialGradient
       inkscape:collect="always"
       xlink:href="#linearGradient3225"
       id="radialGradient3069"
       gradientUnits="userSpaceOnUse"
       gradientTransform="matrix(0.94687554,0.7909755,0.18978317,-0.23085836,-9.8674358,31.636071)"
       cx="49.009884"
       cy="8.4953117"
       fx="47.356842"
       fy="9.7852488"
       r="3.9750404" />
    <radialGradient
       inkscape:collect="always"
       xlink:href="#linearGradient3225"
       id="radialGradient3071"
       gradientUnits="userSpaceOnUse"
       gradientTransform="matrix(0.96337777,0.80484148,0.1898206,-0.23082755,-9.2414893,29.140361)"
       cx="49.009884"
       cy="8.4953117"
       fx="47.424515"
       fy="9.6082344"
       r="3.9750404" />
    <radialGradient
       inkscape:collect="always"
       xlink:href="#linearGradient3225"
       id="radialGradient3073"
       gradientUnits="userSpaceOnUse"
       gradientTransform="matrix(0.99637974,0.83257199,0.18989491,-0.23076553,-9.4071787,25.941156)"
       cx="49.009884"
       cy="8.4953117"
       fx="48.025326"
       fy="9.788682"
       r="3.9750404" />
    <radialGradient
       inkscape:collect="always"
       xlink:href="#linearGradient3225"
       id="radialGradient3075"
       gradientUnits="userSpaceOnUse"
       gradientTransform="matrix(1.0128823,0.84643688,0.18993158,-0.23073499,-8.7679037,23.429535)"
       cx="49.009884"
       cy="8.4953117"
       fx="48.361217"
       fy="9.4356842"
       r="3.9750404" />
    <radialGradient
       inkscape:collect="always"
       xlink:href="#linearGradient3225"
       id="radialGradient3103"
       gradientUnits="userSpaceOnUse"
       gradientTransform="matrix(1.1966491,0.55522729,-0.10982042,0.27428187,19.329127,-16.944669)"
       cx="49.009884"
       cy="8.4953117"
       fx="47.370888"
       fy="6.7701697"
       r="3.9750404" />
    <linearGradient
       inkscape:collect="always"
       xlink:href="#linearGradient3565"
       id="linearGradient3106"
       gradientUnits="userSpaceOnUse"
       gradientTransform="matrix(1.942769,-0.29709157,1.2759725,1.6886164,4.1491333,-11.981128)"
       x1="24.086939"
       y1="16.355263"
       x2="26.619194"
       y2="20.057724" />
    <radialGradient
       inkscape:collect="always"
       xlink:href="#linearGradient3879"
       id="radialGradient3109"
       gradientUnits="userSpaceOnUse"
       gradientTransform="matrix(0.43334745,0.22142366,-0.69041545,1.2452507,69.681395,-3.550639)"
       cx="34.699203"
       cy="23.848236"
       fx="25.839911"
       fy="27.013157"
       r="18.765305" />
    <linearGradient
       inkscape:collect="always"
       xlink:href="#linearGradient2616"
       id="linearGradient3931"
       gradientUnits="userSpaceOnUse"
       gradientTransform="matrix(2.6376627,-0.15290177,0.74643887,3.0358291,17.490634,-76.591011)"
       x1="-9.112999"
       y1="52.430771"
       x2="-10.734963"
       y2="49.68412" />
    <radialGradient
       inkscape:collect="always"
       xlink:href="#linearGradient1648"
       id="radialGradient3933"
       gradientUnits="userSpaceOnUse"
       gradientTransform="matrix(0.17262686,0.55096995,-1.2195002,0.36912458,161.61445,17.166418)"
       cx="37.498978"
       cy="114.05495"
       fx="43.631195"
       fy="115.16036"
       r="11.61476" />
    <linearGradient
       inkscape:collect="always"
       xlink:href="#linearGradient2626"
       id="linearGradient3935"
       gradientUnits="userSpaceOnUse"
       gradientTransform="matrix(0.94745762,0.12897009,0.08804723,0.94205084,-12.181548,-32.027955)"
       x1="47.745087"
       y1="100.18176"
       x2="37.852875"
       y2="107.42576" />
    <radialGradient
       inkscape:collect="always"
       xlink:href="#linearGradient3225"
       id="radialGradient3937"
       gradientUnits="userSpaceOnUse"
       gradientTransform="matrix(0.94687554,0.7909755,0.18978317,-0.23085836,-9.8674358,31.636071)"
       cx="49.009884"
       cy="8.4953117"
       fx="47.356842"
       fy="9.7852488"
       r="3.9750404" />
    <radialGradient
       inkscape:collect="always"
       xlink:href="#linearGradient3225"
       id="radialGradient3939"
       gradientUnits="userSpaceOnUse"
       gradientTransform="matrix(0.96337777,0.80484148,0.1898206,-0.23082755,-9.2414893,29.140361)"
       cx="49.009884"
       cy="8.4953117"
       fx="47.424515"
       fy="9.6082344"
       r="3.9750404" />
    <radialGradient
       inkscape:collect="always"
       xlink:href="#linearGradient3225"
       id="radialGradient3941"
       gradientUnits="userSpaceOnUse"
       gradientTransform="matrix(0.99637974,0.83257199,0.18989491,-0.23076553,-9.4071787,25.941156)"
       cx="49.009884"
       cy="8.4953117"
       fx="48.025326"
       fy="9.788682"
       r="3.9750404" />
    <radialGradient
       inkscape:collect="always"
       xlink:href="#linearGradient3225"
       id="radialGradient3943"
       gradientUnits="userSpaceOnUse"
       gradientTransform="matrix(1.0128823,0.84643688,0.18993158,-0.23073499,-8.7679037,23.429535)"
       cx="49.009884"
       cy="8.4953117"
       fx="48.361217"
       fy="9.4356842"
       r="3.9750404" />
    <radialGradient
       inkscape:collect="always"
       xlink:href="#linearGradient3225"
       id="radialGradient3955"
       gradientUnits="userSpaceOnUse"
       gradientTransform="matrix(1.1966491,0.55522729,-0.10982042,0.27428187,46.601854,-16.50121)"
       cx="49.009884"
       cy="8.4953117"
       fx="47.370888"
       fy="6.7701697"
       r="3.9750404" />
    <linearGradient
       inkscape:collect="always"
       xlink:href="#linearGradient3565"
       id="linearGradient3958"
       gradientUnits="userSpaceOnUse"
       gradientTransform="matrix(1.942769,-0.29709157,1.2759725,1.6886164,31.42186,-11.537669)"
       x1="24.086939"
       y1="16.355263"
       x2="26.619194"
       y2="20.057724" />
    <radialGradient
       inkscape:collect="always"
       xlink:href="#linearGradient3963"
       id="radialGradient3961"
       gradientUnits="userSpaceOnUse"
       gradientTransform="matrix(0.43334745,0.22142366,-0.69041545,1.2452507,96.954122,-3.10718)"
       cx="34.699203"
       cy="23.848236"
       fx="25.839911"
       fy="27.013157"
       r="18.765305" />
  </defs>
  <sodipodi:namedview
     inkscape:window-height="717"
     inkscape:window-width="1026"
     inkscape:pageshadow="2"
     inkscape:pageopacity="0.0"
     guidetolerance="10.0"
     gridtolerance="10.0"
     objecttolerance="10.0"
     borderopacity="1.0"
     bordercolor="#666666"
     pagecolor="#ffffff"
     id="base"
     showguides="true"
     inkscape:guide-bbox="true"
     inkscape:zoom="4.51"
     inkscape:cx="48"
     inkscape:cy="48"
     inkscape:window-x="85"
     inkscape:window-y="70"
     inkscape:current-layer="svg2"
     width="128px"
     height="128px"
     showgrid="false"
     inkscape:window-maximized="0"
     fit-margin-top="0"
     fit-margin-left="0"
     fit-margin-right="0"
     fit-margin-bottom="0"
     inkscape:object-paths="true"
     inkscape:snap-intersection-paths="true"
     inkscape:object-nodes="true"
     inkscape:snap-smooth-nodes="true"
     inkscape:snap-midpoints="true"
     inkscape:snap-object-midpoints="true"
     inkscape:snap-global="false">
    <sodipodi:guide
       orientation="horizontal"
       position="0,444.75245"
       id="guide3944" />
  </sodipodi:namedview>
  <path
     sodipodi:type="arc"
     style="opacity:0.38139535;fill:url(#radialGradient3268);fill-opacity:1;fill-rule:nonzero;stroke:none"
     id="path3289"
     sodipodi:cx="63.912209"
     sodipodi:cy="115.70919"
     sodipodi:rx="63.912209"
     sodipodi:ry="12.641975"
     d="m 127.82442,115.70919 a 63.912209,12.641975 0 1 1 -127.82442,0 63.912209,12.641975 0 1 1 127.82442,0 z"
     transform="matrix(0.58674236,0,0,0.27381332,8.6442651,60.855741)" />
  <g
     id="g3305"
     transform="matrix(0.72742584,-0.41997951,0.41997951,0.72742584,-39.678724,34.957322)">
    <g
       id="g3171">
      <path
         inkscape:connector-curvature="0"
         style="fill:url(#radialGradient3270);fill-opacity:1;fill-rule:evenodd;stroke:#000000;stroke-width:1.56006277;stroke-linecap:butt;stroke-linejoin:miter;stroke-miterlimit:4;stroke-opacity:1;stroke-dasharray:none"
         d="M 38.998796,60.741974 C 42.458173,53.916896 42.621655,49.207522 49.376921,40.266749 56.132186,31.325978 69.54097,18.20662 79.530387,7.0973497 80.166641,6.3897715 82.710546,6.105873 84.410702,7.513628 86.175706,8.9750735 86.252954,11.557582 85.795208,12.28471 77.77524,25.024551 68.661818,41.700701 61.906554,50.641472 55.151286,59.582241 50.811261,60.833377 45.263614,65.929327 43.175341,64.200211 41.087069,62.47109 38.998796,60.741974 z"
         id="path1324"
         inkscape:r_cx="true"
         inkscape:r_cy="true"
         sodipodi:nodetypes="czszszcc" />
      <path
         inkscape:connector-curvature="0"
         inkscape:r_cy="true"
         inkscape:r_cx="true"
         style="opacity:0.86976743;fill:url(#linearGradient3272);fill-opacity:1;fill-rule:evenodd;stroke:none"
         d="m 80.907644,6.4913159 c -0.45024,0.122408 -1.129038,0.3743703 -1.347745,0.617601 -6.075667,6.7567701 -19.303591,20.4435661 -25.218673,27.8911581 1.9829,0.118973 4.682743,0.177399 6.784195,-1.157081 3.985124,-2.530671 17.56874,-21.621752 19.86327,-23.8885429 1.441357,-1.4239225 3.294938,0.6768929 4.828952,1.0756469 C 86.044413,10.033955 85.526486,8.4146293 84.423372,7.5012278 83.30764,6.5773885 81.840813,6.23762 80.907644,6.4913159 z"
         id="path3560"
         sodipodi:nodetypes="cscsscsc" />
      <path
         inkscape:connector-curvature="0"
         sodipodi:nodetypes="cccccccccc"
         id="path2274"
         d="m 74.204746,11.949462 c -0.759385,0.407081 -1.557089,1.090457 -1.753891,1.869733 l 7.026637,5.841027 1.522693,-2.033903 -6.795439,-5.676857 z m 6.055401,5.0583 -1.522719,2.033895 2.466809,2.061869 c 0.668513,-0.333405 1.055253,-1.322728 1.277837,-2.232524 l -2.221927,-1.86324 z"
         style="fill:url(#radialGradient3274);fill-opacity:1;fill-rule:nonzero;stroke:none" />
    </g>
    <g
       id="g3241">
      <path
         inkscape:connector-curvature="0"
         style="fill:url(#linearGradient3276);fill-opacity:1;fill-rule:evenodd;stroke:#000000;stroke-width:0;stroke-linecap:round;stroke-linejoin:round;stroke-miterlimit:4;stroke-opacity:1;stroke-dasharray:none"
         d="m 40.229364,69.850617 c -1.367229,4.506328 -0.729229,9.542631 -4.101687,13.518989 -4.76262,5.615464 -19.438881,6.111627 -26.8153978,-0.259049 8.3013378,-0.06982 11.6514268,-5.860037 17.0519228,-10.497094 3.491898,-2.998266 7.503446,-4.550238 9.14323,-6.736073 1.573984,1.32441 3.147956,2.648831 4.721932,3.973227 z"
         id="path1330"
         inkscape:r_cx="true"
         inkscape:r_cy="true"
         sodipodi:nodetypes="cscscc" />
      <path
         inkscape:connector-curvature="0"
         sodipodi:nodetypes="cscscc"
         inkscape:r_cy="true"
         inkscape:r_cx="true"
         id="path3530"
         d="m 38.915763,69.26624 c -0.635654,2.729336 -1.751692,7.54734 -3.458526,9.945759 -2.410412,3.38707 -11.66779,6.320608 -15.844003,3.45872 4.91237,-0.369497 7.238659,-7.12065 9.898368,-10.038587 0.940175,-1.031451 6.091941,-4.250306 6.916946,-5.569708 0.858484,0.811212 1.628735,1.392584 2.487215,2.203816 z"
         style="fill:url(#radialGradient3278);fill-opacity:1;fill-rule:evenodd;stroke:#000000;stroke-width:0;stroke-linecap:round;stroke-linejoin:round;stroke-miterlimit:4;stroke-opacity:1;stroke-dasharray:none" />
      <path
         inkscape:connector-curvature="0"
         sodipodi:nodetypes="csscc"
         inkscape:r_cy="true"
         inkscape:r_cx="true"
         id="path2624"
         d="m 40.229364,69.850617 c -1.367229,4.506328 -0.729229,9.542631 -4.101687,13.518989 -4.76262,5.615464 -13.69218,-5.971088 -8.505331,-10.836572 3.46808,-3.253198 6.245302,-4.469809 7.885086,-6.655644 1.573984,1.32441 3.147956,2.648831 4.721932,3.973227 z"
         style="fill:url(#linearGradient3281);fill-opacity:1;fill-rule:evenodd;stroke:#000000;stroke-width:0;stroke-linecap:round;stroke-linejoin:round;stroke-miterlimit:4;stroke-opacity:1;stroke-dasharray:none" />
    </g>
    <g
       id="g3213">
      <path
         style="fill:url(#radialGradient3283);fill-opacity:1;fill-rule:nonzero;stroke:none"
         d="m 33.792869,66.344806 c 0.233536,-0.780273 0.697404,-1.656792 1.333699,-2.008827 l 6.049374,5.083506 -1.508801,1.835329 -5.874272,-4.910008 z m 5.23426,4.375373 1.508795,-1.835353 2.133369,1.782129 c -0.184256,0.681356 -0.971451,1.25262 -1.715393,1.6571 l -1.926771,-1.603876 z"
         id="path3213"
         sodipodi:nodetypes="cccccccccc"
         inkscape:connector-curvature="0" />
      <path
         sodipodi:nodetypes="cccccccccc"
         id="path3217"
         d="m 35.164925,64.475957 c 0.229411,-0.783737 0.690748,-1.662381 1.330714,-2.011337 l 6.155053,5.172301 -1.509096,1.835088 -5.976671,-4.996052 z m 5.325511,4.452043 1.509084,-1.835109 2.170551,1.813372 c -0.180453,0.684551 -0.971044,1.252956 -1.719343,1.653779 L 40.490436,68.928 z"
         style="fill:url(#radialGradient3285);fill-opacity:1;fill-rule:nonzero;stroke:none"
         inkscape:connector-curvature="0" />
      <path
         style="fill:url(#radialGradient3287);fill-opacity:1;fill-rule:nonzero;stroke:none"
         d="m 36.49137,62.530569 c 0.22117,-0.790663 0.677444,-1.673563 1.324745,-2.016354 l 6.366414,5.349892 -1.509689,1.83459 -6.18147,-5.168128 z m 5.508003,4.605378 1.509674,-1.834616 2.244908,1.875854 c -0.172842,0.690941 -0.970229,1.253639 -1.727225,1.647157 l -2.027357,-1.688395 z"
         id="path3221"
         sodipodi:nodetypes="cccccccccc"
         inkscape:connector-curvature="0" />
      <path
         sodipodi:nodetypes="cccccccccc"
         id="path3225"
         d="m 37.876737,60.645843 c 0.217047,-0.794128 0.670788,-1.679154 1.321758,-2.018862 l 6.472097,5.438683 -1.509987,1.834347 -6.283868,-5.254168 z m 5.599247,4.682046 1.509971,-1.834368 2.282086,1.907089 c -0.169035,0.694139 -0.969825,1.253983 -1.731171,1.643846 l -2.060886,-1.716567 z"
         style="fill:url(#radialGradient3289);fill-opacity:1;fill-rule:nonzero;stroke:none"
         inkscape:connector-curvature="0" />
    </g>
  </g>
  <g
     id="g3885"
     transform="matrix(0.87762089,-0.23515781,0.23515781,0.87762089,-16.162997,21.388625)">
    <path
       inkscape:connector-curvature="0"
       style="fill:url(#radialGradient3109);fill-opacity:1;fill-rule:evenodd;stroke:#000000;stroke-width:1.44223821;stroke-linecap:butt;stroke-linejoin:miter;stroke-miterlimit:4;stroke-opacity:1;stroke-dasharray:none"
       d="m 53.15999,61.389001 c 1.456086,-6.922347 0.475251,-11.166811 4.368254,-20.76703 3.893001,-9.600217 12.727604,-24.5238 18.989758,-36.8342709 0.398855,-0.7840863 2.602567,-1.6462844 4.457597,-0.7959952 1.925785,0.8827172 2.612686,3.1703462 2.377912,3.9291781 -4.113339,13.295294 -8.261256,30.367242 -12.154257,39.967458 -3.893005,9.600216 -7.469172,11.755893 -11.203759,17.633837 -2.278502,-1.044391 -4.557003,-2.088787 -6.835505,-3.133177 z"
       id="path3033"
       inkscape:r_cx="true"
       inkscape:r_cy="true"
       sodipodi:nodetypes="czszszcc" />
    <path
       inkscape:connector-curvature="0"
       inkscape:r_cy="true"
       inkscape:r_cx="true"
       style="opacity:0.86976743;fill:url(#linearGradient3106);fill-opacity:1;fill-rule:evenodd;stroke:none"
       d="M 77.60285,2.9169893 C 77.230086,3.1340261 76.684225,3.5214389 76.547123,3.7909679 72.738415,11.278321 64.201088,26.665337 60.701072,34.731152 62.500217,34.362941 64.925085,33.769118 66.482324,32.074644 69.435417,28.861295 76.997276,8.5632866 78.503853,5.990086 79.450243,4.3736847 81.608107,5.8061485 83.073352,5.7951793 83.037503,4.8513902 82.187549,3.5293 80.983946,2.9776003 79.766578,2.419599 78.375443,2.4671647 77.60285,2.9169893 z"
       id="path3035"
       sodipodi:nodetypes="cscsscsc" />
    <path
       inkscape:connector-curvature="0"
       sodipodi:nodetypes="cccccccccc"
       id="path3037"
       d="M 72.923317,9.3947837 C 72.342609,9.9399956 71.793793,10.7411 71.804513,11.484063 l 7.672194,3.534609 0.87307,-2.18056 -7.42646,-3.4433283 z m 6.617622,3.0680433 -0.873095,2.180559 2.696143,1.250957 c 0.51719,-0.457678 0.625822,-1.433653 0.606895,-2.299335 l -2.429943,-1.132181 z"
       style="fill:url(#radialGradient3103);fill-opacity:1;fill-rule:nonzero;stroke:none" />
    <g
       transform="matrix(0.89297376,-0.2392716,0.2392716,0.89297376,3.8012594,16.479316)"
       id="g3039">
      <path
         sodipodi:nodetypes="cscscc"
         inkscape:r_cy="true"
         inkscape:r_cx="true"
         id="path3041"
         d="m 40.229364,69.850617 c -1.367229,4.506328 -0.729229,9.542631 -4.101687,13.518989 -4.76262,5.615464 -19.438881,6.111627 -26.8153978,-0.259049 8.3013378,-0.06982 11.6514268,-5.860037 17.0519228,-10.497094 3.491898,-2.998266 7.503446,-4.550238 9.14323,-6.736073 1.573984,1.32441 3.147956,2.648831 4.721932,3.973227 z"
         style="fill:url(#linearGradient3063);fill-opacity:1;fill-rule:evenodd;stroke:#000000;stroke-width:0;stroke-linecap:round;stroke-linejoin:round;stroke-miterlimit:4;stroke-opacity:1;stroke-dasharray:none"
         inkscape:connector-curvature="0" />
      <path
         style="fill:url(#radialGradient3065);fill-opacity:1;fill-rule:evenodd;stroke:#000000;stroke-width:0;stroke-linecap:round;stroke-linejoin:round;stroke-miterlimit:4;stroke-opacity:1;stroke-dasharray:none"
         d="m 38.915763,69.26624 c -0.635654,2.729336 -1.751692,7.54734 -3.458526,9.945759 -2.410412,3.38707 -11.66779,6.320608 -15.844003,3.45872 4.91237,-0.369497 7.238659,-7.12065 9.898368,-10.038587 0.940175,-1.031451 6.091941,-4.250306 6.916946,-5.569708 0.858484,0.811212 1.628735,1.392584 2.487215,2.203816 z"
         id="path3043"
         inkscape:r_cx="true"
         inkscape:r_cy="true"
         sodipodi:nodetypes="cscscc"
         inkscape:connector-curvature="0" />
      <path
         style="fill:url(#linearGradient3067);fill-opacity:1;fill-rule:evenodd;stroke:#000000;stroke-width:0;stroke-linecap:round;stroke-linejoin:round;stroke-miterlimit:4;stroke-opacity:1;stroke-dasharray:none"
         d="m 40.229364,69.850617 c -1.367229,4.506328 -0.729229,9.542631 -4.101687,13.518989 -4.76262,5.615464 -13.69218,-5.971088 -8.505331,-10.836572 3.46808,-3.253198 6.245302,-4.469809 7.885086,-6.655644 1.573984,1.32441 3.147956,2.648831 4.721932,3.973227 z"
         id="path3045"
         inkscape:r_cx="true"
         inkscape:r_cy="true"
         sodipodi:nodetypes="csscc"
         inkscape:connector-curvature="0" />
    </g>
    <g
       transform="matrix(0.89297376,-0.2392716,0.2392716,0.89297376,3.8012594,16.479316)"
       id="g3047">
      <path
         inkscape:connector-curvature="0"
         sodipodi:nodetypes="cccccccccc"
         id="path3049"
         d="m 33.792869,66.344806 c 0.233536,-0.780273 0.697404,-1.656792 1.333699,-2.008827 l 6.049374,5.083506 -1.508801,1.835329 -5.874272,-4.910008 z m 5.23426,4.375373 1.508795,-1.835353 2.133369,1.782129 c -0.184256,0.681356 -0.971451,1.25262 -1.715393,1.6571 l -1.926771,-1.603876 z"
         style="fill:url(#radialGradient3069);fill-opacity:1;fill-rule:nonzero;stroke:none" />
      <path
         inkscape:connector-curvature="0"
         style="fill:url(#radialGradient3071);fill-opacity:1;fill-rule:nonzero;stroke:none"
         d="m 35.164925,64.475957 c 0.229411,-0.783737 0.690748,-1.662381 1.330714,-2.011337 l 6.155053,5.172301 -1.509096,1.835088 -5.976671,-4.996052 z m 5.325511,4.452043 1.509084,-1.835109 2.170551,1.813372 c -0.180453,0.684551 -0.971044,1.252956 -1.719343,1.653779 L 40.490436,68.928 z"
         id="path3051"
         sodipodi:nodetypes="cccccccccc" />
      <path
         inkscape:connector-curvature="0"
         sodipodi:nodetypes="cccccccccc"
         id="path3053"
         d="m 36.49137,62.530569 c 0.22117,-0.790663 0.677444,-1.673563 1.324745,-2.016354 l 6.366414,5.349892 -1.509689,1.83459 -6.18147,-5.168128 z m 5.508003,4.605378 1.509674,-1.834616 2.244908,1.875854 c -0.172842,0.690941 -0.970229,1.253639 -1.727225,1.647157 l -2.027357,-1.688395 z"
         style="fill:url(#radialGradient3073);fill-opacity:1;fill-rule:nonzero;stroke:none" />
      <path
         inkscape:connector-curvature="0"
         style="fill:url(#radialGradient3075);fill-opacity:1;fill-rule:nonzero;stroke:none"
         d="m 37.876737,60.645843 c 0.217047,-0.794128 0.670788,-1.679154 1.321758,-2.018862 l 6.472097,5.438683 -1.509987,1.834347 -6.283868,-5.254168 z m 5.599247,4.682046 1.509971,-1.834368 2.282086,1.907089 c -0.169035,0.694139 -0.969825,1.253983 -1.731171,1.643846 l -2.060886,-1.716567 z"
         id="path3055"
         sodipodi:nodetypes="cccccccccc" />
    </g>
  </g>
  <g
     id="g3969"
     transform="matrix(0.87762089,-0.23515781,0.23515781,0.87762089,-9.4753656,27.412832)">
    <path
       sodipodi:nodetypes="czszszcc"
       inkscape:r_cy="true"
       inkscape:r_cx="true"
       id="path3901"
       d="m 80.432717,61.83246 c 1.456086,-6.922347 0.475251,-11.166811 4.368254,-20.76703 3.893001,-9.600217 12.727604,-24.5238 18.989759,-36.8342709 0.39885,-0.7840863 2.60257,-1.6462844 4.4576,-0.7959952 1.92578,0.8827172 2.61268,3.1703462 2.37791,3.9291781 C 106.5129,20.659636 102.36498,37.731584 98.471981,47.3318 94.578976,56.932016 91.002809,59.087693 87.268222,64.965637 84.98972,63.921246 82.711219,62.87685 80.432717,61.83246 z"
       style="fill:url(#radialGradient3961);fill-opacity:1;fill-rule:evenodd;stroke:#000000;stroke-width:1.44223821;stroke-linecap:butt;stroke-linejoin:miter;stroke-miterlimit:4;stroke-opacity:1;stroke-dasharray:none"
       inkscape:connector-curvature="0" />
    <path
       sodipodi:nodetypes="cscsscsc"
       id="path3903"
       d="m 104.87558,3.3604483 c -0.37277,0.2170368 -0.91863,0.6044496 -1.05573,0.8739786 C 100.01114,11.72178 91.473815,27.108796 87.973799,35.174611 89.772944,34.8064 92.197812,34.212577 93.755051,32.518103 96.708144,29.304754 104.27,9.0067456 105.77658,6.433545 c 0.94639,-1.6164013 3.10425,-0.1839375 4.5695,-0.1949067 -0.0358,-0.9437891 -0.8858,-2.2658793 -2.08941,-2.817579 -1.21736,-0.5580013 -2.6085,-0.5104356 -3.38109,-0.060611 z"
       style="opacity:0.86976743;fill:url(#linearGradient3958);fill-opacity:1;fill-rule:evenodd;stroke:none"
       inkscape:r_cx="true"
       inkscape:r_cy="true"
       inkscape:connector-curvature="0" />
    <path
       style="fill:url(#radialGradient3955);fill-opacity:1;fill-rule:nonzero;stroke:none"
       d="m 100.19604,9.8382427 c -0.580704,0.5452123 -1.12952,1.3463163 -1.1188,2.0892793 l 7.67219,3.534609 0.87307,-2.18056 -7.42646,-3.4433283 z m 6.61763,3.0680433 -0.8731,2.180559 2.69614,1.250957 c 0.51719,-0.457678 0.62583,-1.433653 0.6069,-2.299335 l -2.42994,-1.132181 z"
       id="path3905"
       sodipodi:nodetypes="cccccccccc"
       inkscape:connector-curvature="0" />
    <g
       id="g3907"
       transform="matrix(0.89297376,-0.2392716,0.2392716,0.89297376,31.073986,16.922775)">
      <path
         inkscape:connector-curvature="0"
         style="fill:url(#linearGradient3931);fill-opacity:1;fill-rule:evenodd;stroke:#000000;stroke-width:0;stroke-linecap:round;stroke-linejoin:round;stroke-miterlimit:4;stroke-opacity:1;stroke-dasharray:none"
         d="m 40.229364,69.850617 c -1.367229,4.506328 -0.729229,9.542631 -4.101687,13.518989 -4.76262,5.615464 -19.438881,6.111627 -26.8153978,-0.259049 8.3013378,-0.06982 11.6514268,-5.860037 17.0519228,-10.497094 3.491898,-2.998266 7.503446,-4.550238 9.14323,-6.736073 1.573984,1.32441 3.147956,2.648831 4.721932,3.973227 z"
         id="path3909"
         inkscape:r_cx="true"
         inkscape:r_cy="true"
         sodipodi:nodetypes="cscscc" />
      <path
         inkscape:connector-curvature="0"
         sodipodi:nodetypes="cscscc"
         inkscape:r_cy="true"
         inkscape:r_cx="true"
         id="path3911"
         d="m 38.915763,69.26624 c -0.635654,2.729336 -1.751692,7.54734 -3.458526,9.945759 -2.410412,3.38707 -11.66779,6.320608 -15.844003,3.45872 4.91237,-0.369497 7.238659,-7.12065 9.898368,-10.038587 0.940175,-1.031451 6.091941,-4.250306 6.916946,-5.569708 0.858484,0.811212 1.628735,1.392584 2.487215,2.203816 z"
         style="fill:url(#radialGradient3933);fill-opacity:1;fill-rule:evenodd;stroke:#000000;stroke-width:0;stroke-linecap:round;stroke-linejoin:round;stroke-miterlimit:4;stroke-opacity:1;stroke-dasharray:none" />
      <path
         inkscape:connector-curvature="0"
         sodipodi:nodetypes="csscc"
         inkscape:r_cy="true"
         inkscape:r_cx="true"
         id="path3913"
         d="m 40.229364,69.850617 c -1.367229,4.506328 -0.729229,9.542631 -4.101687,13.518989 -4.76262,5.615464 -13.69218,-5.971088 -8.505331,-10.836572 3.46808,-3.253198 6.245302,-4.469809 7.885086,-6.655644 1.573984,1.32441 3.147956,2.648831 4.721932,3.973227 z"
         style="fill:url(#linearGradient3935);fill-opacity:1;fill-rule:evenodd;stroke:#000000;stroke-width:0;stroke-linecap:round;stroke-linejoin:round;stroke-miterlimit:4;stroke-opacity:1;stroke-dasharray:none" />
    </g>
    <g
       id="g3915"
       transform="matrix(0.89297376,-0.2392716,0.2392716,0.89297376,31.073986,16.922775)">
      <path
         style="fill:url(#radialGradient3937);fill-opacity:1;fill-rule:nonzero;stroke:none"
         d="m 33.792869,66.344806 c 0.233536,-0.780273 0.697404,-1.656792 1.333699,-2.008827 l 6.049374,5.083506 -1.508801,1.835329 -5.874272,-4.910008 z m 5.23426,4.375373 1.508795,-1.835353 2.133369,1.782129 c -0.184256,0.681356 -0.971451,1.25262 -1.715393,1.6571 l -1.926771,-1.603876 z"
         id="path3917"
         sodipodi:nodetypes="cccccccccc"
         inkscape:connector-curvature="0" />
      <path
         sodipodi:nodetypes="cccccccccc"
         id="path3919"
         d="m 35.164925,64.475957 c 0.229411,-0.783737 0.690748,-1.662381 1.330714,-2.011337 l 6.155053,5.172301 -1.509096,1.835088 -5.976671,-4.996052 z m 5.325511,4.452043 1.509084,-1.835109 2.170551,1.813372 c -0.180453,0.684551 -0.971044,1.252956 -1.719343,1.653779 L 40.490436,68.928 z"
         style="fill:url(#radialGradient3939);fill-opacity:1;fill-rule:nonzero;stroke:none"
         inkscape:connector-curvature="0" />
      <path
         style="fill:url(#radialGradient3941);fill-opacity:1;fill-rule:nonzero;stroke:none"
         d="m 36.49137,62.530569 c 0.22117,-0.790663 0.677444,-1.673563 1.324745,-2.016354 l 6.366414,5.349892 -1.509689,1.83459 -6.18147,-5.168128 z m 5.508003,4.605378 1.509674,-1.834616 2.244908,1.875854 c -0.172842,0.690941 -0.970229,1.253639 -1.727225,1.647157 l -2.027357,-1.688395 z"
         id="path3921"
         sodipodi:nodetypes="cccccccccc"
         inkscape:connector-curvature="0" />
      <path
         sodipodi:nodetypes="cccccccccc"
         id="path3923"
         d="m 37.876737,60.645843 c 0.217047,-0.794128 0.670788,-1.679154 1.321758,-2.018862 l 6.472097,5.438683 -1.509987,1.834347 -6.283868,-5.254168 z m 5.599247,4.682046 1.509971,-1.834368 2.282086,1.907089 c -0.169035,0.694139 -0.969825,1.253983 -1.731171,1.643846 l -2.060886,-1.716567 z"
         style="fill:url(#radialGradient3943);fill-opacity:1;fill-rule:nonzero;stroke:none"
         inkscape:connector-curvature="0" />
    </g>
  </g>
</svg>
