<?xml version="1.0" encoding="UTF-8" standalone="no"?>
<!-- Created with Inkscape (http://www.inkscape.org/) -->

<svg
   xmlns:dc="http://purl.org/dc/elements/1.1/"
   xmlns:cc="http://creativecommons.org/ns#"
   xmlns:rdf="http://www.w3.org/1999/02/22-rdf-syntax-ns#"
   xmlns:svg="http://www.w3.org/2000/svg"
   xmlns="http://www.w3.org/2000/svg"
   xmlns:xlink="http://www.w3.org/1999/xlink"
   xmlns:sodipodi="http://sodipodi.sourceforge.net/DTD/sodipodi-0.dtd"
   xmlns:inkscape="http://www.inkscape.org/namespaces/inkscape"
   version="1.0"
   width="96"
   height="96"
   id="svg2493"
   inkscape:version="0.48.3.1 r9886"
   sodipodi:docname="online-accounts.svg"
   inkscape:export-filename="/media/prognt/Resource/1-icon/1-theme/1-live/zzz1oxg/48x48/apps/online-accounts.png"
   inkscape:export-xdpi="90"
   inkscape:export-ydpi="90">
  <sodipodi:namedview
     pagecolor="#ffffff"
     bordercolor="#666666"
     borderopacity="1"
     objecttolerance="10"
     gridtolerance="10"
     guidetolerance="10"
     inkscape:pageopacity="0"
     inkscape:pageshadow="2"
     inkscape:window-width="997"
     inkscape:window-height="710"
     id="namedview28"
     showgrid="false"
     inkscape:zoom="4"
     inkscape:cx="48"
     inkscape:cy="48"
     inkscape:window-x="0"
     inkscape:window-y="24"
     inkscape:window-maximized="0"
     inkscape:current-layer="svg2493"
     fit-margin-top="0"
     fit-margin-left="0"
     fit-margin-right="0"
     fit-margin-bottom="0" />
  <metadata
     id="metadata30">
    <rdf:RDF>
      <cc:Work
         rdf:about="">
        <dc:format>image/svg+xml</dc:format>
        <dc:type
           rdf:resource="http://purl.org/dc/dcmitype/StillImage" />
        <dc:title />
      </cc:Work>
    </rdf:RDF>
  </metadata>
  <defs
     id="defs2495">
    <clipPath
       clipPathUnits="userSpaceOnUse"
       id="clipPath3289">
      <path
         id="path3291"
         d="m 463.75,435.375 c -1.27779,0.21006 -2.03383,1.22613 -2,2 -0.0793,0.0317 -0.87749,1.12269 -0.95711,1.15441 1.25202,4.0018 5.15727,8.27208 16.75,7.96875 11.50018,-0.3009 15.9101,-5.26943 17.17586,-8.93566 -0.15115,-0.06 -0.3189,-0.12753 -0.46875,-0.1875 0.0338,-0.77387 -0.72221,-1.78994 -2,-2 -2.41363,3.74264 -4.00719,7.40137 -14.25,7.6875 -10.24281,0.28614 -13.36749,-3.94879 -14.25,-7.6875 z m -4.625,3.03125 c -5.44302,2.09883 -11.45793,4.26384 -17.21875,6.875 5.89563,-2.22917 11.62166,-3.16524 16.85447,-5.12684 -0.0106,-0.22696 0.25035,-1.50511 0.36428,-1.74816 z m 38.34375,0.21875 c 0.0532,0.16802 0.10109,0.31159 0.0937,0.46875 4.20807,1.57746 8.83741,3.15593 13.5625,4.875 -4.63354,-1.95913 -9.30506,-3.67529 -13.65625,-5.34375 z"
         style="fill:#f4f5f8;fill-opacity:1;fill-rule:evenodd;stroke:#98a2bf;stroke-width:1px;stroke-linecap:butt;stroke-linejoin:miter;stroke-opacity:1;filter:url(#filter3283)"
         sodipodi:nodetypes="cccscccsccccccccc"
         inkscape:connector-curvature="0" />
    </clipPath>
    <filter
       inkscape:collect="always"
       x="-0.020813677"
       width="1.0416274"
       y="-0.13193184"
       height="1.2638637"
       id="filter3283"
       color-interpolation-filters="sRGB">
      <feGaussianBlur
         inkscape:collect="always"
         stdDeviation="0.60896269"
         id="feGaussianBlur3285" />
    </filter>
    <clipPath
       clipPathUnits="userSpaceOnUse"
       id="clipPath3429">
      <path
         style="fill:none;stroke:#000000;stroke-width:1px;stroke-linecap:butt;stroke-linejoin:miter;stroke-opacity:1"
         d="m 303.70236,398.81874 -0.17678,-13.25825 2.65166,-7.24784 5.3033,-1.76777 8.48528,2.65165 7.42462,1.41421 7.24784,-3.71231 5.3033,0 3.71231,5.12653 1.94455,8.13172 -0.17678,5.3033 0.35355,1.94455 -7.77817,-15.02602 -9.54594,3.71231 -6.89429,0.17678 -10.42983,-4.94975 -7.42462,17.50089 z"
         id="path3431"
         inkscape:connector-curvature="0" />
    </clipPath>
    <clipPath
       clipPathUnits="userSpaceOnUse"
       id="clipPath3705">
      <path
         sodipodi:nodetypes="cccccccc"
         id="path3707"
         d="m 341.25,409.625 c -1.51321,7.20236 -5.74124,23.3964 -0.5,27.25 -0.64647,6.99978 -7.0786,9.64392 -15,11.1875 l -1.5,0 c -7.9214,-1.54358 -14.35353,-4.18772 -15,-11.1875 5.24124,-3.8536 1.01321,-20.04764 -0.5,-27.25 l 16.25,7.40625 16.25,-7.40625 z"
         style="opacity:0.74906365;fill:url(#radialGradient3709);fill-opacity:1;fill-rule:evenodd;stroke:none"
         inkscape:connector-curvature="0" />
    </clipPath>
    <linearGradient
       id="linearGradient3654-485">
      <stop
         style="stop-color:#f9eddf;stop-opacity:1;"
         offset="0"
         id="stop9490" />
      <stop
         id="stop9492"
         offset="0.5"
         style="stop-color:#f9eddf;stop-opacity:0.80575538;" />
      <stop
         style="stop-color:#f9eddf;stop-opacity:0;"
         offset="1"
         id="stop9494" />
    </linearGradient>
    <linearGradient
       id="linearGradient3654-682">
      <stop
         style="stop-color:#f9eddf;stop-opacity:1;"
         offset="0"
         id="stop9498" />
      <stop
         id="stop9500"
         offset="0.5"
         style="stop-color:#f9eddf;stop-opacity:0.80575538;" />
      <stop
         style="stop-color:#f9eddf;stop-opacity:0;"
         offset="1"
         id="stop9502" />
    </linearGradient>
    <linearGradient
       id="linearGradient3149-158">
      <stop
         style="stop-color:#faf0e4;stop-opacity:1;"
         offset="0"
         id="stop9506" />
      <stop
         id="stop9508"
         offset="0.591133"
         style="stop-color:#f8e7d4;stop-opacity:1;" />
      <stop
         style="stop-color:#f1cfa9;stop-opacity:1;"
         offset="1"
         id="stop9510" />
    </linearGradient>
    <linearGradient
       inkscape:collect="always"
       id="linearGradient3837-359">
      <stop
         style="stop-color:#f2e4d2;stop-opacity:1;"
         offset="0"
         id="stop9530" />
      <stop
         style="stop-color:#f2e4d2;stop-opacity:0;"
         offset="1"
         id="stop9532" />
    </linearGradient>
    <linearGradient
       inkscape:collect="always"
       id="linearGradient3837-979">
      <stop
         style="stop-color:#f2e4d2;stop-opacity:1;"
         offset="0"
         id="stop9536" />
      <stop
         style="stop-color:#f2e4d2;stop-opacity:0;"
         offset="1"
         id="stop9538" />
    </linearGradient>
    <linearGradient
       inkscape:collect="always"
       id="linearGradient3433-606">
      <stop
         style="stop-color:#ffffff;stop-opacity:1;"
         offset="0"
         id="stop9542" />
      <stop
         style="stop-color:#ffffff;stop-opacity:0;"
         offset="1"
         id="stop9544" />
    </linearGradient>
    <linearGradient
       inkscape:collect="always"
       id="linearGradient3368-229">
      <stop
         style="stop-color:#e7d2c0;stop-opacity:1;"
         offset="0"
         id="stop9548" />
      <stop
         style="stop-color:#e7d2c0;stop-opacity:0;"
         offset="1"
         id="stop9550" />
    </linearGradient>
    <linearGradient
       inkscape:collect="always"
       id="linearGradient3489-954">
      <stop
         style="stop-color:#7a5b3f;stop-opacity:1;"
         offset="0"
         id="stop9554" />
      <stop
         style="stop-color:#7a5b3f;stop-opacity:0;"
         offset="1"
         id="stop9556" />
    </linearGradient>
    <linearGradient
       id="linearGradient3733-936">
      <stop
         offset="0"
         id="stop9573"
         style="stop-color:#e3e0e0;stop-opacity:1;" />
      <stop
         offset="1"
         id="stop9575"
         style="stop-color:#ffffff;stop-opacity:1;" />
    </linearGradient>
    <linearGradient
       id="linearGradient3397-32">
      <stop
         style="stop-color:#f3f4f8;stop-opacity:1;"
         offset="0"
         id="stop9579" />
      <stop
         style="stop-color:#fcfcfe;stop-opacity:1;"
         offset="1"
         id="stop9581" />
    </linearGradient>
    <linearGradient
       inkscape:collect="always"
       id="linearGradient3516-247">
      <stop
         style="stop-color:#c5cbde;stop-opacity:1;"
         offset="0"
         id="stop9585" />
      <stop
         style="stop-color:#c5cbde;stop-opacity:0;"
         offset="1"
         id="stop9587" />
    </linearGradient>
    <linearGradient
       inkscape:collect="always"
       xlink:href="#linearGradient3433-606"
       id="linearGradient3254"
       gradientUnits="userSpaceOnUse"
       x1="324.65039"
       y1="398.85446"
       x2="325.7691"
       y2="370.57019" />
    <linearGradient
       inkscape:collect="always"
       xlink:href="#linearGradient3516-247"
       id="linearGradient3171"
       gradientUnits="userSpaceOnUse"
       gradientTransform="matrix(0.58396161,0,0,0.58357906,-130.83686,-190.91496)"
       x1="283.50647"
       y1="463.03894"
       x2="312.78384"
       y2="443.03894" />
    <linearGradient
       inkscape:collect="always"
       xlink:href="#linearGradient3397-32"
       id="linearGradient3174"
       gradientUnits="userSpaceOnUse"
       gradientTransform="matrix(0.58396161,0,0,0.58357906,-130.83683,-190.91494)"
       x1="325.29688"
       y1="481.87405"
       x2="325.29688"
       y2="426.80276" />
    <linearGradient
       inkscape:collect="always"
       xlink:href="#linearGradient3733-936"
       id="linearGradient3177"
       gradientUnits="userSpaceOnUse"
       gradientTransform="matrix(0.31337979,0,0,1.0874593,-130.83686,-190.91496)"
       x1="563.64667"
       y1="214.96599"
       x2="568.98871"
       y2="214.96599" />
    <linearGradient
       inkscape:collect="always"
       xlink:href="#linearGradient3489-954"
       id="linearGradient3186"
       gradientUnits="userSpaceOnUse"
       x1="304.88663"
       y1="385.86127"
       x2="345.62039"
       y2="384.62384"
       gradientTransform="matrix(0.58396161,0,0,0.58357906,-131.13345,-190.91494)" />
    <radialGradient
       inkscape:collect="always"
       xlink:href="#linearGradient3368-229"
       id="radialGradient3189"
       gradientUnits="userSpaceOnUse"
       gradientTransform="matrix(-0.40753559,-0.06424838,0.04868055,-0.30838272,180.83624,161.75297)"
       cx="332.49338"
       cy="369.61789"
       fx="332.49338"
       fy="369.61789"
       r="22.779818" />
    <radialGradient
       inkscape:collect="always"
       xlink:href="#linearGradient3837-979"
       id="radialGradient3194"
       gradientUnits="userSpaceOnUse"
       gradientTransform="matrix(0.58396161,0,0,1.5038075,-130.83686,-556.40877)"
       cx="303.71942"
       cy="397.17728"
       fx="303.71942"
       fy="397.17728"
       r="0.79621875" />
    <radialGradient
       inkscape:collect="always"
       xlink:href="#linearGradient3837-359"
       id="radialGradient3197"
       gradientUnits="userSpaceOnUse"
       gradientTransform="matrix(-0.58396161,0,0,1.5038075,248.06532,-557.23406)"
       cx="303.71942"
       cy="397.17728"
       fx="303.71942"
       fy="397.17728"
       r="0.79621875" />
    <radialGradient
       inkscape:collect="always"
       xlink:href="#linearGradient3149-158"
       id="radialGradient3203"
       gradientUnits="userSpaceOnUse"
       gradientTransform="matrix(0.58396161,0,0,0.84011205,-130.70907,-292.54403)"
       cx="324.39758"
       cy="396.09259"
       fx="330.04404"
       fy="392.75388"
       r="22.444885" />
    <radialGradient
       inkscape:collect="always"
       xlink:href="#linearGradient3654-682"
       id="radialGradient3207"
       gradientUnits="userSpaceOnUse"
       gradientTransform="matrix(-0.40428114,0,0,0.69019442,192.67787,-236.63628)"
       cx="312"
       cy="431.38034"
       fx="311.27777"
       fy="433.70554"
       r="16.25" />
    <radialGradient
       inkscape:collect="always"
       xlink:href="#linearGradient3654-485"
       id="radialGradient3210"
       gradientUnits="userSpaceOnUse"
       gradientTransform="matrix(0.40428114,0,0,0.69019442,-74.776516,-236.63628)"
       cx="312"
       cy="431.38034"
       fx="311.27777"
       fy="433.70554"
       r="16.25" />
    <radialGradient
       inkscape:collect="always"
       xlink:href="#linearGradient13101"
       id="radialGradient3151"
       gradientUnits="userSpaceOnUse"
       cx="16.536655"
       cy="31.563871"
       fx="16.536655"
       fy="31.563871"
       r="16.335602" />
    <linearGradient
       inkscape:collect="always"
       id="linearGradient13101">
      <stop
         style="stop-color:#000000;stop-opacity:1;"
         offset="0"
         id="stop13103" />
      <stop
         style="stop-color:#000000;stop-opacity:0;"
         offset="1"
         id="stop13105" />
    </linearGradient>
    <radialGradient
       inkscape:collect="always"
       xlink:href="#linearGradient3142"
       id="radialGradient3153"
       gradientUnits="userSpaceOnUse"
       cx="138.80981"
       cy="147.785"
       fx="135.29474"
       fy="217.461"
       r="92.351021" />
    <linearGradient
       id="linearGradient3142">
      <stop
         style="stop-color:#3cc1ee;stop-opacity:1;"
         offset="0"
         id="stop3144" />
      <stop
         style="stop-color:#141b7c;stop-opacity:1;"
         offset="1"
         id="stop3146" />
    </linearGradient>
    <linearGradient
       inkscape:collect="always"
       xlink:href="#XMLID_2_-6"
       id="linearGradient3155"
       gradientUnits="userSpaceOnUse"
       gradientTransform="matrix(0.14914771,0,0,0.14914771,175.56872,-65.94623)"
       x1="-1085.9586"
       y1="539.40955"
       x2="-474.68497"
       y2="375.61926" />
    <radialGradient
       gradientUnits="userSpaceOnUse"
       gradientTransform="matrix(0.8232,0.2312,0.2703,-0.9626,-96.2274,-315.3433)"
       fy="-289.9133"
       fx="297.44989"
       r="17.1528"
       cy="-290.5918"
       cx="299.44821"
       id="XMLID_2_-6">
      <stop
         id="stop228"
         style="stop-color:#FFFFFF"
         offset="0" />
      <stop
         id="stop230"
         style="stop-color:#91d3ff;stop-opacity:0;"
         offset="1" />
    </radialGradient>
    <linearGradient
       inkscape:collect="always"
       xlink:href="#linearGradient4046"
       id="linearGradient3157"
       gradientUnits="userSpaceOnUse"
       gradientTransform="matrix(0.80391882,0,0,0.80078707,-4.6136354,-48.9959)"
       x1="22.196054"
       y1="-3.0905473"
       x2="51.625942"
       y2="35.567139" />
    <linearGradient
       inkscape:collect="always"
       id="linearGradient4046">
      <stop
         style="stop-color:#ffffff;stop-opacity:1;"
         offset="0"
         id="stop4048" />
      <stop
         style="stop-color:#ffffff;stop-opacity:0;"
         offset="1"
         id="stop4050" />
    </linearGradient>
    <filter
       inkscape:collect="always"
       id="filter3930">
      <feGaussianBlur
         inkscape:collect="always"
         stdDeviation="0.67202149"
         id="feGaussianBlur3932" />
    </filter>
  </defs>
  <g
     id="g3143"
     transform="translate(-2.7500534e-8,49)">
    <path
       transform="matrix(2.6935035,0,0,0.9794558,3.4584607,-0.91541683)"
       d="m 32.872257,31.563871 c 0,9.021904 -7.313698,16.335602 -16.335602,16.335602 -9.0219033,0 -16.33560138,-7.313698 -16.33560138,-16.335602 0,-9.021903 7.31369808,-16.335601 16.33560138,-16.335601 9.021904,0 16.335602,7.313698 16.335602,16.335601 z"
       sodipodi:ry="16.335602"
       sodipodi:rx="16.335602"
       sodipodi:cy="31.563871"
       sodipodi:cx="16.536655"
       id="path7005"
       style="opacity:0.75;fill:url(#radialGradient3151);fill-opacity:1;fill-rule:nonzero;stroke:none"
       sodipodi:type="arc" />
    <g
       id="g3131">
      <path
         sodipodi:type="arc"
         style="fill:url(#radialGradient3153);fill-opacity:1;stroke:none"
         id="path2285"
         sodipodi:cx="138.80981"
         sodipodi:cy="147.785"
         sodipodi:rx="92.351021"
         sodipodi:ry="92.351021"
         d="m 231.16084,147.785 c 0,51.00406 -41.34697,92.35102 -92.35103,92.35102 -51.004056,0 -92.351016,-41.34696 -92.351016,-92.35102 0,-51.004057 41.34696,-92.351017 92.351016,-92.351017 51.00406,0 92.35103,41.34696 92.35103,92.351017 z"
         transform="matrix(0.47644303,0,0,0.47644303,-18.134968,-74.411135)" />
      <path
         style="fill:#000000;stroke:none"
         d=""
         id="path2197"
         inkscape:connector-curvature="0" />
      <path
         style="fill:url(#linearGradient3155);fill-opacity:1;stroke:none"
         d="M 42.979749,34.870179 C 40.307211,33.559531 41.662255,30.230903 41.719243,27.419616 42.472044,23.237569 36.513065,23.645633 35.85243,19.808202 35.09382,18.174737 32.757782,16.74401 34.541836,15.262129 32.44063,13.39322 38.023835,12.427848 36.212687,9.9098849 35.82311,6.8933465 34.287834,9.4593677 33.493049,8.3974512 30.912071,7.2843839 31.296215,5.4383632 29.37576,3.7979961 26.961118,1.4428359 24.325108,0.47934324 22.110819,-2.1734056 20.747553,-5.4946974 20.586678,-9.626217 20.200049,-13.417507 c -1.315173,-2.098812 -0.216265,6.7380239 -0.78526,5.409655 -1.126242,-3.167786 0.565069,-6.202824 -0.298593,-9.449764 0.208217,-3.036324 2.027427,-5.92633 4.034944,-7.729477 0.86645,-2.183407 0.581285,1.070285 1.506991,-1.662938 -0.1594,-2.890608 3.202552,-5.557582 3.369069,-7.302489 0.846853,-1.559513 -0.315769,-2.689487 0.382831,-2.6271 2.772665,-0.88274 -4.24395,0.281733 -1.935461,-0.413895 1.510771,-1.117215 3.16858,-2.508059 4.919162,-2.638437 1.316551,-1.734162 0.402849,1.349595 2.174198,-0.804373 3.61103,-0.443819 -1.510558,4.382277 1.923798,4.180654 0.462606,1.011428 0.246691,3.142135 1.372099,3.274517 2.01081,-0.488534 2.092558,2.070166 3.509325,0.262416 0.166941,-1.973991 1.333893,-0.807606 0.542586,0.74898 0.723928,-0.543667 -0.234029,2.052822 1.409454,-0.195773 1.802352,0.550754 -1.456004,2.290873 -2.311788,1.582139 1.105666,1.778225 -2.350484,0.09704 -1.320003,1.410048 -3.257672,0.931568 -2.496197,3.810492 -0.07882,5.081932 1.218258,0.468847 -0.06317,4.593237 2.025205,2.356643 -0.0735,-1.693379 2.002772,-2.81445 1.387172,-4.330342 -0.06574,-2.208539 2.58486,-2.094024 2.979456,-0.152869 -0.759506,0.265397 0.81741,2.609826 1.70376,0.119917 0.905852,0.997541 0.884583,3.241354 2.781474,3.629488 -3.862439,1.114 2.574256,-0.309558 0.260093,1.923375 -2.018107,1.588961 -5.219856,-0.04217 -6.484864,2.893613 0.809257,-1.617245 4.449073,-1.358275 2.25166,-0.539965 0.586562,1.221958 3.399172,1.945946 0.638822,2.665325 -2.008887,0.639967 2.208709,-1.98946 -0.882332,-0.783034 -2.376769,0.452532 -2.176799,2.655826 -4.441675,2.984843 -0.83645,1.114754 -2.597631,0.649152 -1.482195,2.766205 0.23872,1.3485815 -4.76803,1.7557714 -3.806004,4.5855677 0.764949,1.7982902 -0.486977,4.095716 -1.020675,1.0974009 0.828487,-2.290158 -3.837772,-3.8966043 -3.75817,-2.6964379 -1.82108,-0.7453452 -4.773806,-0.9664491 -5.174081,2.0949813 -1.960475,2.5912521 1.951453,7.8577223 3.597003,3.8755817 4.650919,-0.6548568 -2.287764,4.0981896 1.575219,4.2217797 3.781332,-0.1328478 -0.480125,6.7424 4.282023,5.2685609 2.088104,2.7342147 2.565731,-1.3614232 5.127717,-1.0164788 0.204788,-0.2081158 0.132192,3.9543065 0.454442,0.8945105 2.337661,0.012642 4.849257,0.4962643 7.111129,1.4003058 1.523806,2.8496322 6.429518,1.3228052 7.726536,4.6032492 -1.565558,1.543056 0.08202,3.636647 1.666251,1.505551 2.133735,0.349271 4.071656,0.842374 6.50361,0.943331 5.256359,0.998091 -1.736047,4.824528 -1.495366,7.752725 -1.514804,3.385965 -6.109439,2.890938 -7.723881,6.140948 -1.044374,1.517813 -4.154037,1.553882 -4.816557,1.752145 1.450523,1.68329 -3.779399,0.869903 -3.823947,1.930828 -1.337163,0.89054 0.327399,1.085423 -1.840721,1.433214 l -0.432479,-0.04672 -0.523315,-0.112584 -1.42e-4,-7.3e-5 z m -1.847801,-1.564111 c -0.0065,-0.501541 0.457879,0.496845 0,0 z M 55.37555,15.333765 c 0.532928,-1.791755 2.706003,0.916741 0,0 z M 85.659473,11.8043 C 87.017752,8.5371093 88.129269,5.0235914 87.060178,1.5946476 87.566694,-0.31929728 86.728564,-1.4802357 85.887914,-0.0999526 83.943298,-1.0894634 81.897284,6.6052913 78.551726,3.2825766 77.314339,1.0299691 76.206375,2.1376841 75.756841,-0.27593632 75.948995,-3.3042053 74.038995,-5.6438563 75.114256,-8.7526456 c 1.972179,-2.6527024 -1.272352,-7.4743564 2.066631,-8.5749054 0.436548,-2.118774 2.552825,-6.002667 3.740596,-2.213736 2.136545,-0.227944 2.805108,-0.883476 2.010779,-3.030497 2.988095,-1.008291 -2.430479,-8.551547 -1.449522,-4.521974 -1.82281,1.051669 -1.98723,-3.992626 -2.911204,-5.404774 -1.533697,-0.261701 -3.502156,-2.388126 -1.398994,0.17745 1.021288,0.770859 -1.775498,-0.17523 0.289105,1.493629 1.571041,1.431199 2.799128,4.088979 2.803129,5.361519 -1.040387,-1.619857 -6.568167,-1.96631 -2.771053,-0.222114 2.195419,0.09098 2.820279,2.185731 -0.10549,0.781007 -3.022209,-1.061916 -1.642034,4.100561 -0.935866,5.923181 -0.805009,3.865361 -3.687842,0.818259 -4.456577,-1.585412 3.011783,-1.281099 1.383614,-3.79836 -0.849932,-4.241033 0.963057,-0.748488 0.509092,-2.604858 0.0301,-4.078186 -0.878199,-2.019858 0.639992,-1.422318 0.847039,-3.360843 -1.035748,-1.790161 -2.147978,-2.806964 -3.362238,-4.030716 0.847217,3.020741 -5.667147,-3.468395 -2.267308,0.25933 1.508686,2.069541 3.162534,1.618277 4.344377,4.074666 -0.242964,0.851999 -3.742237,-2.582368 -2.306488,0.144526 -1.657901,-0.295608 -1.195717,-1.224049 -2.06958,-1.147428 -0.516603,-2.545708 -4.155292,-4.085685 -4.083166,-6.309922 0.925209,-0.502072 2.974495,-0.911433 2.583057,0.526584 3.580824,0.659738 -0.908884,-1.861359 -2.042703,-2.744204 -1.356121,-1.56128 -3.391934,-2.252503 -4.855704,-2.297988 1.783367,-0.09794 4.465072,0.157673 1.137719,-0.368504 -1.201322,0.244429 -2.295428,-0.49818 -2.898785,-0.46558 -1.309627,0.01417 -7.134977,0.04769 -5.562707,-0.803256 2.196881,-0.409977 -3.880519,-0.01047 -4.783667,-0.545132 -3.131338,1.002445 -6.851606,0.82841 -9.461411,2.96236 -1.307802,0.601205 -5.900202,2.987503 -2.382785,0.604014 -1.055938,-0.0015 -2.411215,0.299514 -0.314625,-1.175291 1.072481,-0.756411 3.840654,-1.391013 6.124099,-2.207965 14.759828,-3.416797 31.064289,2.391769 40.522636,14.189588 2.111278,2.438102 4.634211,6.54666 5.381122,8.759898 -3.464278,-3.339174 2.192834,3.049491 1.984874,4.831999 3.029024,9.6824303 2.479181,20.6851702 -2.050236,29.796655 z M 43.816604,2.7307806 c -0.272638,-0.539671 1.39107,0.3774569 0,0 z M 40.58198,2.5723378 C 38.283011,1.7439128 41.029545,0.21529238 42.692548,2.3046089 41.988932,2.2339935 41.135629,2.4796484 40.58198,2.5723378 z M 38.896235,2.1366204 c 0.577668,-0.2743404 0.013,-0.1007149 0,0 z M 37.144913,0.47193885 C 36.652777,-1.4715761 30.89688,-1.8625473 34.010109,-2.0014215 c 1.035636,-0.1698387 7.256327,4.0457034 3.134804,2.47336035 z M 39.659109,-12.035696 c 0.122728,-2.448667 0.586078,1.238072 0,0 z m 8.259055,-4.892517 c 0.344382,-1.353904 0.848073,0.457871 0,0 z m -1.003648,-0.267769 c 0.549106,-0.169169 0.273996,0.259752 0,0 z m 4.673229,-0.594509 c -0.08406,-1.336251 0.748689,0.839816 0,0 z m -0.586773,-0.309265 c -2.924942,1.063769 -1.555778,-1.967447 -0.746305,-2.372544 -1.254208,1.642456 2.780877,0.75624 0.746305,2.372544 z m -4.117103,-1.306167 c -0.182255,-0.641783 1.207434,0.743338 0,0 z m 31.011854,-3.349083 c -1.464628,-2.0696 1.34409,1.062338 0,0 z m 1.641739,0.0463 c 0.152162,-1.577019 1.561214,0.683458 0,0 z m -2.554527,-1.369811 c -0.514819,-0.732764 0.915971,0.890779 0,0 z m 3.785002,-0.881803 c -0.785181,-1.294268 1.038726,0.378528 0,0 z m -12.699289,-0.6342 c -0.867947,-0.830149 -0.907318,-3.296725 0.451202,-1.112755 0.357464,0.159448 -0.04018,1.658786 -0.451202,1.112755 z m 1.993583,-0.646271 c -0.755109,-0.443786 -1.284045,-2.031617 -3.020694,-2.593233 -1.999164,-2.525754 2.529703,0.948296 3.699101,1.287812 1.112428,0.216009 -1.05401,2.81703 -0.678407,1.305421 z m -46.038048,-0.208177 c 0.13615,-2.941354 0.851294,-1.087419 0,0 z m 29.741366,-0.444766 c -2.301373,-0.906006 -3.749019,-3.065111 -2.918162,-5.153684 -1.078657,-0.381223 -0.08806,-0.74279 -1.216702,-1.157926 -0.303607,-2.289823 -3.350607,-2.301176 -2.528879,-2.908594 0.174848,-0.590254 1.222828,-2.211057 2.606139,-2.021755 0.773836,-0.940522 2.158209,-0.853333 1.547149,-0.133435 1.439907,0.109078 1.522307,-0.888 1.747653,0.40078 0.806158,0.990356 3.640725,2.133943 2.041463,3.110462 2.307115,0.731222 1.140695,0.834053 0.629632,0.798352 0.577978,0.536426 -0.517244,0.922749 1.252699,0.52364 -1.152416,1.459566 -1.904968,2.407207 -2.763733,3.852653 0.171652,0.559901 0.643972,3.117015 -0.397259,2.689507 z m -8.101763,-0.925381 c -0.705782,-1.426135 -4.050854,-1.593683 -1.176016,-2.119363 2.207351,-2.754053 -3.021936,-2.487833 -2.362986,-3.988166 1.925835,-1.617604 0.617359,-0.187985 0.63898,0.712828 0.929321,-1.885904 1.13279,-0.363905 2.417837,-0.342344 0.945849,1.076858 1.860003,2.630094 2.587405,3.64667 -0.766651,0.608335 -2.464926,-0.996051 -0.865425,1.199795 0.171385,1.50067 -2.089398,-0.918765 -0.635049,1.168637 l -0.221097,-0.03863 -0.38366,-0.239431 1.1e-5,4e-6 z m -3.860675,-0.165734 c 0.69757,-0.672341 0.100822,0.432449 0,0 z m -1.23053,-1.328694 c -0.09479,-2.80758 2.761732,1.24714 0.441504,0.04534 l -0.323595,0.162545 -0.117911,-0.207884 2e-6,-3e-6 z m 18.774998,-1.57299 c 0.565077,-3.945101 3.450309,1.364967 0,0 z m 10.846776,0.150488 c -2.267147,-2.002918 1.067239,0.135416 0,0 z M 43.914219,-31.05893 c 0.713538,-1.111466 0.208505,0.770132 0,0 z m 14.792295,-0.433128 c 0.255513,-0.703104 0.157356,0.884824 0,0 z m 11.773347,0.127046 c 0.549072,-0.169158 0.273998,0.259737 0,0 z m -20.622774,-0.655625 c 0.322889,-0.618618 1.086375,0.783557 0,0 z M 39.331865,-32.9322 c 0.261565,-1.105048 0.893653,0.598096 0,0 z m -1.215332,-0.882395 c -1.443179,0.196334 -2.188618,-1.811632 -0.530075,-1.253144 -1.212497,-1.297657 2.020153,-1.687733 1.271283,-0.129225 1.963217,-1.998035 -0.221376,2.807327 -0.741208,1.382369 z m -0.825143,0.05454 c 0.928112,-0.147956 0.01157,0.258065 0,0 z m 7.04723,-0.409272 c 0.533162,-0.638792 1.163698,0.871542 0,0 z m -4.068076,-0.485389 c 1.336661,-2.029499 1.381999,0.784305 0,0 z m 1.08512,0.101991 c 1.195178,-1.247877 2.041666,-0.04033 0,0 z m 2.610084,-0.440247 c -1.704261,-0.749598 -0.917961,-1.888009 0.338201,-0.458078 1.166686,-0.23204 0.102858,1.067272 -0.338201,0.458078 z m -1.71519,-0.756367 c 0.791772,-0.692973 0.225854,0.642392 0,0 z m 2.266934,-0.14713 c -1.089746,-0.780468 1.083846,-0.281068 0.897279,-1.53828 0.519335,0.434985 1.906289,-0.829852 0.02164,-0.53241 1.847535,-1.197279 3.779863,-0.218829 1.452485,0.834584 -1.30119,0.30227 -1.280927,1.664737 -2.371402,1.236106 z m -2.714381,-0.114588 c 0.231773,-0.772892 1.380671,-0.465508 0,0 z m -4.968457,-0.6203 c 2.003537,-2.189499 3.428652,0.927244 0,0 z m 3.327826,0.01666 c -1.062472,-0.993971 2.138772,-0.240254 0,5e-6 l 0,-5e-6 z m 4.026992,-0.476971 c 0.623135,-1.808968 1.812637,-0.165264 0,0 z m -0.745737,-0.14915 c 0.422587,0.007 0.158239,-0.01786 0,0 z m -0.495338,-0.105984 c 0.0092,-1.13683 0.663727,0.208991 0,0 z m -17.475901,-0.1906 c 0.08012,-0.373278 0.650596,0.566864 0,0 z m 14.615416,-0.300005 c -1.061597,-0.496073 1.766844,0.276193 0,0 z m -3.246457,-4.791228 c 0.800765,-0.444388 -0.36341,0.458374 0,0 z"
         id="path2185"
         inkscape:connector-curvature="0" />
      <path
         style="fill:url(#linearGradient3157);fill-opacity:1;stroke:none"
         d="m 47.771284,-46.818759 c -18.823957,0 -34.77711,12.325049 -40.1762758,29.303803 4.0808538,5.8628 11.5487938,10.6406505 20.9013728,13.4131838 0.258419,-1.1545839 0.522023,-2.3113754 0.825375,-3.4784189 5.589449,-21.5036509 16.968206,-37.5015339 26.654714,-38.4377809 -2.654324,-0.522639 -5.397468,-0.800787 -8.205186,-0.800787 z"
         id="path4041-0"
         sodipodi:nodetypes="cccscc"
         inkscape:connector-curvature="0" />
    </g>
  </g>
  <g
     id="g3934">
    <path
       id="path6066"
       d="m 58.5625,20.15625 c -7.871697,0 -14.281244,6.380354 -14.28125,14.25 0,1.299574 -0.01403,2.695244 0.1875,4.09375 -0.05136,0.01934 -0.10636,0.0074 -0.15625,0.03125 -0.637146,0.304394 -1.112154,1.090173 -1.03125,1.90625 a 1.0001,1.0001 0 0 0 0.03125,0.125 c 0.574945,2.695841 1.116284,4.370992 1.71875,5.5 0.461796,0.865395 1.032092,1.350842 1.625,1.65625 0.849266,2.336739 1.957671,4.491939 3.03125,6.3125 0.309169,1.736799 0.543647,3.536084 0.5625,5.09375 0.01876,1.549937 -0.220922,2.824812 -0.625,3.53125 -0.0035,0.0061 0.0035,0.02527 0,0.03125 -0.330158,0.230976 -0.596601,0.496522 -0.75,0.84375 -4.031376,1.595895 -8.849873,3.235076 -13.25,5.4375 -0.769423,0.385128 -1.496773,0.988712 -2.15625,1.6875 -0.196617,0.208347 -0.439051,0.453992 -0.65625,0.71875 -0.809595,0.984814 -1.383842,1.987379 -1.6875,2.8125 -1.290467,3.506557 -2.522746,7.532178 -2.90625,8.84375 l 0.0625,0 C 28.012634,83.45964 27.75,83.913102 27.75,84.4375 c 0,0.764395 0.354736,1.451083 0.875,2 0.520264,0.548917 1.230755,1.013123 2.0625,1.4375 1.66349,0.848755 3.929366,1.554619 6.71875,2.15625 5.578769,1.203262 13.190441,1.9375 21.59375,1.9375 8.374604,0 15.965255,-0.740093 21.53125,-1.9375 2.782997,-0.598703 5.051364,-1.281551 6.71875,-2.125 0.833693,-0.421724 1.505697,-0.894938 2.03125,-1.4375 0.377245,-0.389454 0.539998,-0.896593 0.6875,-1.40625 L 90,85.09375 90.125,84.9375 A 1.0001,1.0001 0 0 0 90.28125,84 c 0,0 -0.02594,-0.109949 -0.0625,-0.21875 -0.01104,-0.03284 -0.019,-0.02463 -0.03125,-0.0625 a 1.0001,1.0001 0 0 0 -0.03125,-0.15625 1.0001,1.0001 0 0 0 0,-0.03125 C 89.93269,82.76054 88.524812,77.991163 87.125,74.1875 86.811853,73.336582 86.207078,72.349152 85.40625,71.375 c -0.18201,-0.221871 -0.392515,-0.472402 -0.625,-0.71875 -0.659477,-0.698787 -1.386823,-1.302372 -2.15625,-1.6875 -1.237698,-0.619516 -2.509774,-1.150254 -3.78125,-1.6875 -0.484111,-0.204555 -0.955581,-0.429757 -1.4375,-0.625 -0.169711,-0.06854 -0.359829,-0.156982 -0.59375,-0.25 -0.412423,-0.164665 -0.798407,-0.297919 -1.15625,-0.4375 -0.02594,-0.01199 -0.0017,-0.01965 -0.03125,-0.03125 -1.173564,-0.45746 -2.330917,-0.861197 -3.4375,-1.28125 -0.41951,-0.158718 -0.796453,-0.30723 -1.21875,-0.46875 0.148146,0.05676 0.107051,0.0264 -0.125,-0.0625 C 70.322031,63.92508 69.819802,63.701247 69.3125,63.5 69.092901,63.030402 68.733238,62.69383 68.21875,62.46875 67.827382,61.64558 67.607755,60.242563 67.6875,58.5625 c 0.08467,-1.783772 0.412392,-3.806769 0.78125,-5.6875 1.077965,-1.97563 2.145846,-4.227739 2.875,-6.625 1.021756,-0.996347 1.740552,-2.677232 2.5625,-6.53125 a 1.0001,1.0001 0 0 0 0.03125,-0.125 c 0.07147,-0.721004 -0.279479,-1.423863 -0.8125,-1.78125 -0.102892,-0.06899 -0.232822,0.01511 -0.34375,-0.03125 0.105527,-1.143349 0.15625,-2.279841 0.15625,-3.375 0,-7.417343 -5.686562,-13.510455 -12.9375,-14.1875 -0.139965,-0.0142 -0.329388,-0.04693 -0.59375,-0.0625 -0.118658,-0.0056 -0.140737,-0.0022 -0.09375,0 -0.294072,-0.01481 -0.553995,0 -0.75,0 z"
       style="opacity:0.75000000000000000;fill:#000000;fill-opacity:1;stroke:none;filter:url(#filter3930)"
       inkscape:connector-curvature="0" />
    <path
       style="fill:#000000;fill-opacity:1;stroke:none"
       d="m 58.552442,21.140933 c -7.33339,0 -13.278914,5.950338 -13.27892,13.27892 0,1.773152 -0.13834,3.532784 0.362812,5.097508 -0.478446,-0.42208 -1.436274,-0.13054 -1.342404,0.816328 1.130362,5.30012 2.13412,6.448354 3.138322,6.693882 0.865418,2.48528 2.066368,4.849316 3.210888,6.766444 0.64066,3.57465 1.013754,7.464396 -0.16326,9.433112 -0.0088,0.0146 -0.02738,0.02188 -0.03628,0.03628 -0.527216,0.220496 -0.832684,0.69636 -0.816326,1.070294 -0.0463,0.0186 -0.09862,0.03594 -0.14512,0.0544 -4.10907,1.636224 -9.034342,3.281254 -13.424044,5.47846 -0.617936,0.309302 -1.271284,0.854734 -1.868482,1.48753 -0.19906,0.210936 -0.396372,0.428618 -0.580498,0.653062 -0.740476,0.900736 -1.314352,1.871942 -1.560092,2.539684 -1.27531,3.46537 -2.470622,7.489176 -2.848074,8.78005 -0.2819,0.359004 -0.435376,0.730192 -0.435376,1.106576 0,3.613312 13.532178,6.548758 30.222242,6.548758 16.63282,0 30.129868,-2.91626 30.22224,-6.512476 l 0.12698,-0.16324 c 2e-6,0 -0.12942,-0.417448 -0.14512,-0.471656 l 0.12698,-0.14512 -0.12698,0.10884 c -0.220086,-0.758734 -1.61266,-5.50041 -2.9932,-9.251706 -0.245736,-0.667742 -0.819616,-1.638946 -1.560092,-2.539684 -0.18412,-0.224444 -0.381432,-0.442126 -0.580498,-0.653062 -0.597198,-0.632796 -1.250544,-1.178226 -1.868482,-1.487528 -1.207938,-0.60462 -2.456416,-1.153662 -3.718824,-1.687076 -0.478316,-0.202106 -0.954562,-0.404764 -1.433106,-0.59864 -0.200114,-0.08082 -0.398542,-0.15626 -0.59864,-0.235828 -0.383708,-0.1532 -0.760964,-0.304552 -1.142858,-0.453514 -0.0128,-0.0052 -0.02356,-0.0132 -0.03628,-0.0182 -1.157206,-0.451084 -2.29237,-0.863574 -3.410432,-1.287984 -0.427074,-0.16158 -0.816964,-0.312314 -1.233562,-0.471654 -0.04176,-0.016 -0.08532,-0.03844 -0.12698,-0.0544 -0.538252,-0.206256 -1.08091,-0.412294 -1.596372,-0.61678 -0.08826,-0.035 -0.1846,-0.07384 -0.27211,-0.10884 0.0198,-0.451616 -0.432958,-1.056554 -1.179138,-1.179138 -0.012,0.0186 -0.02438,0.03588 -0.03628,0.0544 -1.294656,-2.200306 -0.670322,-6.755362 0.0907,-10.612252 1.086642,-1.972054 2.14382,-4.264422 2.866214,-6.639458 0.819776,-0.566516 1.655182,-2.140604 2.575966,-6.458054 0.08334,-0.840762 -0.657996,-1.16007 -1.160998,-0.925172 0.256658,-1.307196 0.16326,-2.69888 0.16326,-4.154196 0,-6.907442 -5.279134,-12.576266 -12.027218,-13.206358 -0.18726,-0.019 -0.372896,-0.04324 -0.562358,-0.0544 -0.03572,-0.0017 -0.07306,0.0017 -0.10884,0 -0.22633,-0.0114 -0.460174,-0.0182 -0.689342,-0.0182 z"
       id="path3582"
       inkscape:connector-curvature="0" />
    <g
       id="g3223">
      <path
         sodipodi:type="arc"
         style="fill:#8491b9;fill-opacity:1;stroke:none"
         id="path2724"
         sodipodi:cx="63.32914"
         sodipodi:cy="118.07128"
         sodipodi:rx="54.742138"
         sodipodi:ry="7.2452831"
         d="m 118.07128,118.07128 c 0,4.00146 -24.508892,7.24528 -54.74214,7.24528 -30.233248,0 -54.7421382,-3.24382 -54.7421382,-7.24528 0,-4.00146 24.5088902,-7.24528 54.7421382,-7.24528 30.233248,0 54.74214,3.24382 54.74214,7.24528 z"
         transform="matrix(0.55204338,0,0,0.90299875,24.023651,-22.186816)" />
      <path
         sodipodi:nodetypes="cccc"
         id="path3845"
         d="m 69.476089,46.263315 c 1.116498,-0.09458 2.205459,-0.883102 3.458226,-6.757187 0.121235,-1.222922 -1.510381,-1.338695 -1.600073,-0.257909 -1.213134,2.338368 -1.744683,4.67674 -1.858153,7.015096 z"
         style="fill:#e0c2a0;fill-opacity:1;fill-rule:evenodd;stroke:none"
         inkscape:connector-curvature="0" />
      <path
         style="fill:#e0c2a0;fill-opacity:1;fill-rule:evenodd;stroke:none"
         d="m 47.752442,47.088621 c -1.116501,-0.09458 -2.205461,-0.883122 -3.458228,-6.757181 -0.121236,-1.222923 1.510381,-1.338711 1.600072,-0.257909 1.213134,2.338368 1.744686,4.676714 1.858156,7.01509 z"
         id="path3715"
         sodipodi:nodetypes="cccc"
         inkscape:connector-curvature="0" />
      <path
         style="fill:#ceb79e;fill-opacity:1;fill-rule:evenodd;stroke:none"
         d="m 49.461298,48.133609 c 0.883657,4.203137 3.352664,13.653641 0.291981,15.902527 0.377513,4.084928 4.133629,5.627995 8.759421,6.528792 l 0.875944,0 c 4.625793,-0.900797 8.381908,-2.443864 8.759423,-6.528792 -3.060682,-2.248886 -0.591676,-11.69939 0.291979,-15.902527 l -9.489372,4.322125 -9.489376,-4.322125 z"
         id="path3629"
         sodipodi:nodetypes="cccccccc"
         inkscape:connector-curvature="0" />
      <path
         sodipodi:nodetypes="cccccccc"
         id="path3634"
         d="m 49.461298,48.133609 c 0.883657,4.203137 3.352664,13.653641 0.291981,15.902527 0.377513,4.084928 4.133629,5.627995 8.759421,6.528792 l 0.875944,0 c 4.625793,-0.900797 8.381908,-2.443864 8.759423,-6.528792 -3.060682,-2.248886 -0.591676,-11.69939 0.291979,-15.902527 l -9.489372,4.322125 -9.489376,-4.322125 z"
         style="fill:url(#radialGradient3210);fill-opacity:1;fill-rule:evenodd;stroke:none"
         inkscape:connector-curvature="0" />
      <path
         style="opacity:0.74906365;fill:url(#radialGradient3207);fill-opacity:1;fill-rule:evenodd;stroke:none"
         d="m 68.440046,48.133609 c -0.883655,4.203137 -3.352661,13.653641 -0.291979,15.902527 -0.377515,4.084928 -4.13363,5.627995 -8.759423,6.528792 l -0.875944,0 c -4.625792,-0.900797 -8.381908,-2.443864 -8.759421,-6.528792 3.060683,-2.248886 0.591676,-11.69939 -0.291981,-15.902527 l 9.489376,4.322125 9.489372,-4.322125 z"
         id="path3672"
         sodipodi:nodetypes="cccccccc"
         inkscape:connector-curvature="0" />
      <path
         sodipodi:nodetypes="csssssssscc"
         id="path3676"
         d="m 324.17882,363.78125 c -7.77656,0.205 -13.87771,5.86053 -17.00625,12.8125 -3.18672,7.08121 -2.72281,15.53626 -0.8125,25.3125 1.91032,9.77623 5.28827,19.94656 8.475,23.625 3.0204,3.48645 6.88924,2.85632 9.34375,2.78125 0.1258,0 0.30234,-0.004 0.4375,0 2.45451,0.0751 6.32335,0.7052 9.34375,-2.78125 3.18673,-3.67844 7.56468,-13.84877 9.475,-23.625 1.91033,-9.77624 2.37422,-18.23129 -0.8125,-25.3125 -3.12855,-6.95197 -10.22969,-12.6075 -18.00625,-12.8125 l -0.4375,0 z"
         style="fill:#392507;fill-opacity:1;fill-rule:evenodd;stroke:none"
         clip-path="url(#clipPath3705)"
         transform="matrix(0.58396161,0,0,0.58357906,-130.72002,-190.91494)"
         inkscape:connector-curvature="0" />
      <path
         style="fill:url(#radialGradient3203);fill-opacity:1;fill-rule:evenodd;stroke:none"
         d="M 58.598877,21.361927 C 54.057666,21.48155 48.80134,24.782 46.974394,28.839025 c -1.860922,4.132442 -1.590017,9.066633 -0.474469,14.771849 1.115553,5.705204 4.781635,11.640374 6.64256,13.787048 1.763799,2.034616 4.023051,1.666888 5.456392,1.623071 0.07346,0 0.176554,-0.0024 0.255483,0 1.43334,0.04382 3.692593,0.411545 5.456392,-1.623071 1.860925,-2.146674 5.527006,-8.081844 6.64256,-13.787048 C 72.068873,37.905658 72.339765,32.971467 70.478843,28.839025 68.651891,24.782 63.395571,21.48155 58.85436,21.361927 l -0.255483,0 z"
         id="path2169"
         sodipodi:nodetypes="csssssssscc"
         inkscape:connector-curvature="0" />
      <path
         sodipodi:nodetypes="csss"
         id="path3849"
         d="m 70.443825,39.029022 c 0.05402,-0.431037 0.674231,-0.03227 0.722618,0.515814 0.04841,0.548057 -0.440681,1.875751 -0.529064,1.676401 -0.707849,-1.596538 -0.27021,-1.580286 -0.193554,-2.192215 z"
         style="fill:url(#radialGradient3197);fill-opacity:1;fill-rule:evenodd;stroke:none"
         inkscape:connector-curvature="0" />
      <path
         style="fill:url(#radialGradient3194);fill-opacity:1;fill-rule:evenodd;stroke:none"
         d="m 46.784644,39.854314 c -0.054,-0.431038 -0.67423,-0.03224 -0.722618,0.515813 -0.04839,0.548057 0.440681,1.875752 0.529064,1.676401 0.707849,-1.596538 0.270211,-1.580285 0.193554,-2.192214 z"
         id="path3779"
         sodipodi:nodetypes="csss"
         inkscape:connector-curvature="0" />
      <path
         sodipodi:nodetypes="cscccssssccsc"
         id="path3380"
         d="m 324.5,363.375 c -12.558,0 -22.74999,10.19201 -22.75,22.75 0,3.49706 -0.34202,6.96567 1.0697,9.92678 L 304,396.91529 c 2.57247,-4.54407 0.92256,-8.09951 2,-12.04029 1,-2.5 2.58874,-4.663 5,-5.5 4.29826,-1.49201 10.81729,4.17868 13.5,4.25 2.90006,0.0771 9.05852,-5.34646 13.46875,-4.05 2.43629,0.71618 4.44027,3.0071 5,5.5 1.04798,4.66743 1.59553,6.25655 2.0026,11.27963 l 1.18306,-0.60463 c 1.37425,-2.92891 1.09559,-6.17758 1.09559,-9.625 0,-12.558 -10.19199,-22.74999 -22.75,-22.75 z"
         style="fill:url(#linearGradient3254);fill-opacity:1;stroke:none"
         clip-path="url(#clipPath3429)"
         transform="matrix(0.58396161,0,0,0.58357906,-130.93831,-190.91494)"
         inkscape:connector-curvature="0" />
      <path
         style="fill:#b59172;fill-opacity:1;stroke:none"
         d="m 58.658691,21.143078 c -7.333388,0 -13.285117,5.947844 -13.285123,13.276425 0,2.040803 -0.199728,4.065008 0.624664,5.793064 l 0.689249,0.503917 c 1.502223,-2.651828 0.538739,-5.018489 1.167924,-7.318249 0.583962,-1.458951 1.511724,-2.72123 2.919806,-3.209685 2.51002,-0.8707 6.316882,2.438595 7.88348,2.480219 1.693524,0.04499 5.289827,-1.239687 7.865231,-0.483109 1.422701,0.417955 2.592949,1.754884 2.919808,3.209685 0.61198,2.723814 0.931729,2.062583 1.169443,4.993949 l 0.690861,-0.352854 c 0.802509,-1.709244 0.639782,-3.605094 0.639782,-5.616937 0,-7.328581 -5.951729,-13.276425 -13.285125,-13.276425 z"
         id="path3347"
         sodipodi:nodetypes="cscccssssccsc"
         inkscape:connector-curvature="0" />
      <path
         sodipodi:nodetypes="ccsssccsc"
         id="path3358"
         d="m 58.658691,21.143078 c -4.686174,2.545121 -5.670347,4.058091 -7.88348,9.045472 2.51002,-0.8707 6.316882,2.438595 7.88348,2.480219 1.693524,0.04499 5.633305,-1.45812 8.20871,-0.701543 1.4227,0.417955 2.592948,1.754884 2.919808,3.209685 0.611979,2.723814 0.58825,2.281017 0.825964,5.212383 l 0.690861,-0.352854 c 0.802509,-1.709244 0.639782,-3.605094 0.639782,-5.616937 0,-7.328581 -5.951729,-13.276425 -13.285125,-13.276425 z"
         style="fill:url(#radialGradient3189);fill-opacity:1;stroke:none"
         inkscape:connector-curvature="0" />
      <path
         style="fill:url(#linearGradient3186);fill-opacity:1;stroke:none"
         d="m 51.379062,29.173721 c -0.34737,-0.01535 -0.689933,0.02614 -1.003684,0.127658 -1.408083,0.455699 -2.593922,2.104024 -3.177884,3.549392 -0.540819,2.438426 0.229765,3.469803 -0.288851,6.50983 0.494645,-1.768496 0.407693,-5.553782 0.546927,-6.08359 0.583962,-1.458954 1.511725,-2.721229 2.919808,-3.209685 2.510019,-0.870711 6.316882,2.43859 7.883482,2.480211 1.693523,0.04499 5.289828,-1.239685 7.865233,-0.483098 1.422699,0.417942 2.592947,1.75488 2.919808,3.209685 l 0,-0.328264 c -0.326861,-1.462408 -1.497109,-2.831584 -2.919808,-3.282632 -2.575405,-0.816509 -5.913634,-0.388599 -7.607157,-0.472997 -1.370774,-0.06831 -4.706281,-1.909254 -7.137874,-2.01651 z"
         id="path3441"
         sodipodi:nodetypes="cscccsssccssc"
         clip-path="none"
         mask="none"
         inkscape:connector-curvature="0" />
      <path
         style="opacity:0.33333333;fill:url(#linearGradient3177);fill-opacity:1;fill-rule:evenodd;stroke:none"
         d="m 46.669761,45.756416 0.802947,-1.458947 c 0,0 -0.729952,-1.823685 -0.729952,-2.334317 0,-0.510631 -0.51906,-2.015973 -0.51906,-2.015973 l -0.425071,0.274468 0.871136,5.534769 z"
         id="path3717"
         sodipodi:nodetypes="ccsccc"
         inkscape:connector-curvature="0" />
      <path
         style="fill:url(#linearGradient3174);fill-opacity:1;fill-rule:evenodd;stroke:none"
         d="m 59.124039,67.647589 c -5.981406,0.166979 -7.8061,-2.307281 -8.32145,-4.489104 -0.746182,0.122583 -1.187678,0.715545 -1.167924,1.167152 -4.136391,1.654365 -9.137736,3.321952 -13.577104,5.543997 -1.647834,0.824806 -3.525149,3.338288 -4.014736,4.668644 -1.493178,4.057368 -3.138794,9.774931 -3.138794,9.774931 l 0.875943,1.021284 c 9.135937,5.200936 21.536011,4.960424 29.344065,4.960424 7.808056,0 20.20813,0.240512 29.344063,-4.960424 l 0.875945,-1.021284 c 0,0 -1.645617,-5.717563 -3.138794,-9.774931 -0.489588,-1.330356 -2.366899,-3.843838 -4.014733,-4.668644 -4.439371,-2.222045 -9.440716,-3.889632 -13.577107,-5.543997 0.01975,-0.451607 -0.421742,-1.044569 -1.167924,-1.167152 -1.409465,2.18412 -2.340043,4.322126 -8.32145,4.489104 z"
         id="path3875"
         sodipodi:nodetypes="cccssccsccssccz"
         inkscape:connector-curvature="0" />
      <path
         style="opacity:0.32209742;fill:url(#linearGradient3171);fill-opacity:1;fill-rule:evenodd;stroke:none"
         d="M 40.9392,87.734921 C 38.651676,80.136967 37.729794,76.161364 43.003814,72.054117 l 11.148931,-3.301225 -4.955078,-3.713868 -11.56185,4.539177 -6.193848,7.427748 c 0,0 -2.477544,5.777141 -0.82585,6.602444 1.651695,0.825309 5.780928,3.301225 5.780928,3.301225 l 4.542153,0.825303 z"
         id="path3451"
         sodipodi:nodetypes="ccccccscc"
         inkscape:connector-curvature="0" />
      <path
         style="fill:#f3f4f8;fill-opacity:1;fill-rule:evenodd;stroke:#939fc3;stroke-width:0.14528722;stroke-linecap:butt;stroke-linejoin:miter;stroke-miterlimit:4;stroke-opacity:1;stroke-dasharray:none"
         d="m 463.75,435.375 c -1.27779,0.21006 -2.03383,1.22613 -2,2 -0.0793,0.0317 -0.17038,0.062 -0.25,0.0937 1.25202,4.0018 5.15727,8.27208 16.75,7.96875 11.50018,-0.3009 13.82799,-3.95877 16.46875,-7.875 -0.15115,-0.06 -0.3189,-0.12753 -0.46875,-0.1875 0.0338,-0.77387 -0.72221,-1.78994 -2,-2 -2.41363,3.74264 -4.00719,7.40137 -14.25,7.6875 -10.24281,0.28614 -13.36749,-3.94879 -14.25,-7.6875 z m 33.71875,3.25 c 0.0532,0.16802 0.10109,0.31159 0.0937,0.46875 4.20807,1.57746 8.83741,3.15593 13.5625,4.875 -4.63354,-1.95913 -9.30506,-3.67529 -13.65625,-5.34375 z"
         id="path3261"
         clip-path="url(#clipPath3289)"
         transform="matrix(0.58396161,0,0,0.58357906,-220.00955,-190.91266)"
         sodipodi:nodetypes="cccscccsccccc"
         inkscape:connector-curvature="0" />
    </g>
  </g>
</svg>
