<?xml version="1.0" encoding="UTF-8" standalone="no"?>
<svg
   xmlns:dc="http://purl.org/dc/elements/1.1/"
   xmlns:cc="http://creativecommons.org/ns#"
   xmlns:rdf="http://www.w3.org/1999/02/22-rdf-syntax-ns#"
   xmlns:svg="http://www.w3.org/2000/svg"
   xmlns="http://www.w3.org/2000/svg"
   xmlns:xlink="http://www.w3.org/1999/xlink"
   xmlns:sodipodi="http://sodipodi.sourceforge.net/DTD/sodipodi-0.dtd"
   xmlns:inkscape="http://www.inkscape.org/namespaces/inkscape"
   version="1.1"
   viewBox="0 0 96 96"
   id="svg2"
   inkscape:version="0.48.3.1 r9886"
   width="100%"
   height="100%"
   sodipodi:docname="penguin-pegged.svg"
   inkscape:export-filename="penguin-pegged.png"
   inkscape:export-xdpi="90"
   inkscape:export-ydpi="90">
  <metadata
     id="metadata1738">
    <rdf:RDF>
      <cc:Work
         rdf:about="">
        <dc:format>image/svg+xml</dc:format>
        <dc:type
           rdf:resource="http://purl.org/dc/dcmitype/StillImage" />
        <dc:title>Tux</dc:title>
      </cc:Work>
    </rdf:RDF>
  </metadata>
  <defs
     id="defs1736">
    <linearGradient
       inkscape:collect="always"
       id="linearGradient5757">
      <stop
         style="stop-color:#ffffff;stop-opacity:1;"
         offset="0"
         id="stop5759" />
      <stop
         style="stop-color:#ffffff;stop-opacity:0;"
         offset="1"
         id="stop5761" />
    </linearGradient>
    <filter
       inkscape:collect="always"
       id="filter4715"
       x="-0.021913378"
       width="1.0438268"
       y="-0.10079294"
       height="1.2015859"
       color-interpolation-filters="sRGB">
      <feGaussianBlur
         inkscape:collect="always"
         stdDeviation="0.085279147"
         id="feGaussianBlur4717" />
    </filter>
    <linearGradient
       id="linearGradient4597-5">
      <stop
         style="stop-color:#013dff;stop-opacity:1;"
         offset="0"
         id="stop4599-3" />
      <stop
         style="stop-color:#9fff41;stop-opacity:1;"
         offset="1"
         id="stop4601-6" />
    </linearGradient>
    <linearGradient
       inkscape:collect="always"
       xlink:href="#linearGradient4597-5"
       id="linearGradient3229"
       gradientUnits="userSpaceOnUse"
       gradientTransform="matrix(0,0.3862661,-0.3862661,0,71.369099,-20.948497)"
       x1="62"
       y1="60.5"
       x2="295"
       y2="60.5" />
    <linearGradient
       inkscape:collect="always"
       xlink:href="#linearGradient5757"
       id="linearGradient3231"
       gradientUnits="userSpaceOnUse"
       gradientTransform="matrix(1.3333333,0,0,1.3333333,0,-2.5431314e-6)"
       x1="40.039238"
       y1="21.098858"
       x2="48.23008"
       y2="50.462223" />
  </defs>
  <sodipodi:namedview
     pagecolor="#ffffff"
     bordercolor="#666666"
     borderopacity="1"
     objecttolerance="10"
     gridtolerance="10"
     guidetolerance="10"
     inkscape:pageopacity="0"
     inkscape:pageshadow="2"
     inkscape:window-width="1008"
     inkscape:window-height="716"
     id="namedview1734"
     showgrid="false"
     fit-margin-top="0"
     fit-margin-left="0"
     fit-margin-right="0"
     fit-margin-bottom="0"
     inkscape:zoom="4"
     inkscape:cx="48"
     inkscape:cy="48"
     inkscape:window-x="13"
     inkscape:window-y="46"
     inkscape:window-maximized="0"
     inkscape:current-layer="svg2" />
  <title
     id="title4">Tux</title>
  <desc
     id="desc6">For more information see: http://commons.wikimedia.org/wiki/Image:Tux.svg</desc>
  <radialGradient
     id="SVGID_1_"
     cx="274.82199"
     cy="-551.03961"
     r="165.384"
     gradientTransform="matrix(0.5671,0,0,-0.2835,84.6678,188.6448)"
     gradientUnits="userSpaceOnUse">
    <stop
       offset="0"
       stop-color="#000000"
       stop-opacity="0.502"
       id="stop9" />
    <stop
       offset="1"
       stop-color="#000000"
       stop-opacity="0"
       id="stop11" />
  </radialGradient>
  <radialGradient
     id="SVGID_2_"
     cx="268.7937"
     cy="-551.0415"
     r="165.3826"
     gradientTransform="matrix(0.5823,0,0,-0.2835,-58.2004,188.1399)"
     gradientUnits="userSpaceOnUse">
    <stop
       offset="0"
       stop-color="#000000"
       stop-opacity="0.502"
       id="stop16" />
    <stop
       offset="1"
       stop-color="#000000"
       stop-opacity="0"
       id="stop18" />
  </radialGradient>
  <g
     id="g4930"
     transform="matrix(0.75,0,0,0.75,0,1.4305115e-6)">
    <path
       inkscape:connector-curvature="0"
       id="path4918"
       d="M 64,4.59375 C 31.226784,4.59375 4.59375,31.226784 4.59375,64 4.59375,96.773215 31.226784,123.40625 64,123.40625 96.773217,123.40625 123.40625,96.773215 123.40625,64 123.40625,31.226784 96.773217,4.59375 64,4.59375 z m 0,9.5 c 27.613013,0 49.90625,22.293238 49.90625,49.90625 0,27.613012 -22.293237,49.90625 -49.90625,49.90625 C 36.386988,113.90625 14.09375,91.613012 14.09375,64 14.09375,36.386988 36.386988,14.09375 64,14.09375 z"
       style="opacity:0.25;fill:#000000;fill-rule:evenodd;stroke:none" />
    <path
       transform="matrix(2.1054614,0,0,2.1054614,34.531072,-48.271189)"
       d="m 39.32737,53.323792 c 0,13.989896 -11.341052,25.330947 -25.330948,25.330947 -13.9898964,0 -25.330948,-11.341051 -25.330948,-25.330947 0,-13.989897 11.3410516,-25.330948 25.330948,-25.330948 13.989896,0 25.330948,11.341051 25.330948,25.330948 z"
       sodipodi:ry="25.330948"
       sodipodi:rx="25.330948"
       sodipodi:cy="53.323792"
       sodipodi:cx="13.996422"
       id="path5421"
       style="color:#000000;fill:url(#linearGradient3229);fill-opacity:1;fill-rule:evenodd;stroke:none;marker:none;visibility:visible;display:inline;overflow:visible;enable-background:accumulate"
       sodipodi:type="arc" />
  </g>
  <g
     id="g4955"
     transform="matrix(0.75,0,0,0.75,0,1.4305115e-6)">
    <path
       id="path24"
       d="m 63.958332,24.08333 c -4.468397,0.02623 -9.611439,1.054435 -15.125,3.916667 -14.239828,7.416309 -12.377289,23.424462 -10.041666,55.499998 0.481352,7.009635 -4.848664,12.195793 -10.708333,19.916665 9.476331,8.63214 22.088151,13.91667 35.916665,13.91667 17.392747,0 32.847538,-8.32509 42.583332,-21.208335 C 102.0613,89.56751 98.425439,83.063941 96.249998,73.416662 92.801414,58.250311 97.124018,62.613108 94.083331,49.374996 92.600068,42.774482 89.971107,37.531913 87.041664,34.08333 84.112223,30.560583 80.178239,28.579946 78.249998,27.541663 75.585922,26.110547 70.489068,24.044993 63.958332,24.08333 z"
       inkscape:connector-curvature="0" />
    <path
       style="fill:#666666"
       inkscape:connector-curvature="0"
       id="path28"
       d="m 49.048927,72.523086 c 2.224377,-0.889956 1.849957,-1.008412 3.333218,-4.234505 1.18661,-2.484464 2.229014,-3.552618 2.191932,-7.334936 0,-3.708154 -1.149528,-4.968928 -2.892361,-7.379228 -1.668669,-2.299055 -4.33854,-2.410299 -6.00721,-2.113647 -0.96412,0.148326 -2.224378,1.372017 -3.077768,3.189013 -0.556223,1.22369 -1.001202,2.781116 -1.038799,4.412704 -0.11124,4.375621 0.260087,6.044291 1.260773,9.010814 1.187124,3.486181 4.079485,5.303176 6.230215,4.449785 z" />
    <path
       id="path32"
       d="m 47.166665,51.541663 c -0.504793,-0.0027 -1.002461,0.05341 -1.416666,0.125 -0.986781,0.14575 -2.216037,1.291108 -3.083333,3.041666 -0.159714,0.318326 -0.283999,0.675148 -0.416667,1.041667 -0.115253,0.318389 -0.245228,0.653507 -0.333333,1 -0.0036,0.01347 0.0035,0.02816 0,0.04167 -0.183932,0.734512 -0.315363,1.527924 -0.333334,2.333333 -3.69e-4,0.01401 3.12e-4,0.02765 0,0.04167 -0.02905,1.191269 -0.0072,2.170813 0.04167,3.041666 0.127787,2.280078 0.498017,3.74888 1.208333,5.875 0.0059,0.01743 0.03571,0.02432 0.04167,0.04167 0.113667,0.330781 0.273568,0.659194 0.416667,0.958333 0.04519,0.09544 0.07696,0.199623 0.125,0.291667 0.578152,1.104828 1.327645,1.973162 2.166666,2.541666 0.0084,0.0057 0.03321,-0.0056 0.04167,0 0.560033,0.376663 1.128214,0.648323 1.708333,0.75 0.589361,0.102147 1.177475,0.04385 1.708333,-0.166666 0.530354,-0.212142 0.91724,-0.404716 1.208334,-0.583334 0.146033,-0.09176 0.265849,-0.186281 0.375,-0.291666 0.0077,-0.0072 0.03404,0.0073 0.04167,0 0.559196,-0.533384 0.787088,-1.329899 1.708334,-3.333334 0.28588,-0.59861 0.535105,-1.132989 0.791666,-1.625 0.0087,-0.01663 0.03304,-0.02509 0.04167,-0.04167 0.254329,-0.48884 0.468436,-0.955858 0.666667,-1.458334 0.1094,-0.277313 0.205528,-0.524525 0.291666,-0.833333 0.07829,-0.27684 0.151919,-0.5578 0.208334,-0.875 0.0024,-0.01368 -0.0024,-0.02791 0,-0.04167 0.0021,-0.01253 -0.0021,-0.029 0,-0.04167 0.05441,-0.321005 0.09624,-0.665196 0.125,-1.041667 9.78e-4,-0.01267 -9.5e-4,-0.02897 0,-0.04167 0.02599,-0.355823 0.04116,-0.749258 0.04167,-1.166667 5.1e-5,-0.01489 -1.7e-5,-0.02669 0,-0.04167 1.74e-4,-0.01513 -1.34e-4,-0.02661 0,-0.04167 1.14e-4,-0.01523 -7.4e-5,-0.02652 0,-0.04167 0.0016,-0.415917 -0.01493,-0.806329 -0.04167,-1.166667 -0.0011,-0.01483 0.0011,-0.02692 0,-0.04167 -0.0024,-0.02973 0.0025,-0.05395 0,-0.08333 -0.02911,-0.348208 -0.07035,-0.65335 -0.125,-0.958333 -0.0024,-0.01375 0.0025,-0.028 0,-0.04167 -0.0051,-0.02739 0.0053,-0.05624 0,-0.08333 -0.05993,-0.311083 -0.164472,-0.599065 -0.25,-0.875 -0.08303,-0.267877 -0.186082,-0.505761 -0.291667,-0.75 -0.0049,-0.01133 0.0049,-0.03037 0,-0.04167 -0.0124,-0.02823 -0.029,-0.05535 -0.04167,-0.08333 -0.0053,-0.01173 0.0053,-0.02993 0,-0.04167 -0.07987,-0.174273 -0.200814,-0.332868 -0.291666,-0.5 -0.01555,-0.02845 -0.02581,-0.05504 -0.04167,-0.08333 -0.01484,-0.02631 -0.02656,-0.05717 -0.04167,-0.08333 -0.0057,-0.01013 0.0059,-0.0316 0,-0.04167 -0.01503,-0.02595 -0.02639,-0.05749 -0.04167,-0.08333 -0.43441,-0.740723 -0.965956,-1.416479 -1.583334,-2.25 -0.01903,-0.024 -0.02244,-0.05985 -0.04167,-0.08333 -1.273134,-1.678325 -3.068954,-2.158821 -4.583334,-2.166666 z"
       style="fill:#ffffff"
       inkscape:connector-curvature="0" />
    <path
       d="m 46.97236,57.431412 c 1.112445,0 2.521544,0.741631 3.188496,1.742833 0.704551,1.001202 1.223692,2.4103 1.223692,4.004807 0,2.373218 -0.259571,5.006009 -1.668155,5.821802 -0.444978,0.259571 -1.409098,0.48206 -1.965321,0.48206 -1.260772,0 -1.372017,-0.815793 -2.558628,-2.039485 -0.407896,-0.444979 -1.631588,-2.595708 -1.631588,-4.375622 0,-1.112446 -0.259569,-2.706952 0.704551,-4.116051 0.667468,-1.038283 1.520343,-1.520344 2.706953,-1.520344 z"
       id="path72"
       inkscape:connector-curvature="0" />
    <path
       style="fill:#666666"
       inkscape:connector-curvature="0"
       id="path122"
       d="m 72.039485,73.005148 c 5.56223,-0.593306 7.527553,-2.744035 8.528754,-6.489271 0.890472,-3.33734 0.927554,-7.045494 -1.556909,-11.384034 -2.336137,-4.152619 -3.671073,-4.820601 -7.046009,-5.080172 -5.190901,-0.444979 -7.638799,3.189013 -8.787811,5.784721 -1.22369,2.818197 -0.96412,2.4103 -0.890472,5.970128 0.07468,3.745237 2.186266,4.789185 3.484635,7.125322 1.297339,2.299571 5.637425,4.110902 6.267812,4.073306 z" />
    <path
       id="path126"
       d="m 71.083332,50.249996 c -4.545464,0.02508 -6.793455,3.210355 -7.875,5.625 -0.593306,1.359656 -0.832976,2.001659 -0.916667,2.708333 -0.04269,0.360546 -0.0556,0.724736 -0.04167,1.25 2.14e-4,0.0104 -2.26e-4,0.03112 0,0.04167 0.01367,0.499024 0.02289,1.115924 0.04167,1.958333 0.0206,0.935794 0.186484,1.717712 0.416667,2.375 0.122893,0.346807 0.295812,0.662995 0.458333,0.958333 0.600984,1.104607 1.408233,1.898884 2.125,2.916667 0.182024,0.258467 0.338025,0.541252 0.5,0.833333 0.166561,0.295662 0.414983,0.557216 0.666667,0.833334 0.238794,0.261974 0.50106,0.552192 0.791666,0.791666 0.596902,0.491878 1.256828,0.925487 1.916667,1.291667 1.319679,0.73236 2.559807,1.185465 2.875,1.166667 1.385278,-0.145623 2.560856,-0.406127 3.541666,-0.75 0.980811,-0.343874 1.760851,-0.792819 2.416667,-1.333334 0.0077,-0.0064 -0.0077,-0.0352 0,-0.04167 0.312349,-0.258254 0.623712,-0.531938 0.875,-0.833334 0.0072,-0.0087 -0.0071,-0.03291 0,-0.04167 0.252777,-0.311686 0.508797,-0.642286 0.708333,-1 0.408566,-0.733544 0.720266,-1.57824 0.958334,-2.5 0.328518,-1.260194 0.535745,-2.552697 0.541666,-3.916667 0.004,-0.909313 -0.08677,-1.827601 -0.291666,-2.791666 -0.20247,-0.952658 -0.542767,-1.94551 -1,-2.958334 -0.0051,-0.01093 0.0051,-0.03073 0,-0.04167 -0.233054,-0.512862 -0.483491,-1.053763 -0.791667,-1.583334 -2.283605,-4.015622 -3.624084,-4.659155 -6.958333,-4.916666 -0.323465,-0.02772 -0.655303,-0.04333 -0.958333,-0.04167 z"
       style="fill:#ffffff"
       inkscape:connector-curvature="0" />
    <path
       d="m 71.594505,57.283085 c 2.781114,0 4.412702,2.484464 4.968926,5.673478 0.22249,1.44618 -0.11124,3.114849 -1.001201,4.264377 -1.001203,1.334936 -2.781116,2.15073 -4.227296,2.15073 -1.372017,0 -2.929442,0.222488 -3.744721,-0.889957 -0.815793,-1.149528 -1.001201,-3.708156 -1.001201,-5.52515 0,-2.039484 0.593304,-3.485666 1.631588,-4.635192 0.778196,-0.853392 2.187296,-1.038284 3.373905,-1.038284 z"
       id="path166"
       inkscape:connector-curvature="0" />
    <path
       id="path262"
       d="m 76.124998,79.124995 c -0.172104,-5.14e-4 -0.353941,0.03235 -0.541667,0.04167 -7.491502,0.406868 -13.500758,10.661681 -20.583332,10.958333 -4.820602,0.185408 -12.48126,-13.307647 -12.666667,-7.708333 -0.148326,4.746436 0.125,4.693555 0.125,9.291666 0,3.077768 -1.417646,3.281474 -4.458333,7.916667 -1.557424,2.447382 -2.78588,5.080132 -3.75,7.749992 -0.08649,0.23244 -0.163931,0.47272 -0.25,0.70834 8.546055,5.8227 18.878937,9.25 29.999999,9.25 10.039037,0 19.439516,-2.76046 27.458333,-7.58334 C 87.704335,101.05434 87.669282,96.725287 83.916665,90.833329 79.534089,83.864315 81.460229,79.142675 76.124998,79.124995 z"
       style="fill:#e6e6e6;stroke:none"
       inkscape:connector-curvature="0" />
    <path
       id="path304"
       d="m 77.374998,87.458329 c -0.362864,-0.0036 -0.784533,0.02471 -1.208333,0.08333 -5.770816,0.756567 -14.522124,13.533691 -21.375,13.750001 -4.003776,0.10867 -7.871037,-9.82772 -9.458333,-9.791668 -0.432617,0 -1.070121,0.598712 -1.791666,1.5 -1.550731,1.983863 -3.638398,5.678457 -5.333334,8.708338 -1.443605,2.56068 -1.487876,4.55743 -0.875,6 1.29837,3.21013 5.796388,4.15109 5.291667,5.125 6.548866,2.87103 13.766472,4.5 21.374999,4.5 9.820849,0 19.014107,-2.66109 26.916666,-7.29167 -3.467077,-8.15107 -3.873609,-12.490927 -7.624999,-17.916668 -2.177511,-3.092766 -3.376634,-4.64264 -5.916667,-4.666666 z"
       style="fill:#ffffff"
       inkscape:connector-curvature="0" />
    <path
       inkscape:connector-curvature="0"
       id="path4952"
       d="m 59.78125,64.1875 c -0.773155,-0.0319 -1.543197,-0.02462 -2.25,0.0625 -1.8574,0.214027 -3.183197,0.01738 -5.125,1 -2.089171,1.096156 -4.904494,3.46771 -6.5,4.875 -0.0048,0.0042 -0.02647,-0.0042 -0.03125,0 -1.483875,1.283742 -2.776659,2.217797 -3.71875,3.28125 -0.94631,1.068215 -1.510831,2.311735 -1.46875,4.03125 0.01598,1.67973 0.722588,3.146291 1.75,4.4375 1.027412,1.291209 2.381134,2.42084 3.75,3.53125 1.337314,1.10163 2.585407,2.36898 3.71875,3.4375 1.133343,1.06852 2.128382,1.958491 3.125,2.3125 1.918302,0.691188 4.8448,0.547631 7,0.53125 2.600726,-0.01426 5.396096,-1.554909 8,-3.1875 2.603904,-1.632591 5.062647,-3.393257 6.625,-3.875 2.21618,-0.699373 3.800509,-1.654716 4.84375,-3.15625 1.043241,-1.501534 1.5196,-3.482074 1.6875,-6.125 0.0816,-1.208845 -0.328219,-2.240529 -1.03125,-3.03125 -0.703031,-0.790721 -1.668028,-1.362583 -2.78125,-1.84375 -2.226445,-0.962334 -5.031408,-1.532792 -7.40625,-2.3125 -1.388484,-0.461667 -2.438597,-1.057082 -4,-2.21875 -1.428736,-1.056042 -3.868036,-1.654291 -6.1875,-1.75 z"
       style="opacity:0.75;fill:#a86a00;fill-opacity:1" />
    <path
       style="fill:#ffcc00"
       inkscape:connector-curvature="0"
       id="path310"
       d="m 57.597253,64.747293 c 2.690987,-0.331674 6.378025,0.332188 8.073991,1.585751 1.585236,1.1794 2.692017,1.807725 4.129442,2.285665 4.828327,1.585236 11.190901,2.332532 10.897339,6.681373 -0.330128,5.196567 -1.889614,7.509528 -6.201374,8.870215 -3.462489,1.06764 -9.665922,6.998626 -14.456651,7.024893 -2.168241,0.01648 -5.112104,0.12052 -6.843091,-0.503176 -1.655793,-0.588155 -3.984721,-3.403261 -6.711245,-5.649271 -2.724977,-2.210472 -5.28412,-4.518798 -5.313476,-7.604291 -0.0788,-3.219915 2.014764,-4.331846 5.033306,-6.94661 1.58163,-1.395708 4.426094,-3.761201 6.418711,-4.806696 1.835022,-0.928582 3.055623,-0.716909 4.973048,-0.937853 z" />
    <g
       transform="matrix(1.3333333,0,0,1.3333333,0,-2.5431314e-6)"
       style="filter:url(#filter4715)"
       id="g3943">
      <path
         style="fill:#a05a2c"
         d="m 45,50 c -0.220732,0.02759 -0.460687,0.05301 -0.64136,0.194742 -0.115119,0.08958 -0.03026,0.23137 0.03435,0.322478 0.199629,0.307688 0.530846,0.492454 0.857007,0.63903 0.657929,0.256641 1.297091,0.541305 1.895272,0.786612 0.18736,0.05431 0.414621,0.08025 0.568557,-0.06634 0.209974,-0.176287 0.196156,-0.487937 0.11324,-0.724544 -0.102924,-0.301807 -0.294892,-0.566966 -0.51436,-0.79486 C 46.627895,49.935283 45.689097,50.010164 45,50 z"
         id="path352"
         inkscape:connector-curvature="0"
         sodipodi:nodetypes="ccccccccc" />
      <path
         style="fill:#a05a2c"
         d="m 39.129532,50.533183 c -0.260407,0.140507 -0.486167,0.373933 -0.55842,0.667213 -0.124134,0.55752 0.189124,0.576435 0.588954,0.830202 0.791028,-0.09611 1.440576,-0.87017 2.020609,-1.274961 0.07502,-0.09715 0.191793,-0.19797 0.179033,-0.330849 -0.02802,-0.141756 -0.182561,-0.208493 -0.313168,-0.218663 -0.679842,-0.08704 -1.375706,0.167422 -1.917008,0.327058 z"
         id="path398"
         inkscape:connector-curvature="0"
         sodipodi:nodetypes="ccccccc" />
    </g>
    <path
       id="path4899"
       d="m 77.1875,75 c -0.485808,0.140985 -1.223497,0.626842 -2.15625,1.28125 -0.932753,0.654408 -2.060555,1.486136 -3.25,2.34375 A 0.15001501,0.15001501 0 0 0 71.75,78.65625 C 71.646097,78.775156 71.386463,78.989039 71,79.25 c -0.386463,0.260961 -0.899344,0.565748 -1.5,0.90625 -1.201312,0.681004 -2.767375,1.478074 -4.5,2.21875 -3.46525,1.481352 -7.586812,2.733235 -10.59375,2.4375 -2.494299,-0.202199 -5.196363,-0.965979 -7.3125,-2.53125 -0.75113,-0.512052 -1.634269,-1.133424 -2.375,-1.59375 -0.370365,-0.230163 -0.71219,-0.40911 -1,-0.53125 C 43.43094,80.03411 43.211084,79.960794 43,80.0625 a 0.15001501,0.15001501 0 0 0 -0.03125,0 0.15001501,0.15001501 0 0 0 -0.03125,0.03125 0.15001501,0.15001501 0 0 0 0,0.03125 0.15001501,0.15001501 0 0 0 -0.03125,0.03125 0.15001501,0.15001501 0 0 0 0,0.03125 0.15001501,0.15001501 0 0 0 0,0.03125 0.15001501,0.15001501 0 0 0 0.03125,0.03125 0.15001501,0.15001501 0 0 0 0,0.03125 c 1.169572,1.378067 3.041847,2.409039 4.96875,3.53125 0.008,0.0047 0.02322,-0.0047 0.03125,0 0.412,0.288348 1.254943,0.570573 2.46875,0.84375 1.23065,0.276968 2.835908,0.544904 4.625,0.71875 6.350068,-0.12039 11.88803,-3.269365 14.65625,-4.71875 2.328813,-1.312086 2.934077,-1.848939 4.75,-3 0.917024,-0.828346 1.720607,-1.284523 2.25,-1.59375 0.264696,-0.154614 0.458169,-0.257292 0.59375,-0.40625 0.06779,-0.07448 0.109885,-0.180547 0.125,-0.28125 0.01511,-0.100703 -0.01241,-0.18512 -0.0625,-0.28125 a 0.15001501,0.15001501 0 0 0 0,-0.03125 0.15001501,0.15001501 0 0 0 -0.03125,-0.03125 0.15001501,0.15001501 0 0 0 -0.03125,0 A 0.15001501,0.15001501 0 0 0 77.25,75 0.15001501,0.15001501 0 0 0 77.21875,75 0.15001501,0.15001501 0 0 0 77.1875,75 z"
       style="fill:#a86a00;fill-opacity:1;stroke:none"
       inkscape:connector-curvature="0" />
  </g>
  <g
     id="g4921"
     transform="matrix(0.75,0,0,0.75,0,1.4305115e-6)">
    <path
       id="path5731"
       d="m 63.999998,6.5833306 c -31.691325,0 -57.4166648,25.7253404 -57.4166648,57.4166654 0,31.691324 25.7253398,57.416664 57.4166648,57.416664 31.691326,0 57.416662,-25.72534 57.416662,-57.416664 0,-31.691325 -25.725336,-57.4166654 -57.416662,-57.4166654 z m 0,5.4999994 c 28.691808,0 51.916662,23.224859 51.916662,51.916666 0,28.691807 -23.224854,51.916664 -51.916662,51.916664 -28.691807,0 -51.916665,-23.224857 -51.916665,-51.916664 0,-28.691807 23.224858,-51.916666 51.916665,-51.916666 z"
       style="opacity:0.5;fill:#000000;fill-rule:evenodd;stroke:none"
       inkscape:connector-curvature="0" />
    <path
       id="path5737"
       d="M 63.999998,13.999997 C 36.38576,13.999997 14,36.385758 14,63.999996 c 0,0.361952 0.03401,0.723216 0.04167,1.083333 13.333459,5.744699 31.633004,7.719736 51.124999,4.458333 C 84.422995,66.319692 100.95916,58.648564 111.70833,49.041663 105.35049,28.733622 86.404241,13.999997 63.999998,13.999997 z"
       style="opacity:0.75;fill:url(#linearGradient3231);fill-opacity:1;fill-rule:evenodd;stroke:none"
       inkscape:connector-curvature="0" />
    <path
       id="path5712"
       d="m 63.999998,7.9999973 c -30.927945,0 -55.9999982,25.0720537 -55.9999982,55.9999987 0,30.927944 25.0720532,55.999994 55.9999982,55.999994 C 94.927944,119.99999 120,94.92794 120,63.999996 120,33.072051 94.927944,7.9999973 63.999998,7.9999973 z m 0,2.6666667 c 29.455188,0 53.333332,23.878145 53.333332,53.333332 0,29.455187 -23.878144,53.333334 -53.333332,53.333334 -29.455187,0 -53.333332,-23.878147 -53.333332,-53.333334 0,-29.455187 23.878145,-53.333332 53.333332,-53.333332 z"
       style="fill:#333333;fill-rule:evenodd;stroke:none"
       inkscape:connector-curvature="0" />
  </g>
</svg>
