<?xml version="1.0" encoding="UTF-8" standalone="no"?>
<!-- Created with Inkscape (http://www.inkscape.org/) -->

<svg
   xmlns:dc="http://purl.org/dc/elements/1.1/"
   xmlns:cc="http://creativecommons.org/ns#"
   xmlns:rdf="http://www.w3.org/1999/02/22-rdf-syntax-ns#"
   xmlns:svg="http://www.w3.org/2000/svg"
   xmlns="http://www.w3.org/2000/svg"
   xmlns:xlink="http://www.w3.org/1999/xlink"
   xmlns:sodipodi="http://sodipodi.sourceforge.net/DTD/sodipodi-0.dtd"
   xmlns:inkscape="http://www.inkscape.org/namespaces/inkscape"
   width="96"
   height="96"
   id="svg2"
   sodipodi:version="0.32"
   inkscape:version="0.48.3.1 r9886"
   version="1.0"
   inkscape:export-filename="preferences-system-bluetooth.png"
   inkscape:export-xdpi="90"
   inkscape:export-ydpi="90"
   sodipodi:docname="preferences-system-bluetooth.svg"
   inkscape:output_extension="org.inkscape.output.svgz.inkscape">
  <defs
     id="defs4">
    <linearGradient
       inkscape:collect="always"
       id="linearGradient3863">
      <stop
         style="stop-color:#002447;stop-opacity:1;"
         offset="0"
         id="stop3865" />
      <stop
         style="stop-color:#002447;stop-opacity:0;"
         offset="1"
         id="stop3867" />
    </linearGradient>
    <linearGradient
       inkscape:collect="always"
       id="linearGradient3354">
      <stop
         style="stop-color:#dceaff;stop-opacity:1;"
         offset="0"
         id="stop3356" />
      <stop
         style="stop-color:#dceaff;stop-opacity:0;"
         offset="1"
         id="stop3358" />
    </linearGradient>
    <linearGradient
       id="linearGradient3336"
       inkscape:collect="always">
      <stop
         id="stop3338"
         offset="0"
         style="stop-color:#0066ff;stop-opacity:1" />
      <stop
         id="stop3340"
         offset="1"
         style="stop-color:#0066ff;stop-opacity:0" />
    </linearGradient>
    <linearGradient
       id="linearGradient5919">
      <stop
         id="stop5921"
         offset="0"
         style="stop-color:#ffffff;stop-opacity:1;" />
      <stop
         style="stop-color:#78c9ff;stop-opacity:0.49803922;"
         offset="0.5"
         id="stop6238" />
      <stop
         id="stop5923"
         offset="1"
         style="stop-color:#ffffff;stop-opacity:0;" />
    </linearGradient>
    <linearGradient
       gradientTransform="matrix(0,1,-1,0,-39.9985,140.0029)"
       y2="-383.9971"
       x2="-12.0029"
       y1="-383.9971"
       x1="-84.002403"
       gradientUnits="userSpaceOnUse"
       id="linearGradient5960">
      <stop
         id="stop5962"
         style="stop-color:#0081ec;stop-opacity:1;"
         offset="0" />
      <stop
         id="stop5964"
         style="stop-color:#003871;stop-opacity:1;"
         offset="1" />
    </linearGradient>
    <radialGradient
       inkscape:collect="always"
       xlink:href="#linearGradient5919"
       id="radialGradient3062"
       gradientUnits="userSpaceOnUse"
       gradientTransform="matrix(1.7612768,0,0,2.5333436,-64.721716,-29.041948)"
       cx="64"
       cy="27.5"
       fx="64"
       fy="27.5"
       r="36.5" />
    <radialGradient
       inkscape:collect="always"
       xlink:href="#linearGradient5919"
       id="radialGradient3065"
       gradientUnits="userSpaceOnUse"
       gradientTransform="matrix(2.6294375,0,0,1.6528546,-120.284,23.863424)"
       cx="64"
       cy="-0.73508483"
       fx="64"
       fy="10.298304"
       r="35.84375" />
    <radialGradient
       inkscape:collect="always"
       xlink:href="#linearGradient3336"
       id="radialGradient3076"
       gradientUnits="userSpaceOnUse"
       gradientTransform="matrix(1.3190258,0,0,1.9052595,-36.417653,-41.936609)"
       cx="64"
       cy="64"
       fx="64"
       fy="54.987789"
       r="36" />
    <radialGradient
       inkscape:collect="always"
       xlink:href="#linearGradient3354"
       id="radialGradient3079"
       gradientUnits="userSpaceOnUse"
       gradientTransform="matrix(0.97325572,0,0,0.7503453,0.59816475,-4.679687)"
       cx="48.704403"
       cy="14.174014"
       fx="48.704403"
       fy="15.586639"
       r="20.327044" />
    <radialGradient
       inkscape:collect="always"
       xlink:href="#linearGradient5960"
       id="radialGradient3085"
       gradientUnits="userSpaceOnUse"
       gradientTransform="matrix(1.9119299,-8.4578109e-8,1.1840935e-7,2.6767018,-45.119404,-23.714224)"
       cx="48.704403"
       cy="42.525261"
       fx="48.704403"
       fy="52.241333"
       r="20.327044" />
    <radialGradient
       inkscape:collect="always"
       xlink:href="#linearGradient3863"
       id="radialGradient3869"
       cx="66"
       cy="113"
       fx="66"
       fy="113"
       r="40"
       gradientTransform="matrix(1,0,0,0.375,0,70.625)"
       gradientUnits="userSpaceOnUse" />
  </defs>
  <sodipodi:namedview
     id="base"
     pagecolor="#ffffff"
     bordercolor="#666666"
     borderopacity="1.0"
     gridtolerance="10000"
     guidetolerance="10"
     objecttolerance="10"
     inkscape:pageopacity="0.0"
     inkscape:pageshadow="2"
     inkscape:zoom="4"
     inkscape:cx="48"
     inkscape:cy="48"
     inkscape:document-units="px"
     inkscape:current-layer="layer1"
     width="128px"
     height="128px"
     showgrid="false"
     inkscape:grid-points="true"
     inkscape:window-width="1061"
     inkscape:window-height="759"
     inkscape:window-x="0"
     inkscape:window-y="24"
     inkscape:window-maximized="0"
     fit-margin-top="0"
     fit-margin-left="0"
     fit-margin-right="0"
     fit-margin-bottom="0">
    <inkscape:grid
       id="GridFromPre046Settings"
       type="xygrid"
       originx="0px"
       originy="-3.8610229e-06px"
       spacingx="4px"
       spacingy="4px"
       color="#0000ff"
       empcolor="#0000ff"
       opacity="0.2"
       empopacity="0.4"
       empspacing="2"
       visible="true"
       enabled="true"
       snapvisiblegridlinesonly="true" />
  </sodipodi:namedview>
  <metadata
     id="metadata7">
    <rdf:RDF>
      <cc:Work
         rdf:about="">
        <dc:format>image/svg+xml</dc:format>
        <dc:type
           rdf:resource="http://purl.org/dc/dcmitype/StillImage" />
        <dc:title />
      </cc:Work>
    </rdf:RDF>
  </metadata>
  <g
     inkscape:label="Layer 1"
     inkscape:groupmode="layer"
     id="layer1"
     transform="translate(0,-31.999996)">
    <g
       id="g3015">
      <path
         transform="matrix(0.65066634,0,0,0.52053328,5.0560209,59.429745)"
         d="m 106,113 c 0,8.28427 -17.90861,15 -40,15 -22.09139,0 -40,-6.71573 -40,-15 0,-8.28427 17.90861,-15 40,-15 22.09139,0 40,6.71573 40,15 z"
         sodipodi:ry="15"
         sodipodi:rx="40"
         sodipodi:cy="113"
         sodipodi:cx="66"
         id="path3372"
         style="fill:url(#radialGradient3869);fill-opacity:1;stroke:none"
         sodipodi:type="arc" />
      <path
         inkscape:connector-curvature="0"
         sodipodi:nodetypes="csssc"
         id="path2160"
         d="M 78,80.000001 C 78,116 64.56,122 48,122 31.44,122 17.999999,116 17.999999,80.000001 17.999999,43.999999 31.44,38 48,38 c 16.56,0 30,5.999999 30,42.000001 z"
         style="fill:url(#radialGradient3085);fill-opacity:1;stroke:none" />
      <path
         inkscape:connector-curvature="0"
         style="fill:url(#radialGradient3076);fill-opacity:1;stroke:none"
         d="M 75,80 C 75,113.42857 62.904001,119 48.000001,119 33.096001,119 21,113.42857 21,80 21,46.571428 33.096001,40.999999 48.000001,40.999999 62.904001,40.999999 75,46.571428 75,80 z"
         id="path3143"
         sodipodi:nodetypes="csssc" />
      <path
         inkscape:connector-curvature="0"
         sodipodi:nodetypes="csssc"
         id="path3305"
         d="M 75,80 C 75,113.42857 62.904001,119 48.000001,119 33.096001,119 21,113.42857 21,80 21,46.571428 33.096001,40.999999 48.000001,40.999999 62.904001,40.999999 75,46.571428 75,80 z"
         style="fill:none;stroke:url(#radialGradient3062);stroke-width:1.125;stroke-linecap:round;stroke-linejoin:round;stroke-miterlimit:4;stroke-opacity:1;stroke-dasharray:none" />
      <path
         id="path3810"
         d="M 44.84375,48.5 A 1.50015,1.50015 0 0 0 43.5,50 l 0,9.96875 0,13.25 -2.25,1.8125 -10.3125,-8.25 A 1.50015,1.50015 0 0 0 28.5,67.9375 l 0,6 a 1.50015,1.50015 0 0 0 0.5625,1.15625 l 6.0625,4.84375 -6.0625,4.84375 A 1.50015,1.50015 0 0 0 28.5,85.9375 l 0,6 a 1.50015,1.50015 0 0 0 2.4375,1.15625 l 10.3125,-8.25 2.25,1.8125 0,23.28125 a 1.50015,1.50015 0 0 0 2.46875,1.15625 l 18,-15 a 1.50015,1.50015 0 0 0 0,-2.3125 L 47.34375,79.9375 63.96875,66.125 a 1.50015,1.50015 0 0 0 0,-2.3125 l -18,-14.96875 A 1.50015,1.50015 0 0 0 44.84375,48.5 z M 49.5,60.84375 l 5.125,4.09375 -5.125,4.09375 0,-8.1875 z m 0,30 5.125,4.09375 -5.125,4.09375 0,-8.1875 z"
         style="opacity:0.5;fill:#003871;fill-opacity:1;fill-rule:evenodd;stroke:none" />
      <path
         id="path35"
         inkscape:connector-curvature="0"
         style="fill:#ffffff;fill-opacity:1;fill-rule:evenodd;stroke:#ffffff"
         d="m 45,49.999999 0,9.984375 0,13.945313 -3.75,3 -11.25,-9 0,6 7.5,6 -7.5,6 0,6 11.25,-9 3.75,3 0,24.000003 18,-14.976566 -18,-15 L 63,64.976562 45,49.999999 z m 3,7.710938 9,7.21875 -9,7.21875 0,-14.4375 z m 0,30 9,7.21875 -9,7.218753 0,-14.437503 z" />
      <path
         inkscape:connector-curvature="0"
         id="path3238"
         d="m 44.5,48.9375 0,1.0625 0,9.96875 0,13.71875 -3.25,2.59375 -10.9375,-8.75 L 29.5,66.875 l 0,1.0625 0,6 0,0.21875 0.1875,0.15625 7,5.625 -7,5.59375 -0.1875,0.15625 0,0.25 0,6 0,1.03125 0.8125,-0.65625 10.9375,-8.75 3.25,2.59375 0,23.78125 0,1.0625 0.8125,-0.6875 18,-14.96875 0.46875,-0.375 L 63.3125,94.5625 45.78125,79.96875 63.3125,65.375 63.78125,64.96875 63.3125,64.59375 45.3125,49.625 44.5,48.9375 z m 1,2.125 L 62.21875,64.96875 44.6875,79.5625 44.21875,79.9375 44.6875,80.34375 62.21875,94.9375 45.5,108.84375 l 0,-22.90625 0,-0.25 -0.1875,-0.15625 -3.75,-3 -0.3125,-0.25 -0.3125,0.25 L 30.5,90.875 l 0,-4.71875 7.3125,-5.84375 0.5,-0.375 -0.5,-0.40625 -7.3125,-5.84375 0,-4.71875 10.4375,8.34375 0.3125,0.25 0.3125,-0.25 3.75,-3 0.1875,-0.15625 0,-0.21875 0,-13.96875 0,-8.90625 z m 2,5.59375 0,1.0625 0,14.4375 0,1.03125 0.8125,-0.65625 9,-7.21875 0.5,-0.375 -0.5,-0.40625 -9,-7.21875 L 47.5,56.65625 z m 1,2.09375 7.6875,6.1875 L 48.5,71.09375 48.5,58.75 z m -1,27.90625 0,1.0625 0,14.4375 0,1.03125 0.8125,-0.65625 9,-7.21875 0.5,-0.375 -0.5,-0.40625 -9,-7.21875 L 47.5,86.65625 z m 1,2.09375 7.6875,6.1875 -7.6875,6.15625 0,-12.34375 z"
         style="font-size:medium;font-style:normal;font-variant:normal;font-weight:normal;font-stretch:normal;text-indent:0;text-align:start;text-decoration:none;line-height:normal;letter-spacing:normal;word-spacing:normal;text-transform:none;direction:ltr;block-progression:tb;writing-mode:lr-tb;text-anchor:start;baseline-shift:baseline;color:#000000;fill:#ffffff;fill-opacity:1;fill-rule:evenodd;stroke:none;stroke-width:1;marker:none;visibility:visible;display:inline;overflow:visible;enable-background:accumulate;font-family:Sans;-inkscape-font-specification:Sans" />
      <path
         inkscape:connector-curvature="0"
         id="path3288"
         d="m 48,40.999999 c -14.09265,0 -25.663559,4.99354 -26.882813,33.796875 C 28.706695,73.56323 37.577989,72.874999 48,72.874999 c 10.42201,0 19.293305,0.688231 26.882812,1.921875 C 73.663559,45.993538 62.092651,40.999999 48,40.999999 z"
         style="opacity:0.65217393;fill:url(#radialGradient3065);fill-opacity:1;stroke:none" />
      <path
         transform="translate(0,31.999996)"
         id="path3352"
         d="M 48 5.96875 C 31.422539 5.96875 17.96875 11.96204 17.96875 48 L 78.03125 48 C 78.03125 11.96204 64.577462 5.96875 48 5.96875 z "
         style="fill:url(#radialGradient3079);fill-opacity:1;stroke:none" />
    </g>
  </g>
</svg>
