<?xml version="1.0" encoding="UTF-8" standalone="no"?>
<!-- Created with Inkscape (http://www.inkscape.org/) -->

<svg
   xmlns:dc="http://purl.org/dc/elements/1.1/"
   xmlns:cc="http://creativecommons.org/ns#"
   xmlns:rdf="http://www.w3.org/1999/02/22-rdf-syntax-ns#"
   xmlns:svg="http://www.w3.org/2000/svg"
   xmlns="http://www.w3.org/2000/svg"
   xmlns:xlink="http://www.w3.org/1999/xlink"
   xmlns:sodipodi="http://sodipodi.sourceforge.net/DTD/sodipodi-0.dtd"
   xmlns:inkscape="http://www.inkscape.org/namespaces/inkscape"
   width="96"
   height="96"
   id="svg4170"
   version="1.1"
   inkscape:version="0.48.3.1 r9886"
   sodipodi:docname="softwarecenter.svg">
  <defs
     id="defs4172">
    <linearGradient
       id="SVGID_2_"
       y2="31.031"
       gradientUnits="userSpaceOnUse"
       x2="-482.82001"
       gradientTransform="translate(578.55,49.889)"
       y1="30.669001"
       x1="-469.81">
      <stop
         style="stop-color:#73f1f3;stop-opacity:1;"
         offset="0"
         id="stop21" />
      <stop
         style="stop-color:#006680;stop-opacity:1;"
         offset="1"
         id="stop25" />
    </linearGradient>
    <radialGradient
       id="SVGID_1_"
       gradientUnits="userSpaceOnUse"
       cy="9.8095999"
       cx="-514.13"
       gradientTransform="matrix(0.5424,0,0,0.5424,338.17,67.963)"
       r="145.95">
      <stop
         style="stop-color:#81feff;stop-opacity:1;"
         offset="0"
         id="stop6" />
      <stop
         style="stop-color:#40a6c0;stop-opacity:1;"
         offset="0.5521"
         id="stop12" />
    </radialGradient>
    <radialGradient
       id="SVGID_3_"
       gradientUnits="userSpaceOnUse"
       cy="-35.084999"
       cx="-497.78"
       gradientTransform="matrix(0.5424,0,0,0.5424,338.17,67.963)"
       r="70.466003">
      <stop
         style="stop-color:#ffffff;stop-opacity:1;"
         offset="0"
         id="stop34" />
      <stop
         style="stop-color:#41fdff;stop-opacity:1;"
         offset="1"
         id="stop36" />
    </radialGradient>
    <radialGradient
       id="SVGID_13_"
       gradientUnits="userSpaceOnUse"
       cy="-88.739998"
       cx="-513.15997"
       gradientTransform="matrix(0.4482,0.0523,0,0.4482,287.47,102.28)"
       r="27.538">
      <stop
         style="stop-color:#01fdff;stop-opacity:1;"
         offset="0"
         id="stop160" />
      <stop
         style="stop-color:#006680;stop-opacity:1;"
         offset="1"
         id="stop164" />
    </radialGradient>
    <mask
       id="SVGID_10_"
       height="22.355"
       width="79.399"
       y="99.461"
       x="16.676"
       maskUnits="userSpaceOnUse">
      <g
         style="filter:url(#Adobe_OpacityMaskFilter_1_)"
         id="g129">
        <radialGradient
           id="SVGID_11_"
           gradientUnits="userSpaceOnUse"
           cy="-246.22"
           cx="-533.47998"
           gradientTransform="matrix(0.5362,0.0816,-0.0177,0.1163,337.54,177.72)"
           r="100.68">
          <stop
             style="stop-color:#040505"
             offset="0"
             id="stop140" />
          <stop
             offset="1"
             id="stop142" />
        </radialGradient>
        <path
           style="fill:url(#SVGID_11_)"
           inkscape:connector-curvature="0"
           d="m 18.486,99.463 c 34.158,4.09 77.589,12.6 77.589,12.6 l -1.955,9.756 -77.444,-11.848 1.81,-10.507 z"
           id="path144" />
      </g>
    </mask>
    <filter
       color-interpolation-filters="sRGB"
       id="Adobe_OpacityMaskFilter_1_"
       height="22.355"
       width="79.399002"
       y="99.460999"
       x="16.676001"
       filterUnits="userSpaceOnUse">
      <feColorMatrix
         values="1 0 0 0 0  0 1 0 0 0  0 0 1 0 0  0 0 0 1 0"
         type="matrix"
         id="feColorMatrix126" />
    </filter>
    <mask
       id="SVGID_8_"
       height="24.508"
       width="79.312"
       y="87.553"
       x="18.487"
       maskUnits="userSpaceOnUse">
      <g
         style="filter:url(#Adobe_OpacityMaskFilter)"
         id="g102">
        <radialGradient
           id="SVGID_9_"
           gradientUnits="userSpaceOnUse"
           cy="-250.03999"
           cx="-532.92999"
           gradientTransform="matrix(0.5362,0.0816,-0.0177,0.1163,337.48,176.05)"
           r="102">
          <stop
             style="stop-color:#040505"
             offset="0"
             id="stop115" />
          <stop
             offset="1"
             id="stop117" />
        </radialGradient>
        <path
           style="fill:url(#SVGID_9_)"
           inkscape:connector-curvature="0"
           d="m 18.487,99.463 c 0,0 29.515,1.502 77.588,12.6 L 97.8,99.761 18.898,87.558 18.487,99.466 z"
           id="path119" />
      </g>
    </mask>
    <filter
       color-interpolation-filters="sRGB"
       id="Adobe_OpacityMaskFilter"
       height="24.507999"
       width="79.311996"
       y="87.553001"
       x="18.487"
       filterUnits="userSpaceOnUse">
      <feColorMatrix
         values="1 0 0 0 0  0 1 0 0 0  0 0 1 0 0  0 0 0 1 0"
         type="matrix"
         id="feColorMatrix99" />
    </filter>
    <linearGradient
       inkscape:collect="always"
       xlink:href="#SVGID_2_"
       id="linearGradient3090"
       gradientUnits="userSpaceOnUse"
       gradientTransform="matrix(0.90761753,0,0,0.90761753,516.51307,-25.322982)"
       x1="-469.81"
       y1="30.669001"
       x2="-482.82001"
       y2="31.031" />
    <radialGradient
       inkscape:collect="always"
       xlink:href="#SVGID_1_"
       id="radialGradient3094"
       gradientUnits="userSpaceOnUse"
       gradientTransform="matrix(0.49229175,0,0,0.49229175,298.33997,-8.918703)"
       cx="-514.13"
       cy="9.8095999"
       r="145.95" />
    <radialGradient
       inkscape:collect="always"
       xlink:href="#SVGID_3_"
       id="radialGradient3103"
       gradientUnits="userSpaceOnUse"
       gradientTransform="matrix(0.5424,0,0,0.5424,338.17,67.963)"
       cx="-497.78"
       cy="-35.084999"
       r="70.466003" />
    <radialGradient
       inkscape:collect="always"
       xlink:href="#SVGID_13_"
       id="radialGradient3963"
       gradientUnits="userSpaceOnUse"
       gradientTransform="matrix(0.40679418,0.0474684,0,0.40679418,252.32377,22.228008)"
       cx="-485.89999"
       cy="-69.900002"
       r="28.122" />
    <radialGradient
       inkscape:collect="always"
       xlink:href="#SVGID_13_"
       id="radialGradient3966"
       gradientUnits="userSpaceOnUse"
       gradientTransform="matrix(0.40679418,0.0474684,0,0.40679418,252.32377,22.228008)"
       cx="-503.88"
       cy="-75.958"
       r="17.625999" />
    <radialGradient
       inkscape:collect="always"
       xlink:href="#SVGID_13_"
       id="radialGradient3969"
       gradientUnits="userSpaceOnUse"
       gradientTransform="matrix(0.40679418,0.0474684,0,0.40679418,252.32377,22.228008)"
       cx="-529.51001"
       cy="-70.092003"
       r="27.540001" />
    <radialGradient
       inkscape:collect="always"
       xlink:href="#SVGID_13_"
       id="radialGradient3972"
       gradientUnits="userSpaceOnUse"
       gradientTransform="matrix(0.40679418,0.0474684,0,0.40679418,252.32377,22.228008)"
       cx="-469.54999"
       cy="-88.552002"
       r="28.118999" />
    <radialGradient
       inkscape:collect="always"
       xlink:href="#SVGID_13_"
       id="radialGradient3975"
       gradientUnits="userSpaceOnUse"
       gradientTransform="matrix(0.40679418,0.0474684,0,0.40679418,252.32377,22.228008)"
       cx="-487.53"
       cy="-94.606003"
       r="17.624001" />
    <radialGradient
       inkscape:collect="always"
       xlink:href="#SVGID_13_"
       id="radialGradient3978"
       gradientUnits="userSpaceOnUse"
       gradientTransform="matrix(0.40679418,0.0474684,0,0.40679418,252.32377,22.228008)"
       cx="-513.15997"
       cy="-88.739998"
       r="27.538" />
  </defs>
  <sodipodi:namedview
     id="base"
     pagecolor="#ffffff"
     bordercolor="#666666"
     borderopacity="1.0"
     inkscape:pageopacity="0.0"
     inkscape:pageshadow="2"
     inkscape:zoom="5.34375"
     inkscape:cx="41.721479"
     inkscape:cy="48"
     inkscape:current-layer="layer1"
     showgrid="true"
     inkscape:grid-bbox="true"
     inkscape:document-units="px"
     inkscape:window-width="1017"
     inkscape:window-height="727"
     inkscape:window-x="24"
     inkscape:window-y="85"
     inkscape:window-maximized="0"
     inkscape:object-paths="true"
     inkscape:snap-global="false"
     inkscape:object-nodes="false"
     inkscape:snap-midpoints="true" />
  <metadata
     id="metadata4175">
    <rdf:RDF>
      <cc:Work
         rdf:about="">
        <dc:format>image/svg+xml</dc:format>
        <dc:type
           rdf:resource="http://purl.org/dc/dcmitype/StillImage" />
        <dc:title />
      </cc:Work>
    </rdf:RDF>
  </metadata>
  <g
     id="layer1"
     inkscape:label="Layer 1"
     inkscape:groupmode="layer"
     transform="translate(0,48)">
    <path
       transform="matrix(0.90761753,0,0,0.90761753,-8.589045,-70.603113)"
       style="fill:url(#radialGradient3103);stroke:none"
       d="m 28.705,41.159 78.105,9.728 -11.245,2.828 -0.032,4.226 -65.365,-8.486 0.285,-4.525 z"
       id="polygon38" />
    <path
       style="fill:url(#linearGradient3090);stroke:none"
       inkscape:connector-curvature="0"
       d="m 89.99637,29.498024 c 0,0 -0.987487,-12.574134 -1.117277,-26.854588 -0.132512,-14.2859 -0.526418,-27.057893 -0.526418,-27.057893 l -9.739644,2.633906 2.56039,4.214068 c 0,0 -0.126159,15.829757 -0.396629,29.555657 h 0.110729 l 1.343274,17.112221 7.769206,0.399351 z"
       id="path27" />
    <path
       style="fill:url(#radialGradient3094);stroke:none"
       inkscape:connector-curvature="0"
       d="m 8.5422357,-26.879547 72.8544583,9.281297 c 0,0 -0.636239,42.470147 -1.017439,48.573875 -0.382107,6.103728 -0.763306,10.935883 -0.763306,10.935883 L 5.999999,29.068721 c 0,0 0.8894652,-4.9565 1.2706645,-11.315268 0.382107,-6.359676 1.2715722,-44.635722 1.2715722,-44.635722 z"
       id="path14" />
    <path
       inkscape:connector-curvature="0"
       style="fill:url(#radialGradient3978);fill-opacity:1;stroke:none"
       d="m 40.877926,-38.081362 4.077925,-3.601426 0,11.981459 -4.077925,-0.530049 z"
       id="polygon166" />
    <path
       inkscape:connector-curvature="0"
       style="fill:url(#radialGradient3975);fill-opacity:1;stroke:none"
       d="m 58.61731,-40.087196 0,4.077018 -13.661459,-1.594684 0,-4.077926 z"
       id="polygon175" />
    <path
       inkscape:connector-curvature="0"
       style="fill:url(#radialGradient3972);fill-opacity:1;stroke:none"
       d="m 62.695236,-35.531864 -4.077926,-4.555332 0,12.18658 4.077926,0.530049 z"
       id="polygon184" />
    <path
       transform="matrix(0.90761753,0,0,0.90761753,-8.589045,-70.603113)"
       style="fill:#01ccff;fill-opacity:1;stroke:none"
       d="m 29.925,44.762 -1.22,-3.603 0,3.982 z"
       id="polygon31" />
    <path
       transform="matrix(0.90761753,0,0,0.90761753,-8.589045,-70.603113)"
       style="fill:#007e80;fill-opacity:1;stroke:none"
       d="m 99.145,58.398 -3.58,-4.683 -0.032,4.226"
       id="polyline16" />
    <path
       style="fill:#007795;fill-opacity:1;stroke:none"
       d="m 18.875,48.174 11.05,-3.412 0.528,0.168 -0.275,4.683"
       id="polyline29"
       transform="matrix(0.90761753,0,0,0.90761753,-8.589045,-70.603113)" />
    <g
       id="g3980"
       style="fill:#006680;fill-opacity:1">
      <path
         transform="matrix(0.90761753,0,0,0.90761753,-8.589045,-70.603113)"
         id="polygon73"
         d="m 18.875,48.174 0.718,-0.221 79.283,10.031 0.269,0.414 z"
         style="fill:#006680;stroke:none;fill-opacity:1" />
      <path
         id="polygon75"
         d="m 106.27,51.031 0.54,-0.144 -78.105,-9.728 0.087,0.259 z"
         style="fill:#006680;stroke:none;fill-opacity:1"
         transform="matrix(0.90761753,0,0,0.90761753,-8.589045,-70.603113)" />
      <path
         transform="matrix(0.90761753,0,0,0.90761753,-8.589045,-70.603113)"
         id="polygon77"
         d="m 106.81,50.887 -0.7,-0.028 -10.545,2.856 0.51,0.072 z"
         style="fill:#006680;stroke:none;fill-opacity:1" />
      <path
         transform="matrix(0.90761753,0,0,0.90761753,-8.589045,-70.603113)"
         id="polygon79"
         d="M 99.145,58.398 98.27,58 l -2.705,-4.285 0.592,0.051 z"
         style="fill:#006680;stroke:none;fill-opacity:1" />
      <path
         id="polygon83"
         d="m 18.875,48.174 1.312,0.119 10.266,-3.363 -0.528,-0.168 z"
         style="fill:#006680;stroke:none;fill-opacity:1"
         transform="matrix(0.90761753,0,0,0.90761753,-8.589045,-70.603113)" />
      <path
         transform="matrix(0.90761753,0,0,0.90761753,-8.589045,-70.603113)"
         id="polygon81"
         d="m 29.088,41.207 1.365,3.723 -0.528,-0.168 -1.22,-3.603 z"
         style="fill:#006680;stroke:none;fill-opacity:1" />
    </g>
    <path
       style="fill:url(#radialGradient4168);stroke:none"
       inkscape:connector-curvature="0"
       d="m 8.5422357,-26.879547 c 0,0 -0.8885576,38.276047 -1.2706646,44.633 -0.2196434,3.664052 -0.6081037,6.858865 -0.8985413,8.912804 0.00278,-0.01089 1.4721556,-4.863922 1.8987359,-18.43462 0.424765,-13.57705 0.27047,-35.111184 0.27047,-35.111184 z"
       id="path71" />
    <path
       transform="matrix(0.90761753,0,0,0.90761753,-8.589045,-70.603113)"
       style="fill:#65d8f5;fill-opacity:1;stroke:none"
       d="m 108.62,110.29 -11.437,13.67 2.877,-14.11 z"
       id="polygon18" />
    <path
       style="fill:#136174;fill-opacity:1;stroke:none"
       inkscape:connector-curvature="0"
       d="m 80.879352,11.986451 c -0.208752,8.737634 -0.433841,16.615754 -0.613549,18.989174 -0.46107,6.103728 -0.651669,10.935883 -0.651669,10.935883 L 82.49945,29.100487 80.879352,11.97919 z"
       id="path3" />
    <path
       style="fill:url(#radialGradient3969);fill-opacity:1;stroke:none"
       d="m 34.22872,-31.2706 4.07611,-3.602334 0,17.595494 -4.07611,-0.530049 z"
       id="polygon2756"
       inkscape:connector-curvature="0"
       sodipodi:nodetypes="ccccc" />
    <path
       inkscape:connector-curvature="0"
       style="fill:url(#radialGradient3966);fill-opacity:1;stroke:none"
       d="m 51.967197,-33.277342 0,4.077925 -13.662367,-1.594684 0,-4.078833 z"
       id="polygon2765" />
    <path
       style="fill:url(#radialGradient3963);fill-opacity:1;stroke:none"
       d="m 56.045122,-28.722917 -4.077925,-4.554425 0,17.801523 4.077925,0.528233 z"
       id="polygon2774"
       inkscape:connector-curvature="0"
       sodipodi:nodetypes="ccccc" />
    <g
       id="g3826"
       transform="matrix(1,0.15838382,0,1,0,-7.1272718)">
      <path
         transform="matrix(1.2284482,0,0,1.2284482,69.597699,-52.229881)"
         d="m -3.7426891,49.02924 c 0,8.991583 -7.2891189,16.280702 -16.2807029,16.280702 -8.991583,0 -16.280702,-7.289119 -16.280702,-16.280702 0,-8.991584 7.289119,-16.280703 16.280702,-16.280703 8.991584,0 16.2807029,7.289119 16.2807029,16.280703 z"
         sodipodi:ry="16.280703"
         sodipodi:rx="16.280703"
         sodipodi:cy="49.02924"
         sodipodi:cx="-20.023392"
         id="path3988"
         style="fill:#006680;fill-opacity:1;stroke:none"
         sodipodi:type="arc" />
      <path
         sodipodi:nodetypes="cccccccc"
         inkscape:connector-curvature="0"
         id="rect3990"
         d="m 39,-1.9999998 12,0 L 51,10.000001 57,10 45,22.000001 33,10 l 6,0 z"
         style="color:#000000;fill:#d5ffff;fill-opacity:1;fill-rule:evenodd;stroke:none;stroke-width:1px;marker:none;visibility:visible;display:inline;overflow:visible;enable-background:accumulate" />
    </g>
  </g>
</svg>
