<?xml version="1.0" encoding="UTF-8" standalone="no"?>
<!-- Created with Inkscape (http://www.inkscape.org/) -->

<svg
   xmlns:dc="http://purl.org/dc/elements/1.1/"
   xmlns:cc="http://creativecommons.org/ns#"
   xmlns:rdf="http://www.w3.org/1999/02/22-rdf-syntax-ns#"
   xmlns:svg="http://www.w3.org/2000/svg"
   xmlns="http://www.w3.org/2000/svg"
   xmlns:xlink="http://www.w3.org/1999/xlink"
   xmlns:sodipodi="http://sodipodi.sourceforge.net/DTD/sodipodi-0.dtd"
   xmlns:inkscape="http://www.inkscape.org/namespaces/inkscape"
   width="96"
   height="96"
   id="svg2606"
   sodipodi:version="0.32"
   inkscape:version="0.48.3.1 r9886"
   version="1.0"
   sodipodi:docname="video-player.svg"
   inkscape:output_extension="org.inkscape.output.svgz.inkscape"
   inkscape:export-filename="video-player.png"
   inkscape:export-xdpi="90"
   inkscape:export-ydpi="90">
  <defs
     id="defs2608">
    <filter
       inkscape:collect="always"
       x="-0.058450524"
       width="1.116901"
       y="-0.53556991"
       height="2.0711398"
       id="filter4491"
       color-interpolation-filters="sRGB">
      <feGaussianBlur
         inkscape:collect="always"
         stdDeviation="2.3989068"
         id="feGaussianBlur4493" />
    </filter>
    <filter
       inkscape:collect="always"
       id="filter8086"
       color-interpolation-filters="sRGB">
      <feGaussianBlur
         inkscape:collect="always"
         stdDeviation="0.47881728"
         id="feGaussianBlur8088" />
    </filter>
    <radialGradient
       gradientUnits="userSpaceOnUse"
       gradientTransform="matrix(0.95,0,0,-0.95,-282.3963,-266.2798)"
       r="108.2344"
       cy="-306.1936"
       cx="308.47711"
       id="radialGradient3233">
      <stop
         id="stop3235"
         style="stop-color:#5a5868;stop-opacity:1;"
         offset="0" />
      <stop
         id="stop3237"
         style="stop-color:#30333d;stop-opacity:1;"
         offset="1" />
    </radialGradient>
    <linearGradient
       id="XMLID_45_"
       gradientUnits="userSpaceOnUse"
       x1="45.809101"
       y1="60.7463"
       x2="184.8096"
       y2="162.4128">
      <stop
         offset="0"
         style="stop-color:#FFFFFF"
         id="stop2633" />
      <stop
         offset="1"
         style="stop-color:#A4C0E4"
         id="stop2635" />
    </linearGradient>
    <linearGradient
       id="XMLID_44_"
       gradientUnits="userSpaceOnUse"
       x1="54.420399"
       y1="48.972401"
       x2="193.4209"
       y2="150.6389">
      <stop
         offset="0"
         style="stop-color:#FFFFFF"
         id="stop2624" />
      <stop
         offset="1"
         style="stop-color:#A4C0E4"
         id="stop2626" />
    </linearGradient>
    <linearGradient
       id="XMLID_43_"
       gradientUnits="userSpaceOnUse"
       x1="66.608398"
       y1="32.309299"
       x2="205.6089"
       y2="133.9758">
      <stop
         offset="0"
         style="stop-color:#FFFFFF"
         id="stop2615" />
      <stop
         offset="1"
         style="stop-color:#A4C0E4"
         id="stop2617" />
    </linearGradient>
    <linearGradient
       id="XMLID_36_"
       gradientUnits="userSpaceOnUse"
       x1="382.21729"
       y1="-305.7478"
       x2="382.21729"
       y2="-303.53589"
       gradientTransform="matrix(1,0,0,-1,-290,-266.4741)">
      <stop
         offset="0"
         style="stop-color:black;stop-opacity:0;"
         id="stop2530" />
      <stop
         offset="1"
         style="stop-color:#000000"
         id="stop2532" />
    </linearGradient>
    <radialGradient
       id="XMLID_29_"
       cx="357.5249"
       cy="-322.54471"
       r="125.8389"
       gradientTransform="matrix(0.95,0,0,-0.8769,-282.3963,-263.2589)"
       gradientUnits="userSpaceOnUse">
      <stop
         offset="0"
         style="stop-color:#4B4A57"
         id="stop2479" />
      <stop
         offset="0.7396"
         style="stop-color:#000000"
         id="stop2481" />
    </radialGradient>
    <radialGradient
       id="XMLID_35_"
       cx="308.42529"
       cy="-306.1936"
       r="108.3234"
       gradientTransform="matrix(0.95,0,0,-0.95,-282.3963,-266.2798)"
       gradientUnits="userSpaceOnUse">
      <stop
         offset="0"
         style="stop-color:#4B4A57"
         id="stop2523" />
      <stop
         offset="1"
         style="stop-color:#000000"
         id="stop2525" />
    </radialGradient>
    <linearGradient
       id="linearGradient10207">
      <stop
         style="stop-color:#a2a2a2;stop-opacity:1;"
         offset="0"
         id="stop10209" />
      <stop
         style="stop-color:#ffffff;stop-opacity:1;"
         offset="1"
         id="stop10211" />
    </linearGradient>
    <radialGradient
       id="XMLID_8_"
       cx="102"
       cy="112.3047"
       r="139.55859"
       gradientUnits="userSpaceOnUse">
      <stop
         offset="0"
         style="stop-color:#b7b8b9;stop-opacity:1;"
         id="stop41" />
      <stop
         offset="0.18851049"
         style="stop-color:#ECECEC"
         id="stop47" />
      <stop
         offset="0.25718147"
         style="stop-color:#FAFAFA"
         id="stop49" />
      <stop
         offset="0.30111277"
         style="stop-color:#FFFFFF"
         id="stop51" />
      <stop
         offset="0.5313"
         style="stop-color:#FAFAFA"
         id="stop53" />
      <stop
         offset="0.8449"
         style="stop-color:#EBECEC"
         id="stop55" />
      <stop
         offset="1"
         style="stop-color:#E1E2E3"
         id="stop57" />
    </radialGradient>
    <filter
       inkscape:collect="always"
       x="-0.01225892"
       width="1.0245178"
       y="-0.56815594"
       height="2.136312"
       id="filter14155"
       color-interpolation-filters="sRGB">
      <feGaussianBlur
         inkscape:collect="always"
         stdDeviation="0.3269045"
         id="feGaussianBlur14157" />
    </filter>
    <filter
       inkscape:collect="always"
       id="filter3352"
       color-interpolation-filters="sRGB">
      <feGaussianBlur
         inkscape:collect="always"
         stdDeviation="0.88181593"
         id="feGaussianBlur3354" />
    </filter>
    <filter
       color-interpolation-filters="sRGB"
       inkscape:collect="always"
       id="filter3310">
      <feGaussianBlur
         inkscape:collect="always"
         stdDeviation="0.11377897"
         id="feGaussianBlur3312" />
    </filter>
    <linearGradient
       id="linearGradient6666">
      <stop
         style="stop-color:#9ff1f2;stop-opacity:1;"
         offset="0"
         id="stop6668" />
      <stop
         id="stop3183"
         offset="0.5"
         style="stop-color:#58b4b5;stop-opacity:1;" />
      <stop
         style="stop-color:#0c5758;stop-opacity:1;"
         offset="1"
         id="stop6670" />
    </linearGradient>
    <linearGradient
       id="linearGradient6446">
      <stop
         id="stop6448"
         offset="0"
         style="stop-color:#ffffff;stop-opacity:1;" />
      <stop
         id="stop6450"
         offset="1"
         style="stop-color:#ffffff;stop-opacity:0;" />
    </linearGradient>
    <clipPath
       clipPathUnits="userSpaceOnUse"
       id="clipPath5947">
      <path
         sodipodi:type="arc"
         style="fill:#7a4c00;fill-opacity:1;stroke:none"
         id="path5949"
         sodipodi:cx="203.82938"
         sodipodi:cy="45.093208"
         sodipodi:rx="56.61927"
         sodipodi:ry="28.309635"
         d="m 260.44865,45.093208 a 56.61927,28.309635 0 1 1 -113.23854,0 56.61927,28.309635 0 1 1 113.23854,0 z"
         transform="matrix(0.7070054,0,0,0.7070054,-84.728337,7.4759644)" />
    </clipPath>
    <filter
       color-interpolation-filters="sRGB"
       inkscape:collect="always"
       id="filter6019"
       x="-0.063963689"
       width="1.1279274"
       y="-0.12176881"
       height="1.2435375">
      <feGaussianBlur
         inkscape:collect="always"
         stdDeviation="1.196414"
         id="feGaussianBlur6021" />
    </filter>
    <linearGradient
       id="linearGradient2990">
      <stop
         id="stop2992"
         offset="0"
         style="stop-color:#d7d7d7;stop-opacity:1;" />
      <stop
         id="stop2994"
         offset="1"
         style="stop-color:#ffffff;stop-opacity:1;" />
    </linearGradient>
    <clipPath
       clipPathUnits="userSpaceOnUse"
       id="clipPath6103">
      <path
         inkscape:connector-curvature="0"
         id="path6105"
         d="m 200.1619,45.294924 c -5.42224,0.212474 -9.70739,4.671813 -9.70376,10.098216 l 0,25.245539 c 0.0171,3.487235 1.83207,6.718917 4.80092,8.54838 2.96888,1.829463 6.67151,1.997824 9.79416,0.445344 l 25.24554,-12.62277 c 3.37866,-1.725896 5.50499,-5.199776 5.50499,-8.993723 0,-3.793948 -2.12633,-7.267827 -5.50499,-8.993724 l -25.24554,-12.62277 c -1.51165,-0.77352 -3.19397,-1.153395 -4.89132,-1.104492 z"
         style="fill:url(#radialGradient6107);fill-opacity:1;fill-rule:evenodd;stroke:none" />
    </clipPath>
    <filter
       color-interpolation-filters="sRGB"
       inkscape:collect="always"
       id="filter6085">
      <feGaussianBlur
         inkscape:collect="always"
         stdDeviation="0.26087548"
         id="feGaussianBlur6087" />
    </filter>
    <clipPath
       clipPathUnits="userSpaceOnUse"
       id="clipPath6097">
      <path
         inkscape:connector-curvature="0"
         style="fill:url(#radialGradient6101);fill-opacity:1;fill-rule:evenodd;stroke:none"
         d="m 151.42888,45.294924 c -5.42224,0.212474 -9.70739,4.671813 -9.70376,10.098216 l 0,25.245539 c 0.0171,3.487235 1.83207,6.718917 4.80092,8.54838 2.96888,1.829463 6.67151,1.997824 9.79416,0.445344 l 25.24554,-12.62277 c 3.37866,-1.725896 5.50499,-5.199776 5.50499,-8.993723 0,-3.793948 -2.12633,-7.267827 -5.50499,-8.993724 L 156.3202,46.399416 c -1.51165,-0.77352 -3.19397,-1.153395 -4.89132,-1.104492 z"
         id="path6099" />
    </clipPath>
    <filter
       color-interpolation-filters="sRGB"
       inkscape:collect="always"
       id="filter6093">
      <feGaussianBlur
         inkscape:collect="always"
         stdDeviation="0.17382035"
         id="feGaussianBlur6095" />
    </filter>
    <radialGradient
       inkscape:collect="always"
       xlink:href="#XMLID_29_"
       id="radialGradient3160"
       gradientUnits="userSpaceOnUse"
       gradientTransform="matrix(1.0082325,0,0,-0.8826262,-333.32036,-249.68029)"
       cx="390.47781"
       cy="-374.30042"
       fx="390.47781"
       fy="-374.30042"
       r="125.8389" />
    <linearGradient
       inkscape:collect="always"
       xlink:href="#XMLID_43_"
       id="linearGradient3162"
       gradientUnits="userSpaceOnUse"
       x1="66.608398"
       y1="32.309299"
       x2="205.6089"
       y2="133.9758" />
    <linearGradient
       inkscape:collect="always"
       xlink:href="#XMLID_8_"
       id="linearGradient3164"
       gradientUnits="userSpaceOnUse"
       gradientTransform="matrix(1.0612974,0,0,-1.5741432,-341.39013,-426.26411)"
       x1="375.79907"
       y1="-295.38995"
       x2="375.79907"
       y2="-303.76532" />
    <linearGradient
       inkscape:collect="always"
       xlink:href="#XMLID_29_"
       id="linearGradient3166"
       gradientUnits="userSpaceOnUse"
       gradientTransform="matrix(1.5029132,0,0,1.5029132,-31.824049,-26.288358)"
       x1="68.75"
       y1="50.379852"
       x2="68.75"
       y2="41.686016" />
    <linearGradient
       inkscape:collect="always"
       xlink:href="#XMLID_29_"
       id="linearGradient3168"
       gradientUnits="userSpaceOnUse"
       gradientTransform="matrix(1.5029132,0,0,1.5029132,-31.824049,-26.288358)"
       x1="68.75"
       y1="50.379852"
       x2="68.75"
       y2="41.686016" />
    <linearGradient
       inkscape:collect="always"
       xlink:href="#linearGradient10207"
       id="linearGradient3170"
       gradientUnits="userSpaceOnUse"
       gradientTransform="matrix(1.0612973,0,0,-1.5741431,-352.2899,-435.21617)"
       x1="385.71771"
       y1="-310.14319"
       x2="385.37964"
       y2="-298.66953" />
    <linearGradient
       inkscape:collect="always"
       xlink:href="#XMLID_35_"
       id="linearGradient3172"
       gradientUnits="userSpaceOnUse"
       gradientTransform="matrix(1.4517027,-0.3889825,0.3889825,1.4517027,-103.06723,-33.76179)"
       x1="95.84655"
       y1="67.891441"
       x2="95.18277"
       y2="59.370586" />
    <linearGradient
       inkscape:collect="always"
       xlink:href="#XMLID_35_"
       id="linearGradient3174"
       gradientUnits="userSpaceOnUse"
       gradientTransform="matrix(1.4517027,-0.3889825,0.3889825,1.4517027,-103.06723,-33.76179)"
       x1="95.84655"
       y1="67.891441"
       x2="95.18277"
       y2="59.370586" />
    <linearGradient
       inkscape:collect="always"
       xlink:href="#XMLID_35_"
       id="linearGradient3176"
       gradientUnits="userSpaceOnUse"
       gradientTransform="matrix(1.4517027,-0.3889825,0.3889825,1.4517027,-103.06723,-33.76179)"
       x1="89.90535"
       y1="59.699619"
       x2="85.329956"
       y2="59.788147" />
    <linearGradient
       inkscape:collect="always"
       xlink:href="#XMLID_35_"
       id="linearGradient3178"
       gradientUnits="userSpaceOnUse"
       gradientTransform="matrix(1.4517027,-0.3889825,0.3889825,1.4517027,-103.06723,-33.76179)"
       x1="95.84655"
       y1="67.891441"
       x2="95.18277"
       y2="59.370586" />
    <linearGradient
       inkscape:collect="always"
       xlink:href="#XMLID_29_"
       id="linearGradient3180"
       gradientUnits="userSpaceOnUse"
       gradientTransform="matrix(1.5029132,0,0,1.5029132,-31.824049,-26.288358)"
       x1="68.75"
       y1="50.379852"
       x2="68.75"
       y2="41.686016" />
    <linearGradient
       inkscape:collect="always"
       xlink:href="#XMLID_36_"
       id="linearGradient3182"
       gradientUnits="userSpaceOnUse"
       gradientTransform="matrix(1.0612974,0,0,-1.4073582,-341.39013,-374.88897)"
       x1="382.21729"
       y1="-305.7478"
       x2="382.21729"
       y2="-303.53589" />
    <linearGradient
       inkscape:collect="always"
       xlink:href="#XMLID_44_"
       id="linearGradient3184"
       gradientUnits="userSpaceOnUse"
       x1="54.420399"
       y1="48.972401"
       x2="193.4209"
       y2="150.6389" />
    <linearGradient
       inkscape:collect="always"
       xlink:href="#XMLID_45_"
       id="linearGradient3186"
       gradientUnits="userSpaceOnUse"
       x1="45.809101"
       y1="60.7463"
       x2="184.8096"
       y2="162.4128" />
    <linearGradient
       inkscape:collect="always"
       xlink:href="#radialGradient3233"
       id="linearGradient3188"
       gradientUnits="userSpaceOnUse"
       gradientTransform="matrix(0.9660244,0,0,1.0454259,-12.765141,7.3673019)"
       x1="35.889088"
       y1="24"
       x2="35.889088"
       y2="37.535038" />
    <radialGradient
       inkscape:collect="always"
       xlink:href="#linearGradient6666"
       id="radialGradient3190"
       gradientUnits="userSpaceOnUse"
       gradientTransform="matrix(0.7860801,1.3435491e-7,-1.2826114e-7,0.7504268,13.712508,14.534377)"
       cx="64.101105"
       cy="61.470516"
       fx="63.292271"
       fy="74.81649"
       r="22.686441" />
    <radialGradient
       inkscape:collect="always"
       xlink:href="#linearGradient6666"
       id="radialGradient3192"
       gradientUnits="userSpaceOnUse"
       gradientTransform="matrix(0.9144973,0,0,0.8730195,5.4808175,6.9985486)"
       cx="64.101105"
       cy="61.470516"
       fx="76.59713"
       fy="74.429352"
       r="22.686441" />
    <linearGradient
       inkscape:collect="always"
       xlink:href="#linearGradient6446"
       id="linearGradient3194"
       gradientUnits="userSpaceOnUse"
       x1="71.964134"
       y1="26.784721"
       x2="79.398361"
       y2="63.955555" />
    <radialGradient
       inkscape:collect="always"
       xlink:href="#linearGradient2990"
       id="radialGradient3196"
       gradientUnits="userSpaceOnUse"
       gradientTransform="matrix(0.66593651,-0.0739928,0.19014089,1.7112706,-125.65972,-23.283609)"
       cx="267.42477"
       cy="81.257088"
       fx="267.42477"
       fy="81.257088"
       r="23.279442" />
    <linearGradient
       inkscape:collect="always"
       xlink:href="#linearGradient6446"
       id="linearGradient3198"
       gradientUnits="userSpaceOnUse"
       gradientTransform="translate(0.016589,24.135097)"
       x1="63.556946"
       y1="67.196243"
       x2="62.234333"
       y2="51.360622" />
  </defs>
  <sodipodi:namedview
     id="base"
     pagecolor="#ffffff"
     bordercolor="#666666"
     borderopacity="1.0"
     inkscape:pageopacity="0.0"
     inkscape:pageshadow="2"
     inkscape:zoom="4"
     inkscape:cx="48"
     inkscape:cy="50.375"
     inkscape:document-units="px"
     inkscape:current-layer="layer1"
     width="128px"
     height="128px"
     showgrid="false"
     inkscape:grid-points="false"
     showguides="true"
     inkscape:guide-bbox="true"
     inkscape:window-width="1016"
     inkscape:window-height="713"
     inkscape:window-x="0"
     inkscape:window-y="24"
     inkscape:window-maximized="0"
     fit-margin-top="0"
     fit-margin-left="0"
     fit-margin-right="0"
     fit-margin-bottom="0">
    <inkscape:grid
       id="GridFromPre046Settings"
       type="xygrid"
       originx="0px"
       originy="0px"
       spacingx="4px"
       spacingy="4px"
       color="#0000ff"
       empcolor="#0000ff"
       opacity="0.2"
       empopacity="0.4"
       empspacing="2"
       visible="true"
       enabled="true"
       snapvisiblegridlinesonly="true" />
  </sodipodi:namedview>
  <metadata
     id="metadata2611">
    <rdf:RDF>
      <cc:Work
         rdf:about="">
        <dc:format>image/svg+xml</dc:format>
        <dc:type
           rdf:resource="http://purl.org/dc/dcmitype/StillImage" />
        <dc:title />
      </cc:Work>
    </rdf:RDF>
  </metadata>
  <g
     inkscape:label="Livello 1"
     inkscape:groupmode="layer"
     id="layer1"
     transform="translate(0,-32)">
    <g
       id="g3308">
      <g
         transform="matrix(0.75,0,0,0.75,0,32)"
         id="g3401">
        <path
           transform="matrix(0.9459961,0,-3.8979708e-8,0.394897,-6.3507975,77.055374)"
           d="m 124,117.875 c 0,2.96853 -22.04998,5.375 -49.25,5.375 -27.200024,0 -49.25,-2.40647 -49.25,-5.375 0,-2.96853 22.049976,-5.375 49.25,-5.375 27.20002,0 49.25,2.40647 49.25,5.375 z"
           sodipodi:ry="5.375"
           sodipodi:rx="49.25"
           sodipodi:cy="117.875"
           sodipodi:cx="74.75"
           id="path4102"
           style="opacity:0.7;fill:#000000;fill-opacity:1;fill-rule:evenodd;stroke:none;filter:url(#filter4491)"
           sodipodi:type="arc" />
        <rect
           style="fill:url(#radialGradient3160)"
           x="16.434914"
           y="47.838409"
           width="95.989464"
           height="75.977631"
           id="rect2483"
           rx="1.9445436"
           ry="1.9445436" />
        <g
           id="g2612"
           transform="matrix(1.0612975,0,0,0.7514567,-33.613929,26.227933)"
           style="opacity:0.8">
          <linearGradient
             y2="133.9758"
             x2="205.6089"
             y1="32.309299"
             x1="66.608398"
             gradientUnits="userSpaceOnUse"
             id="linearGradient11496">
            <stop
               id="stop11498"
               style="stop-color:#FFFFFF"
               offset="0" />
            <stop
               id="stop11500"
               style="stop-color:#A4C0E4"
               offset="1" />
          </linearGradient>
          <rect
             id="rect2619"
             height="2.0936637"
             width="90.452293"
             y="50.020321"
             x="47.171307"
             style="fill:url(#linearGradient3162)" />
        </g>
        <rect
           style="fill:url(#linearGradient3164);fill-opacity:1"
           x="16.456686"
           y="39.839817"
           width="95.993416"
           height="11.984636"
           id="rect2490" />
        <path
           sodipodi:nodetypes="cccccc"
           id="path7697"
           d="m 40.148251,32.125724 7.79261,1.81214 -9.79261,10.06214 -2.14825,-0.04994 0,-11.95006 4.14825,0.12572 z"
           style="opacity:0.5;fill:#000000;fill-opacity:1;fill-rule:evenodd;stroke:none;filter:url(#filter8086)"
           transform="matrix(1.0455047,0,0,1.037692,-17.186967,7.7814687)"
           inkscape:connector-curvature="0" />
        <path
           sodipodi:nodetypes="ccccc"
           id="path10933"
           d="m 67.309696,51.863123 16.096087,0 8.009054,-12.023306 -16.01811,0 -8.087031,12.023306 z"
           style="fill:url(#linearGradient3166);fill-opacity:1"
           inkscape:connector-curvature="0" />
        <rect
           id="rect2965"
           height="7.9999976"
           width="63.999973"
           y="42.927895"
           x="19.498863"
           style="opacity:0.6;fill:#000000;fill-opacity:1;filter:url(#filter3352)"
           transform="matrix(1.4517027,-0.3889825,0.3889825,1.4517027,-31.824049,-23.282532)" />
        <path
           style="fill:url(#linearGradient3168);fill-opacity:1"
           d="m 97.367966,51.863123 15.077694,-0.04419 0.01,-11.979112 -7.00063,0 -8.087024,12.023306 z"
           id="path10937"
           sodipodi:nodetypes="ccccc"
           inkscape:connector-curvature="0" />
        <rect
           transform="matrix(0.96592584,-0.25881901,0.25881901,0.96592584,0,0)"
           style="fill:url(#linearGradient3170)"
           x="5.3693528"
           y="30.887625"
           width="96.186409"
           height="12.023302"
           id="rect10998" />
        <path
           style="fill:url(#linearGradient3172);fill-opacity:1"
           d="m 109.20152,15.164232 -6.8374,1.832077 -10.848017,-9.540726 14.573557,-3.9049728 3.11186,11.6136218 z"
           id="path11000"
           sodipodi:nodetypes="ccccc"
           inkscape:connector-curvature="0" />
        <path
           sodipodi:nodetypes="ccccc"
           id="path11002"
           d="m 88.877682,20.609985 -15.54762,4.165974 -10.848017,-9.540725 15.47231,-4.145792 10.923327,9.520543 z"
           style="fill:url(#linearGradient3174);fill-opacity:1"
           inkscape:connector-curvature="0" />
        <path
           style="fill:url(#linearGradient3176);fill-opacity:1"
           d="M 27.906164,36.947252 16.292547,40.059113 13.180688,28.44549 16.98284,27.426708 27.906164,36.947252 z"
           id="path11004"
           sodipodi:nodetypes="ccccc"
           inkscape:connector-curvature="0" />
        <path
           style="fill:url(#linearGradient3178);fill-opacity:1"
           d="M 59.843627,28.389636 44.296004,32.555608 33.447991,23.014885 48.920298,18.869092 59.843627,28.389636 z"
           id="path11014"
           sodipodi:nodetypes="ccccc"
           inkscape:connector-curvature="0" />
        <path
           style="fill:url(#linearGradient3180);fill-opacity:1"
           d="m 37.251431,51.863123 16.096087,0 8.009053,-12.023306 -16.018109,0 -8.087031,12.023306 z"
           id="polygon2506"
           sodipodi:nodetypes="ccccc"
           inkscape:connector-curvature="0" />
        <rect
           style="fill:url(#linearGradient3182)"
           x="16.434914"
           y="51.830956"
           width="95.806335"
           height="3.5771112"
           id="rect2534" />
        <g
           id="g2621"
           transform="matrix(1.0612974,0,0,0.7514567,-33.613914,35.563277)"
           style="opacity:0.8">
          <linearGradient
             y2="150.6389"
             x2="193.4209"
             y1="48.972401"
             x1="54.420399"
             gradientUnits="userSpaceOnUse"
             id="linearGradient11504">
            <stop
               id="stop11506"
               style="stop-color:#FFFFFF"
               offset="0" />
            <stop
               id="stop11508"
               style="stop-color:#A4C0E4"
               offset="1" />
          </linearGradient>
          <rect
             id="rect2628"
             height="1.5388687"
             width="90.443611"
             y="74.858292"
             x="47.147743"
             style="fill:url(#linearGradient3184)" />
        </g>
        <g
           id="g2630"
           transform="matrix(1.0612974,0,0,0.7514567,-33.613914,40.017911)"
           style="opacity:0.8">
          <linearGradient
             y2="162.4128"
             x2="184.8096"
             y1="60.7463"
             x1="45.809101"
             gradientUnits="userSpaceOnUse"
             id="linearGradient11512">
            <stop
               id="stop11514"
               style="stop-color:#FFFFFF"
               offset="0" />
            <stop
               id="stop11516"
               style="stop-color:#A4C0E4"
               offset="1" />
          </linearGradient>
          <rect
             id="rect2637"
             height="2"
             width="90.630997"
             y="93.763"
             x="47.001999"
             style="fill:url(#linearGradient3186)" />
        </g>
        <path
           style="fill:url(#linearGradient3188);fill-opacity:1;fill-rule:evenodd;stroke:none"
           d="m 20.925854,32.457507 13.378279,10.454264 -13.378279,10.454265 -4.456679,-0.05254 -0.02352,-20.941368 4.480198,0.08538 z"
           id="path6091"
           sodipodi:nodetypes="cccccc"
           inkscape:connector-curvature="0" />
        <rect
           transform="matrix(1.3583321,-0.3658795,0.5181117,2.0073568,-49.85668,-56.420671)"
           id="rect14159"
           height="1.3809074"
           width="63.999992"
           enable-background="new    "
           y="47.836678"
           x="32.000008"
           style="opacity:0.2;fill:#ffffff;filter:url(#filter14155)" />
      </g>
      <g
         transform="matrix(0.75,0,0,0.75,0,32)"
         id="g3514">
        <path
           transform="matrix(0.5892134,0,0,0.5892134,-119.14036,24.005125)"
           d="m 366.04225,108.83997 c 0,30.48187 -24.71044,55.19231 -55.1923,55.19231 -30.48187,0 -55.19231,-24.71044 -55.19231,-55.19231 0,-30.481866 24.71044,-55.192303 55.19231,-55.192303 30.48186,0 55.1923,24.710437 55.1923,55.192303 z"
           sodipodi:ry="55.192307"
           sodipodi:rx="55.192307"
           sodipodi:cy="108.83997"
           sodipodi:cx="310.84995"
           id="path3300"
           style="fill:none;stroke:#000000;stroke-width:13.57742405;stroke-linecap:round;stroke-linejoin:round;stroke-miterlimit:4;stroke-opacity:0.37647059;stroke-dasharray:none;stroke-dashoffset:1.08779998;filter:url(#filter3310)"
           sodipodi:type="arc" />
        <path
           inkscape:connector-curvature="0"
           style="fill:#343434;fill-opacity:0.07755103;stroke:none;filter:url(#filter3310)"
           d="m 64.016589,55.603847 c -17.951066,0 -32.531249,14.580184 -32.53125,32.53125 0,17.951063 14.580187,32.531253 32.53125,32.531253 17.951062,0 32.531252,-14.58019 32.531252,-32.531253 0,-17.951066 -14.58018,-32.531249 -32.531252,-32.53125 z m 0,17.9375 c 8.050642,0 14.59375,6.543108 14.59375,14.59375 0,8.050642 -6.543108,14.593753 -14.59375,14.593753 -8.050642,0 -14.59375,-6.543111 -14.59375,-14.593753 0,-8.050642 6.543108,-14.59375 14.59375,-14.59375 z"
           id="path3326" />
        <path
           sodipodi:type="arc"
           style="fill:url(#radialGradient3190);fill-opacity:1;stroke:none"
           id="path5737"
           sodipodi:cx="64.101105"
           sodipodi:cy="58.236969"
           sodipodi:rx="22.445498"
           sodipodi:ry="22.445498"
           d="m 86.546602,58.236969 c 0,12.396306 -10.049191,22.445498 -22.445497,22.445498 -12.396306,0 -22.445498,-10.049192 -22.445498,-22.445498 0,-12.396306 10.049192,-22.445498 22.445498,-22.445498 12.396306,0 22.445497,10.049192 22.445497,22.445498 z"
           transform="matrix(1.4144163,0,0,1.4144163,-26.665647,5.64154)" />
        <path
           transform="matrix(1.4144163,0,0,1.4144163,-26.665647,5.64154)"
           d="m 86.546602,58.236969 c 0,12.396306 -10.049191,22.445498 -22.445497,22.445498 -12.396306,0 -22.445498,-10.049192 -22.445498,-22.445498 0,-12.396306 10.049192,-22.445498 22.445498,-22.445498 12.396306,0 22.445497,10.049192 22.445497,22.445498 z"
           sodipodi:ry="22.445498"
           sodipodi:rx="22.445498"
           sodipodi:cy="58.236969"
           sodipodi:cx="64.101105"
           id="path6023"
           style="fill:url(#radialGradient3192);fill-opacity:1;stroke:none"
           sodipodi:type="arc" />
        <path
           transform="matrix(1.4144163,0,0,1.4144163,-26.665647,5.64154)"
           d="m 86.546602,58.236969 c 0,12.396306 -10.049191,22.445498 -22.445497,22.445498 -12.396306,0 -22.445498,-10.049192 -22.445498,-22.445498 0,-12.396306 10.049192,-22.445498 22.445498,-22.445498 12.396306,0 22.445497,10.049192 22.445497,22.445498 z"
           sodipodi:ry="22.445498"
           sodipodi:rx="22.445498"
           sodipodi:cy="58.236969"
           sodipodi:cx="64.101105"
           id="path5941"
           style="fill:url(#linearGradient3194);fill-opacity:1;stroke:none;filter:url(#filter6019)"
           sodipodi:type="arc"
           clip-path="url(#clipPath5947)" />
        <g
           id="g4709">
          <path
             inkscape:connector-curvature="0"
             id="path6041"
             d="m 56.848803,71.468786 c -3.730296,0.146174 -6.678316,3.21403 -6.675819,6.94719 l 0,17.367974 c 0.01176,2.399085 1.260395,4.62236 3.302851,5.88096 2.042477,1.2586 4.589746,1.37443 6.738011,0.30638 l 17.367975,-8.683986 c 2.32439,-1.187351 3.787224,-3.577249 3.787224,-6.187341 0,-2.610092 -1.462834,-4.999989 -3.787224,-6.187341 L 60.213846,72.228635 c -1.039958,-0.532153 -2.19733,-0.793492 -3.365043,-0.759849 z"
             style="fill:url(#radialGradient3196);fill-opacity:1;fill-rule:evenodd;stroke:#000000;stroke-width:1.33333337;stroke-opacity:0.50196078" />
          <path
             inkscape:connector-curvature="0"
             transform="matrix(0.6879621,0,0,0.6879621,-80.856518,40.307595)"
             clip-path="url(#clipPath6103)"
             id="path6067"
             d="m 200.15625,43.880333 c -5.42224,0.21247 -9.69113,4.66734 -9.6875,10.09375 l 0,3 c -0.004,-5.42641 4.26526,-9.88128 9.6875,-10.09375 1.69735,-0.0489 3.3946,0.32023 4.90625,1.09375 l 25.25,12.625 c 2.92621,1.49478 4.89534,4.31054 5.375,7.5 0.0742,-0.49316 0.125,-0.99194 0.125,-1.5 -1e-5,-3.79394 -2.12134,-7.2741 -5.5,-9 l -25.25,-12.625 c -1.51165,-0.77352 -3.2089,-1.14265 -4.90625,-1.09375 z"
             style="fill:#121212;fill-opacity:0.77810651;fill-rule:evenodd;stroke:none;filter:url(#filter6085)" />
          <path
             inkscape:connector-curvature="0"
             transform="matrix(0.6879621,0,0,0.6879621,-47.311246,40.307595)"
             clip-path="url(#clipPath6097)"
             id="path6069"
             d="m 186.9375,67.53447 c -0.47972,3.18935 -2.44887,6.00526 -5.375,7.5 l -25.25,12.625 c -3.12265,1.55248 -6.81238,1.39197 -9.78125,-0.4375 -2.96885,-1.82946 -4.7954,-5.07526 -4.8125,-8.5625 l 0,3 c 0.0171,3.48724 1.84365,6.73304 4.8125,8.5625 2.96887,1.82947 6.6586,1.98998 9.78125,0.4375 l 25.25,-12.625 c 3.37867,-1.7259 5.5,-5.20606 5.5,-9 0,-0.50815 -0.0508,-1.00676 -0.125,-1.5 z"
             style="fill:#ffffff;fill-opacity:1;fill-rule:evenodd;stroke:none;filter:url(#filter6093)" />
        </g>
        <path
           inkscape:connector-curvature="0"
           style="fill:url(#linearGradient3198);fill-opacity:1;fill-rule:evenodd;stroke:none"
           d="m 32.680332,86.693939 c 15.127153,4.71238 46.8015,4.103632 62.448239,-4.48756 l -0.0285,-0.914927 C 78.875404,89.792833 47.914074,91.380016 32.68033,86.693939 z"
           id="path6029"
           sodipodi:nodetypes="cccc" />
        <path
           sodipodi:type="arc"
           style="fill:none;stroke:#000000;stroke-width:4.52580786;stroke-linecap:round;stroke-linejoin:round;stroke-miterlimit:4;stroke-opacity:0.50196078;stroke-dasharray:none;stroke-dashoffset:1.08779998;filter:url(#filter3310)"
           id="path4239"
           sodipodi:cx="310.84995"
           sodipodi:cy="108.83997"
           sodipodi:rx="55.192307"
           sodipodi:ry="55.192307"
           d="m 366.04225,108.83997 c 0,30.48187 -24.71044,55.19231 -55.1923,55.19231 -30.48187,0 -55.19231,-24.71044 -55.19231,-55.19231 0,-30.481866 24.71044,-55.192303 55.19231,-55.192303 30.48186,0 55.1923,24.710437 55.1923,55.192303 z"
           transform="matrix(0.5892134,0,0,0.5892134,-119.14036,24.005125)" />
      </g>
    </g>
  </g>
</svg>
