<?xml version="1.0" encoding="UTF-8" standalone="no"?>
<!-- Created with Inkscape (http://www.inkscape.org/) -->

<svg
   xmlns:dc="http://purl.org/dc/elements/1.1/"
   xmlns:cc="http://creativecommons.org/ns#"
   xmlns:rdf="http://www.w3.org/1999/02/22-rdf-syntax-ns#"
   xmlns:svg="http://www.w3.org/2000/svg"
   xmlns="http://www.w3.org/2000/svg"
   xmlns:xlink="http://www.w3.org/1999/xlink"
   xmlns:sodipodi="http://sodipodi.sourceforge.net/DTD/sodipodi-0.dtd"
   xmlns:inkscape="http://www.inkscape.org/namespaces/inkscape"
   width="96"
   height="96"
   id="svg7428"
   sodipodi:version="0.32"
   inkscape:version="0.48.3.1 r9886"
   sodipodi:docname="folder-downloads.svg"
   inkscape:output_extension="org.inkscape.output.svg.inkscape"
   version="1.1"
   inkscape:export-filename="folder-downloads.png"
   inkscape:export-xdpi="90"
   inkscape:export-ydpi="90">
  <defs
     id="defs7430">
    <linearGradient
       inkscape:collect="always"
       xlink:href="#linearGradient5048-7"
       id="linearGradient3247"
       gradientUnits="userSpaceOnUse"
       gradientTransform="matrix(0.125709,0,0,0.0864706,2.5651808,-10.70427)"
       x1="302.85715"
       y1="366.64789"
       x2="302.85715"
       y2="609.50507" />
    <linearGradient
       id="linearGradient5048-7">
      <stop
         style="stop-color:black;stop-opacity:0;"
         offset="0"
         id="stop5050-1" />
      <stop
         id="stop5056-7"
         offset="0.5"
         style="stop-color:black;stop-opacity:1;" />
      <stop
         style="stop-color:black;stop-opacity:0;"
         offset="1"
         id="stop5052-6" />
    </linearGradient>
    <radialGradient
       inkscape:collect="always"
       xlink:href="#linearGradient5060-6"
       id="radialGradient3244"
       gradientUnits="userSpaceOnUse"
       gradientTransform="matrix(0.125709,0,0,0.0864706,2.5899204,-10.70427)"
       cx="605.71429"
       cy="486.64789"
       fx="605.71429"
       fy="486.64789"
       r="117.14286" />
    <linearGradient
       inkscape:collect="always"
       id="linearGradient5060-6">
      <stop
         style="stop-color:black;stop-opacity:1;"
         offset="0"
         id="stop5062-1" />
      <stop
         style="stop-color:black;stop-opacity:0;"
         offset="1"
         id="stop5064-4" />
    </linearGradient>
    <radialGradient
       inkscape:collect="always"
       xlink:href="#linearGradient5060-6"
       id="radialGradient3241"
       gradientUnits="userSpaceOnUse"
       gradientTransform="matrix(-0.125709,0,0,0.0864706,93.410098,-10.70427)"
       cx="605.71429"
       cy="486.64789"
       fx="605.71429"
       fy="486.64789"
       r="117.14286" />
    <linearGradient
       inkscape:collect="always"
       xlink:href="#linearGradient4064-7-7"
       id="linearGradient3230"
       gradientUnits="userSpaceOnUse"
       gradientTransform="matrix(2,0,0,2,-94,-48)"
       x1="71"
       y1="8"
       x2="71"
       y2="41.5" />
    <linearGradient
       id="linearGradient4064-7-7">
      <stop
         style="stop-color:#6888a8;stop-opacity:1;"
         offset="0"
         id="stop4066-4-5" />
      <stop
         style="stop-color:#6888a8;stop-opacity:0.50196081;"
         offset="1"
         id="stop4068-8-1" />
    </linearGradient>
    <linearGradient
       inkscape:collect="always"
       xlink:href="#linearGradient4054-7-0"
       id="linearGradient3232"
       gradientUnits="userSpaceOnUse"
       gradientTransform="matrix(2,0,0,2,-94,-48)"
       x1="71"
       y1="8"
       x2="71"
       y2="41.5" />
    <linearGradient
       id="linearGradient4054-7-0">
      <stop
         style="stop-color:#406080;stop-opacity:1;"
         offset="0"
         id="stop4056-0-2" />
      <stop
         style="stop-color:#406080;stop-opacity:0.50196081;"
         offset="1"
         id="stop4058-9-7" />
    </linearGradient>
    <linearGradient
       inkscape:collect="always"
       xlink:href="#linearGradient9101-65"
       id="linearGradient3227"
       gradientUnits="userSpaceOnUse"
       gradientTransform="matrix(0.75086228,0,0,0.3333332,-6.0605797,-28.166666)"
       x1="71.999496"
       y1="14.2578"
       x2="71.999496"
       y2="19.9583" />
    <linearGradient
       gradientTransform="matrix(1.0033404,0,0,1,-8.2374684,8)"
       y2="19.9583"
       x2="71.999496"
       y1="14.2578"
       x1="71.999496"
       gradientUnits="userSpaceOnUse"
       id="linearGradient9101-65">
      <stop
         id="stop9103-72"
         style="stop-color:#406080;stop-opacity:0;"
         offset="0.25" />
      <stop
         id="stop9105-59"
         style="stop-color:#406080;stop-opacity:1;"
         offset="1" />
    </linearGradient>
    <linearGradient
       inkscape:collect="always"
       xlink:href="#linearGradient9073-9-7"
       id="linearGradient3259"
       gradientUnits="userSpaceOnUse"
       gradientTransform="matrix(0.7031318,0,0,0.7105376,-69.874472,-254.68002)"
       x1="167.64111"
       y1="328.87747"
       x2="167.64111"
       y2="407.69193" />
    <linearGradient
       id="linearGradient9073-9-7">
      <stop
         id="stop9075-9-6"
         offset="0"
         style="stop-color:#a8c8e8;stop-opacity:1" />
      <stop
         id="stop9077-5-5"
         offset="1"
         style="stop-color:#6888a8;stop-opacity:1" />
    </linearGradient>
    <linearGradient
       inkscape:collect="always"
       xlink:href="#linearGradient9087-5-5"
       id="linearGradient3261"
       gradientUnits="userSpaceOnUse"
       gradientTransform="matrix(2,0,0,2,-365.99542,-54)"
       x1="206.99738"
       y1="16.499895"
       x2="206.99738"
       y2="44.50021" />
    <linearGradient
       inkscape:collect="always"
       id="linearGradient9087-5-5">
      <stop
         style="stop-color:#6888a8;stop-opacity:1"
         offset="0"
         id="stop9089-5-6" />
      <stop
         style="stop-color:#406080;stop-opacity:1"
         offset="1"
         id="stop9091-1-0" />
    </linearGradient>
    <linearGradient
       inkscape:collect="always"
       xlink:href="#linearGradient10176-4"
       id="linearGradient3256"
       gradientUnits="userSpaceOnUse"
       gradientTransform="matrix(0.9204022,0,0,1.885618,-11.468937,-87.058428)"
       x1="7.2379346"
       y1="36.005047"
       x2="122.17093"
       y2="36.005047" />
    <linearGradient
       id="linearGradient10176-4"
       gradientUnits="userSpaceOnUse"
       x1="71.999496"
       y1="14.2578"
       x2="71.999496"
       y2="19.9583"
       gradientTransform="matrix(1.0033404,0,0,1,-8.2374684,8)">
      <stop
         offset="0.00445589"
         style="stop-color:#eaeaea;stop-opacity:0;"
         id="stop10178-2" />
      <stop
         id="stop10180-9"
         style="stop-color:#ffffff;stop-opacity:0.52941179;"
         offset="0.46138024" />
      <stop
         offset="1"
         style="stop-color:#f5f5f5;stop-opacity:0"
         id="stop10182-3" />
    </linearGradient>
  </defs>
  <sodipodi:namedview
     id="base"
     pagecolor="#ffffff"
     bordercolor="#666666"
     borderopacity="1.0"
     inkscape:pageopacity="0.0"
     inkscape:pageshadow="2"
     inkscape:zoom="6"
     inkscape:cx="48"
     inkscape:cy="48"
     inkscape:current-layer="layer1"
     showgrid="false"
     inkscape:grid-bbox="true"
     inkscape:document-units="px"
     inkscape:window-width="1082"
     inkscape:window-height="788"
     inkscape:window-x="163"
     inkscape:window-y="24"
     inkscape:window-maximized="0"
     inkscape:object-paths="true"
     inkscape:snap-intersection-paths="true"
     inkscape:snap-grids="true"
     fit-margin-top="0"
     fit-margin-left="0"
     fit-margin-right="0"
     fit-margin-bottom="0">
    <inkscape:grid
       type="xygrid"
       id="grid3066"
       empspacing="10"
       visible="true"
       enabled="true"
       snapvisiblegridlinesonly="true"
       dotted="false"
       originx="0px"
       originy="0px" />
  </sodipodi:namedview>
  <metadata
     id="metadata7433">
    <rdf:RDF>
      <cc:Work
         rdf:about="">
        <dc:format>image/svg+xml</dc:format>
        <dc:type
           rdf:resource="http://purl.org/dc/dcmitype/StillImage" />
        <dc:title />
      </cc:Work>
    </rdf:RDF>
  </metadata>
  <g
     id="layer1"
     inkscape:label="Layer 1"
     inkscape:groupmode="layer"
     transform="translate(0,48)">
    <g
       id="g3274">
      <g
         id="g3269">
        <rect
           style="opacity:0.40206185;fill:url(#linearGradient3247);fill-opacity:1;fill-rule:nonzero;stroke:none;stroke-width:1;marker:none;visibility:visible;display:inline;overflow:visible"
           id="rect13073"
           width="60.699482"
           height="21.000004"
           x="17.650259"
           y="21" />
        <path
           style="opacity:0.40206185;fill:url(#radialGradient3244);fill-opacity:1;fill-rule:nonzero;stroke:none;stroke-width:1;marker:none;visibility:visible;display:inline;overflow:visible"
           d="m 78.349742,21.000718 c 0,0 0,20.998846 0,20.998846 C 84.823444,42.039084 94.000004,37.294788 94,31.49879 94,25.70279 86.775836,21.00072 78.349742,21.000718 z"
           id="path13075"
           sodipodi:nodetypes="cccc"
           inkscape:connector-curvature="0" />
        <path
           sodipodi:nodetypes="cccc"
           id="path13077"
           d="m 17.65026,21.000718 c 0,0 0,20.998846 0,20.998846 -6.473703,0.03952 -15.6502598,-4.704776 -15.6502598,-10.500774 0,-5.796 7.224163,-10.49807 15.6502598,-10.498072 z"
           style="opacity:0.40206185;fill:url(#radialGradient3241);fill-opacity:1;fill-rule:nonzero;stroke:none;stroke-width:1;marker:none;visibility:visible;display:inline;overflow:visible"
           inkscape:connector-curvature="0" />
      </g>
      <g
         id="g3263">
        <path
           style="color:#000000;fill:url(#linearGradient3230);fill-opacity:1;fill-rule:evenodd;stroke:url(#linearGradient3232);stroke-width:1;stroke-linecap:butt;stroke-linejoin:miter;stroke-miterlimit:4;stroke-opacity:1;stroke-dasharray:none;stroke-dashoffset:0;marker:none;visibility:visible;display:inline;overflow:visible;enable-background:accumulate"
           d="m 63,-32 c -1.108,0 -2.0895,0.4645 -2.8125,1.1875 L 56.375,-27 11,-27 c -2.216,0 -4,1.784 -4,4 l 0,56 c 0,1.108 0.892,2 2,2 l 78,0 c 1.108,0 2,-0.892 2,-2 l 0,-61 c 0,-2.216 -1.784,-4 -4,-4 z"
           id="rect3142"
           inkscape:connector-curvature="0"
           sodipodi:nodetypes="sscsccccccss" />
        <path
           style="opacity:0.5;fill:url(#linearGradient3227);fill-opacity:1;display:inline;enable-background:new"
           id="path39053"
           d="m 7.5014969,-23.5 c 0.00626,0.583332 0.012514,1.251666 0.018752,2 l 80.9609801,0 c 0.0063,-0.748334 0.01256,-1.416668 0.01883,-2 l -80.9999993,0 0.0015,0 z"
           inkscape:connector-curvature="0" />
        <path
           inkscape:connector-curvature="0"
           sodipodi:nodetypes="cccccccccc"
           style="opacity:0.9;color:#000000;fill:url(#linearGradient3259);fill-opacity:1;fill-rule:nonzero;stroke:url(#linearGradient3261);stroke-width:0.99958181;stroke-linecap:butt;stroke-linejoin:miter;stroke-miterlimit:4;stroke-opacity:1;stroke-dasharray:none;stroke-dashoffset:0;marker:none;visibility:visible;display:inline;overflow:visible;enable-background:new"
           id="path3300"
           d="m 90.493984,33 c -0.06074,1.170968 -1.335732,2.000418 -2.499686,2.000418 l -79.9899374,0 c -1.163934,0 -2.438312,-0.82945 -2.499686,-2.000418 l -2.499684,-51.999792 c -0.08468,-1.168834 0.835794,-2.000416 1.999748,-2.000416 l 85.9891834,0 c 1.163954,0 2.088616,0.831582 1.999748,2.000416 L 90.493984,33 z" />
        <rect
           style="fill:url(#linearGradient3256);fill-opacity:1;stroke:none;display:inline;enable-background:new"
           id="rect3521-5"
           width="89"
           height="2"
           x="3.4999948"
           y="-20.5"
           rx="0"
           ry="0" />
      </g>
    </g>
    <path
       style="font-size:medium;font-style:normal;font-variant:normal;font-weight:normal;font-stretch:normal;text-indent:0;text-align:start;text-decoration:none;line-height:normal;letter-spacing:normal;word-spacing:normal;text-transform:none;direction:ltr;block-progression:tb;writing-mode:lr-tb;text-anchor:start;baseline-shift:baseline;opacity:0.6;color:#000000;fill:#ffffff;fill-opacity:1;stroke:none;stroke-width:1.60000002;marker:none;visibility:visible;display:inline;overflow:visible;enable-background:accumulate;font-family:Sans;-inkscape-font-specification:Sans"
       d="M 44,-10 42.1875,7.9375 37.125,2.875 a 1.60016,1.60016 0 0 0 -1.3125,-0.5 1.60016,1.60016 0 0 0 -0.9375,2.75 l 12,12 a 1.60016,1.60016 0 0 0 2.25,0 l 12,-12 a 1.60016,1.60016 0 1 0 -2.25,-2.25 L 53.8125,7.9375 52,-10 44,-10 z M 33,15 c -0.554,0 -1,0.446 -1,1 l 0,5 c 0,0.554 0.446,1 1,1 l 30,0 c 0.554,0 1,-0.446 1,-1 l 0,-5 c 0,-0.554 -0.446,-1 -1,-1 -0.554,0 -1,0.446 -1,1 l 0,4 -28,0 0,-4 c 0,-0.554 -0.446,-1 -1,-1 z"
       id="path3074"
       inkscape:connector-curvature="0" />
    <path
       style="font-size:medium;font-style:normal;font-variant:normal;font-weight:normal;font-stretch:normal;text-indent:0;text-align:start;text-decoration:none;line-height:normal;letter-spacing:normal;word-spacing:normal;text-transform:none;direction:ltr;block-progression:tb;writing-mode:lr-tb;text-anchor:start;baseline-shift:baseline;opacity:0.25;color:#000000;fill:#000000;fill-opacity:1;stroke:none;stroke-width:1.60000002;marker:none;visibility:visible;display:inline;overflow:visible;enable-background:accumulate;font-family:Sans;-inkscape-font-specification:Sans"
       d="M 44,-11 42.1875,6.9375 37.125,1.875 A 1.60016,1.60016 0 0 0 35.8125,1.375 1.60016,1.60016 0 0 0 34.75,4 1.60016,1.60016 0 0 1 35.8125,3.375 1.60016,1.60016 0 0 1 37.125,3.875 L 42.1875,8.9375 44,-9 52,-9 53.8125,8.9375 58.875,3.875 a 1.60016,1.60016 0 0 1 2.5,0 1.6007811,1.6007811 0 1 0 -2.5,-2 L 53.8125,6.9375 52,-11 44,-11 z M 33,14 c -0.554,0 -1,0.446 -1,1 l 0,2 c 0,-0.554 0.446,-1 1,-1 0.554,0 1,0.446 1,1 l 0,-2 c 0,-0.554 -0.446,-1 -1,-1 z m 30,0 c -0.554,0 -1,0.446 -1,1 l 0,2 c 0,-0.554 0.446,-1 1,-1 0.554,0 1,0.446 1,1 l 0,-2 c 0,-0.554 -0.446,-1 -1,-1 z m -29,5 0,2 28,0 0,-2 -28,0 z"
       id="path3872"
       inkscape:connector-curvature="0" />
  </g>
</svg>
