<?xml version="1.0" encoding="UTF-8" standalone="no"?>
<!-- Created with Inkscape (http://www.inkscape.org/) -->

<svg
   xmlns:dc="http://purl.org/dc/elements/1.1/"
   xmlns:cc="http://creativecommons.org/ns#"
   xmlns:rdf="http://www.w3.org/1999/02/22-rdf-syntax-ns#"
   xmlns:svg="http://www.w3.org/2000/svg"
   xmlns="http://www.w3.org/2000/svg"
   xmlns:xlink="http://www.w3.org/1999/xlink"
   xmlns:sodipodi="http://sodipodi.sourceforge.net/DTD/sodipodi-0.dtd"
   xmlns:inkscape="http://www.inkscape.org/namespaces/inkscape"
   width="96"
   height="96"
   id="svg4561"
   version="1.1"
   inkscape:version="0.48.4 r9939"
   sodipodi:docname="audacity.svg">
  <defs
     id="defs4563">
    <linearGradient
       id="linearGradient3852">
      <stop
         style="stop-color:#ffffff;stop-opacity:1;"
         offset="0"
         id="stop3854" />
      <stop
         style="stop-color:#ffffff;stop-opacity:0;"
         offset="1"
         id="stop3856" />
    </linearGradient>
    <linearGradient
       id="linearGradient4085">
      <stop
         id="stop4087"
         offset="0"
         style="stop-color:#6d6d6d;stop-opacity:1;" />
      <stop
         style="stop-color:#ffffff;stop-opacity:1;"
         offset="0.39074388"
         id="stop4089" />
      <stop
         style="stop-color:#555555;stop-opacity:1;"
         offset="0.82692307"
         id="stop4091" />
      <stop
         style="stop-color:#3f3f3f;stop-opacity:1;"
         offset="1"
         id="stop4093" />
    </linearGradient>
    <linearGradient
       id="linearGradient3942">
      <stop
         id="stop3944"
         offset="0"
         style="stop-color:#01ff43;stop-opacity:1;" />
      <stop
         style="stop-color:#fffc01;stop-opacity:1;"
         offset="0.5"
         id="stop3946" />
      <stop
         id="stop3948"
         offset="1"
         style="stop-color:#ff0000;stop-opacity:1;" />
    </linearGradient>
    <linearGradient
       inkscape:collect="always"
       id="linearGradient56867">
      <stop
         style="stop-color:#ffffff;stop-opacity:1;"
         offset="0"
         id="stop56869" />
      <stop
         style="stop-color:#ffffff;stop-opacity:0;"
         offset="1"
         id="stop56871" />
    </linearGradient>
    <linearGradient
       inkscape:collect="always"
       id="linearGradient39063">
      <stop
         style="stop-color:#000000;stop-opacity:1;"
         offset="0"
         id="stop39065" />
      <stop
         style="stop-color:#000000;stop-opacity:0;"
         offset="1"
         id="stop39067" />
    </linearGradient>
    <linearGradient
       inkscape:collect="always"
       id="linearGradient2878">
      <stop
         style="stop-color:#ffffff;stop-opacity:1;"
         offset="0"
         id="stop2880" />
      <stop
         style="stop-color:#ffffff;stop-opacity:0;"
         offset="1"
         id="stop2882" />
    </linearGradient>
    <linearGradient
       id="linearGradient2803">
      <stop
         style="stop-color:#e2dcdc;stop-opacity:1;"
         offset="0"
         id="stop2809" />
      <stop
         id="stop2811"
         offset="0.39074388"
         style="stop-color:#ffffff;stop-opacity:1;" />
      <stop
         id="stop2813"
         offset="0.82692307"
         style="stop-color:#dfd9df;stop-opacity:1;" />
      <stop
         id="stop2815"
         offset="1"
         style="stop-color:#c3c3c3;stop-opacity:1;" />
    </linearGradient>
    <linearGradient
       inkscape:collect="always"
       id="linearGradient48890">
      <stop
         style="stop-color:#ffffff;stop-opacity:1;"
         offset="0"
         id="stop48892" />
      <stop
         style="stop-color:#ffffff;stop-opacity:0;"
         offset="1"
         id="stop48894" />
    </linearGradient>
    <linearGradient
       inkscape:collect="always"
       id="linearGradient49808">
      <stop
         style="stop-color:#000000;stop-opacity:1;"
         offset="0"
         id="stop49810" />
      <stop
         style="stop-color:#000000;stop-opacity:0;"
         offset="1"
         id="stop49812" />
    </linearGradient>
    <linearGradient
       id="linearGradient2334">
      <stop
         id="stop2346"
         offset="0"
         style="stop-color:#dfe1e1;stop-opacity:1;" />
      <stop
         style="stop-color:#554141;stop-opacity:1;"
         offset="0"
         id="stop20557" />
      <stop
         id="stop2342"
         offset="0.5"
         style="stop-color:#e2dcdc;stop-opacity:1;" />
      <stop
         style="stop-color:#ffffff;stop-opacity:1;"
         offset="0.78201604"
         id="stop2348" />
      <stop
         style="stop-color:#dfd9df;stop-opacity:1;"
         offset="1"
         id="stop2344" />
    </linearGradient>
    <linearGradient
       inkscape:collect="always"
       id="linearGradient23203">
      <stop
         style="stop-color:#000000;stop-opacity:1;"
         offset="0"
         id="stop23205" />
      <stop
         style="stop-color:#000000;stop-opacity:0;"
         offset="1"
         id="stop23207" />
    </linearGradient>
    <linearGradient
       inkscape:collect="always"
       xlink:href="#linearGradient3942"
       id="linearGradient3159"
       gradientUnits="userSpaceOnUse"
       gradientTransform="matrix(1.0909091,0,0,1.0909091,-2.1818185,-28.727273)"
       x1="21.701237"
       y1="53.322704"
       x2="79.660774"
       y2="53.322704" />
    <radialGradient
       inkscape:collect="always"
       xlink:href="#linearGradient2334"
       id="radialGradient3255"
       gradientUnits="userSpaceOnUse"
       gradientTransform="matrix(1.666942,0,0,1.506876,-15.01094,-18.679)"
       cx="22.408136"
       cy="37.070213"
       fx="22.408136"
       fy="37.070213"
       r="3.0923135" />
    <linearGradient
       inkscape:collect="always"
       xlink:href="#linearGradient23203"
       id="linearGradient3259"
       gradientUnits="userSpaceOnUse"
       x1="23.744551"
       y1="38.748631"
       x2="25.186951"
       y2="34.788834" />
    <radialGradient
       inkscape:collect="always"
       xlink:href="#linearGradient2334"
       id="radialGradient3267"
       gradientUnits="userSpaceOnUse"
       gradientTransform="matrix(1.666942,0,0,1.506876,-15.01094,-18.679)"
       cx="22.408136"
       cy="37.070213"
       fx="22.408136"
       fy="37.070213"
       r="3.0923135" />
    <linearGradient
       inkscape:collect="always"
       xlink:href="#linearGradient23203"
       id="linearGradient3271"
       gradientUnits="userSpaceOnUse"
       x1="23.744551"
       y1="38.748631"
       x2="25.186951"
       y2="34.788834" />
    <radialGradient
       inkscape:collect="always"
       xlink:href="#linearGradient2803"
       id="radialGradient3276"
       gradientUnits="userSpaceOnUse"
       gradientTransform="matrix(1.9786327,-1.1163558,0.47972617,0.85042692,-37.033376,-11.800664)"
       cx="13.379482"
       cy="38.20137"
       fx="13.379482"
       fy="38.20137"
       r="3.0453751" />
    <radialGradient
       inkscape:collect="always"
       xlink:href="#linearGradient2803"
       id="radialGradient3291"
       gradientUnits="userSpaceOnUse"
       gradientTransform="matrix(-1.9786327,-1.1163558,-0.47972617,0.85042692,132.99642,-11.800664)"
       cx="13.379482"
       cy="38.20137"
       fx="13.379482"
       fy="38.20137"
       r="3.0453751" />
    <radialGradient
       inkscape:collect="always"
       xlink:href="#linearGradient49808"
       id="radialGradient3305"
       gradientUnits="userSpaceOnUse"
       gradientTransform="matrix(0.7791695,0,0,1.5102168,-1.2904192,-62.61396)"
       cx="16.369699"
       cy="44.139114"
       fx="16.369699"
       fy="44.139114"
       r="1.7509805" />
    <radialGradient
       inkscape:collect="always"
       xlink:href="#linearGradient48890"
       id="radialGradient3308"
       gradientUnits="userSpaceOnUse"
       gradientTransform="matrix(-1.4527344,0,1.3419828e-7,-6.1275565,72.330868,390.22443)"
       cx="38.92181"
       cy="60.765884"
       fx="38.92181"
       fy="60.765884"
       r="2.8281901" />
    <radialGradient
       inkscape:collect="always"
       xlink:href="#linearGradient2803"
       id="radialGradient3311"
       gradientUnits="userSpaceOnUse"
       gradientTransform="matrix(-0.77910639,0.00989452,-0.07937478,-6.2001987,16.84173,406.05965)"
       cx="8.4597883"
       cy="64.232155"
       fx="8.4597883"
       fy="64.232155"
       r="2.3488126" />
    <radialGradient
       inkscape:collect="always"
       xlink:href="#linearGradient2878"
       id="radialGradient3323"
       gradientUnits="userSpaceOnUse"
       gradientTransform="matrix(-1.9329111,-0.01465419,0.27575073,-7.2742517,23.753082,551.803)"
       cx="13.351931"
       cy="73.529305"
       fx="13.351931"
       fy="73.529305"
       r="2.8294306" />
    <linearGradient
       inkscape:collect="always"
       xlink:href="#linearGradient39063"
       id="linearGradient3326"
       gradientUnits="userSpaceOnUse"
       gradientTransform="matrix(1.4527344,0,0,0.67040464,-39.822414,-19.312115)"
       x1="37.07943"
       y1="99.367859"
       x2="36.783859"
       y2="58.492859" />
    <radialGradient
       inkscape:collect="always"
       xlink:href="#linearGradient56867"
       id="radialGradient3330"
       gradientUnits="userSpaceOnUse"
       gradientTransform="matrix(-0.77905107,0.01350972,-0.03196593,-1.8286349,37.899876,128.29096)"
       cx="38.784943"
       cy="62.149143"
       fx="38.784943"
       fy="62.149143"
       r="6.09375" />
    <radialGradient
       inkscape:collect="always"
       xlink:href="#linearGradient49808"
       id="radialGradient3336"
       gradientUnits="userSpaceOnUse"
       gradientTransform="matrix(-0.7791695,0,0,1.5102168,97.290419,-62.61396)"
       cx="16.369699"
       cy="44.139114"
       fx="16.369699"
       fy="44.139114"
       r="1.7509805" />
    <radialGradient
       inkscape:collect="always"
       xlink:href="#linearGradient48890"
       id="radialGradient3339"
       gradientUnits="userSpaceOnUse"
       gradientTransform="matrix(1.4527344,0,-1.3419828e-7,-6.1275565,23.669133,390.22443)"
       cx="38.92181"
       cy="60.765884"
       fx="38.92181"
       fy="60.765884"
       r="2.8281901" />
    <radialGradient
       inkscape:collect="always"
       xlink:href="#linearGradient2803"
       id="radialGradient3342"
       gradientUnits="userSpaceOnUse"
       gradientTransform="matrix(0.77910639,0.00989452,0.07937478,-6.2001987,79.158273,406.05965)"
       cx="8.4597883"
       cy="64.232155"
       fx="8.4597883"
       fy="64.232155"
       r="2.3488126" />
    <radialGradient
       inkscape:collect="always"
       xlink:href="#linearGradient2878"
       id="radialGradient3354"
       gradientUnits="userSpaceOnUse"
       gradientTransform="matrix(1.9329111,-0.01465419,-0.27575073,-7.2742517,72.246918,551.803)"
       cx="13.351931"
       cy="73.529305"
       fx="13.351931"
       fy="73.529305"
       r="2.8294306" />
    <linearGradient
       inkscape:collect="always"
       xlink:href="#linearGradient39063"
       id="linearGradient3357"
       gradientUnits="userSpaceOnUse"
       gradientTransform="matrix(-1.4527344,0,0,0.67040464,135.82242,-19.312115)"
       x1="37.07943"
       y1="99.367859"
       x2="36.783859"
       y2="58.492859" />
    <radialGradient
       inkscape:collect="always"
       xlink:href="#linearGradient56867"
       id="radialGradient3361"
       gradientUnits="userSpaceOnUse"
       gradientTransform="matrix(0.77905107,0.01350972,0.03196593,-1.8286349,58.100124,128.29096)"
       cx="38.784943"
       cy="62.149143"
       fx="38.784943"
       fy="62.149143"
       r="6.09375" />
    <linearGradient
       inkscape:collect="always"
       xlink:href="#linearGradient4085"
       id="linearGradient4096"
       gradientUnits="userSpaceOnUse"
       x1="9.0972042"
       y1="25.666533"
       x2="6.245152"
       y2="55.01189"
       gradientTransform="translate(0,-32)" />
    <linearGradient
       inkscape:collect="always"
       xlink:href="#linearGradient4085-6"
       id="linearGradient4096-1"
       gradientUnits="userSpaceOnUse"
       x1="9.0972042"
       y1="25.666533"
       x2="6.245152"
       y2="55.01189"
       gradientTransform="translate(0,-32)" />
    <linearGradient
       id="linearGradient4085-6">
      <stop
         id="stop4087-4"
         offset="0"
         style="stop-color:#6d6d6d;stop-opacity:1;" />
      <stop
         style="stop-color:#ffffff;stop-opacity:1;"
         offset="0.39074388"
         id="stop4089-7" />
      <stop
         style="stop-color:#555555;stop-opacity:1;"
         offset="0.82692307"
         id="stop4091-8" />
      <stop
         style="stop-color:#3f3f3f;stop-opacity:1;"
         offset="1"
         id="stop4093-8" />
    </linearGradient>
    <radialGradient
       inkscape:collect="always"
       xlink:href="#linearGradient3852"
       id="radialGradient3858"
       cx="47.972263"
       cy="-6.7221298"
       fx="47.972263"
       fy="-6.7221298"
       r="37.971402"
       gradientTransform="matrix(0.91332871,0,0,0.37281677,4.1412845,-11.315116)"
       gradientUnits="userSpaceOnUse" />
  </defs>
  <sodipodi:namedview
     id="base"
     pagecolor="#ffffff"
     bordercolor="#666666"
     borderopacity="1.0"
     inkscape:pageopacity="0.0"
     inkscape:pageshadow="2"
     inkscape:zoom="5.7395833"
     inkscape:cx="48"
     inkscape:cy="48"
     inkscape:current-layer="layer1"
     showgrid="true"
     inkscape:document-units="px"
     inkscape:grid-bbox="true"
     inkscape:window-width="1047"
     inkscape:window-height="765"
     inkscape:window-x="30"
     inkscape:window-y="58"
     inkscape:window-maximized="0" />
  <metadata
     id="metadata4566">
    <rdf:RDF>
      <cc:Work
         rdf:about="">
        <dc:format>image/svg+xml</dc:format>
        <dc:type
           rdf:resource="http://purl.org/dc/dcmitype/StillImage" />
        <dc:title />
      </cc:Work>
    </rdf:RDF>
  </metadata>
  <g
     id="layer1"
     inkscape:label="Layer 1"
     inkscape:groupmode="layer"
     transform="translate(0,32)">
    <path
       style="font-size:medium;font-style:normal;font-variant:normal;font-weight:normal;font-stretch:normal;text-indent:0;text-align:start;text-decoration:none;line-height:normal;letter-spacing:normal;word-spacing:normal;text-transform:none;direction:ltr;block-progression:tb;writing-mode:lr-tb;text-anchor:start;color:#000000;fill:url(#linearGradient3159);fill-opacity:1;stroke:none;stroke-width:0.5;marker:none;visibility:visible;display:inline;overflow:visible;enable-background:accumulate;font-family:Abandoned Bitplane;-inkscape-font-specification:Abandoned Bitplane"
       d="m 28.295454,7.9886365 c -0.242657,0 -0.414517,0.1578469 -0.511363,0.2727273 -0.09685,0.1148803 -0.183502,0.2326832 -0.238637,0.375 -0.110273,0.2846356 -0.16375,0.6262953 -0.238636,1.0909091 -0.149772,0.9292251 -0.259683,2.2260721 -0.340909,3.7840911 -0.384551,7.852552 -0.160741,15.063868 -0.511364,22.772727 -0.07322,1.547387 -0.175374,2.866529 -0.306818,3.75 -0.05277,0.354655 -0.111191,0.578382 -0.170454,0.784091 -0.02866,-0.07026 -0.04045,-0.112877 -0.06818,-0.204545 -0.137625,-0.454808 -0.250745,-1.140347 -0.340909,-1.977273 -0.392995,-4.271312 -0.31508,-8.21081 -0.647728,-12.409091 -0.06938,-0.854369 -0.115244,-1.587237 -0.238636,-2.113636 -0.06169,-0.2632 -0.136428,-0.463976 -0.238636,-0.647728 -0.0511,-0.09188 -0.140994,-0.191753 -0.238637,-0.272727 -0.09765,-0.08098 -0.234445,-0.136364 -0.409091,-0.136364 -0.211771,0 -0.390271,0.109818 -0.477272,0.204546 -0.087,0.09473 -0.126318,0.167653 -0.170455,0.272727 -0.08828,0.210149 -0.148768,0.496713 -0.204545,0.818182 -0.111557,0.642937 -0.177959,1.492617 -0.238637,2.556818 -0.291657,5.358092 -0.142103,10.293818 -0.613636,15.545455 -0.09696,1.049693 -0.221052,1.906449 -0.375,2.488636 -0.04875,0.18436 -0.08622,0.291141 -0.136364,0.409091 -0.0232,-0.06736 -0.07745,-0.128261 -0.102272,-0.204545 l 0,1.227272 c 0.01572,10e-4 0.05214,0 0.06818,0 0.180526,0 0.328384,-0.08408 0.443182,-0.170454 0.1148,-0.08638 0.20529,-0.163616 0.272728,-0.272727 0.134875,-0.218224 0.220514,-0.491809 0.306818,-0.818182 0.172604,-0.652746 0.310496,-1.557666 0.409091,-2.625 0.426923,-5.345424 0.289774,-10.254582 0.579545,-15.511364 0.06002,-1.052825 0.135921,-1.930731 0.238636,-2.522727 0.01091,-0.0628 0.02255,-0.0801 0.03409,-0.136364 0.104739,0.461469 0.172064,1.123459 0.238637,1.943182 0.401517,4.276662 0.180646,8.261614 0.613636,12.443182 0.09229,0.856694 0.213672,1.580498 0.375,2.113636 0.08066,0.266568 0.175124,0.494947 0.306818,0.681818 0.131696,0.186871 0.360595,0.375 0.681818,0.375 0.251335,0 0.420832,-0.157698 0.511364,-0.272727 0.09053,-0.115027 0.153588,-0.233618 0.204546,-0.375 0.101912,-0.282762 0.16962,-0.627027 0.238636,-1.090909 0.138033,-0.927763 0.267217,-2.260596 0.340909,-3.818182 0.277442,-7.846354 0.120985,-15.034873 0.511364,-22.738636 0.08065,-1.546956 0.164657,-2.833901 0.306818,-3.7159095 0.04402,-0.2730949 0.08745,-0.4265553 0.136363,-0.6136364 0.04298,0.1583564 0.09672,0.2566375 0.136364,0.4772728 0.143459,0.7982641 0.252395,1.9696061 0.340909,3.3750001 0.421421,7.133245 0.276609,13.684508 0.613637,20.693182 0.07041,1.416123 0.149781,2.598864 0.272727,3.443182 0.06147,0.422158 0.148812,0.729527 0.238636,0.988636 0.04491,0.129555 0.08854,0.266121 0.170455,0.375 0.08192,0.108873 0.223358,0.238636 0.477272,0.238636 0.26799,0 0.518615,-0.124102 0.647728,-0.272727 0.129114,-0.148623 0.198384,-0.313669 0.272727,-0.511363 0.148689,-0.395391 0.255997,-0.922474 0.340909,-1.534091 0.347339,-3.025682 0.264778,-5.82906 0.647727,-8.795455 0.07804,-0.588563 0.196779,-1.092069 0.306819,-1.397727 0.03666,0.118739 0.06816,0.199501 0.102272,0.375 0.115412,0.593644 0.206252,1.497833 0.272728,2.556818 0.392578,5.365307 0.118036,10.315093 0.545454,15.579546 0.0901,1.062877 0.245279,1.915743 0.409091,2.556818 0.08191,0.320537 0.139152,0.604634 0.272727,0.818182 0.06679,0.106778 0.150501,0.188419 0.272728,0.272727 0.122226,0.08431 0.330805,0.152946 0.511363,0.136363 0.225034,-0.02067 0.343293,-0.124658 0.443182,-0.238636 0.09989,-0.113979 0.177742,-0.230999 0.238636,-0.375 0.121791,-0.288003 0.223088,-0.664353 0.306819,-1.125 0.167457,-0.921294 0.282458,-2.191549 0.375,-3.715909 0.397443,-7.654047 0.245274,-14.667139 0.545454,-22.193182 0.06204,-1.507364 0.123418,-2.747343 0.238637,-3.613636 0.01091,-0.08195 0.02255,-0.129682 0.03409,-0.204546 0.01445,0.09418 0.05469,0.133129 0.06818,0.238636 0.11793,0.922612 0.177486,2.266359 0.238637,3.886364 0.29956,8.229403 0.07314,15.790643 0.511363,23.863637 0.09155,1.630686 0.205169,2.985984 0.375,3.954545 0.08492,0.484281 0.181304,0.897843 0.306818,1.193182 0.06275,0.147669 0.128506,0.258303 0.238637,0.375 0.110133,0.116697 0.308561,0.24892 0.545454,0.238636 0.197503,-0.0086 0.363886,-0.104465 0.477273,-0.204545 0.113387,-0.10008 0.205286,-0.21442 0.272727,-0.340909 0.134881,-0.25298 0.220031,-0.598878 0.306819,-0.988637 0.173574,-0.779516 0.32059,-1.821931 0.40909,-3.102272 0.319335,-6.419571 0.112274,-12.306197 0.409091,-18.613637 0.06146,-1.260384 0.150212,-2.288296 0.272728,-3 0.04807,-0.279241 0.0832,-0.454973 0.136363,-0.613636 0.02664,0.05481 0.04183,0.06267 0.06818,0.136363 0.130167,0.363852 0.255814,0.911964 0.340909,1.602273 0.448091,3.542207 0.243463,6.864732 0.579546,10.329546 0.07257,0.717615 0.171146,1.315427 0.306818,1.772727 0.06783,0.22865 0.122495,0.411676 0.238636,0.579545 0.116142,0.167868 0.351628,0.357951 0.647728,0.375 0.213226,0.01228 0.376721,-0.07181 0.477272,-0.170454 0.100549,-0.09864 0.185671,-0.225935 0.238637,-0.340909 C 44.901393,38.0996 44.929533,37.837363 45,37.477273 c 0.140935,-0.720177 0.289876,-1.728113 0.375,-2.931818 0.345837,-6.077333 0.274132,-11.657139 0.647727,-17.625 0.07683,-1.197695 0.186703,-2.219953 0.306819,-2.897728 0.0096,-0.05436 0.02407,-0.05206 0.03409,-0.102272 0.01859,0.09311 0.01669,0.130658 0.03409,0.238636 0.121878,0.755846 0.233051,1.874062 0.306819,3.204546 0.328701,6.769888 0.204762,12.992848 0.613636,19.636363 0.08544,1.349748 0.160273,2.457065 0.306818,3.272728 0.07328,0.407831 0.165948,0.731058 0.272727,0.988636 0.05339,0.128788 0.11289,0.268882 0.204546,0.375 0.09166,0.106124 0.254488,0.222478 0.477273,0.238636 0.291508,0.02114 0.539732,-0.13753 0.681818,-0.306818 0.142085,-0.169285 0.263574,-0.380405 0.340909,-0.613636 0.154671,-0.46646 0.232161,-1.062694 0.306818,-1.806818 0.358255,-3.739617 0.107266,-7.21286 0.477273,-10.875 0.07761,-0.737715 0.174263,-1.372342 0.306818,-1.772728 0.06627,-0.200192 0.150927,-0.340239 0.204545,-0.409091 0.01341,-0.01721 0.02772,0.0079 0.03409,0 0.0271,0.01775 0.07969,0.04061 0.136364,0.136364 0.113338,0.191497 0.229536,0.552946 0.306818,0.988636 0.344223,2.308756 0.147881,4.496791 0.477273,6.75 0.07284,0.481323 0.138931,0.895303 0.306818,1.227273 0.08394,0.165984 0.221264,0.319731 0.375,0.443182 0.153735,0.123451 0.351555,0.204545 0.579546,0.204545 0.17121,0 0.335067,-0.05523 0.443181,-0.136363 0.10812,-0.08114 0.178345,-0.17408 0.238637,-0.272727 0.120579,-0.197296 0.200418,-0.43045 0.272727,-0.71591 0.144617,-0.57092 0.265359,-1.35811 0.340909,-2.28409 0.336961,-4.639487 0.127513,-8.90866 0.511364,-13.46591 0.07934,-0.908269 0.207406,-1.649849 0.340909,-2.147727 0.02703,-0.100844 0.03964,-0.126743 0.06818,-0.204545 0.05355,0.179407 0.08753,0.32172 0.136363,0.613636 0.133653,0.799073 0.228973,2.003386 0.306818,3.409091 0.404971,7.135208 0.204884,13.67451 0.579546,20.693182 0.07847,1.416998 0.199155,2.595678 0.340909,3.443182 0.07088,0.42375 0.133294,0.759352 0.238636,1.022727 0.05267,0.131687 0.109835,0.231896 0.204546,0.340909 0.09472,0.109015 0.277722,0.238636 0.511363,0.238636 0.272836,0 0.45584,-0.149529 0.545455,-0.272727 0.08962,-0.123198 0.117099,-0.285367 0.170455,-0.443182 0.106712,-0.315629 0.230256,-0.697732 0.306818,-1.227272 0.153124,-1.059081 0.25023,-2.579823 0.340909,-4.363637 0.384145,-8.965 0.245393,-17.152297 0.579545,-25.977273 0.06853,-1.751492 0.191341,-3.173538 0.306818,-4.1590907 0.02243,0.1153947 0.05018,0.1859517 0.06818,0.3409087 0.130829,1.126843 0.222778,2.754173 0.306818,4.670455 0.446576,9.609889 0.300843,18.402119 0.681819,27.852273 0.07892,1.890038 0.180517,3.460131 0.306818,4.568182 0.06315,0.554025 0.118942,0.975571 0.204545,1.295454 0.04281,0.159942 0.09763,0.2857 0.170455,0.409091 0.03643,0.06169 0.08601,0.139306 0.170454,0.204546 0.08444,0.06524 0.248015,0.116568 0.409091,0.102272 0.220304,-0.01956 0.326598,-0.105032 0.409091,-0.204545 0.0825,-0.09951 0.157454,-0.224281 0.204546,-0.340909 0.09418,-0.233255 0.173117,-0.521642 0.238636,-0.886364 0.131036,-0.729442 0.224315,-1.76243 0.306818,-2.965909 0.390412,-6.041138 0.286766,-11.585803 0.681818,-17.522727 0.08175,-1.191725 0.184284,-2.148197 0.306819,-2.829546 0.03171,-0.176324 0.102534,-0.278594 0.136363,-0.409091 0.102306,0.361715 0.172885,0.882378 0.238637,1.534091 0.333885,3.575705 0.198785,6.899652 0.613636,10.397728 0.0882,0.722705 0.176942,1.312247 0.340909,1.772727 0.08198,0.23024 0.200543,0.446564 0.340909,0.613636 0.140366,0.167072 0.360159,0.306818 0.647727,0.306818 0.332738,0 0.582466,-0.176307 0.71591,-0.375 0.133441,-0.198691 0.192679,-0.463056 0.272727,-0.75 0.160091,-0.57389 0.257925,-1.357141 0.340909,-2.28409 C 68.452189,30.808078 68.184835,26.536613 68.522722,22 c 0.07088,-0.908823 0.182345,-1.682503 0.306818,-2.181818 0.03071,-0.123189 0.03572,-0.15026 0.06818,-0.238636 0.0479,0.136817 0.09188,0.226066 0.136363,0.443182 0.132992,0.648953 0.267834,1.638213 0.340909,2.795454 0.300474,5.886971 0.09924,11.30614 0.477273,17.079546 0.07933,1.171895 0.186946,2.152891 0.340909,2.863636 0.07699,0.355372 0.150311,0.619473 0.272727,0.852273 0.06121,0.1164 0.129165,0.211516 0.238637,0.306818 0.109472,0.0953 0.282416,0.204545 0.477272,0.204545 0.207476,0 0.367659,-0.101956 0.477273,-0.204545 0.109616,-0.102578 0.210895,-0.214382 0.272727,-0.340909 0.123667,-0.253054 0.193322,-0.558981 0.272728,-0.954546 0.158812,-0.791129 0.259745,-1.891997 0.340909,-3.204545 0.40554,-6.603704 0.142934,-12.674883 0.477273,-19.159091 0.06992,-1.299167 0.174558,-2.402096 0.306818,-3.136364 0.04456,-0.247363 0.08712,-0.353235 0.136363,-0.511363 0.03439,0.09531 0.0698,0.142303 0.102273,0.272727 0.134787,0.541335 0.261455,1.338705 0.340909,2.318182 0.387607,4.987533 0.155855,9.599044 0.511364,14.488636 0.07546,0.995941 0.197465,1.8447 0.340909,2.454546 0.07173,0.304922 0.121264,0.543182 0.238636,0.75 0.05869,0.103407 0.131998,0.18654 0.238637,0.272727 0.106636,0.08619 0.263054,0.170454 0.443182,0.170454 0.07193,0 0.138421,-0.01669 0.204545,-0.03409 l 0,-1.227273 c -0.02307,0.07772 -0.04362,0.176519 -0.06818,0.238636 -0.02591,0.06552 -0.07706,0.05597 -0.102273,0.102273 -0.04877,-0.113378 -0.08808,-0.237836 -0.136363,-0.443182 -0.127663,-0.542758 -0.232574,-1.33823 -0.306818,-2.318182 -0.275748,-4.993143 -0.125783,-9.597084 -0.511364,-14.488636 -0.08083,-0.996415 -0.18871,-1.843277 -0.340909,-2.454546 -0.07609,-0.305633 -0.148648,-0.542342 -0.272727,-0.75 -0.06204,-0.103832 -0.128619,-0.188067 -0.238637,-0.272727 -0.110018,-0.08465 -0.300206,-0.170455 -0.477273,-0.170455 -0.215265,0 -0.375561,0.100277 -0.477272,0.204546 -0.101706,0.104269 -0.182981,0.215505 -0.238637,0.340909 -0.111312,0.250812 -0.167593,0.560138 -0.238636,0.954545 -0.142087,0.788816 -0.236216,1.892714 -0.306818,3.204546 -0.365613,6.594734 -0.09285,12.649957 -0.477273,19.125 -0.08029,1.298451 -0.193978,2.40441 -0.340909,3.136364 -0.0546,0.271998 -0.11132,0.452424 -0.170455,0.613636 C 71.131792,42.966282 71.092202,42.840895 71.045449,42.625 70.905147,41.977319 70.816939,40.986382 70.738631,39.829546 70.289401,33.946207 70.575965,28.536672 70.227267,22.75 c -0.07397,-1.171489 -0.195517,-2.120074 -0.340909,-2.829545 -0.07271,-0.354737 -0.122664,-0.6546 -0.238636,-0.886364 -0.05798,-0.115881 -0.132928,-0.210359 -0.238637,-0.306818 -0.105709,-0.09646 -0.313018,-0.204546 -0.511363,-0.204546 -0.171209,0 -0.301003,0.05498 -0.409091,0.136364 -0.108088,0.08137 -0.178689,0.208055 -0.238637,0.306818 -0.119893,0.197527 -0.20156,0.396339 -0.272727,0.681819 -0.142334,0.570962 -0.234611,1.358157 -0.306818,2.28409 -0.341389,4.639141 -0.118095,8.909342 -0.511364,13.46591 -0.08127,0.907808 -0.202439,1.65134 -0.340909,2.147727 -0.05711,0.204712 -0.116356,0.343623 -0.170454,0.443182 -0.04273,-0.06916 -0.05461,-0.138894 -0.102273,-0.272728 -0.131618,-0.369633 -0.289678,-0.937217 -0.375,-1.636363 -0.385989,-3.57117 -0.238356,-6.904586 -0.579546,-10.397728 -0.0719,-0.712596 -0.135613,-1.29353 -0.272727,-1.738636 -0.06854,-0.222552 -0.14717,-0.415599 -0.272727,-0.579545 -0.125555,-0.163948 -0.386927,-0.331605 -0.681818,-0.306819 -0.220539,0.01855 -0.360366,0.139149 -0.443182,0.238637 -0.08282,0.09949 -0.12331,0.190317 -0.170455,0.306818 -0.09429,0.233003 -0.1731,0.521953 -0.238636,0.886364 -0.131072,0.728822 -0.224298,1.762869 -0.306818,2.965909 -0.388651,6.029688 -0.288219,11.573476 -0.681819,17.488636 -0.07908,1.15346 -0.223759,2.081915 -0.340909,2.761364 -0.02318,-0.157834 -0.01252,-0.219877 -0.03409,-0.409091 -0.12265,-1.076002 -0.2282,-2.651275 -0.306813,-4.534091 C 61.445225,33.146618 61.560648,24.314777 61.159091,14.875 61.07472,12.951247 60.952626,11.362528 60.818182,10.204546 60.75096,9.6255554 60.702732,9.1523561 60.613637,8.8068183 60.569084,8.6340489 60.508807,8.4913667 60.443182,8.3636365 60.377553,8.2359063 60.285311,8.0946707 60,8.0227274 c -0.139746,-0.035236 -0.303182,-0.025495 -0.409091,0.034091 -0.105905,0.059586 -0.162628,0.1440284 -0.204545,0.2045455 -0.08384,0.1210331 -0.127654,0.2281178 -0.170455,0.375 -0.0856,0.2937665 -0.144743,0.7168811 -0.204545,1.2272727 -0.119605,1.0207824 -0.203905,2.4681764 -0.272727,4.2272724 -0.401227,8.958552 -0.182891,17.172097 -0.613637,25.977273 -0.0902,1.774212 -0.193666,3.242953 -0.340909,4.261364 -0.04611,0.318975 -0.119397,0.495832 -0.170454,0.715909 -0.03131,-0.135095 -0.03946,-0.203252 -0.06818,-0.375 -0.133654,-0.799073 -0.228976,-2.003386 -0.306818,-3.409091 -0.403365,-7.133276 -0.205532,-13.689355 -0.579546,-20.693182 -0.07847,-1.416998 -0.199157,-2.59568 -0.340909,-3.443182 -0.07088,-0.42375 -0.133293,-0.759352 -0.238636,-1.022727 -0.05267,-0.131687 -0.07574,-0.231897 -0.170455,-0.340909 -0.09471,-0.109015 -0.277724,-0.238637 -0.511364,-0.238637 -0.337116,0 -0.554443,0.211142 -0.681818,0.409091 -0.127376,0.19795 -0.230075,0.429709 -0.306818,0.715909 -0.153483,0.572397 -0.294063,1.357603 -0.375,2.284091 -0.326479,4.64097 -0.151277,8.904848 -0.511364,13.46591 -0.07415,0.908777 -0.146237,1.648372 -0.272727,2.147727 -0.05459,0.215482 -0.119203,0.343583 -0.170454,0.443182 -0.02466,-0.03209 -0.07423,-0.04682 -0.102273,-0.102273 -0.1062,-0.209992 -0.17105,-0.57617 -0.238636,-1.022727 -0.363984,-2.314542 -0.09621,-4.545115 -0.477273,-6.784091 -0.08433,-0.475388 -0.216585,-0.867918 -0.409091,-1.193182 -0.09625,-0.162632 -0.236803,-0.296299 -0.409091,-0.409091 -0.172288,-0.112793 -0.352369,-0.185552 -0.579546,-0.170455 -0.29169,0.01939 -0.544084,0.198138 -0.681818,0.375 -0.137732,0.176865 -0.225954,0.369386 -0.306818,0.613637 -0.161729,0.488502 -0.260876,1.148347 -0.340909,1.909091 -0.38577,3.743183 -0.155904,7.194233 -0.511364,10.875 -0.07238,0.721433 -0.149021,1.297379 -0.272727,1.670454 -0.02009,0.06059 -0.04736,0.08861 -0.06818,0.136364 -0.06161,-0.178258 -0.112969,-0.395949 -0.170454,-0.715909 -0.137641,-0.766103 -0.256225,-1.900811 -0.340909,-3.238636 -0.368089,-6.760319 -0.255572,-12.96096 -0.613637,-19.602273 -0.07436,-1.341073 -0.143424,-2.470834 -0.272727,-3.272728 -0.06465,-0.400947 -0.143098,-0.704654 -0.238636,-0.954545 -0.04776,-0.124946 -0.116816,-0.269071 -0.204546,-0.375 -0.08772,-0.105927 -0.240004,-0.204546 -0.477273,-0.204546 -0.223652,0 -0.422397,0.104444 -0.511363,0.204546 -0.08896,0.100102 -0.122712,0.191261 -0.170455,0.306818 -0.09549,0.231115 -0.140156,0.557134 -0.204545,0.920455 -0.128777,0.726643 -0.229261,1.722789 -0.306818,2.931818 -0.397112,6.076642 -0.271909,11.65045 -0.681819,17.625 -0.08423,1.191137 -0.176403,2.163128 -0.306818,2.829545 -0.03556,0.181722 -0.06452,0.280521 -0.102272,0.409091 -0.0072,-0.02171 -0.0272,-0.0108 -0.03409,-0.03409 -0.112301,-0.378512 -0.202141,-0.972425 -0.272733,-1.670455 -0.357186,-3.549136 -0.167438,-6.865306 -0.579545,-10.329546 -0.088,-0.713885 -0.212302,-1.28385 -0.375,-1.738636 -0.08136,-0.227392 -0.167382,-0.448223 -0.306818,-0.613636 -0.139436,-0.165415 -0.396116,-0.306819 -0.681818,-0.306819 -0.215134,0 -0.378753,0.101313 -0.477273,0.204546 -0.09852,0.103233 -0.151852,0.218732 -0.204546,0.340909 -0.105382,0.244353 -0.172757,0.53776 -0.238636,0.920455 -0.131757,0.765389 -0.244766,1.829649 -0.306818,3.102272 -0.30938,6.405303 0.0066,12.299994 -0.409091,18.579546 -0.08742,1.264545 -0.249794,2.318696 -0.409091,3.034091 -0.06316,0.283673 -0.102873,0.487801 -0.170455,0.647727 C 39.537251,49.67531 39.44459,49.396881 39.375,49 39.214173,48.082808 39.090869,46.732153 39,45.113637 38.611073,36.883574 38.816753,29.34819 38.522727,21.25 38.461233,19.621132 38.373048,18.292197 38.25,17.329546 c -0.06152,-0.481325 -0.146393,-0.871275 -0.238636,-1.159091 -0.04611,-0.143909 -0.08545,-0.291498 -0.170455,-0.409091 -0.085,-0.117594 -0.274904,-0.254215 -0.545454,-0.238637 -0.260171,0.01498 -0.398639,0.159575 -0.477273,0.272728 -0.07864,0.113151 -0.125715,0.236598 -0.170455,0.375 -0.08949,0.2768 -0.144254,0.637586 -0.204545,1.090909 -0.120587,0.906647 -0.210315,2.165333 -0.272727,3.681818 -0.360523,7.640415 -0.07499,14.661607 -0.511364,22.159091 -0.09178,1.511799 -0.250935,2.777614 -0.409091,3.647727 -0.07149,0.393319 -0.126219,0.679642 -0.204545,0.886364 -0.0474,-0.11234 -0.08991,-0.1932 -0.136364,-0.375 -0.145488,-0.569367 -0.286359,-1.442882 -0.375,-2.488636 -0.372626,-5.366289 -0.19236,-10.303493 -0.511364,-15.579546 -0.06729,-1.072034 -0.180377,-1.940524 -0.306818,-2.590909 -0.06322,-0.325192 -0.137622,-0.603578 -0.238636,-0.818182 -0.05051,-0.107302 -0.108284,-0.213208 -0.204546,-0.306818 -0.09626,-0.09361 -0.277644,-0.170455 -0.477272,-0.170455 -0.27084,0 -0.489508,0.157943 -0.613637,0.306819 -0.124131,0.148877 -0.20178,0.314294 -0.272727,0.511363 -0.141894,0.394137 -0.191701,0.888914 -0.272727,1.5 -0.449587,3.015348 -0.286151,5.838035 -0.681819,8.795455 -0.07604,0.547709 -0.167589,0.989124 -0.272727,1.295454 -0.04257,-0.17514 -0.131918,-0.314901 -0.170454,-0.579545 -0.116822,-0.802258 -0.168698,-1.96842 -0.238637,-3.375 C 29.960847,26.612705 30.056902,20.058822 29.625,13.034091 29.535731,11.616782 29.436544,10.473313 29.284091,9.6250001 29.207869,9.2008427 29.122548,8.8323281 29.011364,8.568182 28.955771,8.4361089 28.905033,8.3356372 28.806818,8.2272729 28.708604,8.1189129 28.525012,7.9886365 28.295454,7.9886365 z"
       id="path3988"
       inkscape:connector-curvature="0"
       sodipodi:nodetypes="scsscccccccccssccsccscccscsscccccccssssscccccccsccssscccccccscsssscccccccscscsssccscccccscscsccccccccssssscccccccccssccscccccccsscscssccccccsccccccsccsccccssssccsccccccsscssccccscccccsccccccccscscssccsccccccssccscccccccccccssccccccscccccsscccccccsscsssccccccccsccsccccsccsccsccsccccccccssscsccccsccsccsccsccscsccscsssscccscccscs" />
    <path
       inkscape:connector-curvature="0"
       inkscape:r_cy="true"
       inkscape:r_cx="true"
       style="fill:#232323;fill-opacity:1;fill-rule:nonzero;stroke:none"
       d="m 77.813278,11.778447 -0.352519,0.0108 c -0.83312,-0.0027 -0.843896,0.394334 -0.843896,1.262014 0,0 0.45516,4.193192 0.714382,13.175887 0.259222,8.98269 0.126553,22.539629 0.126553,22.539629 0,0.445478 0.437737,0.790388 0.940613,0.797777 2.482956,0.03601 6.467831,-2.502763 6.43912,-5.156259 l -0.02376,-28.189827 c 0,-0.287768 -3.498783,-4.47159 -7.000472,-4.440045 z"
       id="path6565"
       sodipodi:nodetypes="cccscsccc" />
    <path
       inkscape:connector-curvature="0"
       sodipodi:nodetypes="cscccsc"
       inkscape:r_cy="true"
       inkscape:r_cx="true"
       id="path6567"
       d="m 83.94457,15.406342 c 8.158288,-0.05016 9.450002,7.386095 9.450002,14.347487 0,6.939442 -1.395228,13.811558 -9.395529,14.052602 0.0032,-0.04339 0,-0.08984 0,-0.134089 l 0,-27.676008 c 0,-0.206519 -0.04121,-0.407117 -0.108939,-0.589992 0.02088,0.0062 0.03366,-0.0064 0.05446,0 z"
       style="fill:#000000;fill-opacity:1;fill-rule:nonzero;stroke:none" />
    <path
       inkscape:connector-curvature="0"
       style="fill:#000000;fill-opacity:1;fill-rule:nonzero;stroke:none"
       d="m 75.762839,10.548495 -0.390575,0 c -1.527452,0 -3.278124,1.022726 -3.372264,4.878927 0,0 0.188279,7.206438 0.188279,14.412874 C 72.188279,37.046734 72,44.25317 72,44.25317 c 0.04707,3.723913 2.247682,5.483298 4.403051,5.552677 l 0.502612,0.01234 c 0.925996,-0.03764 1.08458,-0.65052 1.08458,-0.934975 0,0 0.658975,-9.345073 0.564836,-18.690144 -0.09414,-9.345071 -0.941392,-18.690142 -0.941392,-18.690142 0,-0.681321 -1.045303,-0.992038 -1.850848,-0.954423 z"
       id="path6569"
       sodipodi:nodetypes="cccsccccscc"
       inkscape:r_cx="true"
       inkscape:r_cy="true" />
    <path
       inkscape:connector-curvature="0"
       inkscape:r_cy="true"
       inkscape:r_cx="true"
       id="path6571"
       d="m 84.141934,15.16762 c 7.904386,0.124164 9.155242,7.567854 9.155242,14.526762 0,2.451244 -0.192634,4.88111 -0.754821,7.03299 0.05415,-0.615652 0.073,-1.232965 0.073,-1.86738 0,-7.271102 -3.668143,-13.4248 -8.716958,-15.545333 l 0,-3.540746 c 0,-0.208893 -0.02968,-0.421314 -0.0974,-0.606293 0.0023,-1.06e-4 0.02221,3.27e-4 0.02439,0 0.0023,-9.5e-5 0.02197,-2.83e-4 0.02439,0 0.09561,-5.94e-4 0.198462,-0.0015 0.292189,0 z"
       style="opacity:0.79587157;fill:url(#radialGradient3361);fill-opacity:1;fill-rule:nonzero;stroke:none" />
    <path
       inkscape:connector-curvature="0"
       sodipodi:nodetypes="cccscsccc"
       id="path6573"
       d="m 77.813278,14.390666 -0.352519,0.0091 c -0.83312,-0.0023 -0.843896,0.329589 -0.843896,1.054807 0,0 0.45516,3.504726 0.714382,11.012579 0.259222,7.507852 0.126553,18.838918 0.126553,18.838918 0,0.372339 0.437737,0.660615 0.940613,0.666797 2.482956,0.03008 6.467831,-2.091847 6.43912,-4.309673 l -0.02376,-23.561427 c 0,-0.240521 -3.498783,-3.737412 -7.000472,-3.711048 z"
       style="fill:#b5b5b5;fill-opacity:1;fill-rule:nonzero;stroke:none"
       inkscape:r_cx="true"
       inkscape:r_cy="true" />
    <path
       inkscape:connector-curvature="0"
       inkscape:r_cy="true"
       inkscape:r_cx="true"
       style="opacity:0.66284407;fill:url(#linearGradient3357);fill-opacity:1;fill-rule:nonzero;stroke:none"
       d="m 77.952313,14.336459 -0.352527,0.0091 c -0.833119,-0.0023 -0.843895,0.331293 -0.843895,1.06026 0,0 0.455167,3.522844 0.714381,11.069507 0.259222,7.546662 0.126561,18.936297 0.126561,18.936297 0,0.374271 0.43773,0.664038 0.940614,0.67025 2.482956,0.03024 6.46783,-2.102659 6.43911,-4.331951 l -0.02376,-23.683225 c 0,-0.241765 -3.498774,-3.756734 -7.000464,-3.730232 z"
       id="path6595"
       sodipodi:nodetypes="cccscsccc" />
    <path
       inkscape:connector-curvature="0"
       sodipodi:nodetypes="cccscsccc"
       id="path6597"
       d="m 77.952313,16.297433 -0.352527,0.0088 c -0.833119,-0.0022 -0.843895,0.32105 -0.843895,1.027482 0,0 0.455167,3.413939 0.714381,10.727305 0.259222,7.313367 0.126561,18.350908 0.126561,18.350908 0,0.362692 0.43773,0.64351 0.940614,0.649527 2.482956,0.0293 6.46783,-2.037661 6.43911,-4.198035 l -0.02376,-22.951086 c 0,-0.23429 -3.498774,-3.640597 -7.000464,-3.614915 z"
       style="opacity:0.66284407;fill:url(#radialGradient3354);fill-opacity:1;fill-rule:nonzero;stroke:none"
       inkscape:r_cx="true"
       inkscape:r_cy="true" />
    <path
       transform="matrix(-0.7791695,0,0,0.77605408,102.45221,-21.402557)"
       inkscape:r_cy="true"
       inkscape:r_cx="true"
       d="m 19.835548,63.885883 c 0,1.595789 -1.293642,2.889431 -2.889431,2.889431 -1.595788,0 -2.88943,-1.293642 -2.88943,-2.889431 0,-1.595788 1.293642,-2.88943 2.88943,-2.88943 1.595789,0 2.889431,1.293642 2.889431,2.88943 z"
       sodipodi:ry="2.8894303"
       sodipodi:rx="2.8894303"
       sodipodi:cy="63.885883"
       sodipodi:cx="16.946117"
       id="path6601"
       style="fill:#babdb6;fill-opacity:1;fill-rule:nonzero;stroke:none"
       sodipodi:type="arc" />
    <path
       style="fill:url(#linearGradient4096-1);stroke:none;color:#000000;fill-opacity:1;fill-rule:nonzero;marker:none;visibility:visible;display:inline;overflow:visible;enable-background:accumulate"
       d="m 83.21875,-12.03125 c -0.506946,-0.03108 -1.395699,0.220797 -1.137709,0.877827 1.38182,4.396918 2.099025,9.00947 1.918959,13.622173 -2.316287,0.416025 -3.575398,3.376252 -2.237239,5.331838 0.935267,1.599215 3.050404,2.338472 4.768489,1.668162 0.846313,0.964716 2.869577,1.362412 2.67218,2.881206 -0.296353,4.977117 -0.597685,9.954084 -0.89093,14.931294 -1.355557,1.532543 1.580768,3.214884 2.258064,1.334055 0.119551,-0.672163 -0.0213,-1.375837 0.09074,-2.06921 C 90.964074,21.501313 91.283809,16.457104 91.5756,11.411952 91.537315,9.869312 89.749901,9.322167 88.803321,8.369566 87.783576,7.65878 89.420766,5.965518 88.462899,4.824143 88.208874,3.363423 86.010924,3.152086 86.251685,1.562097 86.183689,-2.705531 85.57047,-6.969789 84.375,-11.0625 c -0.0191,-0.67819 -0.553781,-0.87923 -1.15625,-0.96875 z"
       id="path6603"
       inkscape:connector-curvature="0" />
    <path
       inkscape:connector-curvature="0"
       inkscape:r_cy="true"
       inkscape:r_cx="true"
       sodipodi:nodetypes="csccsssssscss"
       id="path6611"
       d="m 90.426863,9.9889285 c 0.501825,0.00513 0.970519,0.4864245 1.121787,1.0268925 0.138294,0.494112 -0.03935,0.532061 -0.073,1.091327 l -0.925264,15.424074 c -7.79e-4,0.01332 7.8e-4,0.03529 0,0.0485 0.0015,0.0041 -0.0015,0.02005 0,0.02425 0.03047,0.09454 0.04005,0.187885 0.0487,0.291021 0.06171,0.733406 -0.481098,1.369401 -1.217453,1.430849 -0.736353,0.06145 -1.374899,-0.47918 -1.436593,-1.212584 -0.03085,-0.366704 0.09531,-0.709436 0.316537,-0.970068 0.007,-0.0082 -0.007,-0.01628 0,-0.02425 0,0 0.840817,-11.410533 1.001264,-15.961774 0.02392,-0.678588 0.569331,-1.1742908 1.164072,-1.1682417 z"
       style="fill:url(#radialGradient3342);fill-opacity:1;fill-rule:nonzero;stroke:none" />
    <path
       inkscape:connector-curvature="0"
       inkscape:r_cy="true"
       inkscape:r_cx="true"
       id="path6613"
       d="m 77.692499,13.314117 c 3.304933,0.27679 6.525552,4.132977 6.628099,4.528216 4.29e-4,0.0028 0,0.02327 0,0.02558 l 0,14.403312 c -1.650414,-3.475879 -4.29539,-6.536556 -7.672248,-8.928518 -0.250597,-5.920404 -0.544781,-8.723854 -0.544781,-8.723853 0,-0.528541 0.0039,-0.896751 0.181594,-1.100075 0.0098,-0.01026 0.03452,-0.04175 0.04543,-0.05116 0.0055,-0.0045 0.03942,-0.0213 0.04542,-0.02558 0.0062,-0.004 0.03888,-0.02172 0.04543,-0.02558 0.01356,-0.0073 0.03062,-0.01912 0.04542,-0.02558 0.0077,-0.0031 0.0374,-0.02277 0.04543,-0.02559 0.04161,-0.01302 0.131578,-0.0177 0.181593,-0.02558 0.02073,-0.0027 0.06864,-0.02365 0.0908,-0.02558 0.04582,-0.0031 0.129521,-1.73e-4 0.181594,0 l 0.317784,0 c 0.136783,-0.0012 0.272016,-0.01144 0.40858,0 z"
       style="opacity:0.66284407;fill:url(#radialGradient3339);fill-opacity:1;fill-rule:nonzero;stroke:none" />
    <path
       inkscape:connector-curvature="0"
       sodipodi:nodetypes="cccscsccc"
       id="path5594"
       d="m 18.186719,11.778447 0.352525,0.0108 c 0.833118,-0.0027 0.843895,0.394334 0.843895,1.262014 0,0 -0.455164,4.193192 -0.714384,13.175887 -0.259218,8.98269 -0.126553,22.539629 -0.126553,22.539629 0,0.445478 -0.437737,0.790388 -0.940615,0.797777 -2.482957,0.03601 -6.467832,-2.502763 -6.439117,-5.156259 l 0.02379,-28.189827 c 0,-0.287768 3.498779,-4.47159 7.000465,-4.440045 z"
       style="fill:#232323;fill-opacity:1;fill-rule:nonzero;stroke:none"
       inkscape:r_cx="true"
       inkscape:r_cy="true" />
    <path
       inkscape:connector-curvature="0"
       style="fill:#000000;fill-opacity:1;fill-rule:nonzero;stroke:none"
       d="m 12.055429,15.406342 c -8.1582843,-0.05016 -9.4500006,7.386095 -9.4500006,14.347487 0,6.939442 1.3952252,13.811558 9.3955306,14.052602 -0.0034,-0.04339 0,-0.08984 0,-0.134089 l 0,-27.676008 c 0,-0.206519 0.04119,-0.407117 0.108938,-0.589992 -0.02085,0.0062 -0.03367,-0.0064 -0.05447,0 z"
       id="path8165"
       inkscape:r_cx="true"
       inkscape:r_cy="true"
       sodipodi:nodetypes="cscccsc" />
    <path
       inkscape:connector-curvature="0"
       inkscape:r_cy="true"
       inkscape:r_cx="true"
       sodipodi:nodetypes="cccsccccscc"
       id="path3731"
       d="m 20.237163,10.548495 0.390575,0 c 1.527451,0 3.278122,1.022726 3.372262,4.878927 0,0 -0.188279,7.206438 -0.188279,14.412874 C 23.811721,37.046734 24,44.25317 24,44.25317 c -0.04707,3.723913 -2.247686,5.483298 -4.403052,5.552677 l -0.502608,0.01234 c -0.926002,-0.03764 -1.084584,-0.65052 -1.084584,-0.934975 0,0 -0.658974,-9.345073 -0.564835,-18.690144 0.09413,-9.345071 0.94139,-18.690142 0.94139,-18.690142 0,-0.681321 1.045306,-0.992038 1.850852,-0.954423 z"
       style="fill:#000000;fill-opacity:1;fill-rule:nonzero;stroke:none" />
    <path
       inkscape:connector-curvature="0"
       style="opacity:0.79587157;fill:url(#radialGradient3330);fill-opacity:1;fill-rule:nonzero;stroke:none"
       d="m 11.858066,15.16762 c -7.9043868,0.124164 -9.1552414,7.567854 -9.1552414,14.526762 0,2.451244 0.1926349,4.88111 0.7548204,7.03299 -0.054153,-0.615652 -0.073047,-1.232965 -0.073047,-1.86738 0,-7.271102 3.6681428,-13.4248 8.7169592,-15.545333 l 0,-3.540746 c -10e-7,-0.208893 0.02965,-0.421314 0.0974,-0.606293 -0.0023,-1.06e-4 -0.02221,3.27e-4 -0.02435,0 -0.0023,-9.5e-5 -0.02196,-2.83e-4 -0.02435,0 -0.09561,-5.94e-4 -0.198461,-0.0015 -0.292189,0 z"
       id="path55989"
       inkscape:r_cx="true"
       inkscape:r_cy="true" />
    <path
       inkscape:connector-curvature="0"
       inkscape:r_cy="true"
       inkscape:r_cx="true"
       style="fill:#b5b5b5;fill-opacity:1;fill-rule:nonzero;stroke:none"
       d="m 18.186719,14.390666 0.352525,0.0091 c 0.833118,-0.0023 0.843895,0.329589 0.843895,1.054807 0,0 -0.455164,3.504726 -0.714384,11.012579 -0.259218,7.507852 -0.126553,18.838918 -0.126553,18.838918 0,0.372339 -0.437737,0.660615 -0.940615,0.666797 -2.482957,0.03008 -6.467832,-2.091847 -6.439117,-4.309673 l 0.02379,-23.561427 c 0,-0.240521 3.498779,-3.737412 7.000465,-3.711048 z"
       id="rect3735"
       sodipodi:nodetypes="cccscsccc" />
    <path
       inkscape:connector-curvature="0"
       sodipodi:nodetypes="cccscsccc"
       id="path37315"
       d="m 18.047687,14.336459 0.352526,0.0091 c 0.833118,-0.0023 0.843894,0.331293 0.843894,1.06026 0,0 -0.455163,3.522844 -0.714382,11.069507 -0.259219,7.546662 -0.126555,18.936297 -0.126555,18.936297 0,0.374271 -0.437736,0.664038 -0.940615,0.67025 -2.482955,0.03024 -6.467831,-2.102659 -6.439116,-4.331951 l 0.02378,-23.683225 c 0,-0.241765 3.498777,-3.756734 7.000465,-3.730232 z"
       style="opacity:0.66284407;fill:url(#linearGradient3326);fill-opacity:1;fill-rule:nonzero;stroke:none"
       inkscape:r_cx="true"
       inkscape:r_cy="true" />
    <path
       inkscape:connector-curvature="0"
       inkscape:r_cy="true"
       inkscape:r_cx="true"
       style="opacity:0.66284407;fill:url(#radialGradient3323);fill-opacity:1;fill-rule:nonzero;stroke:none"
       d="m 18.047687,16.297433 0.352526,0.0088 c 0.833118,-0.0022 0.843894,0.32105 0.843894,1.027482 0,0 -0.455163,3.413939 -0.714382,10.727305 -0.259219,7.313367 -0.126555,18.350908 -0.126555,18.350908 0,0.362692 -0.437736,0.64351 -0.940615,0.649527 -2.482955,0.0293 -6.467831,-2.037661 -6.439116,-4.198035 l 0.02378,-22.951086 c 0,-0.23429 3.498777,-3.640597 7.000465,-3.614915 z"
       id="path39944"
       sodipodi:nodetypes="cccscsccc" />
    <path
       sodipodi:type="arc"
       style="fill:#babdb6;fill-opacity:1;fill-rule:nonzero;stroke:none"
       id="path8174"
       sodipodi:cx="16.946117"
       sodipodi:cy="63.885883"
       sodipodi:rx="2.8894303"
       sodipodi:ry="2.8894303"
       d="m 19.835548,63.885883 c 0,1.595789 -1.293642,2.889431 -2.889431,2.889431 -1.595788,0 -2.88943,-1.293642 -2.88943,-2.889431 0,-1.595788 1.293642,-2.88943 2.88943,-2.88943 1.595789,0 2.889431,1.293642 2.889431,2.88943 z"
       inkscape:r_cx="true"
       inkscape:r_cy="true"
       transform="matrix(0.7791695,0,0,0.77605408,-6.4522129,-21.402557)" />
    <path
       style="fill:url(#linearGradient4096);fill-opacity:1;stroke:none"
       d="m 12.75,-12.03125 c -0.666042,0.03343 -1.158941,0.394286 -1.226275,1.06412 C 10.455262,-6.997668 9.8157777,-2.914866 9.716133,1.198688 10.161411,2.846228 8.286994,3.173934 7.71875,4.40625 6.5995325,5.538955 7.8179709,7.367361 7.3465456,8.261119 6.3815119,9.206374 4.7423298,9.740571 4.4320346,11.166916 4.6981093,16.694915 5.1014591,22.221913 5.40625,27.75 4.7287269,29.751689 8.297849,30.079135 7.9952865,27.977156 7.6330825,27.365374 7.6435678,26.670709 7.6109086,25.969075 7.3312748,21.236428 7.0382636,16.504476 6.767049,11.771392 7.6954632,10.769024 9.0561795,9.080553 10.59375,9.71875 13.013566,9.897963 15.325729,7.473109 14.641074,5.035856 14.329058,3.763759 13.246005,2.737825 11.96875,2.46875 11.771606,-2.222703 12.558575,-6.904849 13.9375,-11.375 c -0.01904,-0.528838 -0.728368,-0.646997 -1.1875,-0.65625 z"
       id="path43468"
       inkscape:connector-curvature="0" />
    <path
       inkscape:connector-curvature="0"
       style="fill:url(#radialGradient3311);fill-opacity:1;fill-rule:nonzero;stroke:none"
       d="m 5.5731368,9.9889285 c -0.5018233,0.00513 -0.970521,0.4864245 -1.1217866,1.0268925 -0.1382909,0.494112 0.039333,0.532061 0.073047,1.091327 l 0.9252638,15.424074 c 7.791e-4,0.01332 -0.00101,0.03529 0,0.0485 -0.00141,0.0041 0.00132,0.02005 0,0.02425 -0.030473,0.09454 -0.040025,0.187885 -0.048698,0.291021 -0.061694,0.733406 0.4811013,1.369401 1.2174524,1.430849 0.736351,0.06145 1.374899,-0.47918 1.4365938,-1.212584 0.030848,-0.366704 -0.095319,-0.709436 -0.3165377,-0.970068 -0.00694,-0.0082 0.00709,-0.01628 0,-0.02425 0,0 -0.8408135,-11.410533 -1.0012647,-15.961774 C 6.7132862,10.478582 6.1678762,9.9828794 5.5731368,9.9889285 z"
       id="path45344"
       sodipodi:nodetypes="csccsssssscss"
       inkscape:r_cx="true"
       inkscape:r_cy="true" />
    <path
       inkscape:connector-curvature="0"
       style="opacity:0.66284407;fill:url(#radialGradient3308);fill-opacity:1;fill-rule:nonzero;stroke:none"
       d="m 18.3075,13.314117 c -3.304931,0.27679 -6.525552,4.132977 -6.628101,4.528216 -4.26e-4,0.0028 0,0.02327 0,0.02558 l 0,14.403312 c 1.65042,-3.475879 4.295392,-6.536556 7.672255,-8.928518 0.250597,-5.920404 0.544774,-8.723854 0.544774,-8.723853 0,-0.528541 -0.0041,-0.896751 -0.181591,-1.100075 -0.0098,-0.01026 -0.03456,-0.04175 -0.04539,-0.05116 -0.0057,-0.0045 -0.03945,-0.0213 -0.04539,-0.02558 -0.0062,-0.004 -0.03889,-0.02172 -0.0454,-0.02558 -0.01359,-0.0073 -0.03063,-0.01912 -0.04539,-0.02558 -0.0077,-0.0031 -0.0374,-0.02277 -0.04539,-0.02559 -0.0416,-0.01302 -0.131576,-0.0177 -0.181592,-0.02558 -0.02072,-0.0027 -0.06862,-0.02365 -0.0908,-0.02558 -0.04585,-0.0031 -0.12952,-1.73e-4 -0.181591,0 l -0.317785,0 c -0.136786,-0.0012 -0.272014,-0.01144 -0.408582,0 z"
       id="path48010"
       inkscape:r_cx="true"
       inkscape:r_cy="true" />
    <g
       id="g4098">
      <path
         style="fill:url(#radialGradient3336);fill-opacity:1;fill-rule:nonzero;stroke:none"
         d="m 84.677605,3.5976412 c 0.27768,0.020684 0.493971,0.1369953 0.706123,0.4365305 0.0077,0.011858 0.01808,0.03552 0.02439,0.048502 0.0077,0.017727 0.01885,0.053847 0.02439,0.072753 0.0015,0.00469 -7.79e-4,0.019451 0,0.024251 0.0015,0.0096 0.02299,0.038836 0.02439,0.048502 5.38e-4,0.0048 -4.13e-4,0.019451 0,0.024251 0,0 -6.2e-5,1.3027309 0,1.3823455 0.02906,0.022658 0.416973,0.2903444 0.925264,0.6790473 0,0.00775 1.6e-5,0.016473 0,0.024251 -0.0023,0.9167247 -0.127839,1.7905058 -0.365236,2.5464273 -6.07e-4,0.00196 -0.02376,-0.00196 -0.02439,0 -0.824229,-0.622992 -1.617922,-1.2496113 -2.118367,-1.6248633 -0.02494,-0.01872 -0.07979,-0.052396 -0.121746,-0.097004 -0.01488,-0.016811 -0.03568,-0.05112 -0.0487,-0.072753 -0.0099,-0.018142 -0.01691,-0.051022 -0.02439,-0.072753 -0.0047,-0.017018 -0.02135,-0.053487 -0.02439,-0.072753 -0.0015,-0.013375 3.97e-4,-0.034047 0,-0.048502 -0.0032,-0.1132767 -0.119993,-2.5057942 -0.05477,-2.6070567 0.06038,-0.093753 0.15172,-0.2114902 0.24349,-0.2910207 0.166135,-0.1439837 0.370573,-0.4007673 0.712208,-0.4001531 0.0427,7.74e-5 0.08208,-0.00295 0.121745,0 z"
         id="path6615"
         inkscape:r_cx="true"
         inkscape:r_cy="true"
         sodipodi:nodetypes="cssssscssssssssssssssc"
         inkscape:connector-curvature="0" />
      <path
         sodipodi:type="arc"
         style="opacity:0.67431192;fill:#2e3436;fill-opacity:1;fill-rule:nonzero;stroke:none"
         id="path6587"
         sodipodi:cx="23.744551"
         sodipodi:cy="34.788834"
         sodipodi:rx="3.0923135"
         sodipodi:ry="3.0923135"
         d="m 26.836864,34.788834 c 0,1.707837 -1.384476,3.092313 -3.092313,3.092313 -1.707838,0 -3.092314,-1.384476 -3.092314,-3.092313 0,-1.707838 1.384476,-3.092314 3.092314,-3.092314 1.707837,0 3.092313,1.384476 3.092313,3.092314 z"
         inkscape:r_cx="true"
         inkscape:r_cy="true"
         transform="matrix(-0.72297949,-0.41741247,-0.41574341,0.72008873,116.67512,-8.8615902)" />
      <path
         transform="matrix(-0.72297949,-0.41741247,-0.41574341,0.72008873,116.67512,-8.8615902)"
         inkscape:r_cy="true"
         inkscape:r_cx="true"
         d="m 26.836864,34.788834 c 0,1.707837 -1.384476,3.092313 -3.092313,3.092313 -1.707838,0 -3.092314,-1.384476 -3.092314,-3.092313 0,-1.707838 1.384476,-3.092314 3.092314,-3.092314 1.707837,0 3.092313,1.384476 3.092313,3.092314 z"
         sodipodi:ry="3.0923135"
         sodipodi:rx="3.0923135"
         sodipodi:cy="34.788834"
         sodipodi:cx="23.744551"
         id="path6589"
         style="opacity:0.39678901;fill:url(#radialGradient3255);fill-opacity:1;fill-rule:nonzero;stroke:none"
         sodipodi:type="arc" />
      <path
         inkscape:connector-curvature="0"
         style="opacity:0.39678901;fill:url(#radialGradient3291);fill-opacity:1;fill-rule:nonzero;stroke:none"
         d="m 86.653913,4.2655361 c 1.019388,0.7743895 1.329954,2.2253706 0.675741,3.3585044 -0.503412,0.8719353 -1.451614,1.3349956 -2.396082,1.2769473 -0.01249,-7.593e-4 -0.02968,-0.023411 -0.04218,-0.024349 -0.803569,-1.2234077 -0.889106,-2.8428491 -0.115321,-4.1830866 0.197307,-0.3417447 0.443568,-0.6444262 0.717523,-0.9018993 0.0071,-0.00676 0.02602,-0.00218 0.03322,-0.00884 0.290147,0.050913 0.583011,0.1685814 0.85297,0.3244418 0.09642,0.055669 0.187742,0.09264 0.27413,0.1582691 z"
         id="path6591"
         inkscape:r_cx="true"
         inkscape:r_cy="true" />
      <path
         sodipodi:type="arc"
         style="opacity:0.95412843;fill:url(#linearGradient3259);fill-opacity:1;fill-rule:nonzero;stroke:none"
         id="path6593"
         sodipodi:cx="23.744551"
         sodipodi:cy="34.788834"
         sodipodi:rx="3.0923135"
         sodipodi:ry="3.0923135"
         d="m 26.836864,34.788834 c 0,1.707837 -1.384476,3.092313 -3.092313,3.092313 -1.707838,0 -3.092314,-1.384476 -3.092314,-3.092313 0,-1.707838 1.384476,-3.092314 3.092314,-3.092314 1.707837,0 3.092313,1.384476 3.092313,3.092314 z"
         inkscape:r_cx="true"
         inkscape:r_cy="true"
         transform="matrix(-0.72297949,-0.41741247,-0.41574341,0.72008873,116.67512,-8.8615902)" />
    </g>
    <g
       id="g3287">
      <path
         sodipodi:nodetypes="cssssscssssssssssssssc"
         inkscape:r_cy="true"
         inkscape:r_cx="true"
         id="path48913"
         d="m 11.322396,3.5976412 c -0.277678,0.020684 -0.493971,0.1369953 -0.706123,0.4365305 -0.0076,0.011858 -0.01809,0.03552 -0.02435,0.048502 -0.0077,0.017727 -0.01889,0.053847 -0.02435,0.072753 -0.0012,0.00469 0.0011,0.019451 0,0.024251 -0.0019,0.0096 -0.023,0.038836 -0.02435,0.048502 -5.42e-4,0.0048 4.11e-4,0.019451 0,0.024251 0,0 6.2e-5,1.3027309 0,1.3823455 -0.02906,0.022658 -0.416975,0.2903444 -0.9252633,0.6790473 0,0.00775 -1.96e-5,0.016473 0,0.024251 0.00229,0.9167247 0.1278371,1.7905058 0.3652353,2.5464273 6.043e-4,0.00196 0.023738,-0.00196 0.024349,0 0.824231,-0.622992 1.617922,-1.2496113 2.118367,-1.6248633 0.02497,-0.01872 0.07979,-0.052396 0.121745,-0.097004 0.01485,-0.016811 0.03565,-0.05112 0.0487,-0.072753 0.0099,-0.018142 0.01687,-0.051022 0.02435,-0.072753 0.005,-0.017018 0.02134,-0.053487 0.02435,-0.072753 0.0015,-0.013375 -3.98e-4,-0.034047 0,-0.048502 0.0032,-0.1132767 0.119994,-2.5057942 0.05479,-2.6070567 -0.06037,-0.093753 -0.151724,-0.2114902 -0.24349,-0.2910207 -0.166136,-0.1439837 -0.370575,-0.4007673 -0.71221,-0.4001531 -0.04271,7.74e-5 -0.08208,-0.00295 -0.121745,0 z"
         style="fill:url(#radialGradient3305);fill-opacity:1;fill-rule:nonzero;stroke:none"
         inkscape:connector-curvature="0" />
      <path
         transform="matrix(0.72297949,-0.41741247,0.41574341,0.72008873,-20.712084,-8.8615902)"
         inkscape:r_cy="true"
         inkscape:r_cx="true"
         d="m 26.836864,34.788834 c 0,1.707837 -1.384476,3.092313 -3.092313,3.092313 -1.707838,0 -3.092314,-1.384476 -3.092314,-3.092313 0,-1.707838 1.384476,-3.092314 3.092314,-3.092314 1.707837,0 3.092313,1.384476 3.092313,3.092314 z"
         sodipodi:ry="3.0923135"
         sodipodi:rx="3.0923135"
         sodipodi:cy="34.788834"
         sodipodi:cx="23.744551"
         id="path6669"
         style="opacity:0.67431192;fill:#2e3436;fill-opacity:1;fill-rule:nonzero;stroke:none"
         sodipodi:type="arc" />
      <path
         sodipodi:type="arc"
         style="opacity:0.39678901;fill:url(#radialGradient3267);fill-opacity:1;fill-rule:nonzero;stroke:none"
         id="path6671"
         sodipodi:cx="23.744551"
         sodipodi:cy="34.788834"
         sodipodi:rx="3.0923135"
         sodipodi:ry="3.0923135"
         d="m 26.836864,34.788834 c 0,1.707837 -1.384476,3.092313 -3.092313,3.092313 -1.707838,0 -3.092314,-1.384476 -3.092314,-3.092313 0,-1.707838 1.384476,-3.092314 3.092314,-3.092314 1.707837,0 3.092313,1.384476 3.092313,3.092314 z"
         inkscape:r_cx="true"
         inkscape:r_cy="true"
         transform="matrix(0.72297949,-0.41741247,0.41574341,0.72008873,-20.712084,-8.8615902)" />
      <path
         inkscape:connector-curvature="0"
         inkscape:r_cy="true"
         inkscape:r_cx="true"
         id="path6673"
         d="M 9.3091209,4.2655361 C 8.289733,5.0399256 7.979166,6.4909067 8.6333797,7.6240405 c 0.5034124,0.8719353 1.4516143,1.3349956 2.3960823,1.2769473 0.01249,-7.593e-4 0.02968,-0.023411 0.04217,-0.024349 0.803569,-1.2234077 0.889106,-2.8428491 0.115321,-4.1830866 -0.197306,-0.3417447 -0.443568,-0.6444262 -0.717522,-0.9018993 -0.0071,-0.00676 -0.02602,-0.00218 -0.03322,-0.00884 -0.290147,0.050913 -0.5830118,0.1685814 -0.8529703,0.3244418 -0.096415,0.055669 -0.1877422,0.09264 -0.2741302,0.1582691 z"
         style="opacity:0.39678901;fill:url(#radialGradient3276);fill-opacity:1;fill-rule:nonzero;stroke:none" />
      <path
         transform="matrix(0.72297949,-0.41741247,0.41574341,0.72008873,-20.712084,-8.8615902)"
         inkscape:r_cy="true"
         inkscape:r_cx="true"
         d="m 26.836864,34.788834 c 0,1.707837 -1.384476,3.092313 -3.092313,3.092313 -1.707838,0 -3.092314,-1.384476 -3.092314,-3.092313 0,-1.707838 1.384476,-3.092314 3.092314,-3.092314 1.707837,0 3.092313,1.384476 3.092313,3.092314 z"
         sodipodi:ry="3.0923135"
         sodipodi:rx="3.0923135"
         sodipodi:cy="34.788834"
         sodipodi:cx="23.744551"
         id="path6675"
         style="opacity:0.95412843;fill:url(#linearGradient3271);fill-opacity:1;fill-rule:nonzero;stroke:none"
         sodipodi:type="arc" />
    </g>
    <path
       inkscape:connector-curvature="0"
       inkscape:r_cy="true"
       inkscape:r_cx="true"
       sodipodi:nodetypes="cscscssc"
       id="path61265"
       d="m 47.488224,-28.309759 c -19.629757,0.377702 -32.82489,9.681269 -37.29801,17.885888 -0.8849211,1.6231274 -0.221836,3.0560266 1.958828,4.9885656 9.650648,-8.6655536 18.652584,-15.7951566 35.575421,-15.7951566 16.922835,0 26.611674,7.426374 35.855402,15.9946817 2.501422,-2.2721706 2.490272,-3.2122332 1.712755,-4.9567507 -3.212298,-7.207413 -16.457372,-18.117229 -36.631428,-18.117228 -0.394024,0 -0.781937,-0.0075 -1.172968,0 z"
       style="fill:#232323;fill-opacity:1;fill-rule:nonzero;stroke:none" />
    <path
       style="fill:url(#radialGradient3858);fill-opacity:1;fill-rule:nonzero;stroke:none"
       d="m 47.488224,-28.309759 c -19.629757,0.377702 -32.82489,9.681269 -37.29801,17.885888 -0.8849211,1.6231274 -0.221836,3.0560266 1.958828,4.9885656 9.650648,-8.6655536 18.652584,-15.7951566 35.575421,-15.7951566 16.922835,0 26.611674,7.426374 35.855402,15.9946817 2.501422,-2.2721706 2.490272,-3.2122332 1.712755,-4.9567507 -3.212298,-7.207413 -16.457372,-18.117229 -36.631428,-18.117228 -0.394024,0 -0.781937,-0.0075 -1.172968,0 z"
       id="path3082"
       sodipodi:nodetypes="cscscssc"
       inkscape:r_cx="true"
       inkscape:r_cy="true"
       inkscape:connector-curvature="0" />
  </g>
</svg>
