<?xml version="1.0" encoding="UTF-8" standalone="no"?>
<!-- Created with Inkscape (http://www.inkscape.org/) -->

<svg
   xmlns:dc="http://purl.org/dc/elements/1.1/"
   xmlns:cc="http://creativecommons.org/ns#"
   xmlns:rdf="http://www.w3.org/1999/02/22-rdf-syntax-ns#"
   xmlns:svg="http://www.w3.org/2000/svg"
   xmlns="http://www.w3.org/2000/svg"
   xmlns:xlink="http://www.w3.org/1999/xlink"
   xmlns:sodipodi="http://sodipodi.sourceforge.net/DTD/sodipodi-0.dtd"
   xmlns:inkscape="http://www.inkscape.org/namespaces/inkscape"
   version="1.0"
   width="96"
   height="96"
   id="svg4167"
   sodipodi:version="0.32"
   inkscape:version="0.48.4 r9939"
   sodipodi:docname="audacious.svg"
   inkscape:output_extension="org.inkscape.output.svg.inkscape">
  <metadata
     id="metadata99">
    <rdf:RDF>
      <cc:Work
         rdf:about="">
        <dc:format>image/svg+xml</dc:format>
        <dc:type
           rdf:resource="http://purl.org/dc/dcmitype/StillImage" />
      </cc:Work>
    </rdf:RDF>
  </metadata>
  <sodipodi:namedview
     inkscape:window-height="716"
     inkscape:window-width="1028"
     inkscape:pageshadow="2"
     inkscape:pageopacity="0.0"
     guidetolerance="10.0"
     gridtolerance="10.0"
     objecttolerance="10.0"
     borderopacity="1.0"
     bordercolor="#666666"
     pagecolor="#ffffff"
     id="base"
     showgrid="false"
     inkscape:zoom="4"
     inkscape:cx="48"
     inkscape:cy="48"
     inkscape:window-x="14"
     inkscape:window-y="30"
     inkscape:current-layer="svg4167"
     inkscape:window-maximized="0"
     fit-margin-top="0"
     fit-margin-left="0"
     fit-margin-right="0"
     fit-margin-bottom="0" />
  <defs
     id="defs4169">
    <linearGradient
       id="linearGradient4025">
      <stop
         offset="0"
         style="stop-color:#21d7ff;stop-opacity:1;"
         id="stop4027" />
      <stop
         offset="0.26238"
         style="stop-color:#21a6ff;stop-opacity:1;"
         id="stop4029" />
      <stop
         offset="0.704952"
         style="stop-color:#003c80;stop-opacity:1;"
         id="stop4031" />
      <stop
         offset="1"
         style="stop-color:#002040;stop-opacity:1;"
         id="stop4033" />
    </linearGradient>
    <linearGradient
       id="linearGradient3930">
      <stop
         style="stop-color:#ffffff;stop-opacity:1;"
         offset="0"
         id="stop3932" />
      <stop
         style="stop-color:#e0e0e0;stop-opacity:1;"
         offset="1"
         id="stop3934" />
    </linearGradient>
    <linearGradient
       id="linearGradient23419">
      <stop
         id="stop23421"
         style="stop-color:#000000;stop-opacity:1"
         offset="0" />
      <stop
         id="stop23423"
         style="stop-color:#000000;stop-opacity:0"
         offset="1" />
    </linearGradient>
    <linearGradient
       id="linearGradient8838">
      <stop
         id="stop8840"
         style="stop-color:#000000;stop-opacity:1"
         offset="0" />
      <stop
         id="stop8842"
         style="stop-color:#000000;stop-opacity:0"
         offset="1" />
    </linearGradient>
    <linearGradient
       id="linearGradient2372-991">
      <stop
         id="stop3792"
         style="stop-color:#ffffff;stop-opacity:1"
         offset="0" />
      <stop
         id="stop3794"
         style="stop-color:#ffffff;stop-opacity:0.34482759"
         offset="1" />
    </linearGradient>
    <linearGradient
       id="linearGradient3242-978">
      <stop
         id="stop3812"
         style="stop-color:#f6ffc1;stop-opacity:1;"
         offset="0" />
      <stop
         id="stop3814"
         style="stop-color:#91c000;stop-opacity:1;"
         offset="0.66093999" />
      <stop
         id="stop3816"
         style="stop-color:#6ea000;stop-opacity:1;"
         offset="1" />
    </linearGradient>
    <linearGradient
       id="linearGradient3599-836">
      <stop
         id="stop3798"
         style="stop-color:#e4fc58;stop-opacity:1"
         offset="0" />
      <stop
         id="stop3800"
         style="stop-color:#a3cb27;stop-opacity:1"
         offset="0.3245278" />
      <stop
         id="stop3802"
         style="stop-color:#74a111;stop-opacity:1"
         offset="1" />
    </linearGradient>
    <linearGradient
       id="linearGradient4011">
      <stop
         id="stop4013"
         style="stop-color:#ffffff;stop-opacity:1;"
         offset="0" />
      <stop
         offset="0.507761"
         style="stop-color:#ffffff;stop-opacity:0.23529412;"
         id="stop4015" />
      <stop
         id="stop4017"
         style="stop-color:#ffffff;stop-opacity:0.15686275;"
         offset="0.83456558" />
      <stop
         id="stop4019"
         style="stop-color:#ffffff;stop-opacity:0.39215687;"
         offset="1" />
    </linearGradient>
    <radialGradient
       inkscape:collect="always"
       xlink:href="#linearGradient23419"
       id="radialGradient3129"
       gradientUnits="userSpaceOnUse"
       gradientTransform="matrix(1.9445436,0,0,0.5744708,0.6249984,55.081048)"
       cx="23.334524"
       cy="41.63604"
       fx="23.334524"
       fy="41.63604"
       r="22.627417" />
    <linearGradient
       inkscape:collect="always"
       xlink:href="#linearGradient4011"
       id="linearGradient3140"
       gradientUnits="userSpaceOnUse"
       gradientTransform="matrix(2.025502,0,0,2.025502,-96.79276,-3.86476)"
       x1="71.204407"
       y1="6.2375584"
       x2="71.204407"
       y2="44.340794" />
    <radialGradient
       inkscape:collect="always"
       xlink:href="#linearGradient4025"
       id="radialGradient3143"
       gradientUnits="userSpaceOnUse"
       gradientTransform="matrix(1.6667246,3.8173249,-3.154318,1.3772418,56.580535,-34.7203)"
       cx="9.0113544"
       cy="11.355591"
       fx="9.0113544"
       fy="11.355591"
       r="19.99999" />
    <linearGradient
       inkscape:collect="always"
       xlink:href="#linearGradient3930"
       id="linearGradient3936"
       x1="49.341366"
       y1="27.6485"
       x2="55.641319"
       y2="72.329353"
       gradientUnits="userSpaceOnUse" />
    <radialGradient
       inkscape:collect="always"
       xlink:href="#linearGradient8838"
       id="radialGradient4121"
       gradientUnits="userSpaceOnUse"
       gradientTransform="matrix(2.0030148,0,0,0.9411752,-72.15677,80.647058)"
       cx="62.625"
       cy="4.625"
       fx="62.625"
       fy="4.625"
       r="10.625" />
    <linearGradient
       inkscape:collect="always"
       xlink:href="#linearGradient2372-991"
       id="linearGradient4130"
       gradientUnits="userSpaceOnUse"
       gradientTransform="matrix(0.6784854,0,0,0.6795332,51.038065,-68.21215)"
       x1="28.479153"
       y1="115.94459"
       x2="28.479153"
       y2="199.71379" />
    <radialGradient
       inkscape:collect="always"
       xlink:href="#linearGradient3242-978"
       id="radialGradient4133"
       gradientUnits="userSpaceOnUse"
       gradientTransform="matrix(2.1983048,-0.9317736,0.4863432,1.7861612,1.2362862,20.401466)"
       cx="17.058823"
       cy="41.058823"
       fx="14.68769"
       fy="37.45607"
       r="5.7384715" />
    <radialGradient
       inkscape:collect="always"
       xlink:href="#linearGradient3599-836"
       id="radialGradient4136"
       gradientUnits="userSpaceOnUse"
       gradientTransform="matrix(2.821663,-2.8228506e-8,6.0323716e-8,6.0298336,-22.481735,-80.913408)"
       cx="35.293636"
       cy="16.980043"
       fx="35.293636"
       fy="16.980043"
       r="12.030256" />
  </defs>
  <path
     style="opacity:0.5;fill:url(#radialGradient3129);fill-opacity:1;fill-rule:evenodd;stroke:none;stroke-width:2;marker:none;visibility:visible;display:inline;overflow:visible"
     id="path23417"
     d="M 90,78.999734 C 90.0022,86.17924 70.302132,91.999736 46,91.999736 21.697868,91.999736 1.997734,86.17924 2.0000002,78.999734 1.997734,71.820232 21.697868,65.999736 46,65.999736 c 24.302132,0 44.002266,5.820496 44,12.999998 l 0,0 z"
     inkscape:connector-curvature="0" />
  <g
     id="g4086">
    <path
       d="m 48.503618,8.0027555 c -21.791219,0 -39.4936284,17.7024035 -39.4936284,39.4936245 0,21.791222 17.7024094,39.493633 39.4936284,39.493627 21.791212,0 39.493642,-17.702405 39.493621,-39.493627 0,-21.791221 -17.702409,-39.4936245 -39.493621,-39.4936245 z"
       id="path2555"
       style="color:#000000;fill:url(#radialGradient3143);fill-opacity:1;fill-rule:nonzero;stroke:none;stroke-width:1;stroke-linecap:round;stroke-linejoin:round;stroke-miterlimit:4;stroke-opacity:1;stroke-dasharray:none;stroke-dashoffset:0;marker:none;visibility:visible;display:inline;overflow:visible;enable-background:accumulate"
       inkscape:connector-curvature="0" />
    <path
       d="m 85.975405,47.495052 c 0,20.695765 -16.777925,37.473115 -37.471315,37.473115 -20.695283,0 -37.472263,-16.777541 -37.472263,-37.473115 0,-20.694807 16.77698,-37.470459 37.472263,-37.470459 20.69339,0 37.471315,16.775652 37.471315,37.470459 l 0,0 z"
       id="path8655"
       style="opacity:0.5;color:#000000;fill:none;stroke:url(#linearGradient3140);stroke-width:1;stroke-linecap:round;stroke-linejoin:round;stroke-miterlimit:4;stroke-opacity:1;stroke-dasharray:none;stroke-dashoffset:0;marker:none;visibility:visible;display:inline;overflow:visible;enable-background:accumulate"
       inkscape:connector-curvature="0" />
    <g
       id="g3940">
      <path
         style="font-size:48px;font-style:normal;font-variant:normal;font-weight:bold;font-stretch:normal;line-height:125%;letter-spacing:0px;word-spacing:0px;fill:url(#linearGradient3936);fill-opacity:1;stroke:none;stroke-width:1;font-family:Ubuntu;-inkscape-font-specification:Sans Bold"
         d="m 49.427247,63.100848 c 2.202365,-0.315531 5.73237,0.504441 7.194584,-0.813448 0,-3.52059 0,-7.041182 0,-10.561771 -4.219091,-0.713234 -8.791283,-1.06396 -12.833581,0.583344 -3.483428,1.489919 -3.880688,6.75415 -1.204674,9.15578 1.944815,1.408771 4.520396,1.591732 6.843671,1.636095 z M 48.260558,20.711142 c 6.317721,-0.0105 13.381554,1.019277 17.822384,5.983847 4.262827,4.724415 4.518227,11.423309 4.441934,17.466639 0,9.197388 0,18.394777 0,27.592164 C 62.672651,73.404123 54.67171,74.564837 46.626349,74.250855 40.561018,74.007477 33.70172,72.931308 29.659608,67.92104 26.262476,63.609632 25.842243,57.565839 27.165966,52.403173 c 1.702094,-5.857424 7.610177,-9.268889 13.317801,-10.214236 5.304012,-1.078796 10.850154,-1.022581 16.138064,0.105954 0.216347,-3.104304 -0.598773,-6.689186 -3.560849,-8.270102 -4.144548,-1.940972 -8.906414,-1.236316 -13.295002,-0.745146 -2.192136,0.0455 -5.023827,1.302933 -6.716644,1.249441 -0.600997,-3.79578 -1.201996,-7.591559 -1.802995,-11.38734 5.52365,-1.532255 11.28472,-2.317526 17.014217,-2.430602 z"
         id="path3604"
         inkscape:connector-curvature="0" />
      <path
         style="font-size:48px;font-style:normal;font-variant:normal;font-weight:bold;font-stretch:normal;line-height:125%;letter-spacing:0px;word-spacing:0px;opacity:0.25;fill:#000000;fill-opacity:1;stroke:none;font-family:Ubuntu;-inkscape-font-specification:Sans Bold"
         d="m 48.25,18.71875 c -5.729497,0.113076 -11.47635,0.905245 -17,2.4375 L 31.875,25 c 5.33513,-1.422024 10.858291,-2.172374 16.375,-2.28125 6.317721,-0.0105 13.40292,1.00418 17.84375,5.96875 3.729974,4.133863 4.381444,9.792139 4.4375,15.1875 l 0,-1.71875 C 70.607543,36.11292 70.356577,29.411915 66.09375,24.6875 61.65292,19.72293 54.567721,18.70825 48.25,18.71875 z m 0.3125,20.6875 c -2.710526,-0.02027 -5.441744,0.241852 -8.09375,0.78125 -5.707624,0.945347 -11.610406,4.361326 -13.3125,10.21875 -0.615404,2.400143 -0.824847,4.981583 -0.5625,7.5 0.109595,-1.18866 0.272374,-2.368477 0.5625,-3.5 1.702094,-5.857424 7.604876,-9.273403 13.3125,-10.21875 5.304012,-1.078796 10.86834,-1.034785 16.15625,0.09375 0.09317,-1.33691 -0.02771,-2.745778 -0.40625,-4.0625 -2.51615,-0.50991 -5.082954,-0.793255 -7.65625,-0.8125 z m -7.40625,17.8125 c -0.731635,2.117086 -0.235009,4.748981 1.4375,6.25 1.944815,1.408771 4.520475,1.580637 6.84375,1.625 2.202365,-0.315531 5.725286,0.505389 7.1875,-0.8125 l 0,-4 c -1.462214,1.317889 -4.985135,0.496969 -7.1875,0.8125 -2.323275,-0.04436 -4.898935,-0.216229 -6.84375,-1.625 -0.669004,-0.600408 -1.152857,-1.395469 -1.4375,-2.25 z"
         id="path3157"
         inkscape:connector-curvature="0" />
      <path
         inkscape:connector-curvature="0"
         id="path3938"
         d="m 49.427247,63.100848 c 2.202365,-0.315531 5.73237,0.504441 7.194584,-0.813448 0,-3.52059 0,-7.041182 0,-10.561771 -4.219091,-0.713234 -8.791283,-1.06396 -12.833581,0.583344 -3.483428,1.489919 -3.880688,6.75415 -1.204674,9.15578 1.944815,1.408771 4.520396,1.591732 6.843671,1.636095 z M 48.260558,20.711142 c 6.317721,-0.0105 13.381554,1.019277 17.822384,5.983847 4.262827,4.724415 4.518227,11.423309 4.441934,17.466639 0,9.197388 0,18.394777 0,27.592164 C 62.672651,73.404123 54.67171,74.564837 46.626349,74.250855 40.561018,74.007477 33.70172,72.931308 29.659608,67.92104 26.262476,63.609632 25.842243,57.565839 27.165966,52.403173 c 1.702094,-5.857424 7.610177,-9.268889 13.317801,-10.214236 5.304012,-1.078796 10.850154,-1.022581 16.138064,0.105954 0.216347,-3.104304 -0.598773,-6.689186 -3.560849,-8.270102 -4.144548,-1.940972 -8.906414,-1.236316 -13.295002,-0.745146 -2.192136,0.0455 -5.023827,1.302933 -6.716644,1.249441 -0.600997,-3.79578 -1.201996,-7.591559 -1.802995,-11.38734 5.52365,-1.532255 11.28472,-2.317526 17.014217,-2.430602 z"
         style="font-size:48px;font-style:normal;font-variant:normal;font-weight:bold;font-stretch:normal;line-height:125%;letter-spacing:0px;word-spacing:0px;fill:none;fill-opacity:1;stroke:#000000;stroke-width:1;font-family:Ubuntu;-inkscape-font-specification:Sans Bold;opacity:0.25" />
    </g>
  </g>
  <path
     style="opacity:0.5;fill:url(#radialGradient4121);fill-opacity:1;fill-rule:evenodd;stroke:none;stroke-width:0.99999988;marker:none;visibility:visible;display:inline;overflow:visible"
     id="path2598"
     d="m 74.564064,85 c 0,5.522848 -9.528292,10 -21.282032,10 C 41.528292,95 32,90.522848 32,85 c 0,-5.522848 9.528292,-10 21.282032,-10 11.75374,0 21.282032,4.477152 21.282032,10 l 0,0 z"
     inkscape:connector-curvature="0" />
  <g
     id="g4138">
    <path
       style="fill:url(#radialGradient4136);fill-opacity:1;stroke:#216778;stroke-width:1;stroke-linecap:round;stroke-linejoin:round;stroke-miterlimit:4;stroke-opacity:1;stroke-dasharray:none"
       id="path2588"
       d="m 71.517743,32.226398 c 0,13.511928 0,28.314378 0,41.826306 0.853782,8.260034 -6.077982,15.995688 -14.05177,16.405228 -5.882386,0.555836 -12.349142,-4.473184 -11.94823,-10.542488 0.07614,-9.451074 11.095502,-16.408554 20,-14.421032 0,-13.51046 0,-52.477624 0,-54.518197 0,-1.8834167 5.377018,-2.2831057 5.603982,0 0.2115,2.127546 1.603402,9.953319 10.5294,18.990057 8.764438,8.873174 11.38214,25.65777 -0.471466,39.44596 6.305026,-16.003612 6.809674,-27.823754 -9.661916,-37.185834 z"
       inkscape:connector-curvature="0" />
    <path
       style="fill:url(#radialGradient4133);fill-opacity:1;stroke:none"
       id="path2596"
       d="m 58.705471,89.04261 c -6.695046,1.143382 -12.00321,-3.062648 -12.00321,-9.247342 0,-6.184684 5.844764,-12.125262 12.53981,-13.268644 6.695048,-1.14338 11.406984,0.558524 11.406984,6.743214 -0.412774,11.45375 -5.6138,13.68322 -11.943584,15.772772 z"
       inkscape:connector-curvature="0" />
    <path
       style="opacity:0.5;fill:url(#linearGradient4130);fill-opacity:1;fill-rule:evenodd;stroke:none"
       id="path2594"
       d="m 68.145169,14.027096 c 0,6.975224 0,28.075092 0,53.472904 -0.49405,-0.42034 -0.636508,-0.857442 -1.627406,-1.108474 l -2e-5,-0.315244 2e-5,-55.005137 c 0,0 2.700024,-0.979859 3.30291,-0.176012 0,0 0.691274,7.392953 6.858214,15.326401 0,0 12.138368,9.670264 11.325524,23.651168 -0.57935,-1.581286 2.675398,-7.21817 -10.138076,-20.179356 -8.752656,-8.853556 -9.721166,-15.66625 -9.721166,-15.66625 z"
       inkscape:connector-curvature="0" />
  </g>
</svg>
