<?xml version="1.0" encoding="UTF-8" standalone="no"?>
<!-- Created with Inkscape (http://www.inkscape.org/) -->

<svg
   xmlns:dc="http://purl.org/dc/elements/1.1/"
   xmlns:cc="http://creativecommons.org/ns#"
   xmlns:rdf="http://www.w3.org/1999/02/22-rdf-syntax-ns#"
   xmlns:svg="http://www.w3.org/2000/svg"
   xmlns="http://www.w3.org/2000/svg"
   xmlns:xlink="http://www.w3.org/1999/xlink"
   xmlns:sodipodi="http://sodipodi.sourceforge.net/DTD/sodipodi-0.dtd"
   xmlns:inkscape="http://www.inkscape.org/namespaces/inkscape"
   inkscape:export-ydpi="90"
   inkscape:export-xdpi="90"
   inkscape:export-filename="dreamchess.png"
   sodipodi:docname="dreamchess.svg"
   inkscape:version="0.48.3.1 r9886"
   version="1.1"
   id="svg4025"
   height="96"
   width="96">
  <sodipodi:namedview
     id="base"
     pagecolor="#ffffff"
     bordercolor="#666666"
     borderopacity="1.0"
     inkscape:pageopacity="0.0"
     inkscape:pageshadow="2"
     inkscape:zoom="4"
     inkscape:cx="48"
     inkscape:cy="50.875"
     inkscape:current-layer="layer1"
     showgrid="true"
     inkscape:grid-bbox="true"
     inkscape:document-units="px"
     inkscape:window-width="1026"
     inkscape:window-height="728"
     inkscape:window-x="62"
     inkscape:window-y="20"
     inkscape:window-maximized="0"
     inkscape:snap-global="false" />
  <defs
     id="defs4027">
    <linearGradient
       id="linearGradient3995">
      <stop
         style="stop-color:#000000;stop-opacity:0;"
         offset="0"
         id="stop3997" />
      <stop
         id="stop4003"
         offset="0.25"
         style="stop-color:#000000;stop-opacity:1;" />
      <stop
         style="stop-color:#000000;stop-opacity:0;"
         offset="1"
         id="stop3999" />
    </linearGradient>
    <linearGradient
       id="linearGradient3909-304">
      <stop
         style="stop-color:#8b6627;stop-opacity:1;"
         offset="0"
         id="stop4913" />
      <stop
         id="stop4915"
         offset="0.51428574"
         style="stop-color:#cb922e;stop-opacity:1;" />
      <stop
         style="stop-color:#f8c16c;stop-opacity:1;"
         offset="0.75"
         id="stop4917" />
      <stop
         style="stop-color:#ac7a29;stop-opacity:1;"
         offset="1"
         id="stop4919" />
    </linearGradient>
    <linearGradient
       id="linearGradient3837-657">
      <stop
         id="stop4923"
         offset="0"
         style="stop-color:#c89338;stop-opacity:1;" />
      <stop
         style="stop-color:#533d17;stop-opacity:1;"
         offset="0.2"
         id="stop4005" />
      <stop
         style="stop-color:#cb922e;stop-opacity:1;"
         offset="0.60000002"
         id="stop4925" />
      <stop
         id="stop4927"
         offset="0.75"
         style="stop-color:#f8c16c;stop-opacity:1;" />
      <stop
         id="stop4929"
         offset="1"
         style="stop-color:#ac7a29;stop-opacity:1;" />
    </linearGradient>
    <linearGradient
       id="linearGradient3857-265">
      <stop
         style="stop-color:#fcdfae;stop-opacity:1;"
         offset="0"
         id="stop4933" />
      <stop
         id="stop4935"
         offset="0.4119392"
         style="stop-color:#cb922e;stop-opacity:1;" />
      <stop
         style="stop-color:#b17a25;stop-opacity:1;"
         offset="0.65313309"
         id="stop4937" />
      <stop
         style="stop-color:#72511c;stop-opacity:1;"
         offset="1"
         id="stop4939" />
    </linearGradient>
    <linearGradient
       id="linearGradient3857-444">
      <stop
         style="stop-color:#fcdfae;stop-opacity:1;"
         offset="0"
         id="stop4943" />
      <stop
         id="stop4945"
         offset="0.4119392"
         style="stop-color:#cb922e;stop-opacity:1;" />
      <stop
         style="stop-color:#b17a25;stop-opacity:1;"
         offset="0.65313309"
         id="stop4947" />
      <stop
         style="stop-color:#72511c;stop-opacity:1;"
         offset="1"
         id="stop4949" />
    </linearGradient>
    <linearGradient
       id="linearGradient3857-917">
      <stop
         style="stop-color:#fcdfae;stop-opacity:1;"
         offset="0"
         id="stop4953" />
      <stop
         id="stop4955"
         offset="0.4119392"
         style="stop-color:#cb922e;stop-opacity:1;" />
      <stop
         style="stop-color:#b17a25;stop-opacity:1;"
         offset="0.65313309"
         id="stop4957" />
      <stop
         style="stop-color:#72511c;stop-opacity:1;"
         offset="1"
         id="stop4959" />
    </linearGradient>
    <linearGradient
       id="linearGradient3857-674">
      <stop
         style="stop-color:#fcdfae;stop-opacity:1;"
         offset="0"
         id="stop4963" />
      <stop
         id="stop4965"
         offset="0.4119392"
         style="stop-color:#cb922e;stop-opacity:1;" />
      <stop
         style="stop-color:#b17a25;stop-opacity:1;"
         offset="0.65313309"
         id="stop4967" />
      <stop
         style="stop-color:#72511c;stop-opacity:1;"
         offset="1"
         id="stop4969" />
    </linearGradient>
    <linearGradient
       id="linearGradient3837-736">
      <stop
         id="stop4973"
         offset="0"
         style="stop-color:#533d17;stop-opacity:1;" />
      <stop
         style="stop-color:#cb922e;stop-opacity:1;"
         offset="0.5"
         id="stop4975" />
      <stop
         id="stop4977"
         offset="0.75"
         style="stop-color:#f8c16c;stop-opacity:1;" />
      <stop
         id="stop4979"
         offset="1"
         style="stop-color:#ac7a29;stop-opacity:1;" />
    </linearGradient>
    <linearGradient
       id="linearGradient3837-359">
      <stop
         id="stop4983"
         offset="0"
         style="stop-color:#533d17;stop-opacity:1;" />
      <stop
         style="stop-color:#cb922e;stop-opacity:1;"
         offset="0.5"
         id="stop4985" />
      <stop
         id="stop4987"
         offset="0.75"
         style="stop-color:#f8c16c;stop-opacity:1;" />
      <stop
         id="stop4989"
         offset="1"
         style="stop-color:#ac7a29;stop-opacity:1;" />
    </linearGradient>
    <filter
       inkscape:collect="always"
       id="filter5815"
       x="-0.040550105"
       width="1.0811002"
       y="-0.18012098"
       height="1.360242">
      <feGaussianBlur
         inkscape:collect="always"
         stdDeviation="1.1330397"
         id="feGaussianBlur5817" />
    </filter>
    <linearGradient
       inkscape:collect="always"
       xlink:href="#linearGradient3909-304"
       id="linearGradient4193"
       gradientUnits="userSpaceOnUse"
       gradientTransform="translate(14,-48)"
       x1="48"
       y1="51"
       x2="48"
       y2="33.5" />
    <linearGradient
       inkscape:collect="always"
       xlink:href="#linearGradient3837-657"
       id="linearGradient4195"
       gradientUnits="userSpaceOnUse"
       gradientTransform="translate(14,-48)"
       x1="26"
       y1="59"
       x2="70"
       y2="59" />
    <radialGradient
       inkscape:collect="always"
       xlink:href="#linearGradient3857-265"
       id="radialGradient4197"
       gradientUnits="userSpaceOnUse"
       gradientTransform="matrix(1,0,0,0.05263158,14,11.684211)"
       cx="48"
       cy="63"
       fx="48"
       fy="63"
       r="19" />
    <radialGradient
       inkscape:collect="always"
       xlink:href="#linearGradient3857-444"
       id="radialGradient4199"
       gradientUnits="userSpaceOnUse"
       gradientTransform="matrix(1,0,0,0.07142857,14,17.464286)"
       cx="48"
       cy="70.5"
       fx="48"
       fy="70.5"
       r="21" />
    <radialGradient
       inkscape:collect="always"
       xlink:href="#linearGradient3857-917"
       id="radialGradient4201"
       gradientUnits="userSpaceOnUse"
       gradientTransform="matrix(0.86790878,0.00880608,-0.0011028,0.10869006,21.780964,19.671515)"
       cx="56.93185"
       cy="71.023232"
       fx="56.93185"
       fy="71.023232"
       r="23" />
    <linearGradient
       inkscape:collect="always"
       xlink:href="#linearGradient3837-736"
       id="linearGradient4203"
       gradientUnits="userSpaceOnUse"
       gradientTransform="translate(14,-48)"
       x1="41.5"
       y1="32"
       x2="54.5"
       y2="32" />
    <linearGradient
       inkscape:collect="always"
       xlink:href="#linearGradient3837-359"
       id="linearGradient4205"
       gradientUnits="userSpaceOnUse"
       gradientTransform="translate(14,-48)"
       x1="42.346458"
       y1="24.937008"
       x2="53.086613"
       y2="20.590551" />
    <linearGradient
       inkscape:collect="always"
       xlink:href="#linearGradient3995"
       id="linearGradient4207"
       gradientUnits="userSpaceOnUse"
       x1="40"
       y1="-8.5"
       x2="84"
       y2="-8.5" />
    <radialGradient
       inkscape:collect="always"
       xlink:href="#linearGradient3857-674"
       id="radialGradient4209"
       gradientUnits="userSpaceOnUse"
       gradientTransform="matrix(1,0,0,0.08333333,14,-11.333333)"
       cx="48"
       cy="40"
       fx="48"
       fy="40"
       r="24" />
    <filter
       inkscape:collect="always"
       id="filter4288">
      <feGaussianBlur
         inkscape:collect="always"
         stdDeviation="0.57516037"
         id="feGaussianBlur4290" />
    </filter>
    <linearGradient
       inkscape:collect="always"
       xlink:href="#linearGradient3909-304-794-842-282-287"
       id="linearGradient4380-12-751-109-64"
       gradientUnits="userSpaceOnUse"
       gradientTransform="translate(14,-48)"
       x1="48"
       y1="51"
       x2="48"
       y2="33.5" />
    <linearGradient
       id="linearGradient3909-304-794-842-282-287">
      <stop
         style="stop-color:#5c441a;stop-opacity:1;"
         offset="0"
         id="stop9596" />
      <stop
         id="stop9598"
         offset="0.51428574"
         style="stop-color:#865f1e;stop-opacity:1;" />
      <stop
         style="stop-color:#a37f46;stop-opacity:1;"
         offset="0.75"
         id="stop9600" />
      <stop
         style="stop-color:#71501b;stop-opacity:1;"
         offset="1"
         id="stop9602" />
    </linearGradient>
    <linearGradient
       inkscape:collect="always"
       xlink:href="#linearGradient3837-657-598-653-552-239"
       id="linearGradient4382-275-516-948-802"
       gradientUnits="userSpaceOnUse"
       gradientTransform="translate(14,-48)"
       x1="26"
       y1="59"
       x2="70"
       y2="59" />
    <linearGradient
       id="linearGradient3837-657-598-653-552-239">
      <stop
         id="stop9606"
         offset="0"
         style="stop-color:#836025;stop-opacity:1;" />
      <stop
         style="stop-color:#37290f;stop-opacity:1;"
         offset="0.2"
         id="stop9608" />
      <stop
         style="stop-color:#865f1e;stop-opacity:1;"
         offset="0.60000002"
         id="stop9610" />
      <stop
         id="stop9612"
         offset="0.75"
         style="stop-color:#a37f46;stop-opacity:1;" />
      <stop
         id="stop9614"
         offset="1"
         style="stop-color:#71501b;stop-opacity:1;" />
    </linearGradient>
    <radialGradient
       inkscape:collect="always"
       xlink:href="#linearGradient3857-265-92-415-330-290"
       id="radialGradient4384-802-858-109-366"
       gradientUnits="userSpaceOnUse"
       gradientTransform="matrix(1,0,0,0.05263158,14,11.684211)"
       cx="48"
       cy="63"
       fx="48"
       fy="63"
       r="19" />
    <linearGradient
       id="linearGradient3857-265-92-415-330-290">
      <stop
         style="stop-color:#a69372;stop-opacity:1;"
         offset="0"
         id="stop9618" />
      <stop
         id="stop9620"
         offset="0.4119392"
         style="stop-color:#865f1e;stop-opacity:1;" />
      <stop
         style="stop-color:#745018;stop-opacity:1;"
         offset="0.65313309"
         id="stop9622" />
      <stop
         style="stop-color:#4c3513;stop-opacity:1;"
         offset="1"
         id="stop9624" />
    </linearGradient>
    <radialGradient
       inkscape:collect="always"
       xlink:href="#linearGradient3857-444-645-211-922-133"
       id="radialGradient4386-347-274-950-388"
       gradientUnits="userSpaceOnUse"
       gradientTransform="matrix(1,0,0,0.07142857,14,17.464286)"
       cx="48"
       cy="70.5"
       fx="48"
       fy="70.5"
       r="21" />
    <linearGradient
       id="linearGradient3857-444-645-211-922-133">
      <stop
         style="stop-color:#a69372;stop-opacity:1;"
         offset="0"
         id="stop9628" />
      <stop
         id="stop9630"
         offset="0.4119392"
         style="stop-color:#865f1e;stop-opacity:1;" />
      <stop
         style="stop-color:#745018;stop-opacity:1;"
         offset="0.65313309"
         id="stop9632" />
      <stop
         style="stop-color:#4c3513;stop-opacity:1;"
         offset="1"
         id="stop9634" />
    </linearGradient>
    <radialGradient
       inkscape:collect="always"
       xlink:href="#linearGradient3857-917-290-219-186-489"
       id="radialGradient4388-177-412-85-765"
       gradientUnits="userSpaceOnUse"
       gradientTransform="matrix(0.86790878,0.00880608,-0.0011028,0.10869006,21.780964,19.671515)"
       cx="56.93185"
       cy="71.023232"
       fx="56.93185"
       fy="71.023232"
       r="23" />
    <linearGradient
       id="linearGradient3857-917-290-219-186-489">
      <stop
         style="stop-color:#a69372;stop-opacity:1;"
         offset="0"
         id="stop9638" />
      <stop
         id="stop9640"
         offset="0.4119392"
         style="stop-color:#865f1e;stop-opacity:1;" />
      <stop
         style="stop-color:#745018;stop-opacity:1;"
         offset="0.65313309"
         id="stop9642" />
      <stop
         style="stop-color:#4c3513;stop-opacity:1;"
         offset="1"
         id="stop9644" />
    </linearGradient>
    <linearGradient
       inkscape:collect="always"
       xlink:href="#linearGradient3837-736-49-269-53-141"
       id="linearGradient4390-353-300-243-833"
       gradientUnits="userSpaceOnUse"
       gradientTransform="translate(14,-48)"
       x1="41.5"
       y1="32"
       x2="54.5"
       y2="32" />
    <linearGradient
       id="linearGradient3837-736-49-269-53-141">
      <stop
         id="stop9648"
         offset="0"
         style="stop-color:#37290f;stop-opacity:1;" />
      <stop
         style="stop-color:#865f1e;stop-opacity:1;"
         offset="0.5"
         id="stop9650" />
      <stop
         id="stop9652"
         offset="0.75"
         style="stop-color:#a37f46;stop-opacity:1;" />
      <stop
         id="stop9654"
         offset="1"
         style="stop-color:#71501b;stop-opacity:1;" />
    </linearGradient>
    <linearGradient
       inkscape:collect="always"
       xlink:href="#linearGradient3837-359-401-280-614-228"
       id="linearGradient4392-236-524-615-600"
       gradientUnits="userSpaceOnUse"
       gradientTransform="translate(14,-48)"
       x1="42.346458"
       y1="24.937008"
       x2="53.086613"
       y2="20.590551" />
    <linearGradient
       id="linearGradient3837-359-401-280-614-228">
      <stop
         id="stop9658"
         offset="0"
         style="stop-color:#37290f;stop-opacity:1;" />
      <stop
         style="stop-color:#865f1e;stop-opacity:1;"
         offset="0.5"
         id="stop9660" />
      <stop
         id="stop9662"
         offset="0.75"
         style="stop-color:#a37f46;stop-opacity:1;" />
      <stop
         id="stop9664"
         offset="1"
         style="stop-color:#71501b;stop-opacity:1;" />
    </linearGradient>
    <linearGradient
       inkscape:collect="always"
       xlink:href="#linearGradient3995-544-576-213-994"
       id="linearGradient4394-265-9-191-771"
       gradientUnits="userSpaceOnUse"
       x1="40"
       y1="-8.5"
       x2="84"
       y2="-8.5" />
    <linearGradient
       id="linearGradient3995-544-576-213-994">
      <stop
         style="stop-color:#000000;stop-opacity:0;"
         offset="0"
         id="stop9668" />
      <stop
         id="stop9670"
         offset="0.25"
         style="stop-color:#000000;stop-opacity:1;" />
      <stop
         style="stop-color:#000000;stop-opacity:0;"
         offset="1"
         id="stop9672" />
    </linearGradient>
    <radialGradient
       inkscape:collect="always"
       xlink:href="#linearGradient3857-674-527-208-371-210"
       id="radialGradient4396-733-134-146-112"
       gradientUnits="userSpaceOnUse"
       gradientTransform="matrix(1,0,0,0.08333333,14,-11.333333)"
       cx="48"
       cy="40"
       fx="48"
       fy="40"
       r="24" />
    <linearGradient
       id="linearGradient3857-674-527-208-371-210">
      <stop
         style="stop-color:#a69372;stop-opacity:1;"
         offset="0"
         id="stop9676" />
      <stop
         id="stop9678"
         offset="0.4119392"
         style="stop-color:#865f1e;stop-opacity:1;" />
      <stop
         style="stop-color:#745018;stop-opacity:1;"
         offset="0.65313309"
         id="stop9680" />
      <stop
         style="stop-color:#4c3513;stop-opacity:1;"
         offset="1"
         id="stop9682" />
    </linearGradient>
    <filter
       inkscape:collect="always"
       id="filter10149">
      <feGaussianBlur
         inkscape:collect="always"
         stdDeviation="0.46312912"
         id="feGaussianBlur10151" />
    </filter>
  </defs>
  <metadata
     id="metadata4030">
    <rdf:RDF>
      <cc:Work
         rdf:about="">
        <dc:format>image/svg+xml</dc:format>
        <dc:type
           rdf:resource="http://purl.org/dc/dcmitype/StillImage" />
        <dc:title />
      </cc:Work>
    </rdf:RDF>
  </metadata>
  <g
     transform="translate(0,48)"
     inkscape:groupmode="layer"
     inkscape:label="Layer 1"
     id="layer1">
    <path
       sodipodi:type="arc"
       style="opacity:0.25;color:#000000;fill:#000000;fill-opacity:1;fill-rule:evenodd;stroke:none;stroke-width:1px;marker:none;visibility:visible;display:inline;overflow:visible;filter:url(#filter5815);enable-background:accumulate"
       id="path5813"
       sodipodi:cx="48"
       sodipodi:cy="86.834648"
       sodipodi:rx="33.637794"
       sodipodi:ry="5.9527559"
       d="m 81.637794,86.834648 c 0,3.287616 -15.060153,5.952756 -33.637794,5.952756 -18.577641,0 -33.637794,-2.66514 -33.637794,-5.952756 0,-3.287616 15.060153,-5.952756 33.637794,-5.952756 18.577641,0 33.637794,2.66514 33.637794,5.952756 z"
       transform="matrix(1.2098553,0.07981842,-0.11647025,0.84217663,-1.5343197,-36.958506)" />
    <g
       id="g10171"
       transform="matrix(-1,0,0,1,56,0)">
      <path
         id="path10138"
         d="m 24.90625,-32.5 a 1.0001,1.0001 0 0 0 -0.8125,0.5625 l -4,8 A 1.0001,1.0001 0 0 0 21,-22.5 l 2,0 0,0.5 -1.5,0 a 1.0001,1.0001 0 0 0 -1,1 l 0,2.25 -14.78125,4.28125 0.03125,0.0625 C 4.2358328,-14.26139 3,-13.049208 3,-11.5 c 0,1.34362 0.9908723,2.3113104 2.21875,2.6875 L 9,-0.3125 9,9.5 a 1.0001,1.0001 0 0 0 -1,1 l 0,2 a 1.0001,1.0001 0 0 0 1,1 l 0,3 -0.5,0 C 7.1322972,16.5 6,17.632297 6,19 c 0,1.367703 1.1322972,2.5 2.5,2.5 l -1,0 C 5.5782971,21.5 4,23.078298 4,25 c 0,1.921702 1.5782971,3.5 3.5,3.5 l 3.6875,0 1.96875,10.1875 a 1.0001,1.0001 0 0 0 0.25,0.53125 c 0,0 0.162137,0.112203 0.28125,0.1875 0.119113,0.0753 0.259591,0.161687 0.46875,0.25 0.418318,0.176625 1.05269,0.365311 2.0625,0.5625 C 18.23837,40.613128 21.766184,41 28,41 c 6.233816,0 9.76163,-0.386872 11.78125,-0.78125 1.00981,-0.197189 1.644182,-0.385875 2.0625,-0.5625 0.209159,-0.08831 0.349637,-0.174703 0.46875,-0.25 0.119113,-0.0753 0.28125,-0.1875 0.28125,-0.1875 a 1.0001,1.0001 0 0 0 0.25,-0.53125 L 44.8125,28.5 48.5,28.5 c 1.921703,0 3.5,-1.578298 3.5,-3.5 0,-1.921702 -1.578297,-3.5 -3.5,-3.5 l -1,0 c 1.367703,0 2.5,-1.132297 2.5,-2.5 0,-1.367703 -1.132297,-2.5 -2.5,-2.5 l -0.5,0 0,-3 a 1.0001,1.0001 0 0 0 1,-1 l 0,-2 a 1.0001,1.0001 0 0 0 -1,-1 l 0,-9.8125 3.78125,-8.5 C 52.009127,-9.1886894 53,-10.15638 53,-11.5 c 0,-1.549208 -1.235833,-2.76139 -2.75,-2.90625 l 0.03125,-0.0625 L 35.5,-18.75 35.5,-21 a 1.0001,1.0001 0 0 0 -1,-1 l -1.5,0 0,-0.5 2,0 a 1.0001,1.0001 0 0 0 0.90625,-1.4375 l -4,-8 A 1.0001,1.0001 0 0 0 31,-32.5 l -6,0 a 1.0001,1.0001 0 0 0 -0.09375,0 z"
         style="opacity:0.75;color:#000000;fill:#000000;fill-opacity:1;fill-rule:evenodd;stroke:none;stroke-width:1px;marker:none;visibility:visible;display:inline;overflow:visible;filter:url(#filter10149);enable-background:accumulate"
         inkscape:connector-curvature="0" />
      <path
         style="opacity:0.75;color:#000000;fill:#423013;fill-opacity:1;fill-rule:evenodd;stroke:none;stroke-width:1px;marker:none;visibility:visible;display:inline;overflow:visible;enable-background:accumulate"
         d="m 24.999999,-31.499997 -4,8 3,0 0,2.499999 -2.499999,0 0,3 -15.5000006,4.5 c -1.1079994,0 -1.9999994,0.892 -1.9999994,2 0,1.108 0.892,1.9999996 2.0000004,1.9999996 L 10,-0.49999804 10,10.500002 l -1.0000005,0 0,1.999999 1.0000005,0 0,4.999999 -1.4999999,0 c -0.831,0 -1.5,0.669 -1.5,1.5 0,0.831 0.669,1.5 1.5,1.5 L 10,20.5 l 0,2 -2.5000005,0 C 6.1150001,22.5 5,23.615001 5,25 c 0,1.384999 1.1150001,2.500001 2.4999995,2.500001 l 4.4999995,0 0,0.04999 2.125,10.949999 c 0,0 1.488098,1.5 13.875,1.5 12.386902,0 13.874999,-1.5 13.874999,-1.5 l 2.125,-10.949999 0,-0.04999 4.5,0 c 1.385,0 2.499999,-1.115002 2.499999,-2.500001 0,-1.384999 -1.114999,-2.5 -2.499999,-2.5 l -2.5,0 0,-2 1.5,0 c 0.831,0 1.5,-0.669 1.5,-1.5 0,-0.831 -0.669,-1.5 -1.5,-1.5 l -1.5,0 0,-4.999999 1,0 0,-1.999999 -1,0 0,-11.00000004 4,-9.00000036 c 1.107999,0 2,-0.8919996 2,-1.9999996 0,-1.108 -0.892001,-2 -2,-2 l -15.5,-4.5 0,-3 -2.499999,0 0,-2.499999 3,0 -4.000001,-8 -5.999999,0 z"
         id="path4310"
         inkscape:connector-curvature="0" />
      <g
         id="g4312"
         transform="translate(-33.999998,-3.4999989)">
        <path
           style="color:#000000;fill:url(#linearGradient4380-12-751-109-64);fill-opacity:1;fill-rule:evenodd;stroke:none;stroke-width:1px;marker:none;visibility:visible;display:inline;overflow:visible;enable-background:accumulate"
           d="m 58,-20 0,2.59375 L 55.5,-14.5 40,-10 l 0,4 4,9 36,0 4,-9 0,-4 L 68.5,-14.5 66,-17.40625 66,-20 l -4,0 z"
           id="path4314"
           inkscape:connector-curvature="0"
           sodipodi:nodetypes="cccccccccccccc" />
        <path
           id="path4316"
           d="m 44,3 0,28 2,-0.0625 0,0.125 L 48.125,42 c 0,0 1.488098,1.5 13.875,1.5 12.386902,0 13.875,-1.5 13.875,-1.5 L 78,31.0625 78,30.9375 80,31 80,3 z"
           style="color:#000000;fill:url(#linearGradient4382-275-516-948-802);fill-opacity:1;fill-rule:evenodd;stroke:none;stroke-width:1px;marker:none;visibility:visible;display:inline;overflow:visible;enable-background:accumulate"
           inkscape:connector-curvature="0"
           sodipodi:nodetypes="ccccczcccccc" />
        <path
           style="color:#000000;fill:url(#radialGradient4384-802-858-109-366);fill-opacity:1;fill-rule:evenodd;stroke:none;stroke-width:1px;marker:none;visibility:visible;display:inline;overflow:visible;enable-background:accumulate"
           d="m 43,14 38,0 0,2 -38,0 z"
           id="path4318"
           inkscape:connector-curvature="0" />
        <path
           style="color:#000000;fill:url(#radialGradient4386-347-274-950-388);fill-opacity:1;fill-rule:evenodd;stroke:none;stroke-width:1px;marker:none;visibility:visible;display:inline;overflow:visible;enable-background:accumulate"
           d="m 42.5,21 39,0 c 0.831,0 1.5,0.669 1.5,1.5 0,0.831 -0.669,1.5 -1.5,1.5 l -39,0 C 41.669,24 41,23.331 41,22.5 41,21.669 41.669,21 42.5,21 z"
           id="path4320"
           inkscape:connector-curvature="0" />
        <path
           style="color:#000000;fill:url(#radialGradient4388-177-412-85-765);fill-opacity:1;fill-rule:evenodd;stroke:none;stroke-width:1px;marker:none;visibility:visible;display:inline;overflow:visible;enable-background:accumulate"
           d="m 41.5,26 41,0 c 1.385,0 2.5,1.115 2.5,2.5 0,1.385 -1.115,2.5 -2.5,2.5 l -41,0 C 40.115,31 39,29.885 39,28.5 39,27.115 40.115,26 41.5,26 z"
           id="path4322"
           inkscape:connector-curvature="0" />
        <rect
           style="color:#000000;fill:url(#linearGradient4390-353-300-243-833);fill-opacity:1;fill-rule:evenodd;stroke:none;stroke-width:1px;marker:none;visibility:visible;display:inline;overflow:visible;enable-background:accumulate"
           id="rect4324"
           width="13"
           height="3"
           x="55.5"
           y="-17.5" />
        <path
           sodipodi:nodetypes="cccccc"
           style="color:#000000;fill:url(#linearGradient4392-236-524-615-600);fill-opacity:1;fill-rule:evenodd;stroke:none;stroke-width:1px;marker:none;visibility:visible;display:inline;overflow:visible;enable-background:accumulate"
           d="m 59,-28 -4,8 7,0 7,0 -4,-8 z"
           id="path4326"
           inkscape:connector-curvature="0" />
        <path
           sodipodi:nodetypes="ccccc"
           inkscape:connector-curvature="0"
           id="path4328"
           d="m 40,-6 4,9 36,0 4,-9 z"
           style="opacity:0.25;color:#000000;fill:url(#linearGradient4394-265-9-191-771);fill-opacity:1;fill-rule:evenodd;stroke:none;stroke-width:1px;marker:none;visibility:visible;display:inline;overflow:visible;enable-background:accumulate" />
        <path
           style="color:#000000;fill:url(#radialGradient4396-733-134-146-112);fill-opacity:1;fill-rule:evenodd;stroke:none;stroke-width:1px;marker:none;visibility:visible;display:inline;overflow:visible;enable-background:accumulate"
           d="m 40,-10 44,0 c 1.108,0 2,0.892 2,2 0,1.108 -0.892,2 -2,2 l -44,0 c -1.108,0 -2,-0.892 -2,-2 0,-1.108 0.892,-2 2,-2 z"
           id="path4330"
           inkscape:connector-curvature="0" />
      </g>
    </g>
    <g
       id="g4292">
      <path
         id="path4277"
         d="m 58.15625,-46.375 a 1.0001,1.0001 0 0 0 -0.8125,0.5625 l -5,10 A 1.0001,1.0001 0 0 0 53.25,-34.375 l 2.75,0 0,1.125 -2.125,0 a 1.0001,1.0001 0 0 0 -1,1 l 0,3 -18.65625,5.40625 0,0.03125 C 32.435223,-23.658809 31,-22.195888 31,-20.375 c 0,1.664314 1.215791,2.996776 2.78125,3.34375 L 38.5,-6.4375 l 0,12.5625 -0.25,0 a 1.0001,1.0001 0 0 0 -1,1 l 0,2.5 a 1.0001,1.0001 0 0 0 1,1 l 0.25,0 0,4.25 -0.875,0 c -1.575453,0 -2.875,1.299547 -2.875,2.875 0,1.575453 1.299547,2.875 2.875,2.875 l 0.875,0 0,0.5 -2.125,0 c -2.267953,0 -4.125,1.857047 -4.125,4.125 0,2.267953 1.857047,4.125 4.125,4.125 l 4.8125,0 2.5,12.9375 a 1.0001,1.0001 0 0 0 0.25,0.53125 c 0,0 0.145916,0.133199 0.28125,0.21875 0.135334,0.08555 0.342959,0.175359 0.59375,0.28125 0.501581,0.211782 1.281391,0.443436 2.53125,0.6875 C 49.843467,44.519378 54.217821,45 62,45 c 7.782179,0 12.156533,-0.480622 14.65625,-0.96875 1.249859,-0.244064 2.029669,-0.475718 2.53125,-0.6875 0.250791,-0.105891 0.458416,-0.195699 0.59375,-0.28125 0.135334,-0.08555 0.28125,-0.21875 0.28125,-0.21875 a 1.0001,1.0001 0 0 0 0.25,-0.53125 l 2.5,-12.9375 4.8125,0 c 2.267953,0 4.125,-1.857047 4.125,-4.125 0,-2.267953 -1.857047,-4.125 -4.125,-4.125 l -2.125,0 0,-0.5 0.875,0 c 1.575453,0 2.875,-1.299547 2.875,-2.875 0,-1.575453 -1.299547,-2.875 -2.875,-2.875 l -0.875,0 0,-4.25 0.25,0 a 1.0001,1.0001 0 0 0 1,-1 l 0,-2.5 a 1.0001,1.0001 0 0 0 -1,-1 l -0.25,0 0,-12.5625 4.71875,-10.59375 C 91.784209,-17.378224 93,-18.710686 93,-20.375 c 0,-1.820888 -1.435223,-3.283809 -3.21875,-3.4375 l 0,-0.03125 L 71.125,-29.25 l 0,-3 a 1.0001,1.0001 0 0 0 -1,-1 l -2.125,0 0,-1.125 2.75,0 a 1.0001,1.0001 0 0 0 0.90625,-1.4375 l -5,-10 A 1.0001,1.0001 0 0 0 65.75,-46.375 l -7.5,0 a 1.0001,1.0001 0 0 0 -0.09375,0 z"
         style="opacity:0.5;color:#000000;fill:#000000;fill-opacity:1;fill-rule:evenodd;stroke:none;stroke-width:1px;marker:none;visibility:visible;display:inline;overflow:visible;enable-background:accumulate;filter:url(#filter4288)" />
      <path
         inkscape:connector-curvature="0"
         id="path4213"
         d="m 58.25,-45.375 -5,10 3.75,0 0,3.125 -3.125,0 0,3.75 -19.375,5.625 c -1.385,0 -2.5,1.115 -2.5,2.5 0,1.385 1.115,2.5 2.5,2.5 l 5,11.25 0,13.75 -1.25,0 0,2.5 1.25,0 0,6.25 -1.875,0 c -1.03875,0 -1.875,0.83625 -1.875,1.875 0,1.03875 0.83625,1.875 1.875,1.875 l 1.875,0 0,2.5 -3.125,0 c -1.73125,0 -3.125,1.39375 -3.125,3.125 0,1.73125 1.39375,3.125 3.125,3.125 l 5.625,0 0,0.0625 2.65625,13.6875 c 0,0 1.860123,1.875 17.34375,1.875 15.483627,0 17.34375,-1.875 17.34375,-1.875 L 82,28.4375 l 0,-0.0625 5.625,0 c 1.73125,0 3.125,-1.39375 3.125,-3.125 0,-1.73125 -1.39375,-3.125 -3.125,-3.125 l -3.125,0 0,-2.5 1.875,0 c 1.03875,0 1.875,-0.83625 1.875,-1.875 0,-1.03875 -0.83625,-1.875 -1.875,-1.875 l -1.875,0 0,-6.25 1.25,0 0,-2.5 -1.25,0 0,-13.75 5,-11.25 c 1.385,0 2.5,-1.115 2.5,-2.5 0,-1.385 -1.115,-2.5 -2.5,-2.5 l -19.375,-5.625 0,-3.75 -3.125,0 0,-3.125 3.75,0 -5,-10 -7.5,0 z"
         style="opacity:0.75;color:#000000;fill:#64481c;fill-opacity:1;fill-rule:evenodd;stroke:none;stroke-width:1px;marker:none;visibility:visible;display:inline;overflow:visible;enable-background:accumulate" />
      <g
         transform="matrix(1.25,0,0,1.25,-15.5,-10.375)"
         id="g4074">
        <path
           sodipodi:nodetypes="cccccccccccccc"
           inkscape:connector-curvature="0"
           id="rect3003"
           d="m 58,-20 0,2.59375 L 55.5,-14.5 40,-10 l 0,4 4,9 36,0 4,-9 0,-4 L 68.5,-14.5 66,-17.40625 66,-20 l -4,0 z"
           style="color:#000000;fill:url(#linearGradient4193);fill-opacity:1;fill-rule:evenodd;stroke:none;stroke-width:1px;marker:none;visibility:visible;display:inline;overflow:visible;enable-background:accumulate" />
        <path
           sodipodi:nodetypes="ccccczcccccc"
           inkscape:connector-curvature="0"
           style="color:#000000;fill:url(#linearGradient4195);fill-opacity:1;fill-rule:evenodd;stroke:none;stroke-width:1px;marker:none;visibility:visible;display:inline;overflow:visible;enable-background:accumulate"
           d="m 44,3 0,28 2,-0.0625 0,0.125 L 48.125,42 c 0,0 1.488098,1.5 13.875,1.5 12.386902,0 13.875,-1.5 13.875,-1.5 L 78,31.0625 78,30.9375 80,31 80,3 z"
           id="path3907" />
        <path
           inkscape:connector-curvature="0"
           id="rect3015"
           d="m 43,14 38,0 0,2 -38,0 z"
           style="color:#000000;fill:url(#radialGradient4197);fill-opacity:1;fill-rule:evenodd;stroke:none;stroke-width:1px;marker:none;visibility:visible;display:inline;overflow:visible;enable-background:accumulate" />
        <path
           inkscape:connector-curvature="0"
           id="rect3017"
           d="m 42.5,21 39,0 c 0.831,0 1.5,0.669 1.5,1.5 0,0.831 -0.669,1.5 -1.5,1.5 l -39,0 C 41.669,24 41,23.331 41,22.5 41,21.669 41.669,21 42.5,21 z"
           style="color:#000000;fill:url(#radialGradient4199);fill-opacity:1;fill-rule:evenodd;stroke:none;stroke-width:1px;marker:none;visibility:visible;display:inline;overflow:visible;enable-background:accumulate" />
        <path
           inkscape:connector-curvature="0"
           id="rect3019"
           d="m 41.5,26 41,0 c 1.385,0 2.5,1.115 2.5,2.5 0,1.385 -1.115,2.5 -2.5,2.5 l -41,0 C 40.115,31 39,29.885 39,28.5 39,27.115 40.115,26 41.5,26 z"
           style="color:#000000;fill:url(#radialGradient4201);fill-opacity:1;fill-rule:evenodd;stroke:none;stroke-width:1px;marker:none;visibility:visible;display:inline;overflow:visible;enable-background:accumulate" />
        <rect
           y="-17.5"
           x="55.5"
           height="3"
           width="13"
           id="rect3011"
           style="color:#000000;fill:url(#linearGradient4203);fill-opacity:1;fill-rule:evenodd;stroke:none;stroke-width:1px;marker:none;visibility:visible;display:inline;overflow:visible;enable-background:accumulate" />
        <path
           inkscape:connector-curvature="0"
           id="rect3013"
           d="m 59,-28 -4,8 7,0 7,0 -4,-8 z"
           style="color:#000000;fill:url(#linearGradient4205);fill-opacity:1;fill-rule:evenodd;stroke:none;stroke-width:1px;marker:none;visibility:visible;display:inline;overflow:visible;enable-background:accumulate"
           sodipodi:nodetypes="cccccc" />
        <path
           style="opacity:0.25;color:#000000;fill:url(#linearGradient4207);fill-opacity:1;fill-rule:evenodd;stroke:none;stroke-width:1px;marker:none;visibility:visible;display:inline;overflow:visible;enable-background:accumulate"
           d="m 40,-6 4,9 36,0 4,-9 z"
           id="path3993"
           inkscape:connector-curvature="0"
           sodipodi:nodetypes="ccccc" />
        <path
           inkscape:connector-curvature="0"
           id="rect3009"
           d="m 40,-10 44,0 c 1.108,0 2,0.892 2,2 0,1.108 -0.892,2 -2,2 l -44,0 c -1.108,0 -2,-0.892 -2,-2 0,-1.108 0.892,-2 2,-2 z"
           style="color:#000000;fill:url(#radialGradient4209);fill-opacity:1;fill-rule:evenodd;stroke:none;stroke-width:1px;marker:none;visibility:visible;display:inline;overflow:visible;enable-background:accumulate" />
      </g>
    </g>
  </g>
</svg>
