<?xml version="1.0" encoding="UTF-8" standalone="no"?>
<!-- Generator: Adobe Illustrator 12.0.1, SVG Export Plug-In . SVG Version: 6.00 Build 51448)  -->

<svg
   xmlns:dc="http://purl.org/dc/elements/1.1/"
   xmlns:cc="http://creativecommons.org/ns#"
   xmlns:rdf="http://www.w3.org/1999/02/22-rdf-syntax-ns#"
   xmlns:svg="http://www.w3.org/2000/svg"
   xmlns="http://www.w3.org/2000/svg"
   xmlns:xlink="http://www.w3.org/1999/xlink"
   xmlns:sodipodi="http://sodipodi.sourceforge.net/DTD/sodipodi-0.dtd"
   xmlns:inkscape="http://www.inkscape.org/namespaces/inkscape"
   version="1.1"
   id="Layer_1"
   width="96"
   height="96"
   viewBox="0 0 96.000003 95.999998"
   overflow="visible"
   enable-background="new 0 0 379.955 380.251"
   xml:space="preserve"
   sodipodi:version="0.32"
   inkscape:version="0.48.4 r9939"
   sodipodi:docname="filezilla.svg"
   inkscape:output_extension="org.inkscape.output.svg.inkscape"
   style="overflow:visible"><metadata
     id="metadata2383"><rdf:RDF><cc:Work
         rdf:about=""><dc:format>image/svg+xml</dc:format><dc:type
           rdf:resource="http://purl.org/dc/dcmitype/StillImage" /></cc:Work></rdf:RDF></metadata><defs
     id="defs2381"><linearGradient
       id="linearGradient3758"><stop
         style="stop-color:#ffffff;stop-opacity:1;"
         offset="0"
         id="stop3760" /><stop
         id="stop3766"
         offset="0.75"
         style="stop-color:#f0f0f0;stop-opacity:1;" /><stop
         style="stop-color:#c0c0c0;stop-opacity:1;"
         offset="1"
         id="stop3762" /></linearGradient><linearGradient
       id="XMLID_2_"
       gradientUnits="userSpaceOnUse"
       x1="187.94679"
       y1="123.8594"
       x2="187.94679"
       y2="258.86539"><stop
         offset="0"
         style="stop-color:#ff0101;stop-opacity:1;"
         id="stop2308" /><stop
         offset="1"
         style="stop-color:#800000;stop-opacity:1;"
         id="stop2310" /></linearGradient><radialGradient
       inkscape:collect="always"
       xlink:href="#XMLID_2_"
       id="radialGradient3773"
       cx="28.039608"
       cy="18.91485"
       fx="28.039608"
       fy="18.91485"
       r="40.000004"
       gradientTransform="matrix(1.899777,-4.0339009e-8,2.6564625e-8,1.2510685,-25.229396,-4.7489205)"
       gradientUnits="userSpaceOnUse" /><radialGradient
       inkscape:collect="always"
       xlink:href="#linearGradient3758"
       id="radialGradient3764"
       cx="48.000002"
       cy="47.999999"
       fx="48.000002"
       fy="47.999999"
       r="32"
       gradientUnits="userSpaceOnUse" /></defs><sodipodi:namedview
     inkscape:window-height="719"
     inkscape:window-width="1017"
     inkscape:pageshadow="2"
     inkscape:pageopacity="0.0"
     guidetolerance="10.0"
     gridtolerance="10.0"
     objecttolerance="10.0"
     borderopacity="1.0"
     bordercolor="#666666"
     pagecolor="#ffffff"
     id="base"
     inkscape:zoom="4"
     inkscape:cx="48"
     inkscape:cy="48"
     inkscape:window-x="0"
     inkscape:window-y="110"
     inkscape:current-layer="Layer_1"
     showgrid="false"
     fit-margin-top="0"
     fit-margin-left="0"
     fit-margin-right="0"
     fit-margin-bottom="0"
     inkscape:window-maximized="0" /><rect
     style="color:#000000;fill:url(#radialGradient3764);fill-opacity:1;fill-rule:evenodd;stroke:none;stroke-width:1px;marker:none;visibility:visible;display:inline;overflow:visible;enable-background:accumulate"
     id="rect2988"
     width="64"
     height="64"
     x="16.000002"
     y="15.999999" /><path
     style="fill:none;stroke:#000000;stroke-width:4.00000013000000010;stroke-miterlimit:4;stroke-dasharray:none;stroke-linejoin:round;stroke-linecap:round;opacity:0.25"
     d="m 10.677632,7.999999 c 0,0.705408 -0.284835,1.395775 -0.7828951,1.894733 C 9.3957612,10.392782 8.7049749,10.677624 8,10.677624 l 0,3.5329 c 1.4767851,0 2.677632,1.201342 2.677632,2.677633 0,1.4772 -1.2008469,2.677626 -2.677632,2.677626 l 0,3.5329 c 1.4767851,0 2.677632,1.201342 2.677632,2.677633 0,1.4772 -1.2008469,2.677625 -2.677632,2.677625 l 0,3.5329 c 1.4767851,0 2.677632,1.199516 2.677632,2.677634 0,1.478108 -1.2008469,2.684208 -2.677632,2.684208 l 0,3.532892 c 1.4767851,0 2.677632,1.200432 2.677632,2.677632 0,1.4772 -1.2008469,2.677634 -2.677632,2.677634 l 0,3.532892 c 1.4767851,0 2.677632,1.200432 2.677632,2.677632 0,1.4772 -1.2008469,2.677634 -2.677632,2.677634 l 0,3.532892 c 1.4767851,0 2.677632,1.200434 2.677632,2.677634 0,1.477199 -1.2008469,2.677632 -2.677632,2.677632 l 0,3.532892 c 1.4767851,0 2.677632,1.200434 2.677632,2.677634 0,1.4772 -1.2008469,2.677632 -2.677632,2.677632 l 0,3.532892 c 1.4767851,0 2.677632,1.200434 2.677632,2.677634 0,1.4772 -1.2008469,2.677633 -2.677632,2.677633 l 0,3.532891 c 0.7049749,0 1.3957612,0.283934 1.8947369,0.7829 0.4980601,0.498042 0.7828951,1.189318 0.7828951,1.894734 l 3.532894,0 c 0,-1.4772 1.200847,-2.677634 2.677632,-2.677634 1.476786,0 2.677632,1.200434 2.677632,2.677634 l 3.532895,0 c 0,-1.4772 1.200847,-2.677634 2.677631,-2.677634 1.476786,0 2.677632,1.200434 2.677632,2.677634 l 3.532896,0 c 0,-1.4772 1.200845,-2.677634 2.67763,-2.677634 1.476783,0 2.677632,1.200434 2.677632,2.677634 l 3.532895,0 c 0,-1.4772 1.200846,-2.677634 2.677632,-2.677634 1.476785,0 2.677631,1.200434 2.677631,2.677634 l 3.532895,0 c 0,-1.4772 1.200846,-2.677634 2.677632,-2.677634 1.476785,0 2.677632,1.200434 2.677632,2.677634 l 3.532894,0 c 0,-1.4772 1.200847,-2.677634 2.677632,-2.677634 1.476785,0 2.684211,1.200434 2.684211,2.677634 l 3.526315,0 c 0,-1.4772 1.207426,-2.677634 2.684211,-2.677634 1.476786,0 2.677632,1.200434 2.677632,2.677634 l 3.526316,0 c 0,-1.4772 1.207425,-2.677634 2.68421,-2.677634 1.476783,0 2.677632,1.200434 2.677632,2.677634 l 3.532895,0 c 0,-0.705416 0.28392,-1.396692 0.782894,-1.894734 0.498061,-0.498966 1.189306,-0.7829 1.894738,-0.7829 l 0,-3.532891 c -1.477242,0 -2.677632,-1.200433 -2.677632,-2.677633 0,-1.4772 1.20039,-2.677634 2.677632,-2.677634 l 0,-3.532892 c -1.477242,0 -2.677632,-1.200432 -2.677632,-2.677632 0,-1.4772 1.20039,-2.677634 2.677632,-2.677634 l 0,-3.532892 c -1.477242,0 -2.677632,-1.200433 -2.677632,-2.677632 0,-1.4772 1.20039,-2.677634 2.677632,-2.677634 l 0,-3.532892 c -1.477242,0 -2.677632,-1.200434 -2.677632,-2.677634 0,-1.4772 1.20039,-2.677632 2.677632,-2.677632 l 0,-3.532892 c -1.477242,0 -2.677632,-1.200434 -2.677632,-2.677634 0,-1.4772 1.20039,-2.677632 2.677632,-2.677632 l 0,-3.532892 c -1.477242,0 -2.677632,-1.199517 -2.677632,-2.677634 0,-1.478116 1.20039,-2.684208 2.677632,-2.684208 l 0,-3.526316 c -1.477242,0 -2.677632,-1.207009 -2.677632,-2.684209 0,-1.476291 1.20039,-2.677633 2.677632,-2.677633 l 0,-3.526317 c -1.477242,0 -2.677632,-1.207009 -2.677632,-2.684209 0,-1.476291 1.20039,-2.677633 2.677632,-2.677633 l 0,-3.5329 c -0.705432,0 -1.396677,-0.284842 -1.894738,-0.782892 C 85.606291,9.395774 85.322371,8.705407 85.322371,7.999999 l -3.532895,0 c 0,1.4772 -1.200846,2.677625 -2.677632,2.677625 -1.476785,0 -2.677631,-1.200425 -2.677631,-2.677625 l -3.532895,0 c 0,1.4772 -1.200846,2.677625 -2.677632,2.677625 -1.476785,0 -2.677632,-1.200425 -2.677632,-2.677625 l -3.532894,0 c 0,1.4772 -1.200847,2.677625 -2.677632,2.677625 -1.476785,0 -2.677632,-1.200425 -2.677632,-2.677625 l -3.532894,0 c 0,1.4772 -1.200848,2.677625 -2.677632,2.677625 -1.476786,0 -2.677632,-1.200425 -2.677632,-2.677625 l -3.532894,0 c 0,1.4772 -1.200847,2.677625 -2.677632,2.677625 -1.476786,0 -2.684211,-1.200425 -2.684211,-2.677625 l -3.526316,0 c -1e-6,1.4772 -1.207425,2.677625 -2.684211,2.677625 -1.476785,0 -2.67763,-1.200425 -2.67763,-2.677625 l -3.526318,0 c 0,1.4772 -1.207424,2.677625 -2.68421,2.677625 -1.476784,0 -2.677631,-1.200425 -2.677631,-2.677625 l -3.532895,0 c 0,1.4772 -1.200846,2.677625 -2.677632,2.677625 -1.476785,0 -2.677632,-1.200425 -2.677632,-2.677625 l -3.532894,0 z m 19.223684,11.769734 34.973686,0 -2.230263,10.493424 -24.328948,0 -2.085527,9.75 39.921054,0 -1.710526,6.993418 -21.348686,20.756582 c 1.934563,0.29755 3.794827,0.743418 5.802632,0.743418 4.884011,0 10.500633,-1.490742 14.296054,-3.052626 l -1.953948,9.157892 c -5.581204,2.678824 -8.999884,2.901316 -12.342106,2.901316 -3.644813,0 -7.14508,-1.190792 -10.717104,-1.190792 -2.00918,0 -4.905464,0.145342 -6.69079,1.335526 l -3.868421,-6.8421 22.019737,-21.802634 -25.342106,0 -4.835528,22.697368 -10.565789,0 11.006579,-51.940792 z"
     id="path3769"
     inkscape:connector-curvature="0" /><path
     inkscape:connector-curvature="0"
     id="path2999"
     d="m 10.677632,7.999999 c 0,0.705408 -0.284835,1.395775 -0.7828951,1.894733 C 9.3957612,10.392782 8.7049749,10.677624 8,10.677624 l 0,3.5329 c 1.4767851,0 2.677632,1.201342 2.677632,2.677633 0,1.4772 -1.2008469,2.677626 -2.677632,2.677626 l 0,3.5329 c 1.4767851,0 2.677632,1.201342 2.677632,2.677633 0,1.4772 -1.2008469,2.677625 -2.677632,2.677625 l 0,3.5329 c 1.4767851,0 2.677632,1.199516 2.677632,2.677634 0,1.478108 -1.2008469,2.684208 -2.677632,2.684208 l 0,3.532892 c 1.4767851,0 2.677632,1.200432 2.677632,2.677632 0,1.4772 -1.2008469,2.677634 -2.677632,2.677634 l 0,3.532892 c 1.4767851,0 2.677632,1.200432 2.677632,2.677632 0,1.4772 -1.2008469,2.677634 -2.677632,2.677634 l 0,3.532892 c 1.4767851,0 2.677632,1.200434 2.677632,2.677634 0,1.477199 -1.2008469,2.677632 -2.677632,2.677632 l 0,3.532892 c 1.4767851,0 2.677632,1.200434 2.677632,2.677634 0,1.4772 -1.2008469,2.677632 -2.677632,2.677632 l 0,3.532892 c 1.4767851,0 2.677632,1.200434 2.677632,2.677634 0,1.4772 -1.2008469,2.677633 -2.677632,2.677633 l 0,3.532891 c 0.7049749,0 1.3957612,0.283934 1.8947369,0.7829 0.4980601,0.498042 0.7828951,1.189318 0.7828951,1.894734 l 3.532894,0 c 0,-1.4772 1.200847,-2.677634 2.677632,-2.677634 1.476786,0 2.677632,1.200434 2.677632,2.677634 l 3.532895,0 c 0,-1.4772 1.200847,-2.677634 2.677631,-2.677634 1.476786,0 2.677632,1.200434 2.677632,2.677634 l 3.532896,0 c 0,-1.4772 1.200845,-2.677634 2.67763,-2.677634 1.476783,0 2.677632,1.200434 2.677632,2.677634 l 3.532895,0 c 0,-1.4772 1.200846,-2.677634 2.677632,-2.677634 1.476785,0 2.677631,1.200434 2.677631,2.677634 l 3.532895,0 c 0,-1.4772 1.200846,-2.677634 2.677632,-2.677634 1.476785,0 2.677632,1.200434 2.677632,2.677634 l 3.532894,0 c 0,-1.4772 1.200847,-2.677634 2.677632,-2.677634 1.476785,0 2.684211,1.200434 2.684211,2.677634 l 3.526315,0 c 0,-1.4772 1.207426,-2.677634 2.684211,-2.677634 1.476786,0 2.677632,1.200434 2.677632,2.677634 l 3.526316,0 c 0,-1.4772 1.207425,-2.677634 2.68421,-2.677634 1.476783,0 2.677632,1.200434 2.677632,2.677634 l 3.532895,0 c 0,-0.705416 0.28392,-1.396692 0.782894,-1.894734 0.498061,-0.498966 1.189306,-0.7829 1.894738,-0.7829 l 0,-3.532891 c -1.477242,0 -2.677632,-1.200433 -2.677632,-2.677633 0,-1.4772 1.20039,-2.677634 2.677632,-2.677634 l 0,-3.532892 c -1.477242,0 -2.677632,-1.200432 -2.677632,-2.677632 0,-1.4772 1.20039,-2.677634 2.677632,-2.677634 l 0,-3.532892 c -1.477242,0 -2.677632,-1.200433 -2.677632,-2.677632 0,-1.4772 1.20039,-2.677634 2.677632,-2.677634 l 0,-3.532892 c -1.477242,0 -2.677632,-1.200434 -2.677632,-2.677634 0,-1.4772 1.20039,-2.677632 2.677632,-2.677632 l 0,-3.532892 c -1.477242,0 -2.677632,-1.200434 -2.677632,-2.677634 0,-1.4772 1.20039,-2.677632 2.677632,-2.677632 l 0,-3.532892 c -1.477242,0 -2.677632,-1.199517 -2.677632,-2.677634 0,-1.478116 1.20039,-2.684208 2.677632,-2.684208 l 0,-3.526316 c -1.477242,0 -2.677632,-1.207009 -2.677632,-2.684209 0,-1.476291 1.20039,-2.677633 2.677632,-2.677633 l 0,-3.526317 c -1.477242,0 -2.677632,-1.207009 -2.677632,-2.684209 0,-1.476291 1.20039,-2.677633 2.677632,-2.677633 l 0,-3.5329 c -0.705432,0 -1.396677,-0.284842 -1.894738,-0.782892 C 85.606291,9.395774 85.322371,8.705407 85.322371,7.999999 l -3.532895,0 c 0,1.4772 -1.200846,2.677625 -2.677632,2.677625 -1.476785,0 -2.677631,-1.200425 -2.677631,-2.677625 l -3.532895,0 c 0,1.4772 -1.200846,2.677625 -2.677632,2.677625 -1.476785,0 -2.677632,-1.200425 -2.677632,-2.677625 l -3.532894,0 c 0,1.4772 -1.200847,2.677625 -2.677632,2.677625 -1.476785,0 -2.677632,-1.200425 -2.677632,-2.677625 l -3.532894,0 c 0,1.4772 -1.200848,2.677625 -2.677632,2.677625 -1.476786,0 -2.677632,-1.200425 -2.677632,-2.677625 l -3.532894,0 c 0,1.4772 -1.200847,2.677625 -2.677632,2.677625 -1.476786,0 -2.684211,-1.200425 -2.684211,-2.677625 l -3.526316,0 c -1e-6,1.4772 -1.207425,2.677625 -2.684211,2.677625 -1.476785,0 -2.67763,-1.200425 -2.67763,-2.677625 l -3.526318,0 c 0,1.4772 -1.207424,2.677625 -2.68421,2.677625 -1.476784,0 -2.677631,-1.200425 -2.677631,-2.677625 l -3.532895,0 c 0,1.4772 -1.200846,2.677625 -2.677632,2.677625 -1.476785,0 -2.677632,-1.200425 -2.677632,-2.677625 l -3.532894,0 z m 19.223684,11.769734 34.973686,0 -2.230263,10.493424 -24.328948,0 -2.085527,9.75 39.921054,0 -1.710526,6.993418 -21.348686,20.756582 c 1.934563,0.29755 3.794827,0.743418 5.802632,0.743418 4.884011,0 10.500633,-1.490742 14.296054,-3.052626 l -1.953948,9.157892 c -5.581204,2.678824 -8.999884,2.901316 -12.342106,2.901316 -3.644813,0 -7.14508,-1.190792 -10.717104,-1.190792 -2.00918,0 -4.905464,0.145342 -6.69079,1.335526 l -3.868421,-6.8421 22.019737,-21.802634 -25.342106,0 -4.835528,22.697368 -10.565789,0 11.006579,-51.940792 z"
     style="fill:none;stroke:#000000;stroke-width:1.00000003000000004;stroke-miterlimit:4;stroke-dasharray:none;stroke-linejoin:round;stroke-linecap:round;opacity:0.75" /><path
     style="fill:url(#radialGradient3773);fill-opacity:1"
     d="m 10.677632,7.999999 c 0,0.705408 -0.284835,1.395775 -0.7828951,1.894733 C 9.3957612,10.392782 8.7049749,10.677624 8,10.677624 l 0,3.5329 c 1.4767851,0 2.677632,1.201342 2.677632,2.677633 0,1.4772 -1.2008469,2.677626 -2.677632,2.677626 l 0,3.5329 c 1.4767851,0 2.677632,1.201342 2.677632,2.677633 0,1.4772 -1.2008469,2.677625 -2.677632,2.677625 l 0,3.5329 c 1.4767851,0 2.677632,1.199516 2.677632,2.677634 0,1.478108 -1.2008469,2.684208 -2.677632,2.684208 l 0,3.532892 c 1.4767851,0 2.677632,1.200432 2.677632,2.677632 0,1.4772 -1.2008469,2.677634 -2.677632,2.677634 l 0,3.532892 c 1.4767851,0 2.677632,1.200432 2.677632,2.677632 0,1.4772 -1.2008469,2.677634 -2.677632,2.677634 l 0,3.532892 c 1.4767851,0 2.677632,1.200434 2.677632,2.677634 0,1.477199 -1.2008469,2.677632 -2.677632,2.677632 l 0,3.532892 c 1.4767851,0 2.677632,1.200434 2.677632,2.677634 0,1.4772 -1.2008469,2.677632 -2.677632,2.677632 l 0,3.532892 c 1.4767851,0 2.677632,1.200434 2.677632,2.677634 0,1.4772 -1.2008469,2.677633 -2.677632,2.677633 l 0,3.532891 c 0.7049749,0 1.3957612,0.283934 1.8947369,0.7829 0.4980601,0.498042 0.7828951,1.189318 0.7828951,1.894734 l 3.532894,0 c 0,-1.4772 1.200847,-2.677634 2.677632,-2.677634 1.476786,0 2.677632,1.200434 2.677632,2.677634 l 3.532895,0 c 0,-1.4772 1.200847,-2.677634 2.677631,-2.677634 1.476786,0 2.677632,1.200434 2.677632,2.677634 l 3.532896,0 c 0,-1.4772 1.200845,-2.677634 2.67763,-2.677634 1.476783,0 2.677632,1.200434 2.677632,2.677634 l 3.532895,0 c 0,-1.4772 1.200846,-2.677634 2.677632,-2.677634 1.476785,0 2.677631,1.200434 2.677631,2.677634 l 3.532895,0 c 0,-1.4772 1.200846,-2.677634 2.677632,-2.677634 1.476785,0 2.677632,1.200434 2.677632,2.677634 l 3.532894,0 c 0,-1.4772 1.200847,-2.677634 2.677632,-2.677634 1.476785,0 2.684211,1.200434 2.684211,2.677634 l 3.526315,0 c 0,-1.4772 1.207426,-2.677634 2.684211,-2.677634 1.476786,0 2.677632,1.200434 2.677632,2.677634 l 3.526316,0 c 0,-1.4772 1.207425,-2.677634 2.68421,-2.677634 1.476783,0 2.677632,1.200434 2.677632,2.677634 l 3.532895,0 c 0,-0.705416 0.28392,-1.396692 0.782894,-1.894734 0.498061,-0.498966 1.189306,-0.7829 1.894738,-0.7829 l 0,-3.532891 c -1.477242,0 -2.677632,-1.200433 -2.677632,-2.677633 0,-1.4772 1.20039,-2.677634 2.677632,-2.677634 l 0,-3.532892 c -1.477242,0 -2.677632,-1.200432 -2.677632,-2.677632 0,-1.4772 1.20039,-2.677634 2.677632,-2.677634 l 0,-3.532892 c -1.477242,0 -2.677632,-1.200433 -2.677632,-2.677632 0,-1.4772 1.20039,-2.677634 2.677632,-2.677634 l 0,-3.532892 c -1.477242,0 -2.677632,-1.200434 -2.677632,-2.677634 0,-1.4772 1.20039,-2.677632 2.677632,-2.677632 l 0,-3.532892 c -1.477242,0 -2.677632,-1.200434 -2.677632,-2.677634 0,-1.4772 1.20039,-2.677632 2.677632,-2.677632 l 0,-3.532892 c -1.477242,0 -2.677632,-1.199517 -2.677632,-2.677634 0,-1.478116 1.20039,-2.684208 2.677632,-2.684208 l 0,-3.526316 c -1.477242,0 -2.677632,-1.207009 -2.677632,-2.684209 0,-1.476291 1.20039,-2.677633 2.677632,-2.677633 l 0,-3.526317 c -1.477242,0 -2.677632,-1.207009 -2.677632,-2.684209 0,-1.476291 1.20039,-2.677633 2.677632,-2.677633 l 0,-3.5329 c -0.705432,0 -1.396677,-0.284842 -1.894738,-0.782892 C 85.606291,9.395774 85.322371,8.705407 85.322371,7.999999 l -3.532895,0 c 0,1.4772 -1.200846,2.677625 -2.677632,2.677625 -1.476785,0 -2.677631,-1.200425 -2.677631,-2.677625 l -3.532895,0 c 0,1.4772 -1.200846,2.677625 -2.677632,2.677625 -1.476785,0 -2.677632,-1.200425 -2.677632,-2.677625 l -3.532894,0 c 0,1.4772 -1.200847,2.677625 -2.677632,2.677625 -1.476785,0 -2.677632,-1.200425 -2.677632,-2.677625 l -3.532894,0 c 0,1.4772 -1.200848,2.677625 -2.677632,2.677625 -1.476786,0 -2.677632,-1.200425 -2.677632,-2.677625 l -3.532894,0 c 0,1.4772 -1.200847,2.677625 -2.677632,2.677625 -1.476786,0 -2.684211,-1.200425 -2.684211,-2.677625 l -3.526316,0 c -1e-6,1.4772 -1.207425,2.677625 -2.684211,2.677625 -1.476785,0 -2.67763,-1.200425 -2.67763,-2.677625 l -3.526318,0 c 0,1.4772 -1.207424,2.677625 -2.68421,2.677625 -1.476784,0 -2.677631,-1.200425 -2.677631,-2.677625 l -3.532895,0 c 0,1.4772 -1.200846,2.677625 -2.677632,2.677625 -1.476785,0 -2.677632,-1.200425 -2.677632,-2.677625 l -3.532894,0 z m 19.223684,11.769734 34.973686,0 -2.230263,10.493424 -24.328948,0 -2.085527,9.75 39.921054,0 -1.710526,6.993418 -21.348686,20.756582 c 1.934563,0.29755 3.794827,0.743418 5.802632,0.743418 4.884011,0 10.500633,-1.490742 14.296054,-3.052626 l -1.953948,9.157892 c -5.581204,2.678824 -8.999884,2.901316 -12.342106,2.901316 -3.644813,0 -7.14508,-1.190792 -10.717104,-1.190792 -2.00918,0 -4.905464,0.145342 -6.69079,1.335526 l -3.868421,-6.8421 22.019737,-21.802634 -25.342106,0 -4.835528,22.697368 -10.565789,0 11.006579,-51.940792 z"
     id="path2312"
     inkscape:connector-curvature="0" /></svg>