<?xml version="1.0" encoding="UTF-8" standalone="no"?>
<!-- Created with Inkscape (http://www.inkscape.org/) -->

<svg
   xmlns:dc="http://purl.org/dc/elements/1.1/"
   xmlns:cc="http://creativecommons.org/ns#"
   xmlns:rdf="http://www.w3.org/1999/02/22-rdf-syntax-ns#"
   xmlns:svg="http://www.w3.org/2000/svg"
   xmlns="http://www.w3.org/2000/svg"
   xmlns:xlink="http://www.w3.org/1999/xlink"
   xmlns:sodipodi="http://sodipodi.sourceforge.net/DTD/sodipodi-0.dtd"
   xmlns:inkscape="http://www.inkscape.org/namespaces/inkscape"
   version="1.0"
   width="96"
   height="96"
   id="svg3662"
   inkscape:version="0.48.3.1 r9886"
   sodipodi:docname="gcolor2.svg">
  <sodipodi:namedview
     pagecolor="#ffffff"
     bordercolor="#666666"
     borderopacity="1"
     objecttolerance="10"
     gridtolerance="10"
     guidetolerance="10"
     inkscape:pageopacity="0"
     inkscape:pageshadow="2"
     inkscape:window-width="1080"
     inkscape:window-height="764"
     id="namedview53"
     showgrid="false"
     inkscape:zoom="4.94"
     inkscape:cx="48"
     inkscape:cy="50.327935"
     inkscape:window-x="0"
     inkscape:window-y="24"
     inkscape:window-maximized="0"
     inkscape:current-layer="svg3662"
     inkscape:snap-global="false"
     fit-margin-top="0"
     fit-margin-left="0"
     fit-margin-right="0"
     fit-margin-bottom="0" />
  <metadata
     id="metadata55">
    <rdf:RDF>
      <cc:Work
         rdf:about="">
        <dc:format>image/svg+xml</dc:format>
        <dc:type
           rdf:resource="http://purl.org/dc/dcmitype/StillImage" />
        <dc:title />
      </cc:Work>
    </rdf:RDF>
  </metadata>
  <defs
     id="defs3664">
    <linearGradient
       id="linearGradient3236">
      <stop
         offset="0"
         style="stop-color:#bebebe;stop-opacity:1"
         id="stop3240" />
      <stop
         offset="1"
         style="stop-color:#e6e6e6;stop-opacity:1"
         id="stop3244" />
    </linearGradient>
    <filter
       color-interpolation-filters="sRGB"
       inkscape:collect="always"
       id="filter3853-4">
      <feGaussianBlur
         inkscape:collect="always"
         stdDeviation="0.61144139"
         id="feGaussianBlur3855-8" />
    </filter>
    <linearGradient
       gradientTransform="translate(-484,-674)"
       y2="736.55688"
       x2="579.72852"
       y1="732.41022"
       x1="579.72852"
       gradientUnits="userSpaceOnUse"
       id="XMLID_11_-3-794">
      <stop
         id="stop3258"
         style="stop-color:#000000;stop-opacity:1;"
         offset="0" />
      <stop
         id="stop3260"
         style="stop-color:#95e858;stop-opacity:1;"
         offset="1" />
    </linearGradient>
    <linearGradient
       id="linearGradient3205-3-219">
      <stop
         style="stop-color:#0a0a0a;stop-opacity:1;"
         offset="0"
         id="stop3270" />
      <stop
         id="stop3272"
         offset="0.5"
         style="stop-color:#0a0a0a;stop-opacity:1;" />
      <stop
         style="stop-color:#ffffff;stop-opacity:1;"
         offset="1"
         id="stop3274" />
    </linearGradient>
    <linearGradient
       gradientTransform="translate(-484,-674)"
       y2="678.3681"
       x2="538.77338"
       y1="674"
       x1="538.77338"
       gradientUnits="userSpaceOnUse"
       id="XMLID_10_-9-784">
      <stop
         id="stop3278"
         style="stop-color:#0b4c26"
         offset="0" />
      <stop
         id="stop3280"
         style="stop-color:#95e858;stop-opacity:1;"
         offset="1" />
    </linearGradient>
    <linearGradient
       inkscape:collect="always"
       id="linearGradient3182-9-946">
      <stop
         style="stop-color:#ffffff;stop-opacity:1;"
         offset="0"
         id="stop3284" />
      <stop
         style="stop-color:#ffffff;stop-opacity:0;"
         offset="1"
         id="stop3286" />
    </linearGradient>
    <linearGradient
       inkscape:collect="always"
       id="linearGradient3244-0-868">
      <stop
         style="stop-color:#0a0a0a;stop-opacity:1;"
         offset="0"
         id="stop3302" />
      <stop
         style="stop-color:#0a0a0a;stop-opacity:0;"
         offset="1"
         id="stop3304" />
    </linearGradient>
    <linearGradient
       id="linearGradient3892-1-568">
      <stop
         id="stop3314"
         offset="0"
         style="stop-color:#ffffe8;stop-opacity:1;" />
      <stop
         id="stop3316"
         offset="1"
         style="stop-color:#ffffff;stop-opacity:0;" />
    </linearGradient>
    <linearGradient
       id="greylighttograyw-1-405">
      <stop
         style="stop-color:#c9c9cc;stop-opacity:1.0000000;"
         offset="0.0000000"
         id="stop3332" />
      <stop
         style="stop-color:#ffffff;stop-opacity:1.0000000;"
         offset="1.0000000"
         id="stop3334" />
    </linearGradient>
    <linearGradient
       id="zerotowhitetozero-4-678">
      <stop
         style="stop-color:#ffffff;stop-opacity:0.0000000;"
         offset="0.0000000"
         id="stop3338" />
      <stop
         style="stop-color:#ffffff;stop-opacity:0.0000000;"
         offset="0.33462518"
         id="stop3340" />
      <stop
         style="stop-color:#ffffff;stop-opacity:1.0000000;"
         offset="0.55554277"
         id="stop3342" />
      <stop
         style="stop-color:#ffffff;stop-opacity:0.0000000;"
         offset="0.74528182"
         id="stop3344" />
      <stop
         style="stop-color:#ffffff;stop-opacity:0.0000000;"
         offset="1.0000000"
         id="stop3346" />
    </linearGradient>
    <linearGradient
       id="light100to0-5-488">
      <stop
         style="stop-color:#ffffff;stop-opacity:1.0000000;"
         offset="0.0000000"
         id="stop3362" />
      <stop
         style="stop-color:#ffffff;stop-opacity:0.0000000;"
         offset="1.0000000"
         id="stop3364" />
    </linearGradient>
    <linearGradient
       id="sadow75to0w-9-270">
      <stop
         style="stop-color:#0a0a0a;stop-opacity:0.72941178;"
         offset="0.0000000"
         id="stop3380" />
      <stop
         style="stop-color:#ffffff;stop-opacity:0.0000000;"
         offset="1.0000000"
         id="stop3382" />
    </linearGradient>
    <linearGradient
       id="zerotowhitetozero-4-992">
      <stop
         style="stop-color:#ffffff;stop-opacity:0.0000000;"
         offset="0.0000000"
         id="stop3386" />
      <stop
         style="stop-color:#ffffff;stop-opacity:0.0000000;"
         offset="0.33462518"
         id="stop3388" />
      <stop
         style="stop-color:#ffffff;stop-opacity:1.0000000;"
         offset="0.55554277"
         id="stop3390" />
      <stop
         style="stop-color:#ffffff;stop-opacity:0.0000000;"
         offset="0.74528182"
         id="stop3392" />
      <stop
         style="stop-color:#ffffff;stop-opacity:0.0000000;"
         offset="1.0000000"
         id="stop3394" />
    </linearGradient>
    <filter
       inkscape:collect="always"
       id="filter4010">
      <feGaussianBlur
         inkscape:collect="always"
         stdDeviation="0.957072"
         id="feGaussianBlur4012" />
    </filter>
    <linearGradient
       inkscape:collect="always"
       xlink:href="#linearGradient3236"
       id="linearGradient4353"
       gradientUnits="userSpaceOnUse"
       gradientTransform="matrix(0.75,0,0,0.75,-1.0728836e-6,7.874847)"
       x1="64"
       y1="98.144615"
       x2="64"
       y2="9.0004082" />
    <radialGradient
       inkscape:collect="always"
       xlink:href="#linearGradient3892-1-568"
       id="radialGradient3425"
       gradientUnits="userSpaceOnUse"
       gradientTransform="matrix(1.8671598,-1.1766071,0.44591418,0.70762343,-96.28378,132.62178)"
       cx="104.47214"
       cy="16.776716"
       fx="108.11813"
       fy="11.444658"
       r="12.184338" />
    <linearGradient
       inkscape:collect="always"
       xlink:href="#linearGradient3244-0-868"
       id="linearGradient3440"
       gradientUnits="userSpaceOnUse"
       gradientTransform="matrix(0.2308893,0.20221319,-0.08109476,0.09229111,30.298819,-30.326527)"
       x1="135.68752"
       y1="299.44708"
       x2="197.88403"
       y2="162.98607" />
    <linearGradient
       inkscape:collect="always"
       xlink:href="#linearGradient3182-9-946"
       id="linearGradient3449"
       gradientUnits="userSpaceOnUse"
       gradientTransform="matrix(0.5789227,-0.03913,0.04549547,0.56577121,7.2765835,4.8569771)"
       x1="73.75"
       y1="34.015625"
       x2="92.71875"
       y2="34.015625" />
    <linearGradient
       inkscape:collect="always"
       xlink:href="#XMLID_10_-9-784"
       id="linearGradient3452"
       gradientUnits="userSpaceOnUse"
       gradientTransform="matrix(0.2308893,0.20221319,-0.08109476,0.09229111,30.298819,-30.326527)"
       x1="183.57243"
       y1="247.49863"
       x2="187.18298"
       y2="123.06261" />
    <radialGradient
       inkscape:collect="always"
       xlink:href="#linearGradient3205-3-219"
       id="radialGradient3455"
       gradientUnits="userSpaceOnUse"
       gradientTransform="matrix(0.17923981,-0.19008187,0.86186626,0.77630969,17.634441,11.972282)"
       cx="91.509644"
       cy="33.319088"
       fx="94.437843"
       fy="33.117798"
       r="9.8092251" />
    <linearGradient
       inkscape:collect="always"
       xlink:href="#XMLID_11_-3-794"
       id="linearGradient3461"
       gradientUnits="userSpaceOnUse"
       gradientTransform="matrix(0.56426387,-0.03403366,0.04148174,0.58112285,8.7983297,3.7273868)"
       x1="132.08015"
       y1="48.816029"
       x2="103.92957"
       y2="25.544348" />
    <linearGradient
       inkscape:collect="always"
       xlink:href="#sadow75to0w-9-270"
       id="linearGradient4280"
       gradientUnits="userSpaceOnUse"
       gradientTransform="matrix(1.161617,-0.04739154,0.02691281,0.545879,5.16733,-400.1846)"
       x1="-435.29645"
       y1="403.28021"
       x2="-419.48849"
       y2="405.64288" />
    <linearGradient
       inkscape:collect="always"
       xlink:href="#zerotowhitetozero-4-992"
       id="linearGradient4282"
       gradientUnits="userSpaceOnUse"
       gradientTransform="matrix(1.161617,-0.04739154,0.02691281,0.545879,5.16733,-400.1846)"
       x1="-432.85263"
       y1="405.99652"
       x2="-420.16779"
       y2="406.47195" />
    <radialGradient
       inkscape:collect="always"
       xlink:href="#light100to0-5-488"
       id="radialGradient4320"
       gradientUnits="userSpaceOnUse"
       gradientTransform="matrix(0.09173931,0.13107933,-0.17382383,0.13007474,53.162752,147.34613)"
       spreadMethod="pad"
       cx="-543.27472"
       cy="-157.50522"
       fx="-541.46826"
       fy="-156.95514"
       r="20.501772" />
    <linearGradient
       inkscape:collect="always"
       xlink:href="#zerotowhitetozero-4-678"
       id="linearGradient4326"
       gradientUnits="userSpaceOnUse"
       gradientTransform="matrix(0.61939043,-0.34468506,0.10507805,0.33067903,-54.216298,11.181379)"
       x1="111.31033"
       y1="198.13455"
       x2="135.19012"
       y2="235.01132" />
    <linearGradient
       inkscape:collect="always"
       xlink:href="#greylighttograyw-1-405"
       id="linearGradient4329"
       gradientUnits="userSpaceOnUse"
       gradientTransform="matrix(0.52063506,-0.2683342,0.02428436,0.37482004,-61.892157,-163.2497)"
       spreadMethod="reflect"
       x1="139.84422"
       y1="169.79622"
       x2="159.0388"
       y2="203.17725" />
  </defs>
  <g
     id="g4245">
    <rect
       style="fill:#1a1a1a;fill-opacity:1;stroke:url(#linearGradient4353);stroke-width:1.00023937;stroke-linecap:round;stroke-linejoin:round;stroke-miterlimit:4;stroke-opacity:1;stroke-dasharray:none;stroke-dashoffset:0.50000001"
       id="rect2722"
       y="15.000243"
       x="1.1250887"
       ry="1.9999999"
       rx="2.0833404"
       height="65.999512"
       width="93.749825" />
    <rect
       style="fill:#ff2a7f;fill-opacity:1;fill-rule:evenodd;stroke:none;display:inline;enable-background:new"
       id="rect2716"
       y="19.874847"
       x="5.999999"
       height="56.25"
       width="21" />
    <rect
       style="opacity:0.3;fill:none;stroke:#000000;stroke-width:1.00023937;stroke-linecap:round;stroke-linejoin:round;stroke-miterlimit:4;stroke-opacity:1;stroke-dasharray:none;stroke-dashoffset:0.50000001"
       id="rect3248"
       y="15.750089"
       x="1.8750887"
       ry="1.9545543"
       rx="2.0500069"
       height="64.499825"
       width="92.249825" />
    <rect
       width="21"
       height="56.25"
       x="69"
       y="19.874847"
       id="rect3057"
       style="fill:#0066ff;fill-opacity:1;fill-rule:evenodd;stroke:none;display:inline;enable-background:new" />
    <rect
       style="fill:#00d4aa;fill-opacity:1;fill-rule:evenodd;stroke:none;display:inline;enable-background:new"
       id="rect3061"
       y="19.874847"
       x="48"
       height="56.25"
       width="21" />
    <rect
       width="21"
       height="56.25"
       x="27"
       y="19.874847"
       id="rect3063"
       style="fill:#ffd42a;fill-opacity:1;fill-rule:evenodd;stroke:none;display:inline;enable-background:new" />
    <path
       sodipodi:nodetypes="ssccsss"
       inkscape:connector-curvature="0"
       id="rect4227"
       d="M 3.21875,15.5 C 2.3222575,15.5 1.625,16.171601 1.625,17 l 0,39 92.75,-25 0,-14 c 0,-0.828399 -0.697258,-1.5 -1.59375,-1.5 z"
       style="opacity:0.35;fill:#ffffff;fill-opacity:1;stroke:none" />
  </g>
  <g
     id="g4388">
    <path
       style="opacity:0.5;fill:#000000;fill-opacity:1;stroke:none;filter:url(#filter4010)"
       d="M 77.70724,6.4568256 C 72.003928,0.76998933 66.323861,3.0138974 60.426344,12.244435 c -2.464265,3.856958 -5.783319,1.743184 -10.693376,7.30892 -2.502727,2.836936 -0.125554,5.267 -3.498577,8.68816 L 25.474058,49.298123 c -4.485659,4.549674 -3.509095,7.236167 -6.869202,11.179568 -2.334539,2.739802 0.666809,9.504767 4.677118,7.572567 6.356281,-3.06251 7.911063,-2.572146 11.808555,-6.545339 L 55.910631,40.280427 c 5.373483,-5.477853 4.09819,0.124682 9.470451,-4.730838 4.780655,-4.320819 1.817457,-7.056857 6.447665,-10.592131 7.364711,-5.623133 11.581805,-12.813796 5.878493,-18.5006324 z"
       id="path3341"
       inkscape:connector-curvature="0"
       sodipodi:nodetypes="zssssssssssz" />
    <g
       id="g4370">
      <g
         id="g4249">
        <path
           style="fill:url(#linearGradient3461);fill-opacity:1;stroke:none"
           d="m 65.403322,7.1694867 c -2.247875,2.3773163 -3.809913,7.4957893 -7.212285,7.7627243 -3.172404,5.53382 5.486614,13.647657 11.303577,10.609481 -0.16521,-3.657404 5.201703,-5.743554 7.279694,-7.941201 C 85.13912,8.7540085 72.985683,-0.84949462 65.403322,7.1694867 z"
           id="rect10614"
           sodipodi:nodetypes="cccss"
           inkscape:connector-curvature="0" />
        <path
           style="opacity:0.35655739;fill:url(#radialGradient3455);fill-opacity:1;stroke:none"
           d="M 58.430797,14.965434 C 54.877371,20.085036 63.995543,27.810049 69.337121,25.490545 69.070472,22.13286 62.193914,16.11309 58.430797,14.965434 z"
           id="path3192"
           sodipodi:nodetypes="ccc"
           inkscape:connector-curvature="0" />
        <path
           id="path3144"
           d="m 67.657688,29.778431 -0.985919,1.077893 -2.388422,2.440805 c -1.980873,0.175413 -3.37709,-5.055715 -6.439193,-7.737488 -2.771735,-2.42749 -7.513562,-2.855424 -7.90242,-4.82371 l 3.658083,-3.817678 c 1.392366,-1.584597 5.662308,0.01061 9.47003,3.646059 3.827117,3.653969 5.959036,7.581317 4.610332,9.187927"
           style="fill:url(#linearGradient3452);fill-opacity:1;stroke:none"
           sodipodi:nodetypes="cccsccsc"
           inkscape:connector-curvature="0" />
        <path
           style="fill:url(#linearGradient3449);fill-opacity:1;stroke:none"
           d="m 57.08293,16.653468 -5.472975,5.685436 c 0.857253,0.434646 1.94848,0.853031 3.054485,1.340096 l 5.28521,-5.549057 c -1.058961,-0.634285 -1.946416,-1.192149 -2.86672,-1.476475 z m 4.093454,2.26396 -5.244376,5.369176 c 0.442541,0.233964 0.876553,0.479135 1.280362,0.766728 l 5.017373,-5.264661 c -0.393442,-0.313332 -0.660317,-0.598163 -1.053359,-0.871243 z"
           id="path3179"
           sodipodi:nodetypes="cccccccccc"
           inkscape:connector-curvature="0" />
        <path
           style="fill:#2d5016;fill-opacity:1;stroke:none"
           d="m 64.393196,33.173862 c -1.392366,1.584626 -5.207082,-0.260344 -9.171382,-3.732258 -3.964304,-3.471943 -6.584372,-7.262588 -5.192006,-8.847215 1.392368,-1.584596 5.222909,0.441633 9.187213,3.913576 3.94149,3.451953 6.547374,7.033097 5.198668,8.639702"
           id="path5651"
           sodipodi:nodetypes="csssc"
           inkscape:connector-curvature="0" />
        <path
           sodipodi:nodetypes="cccssccccccsc"
           style="opacity:0;fill:url(#linearGradient3440);fill-opacity:1;stroke:none"
           d="m 55.170362,16.268109 c -0.677548,0.03776 -1.21486,0.253383 -1.562952,0.649533 -1.239668,1.295144 -3.592677,3.669715 -3.719005,3.885433 -1.148679,1.653547 1.570264,5.252455 5.430862,8.633574 3.848531,3.370523 7.46236,5.19917 8.944426,3.854165 0.03479,-0.03158 0.06837,-0.0613 0.100773,-0.09641 l 0.03462,-0.02036 0.01654,-0.01901 2.255824,-2.301693 0.980394,-1.068757 0.0331,-0.03803 C 69.033645,28.13995 66.854158,24.22638 63.02704,20.57241 60.171249,17.845823 57.203039,16.154829 55.170391,16.268108 z"
           id="path3252"
           inkscape:connector-curvature="0" />
        <path
           style="opacity:0.81188121;fill:url(#radialGradient3425);fill-opacity:1;fill-rule:evenodd;stroke:none;filter:url(#filter3853-4)"
           d="m 112.08023,11.348759 c -0.17415,0.0068 -0.34605,0.0211 -0.52074,0.03631 -3.4595,3.665776 -5.84475,8.933215 -6.86342,14.604939 4.23352,-3.593889 7.46543,-3.017935 11.42031,-5.813186 2.24914,-1.589661 4.10773,-5.260525 1.60934,-7.142831 -1.70853,-1.287212 -3.66246,-1.762348 -5.64549,-1.68523 z m -4.90831,1.20756 c -0.87545,0.378363 -1.75009,0.821002 -2.56296,1.320944 -4.38029,3.21942 -4.743239,6.841298 -11.011084,12.908938 l 6.092901,5.035982 c 0.738203,-1.075708 1.419533,-1.997038 2.096333,-2.815479 1.39137,-7.801525 3.34312,-13.008267 5.38481,-16.450385 z"
           id="path3215"
           inkscape:connector-curvature="0"
           transform="matrix(0.55561792,-0.03728993,0.0433928,0.54299338,8.6106445,2.5179935)" />
      </g>
      <g
         id="g4338">
        <path
           inkscape:connector-curvature="0"
           style="opacity:0.75;fill:#0a0a0a;fill-opacity:1;fill-rule:evenodd;stroke:#0a0a0a;stroke-width:0.80228138"
           d="m 52.678161,22.8579 c -0.25121,0.258536 -1.771155,2.031337 -2.022547,2.290086 -0.02796,0.02566 -0.06033,0.04216 -0.08787,0.06847 -8.84372,9.100589 -17.284627,17.737883 -26.128345,26.838476 0.164546,-0.169122 0.344404,-0.283686 0.515734,-0.42641 -0.062,0.06382 -0.124976,0.128514 -0.186979,0.192336 -0.03069,0.03255 -0.712931,0.743141 -1.232883,2.254587 -0.519947,1.511441 -0.853798,4.159289 -2.594512,5.91294 -1.485643,1.584076 -0.984378,2.843217 -0.193907,3.821677 0.672037,0.831896 2.740311,2.026623 3.809857,0.969026 2.013412,-1.908953 2.375317,-2.19559 4.140402,-2.835245 0.850608,-0.123748 2.025703,-0.442841 2.760626,-0.714808 0.734922,-0.271968 1.523155,-0.592782 2.078559,-1.172843 2.65521,-2.773088 6.940905,-7.373886 9.241159,-9.750955 5.296883,-5.424573 18.746788,-19.257701 18.593181,-19.2889 0.736734,-1.976536 -1.685174,-3.951244 -2.881489,-4.973385 -1.220747,-1.043025 -3.770595,-3.301947 -5.810982,-3.18505 z"
           id="path3411"
           sodipodi:nodetypes="ccccccccccczscczc" />
        <path
           id="path2770"
           d="M 51.44605,24.195362 C 42.602335,33.295924 33.647267,42.5455 24.803549,51.646087 c -0.03071,0.03249 -0.713713,0.735574 -1.233664,2.247014 -0.519945,1.511459 -0.338478,4.060121 -2.595112,5.920653 -1.485619,1.584077 -0.986263,2.845438 -0.195797,3.823916 0.09022,0.111678 0.246382,0.228746 0.392001,0.34682 0.126458,0.134386 0.252386,0.279206 0.369587,0.360527 1.039867,0.721512 2.353444,1.143961 3.893558,-0.389505 1.782385,-2.301009 4.393639,-2.255833 5.909691,-2.84214 1.516025,-0.586295 2.198351,-1.289978 2.229948,-1.32167 C 42.40583,50.680292 51.384225,41.452381 60.216264,32.340974 58.68358,31.995638 56.735162,30.613867 55.066799,29.060409 53.392526,27.510135 51.878456,25.676198 51.44605,24.195362 z"
           style="fill:url(#linearGradient4329);fill-opacity:1;fill-rule:evenodd;stroke:none"
           inkscape:connector-curvature="0" />
        <path
           sodipodi:nodetypes="csccscc"
           id="path2000"
           d="m 19.598332,54.753489 c 2.880527,-3.006463 6.356069,-2.677027 9.176774,-0.785487 2.376709,1.593792 4.922684,5.03343 2.192777,7.781938 9.720058,-9.978248 19.483362,-19.980584 29.203392,-29.958834 2.793631,-2.49053 -0.808466,-5.044001 -2.886378,-6.881628 -2.522755,-2.231034 -6.595923,-1.97671 -9.297001,0.609176 -9.627714,9.921647 -18.761904,19.31319 -28.389564,29.234835 z"
           style="fill:url(#linearGradient4326);fill-opacity:1;fill-rule:evenodd;stroke:none"
           inkscape:connector-curvature="0" />
        <path
           sodipodi:nodetypes="cccccccccc"
           id="path7323"
           d="m 23.721317,52.530983 c -0.326465,0.437752 -0.254459,0.214501 -0.36907,0.897292 -0.863574,1.972464 -0.337494,4.057483 -2.594133,5.918022 -1.485617,1.584064 -0.984354,2.843199 -0.193906,3.821671 0.672066,0.83189 2.740335,2.026623 3.809883,0.96905 2.013384,-1.908958 3.844791,-2.073189 5.6099,-2.712838 0.785986,-0.192903 1.558532,-0.528453 2.256574,-1.082749 0.07546,-0.07736 0.159331,-0.164165 0.234917,-0.241665 -0.505196,-4.068692 -2.66262,-6.272598 -7.943781,-8.101832 l -0.810384,0.533049 z"
           style="opacity:0.82010582;fill:url(#radialGradient4320);fill-opacity:1;fill-rule:evenodd;stroke:none"
           inkscape:connector-curvature="0" />
        <g
           transform="matrix(0.1435634,0.15170107,-0.15088821,0.13550619,67.137756,157.42849)"
           id="g11960">
          <path
             id="path8110"
             d="m -471.76248,-159.41569 c 0.11446,2.32266 -3.80403,4.37148 -8.74661,4.57309 -4.94275,0.20161 -9.04707,-1.51977 -9.1616,-3.84252 -0.11461,-2.32265 3.80395,-4.37139 8.74661,-4.57309 4.91423,-0.20051 9.00111,1.49707 9.15935,3.8045"
             style="fill:url(#linearGradient4280);fill-opacity:1;stroke:none"
             inkscape:connector-curvature="0" />
          <path
             id="path8872"
             d="m -471.76248,-159.41569 c 0.11446,2.32266 -3.80403,4.37148 -8.74661,4.57309 -4.94275,0.20161 -9.04707,-1.51977 -9.1616,-3.84252 -0.11461,-2.32265 3.80395,-4.37139 8.74661,-4.57309 4.91423,-0.20051 9.00111,1.49707 9.15935,3.8045"
             style="opacity:0.82539685;fill:url(#linearGradient4282);fill-opacity:1;stroke:none"
             inkscape:connector-curvature="0" />
        </g>
      </g>
    </g>
  </g>
</svg>
