<?xml version="1.0" encoding="UTF-8" standalone="no"?>
<!-- Created with Inkscape (http://www.inkscape.org/) -->

<svg
   xmlns:dc="http://purl.org/dc/elements/1.1/"
   xmlns:cc="http://creativecommons.org/ns#"
   xmlns:rdf="http://www.w3.org/1999/02/22-rdf-syntax-ns#"
   xmlns:svg="http://www.w3.org/2000/svg"
   xmlns="http://www.w3.org/2000/svg"
   xmlns:xlink="http://www.w3.org/1999/xlink"
   xmlns:sodipodi="http://sodipodi.sourceforge.net/DTD/sodipodi-0.dtd"
   xmlns:inkscape="http://www.inkscape.org/namespaces/inkscape"
   width="96"
   height="96"
   id="svg8025"
   sodipodi:version="0.32"
   inkscape:version="0.48.3.1 r9886"
   sodipodi:docname="gconf-editor.svg"
   inkscape:output_extension="org.inkscape.output.svg.inkscape"
   version="1.1"
   inkscape:export-filename="preferences-desktop.png"
   inkscape:export-xdpi="90"
   inkscape:export-ydpi="90">
  <sodipodi:namedview
     id="base"
     pagecolor="#ffffff"
     bordercolor="#666666"
     borderopacity="1.0"
     inkscape:pageopacity="0.0"
     inkscape:pageshadow="2"
     inkscape:zoom="4"
     inkscape:cx="48"
     inkscape:cy="48"
     inkscape:current-layer="layer1"
     showgrid="true"
     inkscape:grid-bbox="true"
     inkscape:document-units="px"
     inkscape:window-width="1010"
     inkscape:window-height="718"
     inkscape:window-x="6"
     inkscape:window-y="24"
     inkscape:object-paths="false"
     inkscape:snap-midpoints="true"
     inkscape:window-maximized="0"
     fit-margin-top="0"
     fit-margin-left="0"
     fit-margin-right="0"
     fit-margin-bottom="0" />
  <defs
     id="defs8027">
    <linearGradient
       id="linearGradient2257">
      <stop
         id="stop2259"
         offset="0"
         style="stop-color:#b4942a;stop-opacity:1;" />
      <stop
         id="stop2261"
         offset="1"
         style="stop-color:#e4dcc9;stop-opacity:1" />
    </linearGradient>
    <linearGradient
       id="linearGradient2598">
      <stop
         id="stop2600"
         offset="0"
         style="stop-color:#252525;stop-opacity:1;" />
      <stop
         style="stop-color:#252525;stop-opacity:1;"
         offset="0.5"
         id="stop2606" />
      <stop
         id="stop2608"
         offset="0.75"
         style="stop-color:#252525;stop-opacity:1;" />
      <stop
         id="stop2602"
         offset="1"
         style="stop-color:#000000;stop-opacity:1;" />
    </linearGradient>
    <linearGradient
       id="linearGradient3058">
      <stop
         id="stop3060"
         offset="0"
         style="stop-color:#9a7600;stop-opacity:1;" />
      <stop
         style="stop-color:#e3ad00;stop-opacity:1;"
         offset="0.09292036"
         id="stop3066" />
      <stop
         id="stop3070"
         offset="0.5043171"
         style="stop-color:#ffcd2c;stop-opacity:1;" />
      <stop
         id="stop3068"
         offset="0.91571385"
         style="stop-color:#e3ad00;stop-opacity:1;" />
      <stop
         id="stop3062"
         offset="1"
         style="stop-color:#b98d00;stop-opacity:1;" />
    </linearGradient>
    <linearGradient
       id="linearGradient3225">
      <stop
         id="stop3227"
         offset="0"
         style="stop-color:#ffffff;stop-opacity:1;" />
      <stop
         id="stop3229"
         offset="1"
         style="stop-color:#aeaeae;stop-opacity:1;" />
    </linearGradient>
    <linearGradient
       inkscape:collect="always"
       id="linearGradient5928">
      <stop
         style="stop-color:#000000;stop-opacity:1;"
         offset="0"
         id="stop5930" />
      <stop
         style="stop-color:#000000;stop-opacity:0;"
         offset="1"
         id="stop5932" />
    </linearGradient>
    <linearGradient
       id="linearGradient4174">
      <stop
         style="stop-color:#ffffff;stop-opacity:1;"
         offset="0"
         id="stop4176" />
      <stop
         style="stop-color:#3e3e3e;stop-opacity:0;"
         offset="1"
         id="stop4178" />
    </linearGradient>
    <linearGradient
       id="linearGradient6818">
      <stop
         style="stop-color:#ffffff;stop-opacity:1;"
         offset="0"
         id="stop6820" />
      <stop
         style="stop-color:#3e3e3e;stop-opacity:0;"
         offset="1"
         id="stop6822" />
    </linearGradient>
    <linearGradient
       id="linearGradient22831">
      <stop
         style="stop-color:#ffffff;stop-opacity:1;"
         offset="0"
         id="stop22833" />
      <stop
         style="stop-color:#888a85;stop-opacity:0;"
         offset="1"
         id="stop22835" />
    </linearGradient>
    <linearGradient
       id="linearGradient10539">
      <stop
         style="stop-color:#ffffff;stop-opacity:1;"
         offset="0"
         id="stop10541" />
      <stop
         style="stop-color:#888a85;stop-opacity:0;"
         offset="1"
         id="stop10543" />
    </linearGradient>
    <linearGradient
       id="linearGradient25485">
      <stop
         style="stop-color:#000000;stop-opacity:1;"
         offset="0"
         id="stop25487" />
      <stop
         style="stop-color:#000000;stop-opacity:0;"
         offset="1"
         id="stop25489" />
    </linearGradient>
    <linearGradient
       inkscape:collect="always"
       id="linearGradient26369">
      <stop
         style="stop-color:#000000;stop-opacity:1;"
         offset="0"
         id="stop26371" />
      <stop
         style="stop-color:#000000;stop-opacity:0;"
         offset="1"
         id="stop26373" />
    </linearGradient>
    <linearGradient
       inkscape:collect="always"
       id="linearGradient6184">
      <stop
         style="stop-color:#ffffff;stop-opacity:1;"
         offset="0"
         id="stop6186" />
      <stop
         style="stop-color:#ffffff;stop-opacity:0;"
         offset="1"
         id="stop6188" />
    </linearGradient>
    <linearGradient
       id="linearGradient17579">
      <stop
         style="stop-color:#ffffff;stop-opacity:1;"
         offset="0"
         id="stop17581" />
      <stop
         style="stop-color:#000000;stop-opacity:0;"
         offset="1"
         id="stop17583" />
    </linearGradient>
    <linearGradient
       id="linearGradient15825">
      <stop
         style="stop-color:#ffffff;stop-opacity:1;"
         offset="0"
         id="stop15827" />
      <stop
         style="stop-color:#555753;stop-opacity:0;"
         offset="1"
         id="stop15829" />
    </linearGradient>
    <linearGradient
       inkscape:collect="always"
       id="linearGradient11428">
      <stop
         style="stop-color:#ffffff;stop-opacity:1;"
         offset="0"
         id="stop11430" />
      <stop
         style="stop-color:#ffffff;stop-opacity:0;"
         offset="1"
         id="stop11432" />
    </linearGradient>
    <linearGradient
       id="linearGradient13184">
      <stop
         style="stop-color:#000000;stop-opacity:0.66666669;"
         offset="0"
         id="stop13186" />
      <stop
         style="stop-color:#000000;stop-opacity:0;"
         offset="1"
         id="stop13188" />
    </linearGradient>
    <radialGradient
       inkscape:collect="always"
       xlink:href="#linearGradient5928"
       id="radialGradient3416"
       gradientUnits="userSpaceOnUse"
       gradientTransform="matrix(1,0,0,0.931884,3.581214,-10.16833)"
       cx="154.17799"
       cy="33.309246"
       fx="154.17799"
       fy="33.309246"
       r="11.547417" />
    <radialGradient
       inkscape:collect="always"
       xlink:href="#linearGradient4174"
       id="radialGradient3418"
       gradientUnits="userSpaceOnUse"
       gradientTransform="matrix(5.093182,0.03710751,-0.03342812,4.588167,-711.6483,-118.8231)"
       cx="173.35292"
       cy="29.473955"
       fx="173.35292"
       fy="29.473955"
       r="7.125" />
    <radialGradient
       inkscape:collect="always"
       xlink:href="#linearGradient6818"
       id="radialGradient3420"
       gradientUnits="userSpaceOnUse"
       gradientTransform="matrix(7.899763,-0.133352,0.10295,6.09874,-1031.154,-297.761)"
       cx="150.17821"
       cy="56.316689"
       fx="150.17821"
       fy="56.316689"
       r="4.6959705" />
    <radialGradient
       inkscape:collect="always"
       xlink:href="#linearGradient22831"
       id="radialGradient3422"
       gradientUnits="userSpaceOnUse"
       gradientTransform="matrix(-0.9888773,-0.08029853,-0.08771916,0.89992606,132.7951,44.829622)"
       cx="78.344902"
       cy="47.896503"
       fx="78.344902"
       fy="47.896503"
       r="59.069851" />
    <radialGradient
       inkscape:collect="always"
       xlink:href="#linearGradient10539"
       id="radialGradient3424"
       gradientUnits="userSpaceOnUse"
       gradientTransform="matrix(-2.2880855,-0.19871642,-0.71953856,6.6139251,543.75164,116.59793)"
       cx="222.09877"
       cy="1.2351388"
       fx="222.09877"
       fy="1.2351388"
       r="16.390625" />
    <radialGradient
       inkscape:collect="always"
       xlink:href="#linearGradient25485"
       id="radialGradient3426"
       gradientUnits="userSpaceOnUse"
       gradientTransform="matrix(-0.27729784,-0.08128516,-0.29060012,0.84991118,106.09086,103.77823)"
       cx="302.08856"
       cy="-10.284327"
       fx="302.08856"
       fy="-10.284327"
       r="59.073311" />
    <linearGradient
       inkscape:collect="always"
       xlink:href="#linearGradient26369"
       id="linearGradient3428"
       gradientUnits="userSpaceOnUse"
       gradientTransform="matrix(-0.9888773,-0.08029853,-0.08971517,0.9204041,132.88431,43.620502)"
       x1="114.74419"
       y1="51.131916"
       x2="141.67282"
       y2="13.184787" />
    <radialGradient
       inkscape:collect="always"
       xlink:href="#linearGradient10539"
       id="radialGradient3430"
       gradientUnits="userSpaceOnUse"
       gradientTransform="matrix(2.3781044,-0.3075006,1.0402511,6.8677766,-437.14482,108.10564)"
       cx="224.46358"
       cy="-4.2258649"
       fx="224.46358"
       fy="-4.2258649"
       r="16.390625" />
    <radialGradient
       inkscape:collect="always"
       xlink:href="#linearGradient6184"
       id="radialGradient3432"
       gradientUnits="userSpaceOnUse"
       gradientTransform="matrix(-0.9888773,-0.08029853,-0.11923172,1.223218,135.80936,13.61185)"
       cx="18.988297"
       cy="99.099472"
       fx="18.988297"
       fy="99.099472"
       r="4.9090157" />
    <radialGradient
       inkscape:collect="always"
       xlink:href="#linearGradient6184"
       id="radialGradient3434"
       gradientUnits="userSpaceOnUse"
       gradientTransform="matrix(-0.9888773,-0.08029853,-0.11923172,1.223218,135.80936,13.61185)"
       cx="18.988297"
       cy="99.099472"
       fx="18.988297"
       fy="99.099472"
       r="4.9090157" />
    <radialGradient
       inkscape:collect="always"
       xlink:href="#linearGradient17579"
       id="radialGradient3436"
       gradientUnits="userSpaceOnUse"
       gradientTransform="matrix(0.34785815,-3.9048973,4.9437077,-1.4227744,-464.81904,414.18011)"
       cx="64.035408"
       cy="72.25351"
       fx="64.035408"
       fy="72.25351"
       r="8.0720015" />
    <radialGradient
       inkscape:collect="always"
       xlink:href="#linearGradient15825"
       id="radialGradient3438"
       gradientUnits="userSpaceOnUse"
       gradientTransform="matrix(0.7075689,0.04862493,0.12205869,9.4967613,-128.22628,-562.31502)"
       cx="77.371063"
       cy="64.803642"
       fx="77.371063"
       fy="64.803642"
       r="4.1422901" />
    <radialGradient
       inkscape:collect="always"
       xlink:href="#linearGradient11428"
       id="radialGradient3440"
       gradientUnits="userSpaceOnUse"
       gradientTransform="matrix(0.57419646,0.00539057,-0.07365323,8.6951342,-103.29547,-275.8088)"
       cx="94.138443"
       cy="38.927982"
       fx="94.138443"
       fy="38.927982"
       r="6.8733773" />
    <linearGradient
       inkscape:collect="always"
       xlink:href="#linearGradient13184"
       id="linearGradient3442"
       gradientUnits="userSpaceOnUse"
       gradientTransform="matrix(0.72835753,-6.1698378e-7,1.2572878e-7,0.94172507,-115.45406,12.106397)"
       x1="79.735275"
       y1="48.538784"
       x2="95"
       y2="48.538784" />
    <radialGradient
       inkscape:collect="always"
       xlink:href="#linearGradient11428"
       id="radialGradient3444"
       gradientUnits="userSpaceOnUse"
       gradientTransform="matrix(0.55957803,0.00461311,-0.07177933,7.4397634,-100.94726,-219.17656)"
       cx="94.138443"
       cy="38.927982"
       fx="94.138443"
       fy="38.927982"
       r="6.8733773" />
    <linearGradient
       inkscape:collect="always"
       xlink:href="#linearGradient13184"
       id="linearGradient3446"
       gradientUnits="userSpaceOnUse"
       gradientTransform="matrix(0.70981287,5.0758038e-7,-1.8398147e-8,0.80576167,-112.79636,27.17061)"
       x1="79.735275"
       y1="48.538784"
       x2="95"
       y2="48.538784" />
    <radialGradient
       inkscape:collect="always"
       xlink:href="#linearGradient11428"
       id="radialGradient3448"
       gradientUnits="userSpaceOnUse"
       gradientTransform="matrix(0.5960824,0.00459773,-0.07646267,7.4166804,-105.73948,-221.47441)"
       cx="94.138443"
       cy="38.927982"
       fx="94.138443"
       fy="38.927982"
       r="6.8733773" />
    <linearGradient
       inkscape:collect="always"
       xlink:href="#linearGradient13184"
       id="linearGradient3450"
       gradientUnits="userSpaceOnUse"
       gradientTransform="matrix(0.75612001,-8.5430146e-7,-8.8164652e-8,0.80326155,-118.36161,24.108504)"
       x1="79.735275"
       y1="48.538784"
       x2="95"
       y2="48.538784" />
    <radialGradient
       inkscape:collect="always"
       xlink:href="#linearGradient2257"
       id="radialGradient3452"
       gradientUnits="userSpaceOnUse"
       gradientTransform="matrix(2.0138425,1.9544455,-9.0955056,8.0513539,1084.175,-956.51725)"
       cx="42.617531"
       cy="120.64188"
       fx="42.617531"
       fy="120.64188"
       r="3.406888" />
    <radialGradient
       inkscape:collect="always"
       xlink:href="#linearGradient2598"
       id="radialGradient3454"
       gradientUnits="userSpaceOnUse"
       gradientTransform="matrix(2.4658142,2.2818178,-15.250293,17.412344,934.0345,-972.81427)"
       cx="15.727077"
       cy="58.089687"
       fx="15.727077"
       fy="58.089687"
       r="2.6143966" />
    <radialGradient
       inkscape:collect="always"
       xlink:href="#linearGradient3058"
       id="radialGradient3456"
       gradientUnits="userSpaceOnUse"
       gradientTransform="matrix(0.08410847,0.07823443,-0.77643197,0.84804173,166.91922,-13.876031)"
       cx="36.675648"
       cy="95.769279"
       fx="16.217354"
       fy="64.141281"
       r="47.746403" />
    <linearGradient
       inkscape:collect="always"
       xlink:href="#linearGradient3058"
       id="linearGradient3458"
       gradientUnits="userSpaceOnUse"
       gradientTransform="matrix(1.3582725,1.2472809,-0.57659007,0.66023127,105.06454,9.7071185)"
       x1="11.326384"
       y1="57.383999"
       x2="14.493531"
       y2="57.383999" />
    <radialGradient
       inkscape:collect="always"
       xlink:href="#linearGradient3225"
       id="radialGradient3460"
       gradientUnits="userSpaceOnUse"
       gradientTransform="matrix(1.7650492,1.6141069,-0.59652124,0.677741,30.211959,-36.408736)"
       cx="49.009884"
       cy="8.4953117"
       fx="47.370888"
       fy="6.7701697"
       r="3.9750404" />
  </defs>
  <metadata
     id="metadata8030">
    <rdf:RDF>
      <cc:Work
         rdf:about="">
        <dc:format>image/svg+xml</dc:format>
        <dc:type
           rdf:resource="http://purl.org/dc/dcmitype/StillImage" />
        <dc:title />
      </cc:Work>
    </rdf:RDF>
  </metadata>
  <g
     transform="translate(9.2374505e-6,48)"
     inkscape:groupmode="layer"
     inkscape:label="Layer 1"
     id="layer1">
    <g
       id="g3375"
       transform="translate(-0.29359877,0.52413433)">
      <g
         id="g4301"
         transform="matrix(0.99083338,0,0,0.99083338,0.02672495,-78.868144)">
        <path
           style="font-size:medium;font-style:normal;font-variant:normal;font-weight:normal;font-stretch:normal;text-indent:0;text-align:start;text-decoration:none;line-height:normal;letter-spacing:normal;word-spacing:normal;text-transform:none;direction:ltr;block-progression:tb;writing-mode:lr-tb;text-anchor:start;baseline-shift:baseline;opacity:0.25;color:#000000;fill:#000000;fill-opacity:1;fill-rule:evenodd;stroke:none;stroke-width:2.1932559;marker:none;visibility:visible;display:inline;overflow:visible;enable-background:accumulate;font-family:Sans;-inkscape-font-specification:Sans"
           d="m 26.65625,34.6875 c -5.276782,0.197683 -10.622488,2.192356 -14.375,6.09375 a 1.0001,1.0001 0 0 0 0.40625,1.625 c 4.420691,1.477292 8.848002,2.954115 13.25,4.46875 0.207475,1.710761 0.558901,3.517842 0.59375,5.15625 0.03787,1.780402 -0.285714,3.253146 -1.28125,4.375 -0.844726,0.252821 -1.54294,0.683985 -2.125,1.15625 C 22.42293,58.132136 21.802408,58.70713 21.25,59 a 1.0001,1.0001 0 0 0 -0.125,0.0625 L 17.71875,61.5 C 13.623922,59.82765 9.5349987,57.948314 5.3125,56.40625 a 1.0001,1.0001 0 0 0 -0.46875,-0.0625 c -0.7052212,0.08915 -1.3878645,0.51973 -1.6875,1.09375 -0.2996355,0.57402 -0.2614447,1.152768 -0.1875,1.65625 0.1419509,0.96653 0.5460056,1.806697 0.71875,2.25 0.00821,0.03157 0.022946,0.06218 0.03125,0.09375 1.8109286,6.883285 5.9720673,13.597335 12.5,17.09375 0.31054,0.604235 0.789797,1.07109 1.34375,1.375 0.675541,0.370616 1.438617,0.590871 2.21875,0.75 1.560266,0.318257 3.268174,0.409485 4.34375,0.625 3.725966,0.746578 6.366026,0.740967 9.78125,1.71875 4.279734,1.225294 8.702952,1.85216 11.25,5.125 a 1.0001,1.0001 0 0 0 0.0625,0.0625 c 9.419883,10.021634 16.725575,22.10669 27.03125,31.75 a 1.0001,1.0001 0 0 0 0,0.0313 c 2.374227,2.15799 5.578534,3.39404 8.78125,3.5 3.174699,0.10504 6.401287,-0.95624 8.6875,-3.5 0.01009,-0.0112 0.0212,-0.02 0.03125,-0.0313 0.01047,-0.0103 0.02082,-0.0209 0.03125,-0.0313 4.866066,-4.84432 5.042829,-13.72337 -0.59375,-18.125 -0.02033,-0.0203 -0.103504,-0.0725 -0.125,-0.0937 -1.45102,-1.43275 -5.476735,-4.840914 -7.96875,-6.875 -0.0062,-0.0052 -0.02501,0.0052 -0.03125,0 -8.650713,-7.257361 -17.853775,-13.795624 -25.90625,-21.5 -3.772199,-6.06771 -5.205284,-13.389338 -7.0625,-20.5 -0.0038,-0.01885 0.0038,-0.04362 0,-0.0625 -0.867008,-4.260938 -1.565571,-9.35713 -5.5,-12.65625 -0.02151,-0.02009 -0.04091,-0.04252 -0.0625,-0.0625 -4.282659,-3.961371 -10.226278,-5.599429 -15.875,-5.34375 z m 54.25,70.125 a 1.0001,1.0001 0 0 0 0.03125,0 c 4.392619,-0.29771 7.397631,5.6617 4.59375,9.09375 a 1.0001,1.0001 0 0 0 -0.09375,0.125 c -0.795593,1.38007 -2.228103,2.37249 -3.75,2.6875 -1.521897,0.31501 -3.056741,0.007 -4.21875,-1.1875 a 1.0001,1.0001 0 0 0 -0.125,-0.125 c -4.379351,-3.17006 -1.556819,-10.4815 3.5625,-10.59375 z"
           id="path4298"
           inkscape:connector-curvature="0" />
        <path
           style="font-size:medium;font-style:normal;font-variant:normal;font-weight:normal;font-stretch:normal;text-indent:0;text-align:start;text-decoration:none;line-height:normal;letter-spacing:normal;word-spacing:normal;text-transform:none;direction:ltr;block-progression:tb;writing-mode:lr-tb;text-anchor:start;baseline-shift:baseline;opacity:0.5;color:#000000;fill:#000000;fill-opacity:1;fill-rule:evenodd;stroke:none;stroke-width:2.1932559;marker:none;visibility:visible;display:inline;overflow:visible;enable-background:accumulate;font-family:Sans;-inkscape-font-specification:Sans"
           d="M 26.6875,35.687501 C 21.637389,35.876692 16.539957,37.788346 13,41.468751 c 4.630108,1.547274 9.260121,3.095239 13.875,4.6875 0.370414,3.62859 1.680622,8.280855 -0.961426,11.067972 -1.634094,0.248391 -2.768211,1.884458 -4.209332,2.648497 -1.286831,0.927844 -2.573661,1.855687 -3.860492,2.783531 -4.297323,-1.73366 -8.5283238,-3.715264 -12.8657658,-5.299306 -1.9184396,0.242521 -0.7051503,2.746164 -0.3301869,3.749828 1.7697043,6.808499 5.9179937,13.444244 12.3209527,16.736978 0.648676,2.082568 4.957526,1.976564 7.358707,2.457693 3.628132,0.726975 6.304368,0.717755 9.852599,1.733618 4.175456,1.195439 8.92619,1.817035 11.769766,5.4709 9.516603,10.124532 16.827565,22.202498 26.999683,31.720838 4.368855,3.97096 11.923766,4.70837 16.067274,0.0166 C 93.540643,114.8085 93.712322,106.47356 88.46875,102.5 87.196466,101.22706 82.942427,97.650015 80.429702,95.59947 71.780686,88.341842 62.526688,81.754879 54.375,73.937501 50.415812,67.624236 48.992034,60.123719 47.129419,53.00276 46.24238,48.65962 45.571328,43.843436 41.913423,40.826442 37.867393,37.04681 32.139031,35.440747 26.6875,35.687501 z M 80.875,103.8125 c 5.29247,-0.3587 8.80804,6.58083 5.43998,10.70345 -1.901176,3.29786 -6.753644,4.60241 -9.57893,1.69923 -5.130625,-3.71388 -1.914618,-12.26995 4.13895,-12.40268 z"
           id="path4213"
           inkscape:connector-curvature="0"
           sodipodi:nodetypes="cccccccccssccccccccccccc" />
        <g
           id="g4271">
          <g
             id="g4068"
             transform="matrix(-0.93103214,-0.0212202,-0.02805842,0.90727989,174.38886,54.056256)"
             inkscape:r_cx="true"
             inkscape:r_cy="true">
            <path
               sodipodi:nodetypes="cccsc"
               inkscape:r_cy="true"
               inkscape:r_cx="true"
               id="path4070"
               d="m 181.67604,9.099418 -14.13212,5.699466 -8.155,-6.393046 c -1.0714,1.417425 -1.8863,21.693357 3.10193,21.520607 9.13195,-0.316254 15.80573,-9.325742 19.18519,-20.827027 z"
               style="fill:#888a85;fill-opacity:1;fill-rule:evenodd;stroke:url(#radialGradient3416);stroke-width:2.40759087;stroke-linecap:round;stroke-linejoin:round;stroke-miterlimit:4;stroke-opacity:1;stroke-dasharray:none"
               inkscape:connector-curvature="0" />
            <path
               inkscape:r_cy="true"
               inkscape:r_cx="true"
               id="path4072"
               d="m 181.16095,9.7597789 -13.40625,5.4062501 -0.84375,9.4375 1.53125,4.15625 c 5.84622,-3.223357 10.19566,-10.413188 12.71875,-19.0000001 z"
               style="opacity:0.51376145;fill:url(#radialGradient3418);fill-opacity:1;fill-rule:evenodd;stroke:none"
               inkscape:connector-curvature="0" />
            <path
               inkscape:r_cy="true"
               inkscape:r_cx="true"
               id="path4074"
               d="m 159.31603,8.5972985 c -0.004,0.00554 -0.0271,0.02514 -0.0313,0.03125 -0.008,0.013357 -0.023,0.046897 -0.0313,0.0625 -1.03857,2.0973105 -1.73455,21.6068755 3.15625,21.4374995 1.08085,-0.03743 2.14566,-0.198035 3.15625,-0.46875 l 0.6875,-15.59375 -6.9375,-5.4687495 z"
               style="opacity:0.51376145;fill:url(#radialGradient3420);fill-opacity:1;fill-rule:evenodd;stroke:none"
               inkscape:connector-curvature="0" />
          </g>
          <path
             style="fill:#888a85;fill-opacity:1;fill-rule:evenodd;stroke:none"
             d="m 29.949426,35.775835 c 8.663423,0.697277 15.461663,6.280031 16.288525,13.180236 0.0062,0.03097 0.02368,0.09685 0.02961,0.127868 0,0 4.060062,19.692023 8.105669,24.863446 3.175259,4.058849 33.331898,26.488505 36.219691,30.811285 6.099304,9.13013 -3.980485,22.93851 -15.593748,15.68791 C 67.342895,115.66646 49.412381,88.419999 43.178418,84.749974 38.964673,82.269271 17.464495,78.621655 17.464495,78.621655 16.2336,78.952961 25.580742,60.075569 28.05937,54.125673 27.892919,50.162055 27.88803,49.84015 27.370532,46.241388 c -4.890495,-1.694476 -13.88768,-4.704187 -13.88768,-4.704187 3.395909,-3.558026 8.788849,-5.840825 14.808181,-5.778529 0.03943,4.07e-4 0.08818,7.12e-4 0.127545,0.0013 0.219363,0.0034 1.014605,0.0069 1.08436,0.01122 0.06055,0.0038 0.159933,2.78e-4 0.223247,0.0023 0.06844,0.0049 0.155027,-0.0032 0.223245,0.0023 z m 50.945341,67.945445 c -3.502909,-0.0362 -6.741658,3.49969 -6.734452,7.53262 0.006,3.33645 3.482636,6.66944 6.985534,6.70569 3.502885,0.0362 6.917268,-3.62687 6.982518,-7.28782 0.0627,-3.51797 -2.806416,-6.90467 -7.2336,-6.95049 z"
             id="path4076"
             inkscape:r_cx="true"
             inkscape:r_cy="true"
             sodipodi:nodetypes="cccssssccccssssccssss"
             inkscape:connector-curvature="0" />
          <path
             sodipodi:nodetypes="cccssssccccssssccssss"
             inkscape:r_cy="true"
             inkscape:r_cx="true"
             id="path4078"
             d="m 29.454437,35.700154 c 8.663418,0.697276 15.461656,6.280031 16.288521,13.180235 0.0062,0.03097 0.02368,0.09685 0.0296,0.12787 0,0 4.060063,19.692021 8.105671,24.863445 3.175262,4.058849 33.331892,26.488496 36.219689,30.811286 6.099305,9.13012 -3.980484,22.93849 -15.593749,15.68789 C 66.8479,115.59077 48.917379,88.344316 42.683417,84.674291 38.469672,82.193589 16.969508,78.545974 16.969508,78.545974 15.738613,78.877279 25.085754,59.999888 27.564377,54.049993 27.397927,50.086375 27.39285,49.764476 26.875545,46.165708 21.98505,44.471231 12.987865,41.46152 12.987865,41.46152 c 3.395918,-3.558025 8.788849,-5.840825 14.808173,-5.778528 0.03943,4.07e-4 0.08818,7.1e-4 0.127544,0.0013 0.219364,0.0034 1.014605,0.0069 1.08436,0.01122 0.06054,0.0038 0.159934,2.78e-4 0.223246,0.0023 0.06844,0.0049 0.155029,-0.0032 0.223245,0.0023 z m 50.945335,67.945456 c -3.502903,-0.0363 -6.741665,3.49967 -6.734452,7.5326 0.006,3.33644 3.482636,6.66943 6.985541,6.7057 3.502878,0.0362 6.917266,-3.62687 6.982511,-7.28783 0.0627,-3.51797 -2.806422,-6.90465 -7.2336,-6.95047 z"
             style="fill:url(#radialGradient3422);fill-opacity:1;fill-rule:evenodd;stroke:none"
             inkscape:connector-curvature="0" />
          <path
             style="fill:url(#radialGradient3424);fill-opacity:1;fill-rule:evenodd;stroke:none"
             d="m 44.319772,49.614175 -6.502211,15.845449 -3.101376,-1.170826 -4.579895,11.532506 2.555664,1.084254 -3.254629,4.643328 c -5.747987,-1.187308 -11.985387,-3.364832 -11.985387,-3.364832 -0.0046,7.2e-4 -0.027,-4.53e-4 -0.0311,-2.81e-4 -0.0038,-4.49e-4 -0.0276,7.12e-4 -0.0311,-2.82e-4 -0.0029,-0.0027 -0.02828,-0.02652 -0.03056,-0.02979 -0.0021,-0.0044 0.0018,-0.02456 6.29e-4,-0.02949 -0.0023,-0.01092 -0.02901,-0.0462 -0.03003,-0.05927 C 17.282717,76.361667 25.684523,59.299114 28.008439,53.697076 27.84493,49.733695 27.825221,49.41545 27.312326,45.817063 22.448647,44.124766 13.49054,41.500652 13.49054,41.500652 c 3.379666,-3.55939 10.551221,-5.35075 15.987276,-4.576401 8.538471,1.216279 13.781054,6.067819 14.841947,12.689928 z"
             id="path4080"
             sodipodi:nodetypes="cccccccssssscccsc"
             inkscape:r_cx="true"
             inkscape:r_cy="true"
             inkscape:connector-curvature="0" />
          <path
             style="fill:url(#radialGradient3426);fill-opacity:1;fill-rule:evenodd;stroke:none"
             d="m 30.941277,35.939846 c 8.178943,1.031576 14.498864,6.468214 15.293414,13.098878 0.0062,0.03097 0.01376,0.08654 0.01969,0.11756 1.1e-5,3e-6 4.058391,19.693524 8.10401,24.864947 3.17525,4.058849 33.349306,26.480419 36.237108,30.803199 6.099304,9.13012 -3.994739,22.94252 -15.607996,15.69192 C 67.331221,115.73624 49.385506,88.493317 43.151543,84.823291 38.937808,82.34259 17.462408,78.678648 17.462408,78.678648 c -0.0046,0.0013 -0.02917,0.02554 -0.03372,0.02626 -0.0037,1.09e-4 -0.02706,-0.002 -0.03091,-0.0025 -0.0029,-0.0016 -0.02521,-0.02912 -0.0281,-0.03127 -0.002,-0.0038 -0.02643,-0.02689 -0.0281,-0.03128 -0.0011,-0.0049 0.0037,-0.02329 0.0025,-0.02876 -0.0026,-0.018 0.0082,-0.0635 0.0084,-0.08629 0.09062,-1.940135 8.373251,-18.769947 10.687276,-24.324732 -0.166442,-3.963617 -0.177949,-4.285087 -0.695451,-7.883848 -4.890496,-1.694472 -13.867452,-4.720858 -13.867452,-4.720858 3.395909,-3.558026 8.77594,-5.818562 14.79526,-5.756265 0.03943,4.05e-4 0.08705,-0.01933 0.126415,-0.01873 0.219363,0.0034 1.017437,0.02596 1.087192,0.0303 0.06055,0.0038 0.155808,-0.01323 0.219121,-0.0112 0.05989,0.0043 0.153111,0.01536 0.216315,0.01756 0.338418,0.02724 0.687301,0.04087 1.019781,0.08281 z m -1.255534,1.05766 c -5.402132,-0.695375 -12.378826,0.729092 -15.705772,4.232817 0,0 8.91107,3.02103 13.774755,4.71333 0.512908,3.598386 0.531923,3.920468 0.695451,7.883848 -2.305763,5.558272 -10.572963,22.400785 -10.656381,24.327242 -7.5e-5,0.0071 -0.0028,0.0221 -0.0025,0.02875 0.0051,0.01064 0.01965,0.04994 0.0253,0.06003 -1.14e-4,0.0026 -0.0027,0.02566 -0.0025,0.02875 0.0068,0.0067 0.02683,0.02992 0.0281,0.03128 0.0065,-9.2e-5 0.02904,0.0023 0.03091,0.0025 0.0037,7.5e-5 0.02811,0.0025 0.03091,0.0025 0,0 6.851969,0.87948 12.59997,2.066789 l 1.600451,-2.545957 -3.439063,-2.055854 5.621516,-12.116469 4.283766,1.288147 6.194977,-15.21411 C 43.704696,43.109049 38.468621,38.262621 29.93016,37.046343 c -0.08494,-0.0121 -0.158669,-0.0378 -0.244417,-0.04884 z m 52.31321,66.867954 c -0.356575,-0.0512 -0.734832,-0.0576 -1.115288,-0.0616 -3.502898,-0.0362 -6.75077,3.47878 -6.743567,7.51171 0.006,3.33644 3.504723,6.67871 7.007631,6.71498 3.502893,0.0362 6.905907,-3.62935 6.971161,-7.29031 0.0573,-3.21563 -2.327274,-6.32973 -6.119937,-6.87481 z"
             id="path4082"
             inkscape:r_cx="true"
             inkscape:r_cy="true"
             sodipodi:nodetypes="ccssssscsssssscccssssscccccsssssscccccccsccssssc"
             inkscape:connector-curvature="0" />
          <path
             style="fill:url(#linearGradient3428);fill-opacity:1;fill-rule:evenodd;stroke:none"
             d="M 18.030068,76.529275 C 14.017305,75.941513 7.4483676,67.893125 5.0666526,58.644773 c -0.1059517,-0.411378 -0.2844617,2.94338 -0.1598571,3.383713 2.4142099,8.532004 8.1967385,14.18173 12.4276105,15.98328 0.250266,0.106563 0.04084,1.652993 0.695662,-1.482491 z"
             id="path4100"
             sodipodi:nodetypes="csssc"
             inkscape:r_cx="true"
             inkscape:r_cy="true"
             inkscape:connector-curvature="0" />
          <path
             transform="matrix(-0.95695169,0.0401777,0.0401777,0.95695169,122.12226,29.899104)"
             inkscape:r_cy="true"
             inkscape:r_cx="true"
             sodipodi:nodetypes="cccccccssssscccsc"
             id="path4102"
             d="m 82.637435,16.143859 6.549595,16.828136 4.024578,-0.757297 5.498222,11.568254 -3.265358,2.026717 2.380648,3.20948 c 5.94399,-1.490278 12.35515,-4.034931 12.35515,-4.034931 0.005,5.5e-4 0.0281,-0.0016 0.0324,-0.0017 0.004,-6.33e-4 0.0288,-4.67e-4 0.0324,-0.0017 0.003,-0.0029 0.0284,-0.0289 0.0306,-0.03242 0.002,-0.0046 -0.003,-0.02554 -0.002,-0.03073 0.002,-0.01149 0.0283,-0.04947 0.0287,-0.06314 -0.0255,-1.778825 -9.53709,-19.20959 -12.20662,-24.951553 -0.003,-4.141547 0.0036,-4.474388 0.38103,-8.250494 4.99941,-1.9783252 13.18461,-5.3923853 13.18461,-5.3923853 C 107.98012,2.6952353 101.65891,2.8086948 96.022224,3.8545354 87.168617,5.4972474 83.454078,9.1895676 82.637435,16.143859 z"
             style="fill:url(#radialGradient3430);fill-opacity:1;fill-rule:evenodd;stroke:none"
             inkscape:connector-curvature="0" />
          <path
             style="opacity:0.3853211;fill:#000000;fill-opacity:1;fill-rule:evenodd;stroke:none"
             d="m 88.804278,102.72543 c 0,0 -30.809825,-24.756715 -34.816717,-29.104697 -3.847566,-4.175094 -7.87796,-23.715672 -7.87796,-23.715672 0,0 -2.066171,-1.276847 -1.63277,-0.112706 0.593828,1.595051 6.540687,21.234617 7.876694,23.109808 3.043581,4.271905 19.480751,16.968219 19.480751,16.968219 l 11.165644,9.038327 5.804358,3.816721 z"
             id="path4104"
             sodipodi:nodetypes="cscssccc"
             inkscape:r_cx="true"
             inkscape:r_cy="true"
             inkscape:connector-curvature="0" />
          <path
             style="fill:#000000;fill-opacity:1;fill-rule:evenodd;stroke:none"
             d="m 18.965466,63.273083 c 0.09059,0.254423 0.08385,7.988385 0.04732,8.26326 0.06304,4.243813 -0.931593,4.542366 -1.010179,5.306835 -0.832616,-0.27738 -0.260215,0.08804 -1.016652,-0.336999 0.05498,-0.373586 0.989485,-3.001651 1.381389,-3.946471 -0.125417,-2.106743 -0.380589,-8.019892 -0.412809,-8.580535 0.38655,-0.282835 0.53483,-0.395394 1.010934,-0.70609 z"
             id="path4108"
             inkscape:r_cx="true"
             inkscape:r_cy="true"
             sodipodi:nodetypes="ccccccc"
             inkscape:connector-curvature="0" />
          <path
             style="fill:#888a85;fill-opacity:1;fill-rule:evenodd;stroke:none"
             d="m 81.325238,101.17462 c -5.356805,-1.0261 -11.142783,5.17541 -9.74396,10.73441 -4.108009,-3.12044 -22.570211,-25.157616 -23.620508,-27.569644 -1.608339,-3.693578 2.167036,-7.250494 5.960558,-5.807836 2.645965,1.006245 27.752581,22.70986 27.40391,22.64307 z"
             id="path4114"
             inkscape:r_cx="true"
             inkscape:r_cy="true"
             sodipodi:nodetypes="ccsss"
             inkscape:connector-curvature="0" />
          <path
             style="opacity:0.8;fill:#000000;fill-opacity:1;fill-rule:evenodd;stroke:none"
             d="m 81.325238,101.17462 c -5.356805,-1.0261 -11.142783,5.17541 -9.74396,10.73441 -4.108009,-3.12044 -22.570211,-25.157616 -23.620508,-27.569644 -1.608339,-3.693578 2.167036,-7.250494 5.960558,-5.807836 2.645965,1.006245 27.752581,22.70986 27.40391,22.64307 z"
             id="path4116"
             inkscape:r_cx="true"
             inkscape:r_cy="true"
             sodipodi:nodetypes="ccsss"
             inkscape:connector-curvature="0" />
          <path
             inkscape:r_cy="true"
             inkscape:r_cx="true"
             sodipodi:nodetypes="csccszscc"
             id="path4124"
             d="m 81.543637,101.35622 c 0,0 -4.152259,-0.81413 -7.526669,2.62518 -3.69036,3.76135 -2.341872,7.99914 -2.341872,7.99914 l 0.648744,0.71174 c 0,0 -0.40673,-1.62641 -0.07492,-3.25263 0.331802,-1.62622 1.110845,-3.31547 2.500977,-4.70739 1.369889,-1.37166 2.685195,-2.27294 4.139615,-2.64872 1.454421,-0.37577 3.132267,-0.21917 3.096162,-0.28093 l -0.442031,-0.44639 z"
             style="fill:url(#radialGradient3432);fill-opacity:1;fill-rule:evenodd;stroke:none"
             inkscape:connector-curvature="0" />
          <path
             style="fill:url(#radialGradient3434);fill-opacity:1;fill-rule:evenodd;stroke:none"
             d="m 81.543637,101.35622 c 0,0 -4.152259,-0.81413 -7.526669,2.62518 -3.69036,3.76135 -2.341872,7.99914 -2.341872,7.99914 l 0.648744,0.71174 c 0,0 -0.40673,-1.62641 -0.07492,-3.25263 0.331802,-1.62622 1.110845,-3.31547 2.500977,-4.70739 1.369889,-1.37166 2.685195,-2.27294 4.139615,-2.64872 1.454421,-0.37577 3.132267,-0.21917 3.096162,-0.28093 l -0.442031,-0.44639 z"
             id="path4126"
             sodipodi:nodetypes="csccszscc"
             inkscape:r_cx="true"
             inkscape:r_cy="true"
             inkscape:connector-curvature="0" />
          <path
             style="fill:#ffffff;fill-opacity:1;fill-rule:evenodd;stroke:none"
             d="M 104.608,3.1939149 C 92.616145,2.2045921 83.866393,6.3602734 82.450397,15.463498 84.09662,8.5060072 91.399094,2.8573689 104.608,3.1939149 z"
             id="path4128"
             sodipodi:nodetypes="ccc"
             transform="matrix(-0.95695169,0.0401777,0.0401777,0.95695169,122.12226,29.899104)"
             inkscape:connector-curvature="0" />
          <path
             sodipodi:nodetypes="ccc"
             id="path4130"
             d="M 104.608,3.1939149 C 92.465413,1.4810786 82.871562,5.8477846 82.450397,15.463498 84.759841,8.6265928 91.399094,3.1286865 104.608,3.1939149 z"
             style="opacity:0.77722772;fill:#ffffff;fill-opacity:1;fill-rule:evenodd;stroke:none"
             transform="matrix(-0.95695169,0.0401777,0.0401777,0.95695169,122.12226,29.899104)"
             inkscape:connector-curvature="0" />
          <g
             id="g3884">
            <rect
               transform="matrix(-0.93594441,-0.35214777,-0.41829103,0.90831306,0,0)"
               inkscape:r_cy="true"
               inkscape:r_cx="true"
               y="48.31044"
               x="-71.890793"
               height="12.258229"
               width="13.163202"
               id="rect4088"
               style="fill:#2e3436;fill-opacity:1;fill-rule:evenodd;stroke:url(#radialGradient3436);stroke-width:2.16849923;stroke-linecap:round;stroke-linejoin:round;stroke-miterlimit:4;stroke-opacity:1;stroke-dasharray:none" />
            <rect
               style="fill:url(#radialGradient3438);fill-opacity:1;fill-rule:evenodd;stroke:none"
               id="rect4090"
               width="7.6042814"
               height="10.336269"
               x="-69.373169"
               y="51.703426"
               inkscape:r_cx="true"
               inkscape:r_cy="true"
               transform="matrix(-0.949179,-0.31473676,-0.41600613,0.90936181,0,0)" />
            <rect
               transform="matrix(-0.97193901,-0.23523301,-0.18899041,0.98197893,0,0)"
               ry="0"
               inkscape:r_cy="true"
               inkscape:r_cx="true"
               y="57.24551"
               x="-57.378292"
               height="1.1421865"
               width="11.118176"
               id="rect4092"
               style="fill:url(#radialGradient3440);fill-opacity:1;fill-rule:evenodd;stroke:url(#linearGradient3442);stroke-width:0.53851545;stroke-linecap:round;stroke-linejoin:round;stroke-miterlimit:4;stroke-opacity:1;stroke-dasharray:none" />
            <rect
               style="fill:url(#radialGradient3444);fill-opacity:1;fill-rule:evenodd;stroke:url(#linearGradient3446);stroke-width:0.49174404;stroke-linecap:round;stroke-linejoin:round;stroke-miterlimit:4;stroke-opacity:1;stroke-dasharray:none"
               id="rect4094"
               width="10.8351"
               height="0.97728109"
               x="-56.199207"
               y="65.792656"
               inkscape:r_cx="true"
               inkscape:r_cy="true"
               ry="0"
               transform="matrix(-0.97632583,-0.21630504,-0.20197227,0.97939124,0,0)" />
            <rect
               transform="matrix(-0.97822481,-0.20754813,-0.20924469,0.97786331,0,0)"
               ry="0"
               inkscape:r_cy="true"
               inkscape:r_cx="true"
               y="62.610779"
               x="-58.072182"
               height="0.97424996"
               width="11.541957"
               id="rect4096"
               style="fill:url(#radialGradient3448);fill-opacity:1;fill-rule:evenodd;stroke:url(#linearGradient3450);stroke-width:0.50674307;stroke-linecap:round;stroke-linejoin:round;stroke-miterlimit:4;stroke-opacity:1;stroke-dasharray:none" />
          </g>
        </g>
      </g>
      <g
         transform="matrix(1.0896254,0,0,1.0896254,-46.117487,-78.381345)"
         id="g4017">
        <path
           inkscape:connector-curvature="0"
           style="fill:#ffffff;fill-opacity:0.75688076;fill-rule:nonzero;stroke:none"
           d="m 77.51577,33.239061 0,-1.850988 0,1.850988 z"
           id="path2748"
           sodipodi:nodetypes="ccc" />
        <path
           inkscape:connector-curvature="0"
           sodipodi:nodetypes="czccccc"
           id="path3180"
           d="m 113.9058,31.378394 c 0.64732,-0.735489 4.90381,-0.385804 9.43518,3.758051 4.57581,4.184476 5.49604,8.233565 4.68517,9.154791 -0.52776,0.599638 -1.05553,1.199275 -1.5833,1.798914 -4.70682,-4.304281 -9.4136,-8.608561 -14.1204,-12.912842 0.52777,-0.599638 1.05555,-1.199275 1.58335,-1.798914 0,0 0,0 0,0"
           style="fill:#000000;fill-opacity:1;fill-rule:evenodd;stroke:none" />
        <path
           inkscape:connector-curvature="0"
           style="fill:#000000;fill-opacity:1;fill-rule:evenodd;stroke:none"
           d="m 56.871256,111.83404 21.358307,-10.01715 0.09934,-0.11446 -13.997308,-13.054133 -0.134679,0.155042 -7.32566,23.030701 z"
           id="path3299"
           sodipodi:nodetypes="cccccc" />
        <path
           inkscape:connector-curvature="0"
           sodipodi:nodetypes="cccccc"
           id="path2247"
           d="M 57.929578,110.7881 77.85131,101.4578 77.95064,101.34335 64.709858,89.007374 64.57516,89.162429 57.929578,110.7881 z"
           style="fill:url(#radialGradient3452);fill-opacity:1;fill-rule:evenodd;stroke:none" />
        <path
           inkscape:connector-curvature="0"
           sodipodi:nodetypes="csccccsz"
           id="rect2192"
           d="m 70.757283,95.83577 c 1.739467,1.595116 2.906687,1.605183 3.528472,2.175367 0.100482,0.09214 0.184934,0.200318 0.257176,0.309939 L 121.6331,43.842573 114.79688,37.573642 67.617177,92.155259 c 0.226534,0.05996 0.43868,0.142961 0.635342,0.323298 0.568339,0.521172 0.757213,1.754682 2.504764,3.357213 z"
           style="fill:url(#radialGradient3454);fill-opacity:1;fill-rule:nonzero;stroke:none" />
        <path
           inkscape:connector-curvature="0"
           id="rect2190"
           d="M 121.38353,43.61371 74.329162,98.050942 c 0.571309,0.566965 0.545842,1.463712 1.595859,2.426588 1.131591,1.03771 1.640397,0.59115 2.37359,1.25976 L 125.37535,47.274285 121.38353,43.61371 z"
           style="fill:url(#radialGradient3456);fill-opacity:1;fill-rule:nonzero;stroke:none"
           sodipodi:nodetypes="ccsccc" />
        <path
           inkscape:connector-curvature="0"
           sodipodi:nodetypes="cccccsz"
           id="rect1315"
           d="m 65.8391,91.29814 c 1.088886,0.987446 1.833634,0.648749 2.413419,1.180417 L 115.3069,38.041336 111.27253,34.341757 64.195768,88.804764 c 0.02211,0.02023 0.04391,0.04027 0.06613,0.06066 0.453295,0.41567 0.480126,1.43771 1.577203,2.432719 z"
           style="fill:url(#linearGradient3458);fill-opacity:1;fill-rule:nonzero;stroke:none" />
        <rect
           transform="matrix(0.73847748,0.67427814,-0.66284353,0.74875794,0,0)"
           y="-53.569389"
           x="106.11823"
           height="4.5040908"
           width="19.128477"
           id="rect2069"
           style="fill:#000000;fill-opacity:1;stroke:none" />
        <path
           inkscape:connector-curvature="0"
           style="fill:url(#radialGradient3460);fill-opacity:1;fill-rule:nonzero;stroke:none"
           d="m 106.90276,39.347583 c -1.94498,1.285354 -3.70698,3.565892 -4.67718,5.454327 l 11.28483,10.218525 4.74238,-5.388093 -11.35003,-10.284759 z m 10.15698,9.19376 -4.74239,5.388093 4.04199,3.702906 c 1.69496,-1.073919 3.62544,-3.186639 4.7424,-5.38809 l -4.042,-3.702909 z"
           id="path2274"
           sodipodi:nodetypes="cccccccccc" />
        <path
           inkscape:connector-curvature="0"
           sodipodi:nodetypes="cccc"
           id="path2265"
           d="m 66.07017,107.56571 c -1.99894,-0.8269 -4.714685,-4.18268 -6.105593,-5.39654 l -3.094124,9.65922 9.199717,-4.26268 z"
           style="fill:#000000;fill-opacity:1;fill-rule:evenodd;stroke:none" />
      </g>
    </g>
  </g>
</svg>
