<?xml version="1.0" encoding="UTF-8" standalone="no"?>
<!-- Created with Inkscape (http://www.inkscape.org/) -->

<svg
   xmlns:dc="http://purl.org/dc/elements/1.1/"
   xmlns:cc="http://creativecommons.org/ns#"
   xmlns:rdf="http://www.w3.org/1999/02/22-rdf-syntax-ns#"
   xmlns:svg="http://www.w3.org/2000/svg"
   xmlns="http://www.w3.org/2000/svg"
   xmlns:xlink="http://www.w3.org/1999/xlink"
   xmlns:sodipodi="http://sodipodi.sourceforge.net/DTD/sodipodi-0.dtd"
   xmlns:inkscape="http://www.inkscape.org/namespaces/inkscape"
   width="96"
   height="96"
   id="svg7324"
   sodipodi:version="0.32"
   inkscape:version="0.48.3.1 r9886"
   sodipodi:docname="globe.svg"
   inkscape:output_extension="org.inkscape.output.svg.inkscape"
   version="1.1">
  <defs
     id="defs7326">
    <linearGradient
       inkscape:collect="always"
       id="linearGradient13101">
      <stop
         style="stop-color:#000000;stop-opacity:1;"
         offset="0"
         id="stop13103" />
      <stop
         style="stop-color:#000000;stop-opacity:0;"
         offset="1"
         id="stop13105" />
    </linearGradient>
    <linearGradient
       id="linearGradient3142">
      <stop
         style="stop-color:#3cc1ee;stop-opacity:1;"
         offset="0"
         id="stop3144" />
      <stop
         style="stop-color:#141b7c;stop-opacity:1;"
         offset="1"
         id="stop3146" />
    </linearGradient>
    <radialGradient
       gradientUnits="userSpaceOnUse"
       gradientTransform="matrix(0.8232,0.2312,0.2703,-0.9626,-96.2274,-315.3433)"
       fy="-289.9133"
       fx="297.44989"
       r="17.1528"
       cy="-290.5918"
       cx="299.44821"
       id="XMLID_2_-6">
      <stop
         id="stop228"
         style="stop-color:#FFFFFF"
         offset="0" />
      <stop
         id="stop230"
         style="stop-color:#91d3ff;stop-opacity:0;"
         offset="1" />
    </radialGradient>
    <linearGradient
       inkscape:collect="always"
       id="linearGradient4046">
      <stop
         style="stop-color:#ffffff;stop-opacity:1;"
         offset="0"
         id="stop4048" />
      <stop
         style="stop-color:#ffffff;stop-opacity:0;"
         offset="1"
         id="stop4050" />
    </linearGradient>
    <radialGradient
       inkscape:collect="always"
       xlink:href="#linearGradient13101"
       id="radialGradient3151"
       gradientUnits="userSpaceOnUse"
       cx="16.536655"
       cy="31.563871"
       fx="16.536655"
       fy="31.563871"
       r="16.335602" />
    <radialGradient
       inkscape:collect="always"
       xlink:href="#linearGradient3142"
       id="radialGradient3153"
       gradientUnits="userSpaceOnUse"
       cx="138.80981"
       cy="147.785"
       fx="135.29474"
       fy="217.461"
       r="92.351021" />
    <linearGradient
       inkscape:collect="always"
       xlink:href="#XMLID_2_-6"
       id="linearGradient3155"
       gradientUnits="userSpaceOnUse"
       gradientTransform="matrix(0.14914771,0,0,0.14914771,175.56872,-65.94623)"
       x1="-1085.9586"
       y1="539.40955"
       x2="-474.68497"
       y2="375.61926" />
    <linearGradient
       inkscape:collect="always"
       xlink:href="#linearGradient4046"
       id="linearGradient3157"
       gradientUnits="userSpaceOnUse"
       gradientTransform="matrix(0.80391882,0,0,0.80078707,-4.6136354,-48.9959)"
       x1="22.196054"
       y1="-3.0905473"
       x2="51.625942"
       y2="35.567139" />
  </defs>
  <sodipodi:namedview
     id="base"
     pagecolor="#ffffff"
     bordercolor="#666666"
     borderopacity="1.0"
     inkscape:pageopacity="0.0"
     inkscape:pageshadow="2"
     inkscape:zoom="4"
     inkscape:cx="48"
     inkscape:cy="48"
     inkscape:current-layer="layer1"
     showgrid="true"
     inkscape:grid-bbox="true"
     inkscape:document-units="px"
     inkscape:window-width="1022"
     inkscape:window-height="685"
     inkscape:window-x="57"
     inkscape:window-y="24"
     inkscape:window-maximized="0"
     fit-margin-top="0"
     fit-margin-left="0"
     fit-margin-right="0"
     fit-margin-bottom="0"
     inkscape:object-paths="true"
     inkscape:object-nodes="true" />
  <metadata
     id="metadata7329">
    <rdf:RDF>
      <cc:Work
         rdf:about="">
        <dc:format>image/svg+xml</dc:format>
        <dc:type
           rdf:resource="http://purl.org/dc/dcmitype/StillImage" />
        <dc:title />
      </cc:Work>
    </rdf:RDF>
  </metadata>
  <g
     id="layer1"
     inkscape:label="Layer 1"
     inkscape:groupmode="layer"
     transform="translate(0,48)">
    <g
       id="g3143"
       transform="translate(0,1)">
      <path
         transform="matrix(2.6935035,0,0,0.9794558,3.4584607,-0.91541683)"
         d="m 32.872257,31.563871 c 0,9.021904 -7.313698,16.335602 -16.335602,16.335602 -9.0219033,0 -16.33560138,-7.313698 -16.33560138,-16.335602 0,-9.021903 7.31369808,-16.335601 16.33560138,-16.335601 9.021904,0 16.335602,7.313698 16.335602,16.335601 z"
         sodipodi:ry="16.335602"
         sodipodi:rx="16.335602"
         sodipodi:cy="31.563871"
         sodipodi:cx="16.536655"
         id="path7005"
         style="opacity:0.75;fill:url(#radialGradient3151);fill-opacity:1;fill-rule:nonzero;stroke:none"
         sodipodi:type="arc" />
      <g
         id="g3131">
        <path
           sodipodi:type="arc"
           style="fill:url(#radialGradient3153);fill-opacity:1;stroke:none"
           id="path2285"
           sodipodi:cx="138.80981"
           sodipodi:cy="147.785"
           sodipodi:rx="92.351021"
           sodipodi:ry="92.351021"
           d="m 231.16084,147.785 c 0,51.00406 -41.34697,92.35102 -92.35103,92.35102 -51.004056,0 -92.351016,-41.34696 -92.351016,-92.35102 0,-51.004057 41.34696,-92.351017 92.351016,-92.351017 51.00406,0 92.35103,41.34696 92.35103,92.351017 z"
           transform="matrix(0.47644303,0,0,0.47644303,-18.134968,-74.411135)" />
        <path
           style="fill:#000000;stroke:none"
           d=""
           id="path2197"
           inkscape:connector-curvature="0" />
        <path
           style="fill:url(#linearGradient3155);fill-opacity:1;stroke:none"
           d="M 42.979749,34.870179 C 40.307211,33.559531 41.662255,30.230903 41.719243,27.419616 42.472044,23.237569 36.513065,23.645633 35.85243,19.808202 35.09382,18.174737 32.757782,16.74401 34.541836,15.262129 32.44063,13.39322 38.023835,12.427848 36.212687,9.9098849 35.82311,6.8933465 34.287834,9.4593677 33.493049,8.3974512 30.912071,7.2843839 31.296215,5.4383632 29.37576,3.7979961 26.961118,1.4428359 24.325108,0.47934324 22.110819,-2.1734056 20.747553,-5.4946974 20.586678,-9.626217 20.200049,-13.417507 c -1.315173,-2.098812 -0.216265,6.7380239 -0.78526,5.409655 -1.126242,-3.167786 0.565069,-6.202824 -0.298593,-9.449764 0.208217,-3.036324 2.027427,-5.92633 4.034944,-7.729477 0.86645,-2.183407 0.581285,1.070285 1.506991,-1.662938 -0.1594,-2.890608 3.202552,-5.557582 3.369069,-7.302489 0.846853,-1.559513 -0.315769,-2.689487 0.382831,-2.6271 2.772665,-0.88274 -4.24395,0.281733 -1.935461,-0.413895 1.510771,-1.117215 3.16858,-2.508059 4.919162,-2.638437 1.316551,-1.734162 0.402849,1.349595 2.174198,-0.804373 3.61103,-0.443819 -1.510558,4.382277 1.923798,4.180654 0.462606,1.011428 0.246691,3.142135 1.372099,3.274517 2.01081,-0.488534 2.092558,2.070166 3.509325,0.262416 0.166941,-1.973991 1.333893,-0.807606 0.542586,0.74898 0.723928,-0.543667 -0.234029,2.052822 1.409454,-0.195773 1.802352,0.550754 -1.456004,2.290873 -2.311788,1.582139 1.105666,1.778225 -2.350484,0.09704 -1.320003,1.410048 -3.257672,0.931568 -2.496197,3.810492 -0.07882,5.081932 1.218258,0.468847 -0.06317,4.593237 2.025205,2.356643 -0.0735,-1.693379 2.002772,-2.81445 1.387172,-4.330342 -0.06574,-2.208539 2.58486,-2.094024 2.979456,-0.152869 -0.759506,0.265397 0.81741,2.609826 1.70376,0.119917 0.905852,0.997541 0.884583,3.241354 2.781474,3.629488 -3.862439,1.114 2.574256,-0.309558 0.260093,1.923375 -2.018107,1.588961 -5.219856,-0.04217 -6.484864,2.893613 0.809257,-1.617245 4.449073,-1.358275 2.25166,-0.539965 0.586562,1.221958 3.399172,1.945946 0.638822,2.665325 -2.008887,0.639967 2.208709,-1.98946 -0.882332,-0.783034 -2.376769,0.452532 -2.176799,2.655826 -4.441675,2.984843 -0.83645,1.114754 -2.597631,0.649152 -1.482195,2.766205 0.23872,1.3485815 -4.76803,1.7557714 -3.806004,4.5855677 0.764949,1.7982902 -0.486977,4.095716 -1.020675,1.0974009 0.828487,-2.290158 -3.837772,-3.8966043 -3.75817,-2.6964379 -1.82108,-0.7453452 -4.773806,-0.9664491 -5.174081,2.0949813 -1.960475,2.5912521 1.951453,7.8577223 3.597003,3.8755817 4.650919,-0.6548568 -2.287764,4.0981896 1.575219,4.2217797 3.781332,-0.1328478 -0.480125,6.7424 4.282023,5.2685609 2.088104,2.7342147 2.565731,-1.3614232 5.127717,-1.0164788 0.204788,-0.2081158 0.132192,3.9543065 0.454442,0.8945105 2.337661,0.012642 4.849257,0.4962643 7.111129,1.4003058 1.523806,2.8496322 6.429518,1.3228052 7.726536,4.6032492 -1.565558,1.543056 0.08202,3.636647 1.666251,1.505551 2.133735,0.349271 4.071656,0.842374 6.50361,0.943331 5.256359,0.998091 -1.736047,4.824528 -1.495366,7.752725 -1.514804,3.385965 -6.109439,2.890938 -7.723881,6.140948 -1.044374,1.517813 -4.154037,1.553882 -4.816557,1.752145 1.450523,1.68329 -3.779399,0.869903 -3.823947,1.930828 -1.337163,0.89054 0.327399,1.085423 -1.840721,1.433214 l -0.432479,-0.04672 -0.523315,-0.112584 -1.42e-4,-7.3e-5 z m -1.847801,-1.564111 c -0.0065,-0.501541 0.457879,0.496845 0,0 z M 55.37555,15.333765 c 0.532928,-1.791755 2.706003,0.916741 0,0 z M 85.659473,11.8043 C 87.017752,8.5371093 88.129269,5.0235914 87.060178,1.5946476 87.566694,-0.31929728 86.728564,-1.4802357 85.887914,-0.0999526 83.943298,-1.0894634 81.897284,6.6052913 78.551726,3.2825766 77.314339,1.0299691 76.206375,2.1376841 75.756841,-0.27593632 75.948995,-3.3042053 74.038995,-5.6438563 75.114256,-8.7526456 c 1.972179,-2.6527024 -1.272352,-7.4743564 2.066631,-8.5749054 0.436548,-2.118774 2.552825,-6.002667 3.740596,-2.213736 2.136545,-0.227944 2.805108,-0.883476 2.010779,-3.030497 2.988095,-1.008291 -2.430479,-8.551547 -1.449522,-4.521974 -1.82281,1.051669 -1.98723,-3.992626 -2.911204,-5.404774 -1.533697,-0.261701 -3.502156,-2.388126 -1.398994,0.17745 1.021288,0.770859 -1.775498,-0.17523 0.289105,1.493629 1.571041,1.431199 2.799128,4.088979 2.803129,5.361519 -1.040387,-1.619857 -6.568167,-1.96631 -2.771053,-0.222114 2.195419,0.09098 2.820279,2.185731 -0.10549,0.781007 -3.022209,-1.061916 -1.642034,4.100561 -0.935866,5.923181 -0.805009,3.865361 -3.687842,0.818259 -4.456577,-1.585412 3.011783,-1.281099 1.383614,-3.79836 -0.849932,-4.241033 0.963057,-0.748488 0.509092,-2.604858 0.0301,-4.078186 -0.878199,-2.019858 0.639992,-1.422318 0.847039,-3.360843 -1.035748,-1.790161 -2.147978,-2.806964 -3.362238,-4.030716 0.847217,3.020741 -5.667147,-3.468395 -2.267308,0.25933 1.508686,2.069541 3.162534,1.618277 4.344377,4.074666 -0.242964,0.851999 -3.742237,-2.582368 -2.306488,0.144526 -1.657901,-0.295608 -1.195717,-1.224049 -2.06958,-1.147428 -0.516603,-2.545708 -4.155292,-4.085685 -4.083166,-6.309922 0.925209,-0.502072 2.974495,-0.911433 2.583057,0.526584 3.580824,0.659738 -0.908884,-1.861359 -2.042703,-2.744204 -1.356121,-1.56128 -3.391934,-2.252503 -4.855704,-2.297988 1.783367,-0.09794 4.465072,0.157673 1.137719,-0.368504 -1.201322,0.244429 -2.295428,-0.49818 -2.898785,-0.46558 -1.309627,0.01417 -7.134977,0.04769 -5.562707,-0.803256 2.196881,-0.409977 -3.880519,-0.01047 -4.783667,-0.545132 -3.131338,1.002445 -6.851606,0.82841 -9.461411,2.96236 -1.307802,0.601205 -5.900202,2.987503 -2.382785,0.604014 -1.055938,-0.0015 -2.411215,0.299514 -0.314625,-1.175291 1.072481,-0.756411 3.840654,-1.391013 6.124099,-2.207965 14.759828,-3.416797 31.064289,2.391769 40.522636,14.189588 2.111278,2.438102 4.634211,6.54666 5.381122,8.759898 -3.464278,-3.339174 2.192834,3.049491 1.984874,4.831999 3.029024,9.6824303 2.479181,20.6851702 -2.050236,29.796655 z M 43.816604,2.7307806 c -0.272638,-0.539671 1.39107,0.3774569 0,0 z M 40.58198,2.5723378 C 38.283011,1.7439128 41.029545,0.21529238 42.692548,2.3046089 41.988932,2.2339935 41.135629,2.4796484 40.58198,2.5723378 z M 38.896235,2.1366204 c 0.577668,-0.2743404 0.013,-0.1007149 0,0 z M 37.144913,0.47193885 C 36.652777,-1.4715761 30.89688,-1.8625473 34.010109,-2.0014215 c 1.035636,-0.1698387 7.256327,4.0457034 3.134804,2.47336035 z M 39.659109,-12.035696 c 0.122728,-2.448667 0.586078,1.238072 0,0 z m 8.259055,-4.892517 c 0.344382,-1.353904 0.848073,0.457871 0,0 z m -1.003648,-0.267769 c 0.549106,-0.169169 0.273996,0.259752 0,0 z m 4.673229,-0.594509 c -0.08406,-1.336251 0.748689,0.839816 0,0 z m -0.586773,-0.309265 c -2.924942,1.063769 -1.555778,-1.967447 -0.746305,-2.372544 -1.254208,1.642456 2.780877,0.75624 0.746305,2.372544 z m -4.117103,-1.306167 c -0.182255,-0.641783 1.207434,0.743338 0,0 z m 31.011854,-3.349083 c -1.464628,-2.0696 1.34409,1.062338 0,0 z m 1.641739,0.0463 c 0.152162,-1.577019 1.561214,0.683458 0,0 z m -2.554527,-1.369811 c -0.514819,-0.732764 0.915971,0.890779 0,0 z m 3.785002,-0.881803 c -0.785181,-1.294268 1.038726,0.378528 0,0 z m -12.699289,-0.6342 c -0.867947,-0.830149 -0.907318,-3.296725 0.451202,-1.112755 0.357464,0.159448 -0.04018,1.658786 -0.451202,1.112755 z m 1.993583,-0.646271 c -0.755109,-0.443786 -1.284045,-2.031617 -3.020694,-2.593233 -1.999164,-2.525754 2.529703,0.948296 3.699101,1.287812 1.112428,0.216009 -1.05401,2.81703 -0.678407,1.305421 z m -46.038048,-0.208177 c 0.13615,-2.941354 0.851294,-1.087419 0,0 z m 29.741366,-0.444766 c -2.301373,-0.906006 -3.749019,-3.065111 -2.918162,-5.153684 -1.078657,-0.381223 -0.08806,-0.74279 -1.216702,-1.157926 -0.303607,-2.289823 -3.350607,-2.301176 -2.528879,-2.908594 0.174848,-0.590254 1.222828,-2.211057 2.606139,-2.021755 0.773836,-0.940522 2.158209,-0.853333 1.547149,-0.133435 1.439907,0.109078 1.522307,-0.888 1.747653,0.40078 0.806158,0.990356 3.640725,2.133943 2.041463,3.110462 2.307115,0.731222 1.140695,0.834053 0.629632,0.798352 0.577978,0.536426 -0.517244,0.922749 1.252699,0.52364 -1.152416,1.459566 -1.904968,2.407207 -2.763733,3.852653 0.171652,0.559901 0.643972,3.117015 -0.397259,2.689507 z m -8.101763,-0.925381 c -0.705782,-1.426135 -4.050854,-1.593683 -1.176016,-2.119363 2.207351,-2.754053 -3.021936,-2.487833 -2.362986,-3.988166 1.925835,-1.617604 0.617359,-0.187985 0.63898,0.712828 0.929321,-1.885904 1.13279,-0.363905 2.417837,-0.342344 0.945849,1.076858 1.860003,2.630094 2.587405,3.64667 -0.766651,0.608335 -2.464926,-0.996051 -0.865425,1.199795 0.171385,1.50067 -2.089398,-0.918765 -0.635049,1.168637 l -0.221097,-0.03863 -0.38366,-0.239431 1.1e-5,4e-6 z m -3.860675,-0.165734 c 0.69757,-0.672341 0.100822,0.432449 0,0 z m -1.23053,-1.328694 c -0.09479,-2.80758 2.761732,1.24714 0.441504,0.04534 l -0.323595,0.162545 -0.117911,-0.207884 2e-6,-3e-6 z m 18.774998,-1.57299 c 0.565077,-3.945101 3.450309,1.364967 0,0 z m 10.846776,0.150488 c -2.267147,-2.002918 1.067239,0.135416 0,0 z M 43.914219,-31.05893 c 0.713538,-1.111466 0.208505,0.770132 0,0 z m 14.792295,-0.433128 c 0.255513,-0.703104 0.157356,0.884824 0,0 z m 11.773347,0.127046 c 0.549072,-0.169158 0.273998,0.259737 0,0 z m -20.622774,-0.655625 c 0.322889,-0.618618 1.086375,0.783557 0,0 z M 39.331865,-32.9322 c 0.261565,-1.105048 0.893653,0.598096 0,0 z m -1.215332,-0.882395 c -1.443179,0.196334 -2.188618,-1.811632 -0.530075,-1.253144 -1.212497,-1.297657 2.020153,-1.687733 1.271283,-0.129225 1.963217,-1.998035 -0.221376,2.807327 -0.741208,1.382369 z m -0.825143,0.05454 c 0.928112,-0.147956 0.01157,0.258065 0,0 z m 7.04723,-0.409272 c 0.533162,-0.638792 1.163698,0.871542 0,0 z m -4.068076,-0.485389 c 1.336661,-2.029499 1.381999,0.784305 0,0 z m 1.08512,0.101991 c 1.195178,-1.247877 2.041666,-0.04033 0,0 z m 2.610084,-0.440247 c -1.704261,-0.749598 -0.917961,-1.888009 0.338201,-0.458078 1.166686,-0.23204 0.102858,1.067272 -0.338201,0.458078 z m -1.71519,-0.756367 c 0.791772,-0.692973 0.225854,0.642392 0,0 z m 2.266934,-0.14713 c -1.089746,-0.780468 1.083846,-0.281068 0.897279,-1.53828 0.519335,0.434985 1.906289,-0.829852 0.02164,-0.53241 1.847535,-1.197279 3.779863,-0.218829 1.452485,0.834584 -1.30119,0.30227 -1.280927,1.664737 -2.371402,1.236106 z m -2.714381,-0.114588 c 0.231773,-0.772892 1.380671,-0.465508 0,0 z m -4.968457,-0.6203 c 2.003537,-2.189499 3.428652,0.927244 0,0 z m 3.327826,0.01666 c -1.062472,-0.993971 2.138772,-0.240254 0,5e-6 l 0,-5e-6 z m 4.026992,-0.476971 c 0.623135,-1.808968 1.812637,-0.165264 0,0 z m -0.745737,-0.14915 c 0.422587,0.007 0.158239,-0.01786 0,0 z m -0.495338,-0.105984 c 0.0092,-1.13683 0.663727,0.208991 0,0 z m -17.475901,-0.1906 c 0.08012,-0.373278 0.650596,0.566864 0,0 z m 14.615416,-0.300005 c -1.061597,-0.496073 1.766844,0.276193 0,0 z m -3.246457,-4.791228 c 0.800765,-0.444388 -0.36341,0.458374 0,0 z"
           id="path2185"
           inkscape:connector-curvature="0" />
        <path
           style="fill:url(#linearGradient3157);fill-opacity:1;stroke:none"
           d="m 47.771284,-46.818759 c -18.823957,0 -34.77711,12.325049 -40.1762758,29.303803 4.0808538,5.8628 11.5487938,10.6406505 20.9013728,13.4131838 0.258419,-1.1545839 0.522023,-2.3113754 0.825375,-3.4784189 5.589449,-21.5036509 16.968206,-37.5015339 26.654714,-38.4377809 -2.654324,-0.522639 -5.397468,-0.800787 -8.205186,-0.800787 z"
           id="path4041-0"
           sodipodi:nodetypes="cccscc"
           inkscape:connector-curvature="0" />
      </g>
    </g>
  </g>
</svg>
