<?xml version="1.0" encoding="UTF-8" standalone="no"?>
<!-- Generator: Adobe Illustrator 12.0.0, SVG Export Plug-In . SVG Version: 6.00 Build 51448)  -->

<svg
   xmlns:dc="http://purl.org/dc/elements/1.1/"
   xmlns:cc="http://creativecommons.org/ns#"
   xmlns:rdf="http://www.w3.org/1999/02/22-rdf-syntax-ns#"
   xmlns:svg="http://www.w3.org/2000/svg"
   xmlns="http://www.w3.org/2000/svg"
   xmlns:xlink="http://www.w3.org/1999/xlink"
   xmlns:sodipodi="http://sodipodi.sourceforge.net/DTD/sodipodi-0.dtd"
   xmlns:inkscape="http://www.inkscape.org/namespaces/inkscape"
   version="1.1"
   id="Livello_1"
   width="96"
   height="96"
   viewBox="0 0 96 96"
   overflow="visible"
   enable-background="new 0 0 128 128"
   xml:space="preserve"
   sodipodi:version="0.32"
   inkscape:version="0.48.3.1 r9886"
   sodipodi:docname="leafpad.svg"
   style="overflow:visible"><metadata
   id="metadata42"><rdf:RDF><cc:Work
       rdf:about=""><dc:format>image/svg+xml</dc:format><dc:type
         rdf:resource="http://purl.org/dc/dcmitype/StillImage" /></cc:Work></rdf:RDF></metadata><defs
   id="defs40"><linearGradient
     id="linearGradient4035"><stop
       style="stop-color:#000000;stop-opacity:0;"
       offset="0"
       id="stop4037" /><stop
       id="stop4050"
       offset="0.40677965"
       style="stop-color:#000000;stop-opacity:0;" /><stop
       id="stop4048"
       offset="0.46844774"
       style="stop-color:#000000;stop-opacity:1;" /><stop
       style="stop-color:#000000;stop-opacity:0;"
       offset="0.53672314"
       id="stop4052" /><stop
       style="stop-color:#000000;stop-opacity:0;"
       offset="1"
       id="stop4039" /></linearGradient><radialGradient
     id="radialGradient3731"
     cx="101.1562"
     cy="111.1299"
     r="137.8933"
     gradientUnits="userSpaceOnUse">
			<stop
   offset="0.1006"
   style="stop-color:#f0f0f0;stop-opacity:1;"
   id="stop3733" />
			
			
			
			
			
			
			<stop
   offset="0.4005"
   style="stop-color:#FAFAFA"
   id="stop3750" />
			<stop
   offset="0.4793"
   style="stop-color:#FFFFFF"
   id="stop3752" />
			<stop
   offset="0.5997"
   style="stop-color:#FAFAFA"
   id="stop3754" />
			<stop
   offset="0.7219"
   style="stop-color:#EEEEEE"
   id="stop3757" />
			<stop
   offset="0.8876"
   style="stop-color:#DDDDDD"
   id="stop3759" />
		</radialGradient><linearGradient
     y2="63.125"
     x2="132.0361"
     y1="63.125"
     x1="-22.584999"
     gradientUnits="userSpaceOnUse"
     id="XMLID_128_">
				<stop
   id="stop1822"
   style="stop-color:#2C72C7"
   offset="0.1006" />
				<stop
   id="stop1824"
   style="stop-color:#417FCA"
   offset="0.3475" />
				<stop
   id="stop1826"
   style="stop-color:#598ECE"
   offset="0.679" />
				<stop
   id="stop1828"
   style="stop-color:#6193CF"
   offset="0.8876" />
			</linearGradient><linearGradient
     y2="51.125"
     x2="113.2753"
     y1="51.125"
     x1="-41.345699"
     gradientUnits="userSpaceOnUse"
     id="XMLID_127_">
				<stop
   id="stop1809"
   style="stop-color:#2C72C7"
   offset="0.1006" />
				<stop
   id="stop1811"
   style="stop-color:#417FCA"
   offset="0.3475" />
				<stop
   id="stop1813"
   style="stop-color:#598ECE"
   offset="0.679" />
				<stop
   id="stop1815"
   style="stop-color:#6193CF"
   offset="0.8876" />
			</linearGradient><linearGradient
     y2="39.125"
     x2="94.514099"
     y1="39.125"
     x1="-60.110802"
     gradientUnits="userSpaceOnUse"
     id="XMLID_126_">
				<stop
   id="stop1796"
   style="stop-color:#2C72C7"
   offset="0.1006" />
				<stop
   id="stop1798"
   style="stop-color:#417FCA"
   offset="0.3475" />
				<stop
   id="stop1800"
   style="stop-color:#598ECE"
   offset="0.679" />
				<stop
   id="stop1802"
   style="stop-color:#6193CF"
   offset="0.8876" />
			</linearGradient><linearGradient
     y2="27.125"
     x2="75.752899"
     y1="27.125"
     x1="-78.872101"
     gradientUnits="userSpaceOnUse"
     id="XMLID_125_">
				<stop
   id="stop1783"
   style="stop-color:#2C72C7"
   offset="0.1006" />
				<stop
   id="stop1785"
   style="stop-color:#417FCA"
   offset="0.3475" />
				<stop
   id="stop1787"
   style="stop-color:#598ECE"
   offset="0.679" />
				<stop
   id="stop1789"
   style="stop-color:#6193CF"
   offset="0.8876" />
			</linearGradient><linearGradient
     y2="87.125"
     x2="169.5596"
     y1="87.125"
     x1="14.9346"
     gradientUnits="userSpaceOnUse"
     id="XMLID_124_">
				<stop
   id="stop1770"
   style="stop-color:#2C72C7"
   offset="0.1006" />
				<stop
   id="stop1772"
   style="stop-color:#417FCA"
   offset="0.3475" />
				<stop
   id="stop1774"
   style="stop-color:#598ECE"
   offset="0.679" />
				<stop
   id="stop1776"
   style="stop-color:#6193CF"
   offset="0.8876" />
			</linearGradient><linearGradient
     y2="99.125"
     x2="172.0304"
     y1="99.125"
     x1="17.9321"
     gradientUnits="userSpaceOnUse"
     id="XMLID_123_">
				<stop
   id="stop1751"
   style="stop-color:#2C72C7"
   offset="0.1006" />
				<stop
   id="stop1753"
   style="stop-color:#417FCA"
   offset="0.2695" />
				<stop
   id="stop1755"
   style="stop-color:#598ECE"
   offset="0.4963" />
				<stop
   id="stop1757"
   style="stop-color:#6193CF"
   offset="0.6391" />
				<stop
   id="stop1759"
   style="stop-color:#84ABDA"
   offset="0.7899" />
				<stop
   id="stop1761"
   style="stop-color:#9BBAE1"
   offset="0.9191" />
				<stop
   id="stop1763"
   style="stop-color:#A4C0E4"
   offset="1" />
			</linearGradient><linearGradient
     inkscape:collect="always"
     id="linearGradient4333-3"><stop
       style="stop-color:black;stop-opacity:1;"
       offset="0"
       id="stop4335" /><stop
       style="stop-color:black;stop-opacity:0;"
       offset="1"
       id="stop4337" /></linearGradient><linearGradient
     id="linearGradient1813"
     inkscape:collect="always"><stop
       id="stop1815-4"
       offset="0"
       style="stop-color:#000000;stop-opacity:1;" /><stop
       id="stop1817"
       offset="1"
       style="stop-color:#000000;stop-opacity:0;" /></linearGradient><linearGradient
     id="linearGradient3077"><stop
       id="stop3079"
       offset="0"
       style="stop-color:#ffffff;stop-opacity:1;" /><stop
       id="stop3081"
       offset="1"
       style="stop-color:#8de000;stop-opacity:1;" /></linearGradient><linearGradient
     id="linearGradient3095"><stop
       id="stop3097"
       offset="0"
       style="stop-color:black;stop-opacity:0;" /><stop
       style="stop-color:black;stop-opacity:1;"
       offset="0.53662109"
       id="stop3103" /><stop
       id="stop3105"
       offset="0.81770831"
       style="stop-color:black;stop-opacity:1;" /><stop
       id="stop3099"
       offset="1"
       style="stop-color:black;stop-opacity:0;" /></linearGradient><linearGradient
     id="linearGradient3115"
     inkscape:collect="always"><stop
       id="stop3117"
       offset="0"
       style="stop-color:white;stop-opacity:1;" /><stop
       id="stop3119"
       offset="1"
       style="stop-color:white;stop-opacity:0;" /></linearGradient><linearGradient
     id="linearGradient3666"
     inkscape:collect="always"><stop
       id="stop3668"
       offset="0"
       style="stop-color:black;stop-opacity:1;" /><stop
       id="stop3670"
       offset="1"
       style="stop-color:black;stop-opacity:0;" /></linearGradient><linearGradient
     id="linearGradient3674"
     inkscape:collect="always"><stop
       id="stop3676"
       offset="0"
       style="stop-color:#729fcf;stop-opacity:1" /><stop
       id="stop3678-4"
       offset="1"
       style="stop-color:#3465a4" /></linearGradient><linearGradient
     id="linearGradient3680"
     inkscape:collect="always"><stop
       id="stop3682"
       offset="0"
       style="stop-color:#204a87;stop-opacity:1" /><stop
       id="stop3684"
       offset="1"
       style="stop-color:#3465a4" /></linearGradient><linearGradient
     inkscape:collect="always"
     id="linearGradient3732"><stop
       style="stop-color:#888a85;stop-opacity:1"
       offset="0"
       id="stop3734" /><stop
       style="stop-color:#555753"
       offset="1"
       id="stop3736" /></linearGradient><linearGradient
     inkscape:collect="always"
     id="linearGradient3738"><stop
       style="stop-color:#2e3436;stop-opacity:1"
       offset="0"
       id="stop3740" /><stop
       style="stop-color:#555753"
       offset="1"
       id="stop3742-7" /></linearGradient><linearGradient
     id="linearGradient3746"
     inkscape:collect="always"><stop
       id="stop3748"
       offset="0"
       style="stop-color:white;stop-opacity:1;" /><stop
       id="stop3750-0"
       offset="1"
       style="stop-color:white;stop-opacity:0;" /></linearGradient><linearGradient
     id="linearGradient3754-8"
     inkscape:collect="always"><stop
       id="stop3756-9"
       offset="0"
       style="stop-color:#2e3436;stop-opacity:1;" /><stop
       id="stop3758-7"
       offset="1"
       style="stop-color:#2e3436;stop-opacity:0;" /></linearGradient><radialGradient
     inkscape:collect="always"
     xlink:href="#radialGradient3731"
     id="radialGradient4926"
     gradientUnits="userSpaceOnUse"
     gradientTransform="matrix(0.91119364,-0.18306506,0.1823491,0.91498203,-13.525295,17.586498)"
     cx="102.86758"
     cy="110.30446"
     fx="102.86758"
     fy="110.30446"
     r="137.8933" /><radialGradient
     inkscape:collect="always"
     xlink:href="#radialGradient3731"
     id="radialGradient4928"
     gradientUnits="userSpaceOnUse"
     gradientTransform="matrix(0.91119364,-0.18306506,0.1823491,0.91498203,-13.525295,17.586498)"
     cx="102.86758"
     cy="110.30446"
     fx="102.86758"
     fy="110.30446"
     r="137.8933" /><linearGradient
     inkscape:collect="always"
     xlink:href="#XMLID_123_"
     id="linearGradient4938"
     gradientUnits="userSpaceOnUse"
     gradientTransform="matrix(1.0494728,0,0,1.0535088,-26.097729,8.8632766)"
     x1="17.9321"
     y1="99.125"
     x2="172.0304"
     y2="99.125" /><linearGradient
     inkscape:collect="always"
     xlink:href="#XMLID_124_"
     id="linearGradient4940"
     gradientUnits="userSpaceOnUse"
     gradientTransform="matrix(1.0494728,0,0,1.0535088,-26.097729,8.8632766)"
     x1="14.9346"
     y1="87.125"
     x2="169.5596"
     y2="87.125" /><linearGradient
     inkscape:collect="always"
     xlink:href="#XMLID_125_"
     id="linearGradient4942"
     gradientUnits="userSpaceOnUse"
     gradientTransform="matrix(1.0494728,0,0,1.0535088,-26.097729,8.8632766)"
     x1="-78.872101"
     y1="27.125"
     x2="75.752899"
     y2="27.125" /><linearGradient
     inkscape:collect="always"
     xlink:href="#XMLID_126_"
     id="linearGradient4944"
     gradientUnits="userSpaceOnUse"
     gradientTransform="matrix(1.0494728,0,0,1.0535088,-26.097729,8.8632766)"
     x1="-60.110802"
     y1="39.125"
     x2="94.514099"
     y2="39.125" /><linearGradient
     inkscape:collect="always"
     xlink:href="#XMLID_127_"
     id="linearGradient4964"
     gradientUnits="userSpaceOnUse"
     gradientTransform="matrix(1.0494728,0,0,1.0535088,-26.097729,8.8632766)"
     x1="-41.345699"
     y1="51.125"
     x2="113.2753"
     y2="51.125" /><linearGradient
     inkscape:collect="always"
     xlink:href="#XMLID_128_"
     id="linearGradient4966"
     gradientUnits="userSpaceOnUse"
     gradientTransform="matrix(1.0494728,0,0,1.0535088,-26.097729,8.8632766)"
     x1="-22.584999"
     y1="63.125"
     x2="132.0361"
     y2="63.125" /><radialGradient
     inkscape:collect="always"
     xlink:href="#linearGradient4035"
     id="radialGradient4968"
     gradientUnits="userSpaceOnUse"
     gradientTransform="matrix(2.1517585,1.1258312,-1.5982531,3.0514459,56.215232,-216.26532)"
     cx="55.37299"
     cy="74.239113"
     fx="49.388954"
     fy="67.642883"
     r="49.337746" /><radialGradient
     inkscape:collect="always"
     xlink:href="#linearGradient3666"
     id="radialGradient4970"
     gradientUnits="userSpaceOnUse"
     gradientTransform="matrix(1,0,0,0.361868,0,24.25676)"
     cx="23.776466"
     cy="38.012115"
     fx="23.776466"
     fy="38.012115"
     r="22.715805" /><radialGradient
     inkscape:collect="always"
     xlink:href="#linearGradient4333-3"
     id="radialGradient4972"
     gradientUnits="userSpaceOnUse"
     gradientTransform="matrix(1,0,0,0.226496,0,25.67067)"
     cx="37.375"
     cy="33.1875"
     fx="37.375"
     fy="33.1875"
     r="14.625" /><radialGradient
     inkscape:collect="always"
     xlink:href="#linearGradient3077"
     id="radialGradient4974"
     gradientUnits="userSpaceOnUse"
     gradientTransform="matrix(1.5879145,4.3955321,-2.9883142,1.079548,29.749856,-106.60505)"
     cx="13.003012"
     cy="1.8062106"
     fx="13.003012"
     fy="1.8062106"
     r="21.726608" /><linearGradient
     inkscape:collect="always"
     xlink:href="#linearGradient3095"
     id="linearGradient4976"
     gradientUnits="userSpaceOnUse"
     gradientTransform="matrix(2.6564488,0,0,2.6564488,-2.5082696,-80.355042)"
     x1="9.125"
     y1="39.125"
     x2="40.0625"
     y2="8.375" /><linearGradient
     inkscape:collect="always"
     xlink:href="#linearGradient3115"
     id="linearGradient4978"
     gradientUnits="userSpaceOnUse"
     x1="9.5459414"
     y1="37.039845"
     x2="7.0710678"
     y2="43.934135" /><linearGradient
     inkscape:collect="always"
     xlink:href="#linearGradient1813"
     id="linearGradient4980"
     gradientUnits="userSpaceOnUse"
     gradientTransform="matrix(3.3532082,0,0,1.3916082,-15.40923,-28.329973)"
     x1="18.1875"
     y1="18.53828"
     x2="32.9375"
     y2="18.392296" /><linearGradient
     inkscape:collect="always"
     xlink:href="#linearGradient3674"
     id="linearGradient4982"
     gradientUnits="userSpaceOnUse"
     gradientTransform="matrix(3.3532082,0,0,3.3532082,-15.933169,-77.227494)"
     x1="26.993084"
     y1="11.252465"
     x2="30.432114"
     y2="14.691495" /><linearGradient
     inkscape:collect="always"
     xlink:href="#linearGradient3680"
     id="linearGradient4984"
     gradientUnits="userSpaceOnUse"
     gradientTransform="matrix(3.3532082,0,0,3.3532082,-15.933169,-77.227494)"
     x1="29.03377"
     y1="14.298466"
     x2="25.991804"
     y2="11.2565" /><linearGradient
     inkscape:collect="always"
     xlink:href="#linearGradient3732"
     id="linearGradient4986"
     gradientUnits="userSpaceOnUse"
     gradientTransform="matrix(3.3532082,0,0,3.3532082,-15.933169,-77.227494)"
     x1="26.993084"
     y1="11.252465"
     x2="30.432114"
     y2="14.691495" /><linearGradient
     inkscape:collect="always"
     xlink:href="#linearGradient3738"
     id="linearGradient4992"
     gradientUnits="userSpaceOnUse"
     gradientTransform="matrix(3.3532082,0,0,3.3532082,-15.933169,-77.227494)"
     x1="29.03377"
     y1="14.298466"
     x2="25.991804"
     y2="11.2565" /><linearGradient
     inkscape:collect="always"
     xlink:href="#linearGradient3746"
     id="linearGradient4994"
     gradientUnits="userSpaceOnUse"
     gradientTransform="matrix(3.3532082,0,0,3.3532082,-41.140073,-116.6179)"
     x1="34.125694"
     y1="27.063194"
     x2="32.1875"
     y2="25" /><linearGradient
     inkscape:collect="always"
     xlink:href="#linearGradient3754-8"
     id="linearGradient4996"
     gradientUnits="userSpaceOnUse"
     gradientTransform="matrix(3.3532082,0,0,3.3532082,-41.140073,-116.6179)"
     x1="43.65625"
     y1="17.6875"
     x2="41.65625"
     y2="16" /><radialGradient
     inkscape:collect="always"
     xlink:href="#linearGradient4035"
     id="radialGradient3154"
     gradientUnits="userSpaceOnUse"
     gradientTransform="matrix(1.5498187,0.95678621,-1.3581012,2.1977345,57.080411,-161.67639)"
     cx="55.37299"
     cy="74.239113"
     fx="49.388954"
     fy="67.642883"
     r="49.337746" /><linearGradient
     inkscape:collect="always"
     xlink:href="#XMLID_128_"
     id="linearGradient3157"
     gradientUnits="userSpaceOnUse"
     gradientTransform="matrix(0.7871046,0,0,0.79013159,-15.727039,4.2375882)"
     x1="-22.584999"
     y1="63.125"
     x2="132.0361"
     y2="63.125" /><linearGradient
     inkscape:collect="always"
     xlink:href="#XMLID_127_"
     id="linearGradient3160"
     gradientUnits="userSpaceOnUse"
     gradientTransform="matrix(0.7871046,0,0,0.79013159,-15.727039,4.2375882)"
     x1="-41.345699"
     y1="51.125"
     x2="113.2753"
     y2="51.125" /><linearGradient
     inkscape:collect="always"
     xlink:href="#XMLID_126_"
     id="linearGradient3163"
     gradientUnits="userSpaceOnUse"
     gradientTransform="matrix(0.7871046,0,0,0.79013159,-15.727039,4.2375882)"
     x1="-60.110802"
     y1="39.125"
     x2="94.514099"
     y2="39.125" /><linearGradient
     inkscape:collect="always"
     xlink:href="#XMLID_125_"
     id="linearGradient3166"
     gradientUnits="userSpaceOnUse"
     gradientTransform="matrix(0.7871046,0,0,0.79013159,-15.727039,4.2375882)"
     x1="-78.872101"
     y1="27.125"
     x2="75.752899"
     y2="27.125" /><linearGradient
     inkscape:collect="always"
     xlink:href="#XMLID_124_"
     id="linearGradient3169"
     gradientUnits="userSpaceOnUse"
     gradientTransform="matrix(0.7871046,0,0,0.79013159,-15.727039,4.2375882)"
     x1="14.9346"
     y1="87.125"
     x2="169.5596"
     y2="87.125" /><linearGradient
     inkscape:collect="always"
     xlink:href="#XMLID_123_"
     id="linearGradient3172"
     gradientUnits="userSpaceOnUse"
     gradientTransform="matrix(0.7871046,0,0,0.79013159,-15.727039,4.2375882)"
     x1="17.9321"
     y1="99.125"
     x2="172.0304"
     y2="99.125" /><radialGradient
     inkscape:collect="always"
     xlink:href="#radialGradient3731"
     id="radialGradient3175"
     gradientUnits="userSpaceOnUse"
     gradientTransform="matrix(0.69141664,-0.08844792,0.08771064,0.69421265,97.026847,21.448431)"
     cx="102.86758"
     cy="110.30446"
     fx="102.86758"
     fy="110.30446"
     r="137.8933" /><radialGradient
     inkscape:collect="always"
     xlink:href="#radialGradient3731"
     id="radialGradient3178"
     gradientUnits="userSpaceOnUse"
     gradientTransform="matrix(0.69141664,-0.08844792,0.08771064,0.69421265,98.425754,19.175207)"
     cx="102.86758"
     cy="110.30446"
     fx="102.86758"
     fy="110.30446"
     r="137.8933" /></defs><sodipodi:namedview
   inkscape:window-height="769"
   inkscape:window-width="1134"
   inkscape:pageshadow="2"
   inkscape:pageopacity="0.0"
   borderopacity="1.0"
   bordercolor="#666666"
   pagecolor="#ffffff"
   id="base"
   showguides="true"
   inkscape:guide-bbox="true"
   inkscape:zoom="5.71875"
   inkscape:cx="48"
   inkscape:cy="48"
   inkscape:window-x="6"
   inkscape:window-y="48"
   inkscape:current-layer="Livello_1"
   showgrid="true"
   inkscape:window-maximized="0"
   fit-margin-top="0"
   fit-margin-left="0"
   fit-margin-right="0"
   fit-margin-bottom="0" />




<radialGradient
   id="XMLID_2_"
   cx="11.026738"
   cy="7.9994998"
   r="156.98399"
   gradientUnits="userSpaceOnUse"
   fx="11.026738"
   fy="7.9994998">
	<stop
   offset="0.0765"
   style="stop-color:#ffce05;stop-opacity:1;"
   id="stop12" />
	<stop
   offset="0.18870001"
   style="stop-color:#f9d940;stop-opacity:1;"
   id="stop14" />
	<stop
   offset="0.3467"
   style="stop-color:#FDE446"
   id="stop16" />
	<stop
   offset="0.4294"
   style="stop-color:#FFEB55"
   id="stop18" />
	<stop
   offset="0.6882"
   style="stop-color:#FFEB55"
   id="stop20" />
	<stop
   offset="0.7281"
   style="stop-color:#FEE951"
   id="stop22" />
	<stop
   offset="0.7641"
   style="stop-color:#FDE446"
   id="stop24" />
	<stop
   offset="0.7987"
   style="stop-color:#FADB34"
   id="stop26" />
	<stop
   offset="0.8322"
   style="stop-color:#F7CF1A"
   id="stop28" />
	<stop
   offset="0.8588"
   style="stop-color:#F3C300"
   id="stop30" />
	<stop
   offset="0.9208"
   style="stop-color:#FBD400"
   id="stop32" />
	<stop
   offset="0.9706"
   style="stop-color:#FFDD00"
   id="stop34" />
</radialGradient>


<g
   id="g3188"><path
     inkscape:connector-curvature="0"
     style="opacity:0.3;fill:#131313;fill-opacity:1"
     d="M 15.516982,91.965376 C 18.184466,91.624148 57.152699,86.63925 58.307364,86.491541 L 79.054783,83.524651 76.406084,62.29026 C 76.264965,61.173272 69.297167,6.0243373 68.952904,3.2995533 66.249466,3.6453832 8.0467182,11.09081 5.3425886,11.436728 5.6885178,14.174702 15.171052,89.227408 15.516982,91.965376 z"
     id="path5645"
     sodipodi:nodetypes="ccccccc" /><path
     id="path3185"
     d="M 68.8125,0.375 C 68.400901,0.40623126 68.319548,0.44488823 68.59375,0.40625 65.895081,0.75146981 7.67764,8.1847231 4.96875,8.53125 2.9705134,8.7884744 1.5793488,10.650667 1.8125,12.625 a 1.4099347,1.4099347 0 0 0 0,0.03125 c 0.3451902,2.732125 9.715831,77.037418 10.0625,79.78125 0.124915,0.997635 0.656078,1.854883 1.40625,2.4375 0.777976,0.604186 1.778448,0.841134 2.71875,0.71875 2.660416,-0.340323 41.369998,-5.300232 42.6875,-5.46875 a 1.4099347,1.4099347 0 0 0 0.09375,0 1.4099347,1.4099347 0 0 0 0.0625,0 l 20.8125,-3.03125 c 1.94269,-0.291291 3.333281,-2.102831 3.09375,-4.0625 A 1.4099347,1.4099347 0 0 0 82.75,83 L 80.15625,62.53125 C 80.013158,61.39862 73.030984,6.2811107 72.6875,3.5625 72.447108,1.6514189 70.749576,0.27068515 68.84375,0.375 a 1.4099347,1.4099347 0 0 0 -0.03125,0 z"
     style="opacity:0.1;fill:#000000;fill-opacity:1;stroke:none" /><path
     inkscape:connector-curvature="0"
     style="opacity:0.15;fill:#000000;fill-opacity:1;stroke:none"
     d="M 68.91813,1.783051 C 68.87029,1.786681 68.82258,1.791841 68.775075,1.798535 66.071638,2.1443647 7.8647675,9.6064396 5.1606416,9.9523571 3.9378399,10.109763 3.0693091,11.227215 3.2144556,12.456321 3.5603852,15.194298 12.94725,89.501649 13.29318,92.239631 c 0.07447,0.594756 0.381707,1.135148 0.853837,1.501825 0.47213,0.366662 1.070312,0.529447 1.662427,0.452381 2.667493,-0.341228 41.619789,-5.314575 42.774442,-5.462278 0.01573,0.0011 0.03148,0.002 0.04723,0.0027 L 79.444552,85.68432 c 1.204919,-0.180668 2.047349,-1.292698 1.89896,-2.506711 L 78.737541,62.733969 C 78.596404,61.616815 71.611991,6.4761556 71.267727,3.7513682 71.120107,2.5778091 70.094535,1.7186608 68.91813,1.783051 l 0,0 z"
     id="path4023"
     sodipodi:nodetypes="csscssssccccscc" /><path
     inkscape:connector-curvature="0"
     style="opacity:0.25;fill:#000000;fill-opacity:1;stroke:none"
     d="m 69.11153,2.5317921 c -0.08712,-0.00477 -0.174492,-0.00188 -0.261119,0.00863 -2.703438,0.3458299 -60.8866937,7.8092758 -63.5908208,8.1551928 -0.3962504,0.04815 -0.75705,0.253127 -1.0023026,0.569428 -0.2452524,0.3163 -0.3546637,0.717751 -0.3039447,1.115232 0.3459295,2.737977 9.7327951,77.045332 10.0787251,79.783307 0.111251,0.819837 0.861336,1.394995 1.678428,1.286997 2.667491,-0.341228 41.619785,-5.314568 42.774441,-5.462278 0.01572,0.0012 0.03147,0.0021 0.04723,0.0027 l 20.813441,-3.049946 c 0.807592,-0.123765 1.367752,-0.874518 1.259018,-1.6874 L 77.997276,62.833728 C 77.856142,61.71663 70.871725,6.5759131 70.527461,3.8511268 70.439136,3.1233601 69.840914,2.5659486 69.11153,2.5317921 l 0,0 z"
     id="path4021"
     sodipodi:nodetypes="cscssccsccccccc" /><path
     inkscape:connector-curvature="0"
     style="opacity:0.25;fill:#000000;fill-opacity:1;stroke:none"
     d="m 68.996585,3.2864191 c -0.01645,0.00641 -0.03265,0.013406 -0.04861,0.020968 -2.703436,0.3458299 -60.9089247,7.7841936 -63.6130531,8.1301116 -0.4082694,0.05608 -0.6948722,0.432818 -0.6413172,0.843015 0.3459294,2.737976 9.7327943,77.045341 10.0787253,79.783308 0.05562,0.409922 0.430667,0.697501 0.839214,0.643502 2.667488,-0.341235 41.643392,-5.313203 42.798054,-5.460913 l 20.813435,-3.049939 c 0.40827,-0.05608 0.694879,-0.432814 0.641321,-0.843017 L 77.233402,62.932116 C 77.092264,61.815072 70.131459,6.6756707 69.787195,3.9508854 69.741888,3.5533206 69.394353,3.2612352 68.996585,3.2864191 l 0,0 z"
     id="path4016"
     sodipodi:nodetypes="cccscsccccccc" /><path
     inkscape:connector-curvature="0"
     sodipodi:nodetypes="ccccccc"
     id="path3852"
     d="M 15.516982,91.965376 C 18.184466,91.624148 57.152699,86.63925 58.307364,86.491541 L 77.442698,82.160103 76.406084,62.29026 C 76.264965,61.173272 69.297167,6.0243373 68.952904,3.2995533 66.249466,3.6453832 8.0467182,11.09081 5.3425886,11.436728 5.6885178,14.174702 15.171052,89.227408 15.516982,91.965376 z"
     style="fill:#ffffff" /><rect
     style="opacity:0.5;fill:url(#linearGradient3172)"
     x="9.4642591"
     y="82.349144"
     width="55.552677"
     height="0.54301912"
     id="rect3858"
     transform="matrix(0.99191689,-0.12688924,0.12534947,0.99211265,0,0)" /><rect
     style="opacity:0.5;fill:url(#linearGradient3169)"
     x="9.4642591"
     y="72.867592"
     width="55.516022"
     height="0.41955966"
     id="rect3860"
     transform="matrix(0.99191689,-0.12688924,0.12534947,0.99211265,0,0)" /><rect
     style="opacity:0.5;fill:url(#linearGradient3166)"
     x="9.4642591"
     y="25.459724"
     width="55.516022"
     height="0.42034975"
     id="rect3862"
     transform="matrix(0.99191689,-0.12688924,0.12534947,0.99211265,0,0)" /><rect
     style="opacity:0.5;fill:url(#linearGradient3163)"
     x="9.4642591"
     y="34.941299"
     width="55.516022"
     height="0.42034975"
     id="rect3864"
     transform="matrix(0.99191689,-0.12688924,0.12534947,0.99211265,0,0)" /><rect
     style="opacity:0.5;fill:url(#linearGradient3160)"
     x="9.4642591"
     y="44.422871"
     width="55.516022"
     height="0.42034975"
     id="rect3866"
     transform="matrix(0.99191689,-0.12688924,0.12534947,0.99211265,0,0)" /><rect
     style="opacity:0.5;fill:url(#linearGradient3157)"
     x="9.4642591"
     y="53.904446"
     width="55.516022"
     height="0.42034975"
     id="rect3868"
     transform="matrix(0.99191689,-0.12688924,0.12534947,0.99211265,0,0)" /><path
     inkscape:connector-curvature="0"
     id="path4033"
     d="m 37.89687,48.217495 c 0.170948,1.353019 4.756739,38.192679 4.927599,39.545009 1.328903,-0.169997 14.535063,-1.855154 15.102716,-1.927765 L 76.881593,81.744432 75.679062,62.096857 c -0.06965,-0.551206 -2.087981,-17.069879 -2.25849,-18.419428 -1.338583,0.171234 -34.18581,4.368919 -35.523702,4.540066 z"
     style="opacity:0.1;fill:url(#radialGradient3154);fill-opacity:1"
     sodipodi:nodetypes="ccccccc" /></g><g
   id="g4747"
   transform="matrix(-0.45054436,0,0,0.44939682,72.526279,44.112007)"><path
     transform="matrix(2.4807274,0,0,3.2666935,2.374092,-105.6932)"
     d="m 46.492271,38.012115 c 0,4.539846 -10.170212,8.220117 -22.715805,8.220117 -12.545592,0 -22.7158047,-3.680271 -22.7158047,-8.220117 0,-4.539845 10.1702127,-8.220116 22.7158047,-8.220116 12.545593,0 22.715805,3.680271 22.715805,8.220116 z"
     sodipodi:ry="8.2201166"
     sodipodi:rx="22.715805"
     sodipodi:cy="38.012115"
     sodipodi:cx="23.776466"
     id="path3656"
     style="opacity:0.3;color:#000000;fill:url(#radialGradient4970);fill-opacity:1;fill-rule:nonzero;stroke:none;stroke-width:3;marker:none;visibility:visible;display:inline;overflow:visible"
     sodipodi:type="arc" /><path
     transform="matrix(2.3839928,0,0,2.6063269,1.3657094,-71.718473)"
     d="M 52,33.1875 C 52,35.016943 45.452164,36.5 37.375,36.5 29.297836,36.5 22.75,35.016943 22.75,33.1875 c 0,-1.829443 6.547836,-3.3125 14.625,-3.3125 8.077164,0 14.625,1.483057 14.625,3.3125 z"
     sodipodi:ry="3.3125"
     sodipodi:rx="14.625"
     sodipodi:cy="33.1875"
     sodipodi:cx="37.375"
     id="path4331"
     style="opacity:0.07000002;fill:url(#radialGradient4972);fill-opacity:1;stroke:none"
     sodipodi:type="arc" /><path
     sodipodi:nodetypes="cccccc"
     id="path2157"
     d="M 3.9948911,37.868135 17.518427,24.585298 C -9.14236,-83.265021 68.470661,-40.938432 116.76968,-70.245061 76.914877,-33.275764 153.26589,49.466294 22.681565,29.893308 L 9.5755417,43.111842 3.9948911,37.868135 z"
     style="fill:url(#radialGradient4974);fill-opacity:1;fill-rule:evenodd;stroke:#4e9a06;stroke-width:3.54193187px;stroke-linecap:round;stroke-linejoin:round;stroke-opacity:1"
     inkscape:connector-curvature="0" /><path
     sodipodi:nodetypes="cc"
     id="path3093"
     d="m 20.901685,26.400994 c 32.788213,-69.485066 61.823868,-49.08287 84.342245,-86.998698"
     style="opacity:0.2;fill:none;stroke:url(#linearGradient4976);stroke-width:3.54193187px;stroke-linecap:round;stroke-linejoin:miter;stroke-opacity:1"
     inkscape:connector-curvature="0" /><path
     transform="matrix(2.6688365,0,0,2.6688365,-2.7575264,-80.932061)"
     d="m 41.375,6.6875 c -8.681066,3.467957 -18.563946,2.837498 -25.4375,4.875 -3.987766,1.182078 -6.8822075,3.096284 -8.375,7.15625 C 6.0697075,22.778716 6.0467462,29.19949 8.53125,39.25 A 1.0461616,1.0461616 0 0 1 8.25,40.25 L 3.96875,44.46875 4.53125,45 8.71875,40.75 A 1.0461616,1.0461616 0 0 1 9.625,40.46875 c 12.197321,1.828228 19.448117,1.190226 23.5625,-0.75 4.114383,-1.940226 5.379249,-5.066819 5.78125,-9.1875 0.402001,-4.120681 -0.252382,-9.084694 -0.0625,-13.96875 0.133063,-3.422585 0.756932,-6.842735 2.46875,-9.875 z"
     id="path3089"
     style="opacity:0.4;fill:none;stroke:url(#linearGradient4978);stroke-width:1.33333337px;stroke-linecap:butt;stroke-linejoin:miter;stroke-opacity:1"
     inkscape:original="M 44.90625 3.8125 C 26.724449 14.844758 -2.505001 -1.0994337 7.53125 39.5 L 2.4375 44.5 L 4.5625 46.46875 L 9.46875 41.5 C 58.626229 48.868102 29.903212 17.729311 44.90625 3.8125 z "
     inkscape:radius="-1.046057"
     sodipodi:type="inkscape:offset" /><g
     transform="matrix(2.6564488,0,0,2.6564488,42.40795,41.833819)"
     style="display:inline"
     inkscape:label="base"
     id="g2637" /></g><g
   id="g4808"
   transform="matrix(0.75,0,0,0.75,1.9042503,76.214565)"><path
     id="path2334"
     d="m 100.38124,-22.633073 -50.298122,14.9986085 -0.41915,0.217422 -0.314364,0.2609131 -9.221322,9.5673004 24.939485,-2.82670114 0.943091,-0.0869844 0.628726,-0.26091404 33.741656,-8.99730452 0,-12.8723659 z"
     style="opacity:0.5;fill:url(#linearGradient4980);fill-opacity:1;fill-rule:evenodd;stroke:none;display:inline"
     sodipodi:nodetypes="cccccccccc"
     inkscape:connector-curvature="0" /><g
     id="g4798"><path
       inkscape:connector-curvature="0"
       sodipodi:nodetypes="cccccc"
       id="path2273"
       d="m 49.454392,-16.869747 57.004538,-57.00454 c 7.2934,1.207024 10.34371,5.808511 11.73623,11.736229 L 61.190621,-5.1335178 49.873543,-6.4957587 49.454392,-16.869747 z"
       style="fill:url(#linearGradient4982);fill-opacity:1;fill-rule:evenodd;stroke:url(#linearGradient4984);stroke-width:4.4709444;stroke-linecap:butt;stroke-linejoin:miter;stroke-miterlimit:4;stroke-opacity:1;stroke-dasharray:none" /><path
       inkscape:connector-curvature="0"
       style="fill:url(#linearGradient4986);fill-opacity:1;fill-rule:evenodd;stroke:url(#linearGradient4992);stroke-width:4.4709444;stroke-linecap:butt;stroke-linejoin:round;stroke-miterlimit:4;stroke-opacity:1;stroke-dasharray:none"
       d="m 108.18249,-52.068642 10.05961,-10.059624 c -1.39252,-5.927718 -4.44283,-10.529205 -11.73623,-11.736229 L 96.446258,-63.80487 c 7.293382,1.207024 10.343692,5.808511 11.736232,11.736228 z"
       id="path3716"
       sodipodi:nodetypes="ccccc" /><path
       inkscape:connector-curvature="0"
       sodipodi:nodetypes="cccccc"
       id="path2313"
       d="m 52.472272,-15.193142 55.320398,-54.985064 c 3.65413,0.59833 5.08768,3.312782 6.70641,6.706417 L 59.514016,-8.1513984 48.448419,-5.1335078 52.472272,-15.193142 z"
       style="opacity:0.28235294;fill:none;stroke:url(#linearGradient4994);stroke-width:4.47094679;stroke-linecap:butt;stroke-linejoin:miter;stroke-miterlimit:4;stroke-opacity:1;stroke-dasharray:none;display:inline" /><path
       inkscape:connector-curvature="0"
       sodipodi:nodetypes="cczcc"
       id="path2298"
       d="m 45.585895,-2.5295475 5.357791,-13.4411135 c 0,0 3.856914,0.788916 6.212606,3.135243 2.355692,2.346327 3.210168,6.2500683 3.210168,6.2500683 l -14.780565,4.0558022 z"
       style="fill:#fef7bd;fill-opacity:1;fill-rule:evenodd;stroke:none" /><path
       inkscape:connector-curvature="0"
       sodipodi:nodetypes="ccc"
       id="path3686"
       d="M 61.19062,-5.1335173 42.747975,-0.10370542 49.454392,-16.869746"
       style="fill:none;stroke:#c17d11;stroke-width:4.4709444;stroke-linecap:round;stroke-linejoin:miter;stroke-miterlimit:4;stroke-opacity:1;stroke-dasharray:none" /><path
       inkscape:connector-curvature="0"
       id="path2283"
       d="m 42.957551,-5.1335178 -3.038846,7.544719 7.859082,-2.20054345 c 0.0067,-0.10676447 0,-0.20591986 0,-0.31436317 0,-2.68969218 -2.163851,-4.89501668 -4.820236,-5.02981238 z"
       style="fill:#000000;fill-opacity:1;fill-rule:evenodd;stroke:none;display:inline"
       sodipodi:nodetypes="cccsc" /><path
       inkscape:connector-curvature="0"
       sodipodi:nodetypes="cc"
       id="path3712"
       d="m 98.704633,-66.015205 c 7.293397,1.207024 10.343707,5.808511 11.736227,11.736229"
       style="fill:none;stroke:#eeeeec;stroke-width:4.4709444;stroke-linecap:round;stroke-linejoin:miter;stroke-miterlimit:4;stroke-opacity:1;stroke-dasharray:none" /><path
       inkscape:connector-curvature="0"
       style="fill:none;stroke:url(#linearGradient4996);stroke-width:4.4709444;stroke-linecap:round;stroke-linejoin:miter;stroke-miterlimit:4;stroke-opacity:1;stroke-dasharray:none"
       d="m 96.446258,-63.80487 c 7.293382,1.207024 10.343692,5.808511 11.736232,11.736228"
       id="path3744"
       sodipodi:nodetypes="cc" /></g></g></svg>