<?xml version="1.0" encoding="UTF-8" standalone="no"?>
<!-- Created with Inkscape (http://www.inkscape.org/) -->

<svg
   xmlns:dc="http://purl.org/dc/elements/1.1/"
   xmlns:cc="http://creativecommons.org/ns#"
   xmlns:rdf="http://www.w3.org/1999/02/22-rdf-syntax-ns#"
   xmlns:svg="http://www.w3.org/2000/svg"
   xmlns="http://www.w3.org/2000/svg"
   xmlns:xlink="http://www.w3.org/1999/xlink"
   xmlns:sodipodi="http://sodipodi.sourceforge.net/DTD/sodipodi-0.dtd"
   xmlns:inkscape="http://www.inkscape.org/namespaces/inkscape"
   width="96"
   height="96"
   id="svg2"
   version="1.1"
   inkscape:version="0.48.4 r9939"
   sodipodi:docname="pidgin.svg"
   inkscape:export-filename="/home/pinheiro/pics/oxygen-icons/scalable/apps/small/32x32/kde-telapathy.png"
   inkscape:export-xdpi="360"
   inkscape:export-ydpi="360">
  <defs
     id="defs4">
    <linearGradient
       inkscape:collect="always"
       id="linearGradient3961">
      <stop
         style="stop-color:#53215f;stop-opacity:1;"
         offset="0"
         id="stop3963" />
      <stop
         style="stop-color:#53215f;stop-opacity:0;"
         offset="1"
         id="stop3965" />
    </linearGradient>
    <linearGradient
       inkscape:collect="always"
       id="linearGradient3929">
      <stop
         style="stop-color:#ffffff;stop-opacity:1;"
         offset="0"
         id="stop3931" />
      <stop
         style="stop-color:#ffffff;stop-opacity:0;"
         offset="1"
         id="stop3933" />
    </linearGradient>
    <linearGradient
       inkscape:collect="always"
       id="linearGradient3921">
      <stop
         style="stop-color:#ffffff;stop-opacity:1;"
         offset="0"
         id="stop3923" />
      <stop
         style="stop-color:#ffffff;stop-opacity:0;"
         offset="1"
         id="stop3925" />
    </linearGradient>
    <linearGradient
       inkscape:collect="always"
       id="linearGradient3894">
      <stop
         style="stop-color:#ffffff;stop-opacity:1;"
         offset="0"
         id="stop3896" />
      <stop
         style="stop-color:#ffffff;stop-opacity:0;"
         offset="1"
         id="stop3898" />
    </linearGradient>
    <linearGradient
       id="linearGradient3904">
      <stop
         id="stop3906"
         offset="0"
         style="stop-color:#e57cff;stop-opacity:1;" />
      <stop
         style="stop-color:#9c3eb4;stop-opacity:1;"
         offset="0.60811019"
         id="stop3908" />
      <stop
         id="stop3910"
         offset="1"
         style="stop-color:#540069;stop-opacity:1;" />
    </linearGradient>
    <linearGradient
       id="linearGradient5463">
      <stop
         style="stop-color:#e596f9;stop-opacity:1;"
         offset="0"
         id="stop5465" />
      <stop
         style="stop-color:#e596f9;stop-opacity:0;"
         offset="1"
         id="stop5467" />
    </linearGradient>
    <linearGradient
       id="linearGradient4882">
      <stop
         style="stop-color:#521461;stop-opacity:1;"
         offset="0"
         id="stop4884" />
      <stop
         style="stop-color:#521461;stop-opacity:0;"
         offset="1"
         id="stop4886" />
    </linearGradient>
    <linearGradient
       id="linearGradient4824">
      <stop
         style="stop-color:#00171c;stop-opacity:1;"
         offset="0"
         id="stop4826" />
      <stop
         style="stop-color:#00171c;stop-opacity:0;"
         offset="1"
         id="stop4828" />
    </linearGradient>
    <linearGradient
       id="linearGradient4609">
      <stop
         id="stop4611"
         offset="0"
         style="stop-color:#d289e4;stop-opacity:1;" />
      <stop
         id="stop4613"
         offset="1"
         style="stop-color:#b02fd0;stop-opacity:0;" />
    </linearGradient>
    <linearGradient
       id="linearGradient4539">
      <stop
         style="stop-color:#e57cff;stop-opacity:1;"
         offset="0"
         id="stop4541" />
      <stop
         id="stop3902"
         offset="0.5"
         style="stop-color:#9c3eb4;stop-opacity:1;" />
      <stop
         style="stop-color:#540069;stop-opacity:1;"
         offset="1"
         id="stop4543" />
    </linearGradient>
    <linearGradient
       id="linearGradient4497">
      <stop
         style="stop-color:#f9e1ff;stop-opacity:1;"
         offset="0"
         id="stop4499" />
      <stop
         style="stop-color:#f3c1ff;stop-opacity:0;"
         offset="1"
         id="stop4501" />
    </linearGradient>
    <clipPath
       clipPathUnits="userSpaceOnUse"
       id="clipPath4856">
      <path
         sodipodi:nodetypes="ssssccsss"
         inkscape:connector-curvature="0"
         id="path4858"
         d="m -66.104346,932.73718 c -3.765618,0.0129 -7.605084,0.33656 -11.5,0.96875 -31.159334,5.0575 -53.288274,28.7562 -49.437504,52.9375 2.0686,12.98996 12.0757,21.90467 24.0625,29.59377 4.32498,2.7743 0.0354,17.7964 -9.09375,21.75 18.630393,-0.5848 28.253024,-8.1707 33.406254,-15.8438 4.863182,0.2239 9.890802,-0.046 15,-0.875 31.159334,-5.0575 53.288284,-28.75616 49.437504,-52.93747 -3.36943,-21.15864 -25.515681,-35.68392 -51.875004,-35.59375 z"
         style="fill:url(#radialGradient4860);fill-opacity:1;stroke:none" />
    </clipPath>
    <radialGradient
       inkscape:collect="always"
       xlink:href="#linearGradient4539"
       id="radialGradient4860"
       gradientUnits="userSpaceOnUse"
       gradientTransform="matrix(1.2906724,0,0,1.1949353,-154.69064,912.47117)"
       cx="65.125"
       cy="60.99979"
       fx="87.516037"
       fy="67.562584"
       r="56.841492" />
    <linearGradient
       id="linearGradient8692"
       y2="29.854"
       gradientUnits="userSpaceOnUse"
       x2="19.985001"
       gradientTransform="matrix(1.0769,0,0,1.1429,-0.9051,-4.6801)"
       y1="29.910999"
       x1="18.5">
      <stop
         id="stop8688"
         style="stop-color:#fdb751"
         offset="0" />
      <stop
         id="stop8690"
         style="stop-color:#ce5c00"
         offset="1" />
    </linearGradient>
    <linearGradient
       id="linearGradient3956-5">
      <stop
         style="stop-color:#9d50b0;stop-opacity:1;"
         offset="0"
         id="stop3958-5" />
      <stop
         style="stop-color:#783c84;stop-opacity:1;"
         offset="1"
         id="stop3960-67" />
    </linearGradient>
    <radialGradient
       inkscape:collect="always"
       xlink:href="#linearGradient3904"
       id="radialGradient4178"
       gradientUnits="userSpaceOnUse"
       gradientTransform="matrix(1.3018408,0,0,1.2052753,-22.305199,912.71563)"
       cx="65.125"
       cy="60.99979"
       fx="87.516037"
       fy="67.562584"
       r="56.841492" />
    <radialGradient
       inkscape:collect="always"
       xlink:href="#linearGradient4609"
       id="radialGradient4180"
       gradientUnits="userSpaceOnUse"
       gradientTransform="matrix(1.7185421,0,0,0.82154847,-184.3489,852.3356)"
       cx="142.92635"
       cy="205.0354"
       fx="142.92635"
       fy="205.0354"
       r="61.999104" />
    <linearGradient
       inkscape:collect="always"
       xlink:href="#linearGradient4882"
       id="linearGradient4182"
       gradientUnits="userSpaceOnUse"
       x1="-82.577522"
       y1="1054.1454"
       x2="-82.577522"
       y2="945.20435" />
    <radialGradient
       inkscape:collect="always"
       xlink:href="#linearGradient5463"
       id="radialGradient4184"
       gradientUnits="userSpaceOnUse"
       gradientTransform="matrix(2.6333862,0,0,3.5234657,-161.19012,-166.54874)"
       cx="98.684631"
       cy="66"
       fx="98.779564"
       fy="70.115265"
       r="18.684629" />
    <linearGradient
       inkscape:collect="always"
       xlink:href="#linearGradient4497"
       id="linearGradient4186"
       gradientUnits="userSpaceOnUse"
       gradientTransform="matrix(0.75379424,-0.06634864,0,0.94362507,53.078597,939.98591)"
       x1="7.4941335"
       y1="-7.3202844"
       x2="10.346652"
       y2="61.587627" />
    <radialGradient
       inkscape:collect="always"
       xlink:href="#linearGradient4497"
       id="radialGradient4188"
       gradientUnits="userSpaceOnUse"
       gradientTransform="matrix(0.95564987,0,0,0.54811701,0.26682448,434.41783)"
       cx="65.032387"
       cy="963.30902"
       fx="64.325279"
       fy="921.39209"
       r="51.628277" />
    <linearGradient
       inkscape:collect="always"
       xlink:href="#linearGradient3894"
       id="linearGradient3101"
       gradientUnits="userSpaceOnUse"
       x1="53.69701"
       y1="36.579662"
       x2="36.377274"
       y2="107.07242"
       gradientTransform="matrix(0.75,0,0,0.75,0,956.36219)" />
    <linearGradient
       inkscape:collect="always"
       xlink:href="#linearGradient4824"
       id="linearGradient3113"
       gradientUnits="userSpaceOnUse"
       gradientTransform="matrix(0.76385422,0,0,0.68281504,-2.8822091,966.64574)"
       x1="79.752075"
       y1="115.83942"
       x2="79.752075"
       y2="62.532864" />
    <linearGradient
       inkscape:collect="always"
       xlink:href="#linearGradient8692"
       id="linearGradient3123"
       gradientUnits="userSpaceOnUse"
       gradientTransform="matrix(2.0933721,0,0,2.2216687,23.540067,920.2856)"
       x1="18.618565"
       y1="30.059956"
       x2="20.182608"
       y2="29.816761" />
    <linearGradient
       inkscape:collect="always"
       xlink:href="#linearGradient3956-5"
       id="linearGradient3930"
       gradientUnits="userSpaceOnUse"
       gradientTransform="matrix(0.75,0,0,0.75,-0.92572623,262.18657)"
       x1="48.485485"
       y1="970.88824"
       x2="48.239212"
       y2="975.65192" />
    <linearGradient
       inkscape:collect="always"
       xlink:href="#linearGradient3929"
       id="linearGradient3933"
       gradientUnits="userSpaceOnUse"
       x1="77.659225"
       y1="968.75635"
       x2="70.02478"
       y2="979.65491"
       gradientTransform="matrix(0.75,0,0,0.75,-0.92572623,262.56157)" />
    <linearGradient
       inkscape:collect="always"
       xlink:href="#linearGradient3956-5"
       id="linearGradient3936"
       gradientUnits="userSpaceOnUse"
       x1="47.789833"
       y1="978.88824"
       x2="48.58704"
       y2="965.56494"
       gradientTransform="matrix(0.75,0,0,0.75,-0.92572623,262.56157)" />
    <linearGradient
       inkscape:collect="always"
       xlink:href="#linearGradient3956-5"
       id="linearGradient3949"
       gradientUnits="userSpaceOnUse"
       x1="48.485485"
       y1="970.88824"
       x2="48.239212"
       y2="975.65192"
       gradientTransform="matrix(0.75,0,0,0.75,0,263.09056)" />
    <linearGradient
       inkscape:collect="always"
       xlink:href="#linearGradient3921"
       id="linearGradient3952"
       gradientUnits="userSpaceOnUse"
       x1="46.090424"
       y1="968.49884"
       x2="51.7994"
       y2="977.77423"
       gradientTransform="matrix(0.75,0,0,0.75,0,263.09056)" />
    <linearGradient
       inkscape:collect="always"
       xlink:href="#linearGradient3956-5"
       id="linearGradient3955"
       gradientUnits="userSpaceOnUse"
       x1="47.789833"
       y1="978.88824"
       x2="48.58704"
       y2="965.56494"
       gradientTransform="matrix(0.75,0,0,0.75,0,263.09056)" />
    <radialGradient
       inkscape:collect="always"
       xlink:href="#linearGradient3961"
       id="radialGradient3957"
       gradientUnits="userSpaceOnUse"
       gradientTransform="matrix(1,0,0,1.0333334,0,-1.5508525)"
       cx="48.393196"
       cy="46.52552"
       fx="48.393196"
       fy="46.52552"
       r="1.1342155" />
    <radialGradient
       inkscape:collect="always"
       xlink:href="#linearGradient3961"
       id="radialGradient3959"
       gradientUnits="userSpaceOnUse"
       gradientTransform="matrix(1,0,0,1.0333334,0,-1.5508525)"
       cx="48.393196"
       cy="46.52552"
       fx="48.393196"
       fy="46.52552"
       r="1.1342155" />
  </defs>
  <sodipodi:namedview
     id="base"
     pagecolor="#ffffff"
     bordercolor="#666666"
     borderopacity="1.0"
     inkscape:pageopacity="0.0"
     inkscape:pageshadow="2"
     inkscape:zoom="4"
     inkscape:cx="48"
     inkscape:cy="48"
     inkscape:document-units="px"
     inkscape:current-layer="layer1"
     showgrid="false"
     inkscape:window-width="1020"
     inkscape:window-height="730"
     inkscape:window-x="37"
     inkscape:window-y="45"
     inkscape:window-maximized="0"
     inkscape:snap-global="false"
     fit-margin-top="0"
     fit-margin-left="0"
     fit-margin-right="0"
     fit-margin-bottom="0" />
  <metadata
     id="metadata7">
    <rdf:RDF>
      <cc:Work
         rdf:about="">
        <dc:format>image/svg+xml</dc:format>
        <dc:type
           rdf:resource="http://purl.org/dc/dcmitype/StillImage" />
        <dc:title />
      </cc:Work>
    </rdf:RDF>
  </metadata>
  <g
     inkscape:label="Layer 1"
     inkscape:groupmode="layer"
     id="layer1"
     transform="translate(0,-956.36224)">
    <g
       id="g4035">
      <path
         style="opacity:0.58288772;fill:url(#linearGradient3113);fill-opacity:1;stroke:none"
         d="m 50.325012,972.36432 c -2.876384,0.009 -5.809176,0.2298 -8.784324,0.66147 -23.801186,3.45334 -40.70447663,19.63516 -37.7630431,36.14651 1.5801096,8.8698 9.2240681,14.9568 18.3802421,20.2071 3.303651,1.8943 0.02707,12.1516 -6.946299,14.8512 14.230901,-0.3993 21.581188,-5.5791 25.517505,-10.8183 3.714762,0.1528 7.555131,-0.032 11.457813,-0.5975 23.801189,-3.4534 40.704479,-19.6352 37.763046,-36.14654 -2.573752,-14.44744 -19.49026,-24.36552 -39.62494,-24.30394 z"
         id="path4547"
         inkscape:connector-curvature="0"
         sodipodi:nodetypes="ssssccsss" />
      <g
         transform="matrix(0.75,0,0,0.75,0,263.09056)"
         id="g4060">
        <path
           style="fill:url(#radialGradient4178);fill-opacity:1;stroke:none"
           d="m 67.047645,933.157 c -3.798203,0.013 -7.670893,0.33948 -11.599512,0.97714 -31.428959,5.10126 -53.7493926,29.00503 -49.8652924,53.39558 2.0865007,13.10238 12.1801854,22.09418 24.2707174,29.84988 4.362401,2.7983 0.03576,17.9504 -9.17244,21.9382 18.791601,-0.5899 28.497499,-8.2414 33.695321,-15.9809 4.905264,0.2258 9.976389,-0.046 15.129798,-0.8826 31.428963,-5.1013 53.749403,-29.00499 49.865293,-53.39555 -3.39858,-21.34173 -25.73647,-35.9927 -52.323885,-35.90175 z"
           id="path4533"
           inkscape:connector-curvature="0"
           sodipodi:nodetypes="ssssccsss" />
        <path
           sodipodi:nodetypes="csccscccccccccccc"
           inkscape:connector-curvature="0"
           id="path4605"
           d="m 7.7650982,970.04065 c -2.0764836,5.66601 -2.8301093,11.61428 -1.8787134,17.58865 1.9777135,12.4193 11.6193312,21.1512 23.8402242,28.9905 2.09057,1.6785 1.100061,-0.1199 -0.05794,-0.9061 C 16.216883,1007.6223 6.9462,997.37874 6.9553494,984.77884 c 0.00363,-5.0553 -0.4367363,-9.94469 0.8097902,-14.73819 z M 100.92337,1007.291 c -8.252131,6.0934 -18.568532,10.5576 -30.156592,12.4384 -5.07209,0.8234 -10.052075,1.1187 -14.90014,0.9069 -0.393913,0.5776 -0.944902,1.1431 -1.392839,1.7168 4.634426,0.1635 9.425046,-0.086 14.2847,-0.8746 12.664321,-2.0555 23.677675,-7.2726 32.164871,-14.1875 z m -56.037487,23.322 c -4.114046,2.3775 -9.074471,4.3041 -15.450798,5.215 -0.323927,0.043 -0.656415,0.021 -0.971748,-0.065 -0.475613,0.7435 -0.899658,1.5106 -1.457623,2.2027 7.945024,-1.2948 13.677064,-4.0198 17.880169,-7.3529 z"
           style="fill:url(#radialGradient4180);fill-opacity:1;stroke:none" />
        <path
           style="font-size:medium;font-style:normal;font-variant:normal;font-weight:normal;font-stretch:normal;text-indent:0;text-align:start;text-decoration:none;line-height:normal;letter-spacing:normal;word-spacing:normal;text-transform:none;direction:ltr;block-progression:tb;writing-mode:lr-tb;text-anchor:start;baseline-shift:baseline;color:#000000;fill:url(#linearGradient4182);fill-opacity:1;fill-rule:nonzero;stroke:none;stroke-width:2;marker:none;visibility:visible;display:inline;overflow:visible;enable-background:accumulate;font-family:Sans;-inkscape-font-specification:Sans"
           d="m -66.09375,931.75 c -3.820589,0.0131 -7.712027,0.32856 -11.65625,0.96875 -15.786536,2.56233 -29.32402,9.83467 -38.4375,19.59375 -9.11348,9.75908 -13.8239,22.06545 -11.84375,34.5 2.1362,13.4144 12.43043,22.5391 24.5,30.2813 0.6728,0.4315 1.1926,1.5036 1.25,3.1874 0.0574,1.6839 -0.3242,3.831 -1.125,6.0313 -1.6016,4.4006 -4.86935,8.9341 -9.0625,10.75 -6.68055,1.7945 -10.05897,3.0334 0.4375,1.9375 18.505553,-0.5809 28.395353,-8.1136 33.78125,-15.8438 4.788103,0.1898 9.733419,-0.092 14.75,-0.9062 15.786536,-2.5623 29.292769,-9.8347 38.40625,-19.5938 9.113481,-9.75902 13.823905,-22.03414 11.84375,-34.4687 -3.465275,-21.7605 -26.115151,-36.52893 -52.84375,-36.4375 z m 0,2 c 25.990047,-0.0889 47.601415,14.19322 50.875,34.75 1.870625,11.74675 -2.565618,23.38129 -11.34375,32.7812 -8.778132,9.4 -21.877202,16.5049 -37.25,19 -5.040695,0.8179 -10.01783,1.0958 -14.8125,0.875 l -0.5625,-0.031 -0.3125,0.4688 c -4.618565,6.8769 -12.930034,13.635 -28.625,15.0937 3.06468,-2.5187 5.30474,-6.1458 6.59375,-9.6875 0.87212,-2.3962 1.31942,-4.7446 1.25,-6.7812 -0.0694,-2.0367 -0.66656,-3.857 -2.15625,-4.8126 -11.90403,-7.636 -21.624,-16.34071 -23.625,-28.9062 -1.87062,-11.74675 2.56562,-23.41253 11.34375,-32.8125 8.77813,-9.39997 21.908452,-16.50483 37.28125,-19 3.845609,-0.62419 7.633103,-0.92479 11.34375,-0.9375 z"
           id="path4836"
           inkscape:connector-curvature="0"
           sodipodi:nodetypes="sssscsscccsssscsscccccscsssscc"
           clip-path="url(#clipPath4856)"
           transform="matrix(1.0086532,0,0,1.0086532,133.70938,-7.6513378)" />
        <path
           style="fill:url(#radialGradient4184);fill-opacity:1;stroke:none"
           d="M 116.25,41 C 124.05315,62.494544 100.98853,88.60434 80,91 94.355886,84.862547 117.91118,65.07897 116.25,41 z"
           id="path5441"
           inkscape:connector-curvature="0"
           sodipodi:nodetypes="ccc"
           transform="translate(0,924.36218)" />
      </g>
      <g
         transform="matrix(0.75,0,0,0.75,0,263.09056)"
         id="g3991">
        <path
           style="opacity:0.90374331;fill:url(#linearGradient4186);fill-opacity:1;stroke:none"
           d="m 111.45296,961.41468 c 3.30268,15.26135 -21.127242,26.19948 -47.771022,28.54466 -30.60275,2.69364 -53.196862,-1.25209 -50.365987,-19.81613 2.514021,-16.48621 20.771877,-33.39914 47.415657,-35.74431 26.64378,-2.34518 47.194002,10.71629 50.721352,27.01578 z"
           id="path4555"
           inkscape:connector-curvature="0"
           sodipodi:nodetypes="sssss" />
        <path
           style="opacity:0.90374331;fill:#e0faff;fill-opacity:1;stroke:none"
           d="m 105.77654,950.00078 c 2.74388,3.42377 4.63141,7.23835 5.49499,11.22888 3.30269,15.26136 -21.138714,26.20487 -47.782494,28.55004 -20.857425,1.83586 -37.997797,0.58694 -45.901058,-6.27145 7.809262,7.01717 25.040852,8.30251 46.080243,6.45064 26.64378,-2.34518 51.085179,-13.28869 47.782489,-28.55004 -0.88183,-4.07488 -2.83524,-7.92809 -5.67417,-11.40807 z"
           id="path4783"
           inkscape:connector-curvature="0" />
        <path
           sodipodi:nodetypes="sssss"
           inkscape:connector-curvature="0"
           id="path4812"
           d="m 111.45296,961.41468 c 3.30268,15.26135 -21.127242,26.19948 -47.771022,28.54466 -30.60275,2.69364 -53.196862,-1.25209 -50.365987,-19.81613 2.514021,-16.48621 20.771877,-33.39914 47.415657,-35.74431 26.64378,-2.34518 47.194002,10.71629 50.721352,27.01578 z"
           style="opacity:0.90374331;fill:url(#radialGradient4188);fill-opacity:1;stroke:none" />
      </g>
      <path
         inkscape:connector-curvature="0"
         id="path3904"
         d="m 37.546875,970.56532 c -0.925277,0.0418 -1.796865,0.27983 -2.578125,0.77343 0,0 5.161279,0.87601 6.09375,3.65625 -1.739104,-1.56239 -7.099697,-2.6548 -9.070313,-0.39843 0,0 5.874388,-0.17237 4.101563,2.17968 -6.475259,2.68609 -11.181545,9.04138 -10.546875,16.47657 1.847033,21.63838 -2.322528,23.34638 -4.382813,28.57028 -0.268937,0.6819 -0.725679,1.8234 -1.101562,2.7657 0.765364,0.523 1.529153,1.0393 2.320312,1.5468 3.271801,2.0988 0.03896,13.4623 -6.867187,16.4532 14.093701,-0.4425 21.367258,-6.1954 25.265625,-12 3.678948,0.1693 7.478693,-0.029 11.34375,-0.6563 6.830269,-1.1086 13.074183,-3.42 18.445312,-6.5625 -3.322004,-4.7657 -9.280488,-6.9543 -11.859375,-9.75 -2.666526,-2.8823 0.28125,-13.1719 0.28125,-13.1719 0.935982,-2.20434 1.453125,-4.6381 1.453125,-7.19528 0,-8.6559 -5.940567,-15.76914 -13.851562,-17.46094 l 0.375,0 c -0.614785,-1.96199 -5.412342,-5.40776 -9.421875,-5.22656 z"
         style="fill:url(#linearGradient3101);fill-opacity:1;stroke:none" />
      <g
         id="g3980">
        <g
           id="g3966">
          <path
             id="path5157"
             style="color:#000000;fill:url(#linearGradient3955);fill-opacity:1;fill-rule:nonzero;stroke:none;marker:none;visibility:visible;display:inline;overflow:visible;enable-background:accumulate"
             d="m 40.980384,992.67008 c 0,3.21908 -3.070369,5.40887 -5.142068,5.40887 -2.837249,0 -5.140464,-2.61259 -5.140464,-5.83166 0,-2.79774 1.578777,-5.83166 4.417338,-5.83166 2.837104,0 5.865194,3.71185 5.865194,6.25446 z"
             inkscape:connector-curvature="0" />
          <path
             inkscape:connector-curvature="0"
             d="m 40.240854,992.60927 c 0,2.75604 -2.628721,4.63084 -4.402422,4.63084 -2.429134,0 -4.401049,-2.23678 -4.401049,-4.99282 0,-2.39531 1.351683,-4.99283 3.781939,-4.99283 2.429008,0 5.021532,3.17794 5.021532,5.35481 z"
             style="fill:url(#linearGradient3952);fill-opacity:1;stroke:none"
             id="path3892" />
          <path
             id="path5162"
             style="fill:url(#linearGradient3949);fill-opacity:1.0;stroke:none"
             d="m 38.065043,992.44874 a 2.2398793,2.9159173 0 0 1 -4.479758,0 2.2398793,2.9159173 0 1 1 4.479758,0 z"
             inkscape:connector-curvature="0" />
          <path
             transform="matrix(0.75,0,0,0.75,0,956.36219)"
             d="m 49.527412,46.52552 a 1.1342155,1.1720227 0 1 1 -2.268431,0 1.1342155,1.1720227 0 1 1 2.268431,0 z"
             sodipodi:ry="1.1720227"
             sodipodi:rx="1.1342155"
             sodipodi:cy="46.52552"
             sodipodi:cx="48.393196"
             id="path3915"
             style="color:#000000;fill:#ffffff;fill-opacity:1;fill-rule:evenodd;stroke:none;stroke-width:1px;marker:none;visibility:visible;display:inline;overflow:visible;enable-background:accumulate"
             sodipodi:type="arc" />
          <path
             sodipodi:type="arc"
             style="color:#000000;fill:url(#radialGradient3959);fill-opacity:1;fill-rule:evenodd;stroke:none;stroke-width:1px;marker:none;visibility:visible;display:inline;overflow:visible;enable-background:accumulate"
             id="path3948"
             sodipodi:cx="48.393196"
             sodipodi:cy="46.52552"
             sodipodi:rx="1.1342155"
             sodipodi:ry="1.1720227"
             d="m 49.527412,46.52552 a 1.1342155,1.1720227 0 1 1 -2.268431,0 1.1342155,1.1720227 0 1 1 2.268431,0 z"
             transform="matrix(0.2946287,0,0,0.2946287,22.214774,977.1483)" />
        </g>
        <g
           id="g3985"
           transform="matrix(0.75,0,0,0.75,0,263.09056)">
          <rect
             x="55.707706"
             y="981.2193"
             width="13.60721"
             height="3.6162133"
             ry="1.8081067"
             rx="1.582091"
             style="opacity:0.25;fill:#000000;stroke:none"
             id="rect3946" />
          <rect
             id="rect8734"
             style="fill:#eeeeec;stroke:none"
             rx="1.582091"
             ry="1.8081067"
             height="3.6162133"
             width="13.60721"
             y="980.7193"
             x="55.707706" />
          <path
             inkscape:connector-curvature="0"
             d="m 48.661115,983.42021 c 12.273704,7.1224 12.668313,-4.37375 14.781319,-4.37375 2.083847,0 2.462905,11.49226 12.433102,4.26878 -0.554008,5.98911 -7.678354,11.34258 -9.715548,13.28647 -3.949979,-2.12467 -13.570277,-4.49233 -17.498873,-13.1815 z"
             style="opacity:0.25;fill:#000000;stroke:none"
             id="path3944" />
          <path
             id="rect5187"
             style="fill:url(#linearGradient3123);stroke:none"
             d="m 48.661115,982.42021 c 12.273704,7.1224 12.668313,-4.37375 14.781319,-4.37375 2.083847,0 2.462905,11.49226 12.433102,4.26878 -0.554008,5.98911 -7.678354,11.34258 -9.715548,13.28647 -3.949979,-2.12467 -13.570277,-4.49233 -17.498873,-13.1815 z"
             inkscape:connector-curvature="0" />
        </g>
        <g
           id="g3973">
          <path
             id="path5169"
             style="color:#000000;fill:url(#linearGradient3936);fill-opacity:1;fill-rule:nonzero;stroke:none;stroke-width:1;marker:none;visibility:visible;display:inline;overflow:visible;enable-background:accumulate"
             d="m 58.974027,987.27749 c -1.90258,-2.0892 -4.996277,-1.53228 -6.21072,-0.19828 -1.663482,1.82677 -1.471037,5.00502 0.431543,7.09421 1.651818,1.81511 4.37083,2.76567 6.034312,0.9389 1.664939,-1.82676 1.246517,-6.18447 -0.255135,-7.83483 z"
             inkscape:connector-curvature="0" />
          <path
             inkscape:connector-curvature="0"
             d="m 58.418541,987.93024 c -1.681992,-1.84696 -4.416999,-1.35462 -5.490637,-0.17529 -1.470614,1.61497 -1.300481,4.42472 0.38151,6.27169 1.460302,1.60466 3.864067,2.44502 5.334681,0.83005 1.471903,-1.61497 1.101994,-5.46744 -0.225554,-6.92645 z"
             style="fill:url(#linearGradient3933);fill-opacity:1;stroke:none"
             id="path3890" />
          <path
             id="path5171"
             style="color:#000000;fill:url(#linearGradient3930);fill-opacity:1;fill-rule:nonzero;stroke:none;marker:none;visibility:visible;display:inline;overflow:visible;enable-background:accumulate"
             d="m 57.832422,991.2279 a 2.1870405,3.0178469 0 0 1 -4.374081,0 2.1870405,3.0178469 0 1 1 4.374081,0 z"
             inkscape:connector-curvature="0" />
          <path
             transform="matrix(0.75,0,0,0.75,-0.92572623,955.4582)"
             d="m 76.143669,45.769375 a 1.0586011,1.247637 0 1 1 -2.117202,0 1.0586011,1.247637 0 1 1 2.117202,0 z"
             sodipodi:ry="1.247637"
             sodipodi:rx="1.0586011"
             sodipodi:cy="45.769375"
             sodipodi:cx="75.085068"
             id="path3919"
             style="color:#000000;fill:#ffffff;fill-opacity:1;fill-rule:evenodd;stroke:none;stroke-width:1px;marker:none;visibility:visible;display:inline;overflow:visible;enable-background:accumulate"
             sodipodi:type="arc" />
          <path
             transform="matrix(0.2946287,0,0,0.2946287,41.080627,975.64085)"
             d="m 49.527412,46.52552 a 1.1342155,1.1720227 0 1 1 -2.268431,0 1.1342155,1.1720227 0 1 1 2.268431,0 z"
             sodipodi:ry="1.1720227"
             sodipodi:rx="1.1342155"
             sodipodi:cy="46.52552"
             sodipodi:cx="48.393196"
             id="path3959"
             style="color:#000000;fill:url(#radialGradient3957);fill-opacity:1;fill-rule:evenodd;stroke:none;stroke-width:1px;marker:none;visibility:visible;display:inline;overflow:visible;enable-background:accumulate"
             sodipodi:type="arc" />
        </g>
      </g>
    </g>
  </g>
</svg>
