<?xml version="1.0" encoding="UTF-8" standalone="no"?>
<!-- Created with Inkscape (http://www.inkscape.org/) -->

<svg
   xmlns:dc="http://purl.org/dc/elements/1.1/"
   xmlns:cc="http://creativecommons.org/ns#"
   xmlns:rdf="http://www.w3.org/1999/02/22-rdf-syntax-ns#"
   xmlns:svg="http://www.w3.org/2000/svg"
   xmlns="http://www.w3.org/2000/svg"
   xmlns:xlink="http://www.w3.org/1999/xlink"
   xmlns:sodipodi="http://sodipodi.sourceforge.net/DTD/sodipodi-0.dtd"
   xmlns:inkscape="http://www.inkscape.org/namespaces/inkscape"
   width="96"
   height="96"
   id="svg7324"
   sodipodi:version="0.32"
   inkscape:version="0.48.3.1 r9886"
   sodipodi:docname="preferences-desktop-remote-desktop.svg"
   inkscape:output_extension="org.inkscape.output.svg.inkscape"
   version="1.1">
  <defs
     id="defs7326">
    <linearGradient
       id="linearGradient4039">
      <stop
         id="stop4041"
         offset="0"
         style="stop-color:#ffffff;stop-opacity:1;" />
      <stop
         style="stop-color:#e0e0e0;stop-opacity:1;"
         offset="0.22376499"
         id="stop4043" />
      <stop
         id="stop4045"
         offset="0.57242036"
         style="stop-color:#a0a0a0;stop-opacity:1;" />
      <stop
         id="stop4047"
         offset="1"
         style="stop-color:#404040;stop-opacity:1;" />
    </linearGradient>
    <linearGradient
       id="linearGradient3142">
      <stop
         style="stop-color:#3cc1ee;stop-opacity:1;"
         offset="0"
         id="stop3144" />
      <stop
         style="stop-color:#141b7c;stop-opacity:1;"
         offset="1"
         id="stop3146" />
    </linearGradient>
    <radialGradient
       gradientUnits="userSpaceOnUse"
       gradientTransform="matrix(0.8232,0.2312,0.2703,-0.9626,-96.2274,-315.3433)"
       fy="-289.9133"
       fx="297.44989"
       r="17.1528"
       cy="-290.5918"
       cx="299.44821"
       id="XMLID_2_-6">
      <stop
         id="stop228"
         style="stop-color:#FFFFFF"
         offset="0" />
      <stop
         id="stop230"
         style="stop-color:#91d3ff;stop-opacity:0;"
         offset="1" />
    </radialGradient>
    <linearGradient
       inkscape:collect="always"
       id="linearGradient4046">
      <stop
         style="stop-color:#ffffff;stop-opacity:1;"
         offset="0"
         id="stop4048" />
      <stop
         style="stop-color:#ffffff;stop-opacity:0;"
         offset="1"
         id="stop4050" />
    </linearGradient>
    <linearGradient
       id="linearGradient5212">
      <stop
         style="stop-color:#a0a0a0;stop-opacity:1;"
         offset="0"
         id="stop5214" />
      <stop
         id="stop5220"
         offset="0.22376499"
         style="stop-color:#ffffff;stop-opacity:1;" />
      <stop
         style="stop-color:#a0a0a0;stop-opacity:1;"
         offset="0.57242036"
         id="stop5222" />
      <stop
         style="stop-color:#404040;stop-opacity:1;"
         offset="1"
         id="stop5216" />
    </linearGradient>
    <linearGradient
       id="linearGradient2699-4-6">
      <stop
         style="stop-color:#aaefff;stop-opacity:1"
         offset="0"
         id="stop2701-3-5" />
      <stop
         style="stop-color:#006fcf;stop-opacity:1;"
         offset="1"
         id="stop2703-5-7" />
    </linearGradient>
    <linearGradient
       id="linearGradient5687-7">
      <stop
         style="stop-color:#ffffff;stop-opacity:1;"
         offset="0"
         id="stop5689-2" />
      <stop
         style="stop-color:#ffffff;stop-opacity:0;"
         offset="1"
         id="stop5691-4" />
    </linearGradient>
    <radialGradient
       inkscape:collect="always"
       xlink:href="#linearGradient3142"
       id="radialGradient3274"
       gradientUnits="userSpaceOnUse"
       cx="138.80981"
       cy="147.785"
       fx="135.29474"
       fy="217.461"
       r="92.351021" />
    <linearGradient
       inkscape:collect="always"
       xlink:href="#XMLID_2_-6"
       id="linearGradient3276"
       gradientUnits="userSpaceOnUse"
       gradientTransform="matrix(0.18227536,0,0,0.18227536,219.96787,-13.228118)"
       x1="-1085.9586"
       y1="539.40955"
       x2="-474.68497"
       y2="375.61926" />
    <linearGradient
       inkscape:collect="always"
       xlink:href="#linearGradient4046"
       id="linearGradient3278"
       gradientUnits="userSpaceOnUse"
       gradientTransform="matrix(0.98247968,0,0,0.97865233,-0.23533368,7.4871013)"
       x1="22.196054"
       y1="-3.0905473"
       x2="51.625942"
       y2="35.567139" />
    <radialGradient
       inkscape:collect="always"
       xlink:href="#linearGradient4039"
       id="radialGradient3356"
       gradientUnits="userSpaceOnUse"
       gradientTransform="matrix(0.42613307,0.89144378,-0.90221678,0.43128284,50.609011,8.563183)"
       cx="18.613626"
       cy="44.163574"
       fx="18.613626"
       fy="44.163574"
       r="1.625" />
    <linearGradient
       inkscape:collect="always"
       xlink:href="#linearGradient5212"
       id="linearGradient3369"
       gradientUnits="userSpaceOnUse"
       gradientTransform="matrix(0.98734165,0,0,0.923077,-57.259491,8.56924)"
       x1="25.583334"
       y1="35.999996"
       x2="25.583334"
       y2="38.166664" />
    <linearGradient
       inkscape:collect="always"
       xlink:href="#linearGradient5212"
       id="linearGradient3375"
       gradientUnits="userSpaceOnUse"
       gradientTransform="matrix(4.860759,0,0,0.923077,-81.554426,3.26924)"
       x1="25.583334"
       y1="35.999996"
       x2="25.583334"
       y2="38.166664" />
    <radialGradient
       inkscape:collect="always"
       xlink:href="#linearGradient5687-7"
       id="radialGradient3035"
       gradientUnits="userSpaceOnUse"
       gradientTransform="matrix(1.8666664,0,0,1.1555555,-1.999997,-27.794445)"
       cx="24"
       cy="44"
       fx="24"
       fy="44"
       r="18" />
    <linearGradient
       inkscape:collect="always"
       xlink:href="#linearGradient2699-4-6"
       id="linearGradient3038"
       gradientUnits="userSpaceOnUse"
       gradientTransform="matrix(1.5271257,0,0,1.2997387,-6.1865174,30.235185)"
       x1="-45.958839"
       y1="-9.0692053"
       x2="-1.9883043"
       y2="-41.006374" />
  </defs>
  <sodipodi:namedview
     id="base"
     pagecolor="#ffffff"
     bordercolor="#666666"
     borderopacity="1.0"
     inkscape:pageopacity="0.0"
     inkscape:pageshadow="2"
     inkscape:zoom="4.9479167"
     inkscape:cx="48"
     inkscape:cy="48"
     inkscape:current-layer="layer1"
     showgrid="true"
     inkscape:grid-bbox="true"
     inkscape:document-units="px"
     inkscape:window-width="1010"
     inkscape:window-height="695"
     inkscape:window-x="57"
     inkscape:window-y="24"
     inkscape:window-maximized="0"
     fit-margin-top="0"
     fit-margin-left="0"
     fit-margin-right="0"
     fit-margin-bottom="0"
     inkscape:object-paths="true"
     inkscape:object-nodes="true" />
  <metadata
     id="metadata7329">
    <rdf:RDF>
      <cc:Work
         rdf:about="">
        <dc:format>image/svg+xml</dc:format>
        <dc:type
           rdf:resource="http://purl.org/dc/dcmitype/StillImage" />
      </cc:Work>
    </rdf:RDF>
  </metadata>
  <g
     id="layer1"
     inkscape:label="Layer 1"
     inkscape:groupmode="layer"
     transform="translate(0,48)">
    <g
       transform="matrix(0.44632086,0,0,0.44632086,39.406688,-45.884867)"
       id="g8074">
      <path
         transform="matrix(0.58226724,0,0,0.58226724,-16.759931,-23.573189)"
         d="m 231.16084,147.785 c 0,51.00406 -41.34697,92.35102 -92.35103,92.35102 -51.004056,0 -92.351016,-41.34696 -92.351016,-92.35102 0,-51.004057 41.34696,-92.351017 92.351016,-92.351017 51.00406,0 92.35103,41.34696 92.35103,92.351017 z"
         sodipodi:ry="92.351021"
         sodipodi:rx="92.351021"
         sodipodi:cy="147.785"
         sodipodi:cx="138.80981"
         id="path2285"
         style="fill:url(#radialGradient3274);fill-opacity:1;stroke:none"
         sodipodi:type="arc" />
      <path
         inkscape:connector-curvature="0"
         id="path2197"
         d=""
         style="fill:#000000" />
      <path
         inkscape:connector-curvature="0"
         id="path2185"
         d="m 57.929162,109.98093 c -3.266143,-1.60176 -1.610126,-5.66972 -1.54048,-9.10543 0.920007,-5.110935 -6.362539,-4.612234 -7.169909,-9.302008 -0.927107,-1.99628 -3.78201,-3.74479 -1.601694,-5.555816 -2.567911,-2.284018 4.255396,-3.463812 2.041968,-6.541047 -0.476106,-3.686551 -2.352388,-0.550583 -3.323704,-1.848365 -3.154248,-1.360294 -2.68478,-3.61634 -5.031793,-5.621054 -2.950965,-2.878272 -6.172468,-4.055769 -8.878579,-7.297728 -1.666066,-4.058994 -1.862673,-9.108178 -2.335177,-13.741563 -1.60729,-2.564985 -0.264301,8.234627 -0.959677,6.61121 -1.376395,-3.871393 0.690578,-7.580552 -0.364914,-11.54868 0.254465,-3.710731 2.477745,-7.242645 4.931158,-9.446294 1.0589,-2.668371 0.710395,1.308009 1.841713,-2.032299 -0.194805,-3.53265 3.913881,-6.791993 4.117383,-8.924467 1.03495,-1.905901 -0.385905,-3.286857 0.467863,-3.210613 3.38851,-1.078808 -5.186587,0.344309 -2.365352,-0.505826 1.846333,-1.365364 3.872363,-3.065132 6.011772,-3.224469 1.608974,-2.119342 0.492327,1.649358 2.657116,-0.983034 4.413086,-0.542398 -1.846073,5.355637 2.351098,5.109231 0.565357,1.23608 0.301485,3.840045 1.67686,4.00183 2.457437,-0.597043 2.557343,2.529977 4.288792,0.320702 0.204021,-2.41244 1.630168,-0.986986 0.663102,0.915338 0.884722,-0.664422 -0.28601,2.508781 1.722512,-0.239256 2.202678,0.673083 -1.779402,2.799706 -2.825267,1.933552 1.351249,2.173192 -2.872557,0.118591 -1.613192,1.723239 -3.981244,1.138481 -3.050635,4.656851 -0.09633,6.210695 1.488849,0.572984 -0.0772,5.613455 2.475029,2.880084 -0.08982,-2.069501 2.447614,-3.439576 1.695282,-5.292168 -0.08034,-2.699084 3.158991,-2.559133 3.641232,-0.186823 -0.928202,0.324345 0.998967,3.189503 2.082187,0.146552 1.107054,1.219108 1.08106,3.961301 3.399275,4.435645 -4.720337,1.361434 3.146032,-0.378315 0.317864,2.350582 -2.466355,1.94189 -6.379254,-0.05154 -7.925237,3.536322 0.989003,-1.976456 5.43727,-1.659965 2.751783,-0.659898 0.716845,1.493371 4.154172,2.378166 0.780712,3.257328 -2.455086,0.782112 2.699293,-2.431345 -1.078309,-0.956956 -2.90468,0.553046 -2.660295,3.24572 -5.428229,3.647816 -1.022236,1.362355 -3.174599,0.793337 -1.81141,3.380615 0.291743,1.648119 -5.827071,2.145751 -4.651367,5.604082 0.934854,2.197714 -0.595141,5.005428 -1.24738,1.341148 1.012505,-2.798832 -4.690191,-4.762091 -4.592909,-3.295352 -2.225565,-0.910896 -5.83413,-1.18111 -6.323311,2.560304 -2.395923,3.166803 2.384896,9.603025 4.395944,4.736399 5.683948,-0.800309 -2.795906,5.008451 1.925095,5.159492 4.621215,-0.162355 -0.586767,8.239975 5.233117,6.438777 2.551899,3.34152 3.135613,-1.663813 6.266649,-1.242252 0.250274,-0.254341 0.161554,4.832609 0.55538,1.093193 2.856886,0.01545 5.92634,0.606491 8.690604,1.711332 1.862263,3.482573 7.857597,1.616617 9.4427,5.625691 -1.913289,1.885789 0.100235,4.444394 2.036347,1.839953 2.607665,0.426849 4.976024,1.029477 7.948147,1.152857 6.423864,1.219781 -2.121646,5.896119 -1.827507,9.474707 -1.851262,4.138032 -7.466425,3.533053 -9.439456,7.504932 -1.276342,1.85494 -5.076702,1.89902 -5.886377,2.14132 1.772703,2.05717 -4.618853,1.06312 -4.673295,2.35969 -1.634165,1.08834 0.400119,1.32651 -2.249569,1.75155 l -0.528539,-0.0571 -0.63955,-0.13759 -1.73e-4,-9e-5 z m -2.258221,-1.91152 c -0.008,-0.61294 0.55958,0.6072 0,0 z M 73.078232,86.105224 c 0.651299,-2.189727 3.307042,1.120361 0,0 z m 37.010378,-4.313405 c 1.65997,-3.992877 3.01837,-8.286793 1.71182,-12.47735 0.61902,-2.339057 -0.40527,-3.757855 -1.43264,-2.070993 -2.37654,-1.209294 -4.877,8.194566 -8.96565,4.133833 -1.512227,-2.752941 -2.866284,-1.399188 -3.415666,-4.348905 0.234834,-3.700887 -2.099402,-6.560205 -0.785311,-10.359497 2.410225,-3.241902 -1.554959,-9.134509 2.525656,-10.479504 0.533511,-2.589381 3.119841,-7.335938 4.571431,-2.705435 2.6111,-0.278574 3.42816,-1.079708 2.4574,-3.70361 3.65179,-1.232246 -2.97032,-10.450957 -1.77148,-5.526364 -2.22768,1.285259 -2.42862,-4.87944 -3.55782,-6.605245 -1.874352,-0.319828 -4.280031,-2.91856 -1.709729,0.216865 1.248129,0.942076 -2.169859,-0.214152 0.353319,1.825383 1.91999,1.749087 3.42085,4.997195 3.42574,6.552382 -1.27147,-1.979648 -8.027042,-2.403053 -3.38654,-0.271448 2.68305,0.111193 3.4467,2.67121 -0.12892,0.954479 -3.693481,-1.297782 -2.006752,5.011349 -1.143734,7.238796 -0.983813,4.723909 -4.50696,1.000006 -5.446442,-1.937552 3.68074,-1.565648 1.690933,-4.642026 -1.038713,-5.183022 1.176965,-0.914737 0.622168,-3.183431 0.03678,-4.984004 -1.073259,-2.468495 0.782143,-1.738234 1.035178,-4.107331 -1.265802,-2.187779 -2.625072,-3.430427 -4.109036,-4.92599 1.035395,3.691687 -6.925894,-4.238771 -2.770906,0.316931 1.843785,2.529213 3.864974,1.977717 5.30932,4.979702 -0.29693,1.041239 -4.573437,-3.155945 -2.81879,0.176627 -2.026142,-0.361266 -1.461301,-1.495926 -2.52926,-1.402287 -0.631347,-3.111143 -5.078237,-4.993169 -4.99009,-7.711437 1.130709,-0.613589 3.635169,-1.113875 3.156787,0.643545 4.376172,0.806274 -1.110759,-2.274792 -2.496414,-3.353728 -1.657333,-1.908061 -4.145327,-2.752813 -5.934219,-2.808401 2.179476,-0.1197 5.456823,0.192694 1.390421,-0.450354 -1.468151,0.29872 -2.805272,-0.608832 -3.542643,-0.568991 -1.600512,0.01732 -8.719748,0.05828 -6.798257,-0.981669 2.684837,-0.501039 -4.742433,-0.01279 -5.846182,-0.666214 -3.826848,1.225102 -8.373436,1.012411 -11.562913,3.620339 -1.598282,0.734741 -7.210714,3.651067 -2.912033,0.738174 -1.290476,-0.0018 -2.946777,0.36604 -0.384507,-1.436339 1.310693,-0.92442 4.693713,-1.699975 7.484341,-2.698383 18.038179,-4.1757118 37.964073,2.923012 49.523242,17.341281 2.58022,2.979636 5.66353,8.000759 6.57634,10.705585 -4.23374,-4.080848 2.67989,3.726823 2.42574,5.905249 3.70181,11.833025 3.02984,25.279617 -2.50562,36.414882 z M 58.951894,70.702952 c -0.333195,-0.659539 1.700044,0.461295 0,0 z m -3.953077,-0.193635 c -2.8096,-1.012429 0.546976,-2.880576 2.579353,-0.327195 -0.859898,-0.0863 -1.902731,0.213918 -2.579353,0.327195 z m -2.06017,-0.532496 c 0.705975,-0.335275 0.01589,-0.123085 0,0 z m -2.140314,-2.034429 c -0.601446,-2.375195 -7.635803,-2.853006 -3.831085,-3.022726 1.265665,-0.207562 8.868052,4.944307 3.831085,3.022726 z m 3.072632,-15.285744 c 0.149987,-2.992547 0.716253,1.513064 0,0 z M 63.964464,46.67744 c 0.420874,-1.654624 1.036441,0.55957 0,0 z m -1.226572,-0.327244 c 0.67107,-0.206744 0.334854,0.317446 0,0 z m 5.711215,-0.726558 c -0.102726,-1.63305 0.914982,1.02635 0,0 z m -0.717104,-0.377956 c -3.574609,1.300046 -1.901336,-2.404443 -0.912068,-2.899517 -1.532784,2.007266 3.398546,0.92421 0.912068,2.899517 z m -5.031565,-1.596284 c -0.222736,-0.784332 1.475621,0.908443 0,0 z M 100.60043,39.55644 c -1.789941,-2.529286 1.64263,1.298297 0,0 z m 2.00639,0.05658 c 0.18596,-1.927296 1.90798,0.835263 0,0 z M 99.4849,37.938956 c -0.629167,-0.895521 1.11942,1.088632 0,0 z m 4.6257,-1.077663 c -0.95958,-1.581742 1.26944,0.462604 0,0 z M 88.590633,36.086232 c -1.060729,-1.014535 -1.108845,-4.02897 0.55142,-1.359912 0.436861,0.194864 -0.0491,2.027224 -0.55142,1.359912 z m 2.436384,-0.789816 c -0.922829,-0.542356 -1.569248,-2.482865 -3.69163,-3.169223 -2.443204,-3.086757 3.091583,1.158924 4.52072,1.573851 1.359513,0.263988 -1.288119,3.442729 -0.82909,1.595372 z M 34.763318,35.042001 c 0.166391,-3.594668 1.040377,-1.32895 0,0 z m 36.347311,-0.543555 c -2.812538,-1.107242 -4.581725,-3.745912 -3.566324,-6.298384 -1.31824,-0.465898 -0.107624,-0.907774 -1.486947,-1.415117 -0.371042,-2.798422 -4.094821,-2.812297 -3.090576,-3.55463 0.213684,-0.721358 1.494434,-2.702162 3.184996,-2.470814 0.945715,-1.149424 2.637576,-1.042869 1.890791,-0.163072 1.75973,0.133306 1.860432,-1.085237 2.13583,0.489798 0.985216,1.210327 4.449378,2.60792 2.494899,3.801337 2.819555,0.893635 1.394058,1.019306 0.769481,0.975676 0.706355,0.655573 -0.632131,1.127703 1.53094,0.639947 -1.408383,1.783755 -2.328087,2.941879 -3.377594,4.708378 0.209778,0.684262 0.787006,3.809344 -0.485496,3.286881 z m -9.90127,-1.13092 c -0.862546,-1.742898 -4.950602,-1.947661 -1.437225,-2.590101 2.697633,-3.365764 -3.693147,-3.040413 -2.887836,-4.87399 2.353588,-1.976895 0.754483,-0.229739 0.780906,0.871157 1.135736,-2.304788 1.384398,-0.444734 2.95487,-0.418383 1.155935,1.316042 2.273134,3.214272 3.162102,4.456642 -0.936934,0.743454 -3.012418,-1.217287 -1.057647,1.466286 0.209451,1.833988 -2.553481,-1.122835 -0.776102,1.428206 l -0.270205,-0.04721 -0.468877,-0.292612 1.4e-5,5e-6 z M 56.491178,33.16498 c 0.852509,-0.821676 0.123215,0.528502 0,0 z m -1.503847,-1.623814 c -0.115838,-3.43118 3.375148,1.524146 0.539568,0.05541 l -0.39547,0.198648 -0.1441,-0.254058 2e-6,-4e-6 z m 22.94517,-1.922372 c 0.690588,-4.821359 4.216668,1.668145 0,0 z m 13.255986,0.183914 c -2.770709,-2.447793 1.304287,0.165493 0,0 z M 59.07119,29.408106 c 0.872025,-1.358337 0.254817,0.941188 0,0 z m 18.077857,-0.529332 c 0.312266,-0.859272 0.192307,1.081356 0,0 z m 14.388361,0.155265 c 0.671028,-0.20673 0.334857,0.317428 0,0 z M 66.334047,28.232791 c 0.394607,-0.756021 1.327673,0.957596 0,0 z M 53.471036,27.118758 c 0.319662,-1.350493 1.092145,0.730941 0,0 z m -1.485274,-1.078386 c -1.763727,0.239942 -2.674738,-2.214019 -0.647811,-1.531484 -1.481808,-1.585883 2.468855,-2.062601 1.553652,-0.157927 2.399273,-2.441825 -0.270547,3.43087 -0.905841,1.689411 z m -1.008418,0.06666 c 1.134258,-0.180819 0.01414,0.315385 0,0 z m 8.612512,-0.500177 c 0.651585,-0.780676 1.422171,1.065123 0,0 z m -4.971649,-0.5932 c 1.633552,-2.480277 1.68896,0.958509 0,0 z m 1.32614,0.124645 c 1.460643,-1.525047 2.495146,-0.04929 0,0 z m 3.189818,-0.538032 c -2.0828,-0.916094 -1.121853,-2.307361 0.41332,-0.559823 1.425822,-0.283579 0.125703,1.304327 -0.41332,0.559823 z m -2.096157,-0.924366 c 0.967635,-0.846892 0.27602,0.785075 0,0 z m 2.77045,-0.179809 c -1.331793,-0.953821 1.324582,-0.343498 1.096576,-1.879953 0.634686,0.531601 2.329701,-1.014173 0.02645,-0.650665 2.257896,-1.46321 4.619419,-0.267434 1.7751,1.019956 -1.590201,0.369408 -1.565437,2.034497 -2.898121,1.510662 z m -3.31728,-0.14004 c 0.283253,-0.944562 1.687336,-0.568904 0,0 z m -6.072016,-0.758077 c 2.448548,-2.675815 4.1902,1.133197 0,0 z m 4.066979,0.02036 c -1.298461,-1.214746 2.613821,-0.293618 0,6e-6 l 0,-6e-6 z m 4.92144,-0.582913 c 0.761541,-2.210763 2.215247,-0.201971 0,0 z m -0.911375,-0.182278 c 0.516449,0.0086 0.193386,-0.02183 0,0 z M 57.890847,21.72362 c 0.01123,-1.389335 0.811149,0.255411 0,0 z M 36.53332,21.490686 c 0.09792,-0.456188 0.795102,0.692772 0,0 z m 17.86169,-0.36664 c -1.297391,-0.606258 2.159284,0.337539 0,0 z m -3.967537,-5.855423 c 0.978625,-0.543092 -0.444128,0.560185 0,0 z"
         style="fill:url(#linearGradient3276);fill-opacity:1" />
      <g
         transform="matrix(0.33854418,0,0,0.33854418,-896.68909,-180.76984)"
         id="Foreground_Grid_1_" />
      <path
         inkscape:connector-curvature="0"
         sodipodi:nodetypes="cccscc"
         id="path4041-0"
         d="m 63.78496,10.147813 c -23.005004,0 -42.50156,15.062604 -49.099951,35.81256 4.987265,7.165004 14.113932,13.004078 25.54384,16.392427 0.315818,-1.411032 0.637972,-2.824762 1.008702,-4.251021 C 48.068489,31.821887 61.974617,12.270665 73.812624,11.126465 70.568741,10.487742 67.216308,10.147813 63.78496,10.147813 z"
         style="fill:url(#linearGradient3278);fill-opacity:1;stroke:none" />
    </g>
    <g
       id="g4154">
      <path
         sodipodi:type="arc"
         style="fill:#505050;fill-opacity:1;fill-rule:evenodd;stroke:none"
         id="path4145"
         sodipodi:cx="18.958334"
         sodipodi:cy="44.791668"
         sodipodi:rx="1.625"
         sodipodi:ry="1.625"
         d="m 20.583334,44.791668 c 0,0.897463 -0.727537,1.625 -1.625,1.625 -0.897463,0 -1.625,-0.727537 -1.625,-1.625 0,-0.897463 0.727537,-1.625 1.625,-1.625 0.897463,0 1.625,0.727537 1.625,1.625 z"
         transform="matrix(2.7692308,0,0,2.7692308,-9.7000022,-86.538466)" />
      <rect
         style="color:#000000;fill:#505050;fill-opacity:1;fill-rule:evenodd;stroke:none;stroke-width:0.50000000000000000;marker:none;visibility:visible;display:inline;overflow:visible;enable-background:accumulate"
         id="rect4053"
         width="64"
         height="3"
         x="10.8"
         y="36" />
      <rect
         y="36.5"
         x="10.8"
         height="2"
         width="64"
         id="rect4442"
         style="color:#000000;fill:url(#linearGradient3375);fill-opacity:1;fill-rule:evenodd;stroke:none;stroke-width:0.5;marker:none;visibility:visible;display:inline;overflow:visible;enable-background:accumulate" />
      <rect
         y="41.299999"
         x="-38.5"
         height="3"
         width="13"
         id="rect4061"
         style="color:#000000;fill:#505050;fill-opacity:1;fill-rule:evenodd;stroke:none;stroke-width:0.50000000000000000;marker:none;visibility:visible;display:inline;overflow:visible;enable-background:accumulate"
         transform="matrix(0,-1,1,0,0,0)" />
      <rect
         transform="matrix(0,-1,1,0,0,0)"
         style="color:#000000;fill:url(#linearGradient3369);fill-opacity:1;fill-rule:evenodd;stroke:none;stroke-width:0.5;marker:none;visibility:visible;display:inline;overflow:visible;enable-background:accumulate"
         id="rect4049"
         width="13"
         height="2"
         x="-38.5"
         y="41.799999" />
      <path
         transform="matrix(2.4615384,0,0,2.4615384,-3.866667,-72.75641)"
         d="m 20.583334,44.791668 c 0,0.897463 -0.727537,1.625 -1.625,1.625 -0.897463,0 -1.625,-0.727537 -1.625,-1.625 0,-0.897463 0.727537,-1.625 1.625,-1.625 0.897463,0 1.625,0.727537 1.625,1.625 z"
         sodipodi:ry="1.625"
         sodipodi:rx="1.625"
         sodipodi:cy="44.791668"
         sodipodi:cx="18.958334"
         id="path3261"
         style="fill:url(#radialGradient3356);fill-opacity:1;fill-rule:evenodd;stroke:none"
         sodipodi:type="arc" />
    </g>
    <g
       id="g3041">
      <rect
         ry="3.2"
         rx="3.2"
         y="-21.75"
         x="6"
         height="48"
         width="73.599998"
         id="rect2722"
         style="fill:#000000;fill-opacity:1;stroke:none" />
      <rect
         width="67.148537"
         height="41.509975"
         x="-76.371445"
         y="-23.062387"
         transform="matrix(-0.9999991,0.00134114,-0.00124129,-0.99999923,0,0)"
         id="rect3580"
         style="fill:url(#linearGradient3038);fill-opacity:1;stroke:none" />
      <path
         id="rect3466"
         d="m 9.200004,-18.55 67.199996,0 0,41.600001 -67.199996,0 z"
         style="opacity:0.25;fill:url(#radialGradient3035);fill-opacity:1;fill-rule:evenodd;stroke:none;display:inline;enable-background:new"
         inkscape:connector-curvature="0" />
      <path
         id="rect4164"
         d="m 9.2,-21.75 c -1.7728,0 -3.2,1.4272 -3.2,3.2 l 0,27.6 73.6,-19.7 0,-7.9 c 0,-1.7728 -1.4272,-3.2 -3.2,-3.2 l -67.2,0 z"
         style="opacity:0.25;fill:#ffffff;fill-opacity:1;stroke:none"
         inkscape:connector-curvature="0" />
    </g>
  </g>
</svg>
