<?xml version="1.0" encoding="UTF-8" standalone="no"?>
<!-- Created with Inkscape (http://www.inkscape.org/) -->

<svg
   xmlns:dc="http://purl.org/dc/elements/1.1/"
   xmlns:cc="http://creativecommons.org/ns#"
   xmlns:rdf="http://www.w3.org/1999/02/22-rdf-syntax-ns#"
   xmlns:svg="http://www.w3.org/2000/svg"
   xmlns="http://www.w3.org/2000/svg"
   xmlns:xlink="http://www.w3.org/1999/xlink"
   xmlns:sodipodi="http://sodipodi.sourceforge.net/DTD/sodipodi-0.dtd"
   xmlns:inkscape="http://www.inkscape.org/namespaces/inkscape"
   version="1.2"
   width="96"
   height="96"
   id="svg2408"
   style="display:inline"
   inkscape:version="0.48.4 r9939"
   sodipodi:docname="puddletag.svg">
  <metadata
     id="metadata83">
    <rdf:RDF>
      <cc:Work
         rdf:about="">
        <dc:format>image/svg+xml</dc:format>
        <dc:type
           rdf:resource="http://purl.org/dc/dcmitype/StillImage" />
        <dc:title />
      </cc:Work>
    </rdf:RDF>
  </metadata>
  <sodipodi:namedview
     pagecolor="#ffffff"
     bordercolor="#666666"
     borderopacity="1"
     objecttolerance="10"
     gridtolerance="10"
     guidetolerance="10"
     inkscape:pageopacity="0"
     inkscape:pageshadow="2"
     inkscape:window-width="1015"
     inkscape:window-height="711"
     id="namedview81"
     showgrid="false"
     inkscape:zoom="4"
     inkscape:cx="48"
     inkscape:cy="58"
     inkscape:window-x="0"
     inkscape:window-y="24"
     inkscape:window-maximized="0"
     inkscape:current-layer="svg2408"
     fit-margin-top="0"
     fit-margin-left="0"
     fit-margin-right="0"
     fit-margin-bottom="0"
     inkscape:snap-page="true" />
  <defs
     id="defs2410">
    <linearGradient
       inkscape:collect="always"
       id="linearGradient3788">
      <stop
         style="stop-color:#ffffff;stop-opacity:1;"
         offset="0"
         id="stop3790" />
      <stop
         style="stop-color:#ffffff;stop-opacity:0;"
         offset="1"
         id="stop3792" />
    </linearGradient>
    <linearGradient
       id="linearGradient3690">
      <stop
         id="stop3692"
         style="stop-color:#81feff;stop-opacity:1;"
         offset="0" />
      <stop
         id="stop3694"
         style="stop-color:#184968;stop-opacity:1;"
         offset="1" />
    </linearGradient>
    <linearGradient
       x1="45.447727"
       y1="80.471962"
       x2="45.447727"
       y2="7.0165396"
       id="ButtonShadow"
       gradientUnits="userSpaceOnUse"
       gradientTransform="matrix(1.0058652,0,0,0.994169,0,12)">
      <stop
         id="stop3750"
         style="stop-color:#000000;stop-opacity:1"
         offset="0" />
      <stop
         id="stop3752"
         style="stop-color:#000000;stop-opacity:0.58823532"
         offset="1" />
    </linearGradient>
    <filter
       color-interpolation-filters="sRGB"
       id="filter3174">
      <feGaussianBlur
         id="feGaussianBlur3176"
         stdDeviation="1.71" />
    </filter>
    <linearGradient
       x1="45.447727"
       y1="80.471962"
       x2="45.447727"
       y2="5.297224"
       id="linearGradient4018"
       xlink:href="#ButtonShadow"
       gradientUnits="userSpaceOnUse"
       gradientTransform="matrix(1.0058652,0,0,0.994169,0,12)" />
    <linearGradient
       inkscape:collect="always"
       xlink:href="#linearGradient3788"
       id="linearGradient3794"
       x1="51.915455"
       y1="18.182428"
       x2="51.915455"
       y2="65.833603"
       gradientUnits="userSpaceOnUse" />
    <radialGradient
       inkscape:collect="always"
       xlink:href="#linearGradient3690"
       id="radialGradient3770"
       cx="48.713207"
       cy="64.353874"
       fx="48.713207"
       fy="64.353874"
       r="41.327518"
       gradientTransform="matrix(1.6802157,-8.1034907e-8,6.0521678e-8,1.2548848,-33.098706,-10.006688)"
       gradientUnits="userSpaceOnUse" />
  </defs>
  <path
     style="opacity:0.15;fill:#000000;fill-opacity:1;fill-rule:evenodd;stroke:none;display:inline"
     d="m 53.15625,14.46875 c -8.126792,0 -14.877014,5.06081 -19,12.15625 -1.315133,-0.582657 -2.742759,-0.96875 -4.25,-0.96875 -5.718344,0 -9.796563,4.476016 -11.125,9.96875 C 9.3182851,37.548159 2.6875,47.317895 2.6875,58.375 c 0,12.337934 8.227832,23.15625 19.46875,23.15625 l 51.6875,0 c 11.240916,0 19.46875,-10.818315 19.46875,-23.15625 0,-11.626681 -7.344541,-21.791227 -17.59375,-22.9375 C 73.17319,23.697599 64.374029,14.46875 53.15625,14.46875 z"
     id="path3778" />
  <path
     style="opacity:0.25;fill:#000000;fill-opacity:1;fill-rule:evenodd;stroke:none;display:inline"
     d="m 53.15625,16.46875 c -7.986692,0 -14.603947,5.432499 -18.25,13.03125 -1.47496,-1.055548 -3.124884,-1.84375 -5,-1.84375 -5.044886,0 -8.741781,4.421982 -9.46875,9.78125 -9.037588,1.062706 -15.75,10.151056 -15.75,20.9375 0,11.472774 7.555395,21.15625 17.46875,21.15625 l 51.6875,0 c 9.913353,0 17.46875,-9.683474 17.46875,-21.15625 0,-11.385258 -7.448264,-20.978852 -17.25,-21.125 C 72.108325,25.582638 63.676883,16.46875 53.15625,16.46875 z"
     id="path3776" />
  <path
     style="opacity:0.75;fill:#000000;fill-opacity:1;fill-rule:evenodd;stroke:none;display:inline"
     d="m 53.15625,17.46875 c -7.927748,0 -14.577355,5.630753 -17.9375,13.5625 -1.481318,-1.390942 -3.264114,-2.375 -5.3125,-2.375 -4.669288,0 -8.200277,4.356367 -8.59375,9.65625 -8.83314,0.544573 -15.625,9.366935 -15.625,20.0625 0,11.040195 7.219176,20.15625 16.46875,20.15625 l 51.6875,0 c 9.249572,0 16.46875,-9.116054 16.46875,-20.15625 0,-11.040192 -7.219178,-20.15625 -16.46875,-20.15625 l -0.625,0 c -1.628189,-11.665069 -9.89408,-20.75 -20.0625,-20.75 z"
     id="path3005" />
  <g
     id="layer2"
     style="display:none">
    <path
       d="M 14.96875,8.8028918 C 13.32891,8.8028918 12,10.085142 12,11.677892 L 12,19 c -3.324,0 -7,2.676 -7,6 l 0,61 c 0,3.324 2.676,6 6,6 l 74,0 c 3.324,0 6,-2.676 6,-6 l 0,-61 c 0,-3.324 -3.747429,-6 -7.071429,-6 l 0,-0.134608 c 0,-2.389125 -1.97774,-4.3125 -4.4375,-4.3125 l -43.334821,0 -1.46875,-2.875 C 33.954141,10.253293 33.35859,8.8028918 31.71875,8.8028918 l -16.75,0 z"
       id="rect3745"
       style="opacity:0.9;fill:url(#linearGradient4018);fill-opacity:1;fill-rule:nonzero;stroke:none;filter:url(#filter3174)"
       inkscape:connector-curvature="0" />
  </g>
  <path
     inkscape:connector-curvature="0"
     style="fill:url(#radialGradient3770);fill-opacity:1;fill-rule:evenodd;stroke:none;display:inline"
     id="path3242"
     d="m 53.16594,18.481215 c -7.863575,0 -14.601176,5.794811 -17.636842,14.111176 -1.410648,-1.82082 -3.408724,-2.941905 -5.609888,-2.941905 -4.279604,0 -7.74891,4.286273 -7.74891,9.57366 -8.585792,0 -15.49782,8.539706 -15.49782,19.147318 0,10.607615 6.912028,19.147321 15.49782,19.147321 l 51.6594,0 c 8.58579,0 15.49782,-8.539705 15.49782,-19.147321 0,-10.607612 -6.91203,-19.147318 -15.49782,-19.147318 l -1.452922,0 C 71.113042,27.515705 62.988428,18.481215 53.16594,18.481215 z" />
  <path
     style="opacity:0.75000000000000000;color:#000000;fill:url(#linearGradient3794);fill-opacity:1;fill-rule:evenodd;stroke:none;stroke-width:4;stroke-linecap:round;stroke-linejoin:round;stroke-miterlimit:4;stroke-opacity:1;stroke-dasharray:none;stroke-dashoffset:0.69999999999999996;marker:none;visibility:visible;display:inline;overflow:visible;enable-background:accumulate"
     d="M 53.15625 18.46875 C 45.292675 18.46875 38.566916 24.277385 35.53125 32.59375 C 34.120602 30.77293 32.107414 29.65625 29.90625 29.65625 C 25.626646 29.65625 22.15625 33.931363 22.15625 39.21875 C 17.729201 39.21875 13.756437 41.502573 10.9375 45.15625 C 19.741211 51.300319 33.076422 55.21875 48 55.21875 C 62.923578 55.21875 76.258789 51.300319 85.0625 45.15625 C 82.243562 41.502573 78.270798 39.21875 73.84375 39.21875 L 72.375 39.21875 C 71.111264 27.510309 62.978738 18.46875 53.15625 18.46875 z "
     id="path3782" />
</svg>
