<?xml version="1.0" encoding="UTF-8" standalone="no"?>
<!-- Created with Inkscape (http://www.inkscape.org/) -->

<svg
   xmlns:dc="http://purl.org/dc/elements/1.1/"
   xmlns:cc="http://creativecommons.org/ns#"
   xmlns:rdf="http://www.w3.org/1999/02/22-rdf-syntax-ns#"
   xmlns:svg="http://www.w3.org/2000/svg"
   xmlns="http://www.w3.org/2000/svg"
   xmlns:xlink="http://www.w3.org/1999/xlink"
   xmlns:sodipodi="http://sodipodi.sourceforge.net/DTD/sodipodi-0.dtd"
   xmlns:inkscape="http://www.inkscape.org/namespaces/inkscape"
   width="96"
   height="96"
   id="svg7324"
   sodipodi:version="0.32"
   inkscape:version="0.48.4 r9939"
   sodipodi:docname="qbittorrent.svg"
   inkscape:output_extension="org.inkscape.output.svg.inkscape"
   version="1.1">
  <defs
     id="defs7326">
    <linearGradient
       inkscape:collect="always"
       id="linearGradient3927">
      <stop
         style="stop-color:#ffffff;stop-opacity:1;"
         offset="0"
         id="stop3929" />
      <stop
         style="stop-color:#ffffff;stop-opacity:0;"
         offset="1"
         id="stop3931" />
    </linearGradient>
    <linearGradient
       id="linearGradient3843">
      <stop
         style="stop-color:#ffffff;stop-opacity:1;"
         offset="0"
         id="stop3845" />
      <stop
         style="stop-color:#d0e3f0;stop-opacity:1;"
         offset="1"
         id="stop3847" />
    </linearGradient>
    <linearGradient
       inkscape:collect="always"
       id="linearGradient13101">
      <stop
         style="stop-color:#000000;stop-opacity:1;"
         offset="0"
         id="stop13103" />
      <stop
         style="stop-color:#000000;stop-opacity:0;"
         offset="1"
         id="stop13105" />
    </linearGradient>
    <linearGradient
       id="linearGradient3142">
      <stop
         style="stop-color:#3cc1ee;stop-opacity:1;"
         offset="0"
         id="stop3144" />
      <stop
         style="stop-color:#141b7c;stop-opacity:1;"
         offset="1"
         id="stop3146" />
    </linearGradient>
    <radialGradient
       inkscape:collect="always"
       xlink:href="#linearGradient13101"
       id="radialGradient3151"
       gradientUnits="userSpaceOnUse"
       cx="16.536655"
       cy="31.563871"
       fx="16.536655"
       fy="31.563871"
       r="16.335602" />
    <radialGradient
       inkscape:collect="always"
       xlink:href="#linearGradient3142"
       id="radialGradient3949"
       gradientUnits="userSpaceOnUse"
       cx="138.80981"
       cy="147.785"
       fx="135.29474"
       fy="217.461"
       r="92.351021" />
    <linearGradient
       inkscape:collect="always"
       xlink:href="#linearGradient3843"
       id="linearGradient3020"
       gradientUnits="userSpaceOnUse"
       x1="36.020302"
       y1="-24.816364"
       x2="45.569046"
       y2="20.00255"
       gradientTransform="translate(-5.9178466e-7,3.0000001)" />
    <radialGradient
       inkscape:collect="always"
       xlink:href="#linearGradient3927"
       id="radialGradient3817"
       gradientUnits="userSpaceOnUse"
       gradientTransform="matrix(1.579496,-0.39825589,0.23526313,0.93306137,-39.28432,11.521415)"
       cx="43.125"
       cy="18.25"
       fx="43.125"
       fy="18.25"
       r="19.875" />
  </defs>
  <sodipodi:namedview
     id="base"
     pagecolor="#ffffff"
     bordercolor="#666666"
     borderopacity="1.0"
     inkscape:pageopacity="0.0"
     inkscape:pageshadow="2"
     inkscape:zoom="4"
     inkscape:cx="48"
     inkscape:cy="48"
     inkscape:current-layer="layer1"
     showgrid="true"
     inkscape:grid-bbox="true"
     inkscape:document-units="px"
     inkscape:window-width="1022"
     inkscape:window-height="713"
     inkscape:window-x="136"
     inkscape:window-y="55"
     inkscape:window-maximized="0"
     fit-margin-top="0"
     fit-margin-left="0"
     fit-margin-right="0"
     fit-margin-bottom="0"
     inkscape:object-paths="false"
     inkscape:object-nodes="false" />
  <metadata
     id="metadata7329">
    <rdf:RDF>
      <cc:Work
         rdf:about="">
        <dc:format>image/svg+xml</dc:format>
        <dc:type
           rdf:resource="http://purl.org/dc/dcmitype/StillImage" />
        <dc:title />
      </cc:Work>
    </rdf:RDF>
  </metadata>
  <g
     id="layer1"
     inkscape:label="Layer 1"
     inkscape:groupmode="layer"
     transform="translate(0,48)">
    <path
       sodipodi:type="arc"
       style="opacity:0.75;fill:url(#radialGradient3151);fill-opacity:1;fill-rule:nonzero;stroke:none"
       id="path7005"
       sodipodi:cx="16.536655"
       sodipodi:cy="31.563871"
       sodipodi:rx="16.335602"
       sodipodi:ry="16.335602"
       d="m 32.872257,31.563871 a 16.335602,16.335602 0 1 1 -32.67120338,0 16.335602,16.335602 0 1 1 32.67120338,0 z"
       transform="matrix(2.6935035,0,0,0.9794558,3.4584607,1.0845832)" />
    <path
       style="fill:#000000;stroke:none"
       d=""
       id="path2197"
       inkscape:connector-curvature="0" />
    <path
       sodipodi:type="arc"
       style="fill:url(#radialGradient3949);fill-opacity:1;stroke:none"
       id="path2285"
       sodipodi:cx="138.80981"
       sodipodi:cy="147.785"
       sodipodi:rx="92.351021"
       sodipodi:ry="92.351021"
       d="m 231.16084,147.785 a 92.351021,92.351021 0 1 1 -184.702046,0 92.351021,92.351021 0 1 1 184.702046,0 z"
       transform="matrix(0.47644303,0,0,0.47644303,-18.134969,-70.411135)" />
    <path
       style="font-size:64px;font-style:normal;font-variant:normal;font-weight:bold;font-stretch:normal;line-height:125%;letter-spacing:-1px;word-spacing:0px;fill:url(#linearGradient3020);fill-opacity:1;stroke:#214478;font-family:Sawasdee;-inkscape-font-specification:Sawasdee Bold"
       d="m 50.437499,-31.34375 c -0.03526,13.710672 0.07173,27.4236391 -0.05569,41.1328271 -0.01323,3.0005919 -0.718682,5.9683829 -2.413056,8.4609229 3.0625,0 6.125,0 9.1875,0 0.698657,-1.551482 0.220989,-4.513775 2.230487,-2.174814 6.390678,4.676023 15.986409,2.624639 20.646203,-3.545368 5.776009,-6.9388559 5.299108,-18.1167359 -1.09895,-24.506992 -4.796091,-5.18655 -13.33503,-6.669605 -19.26265,-2.574394 -1.815375,2.008065 -1.154073,-0.69758 -1.26509,-1.972901 0,-4.939761 0,-9.879521 0,-14.819281 -2.65625,0 -5.3125,0 -7.96875,0 z m -21.75,14.40625 c -8.72656,-0.179756 -16.164543,7.5659341 -16.704417,16.0762671 -1.01852,8.673908 5.041344,17.8809969 13.860469,19.2791219 4.124137,0.814595 8.491917,-0.410044 11.750198,-3.011639 0,5.3125 0,10.625 0,15.9375 2.65625,0 5.3125,0 7.96875,0 0.03391,-13.113561 -0.06929,-26.2292909 0.05429,-39.3414379 0.01119,-3.0092121 0.721853,-5.9812331 2.38321,-8.5023121 -3.052083,0 -6.104167,0 -9.15625,0 -0.733959,1.557521 -0.227911,4.644119 -2.262062,2.253599 -2.318143,-1.569649 -5.057488,-2.685267 -7.894188,-2.691099 z m 0,7.6875001 c 5.576599,-0.0049 9.571209,5.940076 8.864836,11.194821 -0.2026,5.32588 -5.560585,10.3682659 -10.994609,8.7543759 -5.786186,-1.6703819 -8.384322,-8.9081219 -5.990293,-14.2016909 1.431533,-3.125078 4.519648,-5.844526 8.120066,-5.747506 z m 38.65625,0 c 5.780398,-0.01517 9.777682,6.314561 8.813038,11.697318 -0.478155,5.278669 -6.038725,10.0281239 -11.363705,8.1346679 -6.724901,-2.2861319 -8.486237,-11.9667389 -3.699333,-16.9257359 1.5685,-1.794023 3.834263,-2.971837 6.25,-2.90625 z"
       id="path3038"
       inkscape:connector-curvature="0" />
    <path
       style="color:#000000;fill:url(#radialGradient3817);fill-opacity:1;fill-rule:evenodd;stroke:none;stroke-width:1px;marker:none;visibility:visible;display:inline;overflow:visible;enable-background:accumulate"
       d="M 48 4 C 30.960889 4 16.216024 13.709276 8.90625 27.875 C 15.772466 31.740388 26.550889 32.745765 37.8125 29.90625 C 52.982891 26.081171 64.015976 16.532285 64.8125 7.34375 C 59.631085 5.1987469 53.956736 4 48 4 z "
       transform="translate(0,-48)"
       id="path3917" />
  </g>
</svg>
