<?xml version="1.0" encoding="UTF-8" standalone="no"?>
<!-- Created with Inkscape (http://www.inkscape.org/) -->

<svg
   xmlns:dc="http://purl.org/dc/elements/1.1/"
   xmlns:cc="http://creativecommons.org/ns#"
   xmlns:rdf="http://www.w3.org/1999/02/22-rdf-syntax-ns#"
   xmlns:svg="http://www.w3.org/2000/svg"
   xmlns="http://www.w3.org/2000/svg"
   xmlns:xlink="http://www.w3.org/1999/xlink"
   xmlns:sodipodi="http://sodipodi.sourceforge.net/DTD/sodipodi-0.dtd"
   xmlns:inkscape="http://www.inkscape.org/namespaces/inkscape"
   version="1.1"
   inkscape:output_extension="org.inkscape.output.svg.inkscape"
   sodipodi:docname="system-file-manager.svg"
   inkscape:version="0.48.4 r9939"
   sodipodi:version="0.32"
   id="svg7217"
   height="96"
   width="96"
   inkscape:export-filename="folder.png"
   inkscape:export-xdpi="90"
   inkscape:export-ydpi="90">
  <defs
     id="defs7219">
    <linearGradient
       id="linearGradient10176"
       gradientUnits="userSpaceOnUse"
       x1="71.999496"
       y1="14.2578"
       x2="71.999496"
       y2="19.9583"
       gradientTransform="matrix(1.0033404,0,0,1,-8.2374684,8)">
      <stop
         offset="0.00445589"
         style="stop-color:#eaeaea;stop-opacity:0;"
         id="stop10178" />
      <stop
         id="stop10180"
         style="stop-color:#ffffff;stop-opacity:0.52941179;"
         offset="0.46138024" />
      <stop
         offset="1"
         style="stop-color:#f5f5f5;stop-opacity:0"
         id="stop10182" />
    </linearGradient>
    <linearGradient
       gradientTransform="matrix(1.0033404,0,0,1,-8.2374684,8)"
       y2="19.9583"
       x2="71.999496"
       y1="14.2578"
       x1="71.999496"
       gradientUnits="userSpaceOnUse"
       id="linearGradient9101">
      <stop
         id="stop9103"
         style="stop-color:#265c88;stop-opacity:0;"
         offset="0.25" />
      <stop
         id="stop9105"
         style="stop-color:#265c88;stop-opacity:1;"
         offset="1" />
    </linearGradient>
    <linearGradient
       inkscape:collect="always"
       id="linearGradient5060">
      <stop
         style="stop-color:black;stop-opacity:1;"
         offset="0"
         id="stop5062" />
      <stop
         style="stop-color:black;stop-opacity:0;"
         offset="1"
         id="stop5064" />
    </linearGradient>
    <linearGradient
       id="linearGradient5048">
      <stop
         style="stop-color:black;stop-opacity:0;"
         offset="0"
         id="stop5050" />
      <stop
         id="stop5056"
         offset="0.5"
         style="stop-color:black;stop-opacity:1;" />
      <stop
         style="stop-color:black;stop-opacity:0;"
         offset="1"
         id="stop5052" />
    </linearGradient>
    <linearGradient
       id="linearGradient9073-9">
      <stop
         id="stop9075-9"
         offset="0"
         style="stop-color:#aadfee;stop-opacity:1" />
      <stop
         id="stop9077-5"
         offset="1"
         style="stop-color:#4483aa;stop-opacity:1" />
    </linearGradient>
    <linearGradient
       inkscape:collect="always"
       id="linearGradient9087-5">
      <stop
         style="stop-color:#4483aa;stop-opacity:1"
         offset="0"
         id="stop9089-5" />
      <stop
         style="stop-color:#265c88;stop-opacity:1"
         offset="1"
         id="stop9091-1" />
    </linearGradient>
    <linearGradient
       id="linearGradient4064-7">
      <stop
         style="stop-color:#4483aa;stop-opacity:1;"
         offset="0"
         id="stop4066-4" />
      <stop
         style="stop-color:#4483aa;stop-opacity:0.50196081;"
         offset="1"
         id="stop4068-8" />
    </linearGradient>
    <linearGradient
       id="linearGradient4054-7">
      <stop
         style="stop-color:#265c88;stop-opacity:1;"
         offset="0"
         id="stop4056-0" />
      <stop
         style="stop-color:#265c88;stop-opacity:0.50196081;"
         offset="1"
         id="stop4058-9" />
    </linearGradient>
    <radialGradient
       inkscape:collect="always"
       xlink:href="#linearGradient5060"
       id="radialGradient3241"
       gradientUnits="userSpaceOnUse"
       gradientTransform="matrix(-0.125709,0,0,0.0864706,93.410098,-10.70427)"
       cx="605.71429"
       cy="486.64789"
       fx="605.71429"
       fy="486.64789"
       r="117.14286" />
    <radialGradient
       inkscape:collect="always"
       xlink:href="#linearGradient5060"
       id="radialGradient3244"
       gradientUnits="userSpaceOnUse"
       gradientTransform="matrix(0.125709,0,0,0.0864706,2.5899204,-10.70427)"
       cx="605.71429"
       cy="486.64789"
       fx="605.71429"
       fy="486.64789"
       r="117.14286" />
    <linearGradient
       inkscape:collect="always"
       xlink:href="#linearGradient5048"
       id="linearGradient3247"
       gradientUnits="userSpaceOnUse"
       gradientTransform="matrix(0.125709,0,0,0.0864706,2.5651808,-10.70427)"
       x1="302.85715"
       y1="366.64789"
       x2="302.85715"
       y2="609.50507" />
    <linearGradient
       inkscape:collect="always"
       xlink:href="#linearGradient10176"
       id="linearGradient3049"
       gradientUnits="userSpaceOnUse"
       gradientTransform="matrix(0.9204022,0,0,1.885618,-11.468937,-87.058428)"
       x1="7.2379346"
       y1="36.005047"
       x2="122.17093"
       y2="36.005047" />
    <linearGradient
       inkscape:collect="always"
       xlink:href="#linearGradient9073-9"
       id="linearGradient3052"
       gradientUnits="userSpaceOnUse"
       gradientTransform="matrix(0.7031318,0,0,0.7105376,-69.874472,-254.68002)"
       x1="167.64111"
       y1="328.87747"
       x2="167.64111"
       y2="407.69193" />
    <linearGradient
       inkscape:collect="always"
       xlink:href="#linearGradient9087-5"
       id="linearGradient3054"
       gradientUnits="userSpaceOnUse"
       gradientTransform="matrix(2,0,0,2,-365.99542,-54)"
       x1="206.99738"
       y1="16.499895"
       x2="206.99738"
       y2="44.50021" />
    <linearGradient
       inkscape:collect="always"
       xlink:href="#linearGradient9101"
       id="linearGradient3057"
       gradientUnits="userSpaceOnUse"
       gradientTransform="matrix(0.75086228,0,0,0.3333332,-6.0605797,-28.166666)"
       x1="71.999496"
       y1="14.2578"
       x2="71.999496"
       y2="19.9583" />
    <linearGradient
       inkscape:collect="always"
       xlink:href="#linearGradient4064-7"
       id="linearGradient3060"
       gradientUnits="userSpaceOnUse"
       gradientTransform="matrix(2,0,0,2,-94,-48)"
       x1="71"
       y1="8"
       x2="71"
       y2="41.5" />
    <linearGradient
       inkscape:collect="always"
       xlink:href="#linearGradient4054-7"
       id="linearGradient3062"
       gradientUnits="userSpaceOnUse"
       gradientTransform="matrix(2,0,0,2,-94,-48)"
       x1="71"
       y1="8"
       x2="71"
       y2="41.5" />
    <radialGradient
       inkscape:collect="always"
       xlink:href="#linearGradient4141-7"
       id="radialGradient3070"
       gradientUnits="userSpaceOnUse"
       gradientTransform="matrix(-0.52811999,0,0,-1.1117261,49.28714,29.520248)"
       cx="35.260681"
       cy="18.936527"
       fx="35.260681"
       fy="18.936527"
       r="12.030256" />
    <linearGradient
       id="linearGradient4141-7">
      <stop
         offset="0"
         style="stop-color:#c1f0ff;stop-opacity:1;"
         id="stop4143-4" />
      <stop
         offset="0.5"
         style="stop-color:#016dff;stop-opacity:1;"
         id="stop4145-1" />
      <stop
         offset="1"
         style="stop-color:#072da9;stop-opacity:1;"
         id="stop4147-1" />
    </linearGradient>
    <linearGradient
       inkscape:collect="always"
       xlink:href="#linearGradient3851-6"
       id="linearGradient3856"
       gradientUnits="userSpaceOnUse"
       x1="18.699999"
       y1="27.800001"
       x2="25.299999"
       y2="41.100002" />
    <linearGradient
       id="linearGradient3851-6">
      <stop
         style="stop-color:#ffffff;stop-opacity:1;"
         offset="0"
         id="stop3853-6" />
      <stop
         style="stop-color:#c0c0c0;stop-opacity:1;"
         offset="1"
         id="stop3855-1" />
    </linearGradient>
    <radialGradient
       inkscape:collect="always"
       xlink:href="#linearGradient4271-5"
       id="radialGradient3485"
       gradientUnits="userSpaceOnUse"
       gradientTransform="matrix(1,0,0,0.25,0,20.625)"
       cx="24"
       cy="27.5"
       fx="24"
       fy="27.5"
       r="14" />
    <linearGradient
       id="linearGradient4271-5">
      <stop
         style="stop-color:#ffffff;stop-opacity:1;"
         offset="0"
         id="stop4273-2" />
      <stop
         style="stop-color:#ffffff;stop-opacity:0;"
         offset="1"
         id="stop4275-8" />
    </linearGradient>
    <linearGradient
       inkscape:collect="always"
       xlink:href="#linearGradient3977-3"
       id="linearGradient3479"
       gradientUnits="userSpaceOnUse"
       x1="22.31818"
       y1="30.065342"
       x2="21.826704"
       y2="27.24716" />
    <linearGradient
       inkscape:collect="always"
       id="linearGradient3977-3">
      <stop
         style="stop-color:#ffffff;stop-opacity:1;"
         offset="0"
         id="stop3979-7" />
      <stop
         style="stop-color:#ffffff;stop-opacity:0;"
         offset="1"
         id="stop3981-9" />
    </linearGradient>
    <radialGradient
       inkscape:collect="always"
       xlink:href="#linearGradient4074-4"
       id="radialGradient3475"
       gradientUnits="userSpaceOnUse"
       gradientTransform="matrix(1,0,0,0.5,0,14.78125)"
       cx="11.375"
       cy="29.5625"
       fx="11.375"
       fy="29.5625"
       r="3.625" />
    <linearGradient
       inkscape:collect="always"
       id="linearGradient4074-4">
      <stop
         style="stop-color:#ffffff;stop-opacity:1;"
         offset="0"
         id="stop4076-1" />
      <stop
         style="stop-color:#ffffff;stop-opacity:0;"
         offset="1"
         id="stop4078-5" />
    </linearGradient>
  </defs>
  <sodipodi:namedview
     id="base"
     pagecolor="#ffffff"
     bordercolor="#666666"
     borderopacity="1.0"
     inkscape:pageopacity="0.0"
     inkscape:pageshadow="2"
     inkscape:zoom="4"
     inkscape:cx="48"
     inkscape:cy="48"
     inkscape:current-layer="layer1"
     showgrid="true"
     inkscape:grid-bbox="true"
     inkscape:document-units="px"
     inkscape:window-width="1029"
     inkscape:window-height="741"
     inkscape:window-x="227"
     inkscape:window-y="29"
     inkscape:window-maximized="0"
     inkscape:object-paths="true"
     inkscape:snap-intersection-paths="true"
     inkscape:object-nodes="true"
     inkscape:snap-smooth-nodes="true"
     inkscape:snap-midpoints="true"
     inkscape:snap-object-midpoints="true"
     fit-margin-top="0"
     fit-margin-left="0"
     fit-margin-right="0"
     fit-margin-bottom="0" />
  <metadata
     id="metadata7222">
    <rdf:RDF>
      <cc:Work
         rdf:about="">
        <dc:format>image/svg+xml</dc:format>
        <dc:type
           rdf:resource="http://purl.org/dc/dcmitype/StillImage" />
        <dc:title />
      </cc:Work>
    </rdf:RDF>
  </metadata>
  <g
     id="layer1"
     inkscape:label="Layer 1"
     inkscape:groupmode="layer"
     transform="translate(0,48)">
    <g
       id="g3269">
      <rect
         y="21"
         x="17.650259"
         height="21.000004"
         width="60.699482"
         id="rect13073"
         style="opacity:0.40206185;fill:url(#linearGradient3247);fill-opacity:1;fill-rule:nonzero;stroke:none;stroke-width:1;marker:none;visibility:visible;display:inline;overflow:visible" />
      <path
         inkscape:connector-curvature="0"
         sodipodi:nodetypes="cccc"
         id="path13075"
         d="m 78.349742,21.000718 c 0,0 0,20.998846 0,20.998846 C 84.823444,42.039084 94.000004,37.294788 94,31.49879 94,25.70279 86.775836,21.00072 78.349742,21.000718 z"
         style="opacity:0.40206185;fill:url(#radialGradient3244);fill-opacity:1;fill-rule:nonzero;stroke:none;stroke-width:1;marker:none;visibility:visible;display:inline;overflow:visible" />
      <path
         inkscape:connector-curvature="0"
         style="opacity:0.40206185;fill:url(#radialGradient3241);fill-opacity:1;fill-rule:nonzero;stroke:none;stroke-width:1;marker:none;visibility:visible;display:inline;overflow:visible"
         d="m 17.65026,21.000718 c 0,0 0,20.998846 0,20.998846 -6.473703,0.03952 -15.6502598,-4.704776 -15.6502598,-10.500774 0,-5.796 7.224163,-10.49807 15.6502598,-10.498072 z"
         id="path13077"
         sodipodi:nodetypes="cccc" />
    </g>
    <path
       style="color:#000000;fill:url(#linearGradient3060);fill-opacity:1;fill-rule:evenodd;stroke:url(#linearGradient3062);stroke-width:1;stroke-linecap:butt;stroke-linejoin:miter;stroke-miterlimit:4;stroke-opacity:1;stroke-dasharray:none;stroke-dashoffset:0;marker:none;visibility:visible;display:inline;overflow:visible;enable-background:accumulate"
       d="m 63,-32 c -1.108,0 -2.0895,0.4645 -2.8125,1.1875 L 56.375,-27 11,-27 c -2.216,0 -4,1.784 -4,4 l 0,56 c 0,1.108 0.892,2 2,2 l 78,0 c 1.108,0 2,-0.892 2,-2 l 0,-61 c 0,-2.216 -1.784,-4 -4,-4 z"
       id="rect3142"
       inkscape:connector-curvature="0"
       sodipodi:nodetypes="sscsccccccss" />
    <g
       id="g3085"
       transform="matrix(2,0,0,2,0,-48)">
      <path
         style="opacity:0.35;fill:none;stroke:#000000;stroke-width:1;stroke-miterlimit:4;stroke-opacity:1;stroke-dasharray:none;overflow:visible"
         d="m 4.4743581,38.297739 c 1.0614939,0.143713 16.5684369,2.243145 17.0279239,2.305352 l 7.808865,0.306207 1.649615,-7.751794 C 31.021623,32.713195 34.026255,10.776298 34.174708,9.692446 33.098905,9.546797 9.937814,6.4111017 8.861739,6.2654156 8.712567,7.3545146 4.623528,37.208642 4.4743581,38.297739 z"
         id="path3876"
         sodipodi:nodetypes="ccccccc"
         inkscape:connector-curvature="0" />
      <path
         inkscape:connector-curvature="0"
         sodipodi:nodetypes="ccccccc"
         id="path3852"
         d="m 4.4743581,38.297739 c 1.0614939,0.143713 16.5684369,2.243145 17.0279239,2.305352 l 7.808865,0.306207 1.649615,-7.751794 C 31.021623,32.713195 34.026255,10.776298 34.174708,9.692446 33.098905,9.546797 9.937814,6.4111017 8.861739,6.2654156 8.712567,7.3545146 4.623528,37.208642 4.4743581,38.297739 z"
         style="fill:#ffffff;stroke:none;overflow:visible" />
      <rect
         y="9.6124992"
         x="10.881249"
         height="23.099998"
         width="29.8375"
         id="rect3106"
         style="opacity:0.35;color:#000000;fill:none;stroke:#000000;stroke-width:1;stroke-miterlimit:4;stroke-opacity:1;stroke-dasharray:none;marker:none;visibility:visible;display:inline;overflow:visible;enable-background:accumulate" />
      <rect
         style="color:#000000;fill:#ffffff;fill-opacity:1;fill-rule:nonzero;stroke:none;stroke-width:0.5;marker:none;visibility:visible;display:inline;overflow:visible;enable-background:accumulate"
         id="rect3342"
         width="29.8375"
         height="23.099998"
         x="10.881249"
         y="9.6124992" />
      <rect
         y="11.056249"
         x="12.325"
         height="20.2125"
         width="26.949999"
         id="rect3385"
         style="color:#000000;fill:#aad400;fill-opacity:1;fill-rule:nonzero;stroke:none;stroke-width:0.25;marker:none;visibility:visible;display:inline;overflow:visible;enable-background:accumulate" />
      <g
         id="g3889">
        <path
           d="m 26.441449,17.197245 c -1.994423,-6.83825 -12.928768,-5.732307 -8.887127,3.729903 3.693181,-4.231749 4.16044,-0.01995 8.887127,-3.729903 z"
           id="path6640"
           style="fill:#ccff00;fill-opacity:1;fill-rule:evenodd;stroke:none"
           sodipodi:nodetypes="ccc"
           inkscape:connector-curvature="0" />
        <path
           d="m 22.283942,18.449172 c 2.64966,-7.408305 16.200709,-6.288418 10.942347,3.971497 -4.479472,-4.550268 -5.166204,0.0073 -10.942347,-3.971497 z"
           id="path6642"
           style="fill:#ccff00;fill-opacity:1;fill-rule:evenodd;stroke:none"
           sodipodi:nodetypes="ccc"
           inkscape:connector-curvature="0" />
        <path
           d="m 26.047111,24.187043 c 2.481147,-7.134877 14.538431,-6.239834 9.686455,3.662303 -3.917969,-4.301998 -4.603758,0.075 -9.686455,-3.662303 z"
           id="path6644"
           style="fill:#800080;fill-opacity:1;fill-rule:evenodd;stroke:none"
           sodipodi:nodetypes="ccc"
           inkscape:connector-curvature="0" />
        <path
           d="m 24.253373,25.091935 c -2.052802,-7.205816 -12.688496,-6.22112 -8.599007,3.770274 3.530457,-4.380119 4.053228,0.04585 8.599007,-3.770274 z"
           id="path6646"
           style="fill:#800080;fill-opacity:1;fill-rule:evenodd;stroke:none"
           sodipodi:nodetypes="ccc"
           inkscape:connector-curvature="0" />
        <path
           inkscape:connector-curvature="0"
           sodipodi:nodetypes="ccssscscssc"
           style="fill:#ffcc00;fill-opacity:1;fill-rule:nonzero;stroke:none"
           d="m 30.169925,29.08063 c -0.892605,0.763211 -3.943825,-3.680385 -5.798752,-4.403291 -1.849408,0.679874 -3.737561,4.799691 -4.778216,4.209591 -1.19013,-0.674858 -0.429735,-5.79113 0.07315,-6.94955 0.648138,-1.493007 -4.857181,-0.955897 -4.533311,-2.192698 0.319516,-1.220177 4.701062,-2.828898 6.097004,-3.197355 0.351444,-1.446423 1.427738,-3.785576 3.279908,-3.764061 1.852168,0.02151 3.184995,2.577902 3.725763,3.90585 1.934308,0.103516 5.193393,1.034896 5.574128,2.26247 0.375616,1.21107 -6.151508,1.763159 -5.153747,3.101621 0.728413,0.977145 2.158341,6.250784 1.51407,7.027423 z"
           id="path6652" />
        <path
           sodipodi:rx="2"
           sodipodi:ry="1.5"
           style="fill:#c83737;fill-opacity:1;fill-rule:nonzero;stroke:none"
           sodipodi:type="arc"
           d="m 21,21.5 c 0,0.828427 -0.895431,1.5 -2,1.5 -1.104569,0 -2,-0.671573 -2,-1.5 0,-0.828427 0.895431,-1.5 2,-1.5 1.104569,0 2,0.671573 2,1.5 z"
           transform="matrix(1.6968893,-0.00246395,-0.01717669,1.9043728,-7.3326747,-21.241458)"
           sodipodi:cy="21.5"
           sodipodi:cx="19"
           id="path6654" />
      </g>
      <path
         d="m 30.411267,11.782654 c 0,4.811667 0,10.082896 0,14.894564 0.304036,2.941441 -2.164401,5.696147 -5.003909,5.841987 -2.094748,0.197936 -4.397593,-1.592924 -4.254826,-3.754235 0.02711,-3.365576 3.951166,-5.843171 7.122103,-5.135404 0,-4.811145 0,-18.6875539 0,-19.4142123 0,-0.6706948 1.914784,-0.813026 1.995607,0 0.07532,0.75763 0.57098,3.5444283 3.749574,6.7624573 3.121062,3.159783 4.053239,9.136865 -0.167891,14.046911 2.245252,-5.698969 2.42496,-9.908183 -3.440658,-13.242068 z"
         id="path3878"
         style="opacity:0.35;fill:none;stroke:#000000;stroke-width:1;stroke-linecap:round;stroke-linejoin:round;stroke-miterlimit:4;stroke-opacity:1;stroke-dasharray:none"
         inkscape:connector-curvature="0" />
      <path
         inkscape:connector-curvature="0"
         style="fill:url(#radialGradient3070);fill-opacity:1;stroke:none"
         id="path2588"
         d="m 30.411267,11.782654 c 0,4.811667 0,10.082896 0,14.894564 0.304036,2.941441 -2.164401,5.696147 -5.003909,5.841987 -2.094748,0.197936 -4.397593,-1.592924 -4.254826,-3.754235 0.02711,-3.365576 3.951166,-5.843171 7.122103,-5.135404 0,-4.811145 0,-18.6875539 0,-19.4142123 0,-0.6706948 1.914784,-0.813026 1.995607,0 0.07532,0.75763 0.57098,3.5444283 3.749574,6.7624573 3.121062,3.159783 4.053239,9.136865 -0.167891,14.046911 2.245252,-5.698969 2.42496,-9.908183 -3.440658,-13.242068 z" />
    </g>
    <g
       id="g3064">
      <path
         inkscape:connector-curvature="0"
         d="m 7.5014969,-23.5 c 0.00626,0.583332 0.012514,1.251666 0.018752,2 l 80.9609801,0 c 0.0063,-0.748334 0.01256,-1.416668 0.01883,-2 l -80.9999993,0 0.0015,0 z"
         id="path39053"
         style="opacity:0.5;fill:url(#linearGradient3057);fill-opacity:1;display:inline;enable-background:new" />
      <path
         d="m 90.493984,33 c -0.06074,1.170968 -1.335732,2.000418 -2.499686,2.000418 l -79.9899374,0 c -1.163934,0 -2.438312,-0.82945 -2.499686,-2.000418 l -2.499684,-51.999792 c -0.08468,-1.168834 0.835794,-2.000416 1.999748,-2.000416 l 85.9891834,0 c 1.163954,0 2.088616,0.831582 1.999748,2.000416 L 90.493984,33 z"
         id="path3300"
         style="opacity:0.9;color:#000000;fill:url(#linearGradient3052);fill-opacity:1;fill-rule:nonzero;stroke:url(#linearGradient3054);stroke-width:0.99958181;stroke-linecap:butt;stroke-linejoin:miter;stroke-miterlimit:4;stroke-opacity:1;stroke-dasharray:none;stroke-dashoffset:0;marker:none;visibility:visible;display:inline;overflow:visible;enable-background:new"
         sodipodi:nodetypes="cccccccccc"
         inkscape:connector-curvature="0" />
      <rect
         ry="0"
         rx="0"
         y="-20.5"
         x="3.4999948"
         height="2"
         width="89"
         id="rect3521-5"
         style="fill:url(#linearGradient3049);fill-opacity:1;stroke:none;display:inline;enable-background:new" />
    </g>
    <g
       id="g3867"
       transform="matrix(2,0,0,2,0,-48)">
      <path
         style="opacity:0.25;color:#000000;fill:none;stroke:#000000;stroke-width:1;stroke-linecap:round;stroke-linejoin:round;stroke-miterlimit:4;stroke-dasharray:none;marker:none;visibility:visible;display:inline;overflow:visible;enable-background:accumulate"
         d="m 13,27 c -2.77,0 -5,2.23 -5,5 l 0,11 32,0 0,-11 c 0,-2.77 -2.23,-5 -5,-5 z m 3,7 16,0 c 0.554,0 1,0.446 1,1 l 0,7 -18,0 0,-7 c 0,-0.554 0.446,-1 1,-1 z"
         id="path3861"
         inkscape:connector-curvature="0"
         sodipodi:nodetypes="sccccsssssccss" />
      <path
         sodipodi:nodetypes="sccccsssssccss"
         inkscape:connector-curvature="0"
         id="rect3063"
         d="m 13,27 c -2.77,0 -5,2.23 -5,5 l 0,11 32,0 0,-11 c 0,-2.77 -2.23,-5 -5,-5 z m 3,7 16,0 c 0.554,0 1,0.446 1,1 l 0,7 -18,0 0,-7 c 0,-0.554 0.446,-1 1,-1 z"
         style="opacity:0.5;color:#000000;fill:url(#linearGradient3856);fill-opacity:1;fill-rule:evenodd;stroke:none;stroke-width:0.5;marker:none;visibility:visible;display:inline;overflow:visible;enable-background:accumulate" />
      <path
         id="path4266"
         d="m 13,27 c -1.127456,0 -2.165424,0.375078 -3,1 l 3,0 22,0 3,0 c -0.834576,-0.624922 -1.872544,-1 -3,-1 l -22,0 z"
         style="color:#000000;fill:url(#radialGradient3485);fill-opacity:1;fill-rule:evenodd;stroke:none;stroke-width:1px;marker:none;visibility:visible;display:inline;overflow:visible;enable-background:accumulate"
         inkscape:connector-curvature="0" />
      <path
         id="path3957"
         d="m 13,27.5 c -2.501649,0 -4.5,1.998351 -4.5,4.5 l 0,2.8125 c 0.055074,-0.03872 0.096544,-0.08755 0.15625,-0.125 7.173456,-4.499466 20.458862,-6.399247 29.65625,-4.25 0.338727,0.07915 0.650738,0.162855 0.96875,0.25 C 38.719562,28.843443 37.037913,27.5 35,27.5 l -22,0 z"
         style="opacity:0.25;color:#000000;fill:url(#linearGradient3479);fill-opacity:1;fill-rule:evenodd;stroke:none;stroke-width:1px;marker:none;visibility:visible;display:inline;overflow:visible;enable-background:accumulate"
         inkscape:connector-curvature="0" />
      <path
         transform="matrix(1.2413793,0,0,1.5755336,-0.1206897,-17.971059)"
         d="m 15,29.5625 c 0,1.001016 -1.622968,1.8125 -3.625,1.8125 -2.0020322,0 -3.625,-0.811484 -3.625,-1.8125 0,-1.001016 1.6229678,-1.8125 3.625,-1.8125 2.002032,0 3.625,0.811484 3.625,1.8125 z"
         sodipodi:ry="1.8125"
         sodipodi:rx="3.625"
         sodipodi:cy="29.5625"
         sodipodi:cx="11.375"
         id="path4072"
         style="opacity:0.75;color:#000000;fill:url(#radialGradient3475);fill-opacity:1;fill-rule:nonzero;stroke:none;stroke-width:1px;marker:none;visibility:visible;display:inline;overflow:visible;enable-background:accumulate"
         sodipodi:type="arc" />
    </g>
  </g>
</svg>
