<?xml version="1.0" encoding="UTF-8" standalone="no"?>
<!-- Created with Inkscape (http://www.inkscape.org/) -->

<svg
   xmlns:dc="http://purl.org/dc/elements/1.1/"
   xmlns:cc="http://creativecommons.org/ns#"
   xmlns:rdf="http://www.w3.org/1999/02/22-rdf-syntax-ns#"
   xmlns:svg="http://www.w3.org/2000/svg"
   xmlns="http://www.w3.org/2000/svg"
   xmlns:xlink="http://www.w3.org/1999/xlink"
   xmlns:sodipodi="http://sodipodi.sourceforge.net/DTD/sodipodi-0.dtd"
   xmlns:inkscape="http://www.inkscape.org/namespaces/inkscape"
   version="1.0"
   width="96"
   height="96"
   viewBox="0 0 96 96"
   id="svg2"
   xml:space="preserve"
   sodipodi:version="0.32"
   inkscape:version="0.48.4 r9939"
   sodipodi:docname="usb-creator-ubuntu.svg"
   inkscape:output_extension="org.inkscape.output.svgz.inkscape"><metadata
     id="metadata389"><rdf:RDF><cc:Work
         rdf:about=""><dc:format>image/svg+xml</dc:format><dc:type
           rdf:resource="http://purl.org/dc/dcmitype/StillImage" /><dc:title /></cc:Work></rdf:RDF></metadata><sodipodi:namedview
     inkscape:window-height="708"
     inkscape:window-width="1005"
     inkscape:pageshadow="2"
     inkscape:pageopacity="0.0"
     guidetolerance="10.0"
     gridtolerance="10.0"
     objecttolerance="10.0"
     borderopacity="1.0"
     bordercolor="#666666"
     pagecolor="#ffffff"
     id="base"
     inkscape:zoom="4"
     inkscape:cx="48"
     inkscape:cy="48"
     inkscape:window-x="44"
     inkscape:window-y="36"
     inkscape:current-layer="svg2"
     showgrid="false"
     inkscape:window-maximized="0"
     fit-margin-top="0"
     fit-margin-left="0"
     fit-margin-right="0"
     fit-margin-bottom="0" /><defs
     id="defs733"><linearGradient
       gradientUnits="userSpaceOnUse"
       id="XMLID_40_"
       y2="101.833"
       x2="64.000504"
       y1="116.5"
       x1="64.000504"><stop
         id="stop19"
         offset="0"
         style="stop-color:#888888;stop-opacity:1" /><stop
         id="stop21"
         offset="0.27919999"
         style="stop-color:#656565;stop-opacity:1" /><stop
         id="stop23"
         offset="0.565"
         style="stop-color:#494949;stop-opacity:1" /><stop
         id="stop25"
         offset="0.815"
         style="stop-color:#383838;stop-opacity:1" /><stop
         id="stop27"
         offset="1"
         style="stop-color:#323232;stop-opacity:1" /></linearGradient><linearGradient
       gradientUnits="userSpaceOnUse"
       id="XMLID_41_"
       y2="101.833"
       x2="64.000504"
       y1="116.5"
       x1="64.000504"><stop
         id="stop32"
         offset="0"
         style="stop-color:#323232;stop-opacity:1" /><stop
         id="stop34"
         offset="0.0557"
         style="stop-color:#3e3e3e;stop-opacity:1" /><stop
         id="stop36"
         offset="0.163"
         style="stop-color:#4f4f4f;stop-opacity:1" /><stop
         id="stop38"
         offset="0.24259999"
         style="stop-color:#555555;stop-opacity:1" /><stop
         id="stop40"
         offset="0.4165"
         style="stop-color:#494949;stop-opacity:1" /><stop
         id="stop42"
         offset="0.75150001"
         style="stop-color:#383838;stop-opacity:1" /><stop
         id="stop44"
         offset="1"
         style="stop-color:#323232;stop-opacity:1" /></linearGradient><linearGradient
       gradientUnits="userSpaceOnUse"
       id="XMLID_42_"
       y2="101.0146"
       x2="64.000504"
       y1="115.3184"
       x1="64.000504"><stop
         id="stop49"
         offset="0"
         style="stop-color:#888888;stop-opacity:1" /><stop
         id="stop51"
         offset="0.27919999"
         style="stop-color:#656565;stop-opacity:1" /><stop
         id="stop53"
         offset="0.565"
         style="stop-color:#494949;stop-opacity:1" /><stop
         id="stop55"
         offset="0.815"
         style="stop-color:#383838;stop-opacity:1" /><stop
         id="stop57"
         offset="1"
         style="stop-color:#323232;stop-opacity:1" /></linearGradient><linearGradient
       gradientUnits="userSpaceOnUse"
       id="XMLID_54_"
       y2="109.6777"
       x2="53"
       y1="109.6777"
       x1="23"><stop
         id="stop301"
         offset="0"
         style="stop-color:#404040;stop-opacity:1;" /><stop
         id="stop317"
         offset="0.0769"
         style="stop-color:#000000;stop-opacity:1" /><stop
         id="stop327"
         offset="1"
         style="stop-color:#606060;stop-opacity:1;" /></linearGradient><linearGradient
       gradientUnits="userSpaceOnUse"
       id="XMLID_55_"
       y2="101.9785"
       x2="64.000504"
       y1="104.8545"
       x1="64.000504"><stop
         id="stop332"
         offset="0"
         style="stop-color:#888888;stop-opacity:1" /><stop
         id="stop334"
         offset="0.1671"
         style="stop-color:#a8a8a8;stop-opacity:1" /><stop
         id="stop336"
         offset="0.53189999"
         style="stop-color:#f8f8f8;stop-opacity:1" /><stop
         id="stop338"
         offset="0.56209999"
         style="stop-color:#ffffff;stop-opacity:1" /></linearGradient><radialGradient
       gradientUnits="userSpaceOnUse"
       id="XMLID_56_"
       r="161.99989"
       cy="124"
       cx="63"><stop
         id="stop343"
         offset="0"
         style="stop-color:#888888;stop-opacity:1" /><stop
         id="stop351"
         offset="0.65420002"
         style="stop-color:#b7b7b7;stop-opacity:1" /><stop
         id="stop361"
         offset="0.8107"
         style="stop-color:#555555;stop-opacity:1" /></radialGradient><radialGradient
       gradientUnits="userSpaceOnUse"
       id="XMLID_57_"
       r="162"
       cy="124"
       cx="63"><stop
         id="stop366"
         offset="0"
         style="stop-color:#888888;stop-opacity:1" /><stop
         id="stop368"
         offset="0.14740001"
         style="stop-color:#aaaaaa;stop-opacity:1" /><stop
         id="stop370"
         offset="0.30239999"
         style="stop-color:#c6c6c6;stop-opacity:1" /><stop
         id="stop372"
         offset="0.43810001"
         style="stop-color:#d7d7d7;stop-opacity:1" /><stop
         id="stop374"
         offset="0.53850001"
         style="stop-color:#dddddd;stop-opacity:1" /><stop
         id="stop376"
         offset="0.60960001"
         style="stop-color:#d9d9d9;stop-opacity:1" /><stop
         id="stop378"
         offset="0.68040001"
         style="stop-color:#cdcdcd;stop-opacity:1" /><stop
         id="stop380"
         offset="0.74559999"
         style="stop-color:#bbbbbb;stop-opacity:1" /><stop
         id="stop382"
         offset="0.78420001"
         style="stop-color:#bfbfbf;stop-opacity:1" /><stop
         id="stop384"
         offset="0.82260001"
         style="stop-color:#cbcbcb;stop-opacity:1" /><stop
         id="stop386"
         offset="0.85799998"
         style="stop-color:#dddddd;stop-opacity:1" /></radialGradient><radialGradient
       gradientTransform="matrix(1,0,0,0.977,0,0.046)"
       gradientUnits="userSpaceOnUse"
       id="XMLID_59_"
       r="90.000099"
       cy="100.2246"
       cx="64"><stop
         id="stop400"
         offset="0.32539999"
         style="stop-color:#ffffff;stop-opacity:1" /><stop
         id="stop402"
         offset="0.3714"
         style="stop-color:#f4f4f4;stop-opacity:1" /><stop
         id="stop404"
         offset="0.45199999"
         style="stop-color:#d7d7d7;stop-opacity:1" /><stop
         id="stop406"
         offset="0.55690002"
         style="stop-color:#a8a8a8;stop-opacity:1" /><stop
         id="stop408"
         offset="0.62129998"
         style="stop-color:#888888;stop-opacity:1" /><stop
         id="stop410"
         offset="0.67930001"
         style="stop-color:#a3a3a3;stop-opacity:1" /><stop
         id="stop412"
         offset="0.7396"
         style="stop-color:#bbbbbb;stop-opacity:1" /><stop
         id="stop414"
         offset="0.75199997"
         style="stop-color:#b3b3b3;stop-opacity:1" /><stop
         id="stop416"
         offset="0.79140002"
         style="stop-color:#a0a0a0;stop-opacity:1" /><stop
         id="stop418"
         offset="0.83710003"
         style="stop-color:#929292;stop-opacity:1" /><stop
         id="stop420"
         offset="0.89450002"
         style="stop-color:#8a8a8a;stop-opacity:1" /><stop
         id="stop422"
         offset="1"
         style="stop-color:#888888;stop-opacity:1" /></radialGradient><radialGradient
       gradientUnits="userSpaceOnUse"
       id="XMLID_60_"
       r="31.5"
       cy="75"
       cx="63.5"><stop
         id="stop427"
         offset="0.32539999"
         style="stop-color:#ffffff;stop-opacity:1" /><stop
         id="stop431"
         offset="0.4267"
         style="stop-color:#d7d7d7;stop-opacity:1" /><stop
         id="stop435"
         offset="0.56209999"
         style="stop-color:#888888;stop-opacity:1" /><stop
         id="stop441"
         offset="0.69209999"
         style="stop-color:#e8e8e8;stop-opacity:1" /></radialGradient><radialGradient
       gradientUnits="userSpaceOnUse"
       id="XMLID_61_"
       r="70.117798"
       cy="53"
       cx="58"><stop
         id="stop452"
         offset="0.4497"
         style="stop-color:#ffffff;stop-opacity:1" /><stop
         id="stop458"
         offset="0.57990003"
         style="stop-color:#a0a0a0;stop-opacity:1;" /><stop
         id="stop470"
         offset="0.98820001"
         style="stop-color:#404040;stop-opacity:1;" /></radialGradient><radialGradient
       inkscape:collect="always"
       xlink:href="#linearGradient4207"
       id="radialGradient4213"
       cx="96.313728"
       cy="74.196075"
       fx="96.313728"
       fy="74.196075"
       r="13.176471"
       gradientTransform="matrix(1,0,0,0.34523811,0,48.580763)"
       gradientUnits="userSpaceOnUse" /><linearGradient
       id="linearGradient4207"><stop
         style="stop-color:#000000;stop-opacity:1;"
         offset="0"
         id="stop4209" /><stop
         id="stop4215"
         offset="0.75"
         style="stop-color:#000000;stop-opacity:0.49803922;" /><stop
         style="stop-color:#000000;stop-opacity:0;"
         offset="1"
         id="stop4211" /></linearGradient><linearGradient
       inkscape:collect="always"
       xlink:href="#linearGradient2264-4"
       id="linearGradient3641"
       gradientUnits="userSpaceOnUse"
       gradientTransform="matrix(1.226849,0,0,1.2190992,29.274012,18.362734)"
       x1="25"
       y1="11.923377"
       x2="25"
       y2="37.789169" /><linearGradient
       id="linearGradient2264-4"><stop
         id="stop2266-7"
         style="stop-color:#aeff01;stop-opacity:1;"
         offset="0" /><stop
         id="stop2268-1"
         style="stop-color:#5fc000;stop-opacity:1;"
         offset="1" /></linearGradient><linearGradient
       inkscape:collect="always"
       xlink:href="#linearGradient4425"
       id="linearGradient4431"
       x1="49.997723"
       y1="30.707336"
       x2="68.248352"
       y2="65.006935"
       gradientUnits="userSpaceOnUse" /><linearGradient
       inkscape:collect="always"
       id="linearGradient4425"><stop
         style="stop-color:#ffffff;stop-opacity:1;"
         offset="0"
         id="stop4427" /><stop
         style="stop-color:#ffffff;stop-opacity:0;"
         offset="1"
         id="stop4429" /></linearGradient><radialGradient
       gradientUnits="userSpaceOnUse"
       id="XMLID_64_-1"
       fy="98"
       fx="113.667"
       r="2.5631001"
       cy="97.587898"
       cx="113.0654"><stop
         id="stop505-8"
         offset="0"
         style="stop-color:#eeeeee;stop-opacity:1" /><stop
         id="stop507-7"
         offset="0.16"
         style="stop-color:#cecece;stop-opacity:1" /><stop
         id="stop509-1"
         offset="0.4675"
         style="stop-color:#888888;stop-opacity:1" /><stop
         id="stop511-7"
         offset="1"
         style="stop-color:#555555;stop-opacity:1" /></radialGradient><radialGradient
       inkscape:collect="always"
       xlink:href="#XMLID_64_-1"
       id="radialGradient3346"
       gradientUnits="userSpaceOnUse"
       gradientTransform="matrix(0.75,0,0,0.75,0,1.9999972)"
       cx="113.0654"
       cy="97.587898"
       fx="113.667"
       fy="98"
       r="2.5631001" /><radialGradient
       inkscape:collect="always"
       xlink:href="#XMLID_64_-1"
       id="radialGradient3348"
       gradientUnits="userSpaceOnUse"
       gradientTransform="matrix(0.75,0,0,0.75,0,1.9999972)"
       cx="113.0654"
       cy="97.587898"
       fx="113.667"
       fy="98"
       r="2.5631001" /><radialGradient
       inkscape:collect="always"
       xlink:href="#XMLID_64_-1"
       id="radialGradient3350"
       gradientUnits="userSpaceOnUse"
       gradientTransform="matrix(0.75,0,0,0.75,0,1.9999972)"
       cx="113.0654"
       cy="97.587898"
       fx="113.667"
       fy="98"
       r="2.5631001" /><radialGradient
       inkscape:collect="always"
       xlink:href="#XMLID_64_-1"
       id="radialGradient3352"
       gradientUnits="userSpaceOnUse"
       gradientTransform="matrix(0.75,0,0,0.75,0,1.9999972)"
       cx="113.0654"
       cy="97.587898"
       fx="113.667"
       fy="98"
       r="2.5631001" /><radialGradient
       inkscape:collect="always"
       xlink:href="#XMLID_61_"
       id="radialGradient3393"
       gradientUnits="userSpaceOnUse"
       gradientTransform="matrix(0.75,0,0,0.75,0,1.9999972)"
       cx="58"
       cy="53"
       r="70.117798" /><radialGradient
       inkscape:collect="always"
       xlink:href="#XMLID_60_"
       id="radialGradient3396"
       gradientUnits="userSpaceOnUse"
       gradientTransform="matrix(0.75,0,0,0.75,0,1.9999972)"
       cx="63.5"
       cy="75"
       r="31.5" /><radialGradient
       inkscape:collect="always"
       xlink:href="#XMLID_59_"
       id="radialGradient3399"
       gradientUnits="userSpaceOnUse"
       gradientTransform="matrix(0.75,0,0,0.73275,0,2.0344972)"
       cx="64"
       cy="100.2246"
       r="90.000099" /><radialGradient
       inkscape:collect="always"
       xlink:href="#XMLID_57_"
       id="radialGradient3403"
       gradientUnits="userSpaceOnUse"
       gradientTransform="matrix(0.75,0,0,0.75,0,1.9999972)"
       cx="63"
       cy="124"
       r="162" /><radialGradient
       inkscape:collect="always"
       xlink:href="#XMLID_56_"
       id="radialGradient3406"
       gradientUnits="userSpaceOnUse"
       gradientTransform="matrix(0.75,0,0,0.75,0,1.9999972)"
       cx="63"
       cy="124"
       r="161.99989" /><linearGradient
       inkscape:collect="always"
       xlink:href="#XMLID_55_"
       id="linearGradient3409"
       gradientUnits="userSpaceOnUse"
       gradientTransform="matrix(0.75,0,0,0.75,0,1.9999972)"
       x1="64.000504"
       y1="104.8545"
       x2="64.000504"
       y2="101.9785" /><linearGradient
       inkscape:collect="always"
       xlink:href="#XMLID_54_"
       id="linearGradient3412"
       gradientUnits="userSpaceOnUse"
       gradientTransform="matrix(0.75,0,0,0.75,0,1.9999972)"
       x1="23"
       y1="109.6777"
       x2="53"
       y2="109.6777" /><linearGradient
       inkscape:collect="always"
       xlink:href="#XMLID_42_"
       id="linearGradient3415"
       gradientUnits="userSpaceOnUse"
       gradientTransform="matrix(0.75,0,0,0.75,0,1.9999972)"
       x1="64.000504"
       y1="115.3184"
       x2="64.000504"
       y2="101.0146" /><linearGradient
       inkscape:collect="always"
       xlink:href="#XMLID_41_"
       id="linearGradient3418"
       gradientUnits="userSpaceOnUse"
       gradientTransform="matrix(0.75,0,0,0.75,0,1.9999972)"
       x1="64.000504"
       y1="116.5"
       x2="64.000504"
       y2="101.833" /><linearGradient
       inkscape:collect="always"
       xlink:href="#XMLID_40_"
       id="linearGradient3421"
       gradientUnits="userSpaceOnUse"
       gradientTransform="matrix(0.75,0,0,0.75,0,1.9999972)"
       x1="64.000504"
       y1="116.5"
       x2="64.000504"
       y2="101.833" /><linearGradient
       inkscape:collect="always"
       xlink:href="#XMLID_76_"
       id="linearGradient4201"
       gradientUnits="userSpaceOnUse"
       gradientTransform="matrix(0,1,-1,0,30.335,-71.999)"
       x1="186.91499"
       y1="-76.331497"
       x2="181.66499"
       y2="-76.331497" /><linearGradient
       inkscape:collect="always"
       xlink:href="#XMLID_77_"
       id="linearGradient4203"
       gradientUnits="userSpaceOnUse"
       gradientTransform="matrix(0,-1,1,0,182.9971,295.082)"
       x1="180.916"
       y1="-76.333"
       x2="186.166"
       y2="-76.333" /><radialGradient
       inkscape:collect="always"
       xlink:href="#XMLID_78_"
       id="radialGradient4205"
       gradientUnits="userSpaceOnUse"
       cx="106.666"
       cy="111.541"
       fx="106.7286"
       fy="110.6661"
       r="1.875" /><linearGradient
       x1="186.91499"
       y1="-76.331497"
       x2="181.66499"
       y2="-76.331497"
       id="XMLID_76_"
       gradientUnits="userSpaceOnUse"
       gradientTransform="matrix(0,1,-1,0,30.335,-71.999)"><stop
         style="stop-color:#bbbbbb;stop-opacity:1"
         offset="0"
         id="stop669" /><stop
         style="stop-color:#323232;stop-opacity:1"
         offset="1"
         id="stop679" /></linearGradient><linearGradient
       x1="180.916"
       y1="-76.333"
       x2="186.166"
       y2="-76.333"
       id="XMLID_77_"
       gradientUnits="userSpaceOnUse"
       gradientTransform="matrix(0,-1,1,0,182.9971,295.082)"><stop
         style="stop-color:#888888;stop-opacity:1"
         offset="0"
         id="stop684" /><stop
         style="stop-color:#202020;stop-opacity:1;"
         offset="1"
         id="stop692" /></linearGradient><radialGradient
       cx="106.666"
       cy="111.541"
       r="1.875"
       fx="106.7286"
       fy="110.6661"
       id="XMLID_78_"
       gradientUnits="userSpaceOnUse"><stop
         style="stop-color:#e6ff41;stop-opacity:1;"
         offset="0"
         id="stop697" /><stop
         id="stop4246"
         offset="0.5"
         style="stop-color:#7bff01;stop-opacity:1;" /><stop
         style="stop-color:#108c00;stop-opacity:1;"
         offset="1"
         id="stop727" /></radialGradient><filter
       color-interpolation-filters="sRGB"
       inkscape:collect="always"
       id="filter4221"
       x="-0.038854167"
       width="1.0777082"
       y="-0.13164707"
       height="1.2632941"><feGaussianBlur
         inkscape:collect="always"
         stdDeviation="0.82668442"
         id="feGaussianBlur4223" /></filter><linearGradient
       inkscape:collect="always"
       xlink:href="#linearGradient3955"
       id="linearGradient3550"
       gradientUnits="userSpaceOnUse"
       gradientTransform="matrix(1.3536583,0,0,1.3536584,-177.878,-7.9024382)"
       x1="155.51134"
       y1="9.2266951"
       x2="162.84634"
       y2="53.846336" /><linearGradient
       id="linearGradient3955"><stop
         id="stop3957"
         style="stop-color:#ff9681;stop-opacity:1;"
         offset="0" /><stop
         offset="0.5"
         style="stop-color:#e13e1f;stop-opacity:1;"
         id="stop3854" /><stop
         id="stop3856"
         style="stop-color:#a22c16;stop-opacity:1;"
         offset="0.75" /><stop
         id="stop3959"
         style="stop-color:#711f0f;stop-opacity:1;"
         offset="1" /></linearGradient><linearGradient
       inkscape:collect="always"
       xlink:href="#linearGradient4873"
       id="linearGradient3552"
       gradientUnits="userSpaceOnUse"
       gradientTransform="matrix(2.1735854,0,0,2.336873,-312.78028,-29.237456)"
       x1="160.4631"
       y1="13.399958"
       x2="160.4631"
       y2="16.387304" /><linearGradient
       id="linearGradient4873"><stop
         id="stop4875"
         style="stop-color:#ffffff;stop-opacity:1"
         offset="0" /><stop
         id="stop4877"
         style="stop-color:#ffffff;stop-opacity:0"
         offset="1" /></linearGradient></defs><g
     id="g4282"><g
       id="g3315"><path
         sodipodi:nodetypes="sccsccssssssccsccss"
         inkscape:connector-curvature="0"
         d="m 12.4,8.7426443 c -1.479,0 -2.6782503,0.9232612 -2.7900003,2.1472037 L 3.25975,79.763926 c -0.0015,0.02122 -0.003,0.0439 -0.003,0.06511 0,0.02048 7.5e-4,0.04097 0.00225,0.06145 0,0 0.00975,0.113396 0.01875,0.220207 -0.003,0.02634 -0.02775,0.04316 -0.02775,0.07096 l 0,9.916973 c 0,1.531209 1.82225,3.27637 3.4475,3.27637 l 82.605,0 c 1.62525,0 3.447503,-1.745161 3.447503,-3.27637 l 0,-9.916973 c 0,-0.0278 -0.02475,-0.04463 -0.02775,-0.0717 0.009,-0.111201 0.018,-0.226792 0.018,-0.226792 0.0015,-0.01902 0.0023,-0.03877 0.0023,-0.05779 0,-0.02122 -7.49e-4,-0.04389 -0.003,-0.06511 l -6.34955,-68.871144 c -0.1095,-1.2232115 -1.30875,-2.1464727 -2.79,-2.1464727 z"
         style="opacity:0.1;fill:#000000;fill-opacity:1"
         id="path4165" /><path
         id="path12"
         style="opacity:0.2;fill:#000000;fill-opacity:1"
         d="m 13.4,9.2426444 c -1.479001,0 -2.67825,0.9232616 -2.790001,2.1472036 L 4.2597499,79.763926 c -0.0015,0.02122 -0.003,0.0439 -0.003,0.06511 0,0.02048 7.5e-4,0.04097 0.00225,0.06145 0,0 0.00975,0.113396 0.01875,0.220207 -0.003,0.02634 -0.02775,0.04316 -0.02775,0.07096 l 0,8.416974 c 0,1.531209 1.32225,2.776368 2.9475,2.776368 l 81.6050051,0 c 1.62525,0 2.9475,-1.245159 2.9475,-2.776368 l 0,-8.416974 c 0,-0.0278 -0.02475,-0.04463 -0.02775,-0.0717 0.009,-0.111201 0.018,-0.226792 0.018,-0.226792 0.0015,-0.01902 0.0022,-0.03877 0.0022,-0.05779 0,-0.02122 -7.5e-4,-0.04389 -0.003,-0.06511 l -6.3495,-68.371151 c -0.1095,-1.223211 -1.30875,-2.1464726 -2.79,-2.1464726 z"
         inkscape:connector-curvature="0"
         sodipodi:nodetypes="sccsccssssssccsccss" /><path
         sodipodi:nodetypes="sccsccssssssccsccss"
         inkscape:connector-curvature="0"
         d="m 13.9,9.2426444 c -1.479001,2e-7 -2.67825,0.9232616 -2.790001,2.1472036 L 4.7597499,79.763926 c -0.0015,0.02122 -0.003,0.0439 -0.003,0.06511 0,0.02048 7.5e-4,0.04097 0.00225,0.06145 0,0 0.00975,0.113396 0.01875,0.220207 -0.003,0.02634 -0.02775,0.04316 -0.02775,0.07096 l 0,7.916974 c 0,1.531209 0.82225,2.276368 2.4475,2.276368 l 81.6050051,0 c 1.62525,0 2.4475,-0.745159 2.4475,-2.276368 l 0,-7.916974 c 0,-0.0278 -0.02475,-0.04463 -0.02775,-0.0717 0.009,-0.111201 0.018,-0.226792 0.018,-0.226792 0.0015,-0.01902 0.0022,-0.03877 0.0022,-0.05779 0,-0.02122 -7.5e-4,-0.04389 -0.003,-0.06511 l -6.3495,-68.371151 c -0.1095,-1.223211 -1.30875,-2.1464728 -2.79,-2.1464726 z"
         style="opacity:0.25;fill:#000000;fill-opacity:1"
         id="path4355" /></g><g
       id="g4261"><path
         id="path29"
         style="fill:url(#linearGradient3421)"
         d="m 90.75,88.028747 c 0,0.74325 -0.672,1.34625 -1.5,1.34625 l -82.5,0 c -0.828,0 -1.5,-0.603 -1.5,-1.34625 l 0,-9.654 85.5,0 0,9.654 z"
         inkscape:connector-curvature="0" /><path
         id="path46"
         style="fill:url(#linearGradient3418)"
         d="m 90.75,88.028747 c 0,0.74325 -0.672,1.34625 -1.5,1.34625 l -82.5,0 c -0.828,0 -1.5,-0.603 -1.5,-1.34625 l 0,-9.654 85.5,0 0,9.654 z"
         inkscape:connector-curvature="0" /><path
         id="path59"
         style="fill:url(#linearGradient3415)"
         d="m 89.247,87.189497 c -0.033,0.71775 -0.708,1.299 -1.506,1.299 l -79.482,0 c -0.798,0 -1.47225,-0.58125 -1.50675,-1.299 l -0.44175,-9.42825 83.379,0 -0.4425,9.42825 z"
         inkscape:connector-curvature="0" /><path
         id="path329"
         style="fill:url(#linearGradient3412)"
         d="m 17.25,79.890497 0,8.7345 22.5,0 c 0,0 -20.25,-0.75 -20.25,-3.75 0,-3 0,-4.9845 0,-4.9845 l -2.25,0 z"
         inkscape:connector-curvature="0" /><path
         id="path340"
         style="fill:url(#linearGradient3409)"
         d="m 5.25,78.484247 c 0.5535,0.95175 1.4175,2.157 2.094,2.157 l 81.31275,0 c 0.6765,0 1.54125,-1.20525 2.094,-2.157 l -85.50075,0 z"
         inkscape:connector-curvature="0" /><path
         id="path363"
         style="fill:url(#radialGradient3406)"
         d="m 13.17825,6.1249972 c -0.69975,0 -1.3005,0.37275 -1.34325,0.834 L 5.25375,78.079997 c -0.06,0.64575 0.56475,1.17 1.39575,1.17 l 82.70175,0 c 0.8295,0 1.455,-0.52425 1.39425,-1.17075 L 84.165,6.9589972 c -0.04275,-0.46125 -0.6435,-0.834 -1.34325,-0.834 l -69.6435,0 0,0 z"
         inkscape:connector-curvature="0" /><path
         id="path388"
         style="fill:url(#radialGradient3403)"
         d="m 13.17825,6.8749972 c -0.3435,0 -0.573,0.14475 -0.6105,0.20475 l 0,0 C 12.56775,7.1809972 6,78.148247 6,78.148247 c 0,0.0053 0,0.0105 0,0.018 0,0.027 0.0075,0.07125 0.06,0.12825 0.09,0.099 0.2925,0.2055 0.5895,0.2055 l 82.70175,0 c 0.297,0 0.49875,-0.1065 0.5895,-0.2055 0.06525,-0.072 0.06,-0.12225 0.05775,-0.144 0,-0.0015 -6.5805,-71.1217498 -6.5805,-71.1217498 -0.02325,-0.00825 -0.252,-0.153 -0.59625,-0.153 l -69.6435,0 0,-7.5e-4 z"
         inkscape:connector-curvature="0" /><path
         id="path397"
         style="opacity:0.75;fill:#ffffff;fill-opacity:1"
         d="m 12.56775,7.8297472 c 0.0375,-0.06075 0.26625,-0.20475 0.6105,-0.20475 l 69.6435,0 c 0.34425,0 0.573,0.14475 0.59625,0.153 l 0,-0.74925 c -0.02325,-0.00825 -0.252,-0.153 -0.59625,-0.153 l -69.6435,0 c -0.3435,0 -0.573,0.14475 -0.6105,0.20475 z"
         inkscape:connector-curvature="0"
         sodipodi:nodetypes="cssccsscc" /><path
         id="path424"
         style="fill:url(#radialGradient3399)"
         d="m 80.9205,48.765497 c -0.42225,-5.31075 -3.252,-10.37475 -7.95375,-14.37075 -0.0945,-1.536 -1.29975,-21.18525 -1.29975,-21.18525 -0.09225,-1.5105 -1.497,-2.6505 -3.2685,-2.6505 l -11.11725,0 c -1.78425,0 -3.1635,1.155 -3.2085,2.6865 -0.204,6.9195 -6.4245,10.53225 -15.7035,13.81875 -3.25125,0.77175 -11.72775,4.3995 -13.67325,5.99175 -5.727,4.18275 -9.1425,9.759 -9.61575,15.7095 -0.4305,5.412 1.63875,10.82775 5.82675,15.24975 6.12975,6.4725 16.25775,10.33725 27.093,10.33725 10.83525,0 20.96325,-3.86475 27.09375,-10.33725 3.825,-4.038 5.88225,-8.90625 5.88225,-13.84275 0,-0.46875 -0.0195,-0.93825 -0.0555,-1.407 z M 48,71.668247 c -18.0465,0 -31.86525,-10.84575 -30.8655,-23.418 0.43125,-5.42025 3.597,-11.2065 8.8395,-15.0195 0.98175,-1.014 9.84825,-4.95825 13.029,-5.65125 8.8155,-3.1155 16.87725,-7.15875 17.13,-15.6795 0.012,-0.408 0.519,-0.73125 1.14825,-0.73125 l 11.11575,0 c 0.6435,0 1.1865,0.339 1.212,0.7575 l 1.35,22.014 c 4.6725,3.71025 7.50375,9.24825 7.90575,14.31 1.0005,12.57225 -12.81825,23.418 -30.86475,23.418 z"
         inkscape:connector-curvature="0" /><path
         id="path447"
         style="fill:url(#radialGradient3396)"
         d="m 48,41.752247 c -5.9865,0 -10.57575,3.033 -10.6725,7.056 -7.5e-4,0.0435 -0.0015,0.08625 -0.0015,0.129 0,1.45575 0.6015,2.84025 1.7445,4.0125 1.9335,1.9815 5.27175,3.16425 8.93025,3.16425 3.65775,0 6.996,-1.18275 8.9295,-3.16425 1.17675,-1.20525 1.77975,-2.63775 1.743,-4.14075 C 58.575,44.785997 53.98575,41.752247 48,41.752247 z m 0,12.111 c -5.625,0 -8.49075,-3.006 -8.42325,-5.75025 0.06525,-2.7015 3.83625,-4.86 8.42325,-4.86 4.587,0 8.358,2.15925 8.42325,4.86 0.06675,2.745 -2.79825,5.75025 -8.42325,5.75025 z"
         inkscape:connector-curvature="0" /><path
         style="fill:url(#radialGradient3393)"
         d="m 21.90625,12.4375 c -0.190104,0 -0.378009,0.03849 -0.5625,0.0625 -2.110428,0.274662 -3.809428,2.034875 -3.96875,4.28125 l -0.6875,9.8125 c -0.09375,1.32075 0.345,2.5925 1.21875,3.5 0.782813,0.814687 1.780933,0.96572 2.5625,0.9375 0.156313,-0.0056 0.299746,-0.01421 0.4375,-0.03125 0.275508,-0.03409 0.492,-0.08994 0.65625,-0.125 16.935,-3.60675 27.63025,-11.342 29.03125,-13.8125 0.3975,-0.70125 0.3395,-1.27025 0.21875,-1.625 L 50.625,14.84375 C 50.57119,14.647813 50.501699,14.431672 50.40625,14.1875 50.35917,14.063429 50.31429,13.938307 50.25,13.8125 c -0.01445,-0.02752 -0.01582,-0.06638 -0.03125,-0.09375 -0.05199,-0.09431 -0.122724,-0.190647 -0.1875,-0.28125 -0.08906,-0.124573 -0.194688,-0.233333 -0.3125,-0.34375 -0.109675,-0.102791 -0.235966,-0.197654 -0.375,-0.28125 -0.139854,-0.08409 -0.294841,-0.160859 -0.46875,-0.21875 -0.170162,-0.05664 -0.355605,-0.09988 -0.5625,-0.125 -0.01048,-0.0026 -0.02047,0.0024 -0.03125,0 C 48.149091,12.453913 48.023294,12.4375 47.875,12.4375 l -25.96875,0 z m 0,0.75 25.96875,0 c 1.063192,0 1.126995,0.655389 1.40625,1.625 -0.005,0.0092 0.0053,0.02184 0,0.03125 0.033,0.1125 0.08375,0.223 0.125,0.34375 0.01575,0.04612 -0.0125,0.08837 -0.03125,0.15625 -0.01875,0.06788 -0.045,0.164125 -0.09375,0.25 C 48.126946,17.660534 37.731978,25.146732 21.25,28.65625 20.4325,28.83025 19.582,28.9185 19,28.3125 18.564062,27.859125 18.27075,27.242348 18.1875,26.59375 l 0,-0.125 c -0.01575,-0.17775 -0.01275,-0.34825 0,-0.53125 l 0,-0.21875 0.6875,-9.5625 c 0.11625,-1.64175 1.4735,-2.96875 3.03125,-2.96875 z"
         id="path472"
         inkscape:connector-curvature="0" /><g
         id="g4250"><circle
           transform="matrix(0.75,0,0,0.75,0,1.9999972)"
           sodipodi:ry="2.625"
           sodipodi:rx="2.625"
           sodipodi:cy="112.291"
           sodipodi:cx="106.666"
           id="circle681"
           style="fill:url(#linearGradient4201)"
           r="2.625"
           cy="112.291"
           cx="106.666"
           d="m 109.291,112.291 c 0,1.44975 -1.17525,2.625 -2.625,2.625 -1.44975,0 -2.625,-1.17525 -2.625,-2.625 0,-1.44975 1.17525,-2.625 2.625,-2.625 1.44975,0 2.625,1.17525 2.625,2.625 z" /><circle
           transform="matrix(0.75,0,0,0.75,0,1.9999972)"
           sodipodi:ry="2.625"
           sodipodi:rx="2.625"
           sodipodi:cy="111.541"
           sodipodi:cx="106.664"
           id="circle694"
           style="fill:url(#linearGradient4203)"
           r="2.625"
           cy="111.541"
           cx="106.664"
           d="m 109.289,111.541 c 0,1.44975 -1.17525,2.625 -2.625,2.625 -1.44975,0 -2.625,-1.17525 -2.625,-2.625 0,-1.44975 1.17525,-2.625 2.625,-2.625 1.44975,0 2.625,1.17525 2.625,2.625 z" /><circle
           transform="matrix(0.75,0,0,0.75,0,1.9999972)"
           sodipodi:ry="1.875"
           sodipodi:rx="1.875"
           sodipodi:cy="111.541"
           sodipodi:cx="106.666"
           id="circle729"
           style="fill:url(#radialGradient4205)"
           r="1.875"
           cy="111.541"
           cx="106.666"
           d="m 108.541,111.541 c 0,1.03553 -0.83947,1.875 -1.875,1.875 -1.03553,0 -1.875,-0.83947 -1.875,-1.875 0,-1.03553 0.83947,-1.875 1.875,-1.875 1.03553,0 1.875,0.83947 1.875,1.875 z" /></g><path
         d="m 87.066442,75.184227 a 2.2488613,1.5465853 0 1 1 -4.497722,0 2.2488613,1.5465853 0 1 1 4.497722,0 z"
         sodipodi:ry="1.5465853"
         sodipodi:rx="2.2488613"
         sodipodi:cy="75.184227"
         sodipodi:cx="84.817581"
         id="path4351"
         style="color:#000000;fill:url(#radialGradient3346);fill-opacity:1;fill-rule:nonzero;stroke:none;stroke-width:1;marker:none;visibility:visible;display:inline;overflow:visible;enable-background:accumulate"
         sodipodi:type="arc"
         transform="matrix(0.7781716,0,0,0.58192716,13.462617,-35.107121)" /><path
         transform="matrix(0.7781716,0,0,0.58192716,-49.468011,-35.107121)"
         sodipodi:type="arc"
         style="color:#000000;fill:url(#radialGradient3348);fill-opacity:1;fill-rule:nonzero;stroke:none;stroke-width:1;marker:none;visibility:visible;display:inline;overflow:visible;enable-background:accumulate"
         id="path4328"
         sodipodi:cx="84.817581"
         sodipodi:cy="75.184227"
         sodipodi:rx="2.2488613"
         sodipodi:ry="1.5465853"
         d="m 87.066442,75.184227 a 2.2488613,1.5465853 0 1 1 -4.497722,0 2.2488613,1.5465853 0 1 1 4.497722,0 z" /><path
         d="m 87.066442,75.184227 a 2.2488613,1.5465853 0 1 1 -4.497722,0 2.2488613,1.5465853 0 1 1 4.497722,0 z"
         sodipodi:ry="1.5465853"
         sodipodi:rx="2.2488613"
         sodipodi:cy="75.184227"
         sodipodi:cx="84.817581"
         id="path4324"
         style="color:#000000;fill:url(#radialGradient3350);fill-opacity:1;fill-rule:nonzero;stroke:none;stroke-width:1;marker:none;visibility:visible;display:inline;overflow:visible;enable-background:accumulate"
         sodipodi:type="arc"
         transform="translate(-73.617188,0)" /><path
         sodipodi:type="arc"
         style="color:#000000;fill:url(#radialGradient3352);fill-opacity:1;fill-rule:nonzero;stroke:none;stroke-width:1;marker:none;visibility:visible;display:inline;overflow:visible;enable-background:accumulate"
         id="path4283"
         sodipodi:cx="84.817581"
         sodipodi:cy="75.184227"
         sodipodi:rx="2.2488613"
         sodipodi:ry="1.5465853"
         d="m 87.066442,75.184227 a 2.2488613,1.5465853 0 1 1 -4.497722,0 2.2488613,1.5465853 0 1 1 4.497722,0 z" /></g></g><g
     id="g4626"><path
       transform="translate(-1.7570915,-1.3368794)"
       d="m 64.539007,53.180851 c 0,4.16172 -11.431028,7.535461 -25.531915,7.535461 -14.100888,0 -25.531916,-3.373741 -25.531916,-7.535461 0,-4.16172 11.431028,-7.535461 25.531916,-7.535461 14.100887,0 25.531915,3.373741 25.531915,7.535461 z"
       sodipodi:ry="7.5354609"
       sodipodi:rx="25.531916"
       sodipodi:cy="53.180851"
       sodipodi:cx="39.007092"
       id="path4199"
       style="opacity:0.25;fill:#000000;fill-rule:evenodd;stroke:none;filter:url(#filter4221)"
       sodipodi:type="arc" /><g
       id="g4192"><path
         d="M 36.000006,2.2499994 C 20.688508,2.2499994 8.25,14.688504 8.25,29.999996 8.25,45.311486 20.688508,57.750004 36.000006,57.75 51.311492,57.75 63.750014,45.311486 63.75,29.999996 63.75,14.688504 51.311492,2.2499994 36.000006,2.2499994 z"
         id="path3056"
         style="fill:url(#linearGradient3550);fill-opacity:1;stroke:none;display:inline;enable-background:new"
         inkscape:connector-curvature="0" /><path
         d="m 43.650795,16.74178 c 1.788135,1.032823 4.0733,0.421123 5.10488,-1.367027 1.03281,-1.788089 0.421055,-4.073284 -1.367015,-5.106107 -1.78807,-1.0315858 -4.07324,-0.4186508 -5.10605,1.369437 -1.031575,1.786915 -0.418645,4.07211 1.368185,5.103697 z M 36,40.915722 c -1.64333,0 -3.202155,-0.365587 -4.59931,-1.015958 L 28.803,44.554663 c 2.169345,1.075015 4.612595,1.681896 7.196755,1.681896 1.50335,0 2.957215,-0.208678 4.338685,-0.591191 0.2437,-1.50213 1.135355,-2.884848 2.556665,-3.706523 1.42008,-0.819265 3.061,-0.900067 4.48225,-0.363177 2.764235,-2.718364 4.563175,-6.415373 4.824975,-10.53332 l -5.328065,-0.07839 c -0.489875,5.578935 -5.170545,9.952014 -10.87482,9.952014 z m 0,-21.840068 c 5.70446,0 10.38433,4.373697 10.875435,9.951396 l 5.326895,-0.07839 c -0.2618,-4.117947 -2.06074,-7.814586 -4.824975,-10.53332 -1.42125,0.53689 -3.063345,0.454852 -4.48225,-0.363178 -1.42131,-0.820438 -2.312965,-2.204392 -2.556665,-3.706522 -1.38147,-0.381278 -2.835335,-0.590017 -4.338685,-0.590017 -2.58441,0 -5.02766,0.606943 -7.196755,1.680723 l 2.59769,4.654898 C 32.797845,19.440932 34.35667,19.075345 36,19.075345 z M 25.080705,29.995688 c 0,-3.694477 1.83514,-6.958379 4.64274,-8.934573 l -2.73279,-4.57768 c -3.27091,2.186293 -5.704525,5.527229 -6.71553,9.439896 1.17996,0.962831 1.93528,2.428761 1.93528,4.07211 0,1.64236 -0.75532,3.10829 -1.93528,4.071121 1.009895,3.914088 3.443445,7.254901 6.71553,9.441131 l 2.73279,-4.578853 c -2.8076,-1.975082 -4.64274,-5.238861 -4.64274,-8.933338 z m 18.57133,13.252055 c -1.78807,1.03276 -2.401,3.317955 -1.36825,5.104872 1.031635,1.78815 3.316805,2.401025 5.104875,1.36826 1.78807,-1.031645 2.401,-3.316843 1.36825,-5.104932 -1.03164,-1.786914 -3.31798,-2.39985 -5.104875,-1.3682 z M 16.96104,26.257042 c -2.065625,0 -3.7391,1.673433 -3.7391,3.739078 0,2.064657 1.673475,3.738152 3.7391,3.738152 2.064385,0 3.7378,-1.673495 3.7378,-3.738152 0,-2.065645 -1.673415,-3.739078 -3.7378,-3.739078"
         style="fill:#ffffff;stroke:#000000;stroke-width:0.1875;stroke-miterlimit:4;stroke-opacity:0.50196078;stroke-dasharray:none"
         id="path3952"
         inkscape:connector-curvature="0" /><path
         d="m 63.24999,30.000746 a 27.25,27.226098 0 1 1 -54.49998,0 27.25,27.226098 0 1 1 54.49998,0 z"
         id="path3068"
         style="opacity:0.5;fill:none;stroke:url(#linearGradient3552);stroke-width:0.18750003;stroke-linecap:butt;stroke-linejoin:miter;stroke-miterlimit:4;stroke-opacity:1;stroke-dasharray:none"
         inkscape:connector-curvature="0" /><path
         inkscape:connector-curvature="0"
         style="opacity:0.25;fill:none;stroke:#000000;stroke-width:1.5;stroke-miterlimit:4;stroke-dasharray:none"
         id="path4188"
         d="m 64,29.999994 a 28,27.996258 0 0 1 -56,0 28,27.996258 0 1 1 56,0 z" /><path
         inkscape:connector-curvature="0"
         style="opacity:0.5;fill:none;stroke:#000000;stroke-width:0.75;stroke-linecap:round;stroke-linejoin:round;stroke-miterlimit:4;stroke-opacity:1;stroke-dasharray:none;stroke-dashoffset:0;display:inline;enable-background:new"
         id="path4190"
         d="M 36.000006,2.2499994 C 20.688508,2.2499994 8.25,14.688504 8.25,29.999996 8.25,45.311486 20.688508,57.750004 36.000006,57.75 51.311492,57.75 63.750014,45.311486 63.75,29.999996 63.75,14.688504 51.311492,2.2499994 36.000006,2.2499994 z" /></g></g><g
     id="g4461"><path
       transform="matrix(1.0180668,0.4376979,-0.27279019,1.6335108,-16.542523,-102.39404)"
       d="m 109.4902,74.196075 c 0,2.512355 -5.89931,4.54902 -13.176472,4.54902 -7.277164,0 -13.17647,-2.036665 -13.17647,-4.54902 0,-2.512354 5.899306,-4.549019 13.17647,-4.549019 7.277162,0 13.176472,2.036665 13.176472,4.549019 z"
       sodipodi:ry="4.5490198"
       sodipodi:rx="13.176471"
       sodipodi:cy="74.196075"
       sodipodi:cx="96.313728"
       id="path3448"
       style="opacity:0.25;color:#000000;fill:url(#radialGradient4213);fill-opacity:1;fill-rule:evenodd;stroke:none;stroke-width:1px;marker:none;visibility:visible;display:inline;overflow:visible;enable-background:accumulate"
       sodipodi:type="arc" /><g
       id="g4433"><path
         sodipodi:nodetypes="cccczczcc"
         inkscape:connector-curvature="0"
         style="opacity:0.5;fill:none;stroke:#000000;stroke-width:1;stroke-linecap:round;stroke-linejoin:round;marker:none;visibility:visible;display:inline;overflow:visible"
         id="path4217"
         d="m 83.415094,49.480823 -16.765436,17.036326 -16.69143,-17.036326 9.473706,0 c 0,-7.239726 0.212727,-11.440806 -5.998533,-15.150585 C 47.22214,30.620458 38.946636,33.716232 34.053866,39.8012 37.406607,27.493527 51.881737,24.083076 59.924773,26.896114 c 8.043037,2.813037 14.113165,8.791123 14.113165,22.584709 z" /><path
         d="m 83.415094,49.480823 -16.765436,17.036326 -16.69143,-17.036326 9.473706,0 c 0,-7.239726 0.212727,-11.440806 -5.998533,-15.150585 C 47.22214,30.620458 38.946636,33.716232 34.053866,39.8012 37.406607,27.493527 51.881737,24.083076 59.924773,26.896114 c 8.043037,2.813037 14.113165,8.791123 14.113165,22.584709 z"
         id="path4972"
         style="fill:url(#linearGradient3641);fill-opacity:1;fill-rule:nonzero;stroke:none;stroke-width:1;marker:none;visibility:visible;display:inline;overflow:visible"
         inkscape:connector-curvature="0"
         sodipodi:nodetypes="cccczczcc" /><path
         style="opacity:0.5;fill:url(#linearGradient4431);fill-opacity:1;fill-rule:nonzero;stroke:none;stroke-width:1;marker:none;visibility:visible;display:inline;overflow:visible"
         d="m 52.96875,26 c -7.621446,0.349361 -16.391694,4.581745 -18.90625,13.8125 4.89277,-6.084968 13.163739,-9.17853 19.375,-5.46875 6.21126,3.709779 6,7.885274 6,15.125 l -9.46875,0 16.6875,17.0625 16.75,-17.0625 -9.375,0 c 0,-13.793586 -6.050713,-19.749463 -14.09375,-22.5625 C 57.926741,26.20299 55.509232,25.883546 52.96875,26 z m 0.5,4 c 1.965551,-0.05341 3.807091,0.215633 5.15625,0.6875 3.486174,1.219283 6.144323,2.92771 8.09375,5.6875 1.949427,2.75979 3.3125,6.781839 3.3125,13.09375 a 4.0004,4.0004 0 0 0 3.84375,4 l -7.21875,7.34375 -7.1875,-7.34375 a 4.0004,4.0004 0 0 0 3.96875,-4 c 0,-3.580955 0.144592,-6.735974 -0.84375,-10.03125 C 61.605408,36.142224 59.189959,33.11014 55.5,30.90625 54.848558,30.517165 54.149492,30.278976 53.46875,30 z"
         id="path3644"
         inkscape:connector-curvature="0" /><path
         d="m 83.415094,49.480823 -16.765436,17.036326 -16.69143,-17.036326 9.473706,0 c 0,-7.239726 0.212727,-11.440806 -5.998533,-15.150585 C 47.22214,30.620458 38.946636,33.716232 34.053866,39.8012 37.406607,27.493527 51.881737,24.083076 59.924773,26.896114 c 8.043037,2.813037 14.113165,8.791123 14.113165,22.584709 z"
         id="path4219"
         style="opacity:0.25;fill:none;stroke:#000000;stroke-width:2;stroke-linecap:round;stroke-linejoin:round;stroke-miterlimit:4;stroke-dasharray:none;marker:none;visibility:visible;display:inline;overflow:visible"
         inkscape:connector-curvature="0"
         sodipodi:nodetypes="cccczczcc" /></g></g></svg>