<?xml version="1.0" encoding="UTF-8" standalone="no"?>
<!-- Generator: Adobe Illustrator 12.0.0, SVG Export Plug-In . SVG Version: 6.00 Build 51448)  -->

<svg
   xmlns:dc="http://purl.org/dc/elements/1.1/"
   xmlns:cc="http://creativecommons.org/ns#"
   xmlns:rdf="http://www.w3.org/1999/02/22-rdf-syntax-ns#"
   xmlns:svg="http://www.w3.org/2000/svg"
   xmlns="http://www.w3.org/2000/svg"
   xmlns:xlink="http://www.w3.org/1999/xlink"
   xmlns:sodipodi="http://sodipodi.sourceforge.net/DTD/sodipodi-0.dtd"
   xmlns:inkscape="http://www.inkscape.org/namespaces/inkscape"
   version="1.1"
   id="Livello_1"
   width="96"
   height="96"
   viewBox="0 0 96 96"
   overflow="visible"
   enable-background="new 0 0 128 128"
   xml:space="preserve"
   sodipodi:version="0.32"
   inkscape:version="0.48.3.1 r9886"
   sodipodi:docname="wine-notepad.svg"
   style="overflow:visible"><metadata
   id="metadata42"><rdf:RDF><cc:Work
       rdf:about=""><dc:format>image/svg+xml</dc:format><dc:type
         rdf:resource="http://purl.org/dc/dcmitype/StillImage" /><dc:title /></cc:Work></rdf:RDF></metadata><defs
   id="defs40"><linearGradient
     id="linearGradient4035"><stop
       style="stop-color:#000000;stop-opacity:0;"
       offset="0"
       id="stop4037" /><stop
       id="stop4050"
       offset="0.40677965"
       style="stop-color:#000000;stop-opacity:0;" /><stop
       id="stop4048"
       offset="0.46844774"
       style="stop-color:#000000;stop-opacity:1;" /><stop
       style="stop-color:#000000;stop-opacity:0;"
       offset="0.53672314"
       id="stop4052" /><stop
       style="stop-color:#000000;stop-opacity:0;"
       offset="1"
       id="stop4039" /></linearGradient><linearGradient
     y2="63.125"
     x2="132.0361"
     y1="63.125"
     x1="-22.584999"
     gradientUnits="userSpaceOnUse"
     id="XMLID_128_">
				<stop
   id="stop1822"
   style="stop-color:#2C72C7"
   offset="0.1006" />
				<stop
   id="stop1824"
   style="stop-color:#417FCA"
   offset="0.3475" />
				<stop
   id="stop1826"
   style="stop-color:#598ECE"
   offset="0.679" />
				<stop
   id="stop1828"
   style="stop-color:#6193CF"
   offset="0.8876" />
			</linearGradient><linearGradient
     y2="51.125"
     x2="113.2753"
     y1="51.125"
     x1="-41.345699"
     gradientUnits="userSpaceOnUse"
     id="XMLID_127_">
				<stop
   id="stop1809"
   style="stop-color:#2C72C7"
   offset="0.1006" />
				<stop
   id="stop1811"
   style="stop-color:#417FCA"
   offset="0.3475" />
				<stop
   id="stop1813"
   style="stop-color:#598ECE"
   offset="0.679" />
				<stop
   id="stop1815"
   style="stop-color:#6193CF"
   offset="0.8876" />
			</linearGradient><linearGradient
     y2="39.125"
     x2="94.514099"
     y1="39.125"
     x1="-60.110802"
     gradientUnits="userSpaceOnUse"
     id="XMLID_126_">
				<stop
   id="stop1796"
   style="stop-color:#2C72C7"
   offset="0.1006" />
				<stop
   id="stop1798"
   style="stop-color:#417FCA"
   offset="0.3475" />
				<stop
   id="stop1800"
   style="stop-color:#598ECE"
   offset="0.679" />
				<stop
   id="stop1802"
   style="stop-color:#6193CF"
   offset="0.8876" />
			</linearGradient><linearGradient
     y2="27.125"
     x2="75.752899"
     y1="27.125"
     x1="-78.872101"
     gradientUnits="userSpaceOnUse"
     id="XMLID_125_">
				<stop
   id="stop1783"
   style="stop-color:#2C72C7"
   offset="0.1006" />
				<stop
   id="stop1785"
   style="stop-color:#417FCA"
   offset="0.3475" />
				<stop
   id="stop1787"
   style="stop-color:#598ECE"
   offset="0.679" />
				<stop
   id="stop1789"
   style="stop-color:#6193CF"
   offset="0.8876" />
			</linearGradient><linearGradient
     y2="87.125"
     x2="169.5596"
     y1="87.125"
     x1="14.9346"
     gradientUnits="userSpaceOnUse"
     id="XMLID_124_">
				<stop
   id="stop1770"
   style="stop-color:#2C72C7"
   offset="0.1006" />
				<stop
   id="stop1772"
   style="stop-color:#417FCA"
   offset="0.3475" />
				<stop
   id="stop1774"
   style="stop-color:#598ECE"
   offset="0.679" />
				<stop
   id="stop1776"
   style="stop-color:#6193CF"
   offset="0.8876" />
			</linearGradient><linearGradient
     y2="99.125"
     x2="172.0304"
     y1="99.125"
     x1="17.9321"
     gradientUnits="userSpaceOnUse"
     id="XMLID_123_">
				<stop
   id="stop1751"
   style="stop-color:#2C72C7"
   offset="0.1006" />
				<stop
   id="stop1753"
   style="stop-color:#417FCA"
   offset="0.2695" />
				<stop
   id="stop1755"
   style="stop-color:#598ECE"
   offset="0.4963" />
				<stop
   id="stop1757"
   style="stop-color:#6193CF"
   offset="0.6391" />
				<stop
   id="stop1759"
   style="stop-color:#84ABDA"
   offset="0.7899" />
				<stop
   id="stop1761"
   style="stop-color:#9BBAE1"
   offset="0.9191" />
				<stop
   id="stop1763"
   style="stop-color:#A4C0E4"
   offset="1" />
			</linearGradient><linearGradient
     id="linearGradient1813"
     inkscape:collect="always"><stop
       id="stop1815-4"
       offset="0"
       style="stop-color:#000000;stop-opacity:1;" /><stop
       id="stop1817"
       offset="1"
       style="stop-color:#000000;stop-opacity:0;" /></linearGradient><linearGradient
     id="linearGradient3674"
     inkscape:collect="always"><stop
       id="stop3676"
       offset="0"
       style="stop-color:#729fcf;stop-opacity:1" /><stop
       id="stop3678-4"
       offset="1"
       style="stop-color:#3465a4" /></linearGradient><linearGradient
     id="linearGradient3680"
     inkscape:collect="always"><stop
       id="stop3682"
       offset="0"
       style="stop-color:#204a87;stop-opacity:1" /><stop
       id="stop3684"
       offset="1"
       style="stop-color:#3465a4" /></linearGradient><linearGradient
     inkscape:collect="always"
     id="linearGradient3732"><stop
       style="stop-color:#888a85;stop-opacity:1"
       offset="0"
       id="stop3734" /><stop
       style="stop-color:#555753"
       offset="1"
       id="stop3736" /></linearGradient><linearGradient
     inkscape:collect="always"
     id="linearGradient3738"><stop
       style="stop-color:#2e3436;stop-opacity:1"
       offset="0"
       id="stop3740" /><stop
       style="stop-color:#555753"
       offset="1"
       id="stop3742-7" /></linearGradient><linearGradient
     id="linearGradient3754-8"
     inkscape:collect="always"><stop
       id="stop3756-9"
       offset="0"
       style="stop-color:#2e3436;stop-opacity:1;" /><stop
       id="stop3758-7"
       offset="1"
       style="stop-color:#2e3436;stop-opacity:0;" /></linearGradient><linearGradient
     id="linearGradient8219"><stop
       id="stop8221"
       offset="0"
       style="stop-color:black;stop-opacity:1;" /><stop
       style="stop-color:black;stop-opacity:1;"
       offset="0.75274724"
       id="stop8228" /><stop
       id="stop8223"
       offset="1"
       style="stop-color:black;stop-opacity:0;" /></linearGradient><linearGradient
     id="linearGradient3188"><stop
       id="stop3190"
       offset="0"
       style="stop-color:#5f5f5f;stop-opacity:1;" /><stop
       id="stop3192"
       offset="1"
       style="stop-color:#060606;stop-opacity:0;" /></linearGradient><linearGradient
     id="linearGradient3241"><stop
       style="stop-color:black;stop-opacity:1;"
       offset="0"
       id="stop3243" /><stop
       style="stop-color:#f1f2f3;stop-opacity:0;"
       offset="1"
       id="stop3245" /></linearGradient><linearGradient
     id="linearGradient3478"
     inkscape:collect="always"><stop
       id="stop3480"
       offset="0"
       style="stop-color:white;stop-opacity:1;" /><stop
       id="stop3482"
       offset="1"
       style="stop-color:white;stop-opacity:0;" /></linearGradient><linearGradient
     id="linearGradient3212"><stop
       id="stop3214"
       offset="0"
       style="stop-color:#f8f7ed;stop-opacity:1;" /><stop
       id="stop3216"
       offset="1"
       style="stop-color:#ffffe5;stop-opacity:0;" /></linearGradient><linearGradient
     id="linearGradient2894"><stop
       id="stop2896"
       offset="0"
       style="stop-color:#f2f2f2;stop-opacity:1;" /><stop
       style="stop-color:#dbdbdb;stop-opacity:1;"
       offset="0"
       id="stop2902" /><stop
       id="stop2904"
       offset="0.86813188"
       style="stop-color:#cfcfcf;stop-opacity:1;" /><stop
       id="stop2898"
       offset="1"
       style="stop-color:#494949;stop-opacity:1;" /></linearGradient><linearGradient
     id="linearGradient2778"><stop
       id="stop2780"
       offset="0"
       style="stop-color:#830000;stop-opacity:1;" /><stop
       style="stop-color:#ae2626;stop-opacity:1;"
       offset="0.03890675"
       id="stop2786" /><stop
       id="stop2788"
       offset="0.59008574"
       style="stop-color:#3f1b1b;stop-opacity:1;" /><stop
       id="stop2782"
       offset="1"
       style="stop-color:black;stop-opacity:1;" /></linearGradient><linearGradient
     id="linearGradient2845"><stop
       id="stop2847"
       offset="0"
       style="stop-color:#f4ddd4;stop-opacity:1;" /><stop
       style="stop-color:#e26a6a;stop-opacity:1;"
       offset="0.67582417"
       id="stop2859-0" /><stop
       id="stop2849"
       offset="1"
       style="stop-color:#b01616;stop-opacity:1;" /></linearGradient><linearGradient
     id="linearGradient2876"><stop
       id="stop2878"
       offset="0"
       style="stop-color:black;stop-opacity:0;" /><stop
       style="stop-color:black;stop-opacity:0;"
       offset="0.5"
       id="stop2884" /><stop
       id="stop2880"
       offset="1"
       style="stop-color:black;stop-opacity:1;" /></linearGradient><radialGradient
     inkscape:collect="always"
     xlink:href="#linearGradient4035"
     id="radialGradient3228"
     gradientUnits="userSpaceOnUse"
     gradientTransform="matrix(1.5498187,0.95678621,-1.3581012,2.1977345,65.2934,-161.30136)"
     cx="55.37299"
     cy="74.239113"
     fx="49.388954"
     fy="67.642883"
     r="49.337746" /><linearGradient
     inkscape:collect="always"
     xlink:href="#XMLID_127_"
     id="linearGradient3234"
     gradientUnits="userSpaceOnUse"
     gradientTransform="matrix(0.7871046,0,0,0.79013159,-7.6258287,5.6517274)"
     x1="-41.345699"
     y1="51.125"
     x2="113.2753"
     y2="51.125" /><linearGradient
     inkscape:collect="always"
     xlink:href="#XMLID_126_"
     id="linearGradient3237"
     gradientUnits="userSpaceOnUse"
     gradientTransform="matrix(0.7871046,0,0,0.79013159,-7.6258287,5.6517274)"
     x1="-60.110802"
     y1="39.125"
     x2="94.514099"
     y2="39.125" /><linearGradient
     inkscape:collect="always"
     xlink:href="#XMLID_125_"
     id="linearGradient3240"
     gradientUnits="userSpaceOnUse"
     gradientTransform="matrix(0.7871046,0,0,0.79013159,-7.6258287,5.6517274)"
     x1="-78.872101"
     y1="27.125"
     x2="75.752899"
     y2="27.125" /><linearGradient
     inkscape:collect="always"
     xlink:href="#XMLID_124_"
     id="linearGradient3243"
     gradientUnits="userSpaceOnUse"
     gradientTransform="matrix(0.7871046,0,0,0.79013159,-7.6258287,5.6517274)"
     x1="14.9346"
     y1="87.125"
     x2="169.5596"
     y2="87.125" /><linearGradient
     inkscape:collect="always"
     xlink:href="#XMLID_123_"
     id="linearGradient3246"
     gradientUnits="userSpaceOnUse"
     gradientTransform="matrix(0.7871046,0,0,0.79013159,-7.6258287,5.6517274)"
     x1="17.9321"
     y1="99.125"
     x2="172.0304"
     y2="99.125" /><linearGradient
     inkscape:collect="always"
     xlink:href="#XMLID_128_"
     id="linearGradient3270"
     gradientUnits="userSpaceOnUse"
     gradientTransform="matrix(0.7871046,0,0,0.79013159,-7.6258287,5.2313776)"
     x1="-22.584999"
     y1="63.125"
     x2="132.0361"
     y2="63.125" /><linearGradient
     inkscape:collect="always"
     xlink:href="#XMLID_128_"
     id="linearGradient3273"
     gradientUnits="userSpaceOnUse"
     gradientTransform="matrix(0.7871046,0,0,0.79013159,-7.6258287,14.712953)"
     x1="-22.584999"
     y1="63.125"
     x2="132.0361"
     y2="63.125" /><linearGradient
     inkscape:collect="always"
     xlink:href="#linearGradient1813"
     id="linearGradient4158"
     gradientUnits="userSpaceOnUse"
     gradientTransform="matrix(2.4860668,-0.37976954,0.15760739,1.0317376,-3.9411415,65.931239)"
     x1="18.1875"
     y1="18.53828"
     x2="32.9375"
     y2="18.392296" /><linearGradient
     inkscape:collect="always"
     xlink:href="#linearGradient3754-8"
     id="linearGradient4185"
     gradientUnits="userSpaceOnUse"
     gradientTransform="matrix(2.4860668,-0.37976954,0.37976954,2.4860668,-33.017075,3.3887786)"
     x1="43.65625"
     y1="17.6875"
     x2="41.65625"
     y2="16" /><linearGradient
     inkscape:collect="always"
     xlink:href="#linearGradient3732"
     id="linearGradient4195"
     gradientUnits="userSpaceOnUse"
     gradientTransform="matrix(2.4860668,-0.37976954,0.37976954,2.4860668,-9.8675067,29.737982)"
     x1="26.993084"
     y1="11.252465"
     x2="30.432114"
     y2="14.691495" /><linearGradient
     inkscape:collect="always"
     xlink:href="#linearGradient3738"
     id="linearGradient4197"
     gradientUnits="userSpaceOnUse"
     gradientTransform="matrix(2.4860668,-0.37976954,0.37976954,2.4860668,-9.8675067,29.737982)"
     x1="29.03377"
     y1="14.298466"
     x2="25.991804"
     y2="11.2565" /><linearGradient
     inkscape:collect="always"
     xlink:href="#linearGradient3674"
     id="linearGradient4200"
     gradientUnits="userSpaceOnUse"
     gradientTransform="matrix(2.4860668,-0.37976954,0.37976954,2.4860668,-9.8675067,29.737982)"
     x1="26.993084"
     y1="11.252465"
     x2="30.432114"
     y2="14.691495" /><linearGradient
     inkscape:collect="always"
     xlink:href="#linearGradient3680"
     id="linearGradient4202"
     gradientUnits="userSpaceOnUse"
     gradientTransform="matrix(2.4860668,-0.37976954,0.37976954,2.4860668,-9.8675067,29.737982)"
     x1="29.03377"
     y1="14.298466"
     x2="25.991804"
     y2="11.2565" /><linearGradient
     inkscape:collect="always"
     xlink:href="#linearGradient1813"
     id="linearGradient4381"
     gradientUnits="userSpaceOnUse"
     gradientTransform="matrix(2.4860668,-0.37976954,0.15760739,1.0317376,-33.9039,70.292459)"
     x1="18.728411"
     y1="17.383841"
     x2="28.293503"
     y2="13.592371" /><radialGradient
     inkscape:collect="always"
     xlink:href="#linearGradient8219"
     id="radialGradient4383"
     gradientUnits="userSpaceOnUse"
     gradientTransform="matrix(1,0,0,0.284585,0,535.9074)"
     cx="971.91888"
     cy="749.08606"
     fx="971.91888"
     fy="749.08606"
     r="78.939156" /><radialGradient
     inkscape:collect="always"
     xlink:href="#linearGradient3478"
     id="radialGradient4385"
     gradientUnits="userSpaceOnUse"
     gradientTransform="matrix(0.30014462,0,0,0.49149861,-70.130793,-164.80894)"
     cx="303.93808"
     cy="503.24548"
     fx="303.93808"
     fy="503.24548"
     r="4.9068322" /><radialGradient
     inkscape:collect="always"
     xlink:href="#linearGradient8219"
     id="radialGradient4387"
     gradientUnits="userSpaceOnUse"
     gradientTransform="matrix(1,0,0,0.284585,0,535.9074)"
     cx="971.91888"
     cy="749.08606"
     fx="971.91888"
     fy="749.08606"
     r="78.939156" /><linearGradient
     inkscape:collect="always"
     xlink:href="#linearGradient3188"
     id="linearGradient4389"
     gradientUnits="userSpaceOnUse"
     gradientTransform="matrix(-0.24947931,0,0,0.14795423,96.968338,8.1691374)"
     x1="297.19189"
     y1="423.65704"
     x2="311.38846"
     y2="423.34503" /><linearGradient
     inkscape:collect="always"
     xlink:href="#linearGradient3188"
     id="linearGradient4391"
     gradientUnits="userSpaceOnUse"
     gradientTransform="matrix(0.24947931,0,0,0.14795423,-54.691681,8.1691374)"
     x1="297.19189"
     y1="423.65704"
     x2="311.38846"
     y2="423.34503" /><radialGradient
     inkscape:collect="always"
     xlink:href="#linearGradient3241"
     id="radialGradient4393"
     gradientUnits="userSpaceOnUse"
     gradientTransform="matrix(0.23770713,0,-1.7129766e-7,1.8043492,-51.232755,-693.58295)"
     cx="291.84775"
     cy="421.39832"
     fx="297.46582"
     fy="419.27454"
     r="18.359375" /><radialGradient
     inkscape:collect="always"
     xlink:href="#linearGradient3478"
     id="radialGradient4395"
     gradientUnits="userSpaceOnUse"
     gradientTransform="matrix(0.24947931,0,0,0.32696834,-54.691681,-81.08005)"
     cx="303.93808"
     cy="503.24548"
     fx="303.93808"
     fy="503.24548"
     r="4.9068322" /><radialGradient
     inkscape:collect="always"
     xlink:href="#linearGradient3212"
     id="radialGradient4397"
     gradientUnits="userSpaceOnUse"
     gradientTransform="matrix(1,0,0,10.23529,0,-3964.841)"
     cx="304.02283"
     cy="429.31396"
     fx="305.17688"
     fy="426.01294"
     r="7.5012889" /><radialGradient
     inkscape:collect="always"
     xlink:href="#linearGradient2894"
     id="radialGradient4399"
     gradientUnits="userSpaceOnUse"
     gradientTransform="matrix(0.35617441,-1.4934375e-8,6.4856091e-8,0.46936409,-92.547272,-68.901265)"
     cx="318.64285"
     cy="216.96562"
     fx="318.64285"
     fy="216.96562"
     r="42.743496" /><radialGradient
     inkscape:collect="always"
     xlink:href="#linearGradient2778"
     id="radialGradient4401"
     gradientUnits="userSpaceOnUse"
     gradientTransform="matrix(0.35617441,0,0,0.82960622,-92.547222,-191.20818)"
     cx="318.76562"
     cy="281.88782"
     fx="316.95016"
     fy="295.13824"
     r="44.890625" /><radialGradient
     inkscape:collect="always"
     xlink:href="#linearGradient2845"
     id="radialGradient4403"
     gradientUnits="userSpaceOnUse"
     gradientTransform="matrix(1,0,0,0.207551,0,153.6067)"
     cx="432.9162"
     cy="197.82455"
     fx="433.02792"
     fy="181.51285"
     r="37.584362" /><radialGradient
     inkscape:collect="always"
     xlink:href="#linearGradient2876"
     id="radialGradient4405"
     gradientUnits="userSpaceOnUse"
     gradientTransform="matrix(1.840258,0,0,0.349396,-363.7613,122.1964)"
     cx="432.9162"
     cy="215.26523"
     fx="432.9162"
     fy="215.26523"
     r="37.584362" /></defs><sodipodi:namedview
   inkscape:window-height="721"
   inkscape:window-width="1063"
   inkscape:pageshadow="2"
   inkscape:pageopacity="0.0"
   borderopacity="1.0"
   bordercolor="#666666"
   pagecolor="#ffffff"
   id="base"
   showguides="true"
   inkscape:guide-bbox="true"
   inkscape:zoom="4.54"
   inkscape:cx="48"
   inkscape:cy="50.53304"
   inkscape:window-x="6"
   inkscape:window-y="48"
   inkscape:current-layer="Livello_1"
   showgrid="true"
   inkscape:window-maximized="0"
   fit-margin-top="0"
   fit-margin-left="0"
   fit-margin-right="0"
   fit-margin-bottom="0"
   inkscape:object-paths="true"
   inkscape:object-nodes="true"
   inkscape:snap-global="false" />




<radialGradient
   id="XMLID_2_"
   cx="11.026738"
   cy="7.9994998"
   r="156.98399"
   gradientUnits="userSpaceOnUse"
   fx="11.026738"
   fy="7.9994998">
	<stop
   offset="0.0765"
   style="stop-color:#ffce05;stop-opacity:1;"
   id="stop12" />
	<stop
   offset="0.18870001"
   style="stop-color:#f9d940;stop-opacity:1;"
   id="stop14" />
	<stop
   offset="0.3467"
   style="stop-color:#FDE446"
   id="stop16" />
	<stop
   offset="0.4294"
   style="stop-color:#FFEB55"
   id="stop18" />
	<stop
   offset="0.6882"
   style="stop-color:#FFEB55"
   id="stop20" />
	<stop
   offset="0.7281"
   style="stop-color:#FEE951"
   id="stop22" />
	<stop
   offset="0.7641"
   style="stop-color:#FDE446"
   id="stop24" />
	<stop
   offset="0.7987"
   style="stop-color:#FADB34"
   id="stop26" />
	<stop
   offset="0.8322"
   style="stop-color:#F7CF1A"
   id="stop28" />
	<stop
   offset="0.8588"
   style="stop-color:#F3C300"
   id="stop30" />
	<stop
   offset="0.9208"
   style="stop-color:#FBD400"
   id="stop32" />
	<stop
   offset="0.9706"
   style="stop-color:#FFDD00"
   id="stop34" />
</radialGradient>


<g
   id="g4115"><path
     inkscape:connector-curvature="0"
     style="opacity:0.3;fill:#131313;fill-opacity:1"
     d="M 23.729971,92.340405 C 26.397455,91.999177 65.365688,87.014279 66.520353,86.86657 L 87.267772,83.89968 84.619073,62.665289 C 84.477954,61.548301 77.510156,6.3993663 77.165893,3.6745823 74.462455,4.0204122 16.259707,11.465839 13.555577,11.811757 c 0.34593,2.737974 9.828464,77.79068 10.174394,80.528648 z"
     id="path5645"
     sodipodi:nodetypes="ccccccc" /><path
     inkscape:connector-curvature="0"
     id="path3185"
     d="m 77.025489,0.75002899 c -0.411599,0.0312313 -0.492952,0.0698882 -0.21875,0.03125 -2.698669,0.34521981 -60.91611,7.77847311 -63.625,8.12500001 -1.998237,0.2572244 -3.3894013,2.119417 -3.15625,4.09375 a 1.4099347,1.4099347 0 0 0 0,0.03125 c 0.34519,2.732125 9.715831,77.037418 10.0625,79.78125 0.124915,0.997635 0.656078,1.854883 1.40625,2.4375 0.777976,0.604186 1.778448,0.841134 2.71875,0.71875 2.660416,-0.340323 41.369998,-5.300232 42.6875,-5.46875 a 1.4099347,1.4099347 0 0 0 0.09375,0 1.4099347,1.4099347 0 0 0 0.0625,0 l 20.8125,-3.03125 c 1.94269,-0.291291 3.333281,-2.102831 3.09375,-4.0625 a 1.4099347,1.4099347 0 0 0 0,-0.03125 l -2.59375,-20.46875 C 88.226147,61.773649 81.243973,6.6561397 80.900489,3.937529 80.660097,2.0264479 78.962565,0.64571414 77.056739,0.75002899 a 1.4099347,1.4099347 0 0 0 -0.03125,0 z"
     style="opacity:0.1;fill:#000000;fill-opacity:1;stroke:none" /><path
     inkscape:connector-curvature="0"
     style="opacity:0.15;fill:#000000;fill-opacity:1;stroke:none"
     d="m 77.131119,2.15808 c -0.04784,0.00363 -0.09555,0.00879 -0.143055,0.015484 -2.703437,0.3458297 -60.910308,7.8079046 -63.614434,8.153822 -1.222801,0.157406 -2.091332,1.274858 -1.946185,2.503964 0.345929,2.737977 9.732794,77.045328 10.078724,79.78331 0.07447,0.594756 0.381707,1.135148 0.853837,1.501825 0.47213,0.366662 1.070312,0.529447 1.662427,0.452381 2.667493,-0.341228 41.619789,-5.314575 42.774442,-5.462278 0.01573,0.0011 0.03148,0.002 0.04723,0.0027 l 20.813436,-3.049939 c 1.204919,-0.180668 2.047349,-1.292698 1.89896,-2.506711 L 86.95053,63.108998 C 86.809393,61.991844 79.82498,6.8511846 79.480716,4.1263972 79.333096,2.9528381 78.307524,2.0936898 77.131119,2.15808 l 0,0 z"
     id="path4023"
     sodipodi:nodetypes="csscssssccccscc" /><path
     inkscape:connector-curvature="0"
     style="opacity:0.25;fill:#000000;fill-opacity:1;stroke:none"
     d="m 77.324519,2.9068211 c -0.08712,-0.00477 -0.174492,-0.00188 -0.261119,0.00863 -2.703438,0.3458299 -60.886694,7.8092759 -63.590821,8.1551929 -0.39625,0.04815 -0.75705,0.253127 -1.002303,0.569428 -0.245252,0.3163 -0.354663,0.717751 -0.303944,1.115232 0.345929,2.737977 9.732795,77.045332 10.078725,79.783307 0.111251,0.819837 0.861336,1.394995 1.678428,1.286997 2.667491,-0.341228 41.619785,-5.314568 42.774441,-5.462278 0.01572,0.0012 0.03147,0.0021 0.04723,0.0027 l 20.813441,-3.049946 c 0.807592,-0.123765 1.367752,-0.874518 1.259018,-1.6874 L 86.210265,63.208757 C 86.069131,62.091659 79.084714,6.9509421 78.74045,4.2261558 78.652125,3.4983891 78.053903,2.9409776 77.324519,2.9068211 l 0,0 z"
     id="path4021"
     sodipodi:nodetypes="cscssccsccccccc" /><path
     inkscape:connector-curvature="0"
     style="opacity:0.25;fill:#000000;fill-opacity:1;stroke:none"
     d="m 77.209574,3.6614481 c -0.01645,0.00641 -0.03265,0.013406 -0.04861,0.020968 -2.703436,0.3458299 -60.908925,7.7841939 -63.613053,8.1301119 -0.40827,0.05608 -0.694872,0.432818 -0.641317,0.843015 0.345929,2.737976 9.732794,77.045341 10.078725,79.783308 0.05562,0.409922 0.430667,0.697501 0.839214,0.643502 2.667488,-0.341235 41.643392,-5.313203 42.798054,-5.460913 l 20.813435,-3.049939 c 0.40827,-0.05608 0.694879,-0.432814 0.641321,-0.843017 L 85.446391,63.307145 C 85.305253,62.190101 78.344448,7.0506997 78.000184,4.3259144 77.954877,3.9283496 77.607342,3.6362642 77.209574,3.6614481 l 0,0 z"
     id="path4016"
     sodipodi:nodetypes="cccscsccccccc" /><path
     inkscape:connector-curvature="0"
     sodipodi:nodetypes="ccccccc"
     id="path3852"
     d="M 23.729971,92.340405 C 26.397455,91.999177 65.365688,87.014279 66.520353,86.86657 L 85.655687,82.535132 84.619073,62.665289 C 84.477954,61.548301 77.510156,6.3993663 77.165893,3.6745823 74.462455,4.0204122 16.259707,11.465839 13.555577,11.811757 c 0.34593,2.737974 9.828464,77.79068 10.174394,80.528648 z"
     style="fill:#ffffff" /><path
     inkscape:connector-curvature="0"
     id="path4033"
     d="m 46.109859,48.592524 c 0.170948,1.353019 4.756739,38.192679 4.927599,39.545009 1.328903,-0.169997 14.535063,-1.855154 15.102716,-1.927765 L 85.094582,82.119461 83.892051,62.471886 c -0.06965,-0.551206 -2.087981,-17.069879 -2.25849,-18.419428 -1.338583,0.171234 -34.18581,4.368919 -35.523702,4.540066 z"
     style="opacity:0.1;fill:url(#radialGradient3228);fill-opacity:1"
     sodipodi:nodetypes="ccccccc" /><g
     style="stroke:#3465a4;stroke-width:0.5;stroke-miterlimit:4;stroke-dasharray:none"
     id="g3278"><rect
       transform="matrix(0.99191689,-0.12688924,0.12534947,0.99211265,0,0)"
       id="rect3858"
       height="0.54301912"
       width="55.552677"
       y="83.763283"
       x="17.56547"
       style="opacity:0.50000000000000000;fill:url(#linearGradient3246);stroke:#3465a4;stroke-width:0.5000003;stroke-miterlimit:4;stroke-dasharray:none" /><rect
       transform="matrix(0.99191689,-0.12688924,0.12534947,0.99211265,0,0)"
       id="rect3860"
       height="0.41955966"
       width="55.516022"
       y="74.281731"
       x="17.56547"
       style="opacity:0.50000000000000000;fill:url(#linearGradient3243);stroke:#3465a4;stroke-width:0.5000003;stroke-miterlimit:4;stroke-dasharray:none" /><rect
       transform="matrix(0.99191689,-0.12688924,0.12534947,0.99211265,0,0)"
       id="rect3862"
       height="0.42034975"
       width="55.516022"
       y="26.873863"
       x="17.56547"
       style="opacity:0.50000000000000000;fill:url(#linearGradient3240);stroke:#3465a4;stroke-width:0.5000003;stroke-miterlimit:4;stroke-dasharray:none" /><rect
       transform="matrix(0.99191689,-0.12688924,0.12534947,0.99211265,0,0)"
       id="rect3864"
       height="0.42034975"
       width="55.516022"
       y="36.355438"
       x="17.56547"
       style="opacity:0.50000000000000000;fill:url(#linearGradient3237);stroke:#3465a4;stroke-width:0.5000003;stroke-miterlimit:4;stroke-dasharray:none" /><rect
       transform="matrix(0.99191689,-0.12688924,0.12534947,0.99211265,0,0)"
       id="rect3866"
       height="0.42034975"
       width="55.516022"
       y="45.837009"
       x="17.56547"
       style="opacity:0.50000000000000000;fill:url(#linearGradient3234);stroke:#3465a4;stroke-width:0.5000003;stroke-miterlimit:4;stroke-dasharray:none" /><rect
       transform="matrix(0.99191689,-0.12688924,0.12534947,0.99211265,0,0)"
       id="rect3868"
       height="0.42034975"
       width="55.516022"
       y="54.898235"
       x="17.56547"
       style="opacity:0.50000000000000000;fill:url(#linearGradient3270);stroke:#3465a4;stroke-width:0.5000003;stroke-miterlimit:4;stroke-dasharray:none" /><rect
       style="opacity:0.50000000000000000;fill:url(#linearGradient3273);stroke:#3465a4;stroke-width:0.5000003;stroke-miterlimit:4;stroke-dasharray:none"
       x="17.56547"
       y="64.379807"
       width="55.516022"
       height="0.42034975"
       id="rect3260"
       transform="matrix(0.99191689,-0.12688924,0.12534947,0.99211265,0,0)" /></g></g><path
   inkscape:connector-curvature="0"
   sodipodi:nodetypes="cccccccccc"
   style="opacity:0.5;fill:url(#linearGradient4158);fill-opacity:1;fill-rule:evenodd;stroke:none;display:inline"
   d="m 82.551057,57.041001 -35.592325,16.816503 -0.286133,0.208668 -0.203519,0.229044 -5.753133,8.137558 18.169981,-4.920251 0.689356,-0.1713 0.436587,-0.264648 23.997051,-10.492028 -1.457868,-9.543565 z"
   id="path2334" /><g
   id="g4204"><path
     style="fill:url(#linearGradient4200);fill-opacity:1;fill-rule:evenodd;stroke:url(#linearGradient4202);stroke-width:3.3532083;stroke-linecap:butt;stroke-linejoin:miter;stroke-miterlimit:4;stroke-opacity:1;stroke-dasharray:none"
     d="M 45.446648,67.081678 81.2537,18.36246 c 5.544025,0.06887 8.326667,3.134944 10.030428,7.37204 l -35.807053,48.719218 -8.544757,0.271758 -1.48567,-7.643798 z"
     id="path2273"
     sodipodi:nodetypes="cccccc"
     inkscape:connector-curvature="0" /><path
     sodipodi:nodetypes="ccccc"
     id="path3716"
     d="m 85.001157,34.333951 6.318881,-8.597507 C 89.616278,21.499348 86.833635,18.433272 81.28961,18.364403 l -6.318882,8.597508 c 5.544012,0.06887 8.326654,3.134946 10.030429,7.37204 z"
     style="fill:url(#linearGradient4195);fill-opacity:1;fill-rule:evenodd;stroke:url(#linearGradient4197);stroke-width:3.3532083;stroke-linecap:butt;stroke-linejoin:round;stroke-miterlimit:4;stroke-opacity:1;stroke-dasharray:none"
     inkscape:connector-curvature="0" /><path
     style="fill:#fef7bd;fill-opacity:1;fill-rule:evenodd;stroke:none"
     d="m 44.202654,78.151623 2.449982,-10.572034 c 0,0 2.948863,0.148085 4.961107,1.620855 2.012243,1.47277 3.087872,4.270228 3.087872,4.270228 l -10.498961,4.680951 z"
     id="path2298"
     sodipodi:nodetypes="cczcc"
     inkscape:connector-curvature="0" /><path
     style="fill:none;stroke:#c17d11;stroke-width:3.3532083;stroke-linecap:round;stroke-linejoin:miter;stroke-miterlimit:4;stroke-opacity:1;stroke-dasharray:none"
     d="M 55.477075,74.453719 42.373362,80.271551 45.446648,67.081678"
     id="path3686"
     sodipodi:nodetypes="ccc"
     inkscape:connector-curvature="0" /><path
     sodipodi:nodetypes="cccsc"
     style="fill:#000000;fill-opacity:1;fill-rule:evenodd;stroke:none;display:inline"
     d="m 41.959087,76.518715 -1.398517,5.937817 5.577495,-2.521566 c -0.0071,-0.07991 -0.02332,-0.152669 -0.0356,-0.233069 -0.304623,-1.994136 -2.158666,-3.384095 -4.143375,-3.183182 z"
     id="path2283"
     inkscape:connector-curvature="0" /><path
     style="fill:none;stroke:#eeeeec;stroke-width:3.3532083;stroke-linecap:round;stroke-linejoin:miter;stroke-miterlimit:4;stroke-opacity:1;stroke-dasharray:none"
     d="m 76.394753,25.067397 c 5.544023,0.06887 8.326665,3.134944 10.030426,7.37204"
     id="path3712"
     sodipodi:nodetypes="cc"
     inkscape:connector-curvature="0" /><path
     sodipodi:nodetypes="cc"
     id="path3744"
     d="m 74.970728,26.961911 c 5.544012,0.06887 8.326654,3.134946 10.030429,7.37204"
     style="fill:none;stroke:url(#linearGradient4185);stroke-width:3.3532083;stroke-linecap:round;stroke-linejoin:miter;stroke-miterlimit:4;stroke-opacity:1;stroke-dasharray:none"
     inkscape:connector-curvature="0" /></g><g
   id="g4335"
   transform="translate(0,4)"><path
     inkscape:connector-curvature="0"
     sodipodi:nodetypes="ccccc"
     style="opacity:0.5;fill:url(#linearGradient4381);fill-opacity:1;fill-rule:evenodd;stroke:none;display:inline"
     d="m 39.511027,72.083572 -23.405747,7.507006 5.863726,1.82419 20.118521,-7.81914 z"
     id="path4223" /><g
     transform="translate(-1.6577252,-6.3018929)"
     id="g3508"><path
       inkscape:export-ydpi="59.674496"
       inkscape:export-xdpi="59.674496"
       inkscape:export-filename="/home/pinheiro/Documents/pics/outros trabalhos/kde hapy birthday/g3855.png"
       transform="matrix(0.22389146,0,0,0.19045229,-196.27281,-54.641754)"
       d="m 1050.858,749.08606 c 0,12.40702 -35.3422,22.4649 -78.93912,22.4649 -43.59689,0 -78.93915,-10.05788 -78.93915,-22.4649 0,-12.40702 35.34226,-22.4649 78.93915,-22.4649 43.59692,0 78.93912,10.05788 78.93912,22.4649 z"
       sodipodi:ry="22.464899"
       sodipodi:rx="78.939156"
       sodipodi:cy="749.08606"
       sodipodi:cx="971.91888"
       id="path3473"
       style="opacity:0.46311472;fill:url(#radialGradient4383);fill-opacity:1;fill-rule:nonzero;stroke:none"
       sodipodi:type="arc" /><path
       inkscape:connector-curvature="0"
       style="fill:url(#radialGradient4385);fill-opacity:1;fill-rule:nonzero;stroke:none"
       d="m 21.085033,78.267532 c -0.575078,0 -1.0925,0.323363 -1.444447,0.827068 0.0059,1.003267 -2.51e-4,1.338909 -0.0094,2.328298 -6e-4,0.05318 -0.0064,0.106201 -0.0094,0.159853 0.352196,0.516573 0.480579,1.508183 1.463205,1.508183 1.161773,0 1.129753,-1.006938 1.481964,-1.542932 0.0012,-0.0018 -0.0012,-0.0051 0,-0.0069 -0.0018,-0.03925 3e-4,-0.07917 0,-0.118151 -0.009,-0.971026 -0.0055,-1.288219 0,-2.272698 -0.352213,-0.535997 -0.885865,-0.882669 -1.481964,-0.882669 z"
       id="path3475"
       sodipodi:nodetypes="ccscsssscc" /><path
       sodipodi:type="arc"
       style="opacity:0.46311472;fill:url(#radialGradient4387);fill-opacity:1;fill-rule:nonzero;stroke:none"
       id="path8217"
       sodipodi:cx="971.91888"
       sodipodi:cy="749.08606"
       sodipodi:rx="78.939156"
       sodipodi:ry="22.464899"
       d="m 1050.858,749.08606 c 0,12.40702 -35.3422,22.4649 -78.93912,22.4649 -43.59689,0 -78.93915,-10.05788 -78.93915,-22.4649 0,-12.40702 35.34226,-22.4649 78.93915,-22.4649 43.59692,0 78.93912,10.05788 78.93912,22.4649 z"
       transform="matrix(0.20596506,0,0,0.11272967,-178.84981,3.0233184)"
       inkscape:export-filename="/home/pinheiro/Documents/pics/outros trabalhos/kde hapy birthday/g3855.png"
       inkscape:export-xdpi="59.674496"
       inkscape:export-ydpi="59.674496" /><path
       style="fill:#d6d8da;fill-opacity:1;fill-rule:nonzero;stroke:none"
       d="m 21.120486,60.604652 0,0.0046 -4.560794,0.684288 c 1.603396,1.395448 3.032316,3.52427 3.017141,5.774839 -0.03061,4.53993 0.407107,10.540545 0.343034,16.09927 -0.01048,0.910082 -0.696379,1.937037 -2.136167,2.482857 -6.018516,0.212767 -10.4781284,0.958012 -10.4781309,1.849427 0,1.056734 6.2565099,1.914158 13.9630449,1.914158 7.706536,0 13.963045,-0.857426 13.963045,-1.914158 0,-0.905447 -4.59612,-1.664454 -10.758795,-1.863298 -1.419405,-0.548613 -2.10236,-1.565229 -2.112778,-2.468986 -0.06407,-5.558725 0.373645,-11.55934 0.343034,-16.09927 -0.01517,-2.250569 1.41374,-4.379391 3.017141,-5.774839 l -4.560794,-0.684288 0,-0.0046 -0.01559,0.0046 -0.02338,-0.0046 z"
       id="path3147"
       inkscape:connector-curvature="0" /><path
       id="path3206"
       d="m 21.157825,60.605041 0,0.0046 4.560794,0.684289 c -1.603393,1.395446 -3.032316,3.524269 -3.01714,5.774838 0.02799,4.150791 -0.337281,9.517974 -0.350831,14.656716 -0.3568,0.766394 -0.76424,0.989444 -1.200619,0.989444 -0.449512,0 -0.867606,-0.243672 -1.231804,-1.077292 -0.01741,-5.112003 -0.370861,-10.441772 -0.343034,-14.568868 0.01517,-2.25057 -1.413739,-4.37939 -3.01714,-5.774838 l 4.560793,-0.684289 0,-0.0046 0.01559,0.0046 0.02338,-0.0046 z"
       style="fill:url(#linearGradient4389);fill-opacity:1;fill-rule:nonzero;stroke:none"
       inkscape:connector-curvature="0" /><path
       style="fill:url(#linearGradient4391);fill-opacity:1;fill-rule:nonzero;stroke:none"
       d="m 21.118844,60.605041 0,0.0046 -4.560793,0.684289 c 1.603393,1.395446 3.032316,3.524269 3.01714,5.774838 -0.02799,4.150791 0.337281,9.517974 0.35083,14.656716 0.356801,0.766394 0.76424,0.989444 1.20062,0.989444 0.449511,0 0.867606,-0.243672 1.231804,-1.077292 0.01741,-5.112003 0.370861,-10.441772 0.343034,-14.568868 -0.01517,-2.25057 1.413739,-4.37939 3.01714,-5.774838 l -4.560794,-0.684289 0,-0.0046 -0.01559,0.0046 -0.02338,-0.0046 z"
       id="path3182"
       inkscape:connector-curvature="0" /><path
       id="path3231"
       d="m 21.118844,60.605041 0,0.0046 -4.560793,0.684289 c 1.603393,1.395446 3.032316,3.524269 3.01714,5.774838 -0.02799,4.150791 0.337281,9.517974 0.35083,14.656716 0.356801,0.766394 0.76424,0.989444 1.20062,0.989444 0.449511,0 0.867606,-0.243672 1.231804,-1.077292 0.01741,-5.112003 0.370861,-10.441772 0.343034,-14.568868 -0.01517,-2.25057 1.413739,-4.37939 3.01714,-5.774838 l -4.560794,-0.684289 0,-0.0046 -0.01559,0.0046 -0.02338,-0.0046 z"
       style="fill:url(#radialGradient4393);fill-opacity:1;fill-rule:nonzero;stroke:none"
       inkscape:connector-curvature="0" /><path
       sodipodi:nodetypes="ccscsssscc"
       id="path3523"
       d="m 21.126641,80.626023 c -0.478003,0 -0.908083,0.215116 -1.20062,0.550205 0.0049,0.667421 -2.09e-4,0.890706 -0.0078,1.548895 -4.99e-4,0.03538 -0.0053,0.07065 -0.0078,0.106342 0.292744,0.343649 0.399456,1.003315 1.216212,1.003315 0.965662,0 0.939047,-0.669863 1.231804,-1.026432 9.98e-4,-0.0012 -9.98e-4,-0.0034 0,-0.0046 -0.0015,-0.02611 2.49e-4,-0.05267 0,-0.0786 -0.0075,-0.645973 -0.0046,-0.856985 0,-1.511907 -0.292759,-0.356571 -0.736329,-0.587194 -1.231804,-0.587194 z"
       style="fill:url(#radialGradient4395);fill-opacity:1;fill-rule:nonzero;stroke:none"
       inkscape:connector-curvature="0" /><path
       sodipodi:type="arc"
       style="fill:url(#radialGradient4397);fill-opacity:1;fill-rule:nonzero;stroke:none"
       id="path3210"
       sodipodi:cx="304.02283"
       sodipodi:cy="429.31396"
       sodipodi:rx="7.5012889"
       sodipodi:ry="76.777901"
       d="m 311.52412,429.31396 c 0,42.40327 -3.35845,76.77791 -7.50129,76.77791 -4.14285,0 -7.50129,-34.37464 -7.50129,-76.77791 0,-42.40326 3.35844,-76.7779 7.50129,-76.7779 4.14284,0 7.50129,34.37464 7.50129,76.7779 z"
       transform="matrix(0.20430933,0,0,0.22271621,-41.07336,-24.756014)"
       inkscape:export-filename="/home/pinheiro/Documents/pics/outros trabalhos/kde hapy birthday/g3855.png"
       inkscape:export-xdpi="59.674496"
       inkscape:export-ydpi="59.674496" /><path
       inkscape:connector-curvature="0"
       style="fill:url(#radialGradient4399);fill-opacity:1;fill-rule:nonzero;stroke:none"
       d="m 20.962329,26.118531 c -7.715603,0 -13.9826473,0.575818 -13.9826448,1.282148 0,0.0021 -1.142e-4,0.0042 0,0.0063 -0.743182,2.144017 -0.9302017,4.038871 -1.2586613,6.046207 L 28.52577,39.750774 36.220778,33.14658 c -0.04771,-2.089755 -0.785381,-3.94599 -1.275804,-5.73333 4.51e-4,-0.0042 0,-0.0083 0,-0.01257 0,-0.706333 -6.26704,-1.282148 -13.982645,-1.282148 z"
       id="path2824"
       sodipodi:nodetypes="cscccccsc"
       inkscape:export-filename="/home/pinheiro/Documents/pics/outros trabalhos/kde hapy birthday/g3855.png"
       inkscape:export-xdpi="59.674496"
       inkscape:export-ydpi="59.674496" /><path
       inkscape:connector-curvature="0"
       style="fill:url(#radialGradient4401);fill-opacity:1;fill-rule:nonzero;stroke:none"
       d="M 5.7457422,33.143732 C 5.2396673,37.0341 5.0000001,40.601689 5.0000001,43.27268 c 0,11.420086 7.1682309,18.921266 15.9944589,18.92127 8.826224,0 15.98332,-7.501184 15.98332,-18.92127 0,-2.670943 -0.238383,-6.238662 -0.75687,-10.128948 -3.988829,0.993637 -9.337188,1.600274 -15.22645,1.600274 -5.893805,0 -11.2589122,-0.605274 -15.2487168,-1.600274 z"
       id="path1881"
       sodipodi:nodetypes="cssscsc"
       inkscape:export-filename="/home/pinheiro/Documents/pics/outros trabalhos/kde hapy birthday/g3855.png"
       inkscape:export-xdpi="59.674496"
       inkscape:export-ydpi="59.674496" /><path
       transform="matrix(0.40426255,0,0,0.24855007,-154.07193,-14.972266)"
       d="m 470.50056,193.83788 c 0,3.45954 -16.82709,6.26406 -37.58436,6.26406 -20.75727,0 -37.58436,-2.80452 -37.58436,-6.26406 0,-3.45955 16.82709,-6.26407 37.58436,-6.26407 20.75727,0 37.58436,2.80452 37.58436,6.26407 z"
       sodipodi:ry="6.2640605"
       sodipodi:rx="37.584362"
       sodipodi:cy="193.83788"
       sodipodi:cx="432.9162"
       id="path2812"
       style="fill:url(#radialGradient4403);fill-opacity:1;fill-rule:nonzero;stroke:none"
       sodipodi:type="arc"
       inkscape:export-filename="/home/pinheiro/Documents/pics/outros trabalhos/kde hapy birthday/g3855.png"
       inkscape:export-xdpi="59.674496"
       inkscape:export-ydpi="59.674496" /><path
       sodipodi:type="arc"
       style="fill:url(#radialGradient4405);fill-opacity:1;fill-rule:nonzero;stroke:none"
       id="path2874"
       sodipodi:cx="432.9162"
       sodipodi:cy="193.83788"
       sodipodi:rx="37.584362"
       sodipodi:ry="6.2640605"
       d="m 470.50056,193.83788 c 0,3.45954 -16.82709,6.26406 -37.58436,6.26406 -20.75727,0 -37.58436,-2.80452 -37.58436,-6.26406 0,-3.45955 16.82709,-6.26407 37.58436,-6.26407 20.75727,0 37.58436,2.80452 37.58436,6.26407 z"
       transform="matrix(0.40426255,0,0,0.24855007,-154.07193,-14.972266)"
       inkscape:export-filename="/home/pinheiro/Documents/pics/outros trabalhos/kde hapy birthday/g3855.png"
       inkscape:export-xdpi="59.674496"
       inkscape:export-ydpi="59.674496" /><path
       transform="matrix(0.37926362,0,0,0.20888138,-93.90797,-12.342945)"
       d="m 339.32299,190.48616 c 0,3.35083 -16.29832,6.06722 -36.40331,6.06722 -20.105,0 -36.40331,-2.71639 -36.40331,-6.06722 0,-3.35083 16.29831,-6.06722 36.40331,-6.06722 20.10499,0 36.40331,2.71639 36.40331,6.06722 z"
       sodipodi:ry="6.0672188"
       sodipodi:rx="36.403313"
       sodipodi:cy="190.48616"
       sodipodi:cx="302.91968"
       id="path3125"
       style="opacity:0.31049182;fill:none;stroke:#000000;stroke-width:1.27006412;stroke-linecap:round;stroke-linejoin:round;stroke-miterlimit:4;stroke-opacity:1;stroke-dasharray:none;stroke-dashoffset:4"
       sodipodi:type="arc"
       inkscape:export-filename="/home/pinheiro/Documents/pics/outros trabalhos/kde hapy birthday/g3855.png"
       inkscape:export-xdpi="59.674496"
       inkscape:export-ydpi="59.674496" /></g></g></svg>