<?xml version="1.0" encoding="UTF-8" standalone="no"?>
<!-- Created with Inkscape (http://www.inkscape.org/) -->

<svg
   xmlns:dc="http://purl.org/dc/elements/1.1/"
   xmlns:cc="http://creativecommons.org/ns#"
   xmlns:rdf="http://www.w3.org/1999/02/22-rdf-syntax-ns#"
   xmlns:svg="http://www.w3.org/2000/svg"
   xmlns="http://www.w3.org/2000/svg"
   xmlns:xlink="http://www.w3.org/1999/xlink"
   xmlns:sodipodi="http://sodipodi.sourceforge.net/DTD/sodipodi-0.dtd"
   xmlns:inkscape="http://www.inkscape.org/namespaces/inkscape"
   width="96"
   height="95.999992"
   id="svg8025"
   sodipodi:version="0.32"
   inkscape:version="0.48.3.1 r9886"
   sodipodi:docname="preferences-desktop-wallpaper.svg"
   inkscape:output_extension="org.inkscape.output.svg.inkscape"
   version="1.1">
  <defs
     id="defs8027">
    <linearGradient
       id="linearGradient4335">
      <stop
         style="stop-color:#999999;stop-opacity:1;"
         offset="0"
         id="stop4337" />
      <stop
         style="stop-color:#bbbbbb;stop-opacity:1;"
         offset="1"
         id="stop4339" />
    </linearGradient>
    <linearGradient
       inkscape:collect="always"
       id="linearGradient4227">
      <stop
         style="stop-color:#000000;stop-opacity:1;"
         offset="0"
         id="stop4229" />
      <stop
         style="stop-color:#000000;stop-opacity:0;"
         offset="1"
         id="stop4232" />
    </linearGradient>
    <linearGradient
       id="linearGradient4476"
       inkscape:collect="always">
      <stop
         id="stop4478"
         offset="0"
         style="stop-color:#f1decd;stop-opacity:1" />
      <stop
         style="stop-color:#f6e8dd;stop-opacity:1"
         offset="0.41505799"
         id="stop4480" />
      <stop
         style="stop-color:#f0dcc9;stop-opacity:1"
         offset="0.625"
         id="stop4482" />
      <stop
         style="stop-color:#dab693;stop-opacity:1"
         offset="0.87263751"
         id="stop4484" />
      <stop
         id="stop4488"
         offset="0.9425199"
         style="stop-color:#bf9d7a;stop-opacity:1" />
      <stop
         id="stop4486"
         offset="1"
         style="stop-color:#8f765e;stop-opacity:1" />
    </linearGradient>
    <linearGradient
       inkscape:collect="always"
       id="linearGradient4317">
      <stop
         style="stop-color:#ffffff;stop-opacity:1;"
         offset="0"
         id="stop4319" />
      <stop
         style="stop-color:#ffffff;stop-opacity:0;"
         offset="1"
         id="stop4321" />
    </linearGradient>
    <linearGradient
       inkscape:collect="always"
       xlink:href="#linearGradient4317"
       id="linearGradient3216"
       gradientUnits="userSpaceOnUse"
       x1="49"
       y1="46"
       x2="49"
       y2="20"
       gradientTransform="translate(7.9999962,-41.877052)" />
    <linearGradient
       inkscape:collect="always"
       xlink:href="#linearGradient4227"
       id="linearGradient3219"
       gradientUnits="userSpaceOnUse"
       x1="64"
       y1="46.893559"
       x2="52"
       y2="45.313728"
       gradientTransform="translate(7.9999962,-41.877052)" />
    <linearGradient
       inkscape:collect="always"
       xlink:href="#linearGradient4476"
       id="linearGradient3222"
       gradientUnits="userSpaceOnUse"
       x1="50"
       y1="46"
       x2="66"
       y2="30"
       gradientTransform="translate(7.9999962,-41.877052)" />
    <linearGradient
       inkscape:collect="always"
       xlink:href="#linearGradient4227"
       id="linearGradient3226"
       gradientUnits="userSpaceOnUse"
       x1="70"
       y1="52"
       x2="56.066643"
       y2="0"
       gradientTransform="translate(7.9999962,-41.877052)" />
    <linearGradient
       inkscape:collect="always"
       xlink:href="#linearGradient4227"
       id="linearGradient3229"
       gradientUnits="userSpaceOnUse"
       x1="69"
       y1="53"
       x2="61.890766"
       y2="-1"
       gradientTransform="translate(7.9999962,-41.877052)" />
    <linearGradient
       inkscape:collect="always"
       xlink:href="#linearGradient4335"
       id="linearGradient3232"
       gradientUnits="userSpaceOnUse"
       x1="72"
       y1="32"
       x2="77"
       y2="16"
       gradientTransform="translate(8.0000016,6.122937)" />
    <linearGradient
       inkscape:collect="always"
       xlink:href="#linearGradient5048-5-7"
       id="linearGradient3081-2"
       gradientUnits="userSpaceOnUse"
       gradientTransform="matrix(2.774389,0,0,1.969706,-1892.179,-872.8854)"
       x1="302.85715"
       y1="366.64789"
       x2="302.85715"
       y2="609.50507" />
    <linearGradient
       id="linearGradient5048-5-7">
      <stop
         style="stop-color:black;stop-opacity:0;"
         offset="0"
         id="stop5050-6-9" />
      <stop
         id="stop5056-8-2"
         offset="0.5"
         style="stop-color:black;stop-opacity:1;" />
      <stop
         style="stop-color:black;stop-opacity:0;"
         offset="1"
         id="stop5052-5-5" />
    </linearGradient>
    <radialGradient
       inkscape:collect="always"
       xlink:href="#linearGradient5060-8-7"
       id="radialGradient3083-6"
       gradientUnits="userSpaceOnUse"
       gradientTransform="matrix(2.774389,0,0,1.969706,-1891.633,-872.8854)"
       cx="605.71429"
       cy="486.64789"
       fx="605.71429"
       fy="486.64789"
       r="117.14286" />
    <linearGradient
       inkscape:collect="always"
       id="linearGradient5060-8-7">
      <stop
         style="stop-color:black;stop-opacity:1;"
         offset="0"
         id="stop5062-4-5" />
      <stop
         style="stop-color:black;stop-opacity:0;"
         offset="1"
         id="stop5064-3-2" />
    </linearGradient>
    <radialGradient
       inkscape:collect="always"
       xlink:href="#linearGradient5060-8-7"
       id="radialGradient3085-2"
       gradientUnits="userSpaceOnUse"
       gradientTransform="matrix(-2.774389,0,0,1.969706,112.7623,-872.8854)"
       cx="605.71429"
       cy="486.64789"
       fx="605.71429"
       fy="486.64789"
       r="117.14286" />
    <linearGradient
       inkscape:collect="always"
       xlink:href="#linearGradient2699-1"
       id="linearGradient3017"
       gradientUnits="userSpaceOnUse"
       gradientTransform="matrix(1.9090906,0,0,1.8749999,-2.2300954,44.871573)"
       x1="-45.955624"
       y1="-11.072424"
       x2="-1.9915352"
       y2="-39.003159" />
    <linearGradient
       id="linearGradient2699-1">
      <stop
         style="stop-color:#60b0ff;stop-opacity:1"
         offset="0"
         id="stop2701-9" />
      <stop
         style="stop-color:#304090;stop-opacity:1;"
         offset="1"
         id="stop2703-2" />
    </linearGradient>
    <radialGradient
       inkscape:collect="always"
       xlink:href="#linearGradient5687-2"
       id="radialGradient3014"
       gradientUnits="userSpaceOnUse"
       gradientTransform="matrix(2.333333,0,0,1.6666665,-7.9999972,-41.333332)"
       cx="24"
       cy="44"
       fx="24"
       fy="44"
       r="18" />
    <linearGradient
       id="linearGradient5687-2">
      <stop
         style="stop-color:#ffffff;stop-opacity:1;"
         offset="0"
         id="stop5689-5" />
      <stop
         style="stop-color:#ffffff;stop-opacity:0;"
         offset="1"
         id="stop5691-3" />
    </linearGradient>
  </defs>
  <sodipodi:namedview
     id="base"
     pagecolor="#ffffff"
     bordercolor="#666666"
     borderopacity="1.0"
     inkscape:pageopacity="0.0"
     inkscape:pageshadow="2"
     inkscape:zoom="4.7812504"
     inkscape:cx="48"
     inkscape:cy="47.999996"
     inkscape:current-layer="layer1"
     showgrid="true"
     inkscape:grid-bbox="true"
     inkscape:document-units="px"
     inkscape:window-width="1018"
     inkscape:window-height="679"
     inkscape:window-x="20"
     inkscape:window-y="25"
     inkscape:object-paths="false"
     inkscape:snap-midpoints="true"
     inkscape:window-maximized="0"
     fit-margin-top="0"
     fit-margin-left="0"
     fit-margin-right="0"
     fit-margin-bottom="0" />
  <metadata
     id="metadata8030">
    <rdf:RDF>
      <cc:Work
         rdf:about="">
        <dc:format>image/svg+xml</dc:format>
        <dc:type
           rdf:resource="http://purl.org/dc/dcmitype/StillImage" />
      </cc:Work>
    </rdf:RDF>
  </metadata>
  <g
     id="layer1"
     inkscape:label="Layer 1"
     inkscape:groupmode="layer"
     transform="translate(5.3561751e-6,47.999989)">
    <g
       id="g3045">
      <g
         style="display:inline"
         transform="matrix(0.04728054,0,0,0.04390026,90.052984,27.615633)"
         id="g13071">
        <rect
           style="opacity:0.40206185;fill:url(#linearGradient3081-2);fill-opacity:1;fill-rule:nonzero;stroke:none;stroke-width:1;marker:none;visibility:visible;display:inline;overflow:visible"
           id="rect13073"
           width="1339.6335"
           height="478.35718"
           x="-1559.2523"
           y="-150.69685" />
        <path
           style="opacity:0.40206185;fill:url(#radialGradient3083-6);fill-opacity:1;fill-rule:nonzero;stroke:none;stroke-width:1;marker:none;visibility:visible;display:inline;overflow:visible"
           d="m -219.61876,-150.68038 c 0,0 0,478.33079 0,478.33079 142.874166,0.90045 345.40022,-107.16966 345.40014,-239.196175 0,-132.026537 -159.436816,-239.134595 -345.40014,-239.134615 z"
           id="path13075"
           sodipodi:nodetypes="cccc"
           inkscape:connector-curvature="0" />
        <path
           sodipodi:nodetypes="cccc"
           id="path13077"
           d="m -1559.2523,-150.68038 c 0,0 0,478.33079 0,478.33079 -142.8742,0.90045 -345.4002,-107.16966 -345.4002,-239.196175 0,-132.026537 159.4368,-239.134595 345.4002,-239.134615 z"
           style="opacity:0.40206185;fill:url(#radialGradient3085-2);fill-opacity:1;fill-rule:nonzero;stroke:none;stroke-width:1;marker:none;visibility:visible;display:inline;overflow:visible"
           inkscape:connector-curvature="0" />
      </g>
      <g
         id="g3036">
        <rect
           style="opacity:0.1;fill:#000000;fill-opacity:1;stroke:none"
           id="rect3047"
           transform="matrix(-0.99999878,0.00156153,-0.0010661,-0.99999943,0,0)"
           y="-35.013905"
           x="-92.968971"
           height="65.877884"
           width="89.942261"
           ry="5.8127556"
           rx="5.8657999" />
        <g
           id="g3025">
          <rect
             style="fill:#203070;fill-opacity:1;stroke:none"
             id="rect3803"
             transform="matrix(-0.9999988,0.00154862,-0.00107499,-0.99999942,0,0)"
             y="-34.015121"
             x="-91.969597"
             height="63.881588"
             width="87.943535"
             ry="5.6366115"
             rx="5.7354484" />
          <rect
             rx="3.9072537"
             ry="3.7505727"
             width="83.943741"
             height="59.882195"
             x="-89.969696"
             y="-32.015381"
             transform="matrix(-0.9999988,0.00154764,-0.00107568,-0.99999942,0,0)"
             id="rect3580"
             style="fill:url(#linearGradient3017);fill-opacity:1;stroke:none" />
          <path
             id="rect3466"
             d="m 6.0000018,-27.999998 83.9999952,0 0,59.999994 -83.9999952,0 z"
             style="opacity:0.25;fill:url(#radialGradient3014);fill-opacity:1;fill-rule:evenodd;stroke:none;display:inline;enable-background:new"
             inkscape:connector-curvature="0" />
          <path
             sodipodi:nodetypes="csssscc"
             inkscape:connector-curvature="0"
             id="rect3909"
             d="M 4.059033,7.1663415 4.000004,-25.867245 c -0.00396,-2.216334 1.821389,-4.003486 4.0890821,-4.007059 L 87.843429,-29.99998 c 2.267693,-0.0036 4.086239,1.777851 4.097535,3.994159 l 0.05904,11.582971 z"
             style="opacity:0.25;fill:#ffffff;fill-opacity:1;stroke:none" />
          <path
             inkscape:connector-curvature="0"
             id="rect3871"
             d="m 86.249999,-29.999997 -76.499992,0.125 c -3.1774337,0.0049 -5.7533548,2.50232 -5.7499988,5.625 l 0.0625,52.624992 c 0.00336,3.122682 2.5725652,5.62992 5.7499989,5.625 l 76.4999919,-0.125 c 3.177433,-0.005 5.690855,-2.502318 5.687499,-5.625 l -0.0625,-52.624992 c -0.0034,-3.12268 -2.510066,-5.62992 -5.687499,-5.625 z m -0.1875,2 c 2.164616,-0.0033 3.872763,1.672184 3.874999,3.75 l 0.0625,52.374992 c 0.0022,2.077816 -1.710383,3.74665 -3.874999,3.75 l -76.124992,0.125 c -2.1646158,0.0034 -3.9352637,-1.672184 -3.9374997,-3.75 l -0.0625,-52.374992 c -0.0022,-2.077816 1.7728838,-3.74665 3.9374996,-3.75 l 76.1249921,-0.125 z"
             style="opacity:0.25;fill:#000000;fill-opacity:1;stroke:none" />
        </g>
      </g>
    </g>
    <g
       id="g3259">
      <path
         transform="translate(-5.3561751e-6,-47.999989)"
         id="path4333"
         d="M 55 20.125 L 89.96875 54.09375 L 89.9375 23.75 C 89.935625 22.007544 88.726886 20.548795 87.0625 20.125 L 55 20.125 z "
         style="fill:url(#linearGradient3232);fill-opacity:1;stroke:none;display:inline;enable-background:new" />
      <path
         inkscape:connector-curvature="0"
         id="path4225"
         d="m 49.281246,-27.877052 c -0.0017,0.0029 -0.06097,0.09079 -0.0625,0.09375 -0.0015,0.003 -0.02987,0.09072 -0.03125,0.09375 -0.0014,0.003 -0.06127,0.09066 -0.0625,0.09375 -0.0012,0.0031 -0.03017,0.05935 -0.03125,0.0625 -0.0011,0.0031 -0.03033,0.09055 -0.03125,0.09375 -9.21e-4,0.0032 7.63e-4,0.09051 0,0.09375 -7.63e-4,0.0032 -0.03065,0.121726 -0.03125,0.125 -6.03e-4,0.0033 4.41e-4,0.09045 0,0.09375 -4.41e-4,0.0033 -0.03097,0.09043 -0.03125,0.09375 -2.79e-4,0.0033 1.16e-4,0.09042 0,0.09375 -1.16e-4,0.0033 -4.8e-5,0.09042 0,0.09375 4.8e-5,0.0033 -2.11e-4,0.09043 0,0.09375 2.11e-4,0.0033 -3.74e-4,0.09044 0,0.09375 3.74e-4,0.0033 0.03072,0.09047 0.03125,0.09375 5.35e-4,0.0033 -6.96e-4,0.0905 0,0.09375 6.96e-4,0.0033 0.03039,0.09053 0.03125,0.09375 8.55e-4,0.0032 0.03024,0.09058 0.03125,0.09375 10e-4,0.0032 0.03008,0.09063 0.03125,0.09375 0.0012,0.0031 0.02993,0.09069 0.03125,0.09375 0.0013,0.0031 0.02978,0.09076 0.03125,0.09375 0.0015,0.003 0.06089,0.09084 0.0625,0.09375 0.0016,0.0029 0.06075,0.05967 0.0625,0.0625 0.0018,0.0028 0.02936,0.09101 0.03125,0.09375 0.0019,0.0027 0.06048,0.0911 0.0625,0.09375 0.002,0.0026 0.06035,0.05996 0.0625,0.0625 0.0021,0.0025 0.06023,0.06007 0.0625,0.0625 0.0023,0.0024 0.06011,0.09143 0.0625,0.09375 0.0024,0.0023 0.09125,0.0603 0.09375,0.0625 0.0025,0.0022 0.0599,0.06042 0.0625,0.0625 0.0026,0.0021 0.0598,0.06056 0.0625,0.0625 0.0027,0.0019 0.09096,0.02944 0.09375,0.03125 0.0028,0.0018 0.09087,0.06083 0.09375,0.0625 0.0029,0.0017 0.05954,0.02972 0.0625,0.03125 0.003,0.0015 0.09072,0.06112 0.09375,0.0625 0.003,0.0014 0.09066,0.03002 0.09375,0.03125 0.0031,0.0012 0.0906,0.03017 0.09375,0.03125 0.0031,0.0011 0.09055,0.03033 0.09375,0.03125 0.0032,9.21e-4 0.09051,0.03049 0.09375,0.03125 0.0032,7.63e-4 0.09048,-6.03e-4 0.09375,0 0.0033,6.03e-4 0.09045,0.03081 0.09375,0.03125 0.0033,4.41e-4 0.09043,-2.79e-4 0.09375,0 0.0033,2.79e-4 0.09042,-1.16e-4 0.09375,0 0.0033,1.16e-4 0.09042,4.8e-5 0.09375,0 1.268872,-0.0068 1.985989,0.137513 2.3125,0.34375 0.364657,0.230331 0.807189,0.712712 1.28125,2.53125 0.9446,3.62356 1.4375,11.676086 1.4375,27.15625 -1.2e-5,0.0034 -1.63e-4,0.09032 0,0.09375 1.63e-4,0.0034 -3.38e-4,0.09034 0,0.09375 3.38e-4,0.0034 -5.11e-4,0.12161 0,0.125 5.11e-4,0.0034 0.03057,0.09039 0.03125,0.09375 6.84e-4,0.0034 0.0304,0.09043 0.03125,0.09375 8.54e-4,0.0033 -0.001,0.09048 0,0.09375 10e-4,0.0033 0.03006,0.09053 0.03125,0.09375 0.0012,0.0032 0.06115,0.0906 0.0625,0.09375 0.0014,0.0032 0.02974,0.09067 0.03125,0.09375 0.0015,0.0031 0.02958,0.09075 0.03125,0.09375 0.0017,0.003 0.06068,0.09084 0.0625,0.09375 0.0018,0.0029 0.06054,0.05969 0.0625,0.0625 0.002,0.0028 0.0604,0.09104 0.0625,0.09375 0.0021,0.0027 0.06026,0.09115 0.0625,0.09375 0.0022,0.0026 0.06013,0.06002 0.0625,0.0625 0.0024,0.0025 0.06001,0.06014 0.0625,0.0625 0.0025,0.0024 0.09114,0.06027 0.09375,0.0625 0.0026,0.0022 0.05978,0.06041 0.0625,0.0625 0.0027,0.0021 0.09093,0.06055 0.09375,0.0625 0.0028,0.0019 0.09083,0.0607 0.09375,0.0625 0.0029,0.0018 0.05949,0.06085 0.0625,0.0625 0.003,0.0017 0.09067,0.02975 0.09375,0.03125 0.0031,0.0015 0.09059,0.06116 0.09375,0.0625 0.0032,0.0013 0.09053,0.03008 0.09375,0.03125 0.0032,0.0012 0.09047,0.03024 0.09375,0.03125 0.0033,0.001 0.09043,0.03041 0.09375,0.03125 0.0033,8.39e-4 0.121637,-6.69e-4 0.125,0 0.0034,6.69e-4 0.09036,0.03075 0.09375,0.03125 0.0034,4.96e-4 0.09034,-3.22e-4 0.09375,0 0.0034,3.22e-4 0.09032,-1.48e-4 0.09375,0 0.0034,1.48e-4 0.09032,0.03128 0.09375,0.03125 0.0034,-2.7e-5 0.121577,-0.03105 0.125,-0.03125 13.969477,-0.997819 21.988226,-1.205088 26.03125,-0.53125 2.023716,0.337286 2.950177,0.877121 3.3125,1.28125 0.376863,0.420347 0.5625,0.993378 0.5625,2.28125 a 0.89051413,0.89051413 0 0 0 0.875,0.875 l 1.09375,0 0,-9.0625 c -0.390939,-0.487482 -0.827391,-0.99553 -1.34375,-1.53125 -2.388537,-2.4781 -6.363729,-5.915058 -13.28125,-12.6875 -6.921768,-6.7766 -10.623639,-10.767013 -13.375,-13.21875 -1.177219,-1.04902 -2.247324,-1.827564 -3.3125,-2.375 l -9.40625,0 z"
         style="opacity:0.1;fill:url(#linearGradient3229);fill-opacity:1;stroke:none;display:inline;enable-background:new" />
      <path
         inkscape:connector-curvature="0"
         id="path4176"
         d="m 50.531246,-27.877052 a 1.0938616,1.0938616 0 0 0 0.46875,2.09375 c 1.31556,-0.0071 2.184321,0.09171 2.78125,0.46875 0.596929,0.377043 1.185031,1.134988 1.6875,3.0625 1.004939,3.855025 1.4375,11.878266 1.4375,27.375 a 1.0919775,1.0919775 0 0 0 1.15625,1.09375 c 13.983415,-0.998815 21.995805,-1.240283 26.25,-0.53125 2.127098,0.354516 3.242156,0.926347 3.8125,1.5625 0.570344,0.636153 0.78125,1.496319 0.78125,2.875 l 1.09375,0 0,-6.65625 c -0.481824,-0.758107 -1.125159,-1.529855 -2,-2.4375 -2.33291,-2.420387 -6.319322,-5.902177 -13.25,-12.6875 -6.933013,-6.787609 -10.655547,-10.792043 -13.34375,-13.1875 -2.016152,-1.796593 -3.604563,-2.70194 -5.34375,-3.03125 l -5.53125,0 z"
         style="opacity:0.15;fill:url(#linearGradient3226);fill-opacity:1;stroke:none;display:inline;enable-background:new" />
      <path
         style="opacity:0.3;fill:#000000;fill-opacity:1;stroke:none;display:inline;enable-background:new"
         d="m 50.999995,-26.877052 c 5.397981,-0.02908 7,0.968952 7,32 28.000001,-2 32.000001,-1 32.000001,5 l 0,-2.625 c 0,-4.362415 -2.107067,-4.77344 -16,-18.375 -13.892933,-13.60156 -15.057493,-16.127841 -19.73048,-16.052626 z"
         id="path4170"
         inkscape:connector-curvature="0"
         sodipodi:nodetypes="cccszsc" />
      <path
         sodipodi:nodetypes="cccszsc"
         inkscape:connector-curvature="0"
         id="path4154"
         d="m 50.999995,-27.877052 c 5.397981,-0.02908 7,0.968952 7,32 28.000001,-2 32.000001,-1 32.000001,5 l 0,-2.625 c 0,-4.362415 -2.107067,-4.77344 -16,-18.375 -13.892933,-13.60156 -15.057493,-16.127841 -19.73048,-16.052626 z"
         style="fill:url(#linearGradient3222);fill-opacity:1;stroke:none;display:inline;enable-background:new" />
      <path
         inkscape:connector-curvature="0"
         id="path4297"
         d="m 54.281246,-27.939552 -3.28125,0.0625 c 4.723233,-0.02544 6.525813,0.73974 6.90625,21.71875 -0.232162,-14.676553 -1.113909,-19.945903 -3.125,-21.75 -0.170423,-0.0053 -0.320104,-0.03415 -0.5,-0.03125 z m 23.5625,30.125 c -4.672852,-0.021973 -11.09375,0.3125 -19.84375,0.9375 4.77e-4,0.368421 0,0.622754 0,1 28.000001,-2 32,-1 32,5 l 0,-1 c 0,-4.125 -1.875976,-5.88916 -12.15625,-5.9375 z"
         style="opacity:0.2;fill:url(#linearGradient3219);fill-opacity:1;stroke:none;display:inline;enable-background:new" />
      <path
         sodipodi:nodetypes="ccccccccc"
         inkscape:connector-curvature="0"
         id="path4306"
         d="m 54.281246,-27.939552 -3.28125,0.0625 c 0.349286,-0.0019 0.681907,-0.01458 1,0 l 2.625,-0.0625 c -0.118789,-0.0018 -0.220368,-0.002 -0.34375,0 z m -2.28125,0.0625 c 4.597824,0.210711 6,2.976872 6,32 0.372078,-0.02658 0.636351,-0.03699 1,-0.0625 -0.0024,-30.961882 -1.60612,-31.966558 -7,-31.9375 z"
         style="fill:url(#linearGradient3216);fill-opacity:1;stroke:none;display:inline;enable-background:new" />
      <g
         transform="translate(7.9999962,-131.87705)"
         id="g4471">
        <path
           inkscape:connector-curvature="0"
           style="font-size:medium;font-style:normal;font-variant:normal;font-weight:normal;font-stretch:normal;text-indent:0;text-align:start;text-decoration:none;line-height:normal;letter-spacing:normal;word-spacing:normal;text-transform:none;direction:ltr;block-progression:tb;writing-mode:lr-tb;text-anchor:start;opacity:0.07999998;color:#000000;fill:#000000;fill-opacity:1;stroke:none;stroke-width:4;marker:none;visibility:visible;display:inline;overflow:visible;enable-background:accumulate;font-family:Abandoned Bitplane;-inkscape-font-specification:Abandoned Bitplane"
           d="M 46.28125,103.9375 43,104 c 2.368579,-0.0128 4.001542,0.16674 5.09375,3 l 4.75,0 c -2.703015,-2.42858 -4.18339,-3.10079 -6.5625,-3.0625 z m 32.71875,28.5 0,3.71875 c 2.37228,0.9394 3,2.51587 3,4.84375 l 0,-2.625 c 0,-2.23992 -0.578789,-3.4606 -3,-5.9375 z"
           id="rect3222-7" />
        <path
           inkscape:connector-curvature="0"
           style="opacity:0.1;color:#000000;fill:#000000;fill-opacity:1;fill-rule:nonzero;stroke:none;stroke-width:1;marker:none;visibility:visible;display:inline;overflow:visible;enable-background:accumulate"
           d="m 43.96875,104 c 1.541267,0.0664 2.731396,0.43118 3.625,1.9375 l 4,0 c -1.589102,-1.26213 -2.80662,-1.79614 -4.25,-1.9375 l -3.375,0 z m 36.09375,29.59375 0,3.09375 C 81.576167,137.64968 82,139.05934 82,141 l 0,-2.625 c 0,-1.86497 -0.411061,-3.02126 -1.9375,-4.78125 z"
           id="rect3981-2" />
        <path
           inkscape:connector-curvature="0"
           style="opacity:0.25;color:#000000;fill:#000000;fill-opacity:1;fill-rule:nonzero;stroke:none;stroke-width:1;marker:none;visibility:visible;display:inline;overflow:visible;enable-background:accumulate"
           d="m 43.96875,104 c 1.127424,0.0486 2.041247,0.27688 2.8125,0.96875 l 3.4375,0 C 49.246922,104.38468 48.342664,104.09783 47.34375,104 l -3.375,0 z m 37.0625,30.8125 0,2.71875 C 81.761373,138.42137 82,139.5659 82,141 l 0,-2.625 c 0,-1.39936 -0.215654,-2.41051 -0.96875,-3.5625 z"
           id="rect3977-0" />
      </g>
    </g>
  </g>
</svg>
