<?xml version="1.0" encoding="UTF-8" standalone="no"?>
<!-- Created with Inkscape (http://www.inkscape.org/) -->

<svg
   xmlns:dc="http://purl.org/dc/elements/1.1/"
   xmlns:cc="http://creativecommons.org/ns#"
   xmlns:rdf="http://www.w3.org/1999/02/22-rdf-syntax-ns#"
   xmlns:svg="http://www.w3.org/2000/svg"
   xmlns="http://www.w3.org/2000/svg"
   xmlns:xlink="http://www.w3.org/1999/xlink"
   xmlns:sodipodi="http://sodipodi.sourceforge.net/DTD/sodipodi-0.dtd"
   xmlns:inkscape="http://www.inkscape.org/namespaces/inkscape"
   width="96"
   height="96"
   id="svg3989"
   version="1.1"
   inkscape:version="0.48.3.1 r9886"
   sodipodi:docname="archive-insert.svg">
  <defs
     id="defs3991">
    <filter
       color-interpolation-filters="sRGB"
       inkscape:collect="always"
       id="filter3533-3"
       x="-0.054145049"
       width="1.1082901"
       y="-0.33451256"
       height="1.6690251">
      <feGaussianBlur
         inkscape:collect="always"
         stdDeviation="2.5436893"
         id="feGaussianBlur3535-2" />
    </filter>
    <filter
       color-interpolation-filters="sRGB"
       inkscape:collect="always"
       id="filter3410-0"
       x="-0.016920328"
       width="1.0338407"
       y="-0.10453518"
       height="1.2090704">
      <feGaussianBlur
         inkscape:collect="always"
         stdDeviation="0.79490291"
         id="feGaussianBlur3412-4" />
    </filter>
    <radialGradient
       inkscape:collect="always"
       xlink:href="#XMLID_15_-4"
       id="radialGradient3201"
       gradientUnits="userSpaceOnUse"
       cx="7.5"
       cy="8.3301001"
       r="126.4133" />
    <radialGradient
       gradientUnits="userSpaceOnUse"
       r="126.4133"
       cy="8.3301001"
       cx="7.5"
       id="XMLID_15_-4">
      <stop
         id="stop4-8"
         style="stop-color:#DBC298"
         offset="0.2722" />
      <stop
         id="stop6-6"
         style="stop-color:#C7B08A"
         offset="0.4545" />
      <stop
         id="stop8-4"
         style="stop-color:#b99c6f;stop-opacity:1;"
         offset="0.71829998" />
      <stop
         id="stop10-2"
         style="stop-color:#b09469;stop-opacity:1;"
         offset="0.88169998" />
      <stop
         id="stop12-7"
         style="stop-color:#a48a5f;stop-opacity:1;"
         offset="1" />
    </radialGradient>
    <radialGradient
       inkscape:collect="always"
       xlink:href="#XMLID_15_-4"
       id="radialGradient3203"
       gradientUnits="userSpaceOnUse"
       gradientTransform="matrix(-1.1589375,0,0,1.1589375,124.51974,8.0154104)"
       cx="27.848034"
       cy="8.6778336"
       fx="27.848034"
       fy="8.6778336"
       r="126.4133" />
    <linearGradient
       inkscape:collect="always"
       xlink:href="#XMLID_17_-0"
       id="linearGradient3205"
       gradientUnits="userSpaceOnUse"
       x1="0.25"
       y1="13.2949"
       x2="104.25"
       y2="13.2949" />
    <linearGradient
       y2="13.2949"
       x2="104.25"
       y1="13.2949"
       x1="0.25"
       gradientUnits="userSpaceOnUse"
       id="XMLID_17_-0">
      <stop
         id="stop28"
         style="stop-color:#8F6B32"
         offset="0" />
      <stop
         id="stop30"
         style="stop-color:#000000"
         offset="0.5" />
      <stop
         id="stop32"
         style="stop-color:#8F6B32"
         offset="1" />
    </linearGradient>
    <linearGradient
       inkscape:collect="always"
       xlink:href="#XMLID_18_-3"
       id="linearGradient3207"
       gradientUnits="userSpaceOnUse"
       x1="91.572304"
       y1="4.5991001"
       x2="63.635544"
       y2="22.620584" />
    <linearGradient
       y2="21.1523"
       x2="62.901402"
       y1="4.5991001"
       x1="91.572304"
       gradientUnits="userSpaceOnUse"
       id="XMLID_18_-3">
      <stop
         id="stop6378-6"
         style="stop-color:#AD9C80"
         offset="0.0118" />
      <stop
         id="stop41-1"
         style="stop-color:#FFE6BC"
         offset="0.0414" />
      <stop
         id="stop43-5"
         style="stop-color:#C4B091"
         offset="0.0828" />
      <stop
         id="stop45-8"
         style="stop-color:#DEC8A4"
         offset="0.1361" />
      <stop
         id="stop47-9"
         style="stop-color:#B39E7C"
         offset="1" />
    </linearGradient>
    <linearGradient
       inkscape:collect="always"
       xlink:href="#XMLID_20_-5"
       id="linearGradient3209"
       gradientUnits="userSpaceOnUse"
       x1="12.0713"
       y1="4.1034999"
       x2="49.135216"
       y2="27.573669" />
    <linearGradient
       y2="26.3501"
       x2="50.6035"
       y1="4.1034999"
       x1="12.0713"
       gradientUnits="userSpaceOnUse"
       id="XMLID_20_-5">
      <stop
         id="stop59-6"
         style="stop-color:#AD9C80"
         offset="0.0118" />
      <stop
         id="stop61-3"
         style="stop-color:#FFE6BC"
         offset="0.0414" />
      <stop
         id="stop63-1"
         style="stop-color:#C4B091"
         offset="0.0828" />
      <stop
         id="stop65-3"
         style="stop-color:#DEC8A4"
         offset="0.1361" />
      <stop
         id="stop67-7"
         style="stop-color:#B39E7C"
         offset="1" />
    </linearGradient>
    <radialGradient
       inkscape:collect="always"
       xlink:href="#linearGradient2378-4-05"
       id="radialGradient3211-8"
       gradientUnits="userSpaceOnUse"
       cx="38.658855"
       cy="9.3411446"
       fx="38.658855"
       fy="9.3411446"
       r="8.341651" />
    <linearGradient
       id="linearGradient2378-4-05">
      <stop
         id="stop2380-3-66"
         offset="0"
         style="stop-color:#ffffff;stop-opacity:1;" />
      <stop
         style="stop-color:#eefede;stop-opacity:0.91836733;"
         offset="0.25"
         id="stop4146-3-7" />
      <stop
         style="stop-color:#8df528;stop-opacity:1;"
         offset="0.5"
         id="stop2386-0-4" />
      <stop
         id="stop2382-1-7"
         offset="1"
         style="stop-color:#90f52d;stop-opacity:0.12234043;" />
    </linearGradient>
    <linearGradient
       inkscape:collect="always"
       xlink:href="#linearGradient5958-5-4-0"
       id="linearGradient3213-2"
       gradientUnits="userSpaceOnUse"
       gradientTransform="matrix(-6.8562897e-8,-0.66650081,0.66650123,9.6201965e-8,301.9348,10.006078)"
       x1="-36.435585"
       y1="-421.27908"
       x2="-65.122627"
       y2="-411.77975" />
    <linearGradient
       id="linearGradient5958-5-4-0"
       gradientUnits="userSpaceOnUse"
       x1="-84.002403"
       y1="-383.9971"
       x2="-12.0029"
       y2="-383.9971"
       gradientTransform="matrix(0,1,-1,0,-39.9985,140.0029)">
      <stop
         offset="0"
         style="stop-color:#7fff01;stop-opacity:1;"
         id="stop5960-5-8-0" />
      <stop
         offset="1"
         style="stop-color:#3f8000;stop-opacity:1;"
         id="stop5962-5-1-8" />
    </linearGradient>
    <linearGradient
       inkscape:collect="always"
       xlink:href="#linearGradient3711-2-2"
       id="linearGradient3215-0"
       gradientUnits="userSpaceOnUse"
       gradientTransform="matrix(0,0.09324005,-0.09324012,0,-5.307552,36.446938)"
       x1="-80.00296"
       y1="-131.93112"
       x2="-45.096584"
       y2="-131.93112" />
    <linearGradient
       id="linearGradient3711-2-2"
       gradientUnits="userSpaceOnUse"
       x1="-84.002403"
       y1="-383.9971"
       x2="-23.516129"
       y2="-383.9975"
       gradientTransform="matrix(0,1,-1,0,-39.9985,140.0029)">
      <stop
         offset="0"
         style="stop-color:white;stop-opacity:1;"
         id="stop3713-7-3" />
      <stop
         offset="1"
         style="stop-color:white;stop-opacity:0;"
         id="stop3715-3-8" />
    </linearGradient>
    <radialGradient
       gradientUnits="userSpaceOnUse"
       gradientTransform="matrix(1,0,0,-1,-281.9995,-305)"
       r="94.664803"
       cy="-375.27051"
       cx="402.76709"
       id="path59_1_">
      <stop
         id="stop38"
         style="stop-color:#535557"
         offset="0" />
      <stop
         id="stop40"
         style="stop-color:#898A8C"
         offset="0.07095145" />
      <stop
         id="stop42"
         style="stop-color:#ECECEC"
         offset="0.203" />
      <stop
         id="stop44"
         style="stop-color:#FAFAFA"
         offset="0.2363" />
      <stop
         id="stop46"
         style="stop-color:#FFFFFF"
         offset="0.2722" />
      <stop
         id="stop48"
         style="stop-color:#FAFAFA"
         offset="0.5313" />
      <stop
         id="stop50"
         style="stop-color:#EBECEC"
         offset="0.8449" />
      <stop
         id="stop52"
         style="stop-color:#E1E2E3"
         offset="1" />
    </radialGradient>
    <filter
       id="filter5704"
       inkscape:collect="always"
       color-interpolation-filters="sRGB">
      <feGaussianBlur
         id="feGaussianBlur5706"
         stdDeviation="0.90323211"
         inkscape:collect="always" />
    </filter>
    <linearGradient
       gradientTransform="matrix(1,0,0,-1,-281.9995,-305)"
       y2="-363.99991"
       x2="392.9447"
       y1="-369.5"
       x1="398.44479"
       gradientUnits="userSpaceOnUse"
       id="path101_1_">
      <stop
         id="stop74"
         style="stop-color:#888A85"
         offset="0" />
      <stop
         id="stop4208"
         style="stop-color:#8C8E89"
         offset="0.0072" />
      <stop
         id="stop4210"
         style="stop-color:#ABACA9"
         offset="0.0673" />
      <stop
         id="stop80"
         style="stop-color:#C5C6C4"
         offset="0.1347" />
      <stop
         id="stop82"
         style="stop-color:#DBDBDA"
         offset="0.2115" />
      <stop
         id="stop84"
         style="stop-color:#EBEBEB"
         offset="0.3012" />
      <stop
         id="stop86"
         style="stop-color:#F7F7F6"
         offset="0.4122" />
      <stop
         id="stop88"
         style="stop-color:#FDFDFD"
         offset="0.5679" />
      <stop
         id="stop90"
         style="stop-color:#FFFFFF"
         offset="1" />
    </linearGradient>
    <radialGradient
       inkscape:collect="always"
       xlink:href="#path59_1_"
       id="radialGradient3334"
       gradientUnits="userSpaceOnUse"
       gradientTransform="matrix(1.8479032,0,0,-1.8463153,-827.14968,-627.54977)"
       cx="427.83167"
       cy="-398.90292"
       fx="427.83167"
       fy="-398.90292"
       r="94.664803" />
    <linearGradient
       inkscape:collect="always"
       xlink:href="#path101_1_"
       id="linearGradient3336"
       gradientUnits="userSpaceOnUse"
       gradientTransform="matrix(1.00086,0,0,-1,-462.16033,-287.04545)"
       x1="398.44479"
       y1="-369.5"
       x2="393.59644"
       y2="-364.65219" />
    <radialGradient
       inkscape:collect="always"
       xlink:href="#path59_1_"
       id="radialGradient3356"
       gradientUnits="userSpaceOnUse"
       gradientTransform="matrix(1.8479032,0,0,-1.8463153,-827.14968,-627.54977)"
       cx="427.83167"
       cy="-398.90292"
       fx="427.83167"
       fy="-398.90292"
       r="94.664803" />
    <linearGradient
       inkscape:collect="always"
       xlink:href="#path101_1_"
       id="linearGradient3358"
       gradientUnits="userSpaceOnUse"
       gradientTransform="matrix(1.00086,0,0,-1,-462.16033,-287.04545)"
       x1="398.44479"
       y1="-369.5"
       x2="393.59644"
       y2="-364.65219" />
  </defs>
  <sodipodi:namedview
     id="base"
     pagecolor="#ffffff"
     bordercolor="#666666"
     borderopacity="1.0"
     inkscape:pageopacity="0.0"
     inkscape:pageshadow="2"
     inkscape:zoom="4"
     inkscape:cx="48"
     inkscape:cy="53.75"
     inkscape:current-layer="layer1"
     showgrid="true"
     inkscape:document-units="px"
     inkscape:grid-bbox="true"
     inkscape:window-width="1012"
     inkscape:window-height="718"
     inkscape:window-x="5"
     inkscape:window-y="29"
     inkscape:window-maximized="0"
     fit-margin-top="0"
     fit-margin-left="0"
     fit-margin-right="0"
     fit-margin-bottom="0" />
  <metadata
     id="metadata3994">
    <rdf:RDF>
      <cc:Work
         rdf:about="">
        <dc:format>image/svg+xml</dc:format>
        <dc:type
           rdf:resource="http://purl.org/dc/dcmitype/StillImage" />
        <dc:title />
      </cc:Work>
    </rdf:RDF>
  </metadata>
  <g
     id="layer1"
     inkscape:label="Layer 1"
     inkscape:groupmode="layer"
     transform="translate(0,32)">
    <g
       id="g3360">
      <g
         transform="matrix(0.68750002,0,0,0.68750002,88.000005,-37.92844)"
         id="g4496">
        <path
           id="path4494"
           d="m -116.36364,17.454546 1e-5,93.454544 51.667603,0 c 0.365314,0 0.710527,-0.14925 0.96875,-0.40625 l 28.411931,-28.380681 c 0.258221,-0.258 0.40625,-0.603749 0.40625,-0.96875 l 0,-63.698863 -81.454544,0 z"
           style="opacity:0.6;fill:#000000;fill-opacity:1;stroke:#000000;stroke-width:5.81818151;stroke-linejoin:round;stroke-miterlimit:4;stroke-opacity:1;stroke-dasharray:none"
           sodipodi:nodetypes="cccccccc"
           inkscape:connector-curvature="0" />
        <path
           sodipodi:nodetypes="cccccccc"
           style="fill:#ffffff;fill-opacity:1"
           d="m -116.36364,17.454546 1e-5,93.454544 51.667603,0 c 0.365314,0 0.710527,-0.14925 0.96875,-0.40625 l 28.411931,-28.380681 c 0.258221,-0.258 0.40625,-0.603749 0.40625,-0.96875 l 0,-63.698863 -81.454544,0 z"
           id="path4712"
           inkscape:connector-curvature="0" />
        <path
           id="path4419"
           d="m -114.71458,19.412808 1e-5,89.538022 51.059213,0 c 0.346487,0 0.673911,-0.14156 0.918826,-0.38532 l 25.793058,-24.308869 c 0.244914,-0.244704 0.385315,-0.572637 0.385315,-0.918826 l 0,-63.925007 -78.156422,0 z"
           style="fill:url(#radialGradient3334)"
           sodipodi:nodetypes="cccccccc"
           inkscape:connector-curvature="0" />
        <g
           id="g4488"
           transform="matrix(1.3181185,0,0,1.3181185,35.106144,-11.417429)">
          <path
             transform="matrix(1.0561473,0,0,1.0633114,28.78946,7.7537706)"
             id="path4924"
             d="m -99.99277,80.598 c 0,0 8.198044,-6.816 11.983298,-10.598 3.785253,-3.782 10.607115,-11.973 10.607115,-11.973 0,0 -8.023478,2.409045 -20.023478,2.409045 0,12 -2.566935,20.161955 -2.566935,20.161955 z"
             style="opacity:0.3;fill:#000000;fill-opacity:1;filter:url(#filter5704)"
             sodipodi:nodetypes="csccc"
             inkscape:connector-curvature="0" />
          <path
             sodipodi:nodetypes="csccc"
             style="fill:url(#linearGradient3336)"
             d="m -75.3564,93.052545 c 0,0 8.198044,-6.816 11.983298,-10.598 3.785253,-3.782 10.607115,-11.973 10.607115,-11.973 0,0 -7.597643,2.973 -19.597643,2.973 0,12 -2.99277,19.598 -2.99277,19.598 z"
             id="path4422"
             inkscape:connector-curvature="0" />
        </g>
      </g>
      <g
         id="g4508"
         transform="matrix(0.68750002,0,0,0.68750002,98.000005,-28.928438)">
        <path
           sodipodi:nodetypes="cccccccc"
           style="opacity:0.6;fill:#000000;fill-opacity:1;stroke:#000000;stroke-width:5.81818151;stroke-linejoin:round;stroke-miterlimit:4;stroke-opacity:1;stroke-dasharray:none"
           d="m -116.36364,17.454546 1e-5,93.454544 51.667603,0 c 0.365314,0 0.710527,-0.14925 0.96875,-0.40625 l 28.411931,-28.380681 c 0.258221,-0.258 0.40625,-0.603749 0.40625,-0.96875 l 0,-63.698863 -81.454544,0 z"
           id="path4510"
           inkscape:connector-curvature="0" />
        <path
           id="path4512"
           d="m -116.36364,17.454546 1e-5,93.454544 51.667603,0 c 0.365314,0 0.710527,-0.14925 0.96875,-0.40625 l 28.411931,-28.380681 c 0.258221,-0.258 0.40625,-0.603749 0.40625,-0.96875 l 0,-63.698863 -81.454544,0 z"
           style="fill:#ffffff;fill-opacity:1"
           sodipodi:nodetypes="cccccccc"
           inkscape:connector-curvature="0" />
        <path
           sodipodi:nodetypes="cccccccc"
           style="fill:url(#radialGradient3356)"
           d="m -114.71458,19.412808 1e-5,89.538022 51.059213,0 c 0.346487,0 0.673911,-0.14156 0.918826,-0.38532 l 25.793058,-24.308869 c 0.244914,-0.244704 0.385315,-0.572637 0.385315,-0.918826 l 0,-63.925007 -78.156422,0 z"
           id="path4514"
           inkscape:connector-curvature="0" />
        <g
           transform="matrix(1.3181185,0,0,1.3181185,35.106144,-11.417429)"
           id="g4516">
          <path
             sodipodi:nodetypes="csccc"
             style="opacity:0.3;fill:#000000;fill-opacity:1;filter:url(#filter5704)"
             d="m -99.99277,80.598 c 0,0 8.198044,-6.816 11.983298,-10.598 3.785253,-3.782 10.607115,-11.973 10.607115,-11.973 0,0 -8.023478,2.409045 -20.023478,2.409045 0,12 -2.566935,20.161955 -2.566935,20.161955 z"
             id="path4518"
             transform="matrix(1.0561473,0,0,1.0633114,28.78946,7.7537706)"
             inkscape:connector-curvature="0" />
          <path
             id="path4520"
             d="m -75.3564,93.052545 c 0,0 8.198044,-6.816 11.983298,-10.598 3.785253,-3.782 10.607115,-11.973 10.607115,-11.973 0,0 -7.597643,2.973 -19.597643,2.973 0,12 -2.99277,19.598 -2.99277,19.598 z"
             style="fill:url(#linearGradient3358)"
             sodipodi:nodetypes="csccc"
             inkscape:connector-curvature="0" />
        </g>
      </g>
    </g>
    <g
       transform="matrix(0.4506096,0,0,0.4506096,35.431779,3.6875861)"
       id="g3991">
      <path
         inkscape:connector-curvature="0"
         style="fill:#5a492b;fill-opacity:1;fill-rule:evenodd;stroke:#000000;stroke-width:2.01891518px;stroke-linecap:butt;stroke-linejoin:miter;stroke-opacity:1;filter:url(#filter3533-3)"
         d="M 9.25,119.65 121,119.4 l -7.25,-17 -94.75,0 -9.75,17.25 z"
         id="path3431"
         transform="matrix(0.9980065,0,0,0.9980065,-0.870425,0.6770145)" />
      <path
         inkscape:connector-curvature="0"
         transform="matrix(0.9980065,0,0,0.9980065,-0.870425,0.6770145)"
         id="path3388"
         d="M 9.25,119.65 121,119.4 l -7.25,-17 -94.75,0 -9.75,17.25 z"
         style="fill:#000000;fill-opacity:0;fill-rule:evenodd;stroke:#000000;stroke-width:2.01891518px;stroke-linecap:butt;stroke-linejoin:miter;stroke-opacity:1;filter:url(#filter3410-0)" />
      <polygon
         transform="matrix(1.1589375,0,0,1.1589375,3.5903842,8.0029358)"
         style="fill:url(#radialGradient3201)"
         id="polygon14"
         points="4.25,96.58 0.25,24.795 104.25,24.795 104.25,24.795 100.25,96.58 " />
      <path
         inkscape:connector-curvature="0"
         style="fill:url(#radialGradient3203)"
         d="m 4.6975479,36.736238 4.6469686,83.208792 -0.9980068,0 -4.6469684,-83.208792 0.9980066,0 z"
         id="path3425" />
      <polygon
         transform="matrix(1.1589375,0,0,1.1589375,3.5903842,8.0029358)"
         style="fill:url(#linearGradient3205)"
         id="polygon34"
         points="52.25,25.795 0.25,24.795 16.25,0.795 88.25,0.795 104.25,24.795 52.25,25.795 " />
      <polygon
         transform="matrix(1.1589375,0,0,1.1589375,3.5903842,8.0029358)"
         points="52.25,0 52.25,0 88.096,0.58 104.25,24.58 52.25,23.5 "
         id="polygon49"
         style="fill:url(#linearGradient3207)" />
      <polygon
         transform="matrix(1.1589375,0,0,1.1589375,3.5903842,8.0029358)"
         style="fill:url(#linearGradient3209)"
         id="polygon69"
         points="16.406,0.58 52.25,0 52.25,23.5 52.25,23.5 0.25,24.58 " />
      <path
         inkscape:connector-curvature="0"
         id="polygon3414"
         d="m 123.37515,36.736238 -4.64697,83.208792 0.99801,0 4.64697,-83.208792 -0.99801,0 z"
         style="fill:#7d6947;fill-opacity:0.53475934" />
      <path
         inkscape:connector-curvature="0"
         sodipodi:nodetypes="cccccccc"
         id="path2565"
         d="m 3.8800139,36.73858 60.4085651,1.240786 60.114971,-1.248219 0,0.212707 0,0 L 64.0047,38.391008 3.8622884,36.93356 3.8800139,36.73858 z"
         style="fill:#ffffff;fill-opacity:0.82352941;fill-rule:evenodd;stroke:none" />
    </g>
    <g
       id="g4145"
       transform="matrix(4.3636364,0,0,4.3636364,27.454547,-141.81816)">
      <path
         sodipodi:type="arc"
         style="fill:url(#radialGradient3211-8);fill-opacity:1;fill-rule:evenodd;stroke:none;display:inline"
         id="path2388-1"
         sodipodi:cx="38.658855"
         sodipodi:cy="9.3411446"
         sodipodi:rx="8.341651"
         sodipodi:ry="8.341651"
         d="m 47.000506,9.3411446 c 0,4.6069664 -3.734684,8.3416514 -8.341651,8.3416514 -4.606966,0 -8.341651,-3.734685 -8.341651,-8.3416514 0,-4.6069667 3.734685,-8.341651 8.341651,-8.341651 4.606967,0 8.341651,3.7346843 8.341651,8.341651 z"
         transform="matrix(0.59940173,0,0,0.59941093,-16.172185,26.900739)" />
      <g
         id="g4133">
        <path
           sodipodi:type="arc"
           style="color:#000000;fill:url(#linearGradient3213-2);fill-opacity:1;fill-rule:nonzero;stroke:none;stroke-width:0.41949013;marker:none;visibility:visible;display:inline;overflow:visible;enable-background:accumulate"
           id="path4594-6"
           sodipodi:cx="24.298161"
           sodipodi:cy="43.856728"
           sodipodi:rx="10.067763"
           sodipodi:ry="10.067763"
           d="m 34.365924,43.856728 c 0,5.560272 -4.507491,10.067763 -10.067763,10.067763 -5.560273,0 -10.067764,-4.507491 -10.067764,-10.067763 0,-5.560273 4.507491,-10.067764 10.067764,-10.067764 5.560272,0 10.067763,4.507491 10.067763,10.067764 z"
           transform="matrix(0.3973077,0,0,0.3973077,-2.6538462,15.075307)" />
        <path
           style="opacity:0.8;fill:url(#linearGradient3215-0);fill-opacity:1;stroke:none"
           d="m 7.000001,28.987463 c -1.4318514,0 -2.628294,1.011079 -2.9166675,2.357225 0.5748076,0.53584 1.6654726,0.897435 2.9166675,0.897435 1.251195,0 2.3418581,-0.361595 2.9166656,-0.897435 C 9.6282929,29.998542 8.4318522,28.987463 7.000001,28.987463 z"
           id="circle16776-1"
           inkscape:connector-curvature="0" />
      </g>
      <path
         inkscape:connector-curvature="0"
         id="rect4122"
         transform="translate(0,26)"
         d="m 6,3.5 0,2 -2,0 0,2 2,0 0,2 2,0 0,-2 2,0 0,-2 -2,0 0,-2 -2,0 z"
         style="color:#000000;fill:#ffffff;fill-opacity:1;fill-rule:evenodd;stroke:#377000;stroke-width:0.5;stroke-linecap:butt;stroke-linejoin:round;stroke-miterlimit:4;stroke-opacity:1;stroke-dasharray:none;stroke-dashoffset:0;marker:none;visibility:visible;display:inline;overflow:visible;enable-background:accumulate" />
    </g>
  </g>
</svg>
