<?xml version="1.0" encoding="UTF-8" standalone="no"?>
<!-- Created with Inkscape (http://www.inkscape.org/) -->

<svg
   xmlns:dc="http://purl.org/dc/elements/1.1/"
   xmlns:cc="http://creativecommons.org/ns#"
   xmlns:rdf="http://www.w3.org/1999/02/22-rdf-syntax-ns#"
   xmlns:svg="http://www.w3.org/2000/svg"
   xmlns="http://www.w3.org/2000/svg"
   xmlns:xlink="http://www.w3.org/1999/xlink"
   xmlns:sodipodi="http://sodipodi.sourceforge.net/DTD/sodipodi-0.dtd"
   xmlns:inkscape="http://www.inkscape.org/namespaces/inkscape"
   width="96"
   height="96"
   id="svg8280"
   sodipodi:version="0.32"
   inkscape:version="0.48.3.1 r9886"
   sodipodi:docname="document-open-remote.svg"
   inkscape:output_extension="org.inkscape.output.svg.inkscape"
   version="1.1">
  <defs
     id="defs8282">
    <linearGradient
       inkscape:collect="always"
       xlink:href="#linearGradient5048-15"
       id="linearGradient3546"
       gradientUnits="userSpaceOnUse"
       gradientTransform="matrix(0.0628545,0,0,0.0432353,1.2825904,18.647865)"
       x1="302.85715"
       y1="366.64789"
       x2="302.85715"
       y2="609.50507" />
    <linearGradient
       id="linearGradient5048-15">
      <stop
         style="stop-color:black;stop-opacity:0;"
         offset="0"
         id="stop5050-1" />
      <stop
         id="stop5056-5"
         offset="0.5"
         style="stop-color:black;stop-opacity:1;" />
      <stop
         style="stop-color:black;stop-opacity:0;"
         offset="1"
         id="stop5052-0" />
    </linearGradient>
    <radialGradient
       inkscape:collect="always"
       xlink:href="#linearGradient5060-22"
       id="radialGradient3543"
       gradientUnits="userSpaceOnUse"
       gradientTransform="matrix(0.0628545,0,0,0.0432353,1.2949602,18.647865)"
       cx="605.71429"
       cy="486.64789"
       fx="605.71429"
       fy="486.64789"
       r="117.14286" />
    <linearGradient
       inkscape:collect="always"
       id="linearGradient5060-22">
      <stop
         style="stop-color:black;stop-opacity:1;"
         offset="0"
         id="stop5062-8" />
      <stop
         style="stop-color:black;stop-opacity:0;"
         offset="1"
         id="stop5064-1" />
    </linearGradient>
    <radialGradient
       inkscape:collect="always"
       xlink:href="#linearGradient5060-22"
       id="radialGradient3540"
       gradientUnits="userSpaceOnUse"
       gradientTransform="matrix(-0.0628545,0,0,0.0432353,46.705049,18.647865)"
       cx="605.71429"
       cy="486.64789"
       fx="605.71429"
       fy="486.64789"
       r="117.14286" />
    <linearGradient
       id="linearGradient4064-7-5">
      <stop
         style="stop-color:#4483aa;stop-opacity:1;"
         offset="0"
         id="stop4066-4-6" />
      <stop
         style="stop-color:#4483aa;stop-opacity:0.50196081;"
         offset="1"
         id="stop4068-8-3" />
    </linearGradient>
    <linearGradient
       id="linearGradient4054-7-0">
      <stop
         style="stop-color:#265c88;stop-opacity:1;"
         offset="0"
         id="stop4056-0-4" />
      <stop
         style="stop-color:#265c88;stop-opacity:0.50196081;"
         offset="1"
         id="stop4058-9-1" />
    </linearGradient>
    <linearGradient
       gradientTransform="matrix(1.0033404,0,0,1,-8.2374684,8)"
       y2="19.9583"
       x2="71.999496"
       y1="14.2578"
       x1="71.999496"
       gradientUnits="userSpaceOnUse"
       id="linearGradient9101-3">
      <stop
         id="stop9103-0"
         style="stop-color:#265c88;stop-opacity:0;"
         offset="0.25" />
      <stop
         id="stop9105-2"
         style="stop-color:#265c88;stop-opacity:1;"
         offset="1" />
    </linearGradient>
    <linearGradient
       id="linearGradient10176-71"
       gradientUnits="userSpaceOnUse"
       x1="71.999496"
       y1="14.2578"
       x2="71.999496"
       y2="19.9583"
       gradientTransform="matrix(1.0033404,0,0,1,-8.2374684,8)">
      <stop
         offset="0.00445589"
         style="stop-color:#eaeaea;stop-opacity:0;"
         id="stop10178-84" />
      <stop
         id="stop10180-1"
         style="stop-color:#ffffff;stop-opacity:0.52941179;"
         offset="0.46138024" />
      <stop
         offset="1"
         style="stop-color:#f5f5f5;stop-opacity:0"
         id="stop10182-0" />
    </linearGradient>
    <linearGradient
       inkscape:collect="always"
       xlink:href="#linearGradient9101-3"
       id="linearGradient3270"
       gradientUnits="userSpaceOnUse"
       gradientTransform="matrix(0.3707962,0,0,0.1666666,-2.6965824,19.666667)"
       x1="71.999496"
       y1="14.2578"
       x2="71.999496"
       y2="19.9583" />
    <linearGradient
       inkscape:collect="always"
       xlink:href="#linearGradient4064-7-5"
       id="linearGradient3273"
       gradientUnits="userSpaceOnUse"
       gradientTransform="translate(-47,0)"
       x1="71"
       y1="8"
       x2="71"
       y2="41.5" />
    <linearGradient
       inkscape:collect="always"
       xlink:href="#linearGradient4054-7-0"
       id="linearGradient3275"
       gradientUnits="userSpaceOnUse"
       gradientTransform="translate(-47,0)"
       x1="71"
       y1="8"
       x2="71"
       y2="41.5" />
    <linearGradient
       inkscape:collect="always"
       xlink:href="#linearGradient10176-71"
       id="linearGradient3413"
       gradientUnits="userSpaceOnUse"
       gradientTransform="matrix(0.4550303,0,0,0.47140449,-5.4003734,7.3603923)"
       x1="7.2379346"
       y1="36.005047"
       x2="122.17093"
       y2="36.005047" />
    <linearGradient
       inkscape:collect="always"
       xlink:href="#linearGradient9073-9-7-5"
       id="linearGradient3385-4"
       gradientUnits="userSpaceOnUse"
       gradientTransform="matrix(0.3515659,0,0,0.3552688,-85.937236,-103.34001)"
       x1="167.64111"
       y1="328.87747"
       x2="167.64111"
       y2="407.69193" />
    <linearGradient
       id="linearGradient9073-9-7-5">
      <stop
         id="stop9075-9-7-1"
         offset="0"
         style="stop-color:#aadfee;stop-opacity:1" />
      <stop
         id="stop9077-5-4-1"
         offset="1"
         style="stop-color:#4483aa;stop-opacity:1" />
    </linearGradient>
    <linearGradient
       inkscape:collect="always"
       xlink:href="#linearGradient9087-5-2-5"
       id="linearGradient3387-2"
       gradientUnits="userSpaceOnUse"
       gradientTransform="translate(-233.99771,-3.0000001)"
       x1="206.99738"
       y1="16.499895"
       x2="206.99738"
       y2="44.50021" />
    <linearGradient
       inkscape:collect="always"
       id="linearGradient9087-5-2-5">
      <stop
         style="stop-color:#4483aa;stop-opacity:1"
         offset="0"
         id="stop9089-5-0-4" />
      <stop
         style="stop-color:#265c88;stop-opacity:1"
         offset="1"
         id="stop9091-1-6-6" />
    </linearGradient>
    <linearGradient
       id="linearGradient3142">
      <stop
         style="stop-color:#3cc1ee;stop-opacity:1;"
         offset="0"
         id="stop3144" />
      <stop
         style="stop-color:#141b7c;stop-opacity:1;"
         offset="1"
         id="stop3146" />
    </linearGradient>
    <radialGradient
       gradientUnits="userSpaceOnUse"
       gradientTransform="matrix(0.8232,0.2312,0.2703,-0.9626,-96.2274,-315.3433)"
       fy="-289.9133"
       fx="297.44989"
       r="17.1528"
       cy="-290.5918"
       cx="299.44821"
       id="XMLID_2_-6">
      <stop
         id="stop228"
         style="stop-color:#FFFFFF"
         offset="0" />
      <stop
         id="stop230"
         style="stop-color:#91d3ff;stop-opacity:0;"
         offset="1" />
    </radialGradient>
    <linearGradient
       inkscape:collect="always"
       id="linearGradient4046">
      <stop
         style="stop-color:#ffffff;stop-opacity:1;"
         offset="0"
         id="stop4048" />
      <stop
         style="stop-color:#ffffff;stop-opacity:0;"
         offset="1"
         id="stop4050" />
    </linearGradient>
    <radialGradient
       inkscape:collect="always"
       xlink:href="#linearGradient3142"
       id="radialGradient3500"
       gradientUnits="userSpaceOnUse"
       cx="138.80981"
       cy="147.785"
       fx="135.29474"
       fy="217.461"
       r="92.351021" />
    <linearGradient
       inkscape:collect="always"
       xlink:href="#XMLID_2_-6"
       id="linearGradient3502"
       gradientUnits="userSpaceOnUse"
       gradientTransform="matrix(0.18227536,0,0,0.18227536,219.96787,-13.228118)"
       x1="-1085.9586"
       y1="539.40955"
       x2="-474.68497"
       y2="375.61926" />
    <linearGradient
       inkscape:collect="always"
       xlink:href="#linearGradient4046"
       id="linearGradient3504"
       gradientUnits="userSpaceOnUse"
       gradientTransform="matrix(0.98247968,0,0,0.97865233,-0.23533368,7.4871013)"
       x1="22.196054"
       y1="-3.0905473"
       x2="51.625942"
       y2="35.567139" />
    <linearGradient
       inkscape:collect="always"
       xlink:href="#linearGradient5048-15"
       id="linearGradient3064"
       gradientUnits="userSpaceOnUse"
       gradientTransform="matrix(0.0628545,0,0,0.0432353,1.2825904,18.647865)"
       x1="302.85715"
       y1="366.64789"
       x2="302.85715"
       y2="609.50507" />
    <radialGradient
       inkscape:collect="always"
       xlink:href="#linearGradient5060-22"
       id="radialGradient3066"
       gradientUnits="userSpaceOnUse"
       gradientTransform="matrix(0.0628545,0,0,0.0432353,1.2949602,18.647865)"
       cx="605.71429"
       cy="486.64789"
       fx="605.71429"
       fy="486.64789"
       r="117.14286" />
    <radialGradient
       inkscape:collect="always"
       xlink:href="#linearGradient5060-22"
       id="radialGradient3068"
       gradientUnits="userSpaceOnUse"
       gradientTransform="matrix(-0.0628545,0,0,0.0432353,46.705049,18.647865)"
       cx="605.71429"
       cy="486.64789"
       fx="605.71429"
       fy="486.64789"
       r="117.14286" />
    <linearGradient
       inkscape:collect="always"
       xlink:href="#linearGradient4064-7-5"
       id="linearGradient3070"
       gradientUnits="userSpaceOnUse"
       gradientTransform="translate(-47,0)"
       x1="71"
       y1="8"
       x2="71"
       y2="41.5" />
    <linearGradient
       inkscape:collect="always"
       xlink:href="#linearGradient4054-7-0"
       id="linearGradient3072"
       gradientUnits="userSpaceOnUse"
       gradientTransform="translate(-47,0)"
       x1="71"
       y1="8"
       x2="71"
       y2="41.5" />
    <linearGradient
       inkscape:collect="always"
       xlink:href="#linearGradient9101-3"
       id="linearGradient3074"
       gradientUnits="userSpaceOnUse"
       gradientTransform="matrix(0.3707962,0,0,0.1666666,-2.6965824,19.666667)"
       x1="71.999496"
       y1="14.2578"
       x2="71.999496"
       y2="19.9583" />
    <radialGradient
       inkscape:collect="always"
       xlink:href="#linearGradient3142"
       id="radialGradient3076"
       gradientUnits="userSpaceOnUse"
       cx="138.80981"
       cy="147.785"
       fx="135.29474"
       fy="217.461"
       r="92.351021" />
    <linearGradient
       inkscape:collect="always"
       xlink:href="#XMLID_2_-6"
       id="linearGradient3078"
       gradientUnits="userSpaceOnUse"
       gradientTransform="matrix(0.18227536,0,0,0.18227536,219.96787,-13.228118)"
       x1="-1085.9586"
       y1="539.40955"
       x2="-474.68497"
       y2="375.61926" />
    <linearGradient
       inkscape:collect="always"
       xlink:href="#linearGradient4046"
       id="linearGradient3080"
       gradientUnits="userSpaceOnUse"
       gradientTransform="matrix(0.98247968,0,0,0.97865233,-0.23533368,7.4871013)"
       x1="22.196054"
       y1="-3.0905473"
       x2="51.625942"
       y2="35.567139" />
    <linearGradient
       inkscape:collect="always"
       xlink:href="#linearGradient9073-9-7-5"
       id="linearGradient3082"
       gradientUnits="userSpaceOnUse"
       gradientTransform="matrix(0.3515659,0,0,0.3552688,-85.937236,-103.34001)"
       x1="167.64111"
       y1="328.87747"
       x2="167.64111"
       y2="407.69193" />
    <linearGradient
       inkscape:collect="always"
       xlink:href="#linearGradient9087-5-2-5"
       id="linearGradient3084"
       gradientUnits="userSpaceOnUse"
       gradientTransform="translate(-233.99771,-3.0000001)"
       x1="206.99738"
       y1="16.499895"
       x2="206.99738"
       y2="44.50021" />
    <linearGradient
       inkscape:collect="always"
       xlink:href="#linearGradient10176-71"
       id="linearGradient3086"
       gradientUnits="userSpaceOnUse"
       gradientTransform="matrix(0.4550303,0,0,0.47140449,-5.4003734,7.3603923)"
       x1="7.2379346"
       y1="36.005047"
       x2="122.17093"
       y2="36.005047" />
    <linearGradient
       inkscape:collect="always"
       xlink:href="#linearGradient9101-3"
       id="linearGradient3099"
       gradientUnits="userSpaceOnUse"
       gradientTransform="matrix(0.7415924,0,0,0.3333332,-5.3931648,-8.666666)"
       x1="71.999496"
       y1="14.2578"
       x2="71.999496"
       y2="19.9583" />
    <linearGradient
       inkscape:collect="always"
       xlink:href="#linearGradient4064-7-5"
       id="linearGradient3102"
       gradientUnits="userSpaceOnUse"
       gradientTransform="matrix(2,0,0,2,-94,-48)"
       x1="71"
       y1="8"
       x2="71"
       y2="41.5" />
    <linearGradient
       inkscape:collect="always"
       xlink:href="#linearGradient4054-7-0"
       id="linearGradient3104"
       gradientUnits="userSpaceOnUse"
       gradientTransform="matrix(2,0,0,2,-94,-48)"
       x1="71"
       y1="8"
       x2="71"
       y2="41.5" />
    <linearGradient
       inkscape:collect="always"
       xlink:href="#linearGradient5048-15-1"
       id="linearGradient3224"
       gradientUnits="userSpaceOnUse"
       gradientTransform="matrix(0.0628545,0,0,0.0432353,1.2825904,18.647865)"
       x1="302.85715"
       y1="366.64789"
       x2="302.85715"
       y2="609.50507" />
    <linearGradient
       id="linearGradient5048-15-1">
      <stop
         style="stop-color:black;stop-opacity:0;"
         offset="0"
         id="stop5050-1-1" />
      <stop
         id="stop5056-5-0"
         offset="0.5"
         style="stop-color:black;stop-opacity:1;" />
      <stop
         style="stop-color:black;stop-opacity:0;"
         offset="1"
         id="stop5052-0-8" />
    </linearGradient>
    <radialGradient
       inkscape:collect="always"
       xlink:href="#linearGradient5060-22-8"
       id="radialGradient3226"
       gradientUnits="userSpaceOnUse"
       gradientTransform="matrix(0.0628545,0,0,0.0432353,1.2949602,18.647865)"
       cx="605.71429"
       cy="486.64789"
       fx="605.71429"
       fy="486.64789"
       r="117.14286" />
    <linearGradient
       inkscape:collect="always"
       id="linearGradient5060-22-8">
      <stop
         style="stop-color:black;stop-opacity:1;"
         offset="0"
         id="stop5062-8-3" />
      <stop
         style="stop-color:black;stop-opacity:0;"
         offset="1"
         id="stop5064-1-4" />
    </linearGradient>
    <linearGradient
       inkscape:collect="always"
       xlink:href="#linearGradient4064-7-5-9"
       id="linearGradient3269"
       gradientUnits="userSpaceOnUse"
       gradientTransform="matrix(2,0,0,2,-94,-48)"
       x1="71"
       y1="8"
       x2="71"
       y2="41.5" />
    <linearGradient
       id="linearGradient4064-7-5-9">
      <stop
         style="stop-color:#4483aa;stop-opacity:1;"
         offset="0"
         id="stop4066-4-6-7" />
      <stop
         style="stop-color:#4483aa;stop-opacity:0.50196081;"
         offset="1"
         id="stop4068-8-3-8" />
    </linearGradient>
    <linearGradient
       inkscape:collect="always"
       xlink:href="#linearGradient4054-7-0-8"
       id="linearGradient3271"
       gradientUnits="userSpaceOnUse"
       gradientTransform="matrix(2,0,0,2,-94,-48)"
       x1="71"
       y1="8"
       x2="71"
       y2="41.5" />
    <linearGradient
       id="linearGradient4054-7-0-8">
      <stop
         style="stop-color:#265c88;stop-opacity:1;"
         offset="0"
         id="stop4056-0-4-6" />
      <stop
         style="stop-color:#265c88;stop-opacity:0.50196081;"
         offset="1"
         id="stop4058-9-1-7" />
    </linearGradient>
    <linearGradient
       inkscape:collect="always"
       xlink:href="#linearGradient9101-3-4"
       id="linearGradient3266"
       gradientUnits="userSpaceOnUse"
       gradientTransform="matrix(0.7415924,0,0,0.3333332,-5.3931648,-8.166666)"
       x1="71.999496"
       y1="14.2578"
       x2="71.999496"
       y2="19.9583" />
    <linearGradient
       gradientTransform="matrix(1.0033404,0,0,1,-8.2374684,8)"
       y2="19.9583"
       x2="71.999496"
       y1="14.2578"
       x1="71.999496"
       gradientUnits="userSpaceOnUse"
       id="linearGradient9101-3-4">
      <stop
         id="stop9103-0-7"
         style="stop-color:#265c88;stop-opacity:0;"
         offset="0.25" />
      <stop
         id="stop9105-2-7"
         style="stop-color:#265c88;stop-opacity:1;"
         offset="1" />
    </linearGradient>
    <linearGradient
       inkscape:collect="always"
       xlink:href="#linearGradient9073-9-7-5-7"
       id="linearGradient3255"
       gradientUnits="userSpaceOnUse"
       gradientTransform="matrix(0.7031318,0,0,0.7105376,-171.87447,-254.68002)"
       x1="167.64111"
       y1="328.87747"
       x2="167.64111"
       y2="407.69193" />
    <linearGradient
       id="linearGradient9073-9-7-5-7">
      <stop
         id="stop9075-9-7-1-7"
         offset="0"
         style="stop-color:#aadfee;stop-opacity:1" />
      <stop
         id="stop9077-5-4-1-7"
         offset="1"
         style="stop-color:#4483aa;stop-opacity:1" />
    </linearGradient>
    <linearGradient
       inkscape:collect="always"
       xlink:href="#linearGradient9087-5-2-5-9"
       id="linearGradient3257"
       gradientUnits="userSpaceOnUse"
       gradientTransform="matrix(2,0,0,2,-467.99542,-54)"
       x1="206.99738"
       y1="16.499895"
       x2="206.99738"
       y2="44.50021" />
    <linearGradient
       inkscape:collect="always"
       id="linearGradient9087-5-2-5-9">
      <stop
         style="stop-color:#4483aa;stop-opacity:1"
         offset="0"
         id="stop9089-5-0-4-6" />
      <stop
         style="stop-color:#265c88;stop-opacity:1"
         offset="1"
         id="stop9091-1-6-6-9" />
    </linearGradient>
    <linearGradient
       inkscape:collect="always"
       xlink:href="#linearGradient10176-71-9"
       id="linearGradient3251"
       gradientUnits="userSpaceOnUse"
       gradientTransform="matrix(0.9100606,0,0,0.94280898,-10.800747,-33.779215)"
       x1="7.2379346"
       y1="36.005047"
       x2="122.17093"
       y2="36.005047" />
    <linearGradient
       id="linearGradient10176-71-9"
       gradientUnits="userSpaceOnUse"
       x1="71.999496"
       y1="14.2578"
       x2="71.999496"
       y2="19.9583"
       gradientTransform="matrix(1.0033404,0,0,1,-8.2374684,8)">
      <stop
         offset="0.00445589"
         style="stop-color:#eaeaea;stop-opacity:0;"
         id="stop10178-84-6" />
      <stop
         id="stop10180-1-8"
         style="stop-color:#ffffff;stop-opacity:0.52941179;"
         offset="0.46138024" />
      <stop
         offset="1"
         style="stop-color:#f5f5f5;stop-opacity:0"
         id="stop10182-0-1" />
    </linearGradient>
    <radialGradient
       r="117.14286"
       fy="486.64789"
       fx="605.71429"
       cy="486.64789"
       cx="605.71429"
       gradientTransform="matrix(-0.0628545,0,0,0.0432353,46.705049,18.647865)"
       gradientUnits="userSpaceOnUse"
       id="radialGradient3199"
       xlink:href="#linearGradient5060-22-8"
       inkscape:collect="always" />
  </defs>
  <sodipodi:namedview
     id="base"
     pagecolor="#ffffff"
     bordercolor="#666666"
     borderopacity="1.0"
     inkscape:pageopacity="0.0"
     inkscape:pageshadow="2"
     inkscape:zoom="6.0416667"
     inkscape:cx="48"
     inkscape:cy="48"
     inkscape:current-layer="layer1"
     showgrid="true"
     inkscape:grid-bbox="true"
     inkscape:document-units="px"
     inkscape:window-width="1064"
     inkscape:window-height="792"
     inkscape:window-x="14"
     inkscape:window-y="57"
     inkscape:window-maximized="0"
     fit-margin-top="0"
     fit-margin-left="0"
     fit-margin-right="0"
     fit-margin-bottom="0" />
  <metadata
     id="metadata8285">
    <rdf:RDF>
      <cc:Work
         rdf:about="">
        <dc:format>image/svg+xml</dc:format>
        <dc:type
           rdf:resource="http://purl.org/dc/dcmitype/StillImage" />
        <dc:title />
      </cc:Work>
    </rdf:RDF>
  </metadata>
  <g
     id="layer1"
     inkscape:label="Layer 1"
     inkscape:groupmode="layer"
     transform="translate(0,48)">
    <g
       id="g3583"
       transform="matrix(2,0,0,2,0,-48)">
      <rect
         y="34.5"
         x="8.8251295"
         height="10.500002"
         width="30.349741"
         id="rect13073"
         style="opacity:0.40206185;fill:url(#linearGradient3224);fill-opacity:1;fill-rule:nonzero;stroke:none;stroke-width:1;marker:none;visibility:visible;display:inline;overflow:visible" />
      <path
         inkscape:connector-curvature="0"
         sodipodi:nodetypes="cccc"
         id="path13075"
         d="m 39.174871,34.500359 c 0,0 0,10.499423 0,10.499423 3.236851,0.01976 7.825131,-2.352388 7.825129,-5.250387 0,-2.898 -3.612082,-5.249035 -7.825129,-5.249036 z"
         style="opacity:0.40206185;fill:url(#radialGradient3226);fill-opacity:1;fill-rule:nonzero;stroke:none;stroke-width:1;marker:none;visibility:visible;display:inline;overflow:visible" />
      <path
         inkscape:connector-curvature="0"
         style="opacity:0.40206185;fill:url(#radialGradient3199);fill-opacity:1;fill-rule:nonzero;stroke:none;stroke-width:1;marker:none;visibility:visible;display:inline;overflow:visible"
         d="m 8.8251301,34.500359 c 0,0 0,10.499423 0,10.499423 -3.2368516,0.01976 -7.82513,-2.352388 -7.82513,-5.250387 0,-2.898 3.6120815,-5.249035 7.82513,-5.249036 z"
         id="path13077"
         sodipodi:nodetypes="cccc" />
    </g>
    <path
       style="color:#000000;fill:url(#linearGradient3269);fill-opacity:1;fill-rule:evenodd;stroke:url(#linearGradient3271);stroke-width:1;stroke-linecap:butt;stroke-linejoin:miter;stroke-miterlimit:4;stroke-opacity:1;stroke-dasharray:none;stroke-dashoffset:0;marker:none;visibility:visible;display:inline;overflow:visible;enable-background:accumulate"
       d="m 63,-32 c -1.108,0 -2.0895,0.4645 -2.8125,1.1875 L 56.375,-27 11,-27 c -2.216,0 -4,1.784 -4,4 l 0,56 c 0,1.108 0.892,2 2,2 l 78,0 c 1.108,0 2,-0.892 2,-2 l 0,-61 c 0,-2.216 -1.784,-4 -4,-4 z"
       id="rect3142"
       inkscape:connector-curvature="0"
       sodipodi:nodetypes="sscsccccccss" />
    <path
       style="opacity:0.5;fill:url(#linearGradient3266);fill-opacity:1;display:inline;enable-background:new"
       id="path39053"
       d="m 8.0014792,-3.5 c 0.00618,0.583332 0.01236,1.251666 0.01852,2 l 79.9614648,0 c 0.0062,-0.748334 0.0124,-1.416668 0.0186,-2 l -80.0000028,0 0.00148,0 z"
       inkscape:connector-curvature="0" />
    <g
       transform="matrix(0.44632086,0,0,0.44632086,19.406269,-45.884867)"
       id="g8074">
      <path
         transform="matrix(0.58226724,0,0,0.58226724,-16.759931,-23.573189)"
         d="m 231.16084,147.785 c 0,51.00406 -41.34697,92.35102 -92.35103,92.35102 -51.004056,0 -92.351016,-41.34696 -92.351016,-92.35102 0,-51.004057 41.34696,-92.351017 92.351016,-92.351017 51.00406,0 92.35103,41.34696 92.35103,92.351017 z"
         sodipodi:ry="92.351021"
         sodipodi:rx="92.351021"
         sodipodi:cy="147.785"
         sodipodi:cx="138.80981"
         id="path2285"
         style="fill:url(#radialGradient3076);fill-opacity:1;stroke:none"
         sodipodi:type="arc" />
      <path
         inkscape:connector-curvature="0"
         id="path2197"
         d=""
         style="fill:#000000" />
      <path
         inkscape:connector-curvature="0"
         id="path2185"
         d="m 57.929162,109.98093 c -3.266143,-1.60176 -1.610126,-5.66972 -1.54048,-9.10543 0.920007,-5.110935 -6.362539,-4.612234 -7.169909,-9.302008 -0.927107,-1.99628 -3.78201,-3.74479 -1.601694,-5.555816 -2.567911,-2.284018 4.255396,-3.463812 2.041968,-6.541047 -0.476106,-3.686551 -2.352388,-0.550583 -3.323704,-1.848365 -3.154248,-1.360294 -2.68478,-3.61634 -5.031793,-5.621054 -2.950965,-2.878272 -6.172468,-4.055769 -8.878579,-7.297728 -1.666066,-4.058994 -1.862673,-9.108178 -2.335177,-13.741563 -1.60729,-2.564985 -0.264301,8.234627 -0.959677,6.61121 -1.376395,-3.871393 0.690578,-7.580552 -0.364914,-11.54868 0.254465,-3.710731 2.477745,-7.242645 4.931158,-9.446294 1.0589,-2.668371 0.710395,1.308009 1.841713,-2.032299 -0.194805,-3.53265 3.913881,-6.791993 4.117383,-8.924467 1.03495,-1.905901 -0.385905,-3.286857 0.467863,-3.210613 3.38851,-1.078808 -5.186587,0.344309 -2.365352,-0.505826 1.846333,-1.365364 3.872363,-3.065132 6.011772,-3.224469 1.608974,-2.119342 0.492327,1.649358 2.657116,-0.983034 4.413086,-0.542398 -1.846073,5.355637 2.351098,5.109231 0.565357,1.23608 0.301485,3.840045 1.67686,4.00183 2.457437,-0.597043 2.557343,2.529977 4.288792,0.320702 0.204021,-2.41244 1.630168,-0.986986 0.663102,0.915338 0.884722,-0.664422 -0.28601,2.508781 1.722512,-0.239256 2.202678,0.673083 -1.779402,2.799706 -2.825267,1.933552 1.351249,2.173192 -2.872557,0.118591 -1.613192,1.723239 -3.981244,1.138481 -3.050635,4.656851 -0.09633,6.210695 1.488849,0.572984 -0.0772,5.613455 2.475029,2.880084 -0.08982,-2.069501 2.447614,-3.439576 1.695282,-5.292168 -0.08034,-2.699084 3.158991,-2.559133 3.641232,-0.186823 -0.928202,0.324345 0.998967,3.189503 2.082187,0.146552 1.107054,1.219108 1.08106,3.961301 3.399275,4.435645 -4.720337,1.361434 3.146032,-0.378315 0.317864,2.350582 -2.466355,1.94189 -6.379254,-0.05154 -7.925237,3.536322 0.989003,-1.976456 5.43727,-1.659965 2.751783,-0.659898 0.716845,1.493371 4.154172,2.378166 0.780712,3.257328 -2.455086,0.782112 2.699293,-2.431345 -1.078309,-0.956956 -2.90468,0.553046 -2.660295,3.24572 -5.428229,3.647816 -1.022236,1.362355 -3.174599,0.793337 -1.81141,3.380615 0.291743,1.648119 -5.827071,2.145751 -4.651367,5.604082 0.934854,2.197714 -0.595141,5.005428 -1.24738,1.341148 1.012505,-2.798832 -4.690191,-4.762091 -4.592909,-3.295352 -2.225565,-0.910896 -5.83413,-1.18111 -6.323311,2.560304 -2.395923,3.166803 2.384896,9.603025 4.395944,4.736399 5.683948,-0.800309 -2.795906,5.008451 1.925095,5.159492 4.621215,-0.162355 -0.586767,8.239975 5.233117,6.438777 2.551899,3.34152 3.135613,-1.663813 6.266649,-1.242252 0.250274,-0.254341 0.161554,4.832609 0.55538,1.093193 2.856886,0.01545 5.92634,0.606491 8.690604,1.711332 1.862263,3.482573 7.857597,1.616617 9.4427,5.625691 -1.913289,1.885789 0.100235,4.444394 2.036347,1.839953 2.607665,0.426849 4.976024,1.029477 7.948147,1.152857 6.423864,1.219781 -2.121646,5.896119 -1.827507,9.474707 -1.851262,4.138032 -7.466425,3.533053 -9.439456,7.504932 -1.276342,1.85494 -5.076702,1.89902 -5.886377,2.14132 1.772703,2.05717 -4.618853,1.06312 -4.673295,2.35969 -1.634165,1.08834 0.400119,1.32651 -2.249569,1.75155 l -0.528539,-0.0571 -0.63955,-0.13759 -1.73e-4,-9e-5 z m -2.258221,-1.91152 c -0.008,-0.61294 0.55958,0.6072 0,0 z M 73.078232,86.105224 c 0.651299,-2.189727 3.307042,1.120361 0,0 z m 37.010378,-4.313405 c 1.65997,-3.992877 3.01837,-8.286793 1.71182,-12.47735 0.61902,-2.339057 -0.40527,-3.757855 -1.43264,-2.070993 -2.37654,-1.209294 -4.877,8.194566 -8.96565,4.133833 -1.512227,-2.752941 -2.866284,-1.399188 -3.415666,-4.348905 0.234834,-3.700887 -2.099402,-6.560205 -0.785311,-10.359497 2.410225,-3.241902 -1.554959,-9.134509 2.525656,-10.479504 0.533511,-2.589381 3.119841,-7.335938 4.571431,-2.705435 2.6111,-0.278574 3.42816,-1.079708 2.4574,-3.70361 3.65179,-1.232246 -2.97032,-10.450957 -1.77148,-5.526364 -2.22768,1.285259 -2.42862,-4.87944 -3.55782,-6.605245 -1.874352,-0.319828 -4.280031,-2.91856 -1.709729,0.216865 1.248129,0.942076 -2.169859,-0.214152 0.353319,1.825383 1.91999,1.749087 3.42085,4.997195 3.42574,6.552382 -1.27147,-1.979648 -8.027042,-2.403053 -3.38654,-0.271448 2.68305,0.111193 3.4467,2.67121 -0.12892,0.954479 -3.693481,-1.297782 -2.006752,5.011349 -1.143734,7.238796 -0.983813,4.723909 -4.50696,1.000006 -5.446442,-1.937552 3.68074,-1.565648 1.690933,-4.642026 -1.038713,-5.183022 1.176965,-0.914737 0.622168,-3.183431 0.03678,-4.984004 -1.073259,-2.468495 0.782143,-1.738234 1.035178,-4.107331 -1.265802,-2.187779 -2.625072,-3.430427 -4.109036,-4.92599 1.035395,3.691687 -6.925894,-4.238771 -2.770906,0.316931 1.843785,2.529213 3.864974,1.977717 5.30932,4.979702 -0.29693,1.041239 -4.573437,-3.155945 -2.81879,0.176627 -2.026142,-0.361266 -1.461301,-1.495926 -2.52926,-1.402287 -0.631347,-3.111143 -5.078237,-4.993169 -4.99009,-7.711437 1.130709,-0.613589 3.635169,-1.113875 3.156787,0.643545 4.376172,0.806274 -1.110759,-2.274792 -2.496414,-3.353728 -1.657333,-1.908061 -4.145327,-2.752813 -5.934219,-2.808401 2.179476,-0.1197 5.456823,0.192694 1.390421,-0.450354 -1.468151,0.29872 -2.805272,-0.608832 -3.542643,-0.568991 -1.600512,0.01732 -8.719748,0.05828 -6.798257,-0.981669 2.684837,-0.501039 -4.742433,-0.01279 -5.846182,-0.666214 -3.826848,1.225102 -8.373436,1.012411 -11.562913,3.620339 -1.598282,0.734741 -7.210714,3.651067 -2.912033,0.738174 -1.290476,-0.0018 -2.946777,0.36604 -0.384507,-1.436339 1.310693,-0.92442 4.693713,-1.699975 7.484341,-2.698383 18.038179,-4.1757118 37.964073,2.923012 49.523242,17.341281 2.58022,2.979636 5.66353,8.000759 6.57634,10.705585 -4.23374,-4.080848 2.67989,3.726823 2.42574,5.905249 3.70181,11.833025 3.02984,25.279617 -2.50562,36.414882 z M 58.951894,70.702952 c -0.333195,-0.659539 1.700044,0.461295 0,0 z m -3.953077,-0.193635 c -2.8096,-1.012429 0.546976,-2.880576 2.579353,-0.327195 -0.859898,-0.0863 -1.902731,0.213918 -2.579353,0.327195 z m -2.06017,-0.532496 c 0.705975,-0.335275 0.01589,-0.123085 0,0 z m -2.140314,-2.034429 c -0.601446,-2.375195 -7.635803,-2.853006 -3.831085,-3.022726 1.265665,-0.207562 8.868052,4.944307 3.831085,3.022726 z m 3.072632,-15.285744 c 0.149987,-2.992547 0.716253,1.513064 0,0 z M 63.964464,46.67744 c 0.420874,-1.654624 1.036441,0.55957 0,0 z m -1.226572,-0.327244 c 0.67107,-0.206744 0.334854,0.317446 0,0 z m 5.711215,-0.726558 c -0.102726,-1.63305 0.914982,1.02635 0,0 z m -0.717104,-0.377956 c -3.574609,1.300046 -1.901336,-2.404443 -0.912068,-2.899517 -1.532784,2.007266 3.398546,0.92421 0.912068,2.899517 z m -5.031565,-1.596284 c -0.222736,-0.784332 1.475621,0.908443 0,0 z M 100.60043,39.55644 c -1.789941,-2.529286 1.64263,1.298297 0,0 z m 2.00639,0.05658 c 0.18596,-1.927296 1.90798,0.835263 0,0 z M 99.4849,37.938956 c -0.629167,-0.895521 1.11942,1.088632 0,0 z m 4.6257,-1.077663 c -0.95958,-1.581742 1.26944,0.462604 0,0 z M 88.590633,36.086232 c -1.060729,-1.014535 -1.108845,-4.02897 0.55142,-1.359912 0.436861,0.194864 -0.0491,2.027224 -0.55142,1.359912 z m 2.436384,-0.789816 c -0.922829,-0.542356 -1.569248,-2.482865 -3.69163,-3.169223 -2.443204,-3.086757 3.091583,1.158924 4.52072,1.573851 1.359513,0.263988 -1.288119,3.442729 -0.82909,1.595372 z M 34.763318,35.042001 c 0.166391,-3.594668 1.040377,-1.32895 0,0 z m 36.347311,-0.543555 c -2.812538,-1.107242 -4.581725,-3.745912 -3.566324,-6.298384 -1.31824,-0.465898 -0.107624,-0.907774 -1.486947,-1.415117 -0.371042,-2.798422 -4.094821,-2.812297 -3.090576,-3.55463 0.213684,-0.721358 1.494434,-2.702162 3.184996,-2.470814 0.945715,-1.149424 2.637576,-1.042869 1.890791,-0.163072 1.75973,0.133306 1.860432,-1.085237 2.13583,0.489798 0.985216,1.210327 4.449378,2.60792 2.494899,3.801337 2.819555,0.893635 1.394058,1.019306 0.769481,0.975676 0.706355,0.655573 -0.632131,1.127703 1.53094,0.639947 -1.408383,1.783755 -2.328087,2.941879 -3.377594,4.708378 0.209778,0.684262 0.787006,3.809344 -0.485496,3.286881 z m -9.90127,-1.13092 c -0.862546,-1.742898 -4.950602,-1.947661 -1.437225,-2.590101 2.697633,-3.365764 -3.693147,-3.040413 -2.887836,-4.87399 2.353588,-1.976895 0.754483,-0.229739 0.780906,0.871157 1.135736,-2.304788 1.384398,-0.444734 2.95487,-0.418383 1.155935,1.316042 2.273134,3.214272 3.162102,4.456642 -0.936934,0.743454 -3.012418,-1.217287 -1.057647,1.466286 0.209451,1.833988 -2.553481,-1.122835 -0.776102,1.428206 l -0.270205,-0.04721 -0.468877,-0.292612 1.4e-5,5e-6 z M 56.491178,33.16498 c 0.852509,-0.821676 0.123215,0.528502 0,0 z m -1.503847,-1.623814 c -0.115838,-3.43118 3.375148,1.524146 0.539568,0.05541 l -0.39547,0.198648 -0.1441,-0.254058 2e-6,-4e-6 z m 22.94517,-1.922372 c 0.690588,-4.821359 4.216668,1.668145 0,0 z m 13.255986,0.183914 c -2.770709,-2.447793 1.304287,0.165493 0,0 z M 59.07119,29.408106 c 0.872025,-1.358337 0.254817,0.941188 0,0 z m 18.077857,-0.529332 c 0.312266,-0.859272 0.192307,1.081356 0,0 z m 14.388361,0.155265 c 0.671028,-0.20673 0.334857,0.317428 0,0 z M 66.334047,28.232791 c 0.394607,-0.756021 1.327673,0.957596 0,0 z M 53.471036,27.118758 c 0.319662,-1.350493 1.092145,0.730941 0,0 z m -1.485274,-1.078386 c -1.763727,0.239942 -2.674738,-2.214019 -0.647811,-1.531484 -1.481808,-1.585883 2.468855,-2.062601 1.553652,-0.157927 2.399273,-2.441825 -0.270547,3.43087 -0.905841,1.689411 z m -1.008418,0.06666 c 1.134258,-0.180819 0.01414,0.315385 0,0 z m 8.612512,-0.500177 c 0.651585,-0.780676 1.422171,1.065123 0,0 z m -4.971649,-0.5932 c 1.633552,-2.480277 1.68896,0.958509 0,0 z m 1.32614,0.124645 c 1.460643,-1.525047 2.495146,-0.04929 0,0 z m 3.189818,-0.538032 c -2.0828,-0.916094 -1.121853,-2.307361 0.41332,-0.559823 1.425822,-0.283579 0.125703,1.304327 -0.41332,0.559823 z m -2.096157,-0.924366 c 0.967635,-0.846892 0.27602,0.785075 0,0 z m 2.77045,-0.179809 c -1.331793,-0.953821 1.324582,-0.343498 1.096576,-1.879953 0.634686,0.531601 2.329701,-1.014173 0.02645,-0.650665 2.257896,-1.46321 4.619419,-0.267434 1.7751,1.019956 -1.590201,0.369408 -1.565437,2.034497 -2.898121,1.510662 z m -3.31728,-0.14004 c 0.283253,-0.944562 1.687336,-0.568904 0,0 z m -6.072016,-0.758077 c 2.448548,-2.675815 4.1902,1.133197 0,0 z m 4.066979,0.02036 c -1.298461,-1.214746 2.613821,-0.293618 0,6e-6 l 0,-6e-6 z m 4.92144,-0.582913 c 0.761541,-2.210763 2.215247,-0.201971 0,0 z m -0.911375,-0.182278 c 0.516449,0.0086 0.193386,-0.02183 0,0 z M 57.890847,21.72362 c 0.01123,-1.389335 0.811149,0.255411 0,0 z M 36.53332,21.490686 c 0.09792,-0.456188 0.795102,0.692772 0,0 z m 17.86169,-0.36664 c -1.297391,-0.606258 2.159284,0.337539 0,0 z m -3.967537,-5.855423 c 0.978625,-0.543092 -0.444128,0.560185 0,0 z"
         style="fill:url(#linearGradient3078);fill-opacity:1" />
      <g
         transform="matrix(0.33854418,0,0,0.33854418,-896.68909,-180.76984)"
         id="Foreground_Grid_1_" />
      <path
         inkscape:connector-curvature="0"
         sodipodi:nodetypes="cccscc"
         id="path4041-0"
         d="m 63.78496,10.147813 c -23.005004,0 -42.50156,15.062604 -49.099951,35.81256 4.987265,7.165004 14.113932,13.004078 25.54384,16.392427 0.315818,-1.411032 0.637972,-2.824762 1.008702,-4.251021 C 48.068489,31.821887 61.974617,12.270665 73.812624,11.126465 70.568741,10.487742 67.216308,10.147813 63.78496,10.147813 z"
         style="fill:url(#linearGradient3080);fill-opacity:1;stroke:none" />
    </g>
    <g
       id="g3035">
      <path
         d="m 90.493984,33.714448 c -0.06074,0.752758 -1.335732,1.28597 -2.499686,1.28597 l -79.9899374,0 c -1.163934,0 -2.438312,-0.533212 -2.499686,-1.28597 L 3.0049906,0.286384 c -0.08468,-0.751384 0.835794,-1.285966 1.999748,-1.285966 l 85.9891834,0 c 1.163954,0 2.088616,0.534582 1.999748,1.285966 l -2.499686,33.428064 z"
         id="path3300"
         style="opacity:0.9;color:#000000;fill:url(#linearGradient3255);fill-opacity:1;fill-rule:nonzero;stroke:url(#linearGradient3257);stroke-width:0.99958181;stroke-linecap:butt;stroke-linejoin:miter;stroke-miterlimit:4;stroke-opacity:1;stroke-dasharray:none;stroke-dashoffset:0;marker:none;visibility:visible;display:inline;overflow:visible;enable-background:new"
         sodipodi:nodetypes="cccccccccc"
         inkscape:connector-curvature="0" />
      <rect
         ry="0"
         rx="0"
         y="-0.5"
         x="3.9999948"
         height="1"
         width="88"
         id="rect3521-5"
         style="fill:url(#linearGradient3251);fill-opacity:1;stroke:none;display:inline;enable-background:new" />
    </g>
  </g>
</svg>
