<?xml version="1.0" encoding="UTF-8" standalone="no"?>
<!-- Created with Inkscape (http://www.inkscape.org/) -->

<svg
   xmlns:dc="http://purl.org/dc/elements/1.1/"
   xmlns:cc="http://creativecommons.org/ns#"
   xmlns:rdf="http://www.w3.org/1999/02/22-rdf-syntax-ns#"
   xmlns:svg="http://www.w3.org/2000/svg"
   xmlns="http://www.w3.org/2000/svg"
   xmlns:xlink="http://www.w3.org/1999/xlink"
   xmlns:sodipodi="http://sodipodi.sourceforge.net/DTD/sodipodi-0.dtd"
   xmlns:inkscape="http://www.inkscape.org/namespaces/inkscape"
   width="96"
   height="96"
   id="svg3941"
   version="1.1"
   inkscape:version="0.48.4 r9939"
   sodipodi:docname="edit-paste.svg">
  <sodipodi:namedview
     id="base"
     pagecolor="#ffffff"
     bordercolor="#666666"
     borderopacity="1.0"
     inkscape:pageopacity="0.0"
     inkscape:pageshadow="2"
     inkscape:zoom="4"
     inkscape:cx="48"
     inkscape:cy="48"
     inkscape:current-layer="layer1"
     showgrid="true"
     inkscape:document-units="px"
     inkscape:grid-bbox="true"
     inkscape:window-width="1053"
     inkscape:window-height="776"
     inkscape:window-x="47"
     inkscape:window-y="61"
     inkscape:window-maximized="0" />
  <defs
     id="defs3943">
    <linearGradient
       id="linearGradient5061">
      <stop
         id="stop5063"
         offset="0"
         style="stop-color:#454545;stop-opacity:1;" />
      <stop
         style="stop-color:#b0b0b0;stop-opacity:1;"
         offset="0.48275861"
         id="stop5065" />
      <stop
         id="stop5067"
         offset="1"
         style="stop-color:#f8f8f8;stop-opacity:1;" />
    </linearGradient>
    <linearGradient
       id="linearGradient5055">
      <stop
         id="stop5057"
         offset="0"
         style="stop-color:#ffffff;stop-opacity:1;" />
      <stop
         id="stop5059"
         offset="1"
         style="stop-color:#ffffff;stop-opacity:0.50196081;" />
    </linearGradient>
    <radialGradient
       gradientUnits="userSpaceOnUse"
       r="139.5585"
       cy="112.3047"
       cx="102"
       id="XMLID_7_">
      <stop
         id="stop16"
         style="stop-color:#3e3e3e;stop-opacity:1;"
         offset="0" />
      <stop
         id="stop26"
         style="stop-color:#dfdfdf;stop-opacity:1;"
         offset="0.1737" />
      <stop
         id="stop28"
         style="stop-color:#ECF2F5"
         offset="0.2099" />
      <stop
         id="stop30"
         style="stop-color:#FAFCFD"
         offset="0.2435" />
      <stop
         id="stop32"
         style="stop-color:#FFFFFF"
         offset="0.2722" />
    </radialGradient>
    <radialGradient
       gradientUnits="userSpaceOnUse"
       r="139.55859"
       cy="112.3047"
       cx="102"
       id="XMLID_8_">
      <stop
         id="stop37"
         style="stop-color:#535557"
         offset="0" />
      <stop
         id="stop41"
         style="stop-color:#898A8C"
         offset="0.11366145" />
      <stop
         id="stop47"
         style="stop-color:#ECECEC"
         offset="0.20296688" />
      <stop
         id="stop49"
         style="stop-color:#FAFAFA"
         offset="0.2363" />
      <stop
         id="stop51"
         style="stop-color:#FFFFFF"
         offset="0.2722" />
      <stop
         id="stop53"
         style="stop-color:#FAFAFA"
         offset="0.5313" />
      <stop
         id="stop55"
         style="stop-color:#EBECEC"
         offset="0.8449" />
      <stop
         id="stop57"
         style="stop-color:#E1E2E3"
         offset="1" />
    </radialGradient>
    <linearGradient
       y2="94.536598"
       x2="86.535599"
       y1="102.3447"
       x1="94.343803"
       gradientUnits="userSpaceOnUse"
       id="XMLID_9_">
      <stop
         id="stop62"
         style="stop-color:#FFFFFF"
         offset="0" />
      <stop
         id="stop64"
         style="stop-color:#555753"
         offset="1" />
    </linearGradient>
    <linearGradient
       y2="94.586502"
       x2="86.586502"
       y1="103"
       x1="95"
       gradientUnits="userSpaceOnUse"
       id="XMLID_10_">
      <stop
         id="stop69"
         style="stop-color:#FFFFFF"
         offset="0" />
      <stop
         id="stop71"
         style="stop-color:#555753"
         offset="1" />
    </linearGradient>
    <linearGradient
       y2="95.292999"
       x2="87.292999"
       y1="103"
       x1="95"
       gradientUnits="userSpaceOnUse"
       id="XMLID_11_">
      <stop
         id="stop76"
         style="stop-color:#FFFFFF"
         offset="0" />
      <stop
         id="stop78"
         style="stop-color:#393B38"
         offset="1" />
    </linearGradient>
    <linearGradient
       y2="96.000198"
       x2="88.000198"
       y1="104"
       x1="96"
       gradientUnits="userSpaceOnUse"
       id="XMLID_12_">
      <stop
         id="stop83"
         style="stop-color:#888A85"
         offset="0" />
      <stop
         id="stop85"
         style="stop-color:#8C8E89"
         offset="0.0072" />
      <stop
         id="stop87"
         style="stop-color:#ABACA9"
         offset="0.0673" />
      <stop
         id="stop89"
         style="stop-color:#C5C6C4"
         offset="0.1347" />
      <stop
         id="stop91"
         style="stop-color:#DBDBDA"
         offset="0.2115" />
      <stop
         id="stop93"
         style="stop-color:#EBEBEB"
         offset="0.3012" />
      <stop
         id="stop95"
         style="stop-color:#F7F7F6"
         offset="0.4122" />
      <stop
         id="stop97"
         style="stop-color:#FDFDFD"
         offset="0.5679" />
      <stop
         id="stop99"
         style="stop-color:#FFFFFF"
         offset="1" />
    </linearGradient>
    <linearGradient
       id="linearGradient3149">
      <stop
         style="stop-color:#454545;stop-opacity:1;"
         offset="0"
         id="stop3151" />
      <stop
         id="stop3920"
         offset="0.48275861"
         style="stop-color:#cacaca;stop-opacity:1;" />
      <stop
         style="stop-color:#f8f8f8;stop-opacity:1;"
         offset="1"
         id="stop3153" />
    </linearGradient>
    <linearGradient
       id="linearGradient4005"
       inkscape:collect="always">
      <stop
         id="stop4007"
         offset="0"
         style="stop-color:#000000;stop-opacity:1;" />
      <stop
         id="stop4009"
         offset="1"
         style="stop-color:#000000;stop-opacity:0;" />
    </linearGradient>
    <linearGradient
       id="linearGradient4077"
       inkscape:collect="always">
      <stop
         id="stop4079"
         offset="0"
         style="stop-color:#000000;stop-opacity:1;" />
      <stop
         id="stop4081"
         offset="1"
         style="stop-color:#000000;stop-opacity:0;" />
    </linearGradient>
    <mask
       id="mask4131"
       maskUnits="userSpaceOnUse">
      <rect
         transform="matrix(-1,0,-0.3481553,0.9374369,0,0)"
         y="10.285005"
         x="-101.64659"
         height="28.561073"
         width="65.186401"
         id="rect4133"
         style="fill:url(#linearGradient4135);fill-opacity:1;stroke:none" />
    </mask>
    <linearGradient
       y2="21.381557"
       x2="101.6466"
       y1="21.105345"
       x1="56.623783"
       gradientTransform="matrix(1,0,0,1.1489125,-138.10679,0)"
       gradientUnits="userSpaceOnUse"
       id="linearGradient4135"
       xlink:href="#linearGradient3235"
       inkscape:collect="always" />
    <linearGradient
       id="linearGradient3235">
      <stop
         style="stop-color:#ffffff;stop-opacity:1;"
         offset="0"
         id="stop3237" />
      <stop
         style="stop-color:#ffffff;stop-opacity:0;"
         offset="1"
         id="stop3239" />
    </linearGradient>
    <linearGradient
       id="linearGradient4811"
       inkscape:collect="always">
      <stop
         id="stop4813"
         offset="0"
         style="stop-color:#000000;stop-opacity:1;" />
      <stop
         id="stop4815"
         offset="1"
         style="stop-color:#000000;stop-opacity:0;" />
    </linearGradient>
    <linearGradient
       y2="0"
       x2="28"
       y1="57.5"
       x1="28"
       gradientUnits="userSpaceOnUse"
       id="linearGradient2575-206-9-353">
      <stop
         id="stop4011"
         style="stop-color:#626262;stop-opacity:1;"
         offset="0" />
      <stop
         id="stop4013"
         style="stop-color:#0c0c0c;stop-opacity:1;"
         offset="1" />
    </linearGradient>
    <linearGradient
       id="linearGradient3400-662-962-671"
       inkscape:collect="always">
      <stop
         id="stop4017"
         offset="0"
         style="stop-color:#ffffff;stop-opacity:1;" />
      <stop
         id="stop4019"
         offset="1"
         style="stop-color:#ffffff;stop-opacity:0;" />
    </linearGradient>
    <linearGradient
       y2="0"
       x2="28"
       y1="57.5"
       x1="28"
       gradientUnits="userSpaceOnUse"
       id="linearGradient2575-836-446-756">
      <stop
         id="stop4023"
         style="stop-color:#626262;stop-opacity:1;"
         offset="0" />
      <stop
         id="stop4025"
         style="stop-color:#0c0c0c;stop-opacity:1;"
         offset="1" />
    </linearGradient>
    <linearGradient
       id="linearGradient3368-180-907-336"
       gradientUnits="userSpaceOnUse"
       x1="28"
       y1="57.5"
       x2="28"
       y2="0">
      <stop
         offset="0"
         style="stop-color:#909090;stop-opacity:1;"
         id="stop4029" />
      <stop
         offset="1"
         style="stop-color:#404040;stop-opacity:1;"
         id="stop4031" />
    </linearGradient>
    <linearGradient
       id="linearGradient3638-879-87-416">
      <stop
         id="stop4035"
         offset="0"
         style="stop-color:#ffffff;stop-opacity:0;" />
      <stop
         style="stop-color:#ffffff;stop-opacity:1;"
         offset="0.06868132"
         id="stop4037" />
      <stop
         style="stop-color:#ffffff;stop-opacity:1;"
         offset="0.5"
         id="stop4039" />
      <stop
         id="stop4041"
         offset="1"
         style="stop-color:#ffffff;stop-opacity:0;" />
    </linearGradient>
    <radialGradient
       inkscape:collect="always"
       xlink:href="#XMLID_7_"
       id="radialGradient3173"
       gradientUnits="userSpaceOnUse"
       gradientTransform="translate(8.0000028,3.9999997)"
       cx="102"
       cy="112.3047"
       r="139.5585" />
    <radialGradient
       inkscape:collect="always"
       xlink:href="#XMLID_8_"
       id="radialGradient3175"
       gradientUnits="userSpaceOnUse"
       gradientTransform="translate(8.0000028,3.9999997)"
       cx="102"
       cy="112.3047"
       r="139.55859" />
    <linearGradient
       inkscape:collect="always"
       xlink:href="#XMLID_9_"
       id="linearGradient3177"
       gradientUnits="userSpaceOnUse"
       gradientTransform="translate(8.0000028,3.9999997)"
       x1="94.343803"
       y1="102.3447"
       x2="86.535599"
       y2="94.536598" />
    <linearGradient
       inkscape:collect="always"
       xlink:href="#XMLID_10_"
       id="linearGradient3179"
       gradientUnits="userSpaceOnUse"
       gradientTransform="translate(8.0000028,3.9999997)"
       x1="95"
       y1="103"
       x2="86.586502"
       y2="94.586502" />
    <linearGradient
       inkscape:collect="always"
       xlink:href="#XMLID_11_"
       id="linearGradient3181"
       gradientUnits="userSpaceOnUse"
       gradientTransform="translate(8.0000028,3.9999997)"
       x1="95"
       y1="103"
       x2="87.292999"
       y2="95.292999" />
    <linearGradient
       inkscape:collect="always"
       xlink:href="#XMLID_12_"
       id="linearGradient3183"
       gradientUnits="userSpaceOnUse"
       gradientTransform="translate(8.0000028,3.9999997)"
       x1="96"
       y1="104"
       x2="88.000198"
       y2="96.000198" />
    <linearGradient
       inkscape:collect="always"
       xlink:href="#linearGradient4077"
       id="linearGradient3228"
       gradientUnits="userSpaceOnUse"
       x1="56.827953"
       y1="-34.582161"
       x2="76.486145"
       y2="38.820595" />
    <linearGradient
       inkscape:collect="always"
       xlink:href="#linearGradient4811"
       id="linearGradient3239"
       gradientUnits="userSpaceOnUse"
       gradientTransform="matrix(0.7,0,0,0.7,8.8003909,-28.5)"
       x1="50.759903"
       y1="-2.1362097"
       x2="50.759903"
       y2="1.3951097" />
    <linearGradient
       inkscape:collect="always"
       xlink:href="#linearGradient3235"
       id="linearGradient3242"
       gradientUnits="userSpaceOnUse"
       gradientTransform="matrix(0.7,0,0,0.7,3.3403909,-27.59)"
       x1="48.461166"
       y1="1.3560734"
       x2="75.130096"
       y2="1.3560734" />
    <linearGradient
       inkscape:collect="always"
       xlink:href="#linearGradient5055"
       id="linearGradient3245"
       gradientUnits="userSpaceOnUse"
       gradientTransform="matrix(0.79126425,0,0,0.7,-4.465804,-28.85)"
       x1="48.61359"
       y1="10.752187"
       x2="84"
       y2="10.752187" />
    <linearGradient
       inkscape:collect="always"
       xlink:href="#linearGradient5061"
       id="linearGradient3248"
       gradientUnits="userSpaceOnUse"
       gradientTransform="matrix(0.77777819,0,0,1.12,-0.2218391,-29.071109)"
       spreadMethod="reflect"
       x1="58.073513"
       y1="5.5073318"
       x2="58.073513"
       y2="12.044647" />
    <linearGradient
       inkscape:collect="always"
       xlink:href="#linearGradient4005"
       id="linearGradient3252"
       gradientUnits="userSpaceOnUse"
       gradientTransform="matrix(0.7,0,0,0.7,3.2003909,-23.58)"
       x1="63.085938"
       y1="19.992191"
       x2="63.085938"
       y2="13.937426" />
    <linearGradient
       inkscape:collect="always"
       xlink:href="#linearGradient3149"
       id="linearGradient3255"
       gradientUnits="userSpaceOnUse"
       gradientTransform="matrix(0.8594726,0,0,0.9005024,77.652111,-19.101002)"
       x1="-34.499901"
       y1="-1.3553318"
       x2="-34.499901"
       y2="-11.966981" />
    <linearGradient
       inkscape:collect="always"
       xlink:href="#linearGradient3400-662-962-671"
       id="linearGradient4146"
       gradientUnits="userSpaceOnUse"
       gradientTransform="matrix(0.7,0,0,0.7,8.8003909,-28.5)"
       x1="88.966972"
       y1="5.7464399"
       x2="-36.418835"
       y2="5.7464399" />
    <linearGradient
       inkscape:collect="always"
       xlink:href="#linearGradient2575-836-446-756"
       id="linearGradient4149"
       gradientUnits="userSpaceOnUse"
       gradientTransform="matrix(-0.7,0,0,0.7,92.797948,-28.5)"
       x1="79.587105"
       y1="-25.960203"
       x2="110.8327"
       y2="90.649948" />
    <linearGradient
       inkscape:collect="always"
       xlink:href="#linearGradient2575-206-9-353"
       id="linearGradient4153"
       gradientUnits="userSpaceOnUse"
       gradientTransform="matrix(0.7,0,0,0.7,3.2020566,-28.5)"
       x1="79.587105"
       y1="-25.960203"
       x2="110.8327"
       y2="90.649948" />
    <linearGradient
       inkscape:collect="always"
       xlink:href="#linearGradient3368-180-907-336"
       id="linearGradient4156"
       gradientUnits="userSpaceOnUse"
       gradientTransform="matrix(0.7,0,0,0.7,3.2003881,-28.5)"
       x1="104.79343"
       y1="29.857143"
       x2="22.32876"
       y2="114.62719" />
    <linearGradient
       inkscape:collect="always"
       xlink:href="#linearGradient3638-879-87-416"
       id="linearGradient4159"
       gradientUnits="userSpaceOnUse"
       gradientTransform="matrix(0.7,0,0,0.7,3.2003881,-29.199998)"
       x1="73.615906"
       y1="97.608109"
       x2="73.943695"
       y2="138.20813" />
  </defs>
  <metadata
     id="metadata3946">
    <rdf:RDF>
      <cc:Work
         rdf:about="">
        <dc:format>image/svg+xml</dc:format>
        <dc:type
           rdf:resource="http://purl.org/dc/dcmitype/StillImage" />
        <dc:title />
      </cc:Work>
    </rdf:RDF>
  </metadata>
  <g
     transform="translate(0,32)"
     inkscape:groupmode="layer"
     inkscape:label="Layer 1"
     id="layer1">
    <g
       id="g4161">
      <path
         inkscape:connector-curvature="0"
         id="path4213"
         d="m 14.400391,51.409375 0,0.7 c 0,1.488851 1.201767,2.690625 2.690625,2.690625 l 61.81875,0 c 1.488851,0 2.690625,-1.201774 2.690625,-2.690625 l 0,-0.7 c 0,1.488851 -1.201774,2.690625 -2.690625,2.690625 l -61.81875,0 c -1.488858,0 -2.690625,-1.201774 -2.690625,-2.690625 z"
         style="fill:url(#linearGradient4159);fill-opacity:1;stroke:none" />
      <path
         inkscape:connector-curvature="0"
         style="fill:url(#linearGradient4156);fill-opacity:1;stroke:none"
         d="m 20.372266,-20.1 c -3.309824,0 -5.971875,2.662056 -5.971875,5.971875 l 0,66.9375 c 0,1.488851 1.201767,2.690625 2.690625,2.690625 l 61.81875,0 c 1.488851,0 2.690625,-1.201774 2.690625,-2.690625 l 0,-66.9375 c 0,-3.309819 -2.662058,-5.971875 -5.971875,-5.971875 l -55.25625,0 z"
         id="rect2834"
         sodipodi:nodetypes="ccccccccc" />
      <path
         inkscape:connector-curvature="0"
         style="fill:url(#linearGradient4153);fill-opacity:1;stroke:none"
         d="m 74.930175,-20.1 c 3.309817,0 5.971882,2.662056 5.971875,5.971875 l 0,66.9375 c 0,1.488851 -1.201767,2.690625 -2.690625,2.690625 l 0.7,0 c 1.488858,0 2.690625,-1.201774 2.690625,-2.690625 l 0,-66.9375 C 81.602057,-17.437944 78.939992,-20.1 75.630175,-20.1 l -0.7,0 z"
         id="path4181" />
      <path
         inkscape:connector-curvature="0"
         sodipodi:nodetypes="ccccccccc"
         style="opacity:0.5955056;fill:#0c0c0c;fill-opacity:1;stroke:none"
         d="m 20.459768,-20.03 c -3.309831,0 -5.99375,2.662056 -5.99375,5.971875 l 0,0.7 c 0,-3.309819 2.683919,-5.971875 5.99375,-5.971875 l 55.094373,0 c 3.309817,0 5.971875,2.662056 5.971875,5.971875 l 0,-0.7 c 0,-3.309819 -2.662058,-5.971875 -5.971875,-5.971875 l -55.094373,0 z"
         id="path3374" />
      <path
         inkscape:connector-curvature="0"
         id="path4192"
         d="m 21.069825,-20.1 c -3.309817,0 -5.971882,2.662056 -5.971875,5.971875 l 0,66.9375 c 0,1.488851 1.201767,2.690625 2.690625,2.690625 l -0.7,0 c -1.488858,0 -2.690625,-1.201774 -2.690625,-2.690625 l 0,-66.9375 C 14.397943,-17.437944 17.060008,-20.1 20.369825,-20.1 l 0.7,0 z"
         style="fill:url(#linearGradient4149);fill-opacity:1;stroke:none" />
      <path
         inkscape:connector-curvature="0"
         id="path4819"
         d="m 20.879768,-19.33 c -3.309831,0 -5.99375,2.662056 -5.99375,5.971875 l 0,0.7 c 0,-3.309819 2.683919,-5.971875 5.99375,-5.971875 l 54.254373,0 c 3.309817,0 5.971875,2.662056 5.971875,5.971875 l 0,-0.7 c 0,-3.309819 -2.662058,-5.971875 -5.971875,-5.971875 l -54.254373,0 z"
         style="opacity:0.78277151;fill:url(#linearGradient4146);fill-opacity:1;stroke:none"
         sodipodi:nodetypes="ccccccccc" />
      <path
         inkscape:connector-curvature="0"
         style="fill:#0c0c0c;fill-opacity:1;stroke:none"
         d="m 14.400391,52.109375 0,0.7 c 0,1.488851 1.201767,2.690625 2.690625,2.690625 l 61.81875,0 c 1.488851,0 2.690625,-1.201774 2.690625,-2.690625 l 0,-0.7 c 0,1.488851 -1.201774,2.690625 -2.690625,2.690625 l -61.81875,0 c -1.488858,0 -2.690625,-1.201774 -2.690625,-2.690625 z"
         id="path4196" />
    </g>
    <g
       transform="matrix(0.7,0,0,0.7,-8.0039841,-36.9)"
       id="g3538">
      <path
         inkscape:connector-curvature="0"
         style="opacity:0.7715356;fill:none;stroke:none"
         d="m 41.000003,32 0,90 c 0,1.104 0.896,2 2,2 l 42.1875,0 c 0.53,0 1.03125,-0.21875 1.40625,-0.59375 0,0 11.90625,-9.90625 17.406247,-15.40625 5.5,-5.5 15.40625,-17.40625 15.40625,-17.40625 C 119.78125,90.218751 120,89.7175 120,89.1875 L 120,32 41.000003,32 z"
         id="path4749"
         sodipodi:nodetypes="cccccscccc" />
      <path
         inkscape:connector-curvature="0"
         sodipodi:nodetypes="cccccscccc"
         id="path2260"
         d="m 40.200003,32.3 0,89.7 c 0,1.104 0.896,2 2,2 l 42.9875,0 c 0.53,0 1.03125,-0.21875 1.40625,-0.59375 0,0 11.90625,-9.90625 17.406247,-15.40625 5.5,-5.5 15.40625,-17.40625 15.40625,-17.40625 C 119.78125,90.218751 120,89.7175 120,89.1875 l 0,-56.8875 -79.799997,0 z"
         style="opacity:0.55805209;fill:none;stroke:none" />
      <path
         inkscape:connector-curvature="0"
         sodipodi:nodetypes="ccccccccc"
         id="path2262"
         d="m 40.000003,32 0,90 c 0,1.104 0.896,2 2,2 l 43.172,0 c 0.53,0 1.039,-0.211 1.414,-0.586 L 119.414,90.586 C 119.789,90.211 120,89.702 120,89.172 L 120,32 40.000003,32 z"
         style="fill:url(#radialGradient3173);stroke:none" />
      <path
         inkscape:connector-curvature="0"
         sodipodi:nodetypes="ccccccccccc"
         id="path2264"
         d="m 42.000003,33 c -0.551,0 -1,0.449 -1,1 l 0,88 c 0,0.552 0.449,1 1,1 l 44.172,0 c 0.263,0 0.521,-0.106 0.707,-0.293 L 118.707,90.879 C 118.894,90.692 119,90.435 119,90.172 L 119,34 c 0,-0.551 -0.448,-1 -1,-1 l -75.999997,0 z"
         style="fill:url(#radialGradient3175);fill-opacity:1;stroke:none" />
      <path
         inkscape:connector-curvature="0"
         style="opacity:0.15;fill:url(#linearGradient3177);stroke:none"
         id="path2266"
         d="M 119.414,90.586 C 119.664,90.336 101.035,97 96.000003,97 c -1.654,0 -3,1.346 -3,3 0,5.035 -6.664,23.664 -6.414,23.414 L 119.414,90.586 z" />
      <path
         inkscape:connector-curvature="0"
         style="opacity:0.2;fill:url(#linearGradient3179);stroke:none"
         id="path2268"
         d="M 119.414,90.586 C 119.789,90.211 105.444,98 96.000003,98 c -1.103,0 -2,0.897 -2,2 0,9.444 -7.789,23.789 -7.414,23.414 L 119.414,90.586 z" />
      <path
         inkscape:connector-curvature="0"
         style="opacity:0.25;fill:url(#linearGradient3181);stroke:none"
         id="path2270"
         d="M 119.414,90.586 C 119.653,90.347 105.807,99 96.000003,99 c -0.553,0 -1,0.447 -1,1 0,9.807 -8.653,23.653 -8.414,23.414 L 119.414,90.586 z" />
      <path
         inkscape:connector-curvature="0"
         sodipodi:nodetypes="csccc"
         style="fill:url(#linearGradient3183);stroke:none"
         id="path2272"
         d="m 86.586003,123.414 c 0,0 11.914,-9.914 17.413997,-15.414 5.5,-5.5 15.414,-17.414 15.414,-17.414 0,0 -13.164,9.36712 -23.413997,9.36712 0,10.25001 -9.414,23.46088 -9.414,23.46088 z" />
    </g>
    <g
       id="g3326">
      <path
         inkscape:connector-curvature="0"
         transform="matrix(0.7,0,0.25997349,0.64993369,3.2003909,-28.5)"
         style="opacity:0.54681648;fill:url(#linearGradient3228);fill-opacity:1;stroke:none"
         mask="url(#mask4131)"
         d="m 36.111931,14.503877 46.901066,-0.594982 c 0.714581,1.847579 0.972101,6.598406 -4.383176,18.495633 l -43.089319,1.487455 z"
         id="rect4075"
         sodipodi:nodetypes="ccccc" />
      <path
         inkscape:connector-curvature="0"
         style="fill:url(#linearGradient3255);fill-opacity:1;fill-rule:nonzero;stroke:none"
         d="m 36.800391,-28.5 2.632134,11.2 4.243645,0 8.648441,0 4.243645,0 2.632135,-11.2 -9.507914,0 -3.384172,0 -9.507914,0 z"
         id="rect3276" />
      <rect
         style="opacity:0.47191013;fill:url(#linearGradient3252);fill-opacity:1;stroke:none"
         id="rect4003"
         width="29.667969"
         height="4.2382812"
         x="33.278515"
         y="-13.823746"
         rx="1.09375"
         ry="1.09375" />
      <rect
         style="fill:url(#linearGradient3248);fill-opacity:1;fill-rule:nonzero;stroke:none"
         id="rect3259"
         width="28"
         height="11.2"
         x="34.000389"
         y="-22.9" />
      <rect
         style="fill:url(#linearGradient3245);fill-opacity:1;stroke:none"
         id="rect3922"
         width="28"
         height="1.5432283"
         x="34.000389"
         y="-21.993229"
         rx="0"
         ry="0" />
      <path
         inkscape:connector-curvature="0"
         style="opacity:0.77902623;fill:url(#linearGradient3242);fill-opacity:1;stroke:none"
         d="m 37.263206,-27.317472 18.668252,0 0,1.353447 -18.292275,0 -0.375977,-1.353447 z"
         id="rect4138"
         sodipodi:nodetypes="ccccc" />
      <path
         inkscape:connector-curvature="0"
         id="path4809"
         d="m 36.800391,-28.5 2.632134,11.2 4.243645,0 8.648441,0 4.243645,0 2.632135,-11.2 -9.507914,0 -3.384172,0 -9.507914,0 z"
         style="fill:url(#linearGradient3239);fill-opacity:1;fill-rule:nonzero;stroke:none" />
    </g>
  </g>
</svg>
