<?xml version="1.0" encoding="UTF-8" standalone="no"?>
<!-- Created with Inkscape (http://www.inkscape.org/) -->

<svg
   xmlns:dc="http://purl.org/dc/elements/1.1/"
   xmlns:cc="http://creativecommons.org/ns#"
   xmlns:rdf="http://www.w3.org/1999/02/22-rdf-syntax-ns#"
   xmlns:svg="http://www.w3.org/2000/svg"
   xmlns="http://www.w3.org/2000/svg"
   xmlns:xlink="http://www.w3.org/1999/xlink"
   xmlns:sodipodi="http://sodipodi.sourceforge.net/DTD/sodipodi-0.dtd"
   xmlns:inkscape="http://www.inkscape.org/namespaces/inkscape"
   width="96"
   height="96"
   id="svg2"
   sodipodi:version="0.32"
   inkscape:version="0.48.4 r9939"
   version="1.0"
   sodipodi:docname="edit-cut.svg"
   inkscape:output_extension="org.inkscape.output.svgz.inkscape"
   inkscape:export-filename="edit-cut.png"
   inkscape:export-xdpi="90"
   inkscape:export-ydpi="90">
  <defs
     id="defs4">
    <linearGradient
       inkscape:collect="always"
       id="linearGradient3340">
      <stop
         style="stop-color:#eeeeee;stop-opacity:1;"
         offset="0"
         id="stop3342" />
      <stop
         style="stop-color:#fefefe;stop-opacity:1"
         offset="1"
         id="stop3344" />
    </linearGradient>
    <linearGradient
       inkscape:collect="always"
       xlink:href="#linearGradient3340"
       id="linearGradient3024"
       gradientUnits="userSpaceOnUse"
       gradientTransform="matrix(4,0,0,4,3.9999998,-69.441695)"
       x1="8.021718"
       y1="7.6777563"
       x2="9.614707"
       y2="6.7119026" />
    <linearGradient
       inkscape:collect="always"
       xlink:href="#linearGradient3340"
       id="linearGradient3029"
       gradientUnits="userSpaceOnUse"
       gradientTransform="matrix(-4,0,0,4,92.000001,-69.441695)"
       x1="8.021718"
       y1="7.6777563"
       x2="9.614707"
       y2="6.7119026" />
  </defs>
  <sodipodi:namedview
     id="base"
     pagecolor="#ffffff"
     bordercolor="#666666"
     borderopacity="1.0"
     gridtolerance="10000"
     guidetolerance="10"
     objecttolerance="10"
     inkscape:pageopacity="0.0"
     inkscape:pageshadow="2"
     inkscape:zoom="4"
     inkscape:cx="48"
     inkscape:cy="48"
     inkscape:document-units="px"
     inkscape:current-layer="layer1"
     width="22px"
     height="22px"
     showgrid="false"
     inkscape:grid-points="true"
     showborder="true"
     borderlayer="false"
     inkscape:showpageshadow="true"
     inkscape:window-width="1014"
     inkscape:window-height="716"
     inkscape:window-x="10"
     inkscape:window-y="24"
     fit-margin-top="0"
     fit-margin-left="0"
     fit-margin-right="0"
     fit-margin-bottom="0"
     inkscape:window-maximized="0">
    <inkscape:grid
       id="GridFromPre046Settings"
       type="xygrid"
       originx="0px"
       originy="-3.2111598e-07px"
       spacingx="1px"
       spacingy="1px"
       color="#3f3fff"
       empcolor="#3f3fff"
       opacity="0.15"
       empopacity="0.38"
       empspacing="2"
       visible="true"
       enabled="true"
       snapvisiblegridlinesonly="true" />
  </sodipodi:namedview>
  <metadata
     id="metadata7">
    <rdf:RDF>
      <cc:Work
         rdf:about="">
        <dc:format>image/svg+xml</dc:format>
        <dc:type
           rdf:resource="http://purl.org/dc/dcmitype/StillImage" />
        <dc:title />
      </cc:Work>
    </rdf:RDF>
  </metadata>
  <g
     inkscape:label="Layer 1"
     inkscape:groupmode="layer"
     id="layer1"
     transform="translate(0,74.000001)">
    <path
       inkscape:connector-curvature="0"
       style="opacity:0.40099009;fill:none;stroke:#000000;stroke-width:8;stroke-linecap:round;stroke-linejoin:round;stroke-miterlimit:4;stroke-opacity:1;stroke-dasharray:none"
       d="m 28.429625,-64.926016 c -0.513545,2.91246 7.07248,26.16615 14.299215,40.795561 l -0.04255,3.969425 -3.243101,6.161035 5.985512,-0.729472 c 0.562312,-0.09376 1.47782,-4.151064 2.571296,-5.7963 1.093481,1.645236 2.008981,5.702536 2.571297,5.7963 l 5.985508,0.729472 -4.243101,-6.161035 0.957452,-3.969425 C 60.49789,-38.759866 67.999998,-61.999999 67.57037,-64.926016 L 48,-32.884091 28.429625,-64.926016 z"
       sodipodi:nodetypes="ccccccccccccc"
       id="path3356" />
    <path
       style="fill:none;fill-opacity:1;fill-rule:evenodd;stroke:#333333"
       d="m 68,-67.46134 -31.057195,54.216702 4.633823,3.2446394 3.939236,-0.6945964 C 49.455093,-11.389187 69.389185,-59.582876 68,-67.46134 z"
       id="path2997"
       sodipodi:nodetypes="ccccc"
       inkscape:connector-curvature="0" />
    <path
       inkscape:connector-curvature="0"
       sodipodi:nodetypes="ccccc"
       id="path3352"
       d="m 68,-67.46134 -31.057195,54.216702 4.633823,3.2446394 3.939236,-0.6945964 C 49.455093,-11.389187 69.389185,-59.582876 68,-67.46134 z"
       style="fill:url(#linearGradient3029);fill-opacity:1;fill-rule:evenodd;stroke:none" />
    <path
       inkscape:connector-curvature="0"
       id="path3385"
       d="m 67.937948,-67.499999 c 0.29424,1.668666 -0.485696,5.423633 -1.75,9.875 l -28.625004,44.875 -0.625,-0.5 31.000004,-54.25 z"
       style="fill:#ffffff;fill-opacity:1;fill-rule:evenodd;stroke:none" />
    <path
       sodipodi:nodetypes="ccccc"
       id="path2999"
       d="m 28,-67.46134 31.057201,54.216702 -4.633824,3.2446394 -3.939232,-0.6945964 C 46.544913,-11.389187 26.610816,-59.582876 28,-67.46134 z"
       style="fill:none;fill-opacity:1;fill-rule:evenodd;stroke:#333333"
       inkscape:connector-curvature="0" />
    <path
       inkscape:connector-curvature="0"
       style="opacity:0.51980196;fill:none;stroke:#000000;stroke-width:8;stroke-linecap:round;stroke-linejoin:round;stroke-miterlimit:4;stroke-opacity:1;stroke-dasharray:none"
       d="m 48,-32.499999 -2.124999,8 c 1.911659,4.092244 1.71402,6.63006 3.124999,8.875 1.41098,-2.24494 2.21334,-3.782756 4.125001,-7.875 l -5.125001,-9 z"
       id="path3363"
       sodipodi:nodetypes="ccccc" />
    <path
       inkscape:connector-curvature="0"
       style="fill:url(#linearGradient3024);fill-opacity:1;fill-rule:evenodd;stroke:none"
       d="m 28,-67.46134 31.057201,54.216702 -4.633824,3.2446394 -3.939232,-0.6945964 C 46.544913,-11.389187 26.610816,-59.582876 28,-67.46134 z"
       id="path3312"
       sodipodi:nodetypes="ccccc" />
    <path
       inkscape:connector-curvature="0"
       style="fill:#000000;fill-opacity:1;fill-rule:evenodd;stroke:none"
       d="m 59,-13.749999 -4.625,3.25 18.250001,23.5 5.5,0.875001 c 0.12532,0.0336 0.25016,0.09604 0.375,0.124999 2.00502,0.465036 3.994092,0.371561 5.625,-0.499999 4.619912,-2.468928 5.104312,-9.9065444 1,-16.5000005 -2.655416,-4.2658481 -6.575365,-7.1477245 -10.250001,-8.0000005 -0.492404,-0.08684 -0.982263,-0.13684 -1.499999,-0.125 -0.0812,-0.0064 -0.169241,-0.12092 -0.25,-0.125 -0.951904,-0.04812 -1.891856,0.10108 -2.75,0.375 -3.03044,0.34688 -6.69024,0.599784 -11.375001,-2.875 z m 15.750001,6.8750004 c 2.791531,-0.0164 5.86776,1.946776 7.749999,5.1250001 2.509657,4.237632 1.981689,9.0564759 -1.249999,10.8750005 -3.231688,1.818527 -7.865344,-0.1373606 -10.375,-4.3750005 -2.509652,-4.23763596 -1.981688,-9.1814761 1.249999,-11.0000001 0.807925,-0.454632 1.694489,-0.619544 2.625001,-0.625 z"
       id="path3316" />
    <path
       inkscape:connector-curvature="0"
       style="fill:#000000;fill-opacity:1;fill-rule:evenodd;stroke:none"
       d="m 36.75,-13.749999 c -4.68476,3.474784 -8.219556,3.221876 -11.25,2.875 -0.858144,-0.273908 -1.798093,-0.423128 -2.75,-0.375 -0.08076,0.004 -0.168788,0.11868 -0.25,0.125 -0.517736,-0.012 -1.007596,0.038 -1.5,0.125 -3.674636,0.852276 -7.59458,3.7341524 -10.25,8.0000005 -4.1043122,6.5934561 -3.6199122,14.0310725 1,16.5000005 1.630908,0.871576 3.494984,0.965035 5.5,0.499999 0.124856,-0.0288 0.24968,-0.09132 0.375,-0.124999 l 5.5,-0.875001 18.250001,-23.5 -4.625001,-3.25 z M 21,-6.8749986 c 0.930511,0.0056 1.817077,0.17036 2.625,0.625 C 26.85669,-4.4314746 27.509655,0.51236554 25,4.7500015 22.490344,8.9876377 17.85669,10.943529 14.625,9.125002 11.39331,7.3064774 10.740345,2.4876335 13.25,-1.7499985 15.132241,-4.9282226 18.208466,-6.8913626 21,-6.8749986 z"
       id="path3321" />
    <path
       sodipodi:type="arc"
       style="fill:#bebebe;fill-opacity:1;fill-rule:evenodd;stroke:none"
       id="path3368"
       sodipodi:cx="11"
       sodipodi:cy="12"
       sodipodi:rx="1"
       sodipodi:ry="1"
       d="m 12,12 c 0,0.552285 -0.447715,1 -1,1 -0.552285,0 -1,-0.447715 -1,-1 0,-0.552285 0.447715,-1 1,-1 0.552285,0 1,0.447715 1,1 z"
       transform="matrix(2.4260165,0,0,2.4260165,21.313821,-51.112194)" />
    <path
       inkscape:connector-curvature="0"
       style="fill:#ffffff;fill-opacity:1;fill-rule:evenodd;stroke:none"
       d="m 28,-67.499999 c -0.29423,1.668666 0.485693,5.423633 1.75,9.875 l 28.625,44.875 0.625,-0.5 -31,-54.25 z"
       id="path3370" />
  </g>
</svg>
