<?xml version="1.0" encoding="UTF-8" standalone="no"?>
<!-- Created with Inkscape (http://www.inkscape.org/) -->

<svg
   xmlns:dc="http://purl.org/dc/elements/1.1/"
   xmlns:cc="http://creativecommons.org/ns#"
   xmlns:rdf="http://www.w3.org/1999/02/22-rdf-syntax-ns#"
   xmlns:svg="http://www.w3.org/2000/svg"
   xmlns="http://www.w3.org/2000/svg"
   xmlns:xlink="http://www.w3.org/1999/xlink"
   xmlns:sodipodi="http://sodipodi.sourceforge.net/DTD/sodipodi-0.dtd"
   xmlns:inkscape="http://www.inkscape.org/namespaces/inkscape"
   width="96"
   height="96"
   id="svg3186"
   sodipodi:version="0.32"
   inkscape:version="0.48.4 r9939"
   version="1.0"
   sodipodi:docname="media-record.svg"
   inkscape:output_extension="org.inkscape.output.svg.inkscape"
   sodipodi:modified="true">
  <sodipodi:namedview
     id="base"
     pagecolor="#ffffff"
     bordercolor="#666666"
     borderopacity="1.0"
     gridtolerance="10000"
     guidetolerance="10"
     objecttolerance="10"
     inkscape:pageopacity="0.0"
     inkscape:pageshadow="2"
     inkscape:zoom="4"
     inkscape:cx="48"
     inkscape:cy="48"
     inkscape:document-units="px"
     inkscape:current-layer="layer1"
     width="128px"
     height="128px"
     showgrid="false"
     inkscape:window-width="1020"
     inkscape:window-height="718"
     inkscape:window-x="23"
     inkscape:window-y="57"
     fit-margin-top="0"
     fit-margin-left="0"
     fit-margin-right="0"
     fit-margin-bottom="0"
     inkscape:window-maximized="0">
    <inkscape:grid
       snapvisiblegridlinesonly="true"
       enabled="true"
       visible="true"
       empspacing="5"
       empopacity="0.38"
       opacity="0.15"
       empcolor="#3f3fff"
       color="#3f3fff"
       spacingy="8px"
       spacingx="8px"
       originy="3.8610229e-06px"
       originx="0px"
       type="xygrid"
       id="GridFromPre046Settings" />
  </sodipodi:namedview>
  <defs
     id="defs3188">
    <radialGradient
       id="radialGradient3163"
       cx="53.1978"
       cy="59.186501"
       r="40.0294"
       gradientTransform="matrix(0.6667,0,0,0.7574,20.7214,14.064)"
       gradientUnits="userSpaceOnUse">
      <stop
         offset="0"
         style="stop-color:#f40000;stop-opacity:0.94117647;"
         id="stop3165" />
      <stop
         offset="1"
         style="stop-color:#cb0006;stop-opacity:1;"
         id="stop3175" />
    </radialGradient>
    <radialGradient
       r="24.25"
       fy="63.875"
       fx="63.75"
       cy="63.875"
       cx="63.75"
       spreadMethod="pad"
       gradientTransform="matrix(1,0,0,0.9948454,0,0.3292526)"
       gradientUnits="userSpaceOnUse"
       id="radialGradient3029"
       xlink:href="#radialGradient3163"
       inkscape:collect="always" />
    <linearGradient
       inkscape:collect="always"
       xlink:href="#linearGradient3971-7-4"
       id="linearGradient3014-3"
       gradientUnits="userSpaceOnUse"
       gradientTransform="translate(-93.838863,31.999999)"
       x1="86.137444"
       y1="2.625596"
       x2="86.137444"
       y2="40.777252" />
    <linearGradient
       id="linearGradient3971-7-4">
      <stop
         style="stop-color:#484848;stop-opacity:1;"
         offset="0"
         id="stop3973-6-4-9" />
      <stop
         style="stop-color:#202020;stop-opacity:1;"
         offset="1"
         id="stop3975-1-3" />
    </linearGradient>
    <linearGradient
       y2="40.777252"
       x2="86.137444"
       y1="2.625596"
       x1="86.137444"
       gradientTransform="translate(-93.838863,31.999999)"
       gradientUnits="userSpaceOnUse"
       id="linearGradient3842-8"
       xlink:href="#linearGradient3971-7-4"
       inkscape:collect="always" />
    <linearGradient
       inkscape:collect="always"
       xlink:href="#linearGradient3971-7-4"
       id="linearGradient3011-2"
       gradientUnits="userSpaceOnUse"
       gradientTransform="translate(-93.838863,31.999999)"
       x1="86.137444"
       y1="2.625596"
       x2="86.137444"
       y2="40.777252" />
    <linearGradient
       inkscape:collect="always"
       xlink:href="#linearGradient3696-804-7-8"
       id="linearGradient3009-5"
       gradientUnits="userSpaceOnUse"
       gradientTransform="matrix(3.8331976,0,0,3.8331976,-91.838096,33.501278)"
       x1="21.949474"
       y1="0.29331049"
       x2="21.949476"
       y2="10.246269" />
    <linearGradient
       x1="15"
       y1="2"
       x2="15"
       gradientUnits="userSpaceOnUse"
       y2="21"
       id="linearGradient3696-804-7-8">
      <stop
         offset="0"
         style="stop-color:#ffffff;stop-opacity:1;"
         id="stop3014-5-0" />
      <stop
         offset="1"
         style="stop-color:#b0b0b0;stop-opacity:1;"
         id="stop3018-79-5" />
    </linearGradient>
    <linearGradient
       x1="22.146999"
       y1="15.722"
       x2="22.402"
       gradientUnits="userSpaceOnUse"
       y2="34.612"
       id="linearGradient4117-3-7">
      <stop
         offset="0"
         style="stop-color:#fff"
         id="stop4113-1-1" />
      <stop
         offset="1"
         style="stop-color:#fff;stop-opacity:0"
         id="stop4115-0-4" />
    </linearGradient>
    <linearGradient
       y2="10.066575"
       x2="32.729187"
       y1="3.223985"
       x1="32.729187"
       gradientTransform="matrix(2.844041,0,0,2.787808,-100.78457,25.637744)"
       gradientUnits="userSpaceOnUse"
       id="linearGradient3073"
       xlink:href="#linearGradient4117-3-7"
       inkscape:collect="always" />
  </defs>
  <metadata
     id="metadata3191">
    <rdf:RDF>
      <cc:Work
         rdf:about="">
        <dc:format>image/svg+xml</dc:format>
        <dc:type
           rdf:resource="http://purl.org/dc/dcmitype/StillImage" />
        <dc:title />
      </cc:Work>
    </rdf:RDF>
  </metadata>
  <g
     transform="translate(0,-32.000004)"
     id="layer1"
     inkscape:groupmode="layer"
     inkscape:label="Layer 1">
    <g
       transform="translate(-4.289788e-8,5.3679986e-6)"
       id="g3810">
      <path
         transform="matrix(2.1493169,0,0,2.1493169,64.552796,-35.421378)"
         d="m 11.374407,53.701424 c 0,10.535289 -8.5405395,19.075828 -19.0758287,19.075828 -10.5352893,0 -19.0758283,-8.540539 -19.0758283,-19.075828 0,-10.53529 8.540539,-19.075829 19.0758283,-19.075829 10.5352892,0 19.0758287,8.540539 19.0758287,19.075829 z"
         sodipodi:ry="19.075829"
         sodipodi:rx="19.075829"
         sodipodi:cy="53.701424"
         sodipodi:cx="-7.7014217"
         id="path3819"
         style="opacity:0.25;color:#000000;fill:none;stroke:url(#linearGradient3014-3);stroke-width:3.72211289;stroke-linecap:round;stroke-linejoin:miter;stroke-miterlimit:4;stroke-opacity:1;stroke-dasharray:none;stroke-dashoffset:0.333827;marker:none;visibility:visible;display:inline;overflow:visible;enable-background:accumulate"
         sodipodi:type="arc" />
      <path
         transform="matrix(2.1493169,0,0,2.1493169,64.552796,-35.421378)"
         d="m 11.374407,53.701424 c 0,10.535289 -8.5405395,19.075828 -19.0758287,19.075828 -10.5352893,0 -19.0758283,-8.540539 -19.0758283,-19.075828 0,-10.53529 8.540539,-19.075829 19.0758283,-19.075829 10.5352892,0 19.0758287,8.540539 19.0758287,19.075829 z"
         sodipodi:ry="19.075829"
         sodipodi:rx="19.075829"
         sodipodi:cy="53.701424"
         sodipodi:cx="-7.7014217"
         id="path3790"
         style="opacity:0.35;color:#000000;fill:none;stroke:url(#linearGradient3842-8);stroke-width:2.23326778;stroke-linecap:round;stroke-linejoin:miter;stroke-miterlimit:4;stroke-opacity:1;stroke-dasharray:none;stroke-dashoffset:0.333827;marker:none;visibility:visible;display:inline;overflow:visible;enable-background:accumulate"
         sodipodi:type="arc" />
      <path
         sodipodi:type="arc"
         style="color:#000000;fill:none;stroke:url(#linearGradient3011-2);stroke-width:1.11663389;stroke-linecap:round;stroke-linejoin:miter;stroke-miterlimit:4;stroke-opacity:1;stroke-dasharray:none;stroke-dashoffset:0.333827;marker:none;visibility:visible;display:inline;overflow:visible;enable-background:accumulate"
         id="path3791"
         sodipodi:cx="-7.7014217"
         sodipodi:cy="53.701424"
         sodipodi:rx="19.075829"
         sodipodi:ry="19.075829"
         d="m 11.374407,53.701424 c 0,10.535289 -8.5405395,19.075828 -19.0758287,19.075828 -10.5352893,0 -19.0758283,-8.540539 -19.0758283,-19.075828 0,-10.53529 8.540539,-19.075829 19.0758283,-19.075829 10.5352892,0 19.0758287,8.540539 19.0758287,19.075829 z"
         transform="matrix(2.1493169,0,0,2.1493169,64.552796,-35.421378)" />
      <path
         transform="matrix(2.1493169,0,0,2.1493169,64.552796,-35.421378)"
         d="m 11.374407,53.701424 c 0,10.535289 -8.5405395,19.075828 -19.0758287,19.075828 -10.5352893,0 -19.0758283,-8.540539 -19.0758283,-19.075828 0,-10.53529 8.540539,-19.075829 19.0758283,-19.075829 10.5352892,0 19.0758287,8.540539 19.0758287,19.075829 z"
         sodipodi:ry="19.075829"
         sodipodi:rx="19.075829"
         sodipodi:cy="53.701424"
         sodipodi:cx="-7.7014217"
         id="path3905"
         style="color:#000000;fill:url(#linearGradient3009-5);fill-opacity:1;fill-rule:nonzero;stroke:none;stroke-width:0.93052822;marker:none;visibility:visible;display:inline;overflow:visible;enable-background:accumulate"
         sodipodi:type="arc" />
      <path
         sodipodi:type="arc"
         style="opacity:0.75;color:#000000;fill:none;stroke:url(#linearGradient3073);stroke-width:2.00798202;stroke-linecap:round;stroke-linejoin:miter;stroke-miterlimit:4;stroke-opacity:1;stroke-dasharray:none;stroke-dashoffset:0.35139684;marker:none;visibility:visible;display:inline;overflow:visible;enable-background:accumulate"
         id="path4064"
         sodipodi:cx="-7.7014217"
         sodipodi:cy="53.701424"
         sodipodi:rx="19.075829"
         sodipodi:ry="19.075829"
         d="m 11.374407,53.701424 c 0,10.535289 -8.5405395,19.075828 -19.0758287,19.075828 -10.5352893,0 -19.0758283,-8.540539 -19.0758283,-19.075828 0,-10.53529 8.540539,-19.075829 19.0758283,-19.075829 10.5352892,0 19.0758287,8.540539 19.0758287,19.075829 z"
         transform="matrix(2.041851,0,0,2.041851,63.725156,-29.650307)" />
    </g>
    <g
       id="g3003">
      <path
         transform="matrix(0.74226802,0,0,0.74611402,0.68041297,36.34197)"
         d="M 88,63.875 C 88,77.19887 77.142905,88 63.75,88 50.357095,88 39.5,77.19887 39.5,63.875 39.5,50.55113 50.357095,39.75 63.75,39.75 77.142905,39.75 88,50.55113 88,63.875 z"
         sodipodi:ry="24.125"
         sodipodi:rx="24.25"
         sodipodi:cy="63.875"
         sodipodi:cx="63.75"
         id="path3010"
         style="fill:#ffffff;fill-opacity:1;fill-rule:evenodd;stroke:none"
         sodipodi:type="arc" />
      <path
         sodipodi:type="arc"
         style="fill:url(#radialGradient3029);fill-opacity:1;fill-rule:evenodd;stroke:none;stroke-width:1.34374550999999998;stroke-miterlimit:4;stroke-dasharray:none"
         id="path2195"
         sodipodi:cx="63.75"
         sodipodi:cy="63.875"
         sodipodi:rx="24.25"
         sodipodi:ry="24.125"
         d="M 88,63.875 C 88,77.19887 77.142905,88 63.75,88 50.357095,88 39.5,77.19887 39.5,63.875 39.5,50.55113 50.357095,39.75 63.75,39.75 77.142905,39.75 88,50.55113 88,63.875 z"
         transform="matrix(0.74226802,0,0,0.74611402,0.68041297,32.34197)" />
      <path
         id="path3011"
         transform="translate(0,32.000004)"
         d="M 48 30 C 38.058875 30 30 38.058874 30 48 C 30 48.676176 30.052376 49.343184 30.125 50 C 31.120097 41.00032 38.73505 34 48 34 C 57.26495 34 64.879903 41.00032 65.875 50 C 65.947624 49.343184 66 48.676176 66 48 C 66 38.058874 57.941125 30 48 30 z "
         style="fill:#800000;fill-opacity:1;fill-rule:evenodd;stroke:none;stroke-width:1.34374550999999998;stroke-miterlimit:4;stroke-dasharray:none" />
    </g>
  </g>
</svg>
