<?xml version="1.0" encoding="UTF-8" standalone="no"?>
<!-- Created with Inkscape (http://www.inkscape.org/) -->

<svg
   xmlns:dc="http://purl.org/dc/elements/1.1/"
   xmlns:cc="http://creativecommons.org/ns#"
   xmlns:rdf="http://www.w3.org/1999/02/22-rdf-syntax-ns#"
   xmlns:svg="http://www.w3.org/2000/svg"
   xmlns="http://www.w3.org/2000/svg"
   xmlns:xlink="http://www.w3.org/1999/xlink"
   xmlns:sodipodi="http://sodipodi.sourceforge.net/DTD/sodipodi-0.dtd"
   xmlns:inkscape="http://www.inkscape.org/namespaces/inkscape"
   width="96"
   height="96"
   id="svg2985"
   version="1.1"
   inkscape:version="0.48.4 r9939"
   sodipodi:docname="window-close.svg"
   inkscape:export-filename="window-close.png"
   inkscape:export-xdpi="90"
   inkscape:export-ydpi="90">
  <defs
     id="defs2987">
    <linearGradient
       id="linearGradient3793">
      <stop
         style="stop-color:#ffffff;stop-opacity:1;"
         offset="0"
         id="stop3795" />
      <stop
         style="stop-color:#d4d4d4;stop-opacity:1;"
         offset="1"
         id="stop3797" />
    </linearGradient>
    <linearGradient
       id="linearGradient3785">
      <stop
         style="stop-color:#202020;stop-opacity:1;"
         offset="0"
         id="stop3787" />
      <stop
         style="stop-color:#404040;stop-opacity:1;"
         offset="1"
         id="stop3789" />
    </linearGradient>
    <linearGradient
       id="linearGradient3844-4-1-2">
      <stop
         style="stop-color:#ffffff;stop-opacity:1;"
         offset="0"
         id="stop3846-4-3-5" />
      <stop
         style="stop-color:#ffffff;stop-opacity:0;"
         offset="1"
         id="stop3848-7-0-8" />
    </linearGradient>
    <linearGradient
       id="linearGradient3827-6-9-4">
      <stop
         style="stop-color:#000000;stop-opacity:1;"
         offset="0"
         id="stop3829-1-4-8" />
      <stop
         id="stop3835-7-8-9"
         offset="0.5"
         style="stop-color:#ffffff;stop-opacity:0;" />
      <stop
         style="stop-color:#ffffff;stop-opacity:0;"
         offset="1"
         id="stop3831-5-0-8" />
    </linearGradient>
    <radialGradient
       inkscape:collect="always"
       xlink:href="#linearGradient3844-4-1-2"
       id="radialGradient3203"
       gradientUnits="userSpaceOnUse"
       gradientTransform="matrix(4.2857143,0,0,2.8223325,9.4285716,-41.15732)"
       cx="9"
       cy="14.226203"
       fx="9"
       fy="14.226203"
       r="7" />
    <linearGradient
       inkscape:collect="always"
       xlink:href="#linearGradient3827-6-9-4"
       id="linearGradient3206"
       gradientUnits="userSpaceOnUse"
       gradientTransform="matrix(6,0,0,6,-6,-90.5)"
       x1="9"
       y1="9"
       x2="9"
       y2="16" />
    <linearGradient
       inkscape:collect="always"
       xlink:href="#linearGradient3785"
       id="linearGradient3791"
       x1="48"
       y1="85"
       x2="48"
       y2="11"
       gradientUnits="userSpaceOnUse" />
    <linearGradient
       inkscape:collect="always"
       xlink:href="#linearGradient3785-1"
       id="linearGradient3791-2"
       x1="48"
       y1="85"
       x2="48"
       y2="11"
       gradientUnits="userSpaceOnUse" />
    <linearGradient
       id="linearGradient3785-1">
      <stop
         style="stop-color:#202020;stop-opacity:1;"
         offset="0"
         id="stop3787-7" />
      <stop
         style="stop-color:#404040;stop-opacity:1;"
         offset="1"
         id="stop3789-5" />
    </linearGradient>
    <linearGradient
       inkscape:collect="always"
       xlink:href="#linearGradient3785-6"
       id="linearGradient3791-1"
       x1="48"
       y1="85"
       x2="48"
       y2="11"
       gradientUnits="userSpaceOnUse" />
    <linearGradient
       id="linearGradient3785-6">
      <stop
         style="stop-color:#202020;stop-opacity:1;"
         offset="0"
         id="stop3787-0" />
      <stop
         style="stop-color:#404040;stop-opacity:1;"
         offset="1"
         id="stop3789-0" />
    </linearGradient>
    <radialGradient
       inkscape:collect="always"
       xlink:href="#linearGradient3793"
       id="radialGradient3801"
       cx="14.668403"
       cy="49.342918"
       fx="14.668403"
       fy="49.342918"
       r="24.25"
       gradientUnits="userSpaceOnUse"
       gradientTransform="matrix(1.7014768,0,1.8263223e-8,1.6180704,-10.289545,-31.140665)" />
  </defs>
  <sodipodi:namedview
     id="base"
     pagecolor="#ffffff"
     bordercolor="#666666"
     borderopacity="1.0"
     inkscape:pageopacity="0.0"
     inkscape:pageshadow="2"
     inkscape:zoom="4"
     inkscape:cx="48"
     inkscape:cy="48"
     inkscape:current-layer="g3808"
     showgrid="false"
     inkscape:grid-bbox="true"
     inkscape:document-units="px"
     inkscape:window-width="993"
     inkscape:window-height="712"
     inkscape:window-x="0"
     inkscape:window-y="124"
     inkscape:window-maximized="0"
     fit-margin-top="0"
     fit-margin-left="0"
     fit-margin-right="0"
     fit-margin-bottom="0"
     inkscape:snap-smooth-nodes="true"
     inkscape:object-nodes="true">
    <inkscape:grid
       type="xygrid"
       id="grid2993"
       empspacing="5"
       visible="true"
       enabled="true"
       snapvisiblegridlinesonly="true"
       originx="0px"
       originy="0px" />
  </sodipodi:namedview>
  <metadata
     id="metadata2990">
    <rdf:RDF>
      <cc:Work
         rdf:about="">
        <dc:format>image/svg+xml</dc:format>
        <dc:type
           rdf:resource="http://purl.org/dc/dcmitype/StillImage" />
        <dc:title />
      </cc:Work>
    </rdf:RDF>
  </metadata>
  <g
     id="g3808"
     inkscape:label="window-close"
     inkscape:groupmode="layer"
     style="display:inline"
     transform="translate(0,80)">
    <path
       style="opacity:0.25;color:#000000;fill:url(#linearGradient3791-1);fill-opacity:1;fill-rule:evenodd;stroke:none;stroke-width:1px;marker:none;visibility:visible;display:inline;overflow:visible;enable-background:accumulate"
       d="M 48 8 C 25.90861 8 8 25.90861 8 48 C 8 70.09139 25.90861 88 48 88 C 70.09139 88 88 70.09139 88 48 C 88 25.90861 70.09139 8 48 8 z M 48 12 C 67.882251 12 84 28.117749 84 48 C 84 67.882251 67.882251 84 48 84 C 28.117749 84 12 67.882251 12 48 C 12 28.117749 28.117749 12 48 12 z "
       id="path3849"
       transform="translate(0,-80)" />
    <path
       style="opacity:0.5;color:#000000;fill:url(#linearGradient3791-2);fill-opacity:1;fill-rule:evenodd;stroke:none;stroke-width:1px;marker:none;visibility:visible;display:inline;overflow:visible;enable-background:accumulate"
       d="M 48 10 C 27.01318 10 10 27.01318 10 48 C 10 68.98682 27.01318 86 48 86 C 68.98682 86 86 68.98682 86 48 C 86 27.01318 68.98682 10 48 10 z M 48 12 C 67.882251 12 84 28.117749 84 48 C 84 67.882251 67.882251 84 48 84 C 28.117749 84 12 67.882251 12 48 C 12 28.117749 28.117749 12 48 12 z "
       id="path3801"
       transform="translate(0,-80)" />
    <path
       style="color:#000000;fill:url(#linearGradient3791);fill-opacity:1;fill-rule:evenodd;stroke:none;stroke-width:1px;marker:none;visibility:visible;display:inline;overflow:visible;enable-background:accumulate"
       d="M 48 11 C 27.565464 11 11 27.565464 11 48 C 11 68.434536 27.565464 85 48 85 C 68.434536 85 85 68.434536 85 48 C 85 27.565464 68.434536 11 48 11 z M 48 12 C 67.882251 12 84 28.117749 84 48 C 84 67.882251 67.882251 84 48 84 C 28.117749 84 12 67.882251 12 48 C 12 28.117749 28.117749 12 48 12 z "
       id="path3010"
       transform="translate(0,-80)" />
    <path
       id="path3019"
       d="M 48 11 C 27.565464 11 11 27.565464 11 48 C 11 68.434536 27.565464 85 48 85 C 68.434536 85 85 68.434536 85 48 C 85 27.565464 68.434536 11 48 11 z M 48 12 C 67.882251 12 84 28.117749 84 48 C 84 67.882251 67.882251 84 48 84 C 28.117749 84 12 67.882251 12 48 C 12 28.117749 28.117749 12 48 12 z "
       style="color:#000000;fill:url(#linearGradient3791);fill-opacity:1;fill-rule:evenodd;stroke:none;stroke-width:1px;marker:none;visibility:visible;display:inline;overflow:visible;enable-background:accumulate"
       transform="translate(0,-80)" />
    <path
       sodipodi:type="arc"
       style="color:#000000;fill:url(#radialGradient3801);fill-opacity:1;fill-rule:nonzero;stroke:none;stroke-width:1px;marker:none;visibility:visible;display:inline;overflow:visible;enable-background:accumulate;opacity:0.75"
       id="path3023"
       sodipodi:cx="14.5"
       sodipodi:cy="69.75"
       sodipodi:rx="24.25"
       sodipodi:ry="24.25"
       d="m 38.75,69.75 a 24.25,24.25 0 1 1 -48.5,0 24.25,24.25 0 1 1 48.5,0 z"
       transform="matrix(1.4845361,0,0,1.4845361,26.474227,-135.54639)" />
    <path
       inkscape:connector-curvature="0"
       style="opacity:0.35;color:#000000;fill:url(#linearGradient3206);fill-opacity:1;fill-rule:evenodd;stroke:none;stroke-width:1px;marker:none;visibility:visible;display:inline;overflow:visible;enable-background:accumulate"
       d="M 12.1875,-35.75 C 12.064596,-34.539786 12,-33.242641 12,-32 c 0,19.882248 16.117749,36 36,36 19.882248,0 36,-16.117752 36,-36 0,-1.242641 -0.06462,-2.539786 -0.1875,-3.75 -8.732568,3.172098 -21.39396,5.25 -35.8125,5.25 -14.418536,0 -27.07993,-2.077902 -35.8125,-5.25 z"
       id="path3821" />
    <path
       inkscape:connector-curvature="0"
       style="color:#000000;fill:url(#radialGradient3203);fill-opacity:1;fill-rule:evenodd;stroke:none;stroke-width:1px;marker:none;visibility:visible;display:inline;overflow:visible;enable-background:accumulate"
       d="M 12.5625,-26 C 15.005327,-11.324726 26.195721,0.284554 40.6875,3.25 41.368385,3.38932 42.055702,3.52468 42.75,3.625 44.491399,3.843844 46.199474,4 48,4 49.800526,4 51.508601,3.84382 53.25,3.625 53.944298,3.52468 54.631614,3.38932 55.3125,3.25 69.804276,0.284554 80.994672,-11.324726 83.4375,-26 l -70.875,0 z"
       id="path3842" />
    <path
       style="opacity:0.75;fill:#800000;stroke:none;display:inline"
       d="m 33,-47 0,6 9,9 -9,9 0,6 6,0 9,-9 9,9 6,0 0,-6 -9,-9 9,-9 0,-6 -6,0 -9,9 -9,-9 -6,0 z"
       id="path3971"
       inkscape:connector-curvature="0" />
    <path
       style="fill:#ffffff;stroke:none;display:inline"
       d="m 33,-41 0,3 7.5,7.5 1.5,-1.5 -9,-9 z m 30,0 -9,9 1.5,1.5 7.5,-7.5 0,-3 z m -15,15 -9,9 -6,0 0,3 6,0 9,-9 9,9 6,0 0,-3 -6,0 -9,-9 z"
       id="path3178"
       inkscape:connector-curvature="0" />
    <path
       style="opacity:0.5;fill:#4d4d4d;stroke:none;display:inline"
       d="m 33,-50 0,6 6,0 9,9 9,-9 6,0 0,-6 -6,0 -9,9 -9,-9 -6,0 z m 6,18 -6,6 0,6 9,-9 -3,-3 z m 18,0 -3,3 9,9 0,-6 -6,-6 z"
       id="path3173"
       inkscape:connector-curvature="0" />
  </g>
</svg>
