<?xml version="1.0" encoding="UTF-8" standalone="no"?>
<!-- Created with Inkscape (http://www.inkscape.org/) -->

<svg
   xmlns:dc="http://purl.org/dc/elements/1.1/"
   xmlns:cc="http://creativecommons.org/ns#"
   xmlns:rdf="http://www.w3.org/1999/02/22-rdf-syntax-ns#"
   xmlns:svg="http://www.w3.org/2000/svg"
   xmlns="http://www.w3.org/2000/svg"
   xmlns:xlink="http://www.w3.org/1999/xlink"
   xmlns:sodipodi="http://sodipodi.sourceforge.net/DTD/sodipodi-0.dtd"
   xmlns:inkscape="http://www.inkscape.org/namespaces/inkscape"
   inkscape:output_extension="org.inkscape.output.svgz.inkscape"
   sodipodi:docname="audio-volume-high.svg"
   inkscape:version="0.48.4 r9939"
   sodipodi:version="0.32"
   style="overflow:visible"
   xml:space="preserve"
   id="Livello_1"
   viewBox="0 0 96.000001 87.272727"
   height="96"
   width="96"
   version="1.0"
   inkscape:export-filename="audio-volume-high.png"
   inkscape:export-xdpi="90"
   inkscape:export-ydpi="90"><sodipodi:namedview
     inkscape:window-height="715"
     inkscape:window-width="1007"
     inkscape:pageshadow="2"
     inkscape:pageopacity="0.0"
     guidetolerance="10.0"
     gridtolerance="10.0"
     objecttolerance="10.0"
     borderopacity="1.0"
     bordercolor="#666666"
     pagecolor="#ffffff"
     id="base"
     inkscape:zoom="4"
     inkscape:cx="48"
     inkscape:cy="48"
     inkscape:window-x="103"
     inkscape:window-y="46"
     inkscape:current-layer="Livello_1"
     showgrid="false"
     inkscape:window-maximized="0"
     fit-margin-top="0"
     fit-margin-left="0"
     fit-margin-right="0"
     fit-margin-bottom="0"
     inkscape:object-nodes="true"
     inkscape:object-paths="true"
     inkscape:snap-midpoints="true"
     inkscape:snap-intersection-paths="true"
     inkscape:snap-smooth-nodes="true"><inkscape:grid
       type="xygrid"
       id="grid3915" /></sodipodi:namedview><metadata
     id="metadata83"><rdf:RDF><cc:Work
         rdf:about=""><dc:format>image/svg+xml</dc:format><dc:type
           rdf:resource="http://purl.org/dc/dcmitype/StillImage" /><dc:title /></cc:Work></rdf:RDF></metadata><defs
     id="defs3353"><linearGradient
       inkscape:collect="always"
       xlink:href="#XMLID_18_"
       id="linearGradient3130"
       gradientUnits="userSpaceOnUse"
       x1="28"
       y1="4"
       x2="28"
       y2="76.000504"
       gradientTransform="translate(3.9999999,3.625944)" /><linearGradient
       inkscape:collect="always"
       xlink:href="#XMLID_18_-1-6"
       id="linearGradient3845-6"
       gradientUnits="userSpaceOnUse"
       gradientTransform="translate(33.125749,7.9999995)"
       x1="37.624252"
       y1="4.8750005"
       x2="37.624252"
       y2="75.15625" /><linearGradient
       x1="28"
       y1="4"
       x2="28"
       y2="76.000504"
       id="XMLID_18_-1-6"
       gradientUnits="userSpaceOnUse"><stop
         id="stop3234-6-4"
         style="stop-color:#ffffff;stop-opacity:1"
         offset="0.3136" /><stop
         id="stop3236-7-9"
         style="stop-color:#c0c0c0;stop-opacity:1;"
         offset="0.5" /><stop
         id="stop3238-0-4"
         style="stop-color:#dddddd;stop-opacity:1"
         offset="0.89999998" /></linearGradient><linearGradient
       inkscape:collect="always"
       xlink:href="#XMLID_18_-1-6-2"
       id="linearGradient3845-6-6"
       gradientUnits="userSpaceOnUse"
       gradientTransform="translate(33.125749,7.9999995)"
       x1="37.624252"
       y1="4.8750005"
       x2="37.624252"
       y2="75.15625" /><linearGradient
       x1="28"
       y1="4"
       x2="28"
       y2="76.000504"
       id="XMLID_18_-1-6-2"
       gradientUnits="userSpaceOnUse"><stop
         id="stop3234-6-4-5"
         style="stop-color:#ffffff;stop-opacity:1"
         offset="0.3136" /><stop
         id="stop3236-7-9-3"
         style="stop-color:#c0c0c0;stop-opacity:1;"
         offset="0.5" /><stop
         id="stop3238-0-4-0"
         style="stop-color:#dddddd;stop-opacity:1"
         offset="0.89999998" /></linearGradient><linearGradient
       inkscape:collect="always"
       xlink:href="#XMLID_18_-1-6-22"
       id="linearGradient3845-6-0"
       gradientUnits="userSpaceOnUse"
       gradientTransform="translate(33.125749,7.9999995)"
       x1="37.624252"
       y1="4.8750005"
       x2="37.624252"
       y2="75.15625" /><linearGradient
       x1="28"
       y1="4"
       x2="28"
       y2="76.000504"
       id="XMLID_18_-1-6-22"
       gradientUnits="userSpaceOnUse"><stop
         id="stop3234-6-4-3"
         style="stop-color:#ffffff;stop-opacity:1"
         offset="0.3136" /><stop
         id="stop3236-7-9-1"
         style="stop-color:#c0c0c0;stop-opacity:1;"
         offset="0.5" /><stop
         id="stop3238-0-4-4"
         style="stop-color:#dddddd;stop-opacity:1"
         offset="0.89999998" /></linearGradient></defs><linearGradient
     x1="4"
     y1="26"
     x2="16"
     y2="26"
     id="XMLID_17_"
     gradientUnits="userSpaceOnUse"><stop
       id="stop3227"
       style="stop-color:#ad7300;stop-opacity:1"
       offset="0" /><stop
       id="stop3229"
       style="stop-color:#cf8900;stop-opacity:1"
       offset="1" /></linearGradient><linearGradient
     x1="28"
     y1="4"
     x2="28"
     y2="76.000504"
     id="XMLID_18_"
     gradientUnits="userSpaceOnUse"><stop
       id="stop3234"
       style="stop-color:#ffffff;stop-opacity:1"
       offset="0.3136" /><stop
       id="stop3236"
       style="stop-color:#c0c0c0;stop-opacity:1;"
       offset="0.5" /><stop
       id="stop3238"
       style="stop-color:#dddddd;stop-opacity:1"
       offset="0.89999998" /></linearGradient><linearGradient
     x1="31.9995"
     y1="40"
     x2="40"
     y2="40"
     id="XMLID_19_"
     gradientUnits="userSpaceOnUse"><stop
       id="stop3243"
       style="stop-color:#000000;stop-opacity:0"
       offset="0" /><stop
       id="stop3245"
       style="stop-color:#000000;stop-opacity:1"
       offset="1" /></linearGradient><linearGradient
     x1="25.9629"
     y1="20.433599"
     x2="31.0891"
     y2="29.404699"
     id="XMLID_20_"
     gradientUnits="userSpaceOnUse"><stop
       id="stop3250"
       style="stop-color:#ffffff;stop-opacity:1"
       offset="0.2308" /><stop
       id="stop3252"
       style="stop-color:#ffffff;stop-opacity:0"
       offset="1" /></linearGradient><linearGradient
     x1="19"
     y1="27.142599"
     x2="19"
     y2="49.465099"
     id="XMLID_21_"
     gradientUnits="userSpaceOnUse"><stop
       id="stop3261"
       style="stop-color:#ffffff;stop-opacity:1"
       offset="0" /><stop
       id="stop3263"
       style="stop-color:#000000;stop-opacity:1"
       offset="1" /></linearGradient><linearGradient
     x1="16"
     y1="64"
     x2="40"
     y2="64"
     id="XMLID_22_"
     gradientUnits="userSpaceOnUse"><stop
       id="stop3268"
       style="stop-color:#555555;stop-opacity:1"
       offset="0" /><stop
       id="stop3270"
       style="stop-color:#323232;stop-opacity:1"
       offset="1" /></linearGradient><linearGradient
     x1="16"
     y1="16"
     x2="40"
     y2="16"
     id="XMLID_23_"
     gradientUnits="userSpaceOnUse"><stop
       id="stop3275"
       style="stop-color:#555555;stop-opacity:1"
       offset="0" /><stop
       id="stop3277"
       style="stop-color:#323232;stop-opacity:1"
       offset="1" /></linearGradient><linearGradient
     x1="44.0005"
     y1="4"
     x2="44.0005"
     y2="76.000504"
     id="XMLID_27_"
     gradientUnits="userSpaceOnUse"><stop
       id="stop3309"
       style="stop-color:#bbbbbb;stop-opacity:1"
       offset="0" /><stop
       id="stop3311"
       style="stop-color:#ffffff;stop-opacity:1"
       offset="0.1" /><stop
       id="stop3313"
       style="stop-color:#eeeeee;stop-opacity:1"
       offset="0.25" /><stop
       id="stop3315"
       style="stop-color:#c0c0c0;stop-opacity:1;"
       offset="0.5" /><stop
       id="stop3317"
       style="stop-color:#eeeeee;stop-opacity:1"
       offset="0.73369998" /><stop
       id="stop3319"
       style="stop-color:#bbbbbb;stop-opacity:1"
       offset="1" /></linearGradient><linearGradient
     x1="42"
     y1="4"
     x2="42"
     y2="76.000504"
     id="XMLID_28_"
     gradientUnits="userSpaceOnUse"><stop
       id="stop3324"
       style="stop-color:#ffffff;stop-opacity:1"
       offset="0.2" /><stop
       id="stop3326"
       style="stop-color:#000000;stop-opacity:1"
       offset="1" /></linearGradient><linearGradient
     x1="50.000999"
     y1="4"
     x2="50.000999"
     y2="76.000504"
     id="XMLID_29_"
     gradientUnits="userSpaceOnUse"><stop
       id="stop3331"
       style="stop-color:#555555;stop-opacity:1"
       offset="0" /><stop
       id="stop3333"
       style="stop-color:#888888;stop-opacity:1"
       offset="0.5" /><stop
       id="stop3335"
       style="stop-color:#555555;stop-opacity:1"
       offset="1" /></linearGradient><linearGradient
     x1="4"
     y1="26"
     x2="16"
     y2="26"
     id="XMLID_17_-512"
     gradientUnits="userSpaceOnUse"><stop
       id="stop4486"
       style="stop-color:#565656;stop-opacity:1"
       offset="0" /><stop
       id="stop4488"
       style="stop-color:#676767;stop-opacity:1"
       offset="1" /></linearGradient><path
     style="font-size:medium;font-style:normal;font-variant:normal;font-weight:normal;font-stretch:normal;text-indent:0;text-align:start;text-decoration:none;line-height:normal;letter-spacing:normal;word-spacing:normal;text-transform:none;direction:ltr;block-progression:tb;writing-mode:lr-tb;text-anchor:start;baseline-shift:baseline;color:#000000;fill:url(#linearGradient3845-6);fill-opacity:1;stroke:#202020;stroke-width:4.80000005;marker:none;visibility:visible;display:inline;overflow:visible;enable-background:accumulate;font-family:Sans;-inkscape-font-specification:Sans;fill-rule:nonzero;stroke-opacity:1;stroke-linejoin:round;stroke-linecap:round;stroke-miterlimit:4;stroke-dasharray:none;opacity:0.25000000000000000"
     d="M 70.75 12.875 L 69.4375 18.71875 C 73.377526 19.960855 76.260333 21.829339 78.375 24 C 82.224214 28.065223 86.09375 35.243857 86.09375 48 C 86.09375 60.756142 82.224214 67.934777 78.375 72 C 75.933493 74.561983 72.895234 76.531721 69.4375 77.3125 L 70.75 83.15625 C 75.789193 81.553771 79.502722 79.33482 82.3125 76.59375 C 87.287268 71.60302 92.09375 62.84776 92.09375 48 C 92.09375 33.152239 87.287268 24.397109 82.3125 19.40625 C 79.105795 16.234759 75.150508 13.868663 70.75 12.875 z "
     id="path3961"
     transform="translate(0,-4.363637)" /><path
     style="font-size:medium;font-style:normal;font-variant:normal;font-weight:normal;font-stretch:normal;text-indent:0;text-align:start;text-decoration:none;line-height:normal;letter-spacing:normal;word-spacing:normal;text-transform:none;direction:ltr;block-progression:tb;writing-mode:lr-tb;text-anchor:start;baseline-shift:baseline;color:#000000;fill:none;fill-opacity:1;stroke:#202020;stroke-width:4.80000005;marker:none;visibility:visible;display:inline;overflow:visible;enable-background:accumulate;font-family:Sans;-inkscape-font-specification:Sans;fill-rule:nonzero;stroke-miterlimit:4;stroke-dasharray:none;stroke-opacity:1;opacity:0.25000000000000000;stroke-linejoin:round;stroke-linecap:round"
     d="M 66.8125 24.84375 L 66.4375 25.78125 L 64.9375 29.5 L 64.5625 30.40625 L 65.46875 30.78125 C 65.608309 30.83989 73.625 34.070033 73.625 48 C 73.625 54.964493 71.604124 59.223519 69.59375 61.78125 C 67.583376 64.338981 65.54467 65.231408 65.5 65.25 L 64.5625 65.625 L 64.9375 66.53125 L 66.4375 70.25 L 66.8125 71.15625 L 67.75 70.78125 C 68.385471 70.524563 79.625 65.576615 79.625 48 C 79.625 39.211692 76.834325 33.526318 73.9375 30.0625 C 71.040675 26.598682 68.082229 25.352222 67.75 25.21875 L 66.8125 24.84375 z "
     id="path3959"
     transform="translate(0,-4.363637)" /><path
     style="font-size:medium;font-style:normal;font-variant:normal;font-weight:normal;font-stretch:normal;text-indent:0;text-align:start;text-decoration:none;line-height:normal;letter-spacing:normal;word-spacing:normal;text-transform:none;direction:ltr;block-progression:tb;writing-mode:lr-tb;text-anchor:start;baseline-shift:baseline;color:#000000;fill:none;fill-opacity:1;stroke:#202020;stroke-width:4.80000005;marker:none;visibility:visible;display:inline;overflow:visible;enable-background:accumulate;font-family:Sans;-inkscape-font-specification:Sans;fill-rule:nonzero;stroke-opacity:1;stroke-linejoin:round;stroke-linecap:round;stroke-miterlimit:4;stroke-dasharray:none;opacity:0.25000000000000000"
     d="M 58.09375 37 L 58.09375 38 L 58.0625 42 L 58.0625 42.96875 L 59.03125 43 C 59.227495 43.0058 59.974056 43.09788 60.65625 43.6875 C 61.338444 44.277121 62.09375 45.400833 62.09375 48 C 62.09375 50.599167 61.338443 51.75413 60.65625 52.34375 C 59.974057 52.93337 59.227493 52.99416 59.03125 53 L 58.0625 53.03125 L 58.0625 54.03125 L 58.09375 58.03125 L 58.09375 59 L 59.09375 59 C 60.729026 59 62.915525 58.423323 64.78125 56.71875 C 66.646975 55.014177 68.09375 52.175523 68.09375 48 C 68.09375 43.824477 66.646975 41.017073 64.78125 39.3125 C 62.915525 37.607927 60.729026 37 59.09375 37 L 58.09375 37 z "
     id="path3957"
     transform="translate(0,-4.363637)" /><path
     id="path3955"
     d="M 58.09375 37 L 58.09375 38 L 58.0625 42 L 58.0625 42.96875 L 59.03125 43 C 59.227495 43.0058 59.974056 43.09788 60.65625 43.6875 C 61.338444 44.277121 62.09375 45.400833 62.09375 48 C 62.09375 50.599167 61.338443 51.75413 60.65625 52.34375 C 59.974057 52.93337 59.227493 52.99416 59.03125 53 L 58.0625 53.03125 L 58.0625 54.03125 L 58.09375 58.03125 L 58.09375 59 L 59.09375 59 C 60.729026 59 62.915525 58.423323 64.78125 56.71875 C 66.646975 55.014177 68.09375 52.175523 68.09375 48 C 68.09375 43.824477 66.646975 41.017073 64.78125 39.3125 C 62.915525 37.607927 60.729026 37 59.09375 37 L 58.09375 37 z "
     style="font-size:medium;font-style:normal;font-variant:normal;font-weight:normal;font-stretch:normal;text-indent:0;text-align:start;text-decoration:none;line-height:normal;letter-spacing:normal;word-spacing:normal;text-transform:none;direction:ltr;block-progression:tb;writing-mode:lr-tb;text-anchor:start;baseline-shift:baseline;color:#000000;fill:none;fill-opacity:1;stroke:#202020;stroke-width:2.40000002;marker:none;visibility:visible;display:inline;overflow:visible;enable-background:accumulate;font-family:Sans;-inkscape-font-specification:Sans;fill-rule:nonzero;stroke-opacity:1;stroke-linejoin:round;stroke-linecap:round;stroke-miterlimit:4;stroke-dasharray:none"
     transform="translate(0,-4.363637)" /><path
     id="path3949"
     d="M 70.75 12.875 L 69.4375 18.71875 C 73.377526 19.960855 76.260333 21.829339 78.375 24 C 82.224214 28.065223 86.09375 35.243857 86.09375 48 C 86.09375 60.756142 82.224214 67.934777 78.375 72 C 75.933493 74.561983 72.895234 76.531721 69.4375 77.3125 L 70.75 83.15625 C 75.789193 81.553771 79.502722 79.33482 82.3125 76.59375 C 87.287268 71.60302 92.09375 62.84776 92.09375 48 C 92.09375 33.152239 87.287268 24.397109 82.3125 19.40625 C 79.105795 16.234759 75.150508 13.868663 70.75 12.875 z "
     style="font-size:medium;font-style:normal;font-variant:normal;font-weight:normal;font-stretch:normal;text-indent:0;text-align:start;text-decoration:none;line-height:normal;letter-spacing:normal;word-spacing:normal;text-transform:none;direction:ltr;block-progression:tb;writing-mode:lr-tb;text-anchor:start;baseline-shift:baseline;color:#000000;fill:none;fill-opacity:1;stroke:#202020;stroke-width:2.40000002;marker:none;visibility:visible;display:inline;overflow:visible;enable-background:accumulate;font-family:Sans;-inkscape-font-specification:Sans;fill-rule:nonzero;stroke-opacity:1;stroke-linejoin:round;stroke-linecap:round;stroke-miterlimit:4;stroke-dasharray:none"
     transform="translate(0,-4.363637)" /><path
     id="path3951"
     d="M 66.8125 24.84375 L 66.4375 25.78125 L 64.9375 29.5 L 64.5625 30.40625 L 65.46875 30.78125 C 65.608309 30.83989 73.625 34.070033 73.625 48 C 73.625 54.964493 71.604124 59.223519 69.59375 61.78125 C 67.583376 64.338981 65.54467 65.231408 65.5 65.25 L 64.5625 65.625 L 64.9375 66.53125 L 66.4375 70.25 L 66.8125 71.15625 L 67.75 70.78125 C 68.385471 70.524563 79.625 65.576615 79.625 48 C 79.625 39.211692 76.834325 33.526318 73.9375 30.0625 C 71.040675 26.598682 68.082229 25.352222 67.75 25.21875 L 66.8125 24.84375 z "
     style="font-size:medium;font-style:normal;font-variant:normal;font-weight:normal;font-stretch:normal;text-indent:0;text-align:start;text-decoration:none;line-height:normal;letter-spacing:normal;word-spacing:normal;text-transform:none;direction:ltr;block-progression:tb;writing-mode:lr-tb;text-anchor:start;baseline-shift:baseline;color:#000000;fill:none;fill-opacity:1;stroke:#202020;stroke-width:2.40000002;marker:none;visibility:visible;display:inline;overflow:visible;enable-background:accumulate;font-family:Sans;-inkscape-font-specification:Sans;fill-rule:nonzero;stroke-miterlimit:4;stroke-dasharray:none;stroke-opacity:1;stroke-linejoin:round;stroke-linecap:round"
     transform="translate(0,-4.363637)" /><path
     id="path3919"
     d="m 44,9.6363635 -24,18.0000005 0,4 -12,0 0,24 12,0 0,4 24,18 8,0 0,-68.0000005 z"
     style="opacity:0.25;fill:none;stroke:#202020;stroke-width:8;stroke-linecap:round;stroke-linejoin:round;stroke-miterlimit:4;stroke-opacity:1;stroke-dasharray:none"
     inkscape:connector-curvature="0"
     sodipodi:nodetypes="ccccccccccc" /><path
     style="opacity:0.50000000000000000;color:#000000;fill:none;stroke:#202020;stroke-width:4.80000005;stroke-linecap:round;stroke-linejoin:round;stroke-miterlimit:4;stroke-opacity:1;stroke-dasharray:none;stroke-dashoffset:0;marker:none;visibility:visible;display:inline;overflow:visible;enable-background:accumulate"
     d="m 44,9.6363635 -24,18.0000005 0,4 -12,0 0,24 12,0 0,4 24,18 8,0 0,-68.0000005 z"
     id="path3917"
     inkscape:connector-curvature="0"
     sodipodi:nodetypes="ccccccccccc" /><path
     id="path3905"
     d="m 44,9.6363635 -24,18.0000005 0,4 -12,0 0,24 12,0 0,4 24,18 8,0 0,-68.0000005 z"
     style="color:#000000;fill:none;stroke:#202020;stroke-width:2.40000002;stroke-linecap:round;stroke-linejoin:round;stroke-miterlimit:4;stroke-opacity:1;stroke-dasharray:none;stroke-dashoffset:0;marker:none;visibility:visible;display:inline;overflow:visible;enable-background:accumulate"
     inkscape:connector-curvature="0"
     sodipodi:nodetypes="ccccccccccc" /><path
     style="font-size:medium;font-style:normal;font-variant:normal;font-weight:normal;font-stretch:normal;text-indent:0;text-align:start;text-decoration:none;line-height:normal;letter-spacing:normal;word-spacing:normal;text-transform:none;direction:ltr;block-progression:tb;writing-mode:lr-tb;text-anchor:start;baseline-shift:baseline;color:#000000;fill:url(#linearGradient3845-6);fill-opacity:1;stroke:none;stroke-width:1.00000000999999994;marker:none;visibility:visible;display:inline;overflow:visible;enable-background:accumulate;font-family:Sans;-inkscape-font-specification:Sans;fill-rule:nonzero"
     d="M 70.75 12.875 L 69.4375 18.71875 C 73.377526 19.960855 76.260333 21.829339 78.375 24 C 82.224214 28.065223 86.09375 35.243857 86.09375 48 C 86.09375 60.756142 82.224214 67.934777 78.375 72 C 75.933493 74.561983 72.895234 76.531721 69.4375 77.3125 L 70.75 83.15625 C 75.789193 81.553771 79.502722 79.33482 82.3125 76.59375 C 87.287268 71.60302 92.09375 62.84776 92.09375 48 C 92.09375 33.152239 87.287268 24.397109 82.3125 19.40625 C 79.105795 16.234759 75.150508 13.868663 70.75 12.875 z "
     transform="translate(0,-4.363637)"
     id="path3847" /><path
     style="font-size:medium;font-style:normal;font-variant:normal;font-weight:normal;font-stretch:normal;text-indent:0;text-align:start;text-decoration:none;line-height:normal;letter-spacing:normal;word-spacing:normal;text-transform:none;direction:ltr;block-progression:tb;writing-mode:lr-tb;text-anchor:start;baseline-shift:baseline;color:#000000;fill:url(#linearGradient3845-6-6);fill-opacity:1;stroke:none;stroke-width:1.00000001;marker:none;visibility:visible;display:inline;overflow:visible;enable-background:accumulate;font-family:Sans;-inkscape-font-specification:Sans;fill-rule:nonzero"
     d="M 66.8125 24.84375 L 66.4375 25.78125 L 64.9375 29.5 L 64.5625 30.40625 L 65.46875 30.78125 C 65.608309 30.83989 73.625 34.070033 73.625 48 C 73.625 54.964493 71.604124 59.223519 69.59375 61.78125 C 67.583376 64.338981 65.54467 65.231408 65.5 65.25 L 64.5625 65.625 L 64.9375 66.53125 L 66.4375 70.25 L 66.8125 71.15625 L 67.75 70.78125 C 68.385471 70.524563 79.625 65.576615 79.625 48 C 79.625 39.211692 76.834325 33.526318 73.9375 30.0625 C 71.040675 26.598682 68.082229 25.352222 67.75 25.21875 L 66.8125 24.84375 z "
     transform="translate(0,-4.363637)"
     id="path3845" /><path
     style="font-size:medium;font-style:normal;font-variant:normal;font-weight:normal;font-stretch:normal;text-indent:0;text-align:start;text-decoration:none;line-height:normal;letter-spacing:normal;word-spacing:normal;text-transform:none;direction:ltr;block-progression:tb;writing-mode:lr-tb;text-anchor:start;baseline-shift:baseline;color:#000000;fill:url(#linearGradient3845-6-0);fill-opacity:1;stroke:none;stroke-width:1.00000001;marker:none;visibility:visible;display:inline;overflow:visible;enable-background:accumulate;font-family:Sans;-inkscape-font-specification:Sans;fill-rule:nonzero"
     d="M 58.09375 37 L 58.09375 38 L 58.0625 42 L 58.0625 42.96875 L 59.03125 43 C 59.227495 43.0058 59.974056 43.09788 60.65625 43.6875 C 61.338444 44.277121 62.09375 45.400833 62.09375 48 C 62.09375 50.599167 61.338443 51.75413 60.65625 52.34375 C 59.974057 52.93337 59.227493 52.99416 59.03125 53 L 58.0625 53.03125 L 58.0625 54.03125 L 58.09375 58.03125 L 58.09375 59 L 59.09375 59 C 60.729026 59 62.915525 58.423323 64.78125 56.71875 C 66.646975 55.014177 68.09375 52.175523 68.09375 48 C 68.09375 43.824477 66.646975 41.017073 64.78125 39.3125 C 62.915525 37.607927 60.729026 37 59.09375 37 L 58.09375 37 z "
     transform="translate(0,-4.363637)"
     id="path3075" /><path
     style="fill:url(#linearGradient3130);stroke:none"
     d="m 44,9.6363635 -24,18.0000005 0,4 -12,0 0,24 12,0 0,4 24,18 8,0 0,-68.0000005 z"
     id="polygon3240"
     inkscape:connector-curvature="0"
     sodipodi:nodetypes="ccccccccccc" /></svg>