<?xml version="1.0" encoding="UTF-8" standalone="no"?>
<!-- Created with Inkscape (http://www.inkscape.org/) -->

<svg
   xmlns:dc="http://purl.org/dc/elements/1.1/"
   xmlns:cc="http://creativecommons.org/ns#"
   xmlns:rdf="http://www.w3.org/1999/02/22-rdf-syntax-ns#"
   xmlns:svg="http://www.w3.org/2000/svg"
   xmlns="http://www.w3.org/2000/svg"
   xmlns:xlink="http://www.w3.org/1999/xlink"
   xmlns:sodipodi="http://sodipodi.sourceforge.net/DTD/sodipodi-0.dtd"
   xmlns:inkscape="http://www.inkscape.org/namespaces/inkscape"
   inkscape:output_extension="org.inkscape.output.svgz.inkscape"
   sodipodi:docname="audio-volume-muted.svg"
   inkscape:version="0.48.4 r9939"
   sodipodi:version="0.32"
   style="overflow:visible"
   xml:space="preserve"
   id="Livello_1"
   viewBox="0 0 96.000001 87.272727"
   height="96"
   width="96"
   version="1.0"
   inkscape:export-filename="audio-volume-high.png"
   inkscape:export-xdpi="90"
   inkscape:export-ydpi="90"><sodipodi:namedview
     inkscape:window-height="715"
     inkscape:window-width="1007"
     inkscape:pageshadow="2"
     inkscape:pageopacity="0.0"
     guidetolerance="10.0"
     gridtolerance="10.0"
     objecttolerance="10.0"
     borderopacity="1.0"
     bordercolor="#666666"
     pagecolor="#ffffff"
     id="base"
     inkscape:zoom="4"
     inkscape:cx="48"
     inkscape:cy="48"
     inkscape:window-x="103"
     inkscape:window-y="46"
     inkscape:current-layer="Livello_1"
     showgrid="false"
     inkscape:window-maximized="0"
     fit-margin-top="0"
     fit-margin-left="0"
     fit-margin-right="0"
     fit-margin-bottom="0"
     inkscape:object-nodes="true"
     inkscape:object-paths="true"
     inkscape:snap-midpoints="true"
     inkscape:snap-intersection-paths="true"
     inkscape:snap-smooth-nodes="true"><inkscape:grid
       type="xygrid"
       id="grid3915" /></sodipodi:namedview><metadata
     id="metadata83"><rdf:RDF><cc:Work
         rdf:about=""><dc:format>image/svg+xml</dc:format><dc:type
           rdf:resource="http://purl.org/dc/dcmitype/StillImage" /><dc:title /></cc:Work></rdf:RDF></metadata><defs
     id="defs3353"><linearGradient
       inkscape:collect="always"
       xlink:href="#XMLID_18_"
       id="linearGradient3130"
       gradientUnits="userSpaceOnUse"
       x1="28"
       y1="4"
       x2="28"
       y2="76.000504"
       gradientTransform="translate(3.9999999,3.625944)" /></defs><linearGradient
     x1="4"
     y1="26"
     x2="16"
     y2="26"
     id="XMLID_17_"
     gradientUnits="userSpaceOnUse"><stop
       id="stop3227"
       style="stop-color:#ad7300;stop-opacity:1"
       offset="0" /><stop
       id="stop3229"
       style="stop-color:#cf8900;stop-opacity:1"
       offset="1" /></linearGradient><linearGradient
     x1="28"
     y1="4"
     x2="28"
     y2="76.000504"
     id="XMLID_18_"
     gradientUnits="userSpaceOnUse"><stop
       id="stop3234"
       style="stop-color:#ffffff;stop-opacity:1"
       offset="0.3136" /><stop
       id="stop3236"
       style="stop-color:#c0c0c0;stop-opacity:1;"
       offset="0.5" /><stop
       id="stop3238"
       style="stop-color:#dddddd;stop-opacity:1"
       offset="0.89999998" /></linearGradient><linearGradient
     x1="31.9995"
     y1="40"
     x2="40"
     y2="40"
     id="XMLID_19_"
     gradientUnits="userSpaceOnUse"><stop
       id="stop3243"
       style="stop-color:#000000;stop-opacity:0"
       offset="0" /><stop
       id="stop3245"
       style="stop-color:#000000;stop-opacity:1"
       offset="1" /></linearGradient><linearGradient
     x1="25.9629"
     y1="20.433599"
     x2="31.0891"
     y2="29.404699"
     id="XMLID_20_"
     gradientUnits="userSpaceOnUse"><stop
       id="stop3250"
       style="stop-color:#ffffff;stop-opacity:1"
       offset="0.2308" /><stop
       id="stop3252"
       style="stop-color:#ffffff;stop-opacity:0"
       offset="1" /></linearGradient><linearGradient
     x1="19"
     y1="27.142599"
     x2="19"
     y2="49.465099"
     id="XMLID_21_"
     gradientUnits="userSpaceOnUse"><stop
       id="stop3261"
       style="stop-color:#ffffff;stop-opacity:1"
       offset="0" /><stop
       id="stop3263"
       style="stop-color:#000000;stop-opacity:1"
       offset="1" /></linearGradient><linearGradient
     x1="16"
     y1="64"
     x2="40"
     y2="64"
     id="XMLID_22_"
     gradientUnits="userSpaceOnUse"><stop
       id="stop3268"
       style="stop-color:#555555;stop-opacity:1"
       offset="0" /><stop
       id="stop3270"
       style="stop-color:#323232;stop-opacity:1"
       offset="1" /></linearGradient><linearGradient
     x1="16"
     y1="16"
     x2="40"
     y2="16"
     id="XMLID_23_"
     gradientUnits="userSpaceOnUse"><stop
       id="stop3275"
       style="stop-color:#555555;stop-opacity:1"
       offset="0" /><stop
       id="stop3277"
       style="stop-color:#323232;stop-opacity:1"
       offset="1" /></linearGradient><linearGradient
     x1="44.0005"
     y1="4"
     x2="44.0005"
     y2="76.000504"
     id="XMLID_27_"
     gradientUnits="userSpaceOnUse"><stop
       id="stop3309"
       style="stop-color:#bbbbbb;stop-opacity:1"
       offset="0" /><stop
       id="stop3311"
       style="stop-color:#ffffff;stop-opacity:1"
       offset="0.1" /><stop
       id="stop3313"
       style="stop-color:#eeeeee;stop-opacity:1"
       offset="0.25" /><stop
       id="stop3315"
       style="stop-color:#c0c0c0;stop-opacity:1;"
       offset="0.5" /><stop
       id="stop3317"
       style="stop-color:#eeeeee;stop-opacity:1"
       offset="0.73369998" /><stop
       id="stop3319"
       style="stop-color:#bbbbbb;stop-opacity:1"
       offset="1" /></linearGradient><linearGradient
     x1="42"
     y1="4"
     x2="42"
     y2="76.000504"
     id="XMLID_28_"
     gradientUnits="userSpaceOnUse"><stop
       id="stop3324"
       style="stop-color:#ffffff;stop-opacity:1"
       offset="0.2" /><stop
       id="stop3326"
       style="stop-color:#000000;stop-opacity:1"
       offset="1" /></linearGradient><linearGradient
     x1="50.000999"
     y1="4"
     x2="50.000999"
     y2="76.000504"
     id="XMLID_29_"
     gradientUnits="userSpaceOnUse"><stop
       id="stop3331"
       style="stop-color:#555555;stop-opacity:1"
       offset="0" /><stop
       id="stop3333"
       style="stop-color:#888888;stop-opacity:1"
       offset="0.5" /><stop
       id="stop3335"
       style="stop-color:#555555;stop-opacity:1"
       offset="1" /></linearGradient><linearGradient
     x1="4"
     y1="26"
     x2="16"
     y2="26"
     id="XMLID_17_-512"
     gradientUnits="userSpaceOnUse"><stop
       id="stop4486"
       style="stop-color:#565656;stop-opacity:1"
       offset="0" /><stop
       id="stop4488"
       style="stop-color:#676767;stop-opacity:1"
       offset="1" /></linearGradient><path
     id="path3919"
     d="m 44,9.6363635 -24,18.0000005 0,4 -12,0 0,24 12,0 0,4 24,18 8,0 0,-68.0000005 z"
     style="opacity:0.25;fill:none;stroke:#202020;stroke-width:8;stroke-linecap:round;stroke-linejoin:round;stroke-miterlimit:4;stroke-opacity:1;stroke-dasharray:none"
     inkscape:connector-curvature="0"
     sodipodi:nodetypes="ccccccccccc" /><path
     style="opacity:0.50000000000000000;color:#000000;fill:none;stroke:#202020;stroke-width:4.80000005;stroke-linecap:round;stroke-linejoin:round;stroke-miterlimit:4;stroke-opacity:1;stroke-dasharray:none;stroke-dashoffset:0;marker:none;visibility:visible;display:inline;overflow:visible;enable-background:accumulate"
     d="m 44,9.6363635 -24,18.0000005 0,4 -12,0 0,24 12,0 0,4 24,18 8,0 0,-68.0000005 z"
     id="path3917"
     inkscape:connector-curvature="0"
     sodipodi:nodetypes="ccccccccccc" /><path
     id="path3905"
     d="m 44,9.6363635 -24,18.0000005 0,4 -12,0 0,24 12,0 0,4 24,18 8,0 0,-68.0000005 z"
     style="color:#000000;fill:none;stroke:#202020;stroke-width:2.40000002;stroke-linecap:round;stroke-linejoin:round;stroke-miterlimit:4;stroke-opacity:1;stroke-dasharray:none;stroke-dashoffset:0;marker:none;visibility:visible;display:inline;overflow:visible;enable-background:accumulate"
     inkscape:connector-curvature="0"
     sodipodi:nodetypes="ccccccccccc" /><path
     style="fill:url(#linearGradient3130);stroke:none"
     d="m 44,9.6363635 -24,18.0000005 0,4 -12,0 0,24 12,0 0,4 24,18 8,0 0,-68.0000005 z"
     id="polygon3240"
     inkscape:connector-curvature="0"
     sodipodi:nodetypes="ccccccccccc" /><g
     style="overflow:visible"
     id="g3947"><path
       d="m 48.78125,19.46875 a 1.2707761,1.2707761 0 0 0 -0.875,0.375 l -4.8125,4.8125 a 1.2707761,1.2707761 0 0 0 0,1.8125 L 56.625,40 43.09375,53.53125 a 1.2707761,1.2707761 0 0 0 0,1.8125 l 4.8125,4.8125 a 1.2707761,1.2707761 0 0 0 1.8125,0 L 63.25,46.625 76.78125,60.15625 a 1.2707761,1.2707761 0 0 0 1.8125,0 l 4.8125,-4.8125 a 1.2707761,1.2707761 0 0 0 0,-1.8125 L 69.875,40 83.40625,26.46875 a 1.2707761,1.2707761 0 0 0 0,-1.8125 l -4.8125,-4.8125 a 1.2707761,1.2707761 0 0 0 -1.8125,0 L 63.25,33.375 49.71875,19.84375 a 1.2707761,1.2707761 0 0 0 -0.9375,-0.375 z"
       id="path3945"
       style="opacity:0.5;fill:none;stroke:#ffffff;stroke-width:5.13404846;stroke-linecap:round;stroke-linejoin:round;stroke-miterlimit:4;stroke-dasharray:none;overflow:visible"
       inkscape:original="M 48.8125 20.75 L 44 25.5625 L 58.4375 40 L 44 54.4375 L 48.8125 59.25 L 63.25 44.8125 L 77.6875 59.25 L 82.5 54.4375 L 68.0625 40 L 82.5 25.5625 L 77.6875 20.75 L 63.25 35.1875 L 48.8125 20.75 z "
       inkscape:radius="1.2706491"
       sodipodi:type="inkscape:offset"
       transform="matrix(0.77911226,0,0,0.77911226,14.72115,12.471874)" /><path
       transform="matrix(0.77911226,0,0,0.77911226,14.72115,12.471874)"
       sodipodi:type="inkscape:offset"
       inkscape:radius="1.2706491"
       inkscape:original="M 48.8125 20.75 L 44 25.5625 L 58.4375 40 L 44 54.4375 L 48.8125 59.25 L 63.25 44.8125 L 77.6875 59.25 L 82.5 54.4375 L 68.0625 40 L 82.5 25.5625 L 77.6875 20.75 L 63.25 35.1875 L 48.8125 20.75 z "
       style="fill:none;stroke:#ffffff;stroke-width:2.56702423;stroke-miterlimit:4;stroke-dasharray:none;overflow:visible"
       id="path3175"
       d="m 48.78125,19.46875 a 1.2707761,1.2707761 0 0 0 -0.875,0.375 l -4.8125,4.8125 a 1.2707761,1.2707761 0 0 0 0,1.8125 L 56.625,40 43.09375,53.53125 a 1.2707761,1.2707761 0 0 0 0,1.8125 l 4.8125,4.8125 a 1.2707761,1.2707761 0 0 0 1.8125,0 L 63.25,46.625 76.78125,60.15625 a 1.2707761,1.2707761 0 0 0 1.8125,0 l 4.8125,-4.8125 a 1.2707761,1.2707761 0 0 0 0,-1.8125 L 69.875,40 83.40625,26.46875 a 1.2707761,1.2707761 0 0 0 0,-1.8125 l -4.8125,-4.8125 a 1.2707761,1.2707761 0 0 0 -1.8125,0 L 63.25,33.375 49.71875,19.84375 a 1.2707761,1.2707761 0 0 0 -0.9375,-0.375 z" /><path
       d="m 48.78125,19.46875 a 1.2707761,1.2707761 0 0 0 -0.875,0.375 l -4.8125,4.8125 a 1.2707761,1.2707761 0 0 0 0,1.8125 L 56.625,40 43.09375,53.53125 a 1.2707761,1.2707761 0 0 0 0,1.8125 l 4.8125,4.8125 a 1.2707761,1.2707761 0 0 0 1.8125,0 L 63.25,46.625 76.78125,60.15625 a 1.2707761,1.2707761 0 0 0 1.8125,0 l 4.8125,-4.8125 a 1.2707761,1.2707761 0 0 0 0,-1.8125 L 69.875,40 83.40625,26.46875 a 1.2707761,1.2707761 0 0 0 0,-1.8125 l -4.8125,-4.8125 a 1.2707761,1.2707761 0 0 0 -1.8125,0 L 63.25,33.375 49.71875,19.84375 a 1.2707761,1.2707761 0 0 0 -0.9375,-0.375 z"
       id="path3351"
       style="fill:#800000;fill-opacity:1;stroke:none;overflow:visible"
       inkscape:original="M 48.8125 20.75 L 44 25.5625 L 58.4375 40 L 44 54.4375 L 48.8125 59.25 L 63.25 44.8125 L 77.6875 59.25 L 82.5 54.4375 L 68.0625 40 L 82.5 25.5625 L 77.6875 20.75 L 63.25 35.1875 L 48.8125 20.75 z "
       inkscape:radius="1.2706491"
       sodipodi:type="inkscape:offset"
       transform="matrix(0.77911226,0,0,0.77911226,14.72115,12.471874)" /></g></svg>