<?xml version="1.0" encoding="UTF-8" standalone="no"?>
<!-- Created with Inkscape (http://www.inkscape.org/) -->

<svg
   xmlns:dc="http://purl.org/dc/elements/1.1/"
   xmlns:cc="http://creativecommons.org/ns#"
   xmlns:rdf="http://www.w3.org/1999/02/22-rdf-syntax-ns#"
   xmlns:svg="http://www.w3.org/2000/svg"
   xmlns="http://www.w3.org/2000/svg"
   xmlns:xlink="http://www.w3.org/1999/xlink"
   xmlns:sodipodi="http://sodipodi.sourceforge.net/DTD/sodipodi-0.dtd"
   xmlns:inkscape="http://www.inkscape.org/namespaces/inkscape"
   width="96"
   height="96"
   id="svg1307"
   sodipodi:version="0.32"
   inkscape:version="0.48.3.1 r9886"
   version="1.0"
   sodipodi:docname="battery.svg"
   inkscape:export-filename="battery.png"
   inkscape:export-xdpi="90"
   inkscape:export-ydpi="90"
   inkscape:output_extension="org.inkscape.output.svgz.inkscape">
  <defs
     id="defs1309">
    <linearGradient
       id="linearGradient3902">
      <stop
         id="stop3904"
         offset="0"
         style="stop-color:#303030;stop-opacity:1;" />
      <stop
         style="stop-color:white;stop-opacity:0.59215689;"
         offset="0.09430404"
         id="stop3906" />
      <stop
         style="stop-color:#4b4b4b;stop-opacity:0.18431373;"
         offset="0.18446745"
         id="stop3908" />
      <stop
         style="stop-color:black;stop-opacity:0;"
         offset="0.69156802"
         id="stop3910" />
      <stop
         id="stop3912"
         offset="0.90384614"
         style="stop-color:black;stop-opacity:0.09747292;" />
      <stop
         style="stop-color:white;stop-opacity:0.54509807;"
         offset="0.93056625"
         id="stop3914" />
      <stop
         id="stop3916"
         offset="1"
         style="stop-color:#5d5d5d;stop-opacity:1;" />
    </linearGradient>
    <linearGradient
       inkscape:collect="always"
       id="linearGradient3822">
      <stop
         style="stop-color:white;stop-opacity:1;"
         offset="0"
         id="stop3824" />
      <stop
         style="stop-color:white;stop-opacity:0;"
         offset="1"
         id="stop3826" />
    </linearGradient>
    <linearGradient
       id="linearGradient2895">
      <stop
         style="stop-color:white;stop-opacity:1;"
         offset="0"
         id="stop2897" />
      <stop
         style="stop-color:white;stop-opacity:0;"
         offset="1"
         id="stop2899" />
    </linearGradient>
    <linearGradient
       inkscape:collect="always"
       id="linearGradient3140">
      <stop
         style="stop-color:white;stop-opacity:1;"
         offset="0"
         id="stop3142" />
      <stop
         style="stop-color:white;stop-opacity:0;"
         offset="1"
         id="stop3144" />
    </linearGradient>
    <linearGradient
       id="linearGradient3041">
      <stop
         id="stop3043"
         offset="0"
         style="stop-color:#303030;stop-opacity:1;" />
      <stop
         style="stop-color:#545454;stop-opacity:1;"
         offset="0.11538462"
         id="stop3045" />
      <stop
         id="stop3053"
         offset="0.26590282"
         style="stop-color:#262626;stop-opacity:1;" />
      <stop
         style="stop-color:#646464;stop-opacity:1;"
         offset="0.28553563"
         id="stop3057" />
      <stop
         style="stop-color:#7b7b7b;stop-opacity:1;"
         offset="0.43724003"
         id="stop3055" />
      <stop
         style="stop-color:#434343;stop-opacity:1;"
         offset="0.69156802"
         id="stop3047" />
      <stop
         id="stop3049"
         offset="0.90384614"
         style="stop-color:#747474;stop-opacity:1;" />
      <stop
         id="stop3051"
         offset="1"
         style="stop-color:#5d5d5d;stop-opacity:1;" />
    </linearGradient>
    <linearGradient
       inkscape:collect="always"
       id="linearGradient2916">
      <stop
         style="stop-color:white;stop-opacity:1;"
         offset="0"
         id="stop2918" />
      <stop
         style="stop-color:white;stop-opacity:0;"
         offset="1"
         id="stop2920" />
    </linearGradient>
    <linearGradient
       inkscape:collect="always"
       id="linearGradient2874">
      <stop
         style="stop-color:#414141;stop-opacity:1;"
         offset="0"
         id="stop2876" />
      <stop
         style="stop-color:#414141;stop-opacity:0;"
         offset="1"
         id="stop2878" />
    </linearGradient>
    <radialGradient
       gradientUnits="userSpaceOnUse"
       gradientTransform="translate(-484,-674)"
       r="126.0234"
       cy="651.10352"
       cx="538.77338"
       id="XMLID_15_">
      <stop
         id="stop137"
         style="stop-color:#CCEAAC"
         offset="0" />
      <stop
         id="stop139"
         style="stop-color:#3BA42A"
         offset="0.5393" />
      <stop
         id="stop141"
         style="stop-color:#91E851"
         offset="1" />
    </radialGradient>
    <linearGradient
       id="linearGradient4870"
       inkscape:collect="always">
      <stop
         id="stop4872"
         offset="0"
         style="stop-color:#fd0;stop-opacity:1;" />
      <stop
         id="stop4874"
         offset="1"
         style="stop-color:#fd0;stop-opacity:0;" />
    </linearGradient>
    <filter
       inkscape:collect="always"
       id="filter5098"
       color-interpolation-filters="sRGB">
      <feGaussianBlur
         inkscape:collect="always"
         stdDeviation="1.1993363"
         id="feGaussianBlur5100" />
    </filter>
    <linearGradient
       inkscape:collect="always"
       xlink:href="#linearGradient3041"
       id="linearGradient3539"
       gradientUnits="userSpaceOnUse"
       gradientTransform="matrix(4.6421506,0,0,7.3819257,70.993158,6.1173078)"
       x1="1.4227993"
       y1="1.022699"
       x2="5.5960732"
       y2="1.022699" />
    <linearGradient
       inkscape:collect="always"
       xlink:href="#linearGradient3822"
       id="linearGradient3541"
       gradientUnits="userSpaceOnUse"
       gradientTransform="matrix(5.845017,0,0,7.9809025,23.951777,-5.2893145)"
       x1="11.434079"
       y1="1.0289581"
       x2="11.174653"
       y2="2.2792649" />
    <linearGradient
       inkscape:collect="always"
       xlink:href="#linearGradient3902"
       id="linearGradient3543"
       gradientUnits="userSpaceOnUse"
       gradientTransform="matrix(1.0633681,0,0,0.961444,39.338354,0.8645268)"
       x1="18.01074"
       y1="65.760353"
       x2="72.498932"
       y2="65.760353" />
    <linearGradient
       inkscape:collect="always"
       xlink:href="#linearGradient2874"
       id="linearGradient3545"
       gradientUnits="userSpaceOnUse"
       gradientTransform="matrix(1.0484381,0,0,0.962358,40.514777,6.6723028)"
       x1="69.07917"
       y1="1.0128831"
       x2="63.575024"
       y2="39.769947" />
    <linearGradient
       inkscape:collect="always"
       xlink:href="#linearGradient2874"
       id="linearGradient3547"
       gradientUnits="userSpaceOnUse"
       gradientTransform="matrix(1.0625006,0,0,0.84067,39.353997,-125.9524)"
       x1="63.948738"
       y1="-163.6496"
       x2="43.918915"
       y2="54.970299" />
    <linearGradient
       inkscape:collect="always"
       xlink:href="#linearGradient2874"
       id="linearGradient3549"
       gradientUnits="userSpaceOnUse"
       gradientTransform="matrix(1.0638542,0,0,0.865765,39.329581,-126.2358)"
       x1="43.918915"
       y1="7.8450942"
       x2="43.918915"
       y2="15.315003" />
    <linearGradient
       inkscape:collect="always"
       xlink:href="#XMLID_15_"
       id="linearGradient3551"
       gradientUnits="userSpaceOnUse"
       gradientTransform="matrix(0.7499999,0,0,0.6666667,-39.272177,13.574958)"
       x1="-32.968967"
       y1="-103.70771"
       x2="-95.029198"
       y2="-103.70771" />
    <radialGradient
       inkscape:collect="always"
       xlink:href="#linearGradient3140"
       id="radialGradient3553"
       gradientUnits="userSpaceOnUse"
       gradientTransform="matrix(1.0347862,0,0,1.666364,17.098945,79.084532)"
       cx="68.000046"
       cy="-117.34602"
       fx="68.000046"
       fy="-117.34602"
       r="27.999956" />
    <linearGradient
       inkscape:collect="always"
       xlink:href="#XMLID_15_"
       id="linearGradient3555"
       gradientUnits="userSpaceOnUse"
       gradientTransform="matrix(0.7499999,0,0,0.6666666,-39.272177,36.847358)"
       x1="-32.968178"
       y1="-103.70771"
       x2="-95.047096"
       y2="-103.70771" />
    <linearGradient
       inkscape:collect="always"
       xlink:href="#linearGradient2895"
       id="linearGradient3557"
       gradientUnits="userSpaceOnUse"
       gradientTransform="matrix(7.1643354,0,0,4.9855344,8.6877101,0.8183358)"
       x1="10.88339"
       y1="2.9099114"
       x2="10.88339"
       y2="5.9006019" />
    <linearGradient
       inkscape:collect="always"
       xlink:href="#XMLID_15_"
       id="linearGradient3559"
       gradientUnits="userSpaceOnUse"
       gradientTransform="matrix(0.7499999,0,0,0.6666667,-39.272177,-9.6974418)"
       x1="-32.969231"
       y1="-103.70771"
       x2="-95.06678"
       y2="-103.70771" />
    <linearGradient
       inkscape:collect="always"
       xlink:href="#XMLID_15_"
       id="linearGradient3561"
       gradientUnits="userSpaceOnUse"
       gradientTransform="matrix(0.75,0,0,0.6666667,-39.27217,-32.969842)"
       x1="-32.965027"
       y1="-103.70771"
       x2="-95.029861"
       y2="-103.70771" />
    <linearGradient
       inkscape:collect="always"
       xlink:href="#linearGradient2916"
       id="linearGradient3563"
       gradientUnits="userSpaceOnUse"
       gradientTransform="matrix(0.5344452,0,0,0.962358,71.199699,0.8542028)"
       x1="38.875084"
       y1="67.528122"
       x2="90.409752"
       y2="67.528122" />
    <linearGradient
       inkscape:collect="always"
       xlink:href="#linearGradient2916"
       id="linearGradient3566"
       gradientUnits="userSpaceOnUse"
       gradientTransform="matrix(0.5344452,0,0,0.821275,71.199699,2.5924018)"
       x1="38.875084"
       y1="67.528122"
       x2="90.409752"
       y2="67.528122" />
    <linearGradient
       inkscape:collect="always"
       xlink:href="#linearGradient2916"
       id="linearGradient3568"
       gradientUnits="userSpaceOnUse"
       gradientTransform="matrix(0.2672226,0,0,2.5625951,53.054148,-20.837938)"
       x1="38.875084"
       y1="67.528122"
       x2="90.409752"
       y2="67.528122" />
    <radialGradient
       inkscape:collect="always"
       xlink:href="#linearGradient4870"
       id="radialGradient3570"
       gradientUnits="userSpaceOnUse"
       gradientTransform="matrix(1.108772,0,0,2.02823,-69.585555,-81.035749)"
       cx="94.243141"
       cy="82.983215"
       fx="94.243141"
       fy="82.983215"
       r="26.26219" />
    <linearGradient
       inkscape:collect="always"
       xlink:href="#linearGradient5826"
       id="linearGradient5390"
       gradientUnits="userSpaceOnUse"
       gradientTransform="matrix(0.59617665,0,0,0.59768621,41.599967,52.410285)"
       x1="58.743717"
       y1="78.411346"
       x2="58.743717"
       y2="-15.688621" />
    <linearGradient
       id="linearGradient5826">
      <stop
         style="stop-color:#810000;stop-opacity:1;"
         offset="0"
         id="stop5828" />
      <stop
         style="stop-color:#c50000;stop-opacity:1;"
         offset="1"
         id="stop5830" />
    </linearGradient>
    <clipPath
       clipPathUnits="userSpaceOnUse"
       id="clipPath3559">
      <path
         sodipodi:nodetypes="cccccccccccccccccccccccscc"
         id="path3561"
         d="m -64.510272,10.75 c -1.042316,0.0084 -2.040208,0.423209 -2.78125,1.15625 L -84.260272,28.875 c -1.561474,1.562119 -1.561474,4.094131 0,5.65625 L -58.822772,60 l -25.4375,25.46875 c -1.561474,1.562119 -1.561474,4.094131 0,5.65625 l 16.96875,16.96875 c 1.562119,1.56147 4.094131,1.56147 5.65625,0 l 25.46875,-25.4375 25.46875,25.4375 c 1.5621191,1.56147 4.0941311,1.56147 5.6562501,0 L 11.927228,91.125 c 1.56147,-1.562119 1.56147,-4.094131 0,-5.65625 L -13.510272,60 11.927228,34.53125 c 1.56147,-1.562119 1.56147,-4.094131 0,-5.65625 L -5.0415219,11.90625 c -1.562119,-1.561474 -4.094131,-1.561474 -5.6562501,0 l -25.46875,25.4375 -25.46875,-25.4375 c -0.764077,-0.756011 -1.800247,-1.172731 -2.875,-1.15625 z m 31.1875,63.40625 c -0.751409,-0.759464 -1.775386,-1.18681 -2.84375,-1.18681 -1.068364,0 -2.092341,0.427346 -2.84375,1.18681 l 5.6875,0 z"
         style="fill:url(#linearGradient3563);fill-opacity:1;stroke:none"
         inkscape:connector-curvature="0" />
    </clipPath>
    <linearGradient
       inkscape:collect="always"
       xlink:href="#linearGradient5433"
       id="linearGradient5392"
       gradientUnits="userSpaceOnUse"
       gradientTransform="matrix(0.59617665,0,0,0.59768621,41.599967,52.410285)"
       x1="55.007042"
       y1="88.460976"
       x2="55.007042"
       y2="36.655769" />
    <linearGradient
       id="linearGradient5433">
      <stop
         id="stop5435"
         offset="0"
         style="stop-color:#ff0000;stop-opacity:1;" />
      <stop
         id="stop5437"
         offset="1"
         style="stop-color:#7f0000;stop-opacity:1;" />
    </linearGradient>
    <radialGradient
       inkscape:collect="always"
       xlink:href="#linearGradient3575"
       id="radialGradient5394"
       gradientUnits="userSpaceOnUse"
       gradientTransform="matrix(0.4576062,0,0,0.782313,-19.847694,18.82067)"
       cx="-36.592777"
       cy="90.072952"
       fx="-36.592777"
       fy="90.072952"
       r="25.986174" />
    <linearGradient
       inkscape:collect="always"
       id="linearGradient3575">
      <stop
         style="stop-color:#000000;stop-opacity:1;"
         offset="0"
         id="stop3577" />
      <stop
         style="stop-color:#000000;stop-opacity:0;"
         offset="1"
         id="stop3579" />
    </linearGradient>
    <linearGradient
       inkscape:collect="always"
       xlink:href="#linearGradient3207"
       id="linearGradient5396"
       gradientUnits="userSpaceOnUse"
       gradientTransform="translate(-0.3,0)"
       spreadMethod="reflect"
       x1="31.90625"
       y1="13.510336"
       x2="34.875107"
       y2="13.510336" />
    <linearGradient
       id="linearGradient3207">
      <stop
         id="stop3209"
         offset="0"
         style="stop-color:#ffffff;stop-opacity:1;" />
      <stop
         id="stop3211"
         offset="1"
         style="stop-color:#790000;stop-opacity:0;" />
    </linearGradient>
    <linearGradient
       inkscape:collect="always"
       xlink:href="#linearGradient3207"
       id="linearGradient5398"
       gradientUnits="userSpaceOnUse"
       gradientTransform="translate(56.7,0)"
       spreadMethod="reflect"
       x1="31.90625"
       y1="13.510336"
       x2="34.875107"
       y2="13.510336" />
    <linearGradient
       inkscape:collect="always"
       xlink:href="#linearGradient3163"
       id="linearGradient5400"
       gradientUnits="userSpaceOnUse"
       x1="59.999996"
       y1="92.973083"
       x2="57.434441"
       y2="55.07938" />
    <linearGradient
       id="linearGradient3163">
      <stop
         style="stop-color:#fff5e4;stop-opacity:1;"
         id="stop3165"
         offset="0" />
      <stop
         style="stop-color:#ffecd0;stop-opacity:1;"
         id="stop3173"
         offset="0.25" />
      <stop
         style="stop-color:#ffd390;stop-opacity:1;"
         id="stop3171"
         offset="0.5" />
      <stop
         style="stop-color:#ffc46a;stop-opacity:1;"
         id="stop3167"
         offset="1" />
    </linearGradient>
    <linearGradient
       inkscape:collect="always"
       xlink:href="#linearGradient3366"
       id="linearGradient5402"
       gradientUnits="userSpaceOnUse"
       gradientTransform="matrix(0.59617665,0,0,0.59768621,41.599967,52.410285)"
       x1="47.264141"
       y1="21.738457"
       x2="47.264141"
       y2="70.357269" />
    <linearGradient
       inkscape:collect="always"
       id="linearGradient3366">
      <stop
         style="stop-color:#ff8787;stop-opacity:1;"
         offset="0"
         id="stop3368" />
      <stop
         style="stop-color:#ff8787;stop-opacity:0;"
         offset="1"
         id="stop4472" />
    </linearGradient>
    <linearGradient
       id="linearGradient3397">
      <stop
         id="stop3399"
         offset="0"
         style="stop-color:#f4f5f8;stop-opacity:1;" />
      <stop
         id="stop3401"
         offset="1"
         style="stop-color:#fdfdfe;stop-opacity:1;" />
    </linearGradient>
    <linearGradient
       y2="32.750854"
       x2="51.544849"
       y1="109.97649"
       x1="68.313011"
       gradientTransform="matrix(0.84517917,0,0,0.42159859,41.599967,52.410285)"
       gradientUnits="userSpaceOnUse"
       id="linearGradient5496"
       xlink:href="#linearGradient3397"
       inkscape:collect="always" />
    <linearGradient
       inkscape:collect="always"
       xlink:href="#linearGradient2916"
       id="linearGradient3164"
       gradientUnits="userSpaceOnUse"
       gradientTransform="matrix(0.5344452,0,0,0.962358,71.199699,0.8542028)"
       x1="38.875084"
       y1="67.528122"
       x2="90.409752"
       y2="67.528122" />
    <radialGradient
       id="radialGradient3760"
       cx="538.77338"
       cy="651.10352"
       r="126.0234"
       gradientTransform="translate(-484,-674)"
       gradientUnits="userSpaceOnUse">
      <stop
         offset="0"
         style="stop-color:#ff3e3e;stop-opacity:1;"
         id="stop3762" />
      <stop
         offset="0.53930002"
         style="stop-color:#770000;stop-opacity:1;"
         id="stop3764" />
      <stop
         offset="1"
         style="stop-color:#f20000;stop-opacity:1;"
         id="stop3766" />
    </radialGradient>
    <linearGradient
       y2="-103.70771"
       x2="-95.029861"
       y1="-103.70771"
       x1="-32.965027"
       gradientTransform="matrix(0.515625,0,0,0.45833336,-30.999617,-58.666729)"
       gradientUnits="userSpaceOnUse"
       id="linearGradient3597"
       xlink:href="#radialGradient3760"
       inkscape:collect="always" />
  </defs>
  <sodipodi:namedview
     id="base"
     pagecolor="#ffffff"
     bordercolor="#666666"
     borderopacity="1.0"
     inkscape:pageopacity="0.0"
     inkscape:pageshadow="2"
     inkscape:zoom="4"
     inkscape:cx="48"
     inkscape:cy="48"
     inkscape:current-layer="layer1"
     showgrid="false"
     inkscape:document-units="px"
     inkscape:grid-bbox="true"
     guidetolerance="6"
     showguides="true"
     inkscape:guide-bbox="true"
     inkscape:window-width="997"
     inkscape:window-height="713"
     inkscape:window-x="27"
     inkscape:window-y="24"
     width="128px"
     height="128px"
     objecttolerance="6"
     gridtolerance="5"
     fit-margin-top="0"
     fit-margin-left="0"
     fit-margin-right="0"
     fit-margin-bottom="0"
     inkscape:window-maximized="0">
    <inkscape:grid
       type="xygrid"
       id="grid2468"
       visible="true"
       enabled="true"
       spacingx="5.8181px"
       spacingy="5.8181px"
       empspacing="5"
       snapvisiblegridlinesonly="true"
       originx="0px"
       originy="-1.0658141e-14px" />
  </sodipodi:namedview>
  <metadata
     id="metadata1312">
    <rdf:RDF>
      <cc:Work
         rdf:about="">
        <dc:format>image/svg+xml</dc:format>
        <dc:type
           rdf:resource="http://purl.org/dc/dcmitype/StillImage" />
        <cc:license
           rdf:resource="http://creativecommons.org/licenses/GPL/2.0/" />
        <dc:contributor>
          <cc:Agent>
            <dc:title>Oxygen team</dc:title>
          </cc:Agent>
        </dc:contributor>
        <dc:title />
      </cc:Work>
      <cc:License
         rdf:about="http://creativecommons.org/licenses/LGPL/2.1/">
        <cc:permits
           rdf:resource="http://web.resource.org/cc/Reproduction" />
        <cc:permits
           rdf:resource="http://web.resource.org/cc/Distribution" />
        <cc:requires
           rdf:resource="http://web.resource.org/cc/Notice" />
        <cc:permits
           rdf:resource="http://web.resource.org/cc/DerivativeWorks" />
        <cc:requires
           rdf:resource="http://web.resource.org/cc/ShareAlike" />
        <cc:requires
           rdf:resource="http://web.resource.org/cc/SourceCode" />
      </cc:License>
    </rdf:RDF>
  </metadata>
  <g
     id="layer1"
     inkscape:label="Layer 1"
     inkscape:groupmode="layer"
     transform="translate(0,-32)">
    <g
       id="g3469"
       transform="matrix(0.6875,0,0,0.6875,4,36)">
      <path
         sodipodi:nodetypes="ccccccc"
         id="rect3069"
         d="m 81.453397,6.0018078 11.6362,0 c 3.412798,0 5.8181,2.594193 5.8181,5.8181002 l 0,5.8181 -23.2724,0 0,-5.8181 c 0,-3.0466662 2.071514,-5.8181002 5.8181,-5.8181002 z"
         style="fill:url(#linearGradient3539);fill-opacity:1;fill-rule:nonzero;stroke:none"
         inkscape:connector-curvature="0" />
      <path
         style="fill:url(#linearGradient3541);fill-opacity:1;fill-rule:nonzero;stroke:none"
         d="m 81.453397,6.0018078 11.6362,0 c 1.998869,0 5.8181,1.413637 5.8181,5.8181002 l 0,1.145123 c -16.589604,5.037211 -4.978223,0.139942 -23.2724,-0.212766 l 0,-0.932357 c 0,-2.7742662 1.776684,-5.8181002 5.8181,-5.8181002 z"
         id="path3080"
         sodipodi:nodetypes="ccccccc"
         inkscape:connector-curvature="0" />
      <rect
         ry="5.8343143"
         rx="5.8343143"
         y="17.456108"
         x="58.180992"
         height="98.907692"
         width="58.181"
         id="rect1969"
         style="fill:url(#linearGradient3543);fill-opacity:1;fill-rule:nonzero;stroke:none" />
      <rect
         style="opacity:0.51000001;fill:url(#linearGradient3545);fill-opacity:1;fill-rule:nonzero;stroke:none"
         id="rect2872"
         width="58.181"
         height="40.7267"
         x="58.180992"
         y="17.456108"
         rx="5.8389702"
         ry="5.8389702" />
      <rect
         transform="scale(1,-1)"
         ry="5.8441658"
         rx="5.8441658"
         y="-116.3638"
         x="58.180992"
         height="50.681"
         width="58.181"
         id="rect2882"
         style="opacity:0.87000002;fill:url(#linearGradient3547);fill-opacity:1;fill-rule:nonzero;stroke:none" />
      <rect
         style="fill:url(#linearGradient3549);fill-opacity:1;fill-rule:nonzero;stroke:none"
         id="rect2886"
         width="58.181"
         height="52.362846"
         x="58.180992"
         y="-116.3638"
         rx="5.7734318"
         ry="5.7734318"
         transform="scale(1,-1)" />
      <rect
         rx="0.04110394"
         transform="scale(-1,-1)"
         ry="0.04110394"
         y="-64.000908"
         x="-110.5439"
         height="17.454254"
         width="46.5448"
         id="rect3523"
         style="fill:url(#linearGradient3551);fill-opacity:1;fill-rule:nonzero;stroke:none" />
      <rect
         transform="scale(1,-1)"
         ry="5.8313069"
         rx="5.8313069"
         y="-116.3638"
         x="58.180992"
         height="52.362846"
         width="58.181"
         id="rect3136"
         style="opacity:0.41000001;fill:url(#radialGradient3553);fill-opacity:1;fill-rule:nonzero;stroke:none" />
      <rect
         style="fill:url(#linearGradient3555);fill-opacity:1;fill-rule:nonzero;stroke:none"
         id="rect3527"
         width="46.5448"
         height="17.454254"
         x="-110.5439"
         y="-40.728508"
         ry="0.04110394"
         transform="scale(-1,-1)"
         rx="0.04110394" />
      <path
         sodipodi:nodetypes="ccccccc"
         id="rect2885"
         d="m 64.07701,17.956108 c -3.307007,0 -5.298621,2.768677 -5.298621,5.298622 l 0,1.271663 c 16.4267,5.029991 36.89971,4.181574 56.972061,1.375409 l 0.0142,-2.647072 c 0,-3.253023 -2.69553,-5.298622 -5.29862,-5.298622 l -46.38897,0 z"
         style="fill:url(#linearGradient3557);fill-opacity:1;fill-rule:nonzero;stroke:none"
         inkscape:connector-curvature="0" />
      <rect
         style="fill:url(#linearGradient3559);fill-opacity:1;fill-rule:nonzero;stroke:none"
         id="rect3519"
         width="46.5448"
         height="17.454254"
         x="-110.5439"
         y="-87.273308"
         ry="0.04110394"
         transform="scale(-1,-1)"
         rx="0.04110394" />
      <rect
         rx="0.04110394"
         transform="scale(-1,-1)"
         ry="0.04110394"
         y="-110.5457"
         x="-110.5439"
         height="17.454247"
         width="46.5448"
         id="rect2871"
         style="fill:url(#linearGradient3561);fill-opacity:1;fill-rule:nonzero;stroke:none" />
      <rect
         ry="0"
         rx="0"
         y="17.456108"
         x="93.089592"
         height="98.907715"
         width="11.6362"
         id="rect2914"
         style="opacity:0.352459;fill:url(#linearGradient3164);fill-opacity:1;fill-rule:nonzero;stroke:none" />
      <rect
         style="opacity:0.352459;fill:url(#linearGradient3566);fill-opacity:1;fill-rule:nonzero;stroke:none"
         id="rect2911"
         width="11.6362"
         height="29.090498"
         x="93.089592"
         y="17.456108"
         rx="0"
         ry="0" />
      <rect
         ry="0"
         rx="0"
         y="17.456108"
         x="63.999092"
         height="98.907745"
         width="5.8181"
         id="rect2913"
         style="opacity:0.73873871;fill:url(#linearGradient3568);fill-opacity:1;fill-rule:nonzero;stroke:none" />
    </g>
    <g
       id="g3486"
       transform="matrix(0.6875,0,0,0.6875,4,36)">
      <path
         id="path5060"
         d="m 50.5625,15.125 c -3.44743,3.289267 -6.594933,6.983443 -9.59375,10.71875 -0.618555,0.87214 -1.148448,1.735989 -1.964947,2.455961 -4.99803,6.925537 -10.124537,13.757569 -15.059432,20.728714 -4.32978,5.95993 -8.611796,11.958431 -13.163121,17.752825 -0.499106,0.153285 -0.550069,1.249906 0.15625,1.09375 4.331857,0.262349 8.649461,0.706276 12.977485,1.023919 2.580421,0.210777 5.160843,0.421554 7.741265,0.632331 -2.618673,11.716203 -4.397065,23.601214 -6.96435,35.32739 -0.779999,3.4053 -1.682544,6.78991 -2.7544,10.11011 0.138268,0.60976 0.68188,-0.007 0.90375,-0.2675 0.85186,-1.0251 1.988389,-2.08131 2.876525,-3.19105 1.808507,-2.11379 3.626085,-4.27101 5.297224,-6.46545 2.66264,-3.70447 5.420304,-7.342436 8.119969,-11.021437 C 47.14779,83.011108 54.948918,71.845567 63.071334,60.912947 63.742372,59.978858 64.480752,59.025149 65.125,58.15625 65.32645,57.356093 64.348167,57.493382 63.82761,57.43543 55.98924,56.800703 48.15087,56.165977 40.3125,55.53125 40.23786,54.326728 40.904962,53.208521 41.042596,52.021731 43.153788,43.907958 44.862756,35.696057 46.927168,27.571376 48.04607,23.341562 49.174896,19.084231 51,15.09375 50.857774,15.11389 50.692244,15.05405 50.5625,15.125 z"
         style="fill:#f7ff2a;fill-opacity:1;fill-rule:evenodd;stroke:none;filter:url(#filter5098)"
         inkscape:connector-curvature="0" />
      <path
         sodipodi:nodetypes="ccccccc"
         id="path3978"
         d="M 53.752595,11.583646 C 41.352465,20.76463 23.692935,49.360556 8.6635054,68.249044 L 30.795155,70.17371 c -3.67851,15.986474 -6.74977,41.10554 -11.11068,47.94148 8.78246,-5.32495 31.49217,-40.640147 47.21657,-60.995591 l -25.8763,-2.250318 c 4.24261,-14.428545 6.55115,-34.276089 12.72785,-43.285635 z"
         style="fill:#ffa909;fill-opacity:1;fill-rule:evenodd;stroke:none"
         inkscape:connector-curvature="0" />
      <path
         id="path4868"
         d="m 49.375,16.625 c -2.843279,2.910493 -5.482728,6.006464 -8.041473,9.167301 -0.487764,0.784409 -0.964925,1.610739 -1.678795,2.222021 -0.765945,0.993149 -1.598873,2.288329 -2.363099,3.259063 -4.411776,6.011639 -8.861776,11.995101 -13.166631,18.08428 -4.32031,5.894928 -8.497696,11.899822 -13.062502,17.611085 -0.605142,0.371501 -0.515434,0.716472 0.199557,0.607054 6.915195,0.615731 13.845004,1.146433 20.769193,1.674196 -2.629204,11.575585 -4.396527,23.32428 -6.883293,34.92876 -0.830558,3.59939 -1.671798,7.20679 -2.897957,10.69624 2.921683,-2.85202 5.389962,-6.11579 8.03125,-9.21875 0.419882,-0.80915 1.03975,-1.76768 1.71875,-2.46875 0.668768,-0.88854 1.380661,-2.05092 2.15625,-2.9375 1.136616,-1.542044 2.36513,-3.238232 3.559353,-4.838212 C 46.55973,83.371045 55.010913,71.043646 63.99447,59.105324 64.166665,58.711963 65.162852,57.954093 64.800589,57.797161 56.541155,57.174389 48.291005,56.426156 40.03125,55.8125 39.757753,54.743932 40.475702,53.778397 40.570547,52.73817 43.073529,43.317819 44.869719,33.72261 47.478284,24.329608 48.32151,21.344628 49.221028,18.362163 50.5,15.53125 50.125,15.895833 49.75,16.260417 49.375,16.625 z"
         style="fill:url(#radialGradient3570);fill-opacity:1;fill-rule:evenodd;stroke:none"
         inkscape:connector-curvature="0" />
    </g>
    <g
       id="g5301"
       transform="matrix(0.6875,0,0,0.6875,77.25,35.070143)">
      <path
         style="fill:url(#linearGradient5390);fill-opacity:1;stroke:none"
         d="m 60.472669,58.835412 c -0.621405,0.005 -1.216328,0.252942 -1.658111,0.691074 L 48.698191,69.668473 c -0.930921,0.933655 -0.930921,2.447006 0,3.38066 l 15.16524,15.222328 -15.16524,15.222309 c -0.930921,0.93365 -0.930921,2.44701 0,3.38066 l 10.116367,10.14199 c 0.931297,0.93327 2.440818,0.93327 3.372114,0 l 15.183887,-15.20364 15.183861,15.20364 c 0.931309,0.93327 2.44083,0.93327 3.372127,0 l 10.116363,-10.14199 c 0.93093,-0.93365 0.93093,-2.44699 0,-3.38066 L 90.877674,88.271461 106.04293,73.049136 c 0.93091,-0.933657 0.93091,-2.447008 -2e-5,-3.380665 L 95.926547,59.526485 c -0.931297,-0.93327 -2.440818,-0.933273 -3.372127,2e-6 L 77.370559,74.730128 62.186672,59.526483 c -0.455518,-0.451856 -1.07325,-0.700921 -1.714003,-0.691071 z m 18.593258,37.89704 c -0.44797,-0.453928 -1.05844,-0.709347 -1.695368,-0.709347 -0.636941,0 -1.247411,0.255419 -1.695381,0.709347 l 3.390749,0 z"
         id="path3300"
         sodipodi:nodetypes="cccccccccccccccccccccccscc"
         inkscape:connector-curvature="0" />
      <path
         style="fill:#000000;fill-opacity:1;fill-rule:evenodd;stroke:#000000;stroke-width:1.3008064px;stroke-linecap:butt;stroke-linejoin:miter;stroke-opacity:1"
         d="M -62.57895,106.7868 -36.415999,79.916739 -10.606602,106.43324 -36.415999,66.128157 -62.57895,106.7868 z"
         id="path3507"
         clip-path="url(#clipPath3559)"
         transform="matrix(0.59617665,0,0,0.59768621,98.964111,52.410282)"
         inkscape:connector-curvature="0" />
      <path
         sodipodi:nodetypes="ccccccccccccc"
         style="opacity:0.92134836;fill:url(#linearGradient5392);fill-opacity:1;stroke:none"
         d="M 94.232966,63.38882 77.370559,80.293935 60.508139,63.388821 52.550757,71.366338 69.41319,88.271449 52.550757,105.17656 l 7.957382,7.97752 16.862407,-16.905114 16.86242,16.905114 7.957364,-7.97752 L 85.327915,88.271449 102.19033,71.366336 94.232966,63.38882 z"
         id="rect2323"
         inkscape:connector-curvature="0" />
      <path
         transform="matrix(0.59617665,0,0,-0.59768621,98.964111,123.85076)"
         clip-path="url(#clipPath3559)"
         id="path3565"
         d="M -62.57895,106.7868 -36.415999,79.916739 -10.606602,106.43324 -36.415999,66.128157 -62.57895,106.7868 z"
         style="fill:url(#radialGradient5394);fill-opacity:1;fill-rule:evenodd;stroke:none"
         inkscape:connector-curvature="0" />
      <path
         style="opacity:0.79026214;fill:url(#linearGradient5396);fill-opacity:1;fill-rule:evenodd;stroke:none"
         d="m 31.7,16 2.875,-3.375 C 33.523795,10.929242 30.639864,10.336982 28.6375,12.3125 L 31.45,15.6875 31.7,16 z"
         id="path3403"
         sodipodi:nodetypes="ccccc"
         transform="matrix(0.91527255,0,0,0.91759008,31.54719,49.388446)"
         inkscape:connector-curvature="0" />
      <path
         sodipodi:nodetypes="ccccc"
         id="path3481"
         d="m 88.7,16 2.875,-3.375 C 90.523795,10.929242 87.639864,10.336982 85.6375,12.3125 L 88.45,15.6875 88.7,16 z"
         style="opacity:0.79026214;fill:url(#linearGradient5398);fill-opacity:1;fill-rule:evenodd;stroke:none"
         transform="matrix(0.9396701,0,0,0.9420494,11.199436,49.157401)"
         inkscape:connector-curvature="0" />
      <path
         transform="matrix(0.59617665,0,0,0.59768621,41.599967,52.410285)"
         sodipodi:nodetypes="ccccccccccccc"
         id="path3328"
         d="M 88.284271,18.368396 60,46.652666 31.715729,18.368396 18.368396,31.715729 46.652666,60 18.368396,88.284271 31.715729,101.63161 60,73.347334 88.284271,101.63161 101.63161,88.284271 73.347334,60 101.63161,31.715729 88.284271,18.368396 z"
         style="opacity:0.92134836;fill:none;stroke:url(#linearGradient5400);stroke-width:4.05611086;stroke-linecap:round;stroke-linejoin:round;stroke-miterlimit:4;stroke-opacity:1;stroke-dasharray:none;stroke-dashoffset:1.08779998"
         inkscape:connector-curvature="0" />
      <path
         sodipodi:nodetypes="cccscccccc"
         style="fill:url(#linearGradient5402);fill-opacity:1;stroke:none"
         d="m 60.509926,63.391708 -7.956281,7.976432 15.463856,15.503021 c 0.281145,0.0038 0.555703,0.01867 0.838373,0.01867 9.828586,0 16.586949,-2.029157 23.140156,-5.304463 l 9.63252,-9.656892 c 0.0861,-0.298959 0.16506,-0.593179 0.22357,-0.896534 l -7.620941,-7.640233 -16.860633,16.90331 -16.86062,-16.90331 z"
         id="path5167"
         inkscape:connector-curvature="0" />
      <path
         style="fill:url(#linearGradient5496);fill-opacity:1;stroke:none"
         d="m 60.499103,63.350371 -0.447132,0.448264 -7.509162,7.528167 7.807242,-7.229326 17.021308,16.198229 16.699931,-16.198229 6.68942,6.706351 c -0.0585,0.303355 -0.1375,0.597571 -0.22357,0.896527 l -7.247806,8.461526 c -6.53666,3.267036 -15.651166,6.489622 -25.450343,6.499834 l 0.167674,0.168099 c 0.281145,0.0038 0.555691,0.01867 0.838373,0.01867 9.828586,0 16.586949,-2.029158 23.140156,-5.304465 l 9.632516,-9.656898 c 0.0396,-0.137755 0.0765,-0.273809 0.11173,-0.41091 0.0414,-0.160432 0.0802,-0.322042 0.11174,-0.485617 L 94.22023,63.350358 93.773098,63.798623 77.371359,80.295705 60.499103,63.350371 z"
         id="path3374"
         sodipodi:nodetypes="cccccccccccsccsccccc"
         inkscape:connector-curvature="0" />
    </g>
    <g
       transform="translate(62.25,1.3066406e-6)"
       id="g3575">
      <rect
         rx="0.028258959"
         transform="scale(-1,-1)"
         ry="0.028258959"
         y="-112.00013"
         x="-79.998932"
         height="11.999794"
         width="31.99955"
         id="rect2871-0"
         style="fill:url(#linearGradient3597);fill-opacity:1;fill-rule:nonzero;stroke:none" />
    </g>
  </g>
</svg>
