<?xml version="1.0" encoding="UTF-8" standalone="no"?>
<!-- Created with Inkscape (http://www.inkscape.org/) -->

<svg
   xmlns:dc="http://purl.org/dc/elements/1.1/"
   xmlns:cc="http://creativecommons.org/ns#"
   xmlns:rdf="http://www.w3.org/1999/02/22-rdf-syntax-ns#"
   xmlns:svg="http://www.w3.org/2000/svg"
   xmlns="http://www.w3.org/2000/svg"
   xmlns:xlink="http://www.w3.org/1999/xlink"
   xmlns:sodipodi="http://sodipodi.sourceforge.net/DTD/sodipodi-0.dtd"
   xmlns:inkscape="http://www.inkscape.org/namespaces/inkscape"
   inkscape:output_extension="org.inkscape.output.svgz.inkscape"
   sodipodi:docname="bluetooth-active.svg"
   inkscape:export-ydpi="90"
   inkscape:export-xdpi="90"
   inkscape:export-filename="bluetooth-paired.png"
   version="1.0"
   inkscape:version="0.48.4 r9939"
   sodipodi:version="0.32"
   id="svg2"
   height="96"
   width="96">
  <sodipodi:namedview
     id="base"
     pagecolor="#ffffff"
     bordercolor="#666666"
     borderopacity="1.0"
     gridtolerance="10000"
     guidetolerance="10"
     objecttolerance="10"
     inkscape:pageopacity="0.0"
     inkscape:pageshadow="2"
     inkscape:zoom="4"
     inkscape:cx="48"
     inkscape:cy="48"
     inkscape:document-units="px"
     inkscape:current-layer="layer1"
     width="128px"
     height="128px"
     showgrid="false"
     inkscape:grid-points="true"
     inkscape:window-width="1018"
     inkscape:window-height="728"
     inkscape:window-x="57"
     inkscape:window-y="58"
     inkscape:window-maximized="0"
     fit-margin-top="0"
     fit-margin-left="0"
     fit-margin-right="0"
     fit-margin-bottom="0"
     inkscape:object-nodes="true"
     inkscape:snap-page="true">
    <inkscape:grid
       id="GridFromPre046Settings"
       type="xygrid"
       originx="0px"
       originy="-3.8610229e-06px"
       spacingx="4px"
       spacingy="4px"
       color="#0000ff"
       empcolor="#0000ff"
       opacity="0.2"
       empopacity="0.4"
       empspacing="2"
       visible="true"
       enabled="true"
       snapvisiblegridlinesonly="true" />
  </sodipodi:namedview>
  <defs
     id="defs4">
    <linearGradient
       id="linearGradient3797">
      <stop
         id="stop3799"
         offset="0"
         style="stop-color:#181818;stop-opacity:1;" />
      <stop
         id="stop3801"
         offset="1"
         style="stop-color:#484848;stop-opacity:1;" />
    </linearGradient>
    <linearGradient
       id="linearGradient3790">
      <stop
         style="stop-color:#ffffff;stop-opacity:1;"
         offset="0"
         id="stop3792" />
      <stop
         style="stop-color:#c0c0c0;stop-opacity:1;"
         offset="1"
         id="stop3794" />
    </linearGradient>
    <linearGradient
       id="linearGradient3863">
      <stop
         style="stop-color:#000000;stop-opacity:1;"
         offset="0"
         id="stop3865" />
      <stop
         style="stop-color:#000000;stop-opacity:0;"
         offset="1"
         id="stop3867" />
    </linearGradient>
    <linearGradient
       id="linearGradient3354">
      <stop
         style="stop-color:#ffffff;stop-opacity:1;"
         offset="0"
         id="stop3356" />
      <stop
         style="stop-color:#ffffff;stop-opacity:0;"
         offset="1"
         id="stop3358" />
    </linearGradient>
    <linearGradient
       id="linearGradient5919">
      <stop
         id="stop5921"
         offset="0"
         style="stop-color:#ffffff;stop-opacity:1;" />
      <stop
         style="stop-color:#ffffff;stop-opacity:0.49803922;"
         offset="0.5"
         id="stop6238" />
      <stop
         id="stop5923"
         offset="1"
         style="stop-color:#ffffff;stop-opacity:0;" />
    </linearGradient>
    <radialGradient
       r="40"
       fy="113"
       fx="66"
       cy="113"
       cx="66"
       gradientTransform="matrix(1,0,0,0.375,0,70.625)"
       gradientUnits="userSpaceOnUse"
       id="radialGradient3113"
       xlink:href="#linearGradient3863"
       inkscape:collect="always" />
    <radialGradient
       r="20.327044"
       fy="15.586639"
       fx="48.704403"
       cy="14.174014"
       cx="48.704403"
       gradientTransform="matrix(0.89215108,0,0,0.68781653,4.5483175,31.710281)"
       gradientUnits="userSpaceOnUse"
       id="radialGradient3017"
       xlink:href="#linearGradient3354"
       inkscape:collect="always" />
    <radialGradient
       r="36.5"
       fy="27.5"
       fx="64"
       cy="27.5"
       cx="64"
       gradientTransform="matrix(1.6145037,0,0,2.3222316,-55.32824,-19.955122)"
       gradientUnits="userSpaceOnUse"
       id="radialGradient3020"
       xlink:href="#linearGradient5919"
       inkscape:collect="always" />
    <linearGradient
       gradientUnits="userSpaceOnUse"
       y2="103.59342"
       x2="46.54361"
       y1="57.185364"
       x1="46.54361"
       id="linearGradient3803"
       xlink:href="#linearGradient3797"
       inkscape:collect="always" />
    <radialGradient
       r="20.327044"
       fy="52.241333"
       fx="48.704403"
       cy="42.525261"
       cx="48.704403"
       gradientTransform="matrix(1.7526024,-7.7529934e-8,1.085419e-7,2.4536433,-37.359454,-15.071375)"
       gradientUnits="userSpaceOnUse"
       id="radialGradient3026-675"
       xlink:href="#linearGradient5960-436"
       inkscape:collect="always" />
    <linearGradient
       gradientTransform="matrix(0,1,-1,0,-39.9985,140.0029)"
       y2="-383.9971"
       x2="-12.0029"
       y1="-383.9971"
       x1="-84.002403"
       gradientUnits="userSpaceOnUse"
       id="linearGradient5960-436">
      <stop
         id="stop3840"
         style="stop-color:#383838;stop-opacity:1;"
         offset="0" />
      <stop
         id="stop3842"
         style="stop-color:#1a1a1a;stop-opacity:1;"
         offset="1" />
    </linearGradient>
    <linearGradient
       inkscape:collect="always"
       xlink:href="#linearGradient3790"
       id="linearGradient3905"
       gradientUnits="userSpaceOnUse"
       gradientTransform="matrix(0.91666667,0,0,0.91666667,3.9999998,6.6666641)"
       x1="47.698883"
       y1="46.902985"
       x2="47.698883"
       y2="112.54068" />
  </defs>
  <metadata
     id="metadata7">
    <rdf:RDF>
      <cc:Work
         rdf:about="">
        <dc:format>image/svg+xml</dc:format>
        <dc:type
           rdf:resource="http://purl.org/dc/dcmitype/StillImage" />
        <dc:title />
      </cc:Work>
    </rdf:RDF>
  </metadata>
  <g
     inkscape:label="Layer 1"
     inkscape:groupmode="layer"
     id="layer1"
     transform="translate(0,-31.999996)">
    <g
       id="g3016">
      <path
         transform="matrix(0.59644415,0,0,0.47715551,8.6346856,61.143931)"
         d="m 106,113 c 0,8.28427 -17.90861,15 -40,15 -22.09139,0 -40,-6.71573 -40,-15 0,-8.28427 17.90861,-15 40,-15 22.09139,0 40,6.71573 40,15 z"
         sodipodi:ry="15"
         sodipodi:rx="40"
         sodipodi:cy="113"
         sodipodi:cx="66"
         id="path3372"
         style="fill:url(#radialGradient3113);fill-opacity:1;stroke:none"
         sodipodi:type="arc" />
      <path
         inkscape:connector-curvature="0"
         sodipodi:nodetypes="csssc"
         id="path2160"
         d="M 75.5,79.999999 C 75.5,113 63.18,118.5 48,118.5 32.82,118.5 20.499999,113 20.499999,79.999999 20.499999,46.999997 32.82,41.499998 48,41.499998 c 15.18,0 27.5,5.499999 27.5,38.500001 z"
         style="fill:url(#radialGradient3026-675);fill-opacity:1;stroke:none" />
      <path
         sodipodi:nodetypes="csssc"
         id="path3020"
         d="M 72.75,79.999998 C 72.75,110.64285 61.662001,115.75 48.000001,115.75 34.338001,115.75 23.25,110.64285 23.25,79.999998 c 0,-30.642858 11.088001,-35.750001 24.750001,-35.750001 13.662,0 24.749999,5.107143 24.749999,35.750001 z"
         style="fill:url(#linearGradient3905);fill-opacity:1;stroke:none"
         inkscape:connector-curvature="0" />
      <path
         inkscape:connector-curvature="0"
         sodipodi:nodetypes="csssc"
         id="path3305"
         d="M 72.75,79.999998 C 72.75,110.64285 61.662001,115.75 48.000001,115.75 34.338001,115.75 23.25,110.64285 23.25,79.999998 c 0,-30.642858 11.088001,-35.750001 24.750001,-35.750001 13.662,0 24.749999,5.107143 24.749999,35.750001 z"
         style="fill:none;stroke:url(#radialGradient3020);stroke-width:1.03125;stroke-linecap:round;stroke-linejoin:round;stroke-miterlimit:4;stroke-opacity:1;stroke-dasharray:none" />
      <path
         id="path3352"
         d="m 48,41.471348 c -12.587601,0 -23.221431,3.791455 -26.497396,23.861979 l 52.994792,0 C 71.221431,45.262803 60.587601,41.471348 48,41.471348 z"
         style="fill:url(#radialGradient3017);fill-opacity:1;stroke:none"
         inkscape:connector-curvature="0" />
      <path
         id="path35"
         d="m 44.791667,51.526036 0,0.973958 0,9.138021 0,12.575521 -2.979167,2.377604 -10.026042,-8.020833 -0.744791,-0.601563 0,0.973958 0,5.5 0,0.200521 0.171875,0.143229 6.416666,5.15625 -6.416666,5.127605 -0.171875,0.143229 0,0.229167 0,5.5 0,0.945312 0.744791,-0.601562 10.026042,-8.020834 2.979167,2.377604 0,21.799477 0,0.97396 0.744791,-0.63021 16.5,-13.721352 0.429688,-0.34375 -0.429688,-0.372395 -16.070312,-13.377605 16.070312,-13.377604 0.429688,-0.372396 -0.429688,-0.34375 -16.5,-13.721354 -0.744791,-0.630208 z m 3.666666,8.994791 7.046875,5.671875 -7.046875,5.64323 0,-11.315105 z m 0,27.500001 7.046875,5.671875 -7.046875,5.643229 0,-11.315104 z"
         style="fill:url(#linearGradient3803);fill-opacity:1;fill-rule:evenodd;stroke:none"
         inkscape:connector-curvature="0" />
      <path
         sodipodi:nodetypes="cccccccccccccccccccccccccccccccc"
         inkscape:connector-curvature="0"
         id="path3809"
         d="m 48.458333,60.520827 0,1.833334 5.901042,4.755208 1.145833,-0.916667 z m 14.007813,5.700521 -16.5,13.75 1.088541,0.916667 15.411459,-12.833333 z m -31.424479,8.421875 0,1.833334 5.442708,4.382812 1.145833,-0.916667 z m 10.770833,8.622396 -10.770833,8.622396 0,1.833333 10.770833,-8.622395 2.979167,2.377604 0,-1.833334 z m 6.645833,4.755209 0,1.833333 5.901042,4.755208 1.145833,-0.916666 z m 14.007813,5.70052 -17.674479,14.695312 0,1.83333 17.674479,-14.695308 z"
         style="fill:#ffffff;fill-opacity:1;fill-rule:evenodd;stroke:none" />
      <path
         sodipodi:nodetypes="ccccccccccccccccccccccccccccccccccccccccccccc"
         inkscape:connector-curvature="0"
         id="path3804"
         d="m 44.791667,49.692702 0,0.973959 0,2.692708 0.744791,0.630208 14.723959,12.260417 2.205729,-0.02865 0,-1.833333 -16.929688,-14.065104 z m -13.75,16.442709 0,0.973958 0,2.692708 0.744791,0.601563 10.026042,8.020833 2.979167,-2.377604 0,-3.666667 -2.979167,2.377605 -10.026042,-8.020834 z m 22.171875,0.05729 -4.755209,3.809896 0,3.666667 7.046875,-5.643229 0,-1.833334 z m -17.875,13.75 -4.296875,3.4375 0,3.666667 0.171875,-0.143229 6.416666,-5.127604 0,-1.833334 z m 12.833333,0.02865 -2.205729,0 0,1.833334 14.294271,11.88802 2.205729,0.02865 0,-1.833333 z m 5.041667,13.721354 -4.755209,3.809896 0,3.666669 7.046875,-5.643231 0,-1.833334 z"
         style="opacity:0.5;fill:#000000;fill-opacity:1;fill-rule:evenodd;stroke:none" />
    </g>
  </g>
</svg>
