<?xml version="1.0" encoding="UTF-8" standalone="no"?>
<!-- Created with Inkscape (http://www.inkscape.org/) -->

<svg
   xmlns:dc="http://purl.org/dc/elements/1.1/"
   xmlns:cc="http://creativecommons.org/ns#"
   xmlns:rdf="http://www.w3.org/1999/02/22-rdf-syntax-ns#"
   xmlns:svg="http://www.w3.org/2000/svg"
   xmlns="http://www.w3.org/2000/svg"
   xmlns:xlink="http://www.w3.org/1999/xlink"
   xmlns:sodipodi="http://sodipodi.sourceforge.net/DTD/sodipodi-0.dtd"
   xmlns:inkscape="http://www.inkscape.org/namespaces/inkscape"
   inkscape:output_extension="org.inkscape.output.svgz.inkscape"
   sodipodi:docname="bluetooth-active.svg"
   inkscape:export-ydpi="90"
   inkscape:export-xdpi="90"
   inkscape:export-filename="bluetooth-active.png"
   version="1.0"
   inkscape:version="0.48.3.1 r9886"
   sodipodi:version="0.32"
   id="svg2"
   height="96"
   width="96">
  <defs
     id="defs4">
    <linearGradient
       id="linearGradient3790">
      <stop
         style="stop-color:#ffffff;stop-opacity:1;"
         offset="0"
         id="stop3792" />
      <stop
         style="stop-color:#c0c0c0;stop-opacity:1;"
         offset="1"
         id="stop3794" />
    </linearGradient>
    <linearGradient
       inkscape:collect="always"
       id="linearGradient3863">
      <stop
         style="stop-color:#002447;stop-opacity:1;"
         offset="0"
         id="stop3865" />
      <stop
         style="stop-color:#002447;stop-opacity:0;"
         offset="1"
         id="stop3867" />
    </linearGradient>
    <linearGradient
       inkscape:collect="always"
       id="linearGradient3354">
      <stop
         style="stop-color:#dceaff;stop-opacity:1;"
         offset="0"
         id="stop3356" />
      <stop
         style="stop-color:#dceaff;stop-opacity:0;"
         offset="1"
         id="stop3358" />
    </linearGradient>
    <linearGradient
       id="linearGradient5919">
      <stop
         id="stop5921"
         offset="0"
         style="stop-color:#ffffff;stop-opacity:1;" />
      <stop
         style="stop-color:#78c9ff;stop-opacity:0.49803922;"
         offset="0.5"
         id="stop6238" />
      <stop
         id="stop5923"
         offset="1"
         style="stop-color:#ffffff;stop-opacity:0;" />
    </linearGradient>
    <linearGradient
       gradientTransform="matrix(0,1,-1,0,-39.9985,140.0029)"
       y2="-383.9971"
       x2="-12.0029"
       y1="-383.9971"
       x1="-84.002403"
       gradientUnits="userSpaceOnUse"
       id="linearGradient5960">
      <stop
         id="stop5962"
         style="stop-color:#0081ec;stop-opacity:1;"
         offset="0" />
      <stop
         id="stop5964"
         style="stop-color:#003871;stop-opacity:1;"
         offset="1" />
    </linearGradient>
    <radialGradient
       inkscape:collect="always"
       xlink:href="#linearGradient3863"
       id="radialGradient3027"
       gradientUnits="userSpaceOnUse"
       gradientTransform="matrix(1,0,0,0.375,0,70.625)"
       cx="66"
       cy="113"
       fx="66"
       fy="113"
       r="40" />
    <radialGradient
       inkscape:collect="always"
       xlink:href="#linearGradient5960"
       id="radialGradient3029"
       gradientUnits="userSpaceOnUse"
       gradientTransform="matrix(1.9119299,-8.4578109e-8,1.1840935e-7,2.6767018,-45.119404,-23.714224)"
       cx="48.704403"
       cy="42.525261"
       fx="48.704403"
       fy="52.241333"
       r="20.327044" />
    <linearGradient
       inkscape:collect="always"
       xlink:href="#linearGradient3790"
       id="linearGradient3031"
       gradientUnits="userSpaceOnUse"
       x1="48"
       y1="41"
       x2="47.698883"
       y2="119.25651" />
    <radialGradient
       inkscape:collect="always"
       xlink:href="#linearGradient5919"
       id="radialGradient3033"
       gradientUnits="userSpaceOnUse"
       gradientTransform="matrix(1.7612768,0,0,2.5333436,-64.721716,-29.041948)"
       cx="64"
       cy="27.5"
       fx="64"
       fy="27.5"
       r="36.5" />
    <radialGradient
       inkscape:collect="always"
       xlink:href="#linearGradient3354"
       id="radialGradient3035"
       gradientUnits="userSpaceOnUse"
       gradientTransform="matrix(0.97325572,0,0,0.7503453,0.59816475,-4.679687)"
       cx="48.704403"
       cy="14.174014"
       fx="48.704403"
       fy="15.586639"
       r="20.327044" />
  </defs>
  <sodipodi:namedview
     id="base"
     pagecolor="#ffffff"
     bordercolor="#666666"
     borderopacity="1.0"
     gridtolerance="10000"
     guidetolerance="10"
     objecttolerance="10"
     inkscape:pageopacity="0.0"
     inkscape:pageshadow="2"
     inkscape:zoom="4"
     inkscape:cx="48"
     inkscape:cy="48"
     inkscape:document-units="px"
     inkscape:current-layer="layer1"
     width="128px"
     height="128px"
     showgrid="false"
     inkscape:grid-points="true"
     inkscape:window-width="1061"
     inkscape:window-height="759"
     inkscape:window-x="0"
     inkscape:window-y="24"
     inkscape:window-maximized="0"
     fit-margin-top="0"
     fit-margin-left="0"
     fit-margin-right="0"
     fit-margin-bottom="0"
     inkscape:object-nodes="true"
     inkscape:snap-page="true">
    <inkscape:grid
       id="GridFromPre046Settings"
       type="xygrid"
       originx="0px"
       originy="-3.8610229e-06px"
       spacingx="4px"
       spacingy="4px"
       color="#0000ff"
       empcolor="#0000ff"
       opacity="0.2"
       empopacity="0.4"
       empspacing="2"
       visible="true"
       enabled="true"
       snapvisiblegridlinesonly="true" />
  </sodipodi:namedview>
  <metadata
     id="metadata7">
    <rdf:RDF>
      <cc:Work
         rdf:about="">
        <dc:format>image/svg+xml</dc:format>
        <dc:type
           rdf:resource="http://purl.org/dc/dcmitype/StillImage" />
        <dc:title />
      </cc:Work>
    </rdf:RDF>
  </metadata>
  <g
     inkscape:label="Layer 1"
     inkscape:groupmode="layer"
     id="layer1"
     transform="translate(0,-31.999996)">
    <g
       id="g3012"
       transform="matrix(0.91666667,0,0,0.91666667,3.9999998,6.6666694)">
      <path
         transform="matrix(0.65066634,0,0,0.52053328,5.0560209,59.429745)"
         d="m 106,113 c 0,8.28427 -17.90861,15 -40,15 -22.09139,0 -40,-6.71573 -40,-15 0,-8.28427 17.90861,-15 40,-15 22.09139,0 40,6.71573 40,15 z"
         sodipodi:ry="15"
         sodipodi:rx="40"
         sodipodi:cy="113"
         sodipodi:cx="66"
         id="path3372"
         style="fill:url(#radialGradient3027);fill-opacity:1;stroke:none"
         sodipodi:type="arc" />
      <path
         inkscape:connector-curvature="0"
         sodipodi:nodetypes="csssc"
         id="path2160"
         d="M 78,80.000001 C 78,116 64.56,122 48,122 31.44,122 17.999999,116 17.999999,80.000001 17.999999,43.999999 31.44,38 48,38 c 16.56,0 30,5.999999 30,42.000001 z"
         style="fill:url(#radialGradient3029);fill-opacity:1;stroke:none" />
      <path
         sodipodi:nodetypes="csssc"
         id="path3020"
         d="M 75,80 C 75,113.42857 62.904001,119 48.000001,119 33.096001,119 21,113.42857 21,80 21,46.571428 33.096001,40.999999 48.000001,40.999999 62.904001,40.999999 75,46.571428 75,80 z"
         style="fill:url(#linearGradient3031);fill-opacity:1;stroke:none"
         inkscape:connector-curvature="0" />
      <path
         inkscape:connector-curvature="0"
         sodipodi:nodetypes="csssc"
         id="path3305"
         d="M 75,80 C 75,113.42857 62.904001,119 48.000001,119 33.096001,119 21,113.42857 21,80 21,46.571428 33.096001,40.999999 48.000001,40.999999 62.904001,40.999999 75,46.571428 75,80 z"
         style="fill:none;stroke:url(#radialGradient3033);stroke-width:1.125;stroke-linecap:round;stroke-linejoin:round;stroke-miterlimit:4;stroke-opacity:1;stroke-dasharray:none" />
      <path
         inkscape:connector-curvature="0"
         transform="translate(0,31.999996)"
         id="path3352"
         d="M 48,5.96875 C 34.268072,5.96875 22.66753,10.104882 19.09375,32 l 57.8125,0 C 73.33247,10.104882 61.731928,5.96875 48,5.96875 z"
         style="fill:url(#radialGradient3035);fill-opacity:1;stroke:none" />
      <path
         inkscape:connector-curvature="0"
         transform="translate(0,31.999996)"
         id="path35"
         d="m 44.5,16.9375 0,1.0625 0,9.96875 0,13.71875 -3.25,2.59375 -10.9375,-8.75 L 29.5,34.875 l 0,1.0625 0,6 0,0.21875 0.1875,0.15625 7,5.625 -7,5.59375 -0.1875,0.15625 0,0.25 0,6 0,1.03125 0.8125,-0.65625 10.9375,-8.75 3.25,2.59375 0,23.78125 0,1.0625 0.8125,-0.6875 18,-14.96875 0.46875,-0.375 L 63.3125,62.5625 45.78125,47.96875 63.3125,33.375 63.78125,32.96875 63.3125,32.59375 45.3125,17.625 44.5,16.9375 z m 4,9.8125 7.6875,6.1875 L 48.5,39.09375 48.5,26.75 z m 0,30 7.6875,6.1875 L 48.5,69.09375 48.5,56.75 z"
         style="fill:#004fa0;fill-opacity:1;fill-rule:evenodd;stroke:none" />
      <path
         sodipodi:nodetypes="cccccccccccccccccccccccccccccccc"
         inkscape:connector-curvature="0"
         id="path3809"
         transform="translate(0,31.999996)"
         d="m 48.5,26.75 0,2 6.4375,5.1875 1.25,-1 z m 15.28125,6.21875 -18,15 1.1875,1 16.8125,-14 z M 29.5,42.15625 l 0,2 5.9375,4.78125 1.25,-1 z m 11.75,9.40625 -11.75,9.40625 0,2 11.75,-9.40625 3.25,2.59375 0,-2 z m 7.25,5.1875 0,2 6.4375,5.1875 1.25,-1 z M 63.78125,62.96875 44.5,79 l 0,2 19.28125,-16.03125 z"
         style="fill:#ffffff;fill-opacity:1;fill-rule:evenodd;stroke:none" />
      <path
         sodipodi:nodetypes="ccccccccccccccccccccccccccccccccccccccccccccc"
         inkscape:connector-curvature="0"
         id="path3804"
         d="m 44.5,46.937496 0,1.0625 0,2.9375 0.8125,0.6875 16.0625,13.375 2.40625,-0.03125 0,-2 -18.46875,-15.34375 z m -15,17.9375 0,1.0625 0,2.9375 0.8125,0.65625 10.9375,8.75 3.25,-2.59375 0,-4 -3.25,2.59375 -10.9375,-8.75 z m 24.1875,0.0625 -5.1875,4.15625 0,4 7.6875,-6.15625 0,-2 z m -19.5,15 -4.6875,3.75 0,4 0.1875,-0.15625 7,-5.59375 0,-2 z m 14,0.03125 -2.40625,0 0,2 15.59375,12.96875 2.40625,0.03125 0,-2 z m 5.5,14.96875 -5.1875,4.15625 0,4.000004 7.6875,-6.156254 0,-2 z"
         style="opacity:0.5;fill:#000000;fill-opacity:1;fill-rule:evenodd;stroke:none" />
    </g>
  </g>
</svg>
