<?xml version="1.0" encoding="UTF-8" standalone="no"?>
<!-- Created with Inkscape (http://www.inkscape.org/) -->

<svg
   xmlns:dc="http://purl.org/dc/elements/1.1/"
   xmlns:cc="http://creativecommons.org/ns#"
   xmlns:rdf="http://www.w3.org/1999/02/22-rdf-syntax-ns#"
   xmlns:svg="http://www.w3.org/2000/svg"
   xmlns="http://www.w3.org/2000/svg"
   xmlns:xlink="http://www.w3.org/1999/xlink"
   xmlns:sodipodi="http://sodipodi.sourceforge.net/DTD/sodipodi-0.dtd"
   xmlns:inkscape="http://www.inkscape.org/namespaces/inkscape"
   width="96"
   height="96"
   id="svg2"
   sodipodi:version="0.32"
   inkscape:version="0.48.3.1 r9886"
   version="1.0"
   sodipodi:docname="dialog-error.svg"
   inkscape:output_extension="org.inkscape.output.svgz.inkscape"
   inkscape:export-filename="dialog-error.png"
   inkscape:export-xdpi="90"
   inkscape:export-ydpi="90">
  <defs
     id="defs4">
    <linearGradient
       inkscape:collect="always"
       id="linearGradient5132">
      <stop
         style="stop-color:#ff7e00;stop-opacity:1"
         offset="0"
         id="stop5134" />
      <stop
         style="stop-color:#ff7e00;stop-opacity:0"
         offset="1"
         id="stop5136" />
    </linearGradient>
    <linearGradient
       id="linearGradient5116">
      <stop
         id="stop5118"
         offset="0"
         style="stop-color:#ffffff;stop-opacity:1;" />
      <stop
         id="stop5120"
         offset="1"
         style="stop-color:#ffffff;stop-opacity:0;" />
    </linearGradient>
    <linearGradient
       inkscape:collect="always"
       id="linearGradient5080">
      <stop
         style="stop-color:#ffb5b5;stop-opacity:1"
         offset="0"
         id="stop5082" />
      <stop
         style="stop-color:#ffbfbf;stop-opacity:0;"
         offset="1"
         id="stop5084" />
    </linearGradient>
    <linearGradient
       id="linearGradient5031">
      <stop
         style="stop-color:#ffffff;stop-opacity:1"
         offset="0"
         id="stop5033" />
      <stop
         style="stop-color:#ffffff;stop-opacity:0"
         offset="1"
         id="stop5035" />
    </linearGradient>
    <linearGradient
       inkscape:collect="always"
       id="linearGradient5015">
      <stop
         style="stop-color:#ff1212;stop-opacity:1"
         offset="0"
         id="stop5017" />
      <stop
         style="stop-color:#750000;stop-opacity:1"
         offset="1"
         id="stop5019" />
    </linearGradient>
    <linearGradient
       id="linearGradient4997"
       inkscape:collect="always">
      <stop
         id="stop4999"
         offset="0"
         style="stop-color:#8c0000;stop-opacity:1" />
      <stop
         id="stop5001"
         offset="1"
         style="stop-color:#470000;stop-opacity:1" />
    </linearGradient>
    <linearGradient
       inkscape:collect="always"
       xlink:href="#linearGradient5132"
       id="linearGradient3040"
       gradientUnits="userSpaceOnUse"
       gradientTransform="matrix(0.85512082,0,0,0.85512082,-6.7277293,25.272269)"
       x1="82.550011"
       y1="108.25001"
       x2="82.550011"
       y2="35.43399" />
    <linearGradient
       inkscape:collect="always"
       xlink:href="#linearGradient5116"
       id="linearGradient3043"
       gradientUnits="userSpaceOnUse"
       gradientTransform="matrix(0.85512082,0,0,0.85512082,-6.7277293,25.272269)"
       x1="77.450546"
       y1="17.868132"
       x2="77.450546"
       y2="67.763039" />
    <linearGradient
       inkscape:collect="always"
       xlink:href="#linearGradient5080"
       id="linearGradient3046"
       gradientUnits="userSpaceOnUse"
       gradientTransform="matrix(0.85512082,0,0,0.85512082,-6.7277293,25.272269)"
       x1="77.450546"
       y1="17.868132"
       x2="77.450546"
       y2="89.444931" />
    <radialGradient
       inkscape:collect="always"
       xlink:href="#linearGradient5015"
       id="radialGradient3052"
       gradientUnits="userSpaceOnUse"
       gradientTransform="matrix(1.4866939,-7.101784e-8,4.987718e-8,1.0441334,-47.148412,14.966415)"
       cx="64.000008"
       cy="73.475296"
       fx="64"
       fy="77.237541"
       r="39.999996" />
    <radialGradient
       inkscape:collect="always"
       xlink:href="#linearGradient5031"
       id="radialGradient3055"
       gradientUnits="userSpaceOnUse"
       gradientTransform="matrix(2.4806677,0,0,0.31292288,-110.76274,35.310357)"
       cx="64.000008"
       cy="21.660604"
       fx="64.000008"
       fy="21.660604"
       r="43.999996" />
    <linearGradient
       inkscape:collect="always"
       xlink:href="#linearGradient4997"
       id="linearGradient3058"
       gradientUnits="userSpaceOnUse"
       gradientTransform="matrix(0.89656508,0,0,0.89656508,-9.380163,22.619835)"
       spreadMethod="pad"
       x1="61.211941"
       y1="15.015407"
       x2="61.211941"
       y2="105.08932" />
  </defs>
  <sodipodi:namedview
     id="base"
     pagecolor="#ffffff"
     bordercolor="#666666"
     borderopacity="1.0"
     gridtolerance="10000"
     guidetolerance="10"
     objecttolerance="10"
     inkscape:pageopacity="0.0"
     inkscape:pageshadow="2"
     inkscape:zoom="4"
     inkscape:cx="48"
     inkscape:cy="48"
     inkscape:document-units="px"
     inkscape:current-layer="layer1"
     width="128px"
     height="128px"
     showgrid="false"
     borderlayer="true"
     inkscape:showpageshadow="false"
     showborder="true"
     inkscape:window-width="1007"
     inkscape:window-height="726"
     inkscape:window-x="10"
     inkscape:window-y="0"
     inkscape:window-maximized="0"
     fit-margin-top="0"
     fit-margin-left="0"
     fit-margin-right="0"
     fit-margin-bottom="0">
    <inkscape:grid
       id="GridFromPre046Settings"
       type="xygrid"
       originx="0px"
       originy="-7.7220459e-06px"
       spacingx="4px"
       spacingy="4px"
       color="#3f3fff"
       empcolor="#3f3fff"
       opacity="0.15"
       empopacity="0.38"
       empspacing="4"
       visible="true"
       enabled="true"
       snapvisiblegridlinesonly="true" />
  </sodipodi:namedview>
  <metadata
     id="metadata7">
    <rdf:RDF>
      <cc:Work
         rdf:about="">
        <dc:format>image/svg+xml</dc:format>
        <dc:type
           rdf:resource="http://purl.org/dc/dcmitype/StillImage" />
        <dc:title />
      </cc:Work>
    </rdf:RDF>
  </metadata>
  <g
     inkscape:label="Layer 1"
     inkscape:groupmode="layer"
     id="layer1"
     transform="translate(0,-31.999992)">
    <path
       style="font-size:medium;font-style:normal;font-variant:normal;font-weight:normal;font-stretch:normal;text-indent:0;text-align:start;text-decoration:none;line-height:normal;letter-spacing:normal;word-spacing:normal;text-transform:none;direction:ltr;block-progression:tb;writing-mode:lr-tb;text-anchor:start;baseline-shift:baseline;color:#000000;fill:url(#linearGradient3058);fill-opacity:1;stroke:none;stroke-width:8.87945652;marker:none;visibility:visible;display:inline;overflow:visible;enable-background:accumulate;font-family:Sans;-inkscape-font-specification:Sans"
       d="m 20.859375,40.812498 c -6.620051,0 -12.046875,5.426824 -12.046875,12.046875 l 0,54.281247 c 0,6.62005 5.426824,12.04688 12.046875,12.04688 l 54.28125,0 c 6.620047,0 12.046875,-5.42683 12.046875,-12.04688 l 0,-54.281247 c 0,-6.620051 -5.426828,-12.046875 -12.046875,-12.046875 l -54.28125,0 z m 0,6.65625 54.28125,0 c 3.045833,0 5.390625,2.344796 5.390625,5.390625 l 0,54.281247 c 0,3.04584 -2.344792,5.39063 -5.390625,5.39063 l -54.28125,0 c -3.04583,0 -5.390625,-2.34479 -5.390625,-5.39063 l 0,-54.281247 c 0,-3.045829 2.344795,-5.390625 5.390625,-5.390625 z"
       id="rect2160"
       inkscape:connector-curvature="0" />
    <path
       style="font-size:medium;font-style:normal;font-variant:normal;font-weight:normal;font-stretch:normal;text-indent:0;text-align:start;text-decoration:none;line-height:normal;letter-spacing:normal;word-spacing:normal;text-transform:none;direction:ltr;block-progression:tb;writing-mode:lr-tb;text-anchor:start;baseline-shift:baseline;opacity:0.72682932;color:#000000;fill:url(#radialGradient3055);fill-opacity:1;stroke:none;stroke-width:8.87945652;marker:none;visibility:visible;display:inline;overflow:visible;enable-background:accumulate;font-family:Sans;-inkscape-font-specification:Sans"
       d="m 19.992187,40.812498 c -6.137524,0 -11.179687,5.042163 -11.179687,11.179688 l 0,28.007812 0,3.328125 3.328125,0 71.71875,0 3.328125,0 0,-3.328125 0,-28.007812 c 0,-6.137523 -5.04216,-11.179688 -11.179688,-11.179688 l -56.015625,0 z m 0,6.65625 56.015625,0 c 2.578103,0 4.523438,1.945337 4.523438,4.523438 l 0,24.679687 -65.0625,0 0,-24.679687 c 0,-2.5781 1.945338,-4.523438 4.523437,-4.523438 z"
       id="rect5029"
       inkscape:connector-curvature="0" />
    <path
       style="fill:url(#radialGradient3052);fill-opacity:1;stroke:none"
       d="m 18.262746,45.795174 59.474514,0 c 2.475038,0 4.46757,1.992536 4.46757,4.46757 l 0,59.474516 c 0,2.47504 -1.992532,4.46757 -4.46757,4.46757 l -59.474514,0 c -2.475034,0 -4.46757,-1.99253 -4.46757,-4.46757 l 0,-59.474516 c 0,-2.475034 1.992536,-4.46757 4.46757,-4.46757 z"
       id="rect2164"
       inkscape:connector-curvature="0" />
    <path
       style="font-size:medium;font-style:normal;font-variant:normal;font-weight:normal;font-stretch:normal;text-indent:0;text-align:start;text-decoration:none;line-height:normal;letter-spacing:normal;word-spacing:normal;text-transform:none;direction:ltr;block-progression:tb;writing-mode:lr-tb;text-anchor:start;baseline-shift:baseline;color:#000000;fill:url(#linearGradient3040);fill-opacity:1;stroke:none;stroke-width:0.43853456;marker:none;visibility:visible;display:inline;overflow:visible;enable-background:accumulate;font-family:Sans;-inkscape-font-specification:Sans"
       d="m 18.257832,45.608111 c -2.575666,0 -4.64972,2.074053 -4.64972,4.649719 l 0,59.48434 c 0,2.57567 2.074054,4.64972 4.64972,4.64972 l 59.48434,0 c 2.575673,0 4.649723,-2.07405 4.649723,-4.64972 l 0,-59.48434 c 0,-2.575666 -2.07405,-4.64972 -4.649723,-4.64972 l -59.48434,0 z m 0,0.374115 59.48434,0 c 2.37441,0 4.275608,1.901202 4.275608,4.275604 l 0,59.48434 c 0,2.37441 -1.901198,4.27561 -4.275608,4.27561 l -59.48434,0 c -2.374402,0 -4.275604,-1.9012 -4.275604,-4.27561 l 0,-59.48434 c 0,-2.374402 1.901202,-4.275604 4.275604,-4.275604 z"
       id="rect5122"
       inkscape:connector-curvature="0" />
    <path
       style="opacity:0.5;fill:#000000;fill-opacity:1;stroke:none"
       d="M 33.71875,56.34375 A 1.0001,1.0001 0 0 0 33.125,56.625 l -9.46875,9.46875 a 1.0001,1.0001 0 0 0 0,1.4375 L 36.625,80.5 23.65625,93.4375 a 1.0001,1.0001 0 0 0 0,1.4375 l 9.46875,9.46875 a 1.0001,1.0001 0 0 0 1.4375,0 L 47.5,91.375 60.46875,104.34375 a 1.0001,1.0001 0 0 0 1.4375,0 L 71.375,94.875 a 1.0001,1.0001 0 0 0 0,-1.4375 L 58.4375,80.5 71.375,67.53125 a 1.0001,1.0001 0 0 0 0,-1.4375 L 61.90625,56.625 a 1.0001,1.0001 0 0 0 -1.4375,0 L 47.5,69.5625 34.5625,56.625 a 1.0001,1.0001 0 0 0 -0.84375,-0.28125 z"
       id="path3060" />
    <path
       id="path3381"
       d="M 33.844505,57.352309 24.367936,66.803808 38.056313,80.492186 24.367936,94.155493 33.844505,103.63206 47.507812,89.943685 61.19619,103.63206 70.647689,94.155493 56.984382,80.492186 70.647689,66.803808 61.19619,57.352309 47.507812,71.015616 33.844505,57.352309 z"
       style="fill:none;stroke:none"
       inkscape:connector-curvature="0" />
    <path
       style="fill:url(#linearGradient3043);fill-opacity:1;stroke:none"
       d="m 18.25783,45.795167 c -2.475034,0 -4.462661,1.987626 -4.462661,4.462662 l 0,30.116285 c 0.344423,0.07502 0.695288,0.14131 1.042179,0.21378 l 0,-29.180997 c 0,-2.452428 1.928615,-4.409216 4.329048,-4.409216 l 57.667204,0 c 2.400435,0 4.329053,1.956788 4.329053,4.409216 l 0,26.56219 c 0.345974,-0.10615 0.699592,-0.211765 1.042177,-0.320671 l 0,-27.390587 c 0,-2.475035 -1.987635,-4.462662 -4.462665,-4.462662 l -59.484334,0 z"
       id="path5105"
       inkscape:connector-curvature="0" />
    <path
       style="fill:url(#linearGradient3046);fill-opacity:1;stroke:none"
       d="m 18.25783,45.795167 c -2.475034,0 -4.462661,1.987626 -4.462661,4.462662 l 0,30.116285 c 8.97197,1.95429 18.787823,3.046366 29.074106,3.046366 14.374212,0 27.819551,-2.111223 39.335555,-5.772064 l 0,-27.390587 c 0,-2.475035 -1.987635,-4.462662 -4.462665,-4.462662 l -59.484334,0 z"
       id="rect5073"
       inkscape:connector-curvature="0" />
    <path
       style="fill:#ffffff;fill-opacity:1;stroke:none"
       d="M 33.844505,57.352309 24.367936,66.803808 38.056313,80.492186 24.367936,94.155493 33.844505,103.63206 47.507812,89.943685 61.19619,103.63206 70.647689,94.155493 56.984382,80.492186 70.647689,66.803808 61.19619,57.352309 47.507812,71.015616 33.844505,57.352309 z"
       id="rect3376"
       inkscape:connector-curvature="0" />
  </g>
</svg>
