<?xml version="1.0" encoding="UTF-8" standalone="no"?>
<!-- Created with Inkscape (http://www.inkscape.org/) -->

<svg
   xmlns:dc="http://purl.org/dc/elements/1.1/"
   xmlns:cc="http://creativecommons.org/ns#"
   xmlns:rdf="http://www.w3.org/1999/02/22-rdf-syntax-ns#"
   xmlns:svg="http://www.w3.org/2000/svg"
   xmlns="http://www.w3.org/2000/svg"
   xmlns:xlink="http://www.w3.org/1999/xlink"
   xmlns:sodipodi="http://sodipodi.sourceforge.net/DTD/sodipodi-0.dtd"
   xmlns:inkscape="http://www.inkscape.org/namespaces/inkscape"
   width="96"
   height="96"
   id="svg2"
   sodipodi:version="0.32"
   inkscape:version="0.48.3.1 r9886"
   version="1.0"
   sodipodi:docname="dialog-warning.svg"
   inkscape:output_extension="org.inkscape.output.svgz.inkscape"
   inkscape:export-filename="dialog-warning.png"
   inkscape:export-xdpi="90"
   inkscape:export-ydpi="90">
  <defs
     id="defs4">
    <linearGradient
       inkscape:collect="always"
       id="linearGradient4597">
      <stop
         style="stop-color:#000000;stop-opacity:1;"
         offset="0"
         id="stop4599" />
      <stop
         style="stop-color:#323232;stop-opacity:1"
         offset="1"
         id="stop4601" />
    </linearGradient>
    <linearGradient
       inkscape:collect="always"
       id="linearGradient3971">
      <stop
         style="stop-color:#ffffff;stop-opacity:1;"
         offset="0"
         id="stop3973" />
      <stop
         style="stop-color:#ffffff;stop-opacity:0;"
         offset="1"
         id="stop3975" />
    </linearGradient>
    <linearGradient
       inkscape:collect="always"
       id="linearGradient3954">
      <stop
         style="stop-color:#ffff00;stop-opacity:1;"
         offset="0"
         id="stop3956" />
      <stop
         style="stop-color:#ffff00;stop-opacity:0;"
         offset="1"
         id="stop3958" />
    </linearGradient>
    <linearGradient
       id="linearGradient3932"
       inkscape:collect="always">
      <stop
         id="stop3934"
         offset="0"
         style="stop-color:#ffd500;stop-opacity:1" />
      <stop
         id="stop3936"
         offset="1"
         style="stop-color:#f38200;stop-opacity:1" />
    </linearGradient>
    <linearGradient
       id="linearGradient3907">
      <stop
         style="stop-color:#ffffff;stop-opacity:1;"
         offset="0"
         id="stop3909" />
      <stop
         style="stop-color:#ffffff;stop-opacity:0;"
         offset="1"
         id="stop3911" />
    </linearGradient>
    <linearGradient
       inkscape:collect="always"
       id="linearGradient3863">
      <stop
         style="stop-color:#ffff00;stop-opacity:1;"
         offset="0"
         id="stop3865" />
      <stop
         style="stop-color:#ffff00;stop-opacity:0;"
         offset="1"
         id="stop3867" />
    </linearGradient>
    <linearGradient
       id="linearGradient3851">
      <stop
         style="stop-color:#ffb621;stop-opacity:1;"
         offset="0"
         id="stop3853" />
      <stop
         style="stop-color:#c06800;stop-opacity:1;"
         offset="1"
         id="stop3855" />
    </linearGradient>
    <linearGradient
       inkscape:collect="always"
       xlink:href="#linearGradient4597"
       id="linearGradient3047"
       gradientUnits="userSpaceOnUse"
       x1="64.730019"
       y1="91.716537"
       x2="64.730019"
       y2="85.771095"
       gradientTransform="matrix(1.5509288,0,0,1.2706753,-51.265927,-10.054496)" />
    <linearGradient
       inkscape:collect="always"
       xlink:href="#linearGradient4597"
       id="linearGradient3050"
       gradientUnits="userSpaceOnUse"
       gradientTransform="matrix(1.0204804,0,0,0.68243347,-17.317239,36.202833)"
       x1="62.48819"
       y1="82.645668"
       x2="62.48819"
       y2="41.925564" />
    <linearGradient
       inkscape:collect="always"
       xlink:href="#linearGradient3971"
       id="linearGradient3053"
       gradientUnits="userSpaceOnUse"
       gradientTransform="matrix(0.73566757,0,0,0.7907526,0.61745452,32.366134)"
       x1="65.980019"
       y1="15.087444"
       x2="67.189468"
       y2="82.910049" />
    <linearGradient
       inkscape:collect="always"
       xlink:href="#linearGradient3954"
       id="linearGradient3056"
       gradientUnits="userSpaceOnUse"
       x1="72.742889"
       y1="102.71508"
       x2="72.742889"
       y2="42.471062"
       gradientTransform="matrix(0.755106,0,0,0.72768045,-0.62270857,38.189074)" />
    <linearGradient
       inkscape:collect="always"
       xlink:href="#linearGradient3907"
       id="linearGradient3059"
       gradientUnits="userSpaceOnUse"
       gradientTransform="matrix(0.74122432,0,0,0.7907526,0.2638266,32.366134)"
       x1="83.718605"
       y1="19.993938"
       x2="83.718605"
       y2="88.047287" />
    <radialGradient
       inkscape:collect="always"
       xlink:href="#linearGradient3863"
       id="radialGradient3068"
       gradientUnits="userSpaceOnUse"
       gradientTransform="matrix(0.91786485,0,0,0.88274027,-11.023188,22.323972)"
       cx="64"
       cy="85.107361"
       fx="64"
       fy="85.107361"
       r="44.376011" />
    <radialGradient
       inkscape:collect="always"
       xlink:href="#linearGradient3932"
       id="radialGradient3071"
       gradientUnits="userSpaceOnUse"
       gradientTransform="matrix(0.86840857,-4.6611475e-8,4.4133028e-8,0.98506785,-7.5937642,19.13411)"
       cx="64.161339"
       cy="71.835777"
       fx="64.161339"
       fy="84.521217"
       r="48.004356" />
    <linearGradient
       inkscape:collect="always"
       xlink:href="#linearGradient3851"
       id="linearGradient3080"
       gradientUnits="userSpaceOnUse"
       gradientTransform="matrix(0.82629195,0,0,0.83764545,-4.8617967,29.074107)"
       x1="74.685875"
       y1="46.671852"
       x2="74.685875"
       y2="108.00891" />
  </defs>
  <sodipodi:namedview
     id="base"
     pagecolor="#ffffff"
     bordercolor="#666666"
     borderopacity="1.0"
     gridtolerance="10000"
     guidetolerance="10"
     objecttolerance="10"
     inkscape:pageopacity="0.0"
     inkscape:pageshadow="2"
     inkscape:zoom="4"
     inkscape:cx="48"
     inkscape:cy="48"
     inkscape:document-units="px"
     inkscape:current-layer="layer1"
     width="128px"
     height="128px"
     showgrid="false"
     inkscape:window-width="1001"
     inkscape:window-height="717"
     inkscape:window-x="10"
     inkscape:window-y="0"
     fit-margin-top="0"
     fit-margin-left="0"
     fit-margin-right="0"
     fit-margin-bottom="0"
     inkscape:window-maximized="0"
     inkscape:object-nodes="true"
     inkscape:snap-midpoints="true">
    <inkscape:grid
       id="GridFromPre046Settings"
       type="xygrid"
       originx="0px"
       originy="2.7881393e-06px"
       spacingx="4px"
       spacingy="4px"
       color="#3f3fff"
       empcolor="#3f3fff"
       opacity="0.15"
       empopacity="0.38"
       empspacing="4"
       visible="true"
       enabled="true"
       snapvisiblegridlinesonly="true" />
  </sodipodi:namedview>
  <metadata
     id="metadata7">
    <rdf:RDF>
      <cc:Work
         rdf:about="">
        <dc:format>image/svg+xml</dc:format>
        <dc:type
           rdf:resource="http://purl.org/dc/dcmitype/StillImage" />
        <dc:title />
      </cc:Work>
    </rdf:RDF>
  </metadata>
  <g
     inkscape:label="Layer 1"
     inkscape:groupmode="layer"
     id="layer1"
     transform="translate(0,-32.000003)">
    <path
       style="fill:url(#linearGradient3080);fill-opacity:1;fill-rule:evenodd;stroke:none"
       d="m 47.659379,42.476434 c -2.234276,0.12347 -4.255305,1.38427 -5.370897,3.350581 L 5.9316404,109.48806 c -1.18107,2.07461 -1.18012,4.6305 0.00249,6.7042 1.1826114,2.07371 3.3670637,3.34992 5.7299077,3.34755 l 72.713692,0 c 2.362845,0.002 4.547288,-1.27384 5.729903,-3.34755 1.1826,-2.0737 1.183552,-4.62959 0.0022,-6.7042 L 53.753281,45.827015 c -1.244433,-2.193559 -3.601519,-3.489546 -6.093902,-3.350581 z"
       id="path3833"
       sodipodi:nodetypes="cccsccsccc"
       inkscape:connector-curvature="0" />
    <path
       style="fill:url(#radialGradient3071);fill-opacity:1;fill-rule:evenodd;stroke:none"
       d="m 47.825899,48.409915 c -0.979541,0.05845 -1.865592,0.655263 -2.354685,1.586043 L 13.592405,110.26559 c -0.517798,0.98205 -0.517382,2.19191 0.0011,3.17351 0.518473,0.98163 1.47617,1.58575 2.512079,1.58462 l 63.757623,0 c 1.035908,0.002 1.99362,-0.60299 2.512073,-1.58462 0.518475,-0.9816 0.518895,-2.19146 7.5e-4,-3.17351 L 50.497561,49.995958 C 49.951983,48.957607 48.918599,48.344134 47.8259,48.409915 l 0,0 z"
       id="path3831"
       sodipodi:nodetypes="cccsccscccc"
       inkscape:connector-curvature="0" />
    <path
       style="fill:url(#radialGradient3068);fill-opacity:1;fill-rule:evenodd;stroke:none"
       d="m 47.575942,51.94648 c -0.891369,0.05363 -1.697664,0.601259 -2.142732,1.455329 L 16.423922,108.70428 c -0.47119,0.90111 -0.470811,2.01127 9.98e-4,2.91197 0.471806,0.90072 1.343298,1.45504 2.28596,1.45402 l 58.018581,0 c 0.942663,7.8e-4 1.814154,-0.5533 2.285956,-1.45402 0.471809,-0.9007 0.472187,-2.01086 7.13e-4,-2.91197 L 50.007118,53.401809 C 49.510649,52.449034 48.570284,51.886121 47.575942,51.94648 l 0,0 z"
       id="path4029"
       sodipodi:nodetypes="cccsccscccc"
       inkscape:connector-curvature="0" />
    <path
       style="font-size:medium;font-style:normal;font-variant:normal;font-weight:normal;font-stretch:normal;text-indent:0;text-align:start;text-decoration:none;line-height:normal;letter-spacing:normal;word-spacing:normal;text-transform:none;direction:ltr;block-progression:tb;writing-mode:lr-tb;text-anchor:start;baseline-shift:baseline;opacity:0.75000000000000000;color:#000000;fill:#ffffff;fill-opacity:1;fill-rule:nonzero;stroke:none;stroke-width:3.77240800999999992;marker:none;visibility:visible;display:inline;overflow:visible;enable-background:accumulate;font-family:Sans;-inkscape-font-specification:Sans"
       d="m 47.522246,61.230463 c -2.62776,0 -4.489415,2.452854 -4.489415,5.129337 l 0,24.625796 c 0,2.676483 1.861655,5.129337 4.489415,5.129337 l 0.347248,0 c 2.62776,0 4.514219,-2.452854 4.514219,-5.129337 l 0,-24.625796 c 0,-2.676483 -1.886459,-5.129337 -4.514219,-5.129337 l -0.347248,0 z m 0,3.012863 0.347248,0 c 0.696239,0 1.513007,0.782171 1.513007,2.116474 l 0,24.625796 c 0,1.334302 -0.816768,2.116474 -1.513007,2.116474 l -0.347248,0 c -0.69624,0 -1.488204,-0.782172 -1.488204,-2.116474 l 0,-24.625796 c 0,-1.334303 0.791964,-2.116474 1.488204,-2.116474 z"
       id="rect3989"
       inkscape:connector-curvature="0" />
    <path
       style="font-size:medium;font-style:normal;font-variant:normal;font-weight:normal;font-stretch:normal;text-indent:0;text-align:start;text-decoration:none;line-height:normal;letter-spacing:normal;word-spacing:normal;text-transform:none;direction:ltr;block-progression:tb;writing-mode:lr-tb;text-anchor:start;baseline-shift:baseline;opacity:0.75000000000000000;color:#000000;fill:#ffffff;fill-opacity:1;fill-rule:nonzero;stroke:none;stroke-width:2.50663829000000016;marker:none;visibility:visible;display:inline;overflow:visible;enable-background:accumulate;font-family:Sans;-inkscape-font-specification:Sans"
       d="m 47.704083,98.289544 c -3.301724,0 -5.685672,2.396646 -5.685672,5.043986 0,2.64734 2.383948,5.04398 5.685672,5.04398 3.301724,0 5.685672,-2.39664 5.685672,-5.04398 0,-2.64734 -2.383948,-5.043986 -5.685672,-5.043986 z m 0,2.637376 c 1.081809,0 2.248811,0.9434 2.248811,2.40661 0,1.4632 -1.167002,2.4066 -2.248811,2.4066 -1.081809,0 -2.248811,-0.9434 -2.248811,-2.4066 0,-1.46321 1.167002,-2.40661 2.248811,-2.40661 z"
       id="path3991"
       inkscape:connector-curvature="0" />
    <path
       style="fill:url(#linearGradient3059);fill-opacity:1;fill-rule:evenodd;stroke:none"
       d="m 47.540044,48.181184 c -1.002128,0.05827 -1.908611,0.653389 -2.40898,1.581505 L 26.160352,84.728777 c 5.818343,0.916155 12.067326,1.408528 18.576937,1.408528 8.573976,0 16.697033,-0.851654 23.973975,-2.396968 L 50.273308,49.762689 c -0.558158,-1.03538 -1.615371,-1.647097 -2.733264,-1.581505 z"
       id="path3895"
       inkscape:connector-curvature="0" />
    <path
       style="font-size:medium;font-style:normal;font-variant:normal;font-weight:normal;font-stretch:normal;text-indent:0;text-align:start;text-decoration:none;line-height:normal;letter-spacing:normal;word-spacing:normal;text-transform:none;direction:ltr;block-progression:tb;writing-mode:lr-tb;text-anchor:start;baseline-shift:baseline;color:#000000;fill:url(#linearGradient3056);fill-opacity:1;stroke:none;stroke-width:3.03534579;marker:none;visibility:visible;display:inline;overflow:visible;enable-background:accumulate;font-family:Sans;-inkscape-font-specification:Sans"
       d="m 47.468105,51.651162 c -1.406784,0.0739 -2.671962,0.824197 -3.37438,2.001122 L 10.869061,108.956 c -0.743477,1.24146 -0.74445,2.76132 0,4.00224 0.744446,1.24092 2.122958,2.02527 3.61035,2.02386 l 66.449328,0 c 1.487393,0.001 2.865907,-0.78293 3.610351,-2.02386 0.744459,-1.24092 0.743477,-2.76078 0,-4.00224 L 51.314426,53.652284 c -0.783142,-1.312276 -2.277822,-2.084256 -3.846321,-2.001122 z m 0.141582,2.183042 c 0.709162,-0.03758 1.368505,0.316285 1.722586,0.9096 l 33.224664,55.303716 c 0.335841,0.56079 0.336279,1.25866 0,1.8192 -0.336279,0.56055 -0.956304,0.8875 -1.628198,0.88686 l -66.449328,0 c -0.671891,6.4e-4 -1.291916,-0.32631 -1.628197,-0.88686 -0.336279,-0.56054 -0.335843,-1.25841 0,-1.8192 L 46.075878,54.743804 c 0.317065,-0.531251 0.898803,-0.876241 1.533809,-0.9096 z"
       id="path3948"
       inkscape:connector-curvature="0" />
    <path
       style="fill:url(#linearGradient3053);fill-opacity:1;fill-rule:evenodd;stroke:none"
       d="m 47.539262,48.181184 c -0.994614,0.05827 -1.8943,0.653389 -2.39092,1.581505 l -18.828495,34.966088 0.02299,0 18.805508,-34.05178 c 0.496619,-0.904733 1.396306,-1.475272 2.39092,-1.532083 1.109514,-0.06394 2.158801,0.522788 2.712773,1.532083 l 18.276747,33.06334 c 0.0073,-0.0016 0.01565,0.0016 0.02299,0 L 50.252036,49.762689 c -0.553972,-1.03538 -1.60326,-1.647097 -2.712774,-1.581505 z"
       id="path3962"
       inkscape:connector-curvature="0" />
    <path
       style="fill:url(#linearGradient3050);fill-opacity:1;stroke:none"
       d="m 46.911592,63.500173 2.163844,0 c 1.662,0 3,1.338 3,3 l 0,24.027074 c 0,1.661999 -1.338,2.999999 -3,2.999999 l -2.163844,0 c -1.662,0 -3,-1.338 -3,-2.999999 l 0,-24.027074 c 0,-1.662 1.338,-3 3,-3 z"
       id="rect3979"
       inkscape:connector-curvature="0" />
    <path
       style="fill:url(#linearGradient3047);fill-opacity:1;stroke:none"
       d="m 52.526625,102.00506 c 0,2.47555 -2.029542,4.48238 -4.533109,4.48238 -2.503566,0 -4.533109,-2.00683 -4.533109,-4.48238 0,-2.475549 2.029543,-4.482379 4.533109,-4.482379 2.503567,0 4.533109,2.00683 4.533109,4.482379 z"
       id="path3981"
       inkscape:connector-curvature="0" />
  </g>
</svg>
