<?xml version="1.0" encoding="UTF-8" standalone="no"?>
<!-- Created with Inkscape (http://www.inkscape.org/) -->

<svg
   xmlns:dc="http://purl.org/dc/elements/1.1/"
   xmlns:cc="http://creativecommons.org/ns#"
   xmlns:rdf="http://www.w3.org/1999/02/22-rdf-syntax-ns#"
   xmlns:svg="http://www.w3.org/2000/svg"
   xmlns="http://www.w3.org/2000/svg"
   xmlns:xlink="http://www.w3.org/1999/xlink"
   xmlns:sodipodi="http://sodipodi.sourceforge.net/DTD/sodipodi-0.dtd"
   xmlns:inkscape="http://www.inkscape.org/namespaces/inkscape"
   width="96"
   height="96"
   id="svg1307"
   sodipodi:version="0.32"
   inkscape:version="0.48.4 r9939"
   version="1.0"
   sodipodi:docname="network-connect.svg"
   inkscape:output_extension="org.inkscape.output.svg.inkscape"
   sodipodi:modified="true"
   inkscape:export-filename="network-connect.png"
   inkscape:export-xdpi="90"
   inkscape:export-ydpi="90">
  <defs
     id="defs1309">
    <linearGradient
       id="linearGradient3791">
      <stop
         style="stop-color:#ffffff;stop-opacity:1;"
         offset="0"
         id="stop3793" />
      <stop
         style="stop-color:#808080;stop-opacity:1;"
         offset="1"
         id="stop3795" />
    </linearGradient>
    <linearGradient
       inkscape:collect="always"
       id="linearGradient3938">
      <stop
         style="stop-color:#ffffff;stop-opacity:1;"
         offset="0"
         id="stop3940" />
      <stop
         style="stop-color:#ffffff;stop-opacity:0;"
         offset="1"
         id="stop3942" />
    </linearGradient>
    <linearGradient
       inkscape:collect="always"
       id="linearGradient3930">
      <stop
         style="stop-color:#ffffff;stop-opacity:1;"
         offset="0"
         id="stop3932" />
      <stop
         style="stop-color:#ffffff;stop-opacity:0;"
         offset="1"
         id="stop3934" />
    </linearGradient>
    <linearGradient
       id="linearGradient3899">
      <stop
         style="stop-color:#333333;stop-opacity:1;"
         offset="0"
         id="stop3901" />
      <stop
         style="stop-color:#606060;stop-opacity:1;"
         offset="1"
         id="stop3903" />
    </linearGradient>
    <linearGradient
       id="linearGradient4945">
      <stop
         id="stop4947"
         offset="0"
         style="stop-color:#ffffff;stop-opacity:1;" />
      <stop
         id="stop4949"
         offset="1"
         style="stop-color:#a0a0a0;stop-opacity:1;" />
    </linearGradient>
    <linearGradient
       id="linearGradient3004">
      <stop
         style="stop-color:#808080;stop-opacity:1;"
         offset="0"
         id="stop3006" />
      <stop
         style="stop-color:black;stop-opacity:0;"
         offset="1"
         id="stop3008" />
    </linearGradient>
    <linearGradient
       inkscape:collect="always"
       xlink:href="#linearGradient3004"
       id="linearGradient4943"
       gradientUnits="userSpaceOnUse"
       gradientTransform="matrix(0.47896779,0.49721139,-0.47896643,0.49721279,39.787102,32.630317)"
       x1="56.90382"
       y1="108.80531"
       x2="48.122787"
       y2="117.97591" />
    <linearGradient
       inkscape:collect="always"
       xlink:href="#linearGradient3938"
       id="linearGradient3944"
       x1="35.545277"
       y1="79.01638"
       x2="35.987801"
       y2="103.84734"
       gradientUnits="userSpaceOnUse"
       gradientTransform="translate(-1,0)" />
    <linearGradient
       inkscape:collect="always"
       xlink:href="#linearGradient4945"
       id="linearGradient3963"
       gradientUnits="userSpaceOnUse"
       gradientTransform="matrix(0.47896779,0.49721139,-0.47896643,0.49721279,44.59177,5.618003)"
       x1="67.274933"
       y1="85.732666"
       x2="110.23091"
       y2="129.35106" />
    <linearGradient
       inkscape:collect="always"
       xlink:href="#linearGradient3930"
       id="linearGradient3966"
       gradientUnits="userSpaceOnUse"
       x1="60.653233"
       y1="53.255409"
       x2="60.313679"
       y2="73.784943"
       gradientTransform="translate(1,-2)" />
    <linearGradient
       inkscape:collect="always"
       xlink:href="#linearGradient3004"
       id="linearGradient3970"
       gradientUnits="userSpaceOnUse"
       gradientTransform="matrix(-0.47896779,-0.49721139,0.47896643,-0.49721279,56.212892,128.11967)"
       x1="56.90382"
       y1="108.80531"
       x2="48.122787"
       y2="117.97591" />
    <linearGradient
       inkscape:collect="always"
       xlink:href="#linearGradient4945"
       id="linearGradient3973"
       gradientUnits="userSpaceOnUse"
       gradientTransform="matrix(0.47896779,0.49721139,-0.47896643,0.49721279,46.59177,3.618003)"
       x1="69.321693"
       y1="39.826336"
       x2="106.81291"
       y2="77.002991" />
    <linearGradient
       inkscape:collect="always"
       xlink:href="#linearGradient3791"
       id="linearGradient3797"
       x1="19.042213"
       y1="106.72272"
       x2="21.129683"
       y2="112.19727"
       gradientUnits="userSpaceOnUse"
       gradientTransform="matrix(1.3333278,0,0,1.3333278,-8.0056223,-35.663581)" />
    <linearGradient
       inkscape:collect="always"
       xlink:href="#linearGradient3791"
       id="linearGradient3805"
       x1="75.444122"
       y1="49.410542"
       x2="78.630539"
       y2="55.276119"
       gradientUnits="userSpaceOnUse"
       gradientTransform="matrix(1.3298701,0,0,1.3298701,-23.996006,-18.206751)" />
    <linearGradient
       inkscape:collect="always"
       xlink:href="#linearGradient3899"
       id="linearGradient3834"
       gradientUnits="userSpaceOnUse"
       x1="58.141548"
       y1="92.413185"
       x2="61.095215"
       y2="115.09343"
       gradientTransform="translate(-1,0)" />
  </defs>
  <sodipodi:namedview
     id="base"
     pagecolor="#ffffff"
     bordercolor="#666666"
     borderopacity="1.0"
     inkscape:pageopacity="0.0"
     inkscape:pageshadow="2"
     inkscape:zoom="4"
     inkscape:cx="48"
     inkscape:cy="48"
     inkscape:current-layer="layer1"
     showgrid="false"
     inkscape:document-units="px"
     inkscape:grid-bbox="true"
     guidetolerance="0.1px"
     showguides="true"
     inkscape:guide-bbox="true"
     inkscape:window-width="1005"
     inkscape:window-height="705"
     inkscape:window-x="0"
     inkscape:window-y="24"
     fit-margin-top="0"
     fit-margin-left="0"
     fit-margin-right="0"
     fit-margin-bottom="0"
     inkscape:window-maximized="0">
    <inkscape:grid
       id="GridFromPre046Settings"
       type="xygrid"
       originx="0px"
       originy="-9.1525574e-06px"
       spacingx="4px"
       spacingy="4px"
       color="#3f3fff"
       empcolor="#3f3fff"
       opacity="0.15"
       empopacity="0.38"
       empspacing="5"
       visible="true"
       enabled="true"
       snapvisiblegridlinesonly="true" />
  </sodipodi:namedview>
  <metadata
     id="metadata1312">
    <rdf:RDF>
      <cc:Work
         rdf:about="">
        <dc:format>image/svg+xml</dc:format>
        <dc:type
           rdf:resource="http://purl.org/dc/dcmitype/StillImage" />
        <cc:license
           rdf:resource="http://creativecommons.org/licenses/GPL/2.0/" />
        <dc:contributor>
          <cc:Agent>
            <dc:title>Oxygen team</dc:title>
          </cc:Agent>
        </dc:contributor>
        <dc:title />
      </cc:Work>
      <cc:License
         rdf:about="http://creativecommons.org/licenses/LGPL/2.1/">
        <cc:permits
           rdf:resource="http://web.resource.org/cc/Reproduction" />
        <cc:permits
           rdf:resource="http://web.resource.org/cc/Distribution" />
        <cc:requires
           rdf:resource="http://web.resource.org/cc/Notice" />
        <cc:permits
           rdf:resource="http://web.resource.org/cc/DerivativeWorks" />
        <cc:requires
           rdf:resource="http://web.resource.org/cc/ShareAlike" />
        <cc:requires
           rdf:resource="http://web.resource.org/cc/SourceCode" />
      </cc:License>
    </rdf:RDF>
  </metadata>
  <g
     id="layer1"
     inkscape:label="Layer 1"
     inkscape:groupmode="layer"
     transform="translate(0,-31.999991)">
    <g
       id="g3816">
      <path
         id="path3847"
         d="m 86.210937,42.292967 c -0.278244,0.0036 -0.544912,0.01187 -0.816406,0.04297 -0.723972,0.08294 -1.427037,0.274334 -2.083984,0.53711 -2.627797,1.051106 -4.618226,3.117975 -6.337891,5.199219 A 1.8994241,1.8994241 0 1 0 79.894531,50.5 c 1.555785,-1.88291 3.25829,-3.473245 4.833985,-4.103516 1.575695,-0.63027 2.988198,-0.635416 5.220703,1.052735 A 1.9013975,1.9013975 0 0 0 90.25,47.621092 l 0,-4.404297 c -1.358108,-0.643313 -2.735989,-0.940688 -4.039063,-0.923828 z"
         style="font-size:medium;font-style:normal;font-variant:normal;font-weight:normal;font-stretch:normal;text-indent:0;text-align:start;text-decoration:none;line-height:normal;letter-spacing:normal;word-spacing:normal;text-transform:none;direction:ltr;block-progression:tb;writing-mode:lr-tb;text-anchor:start;baseline-shift:baseline;color:#000000;fill:url(#linearGradient3970);fill-opacity:1;stroke:none;stroke-width:5.52113914;marker:none;visibility:visible;display:inline;overflow:visible;enable-background:accumulate;font-family:Sans;-inkscape-font-specification:Sans"
         inkscape:connector-curvature="0" />
      <path
         style="opacity:0.25;fill:none;stroke:#1a1a1a;stroke-width:8;stroke-miterlimit:4;stroke-dasharray:none"
         d="m 62.78125,46.062491 c -0.85883,-0.02977 -1.698743,0.266732 -2.375,0.96875 L 41.75,66.374991 c -1.352515,1.404035 -1.352515,3.658469 0,5.0625 L 57,86.656241 c 1.352515,1.404032 3.522492,1.404036 4.875,0 l 18.625,-19.375 c 1.352505,-1.404035 1.132684,-3.468298 0,-5.0625 -5.385545,-7.579915 -7.875629,-9.636601 -15.21875,-15.1875 -0.771142,-0.582932 -1.64117,-0.93898 -2.5,-0.96875 z"
         id="path3891"
         inkscape:connector-curvature="0" />
      <path
         id="path3887"
         d="m 62.78125,46.062491 c -0.85883,-0.02977 -1.698743,0.266732 -2.375,0.96875 L 41.75,66.374991 c -1.352515,1.404035 -1.352515,3.658469 0,5.0625 L 57,86.656241 c 1.352515,1.404032 3.522492,1.404036 4.875,0 l 18.625,-19.375 c 1.352505,-1.404035 1.132684,-3.468298 0,-5.0625 -5.385545,-7.579915 -7.875629,-9.636601 -15.21875,-15.1875 -0.771142,-0.582932 -1.64117,-0.93898 -2.5,-0.96875 z"
         style="opacity:0.5;fill:none;stroke:#1a1a1a;stroke-width:4;stroke-miterlimit:4;stroke-dasharray:none"
         inkscape:connector-curvature="0" />
      <path
         sodipodi:nodetypes="ccccccc"
         id="path3851"
         d="m 68.679319,48.577652 3.74026,3.864936 2.784415,2.90909 3.74026,3.906494 3.823377,-9.6 -4.862338,-5.07013 z"
         style="fill:url(#linearGradient3805);fill-opacity:1;fill-rule:evenodd;stroke:#333333;stroke-width:1.3298701"
         inkscape:connector-curvature="0" />
      <path
         style="fill:none;stroke:#1a1a1a;stroke-width:2;stroke-miterlimit:4;stroke-dasharray:none"
         d="m 62.78125,46.062491 c -0.85883,-0.02977 -1.698743,0.266732 -2.375,0.96875 L 41.75,66.374991 c -1.352515,1.404035 -1.352515,3.658469 0,5.0625 L 57,86.656241 c 1.352515,1.404032 3.522492,1.404036 4.875,0 l 18.625,-19.375 c 1.352505,-1.404035 1.132684,-3.468298 0,-5.0625 -5.385545,-7.579915 -7.875629,-9.636601 -15.21875,-15.1875 -0.771142,-0.582932 -1.64117,-0.93898 -2.5,-0.96875 z"
         id="path3881"
         inkscape:connector-curvature="0" />
      <path
         inkscape:connector-curvature="0"
         id="path3871"
         d="m 62.78125,46.062491 c -0.85883,-0.02977 -1.698743,0.266732 -2.375,0.96875 L 41.75,66.374991 c -1.352515,1.404035 -1.352515,3.658469 0,5.0625 L 57,86.656241 c 1.352515,1.404032 3.522492,1.404036 4.875,0 l 18.625,-19.375 c 1.352505,-1.404035 1.132684,-3.468298 0,-5.0625 -5.385545,-7.579915 -7.875629,-9.636601 -15.21875,-15.1875 -0.771142,-0.582932 -1.64117,-0.93898 -2.5,-0.96875 z"
         style="fill:url(#linearGradient3973);fill-opacity:1;fill-rule:nonzero;stroke:none" />
      <path
         id="path3909"
         d="m 62.75,47.0625 c -0.606525,-0.02102 -1.138159,0.150864 -1.625,0.65625 L 42.46875,67.0625 c -0.98145,1.018835 -0.981448,2.668669 0,3.6875 l 15.25,15.1875 a 1.0001,1.0001 0 0 1 0,0.03125 c 0.981746,1.01914 2.455763,1.01914 3.4375,0 l 18.625,-19.375 c 0.975183,-1.012337 0.838247,-2.469505 -0.09375,-3.78125 -5.350718,-7.530897 -7.664914,-9.423925 -15,-14.96875 C 64.048735,47.360886 63.356313,47.083517 62.75,47.0625 z"
         style="fill:none;stroke:url(#linearGradient3966);stroke-width:2;stroke-miterlimit:4;stroke-dasharray:none"
         inkscape:connector-curvature="0" />
    </g>
    <g
       id="g3807">
      <path
         id="path3002"
         d="M 17.544922,109.54101 A 1.8980813,1.8980813 0 0 0 16.105469,110.25 c -1.555789,1.88291 -3.25829,3.47324 -4.833985,4.10351 -1.575695,0.63028 -2.9882013,0.63542 -5.2207028,-1.05273 A 1.9013975,1.9013975 0 0 0 5.75,113.1289 l 0,4.4043 c 2.4221882,1.14057 4.882829,1.16639 6.939453,0.34375 2.627797,-1.0511 4.618226,-3.11797 6.337891,-5.19922 a 1.8980813,1.8980813 0 0 0 -1.482422,-3.13672 z"
         style="font-size:medium;font-style:normal;font-variant:normal;font-weight:normal;font-stretch:normal;text-indent:0;text-align:start;text-decoration:none;line-height:normal;letter-spacing:normal;word-spacing:normal;text-transform:none;direction:ltr;block-progression:tb;writing-mode:lr-tb;text-anchor:start;baseline-shift:baseline;color:#000000;fill:url(#linearGradient4943);fill-opacity:1;stroke:none;stroke-width:5.52113914;marker:none;visibility:visible;display:inline;overflow:visible;enable-background:accumulate;font-family:Sans;-inkscape-font-specification:Sans"
         inkscape:connector-curvature="0" />
      <path
         inkscape:connector-curvature="0"
         style="opacity:0.25;fill:none;stroke:#1a1a1a;stroke-width:8;stroke-linecap:round;stroke-linejoin:round;stroke-miterlimit:4;stroke-dasharray:none"
         d="m 36.8125,73.062491 c -0.882551,1e-6 -1.761245,0.329233 -2.4375,1.03125 l -18.625,19.375 c -1.352511,1.404035 -1.132684,3.468299 0,5.0625 5.385548,7.579919 7.875628,9.636599 15.21875,15.187499 1.542287,1.16586 3.522489,1.40403 4.875,0 L 54.5,94.374991 c 1.352511,-1.404035 1.352515,-3.658469 0,-5.0625 L 39.25,74.093741 c -0.676258,-0.702016 -1.554949,-1.031251 -2.4375,-1.03125 z"
         id="path3893" />
      <path
         inkscape:connector-curvature="0"
         id="path3889"
         d="m 36.8125,73.062491 c -0.882551,1e-6 -1.761245,0.329233 -2.4375,1.03125 l -18.625,19.375 c -1.352511,1.404035 -1.132684,3.468299 0,5.0625 5.385548,7.579919 7.875628,9.636599 15.21875,15.187499 1.542287,1.16586 3.522489,1.40403 4.875,0 L 54.5,94.374991 c 1.352511,-1.404035 1.352515,-3.658469 0,-5.0625 L 39.25,74.093741 c -0.676258,-0.702016 -1.554949,-1.031251 -2.4375,-1.03125 z"
         style="opacity:0.5;fill:none;stroke:#1a1a1a;stroke-width:4;stroke-linecap:round;stroke-linejoin:round;stroke-miterlimit:4;stroke-dasharray:none" />
      <path
         sodipodi:nodetypes="ccccccc"
         inkscape:connector-curvature="0"
         id="path1976"
         d="m 12.952624,110.62759 4.87498,5.08332 9.249961,-4.00005 -3.749984,-3.87499 -2.791655,-2.91665 -3.749985,-3.87498 z"
         style="fill:url(#linearGradient3797);fill-opacity:1;fill-rule:evenodd;stroke:#333333;stroke-width:1.33332777" />
      <path
         inkscape:connector-curvature="0"
         style="fill:none;stroke:#1a1a1a;stroke-width:2;stroke-linecap:round;stroke-linejoin:round;stroke-miterlimit:4;stroke-dasharray:none"
         d="m 36.8125,73.062491 c -0.882551,1e-6 -1.761245,0.329233 -2.4375,1.03125 l -18.625,19.375 c -1.352511,1.404035 -1.132684,3.468299 0,5.0625 5.385548,7.579919 7.875628,9.636599 15.21875,15.187499 1.542287,1.16586 3.522489,1.40403 4.875,0 L 54.5,94.374991 c 1.352511,-1.404035 1.352515,-3.658469 0,-5.0625 L 39.25,74.093741 c -0.676258,-0.702016 -1.554949,-1.031251 -2.4375,-1.03125 z"
         id="path3879" />
      <path
         inkscape:connector-curvature="0"
         id="rect1969"
         d="m 36.8125,73.062491 c -0.882551,1e-6 -1.761245,0.329233 -2.4375,1.03125 l -18.625,19.375 c -1.352511,1.404035 -1.132684,3.468299 0,5.0625 5.385548,7.579919 7.875628,9.636599 15.21875,15.187499 1.542287,1.16586 3.522489,1.40403 4.875,0 L 54.5,94.374991 c 1.352511,-1.404035 1.352515,-3.658469 0,-5.0625 L 39.25,74.093741 c -0.676258,-0.702016 -1.554949,-1.031251 -2.4375,-1.03125 z"
         style="fill:url(#linearGradient3963);fill-opacity:1;fill-rule:nonzero;stroke:none" />
      <path
         inkscape:connector-curvature="0"
         id="path3914"
         d="m 36.8125,74.0625 c -0.633855,10e-7 -1.23439,0.215938 -1.71875,0.71875 l -18.625,19.375 c -0.975187,1.012336 -0.838248,2.469505 0.09375,3.78125 5.350721,7.5309 7.664913,9.42392 15,14.96875 0.633041,0.47853 1.329429,0.76012 1.9375,0.78125 0.608071,0.0211 1.137518,-0.1502 1.625,-0.65625 L 53.78125,93.6875 c 0.981447,-1.018835 0.981447,-2.66867 0,-3.6875 l -15.25,-15.1875 a 1.0001,1.0001 0 0 1 0,-0.03125 C 38.046884,74.278435 37.446351,74.062499 36.8125,74.0625 z"
         style="fill:none;stroke:url(#linearGradient3944);stroke-width:2;stroke-miterlimit:4;stroke-dasharray:none" />
    </g>
    <g
       id="g3838">
      <path
         inkscape:connector-curvature="0"
         id="path3897"
         style="opacity:0.50000000000000000;fill:none;stroke:#ffffff;stroke-width:4.8;stroke-linecap:round;stroke-linejoin:round;stroke-miterlimit:4;stroke-dasharray:none"
         d="M 60.197077,105.64063 C 56.229171,101.49449 47.650964,92.530176 47.650964,92.530176 L 41.5,98.959217 60.197077,118.5 88.25,89.178614 82.098202,82.749998 c 0,0 -17.171861,17.948202 -21.901125,22.890632 z" />
      <path
         d="M 60.197077,105.64063 C 56.229171,101.49449 47.650964,92.530176 47.650964,92.530176 L 41.5,98.959217 60.197077,118.5 88.25,89.178614 82.098202,82.749998 c 0,0 -17.171861,17.948202 -21.901125,22.890632 z"
         style="fill:none;stroke:#ffffff;stroke-width:2.4;stroke-linecap:round;stroke-linejoin:round;stroke-miterlimit:4;stroke-dasharray:none"
         id="path3895"
         inkscape:connector-curvature="0" />
      <path
         inkscape:connector-curvature="0"
         id="path24"
         style="fill:url(#linearGradient3834);fill-opacity:1;stroke:none"
         d="M 60.197077,105.64063 C 56.229171,101.49449 47.650964,92.530176 47.650964,92.530176 L 41.5,98.959217 60.197077,118.5 88.25,89.178614 82.098202,82.749998 c 0,0 -17.171861,17.948202 -21.901125,22.890632 z" />
    </g>
  </g>
</svg>
