<?xml version="1.0" encoding="UTF-8" standalone="no"?>
<!-- Created with Inkscape (http://www.inkscape.org/) -->

<svg
   xmlns:dc="http://purl.org/dc/elements/1.1/"
   xmlns:cc="http://creativecommons.org/ns#"
   xmlns:rdf="http://www.w3.org/1999/02/22-rdf-syntax-ns#"
   xmlns:svg="http://www.w3.org/2000/svg"
   xmlns="http://www.w3.org/2000/svg"
   xmlns:xlink="http://www.w3.org/1999/xlink"
   xmlns:sodipodi="http://sodipodi.sourceforge.net/DTD/sodipodi-0.dtd"
   xmlns:inkscape="http://www.inkscape.org/namespaces/inkscape"
   width="96"
   height="96"
   id="svg1307"
   sodipodi:version="0.32"
   inkscape:version="0.48.4 r9939"
   version="1.0"
   sodipodi:docname="network-disconnect.svg"
   inkscape:output_extension="org.inkscape.output.svg.inkscape"
   sodipodi:modified="true"
   inkscape:export-filename="network-connect.png"
   inkscape:export-xdpi="90"
   inkscape:export-ydpi="90">
  <defs
     id="defs1309">
    <linearGradient
       id="linearGradient4767">
      <stop
         style="stop-color:#ffffff;stop-opacity:1;"
         offset="0"
         id="stop4769" />
      <stop
         id="stop4785"
         offset="0.31564972"
         style="stop-color:#bfbfbf;stop-opacity:1;" />
      <stop
         style="stop-color:#bebebe;stop-opacity:1;"
         offset="0.48690647"
         id="stop4789" />
      <stop
         style="stop-color:#d4d4d4;stop-opacity:1;"
         offset="0.65816325"
         id="stop4787" />
      <stop
         style="stop-color:#808080;stop-opacity:1;"
         offset="1"
         id="stop4771" />
    </linearGradient>
    <linearGradient
       id="linearGradient3603">
      <stop
         style="stop-color:white;stop-opacity:1;"
         offset="0"
         id="stop3605" />
      <stop
         style="stop-color:white;stop-opacity:0;"
         offset="1"
         id="stop3607" />
    </linearGradient>
    <linearGradient
       inkscape:collect="always"
       xlink:href="#linearGradient4767"
       id="linearGradient4837"
       gradientUnits="userSpaceOnUse"
       x1="78.36676"
       y1="16.764039"
       x2="83.852628"
       y2="16.764039" />
    <radialGradient
       inkscape:collect="always"
       xlink:href="#linearGradient3603"
       id="radialGradient4839"
       gradientUnits="userSpaceOnUse"
       gradientTransform="matrix(1.43204,-0.383714,0.398273,1.486375,-24.97994,10.45051)"
       cx="43.806602"
       cy="15.566886"
       fx="43.806602"
       fy="15.566886"
       r="2.6196473" />
    <linearGradient
       inkscape:collect="always"
       xlink:href="#linearGradient4767"
       id="linearGradient4851"
       gradientUnits="userSpaceOnUse"
       x1="78.36676"
       y1="16.764039"
       x2="83.852628"
       y2="16.764039" />
    <radialGradient
       inkscape:collect="always"
       xlink:href="#linearGradient3603"
       id="radialGradient4853"
       gradientUnits="userSpaceOnUse"
       gradientTransform="matrix(1.43204,-0.383714,0.398273,1.486375,-24.97994,10.45051)"
       cx="43.806602"
       cy="15.566886"
       fx="43.806602"
       fy="15.566886"
       r="2.6196473" />
    <linearGradient
       inkscape:collect="always"
       xlink:href="#linearGradient3004-3"
       id="linearGradient4943-2"
       gradientUnits="userSpaceOnUse"
       gradientTransform="matrix(0.47896779,0.49721139,-0.47896643,0.49721279,39.787102,32.630317)"
       x1="56.90382"
       y1="108.80531"
       x2="48.122787"
       y2="117.97591" />
    <linearGradient
       id="linearGradient3004-3">
      <stop
         style="stop-color:#808080;stop-opacity:1;"
         offset="0"
         id="stop3006-2" />
      <stop
         style="stop-color:black;stop-opacity:0;"
         offset="1"
         id="stop3008-8" />
    </linearGradient>
    <linearGradient
       inkscape:collect="always"
       xlink:href="#linearGradient3791"
       id="linearGradient3797"
       x1="19.042213"
       y1="106.72272"
       x2="21.129683"
       y2="112.19727"
       gradientUnits="userSpaceOnUse"
       gradientTransform="matrix(1.3333278,0,0,1.3333278,-8.0056223,-35.663581)" />
    <linearGradient
       id="linearGradient3791">
      <stop
         style="stop-color:#ffffff;stop-opacity:1;"
         offset="0"
         id="stop3793" />
      <stop
         style="stop-color:#808080;stop-opacity:1;"
         offset="1"
         id="stop3795" />
    </linearGradient>
    <linearGradient
       inkscape:collect="always"
       xlink:href="#linearGradient4945-5"
       id="linearGradient3963-4"
       gradientUnits="userSpaceOnUse"
       gradientTransform="matrix(0.47896779,0.49721139,-0.47896643,0.49721279,44.59177,5.618003)"
       x1="67.274933"
       y1="85.732666"
       x2="110.23091"
       y2="129.35106" />
    <linearGradient
       id="linearGradient4945-5">
      <stop
         id="stop4947-1"
         offset="0"
         style="stop-color:#ffffff;stop-opacity:1;" />
      <stop
         id="stop4949-3"
         offset="1"
         style="stop-color:#a0a0a0;stop-opacity:1;" />
    </linearGradient>
    <linearGradient
       inkscape:collect="always"
       id="linearGradient3938-9">
      <stop
         style="stop-color:#ffffff;stop-opacity:1;"
         offset="0"
         id="stop3940-4" />
      <stop
         style="stop-color:#ffffff;stop-opacity:0;"
         offset="1"
         id="stop3942-9" />
    </linearGradient>
    <linearGradient
       y2="103.84734"
       x2="35.987801"
       y1="79.01638"
       x1="35.545277"
       gradientTransform="translate(-1,0)"
       gradientUnits="userSpaceOnUse"
       id="linearGradient3064"
       xlink:href="#linearGradient3938-9"
       inkscape:collect="always" />
  </defs>
  <sodipodi:namedview
     id="base"
     pagecolor="#ffffff"
     bordercolor="#666666"
     borderopacity="1.0"
     inkscape:pageopacity="0.0"
     inkscape:pageshadow="2"
     inkscape:zoom="4"
     inkscape:cx="48"
     inkscape:cy="48"
     inkscape:current-layer="layer1"
     showgrid="false"
     inkscape:document-units="px"
     inkscape:grid-bbox="true"
     guidetolerance="0.1px"
     showguides="true"
     inkscape:guide-bbox="true"
     inkscape:window-width="1005"
     inkscape:window-height="705"
     inkscape:window-x="1"
     inkscape:window-y="24"
     fit-margin-top="0"
     fit-margin-left="0"
     fit-margin-right="0"
     fit-margin-bottom="0"
     inkscape:window-maximized="0">
    <inkscape:grid
       id="GridFromPre046Settings"
       type="xygrid"
       originx="0px"
       originy="-9.1525574e-06px"
       spacingx="4px"
       spacingy="4px"
       color="#3f3fff"
       empcolor="#3f3fff"
       opacity="0.15"
       empopacity="0.38"
       empspacing="5"
       visible="true"
       enabled="true"
       snapvisiblegridlinesonly="true" />
  </sodipodi:namedview>
  <metadata
     id="metadata1312">
    <rdf:RDF>
      <cc:Work
         rdf:about="">
        <dc:format>image/svg+xml</dc:format>
        <dc:type
           rdf:resource="http://purl.org/dc/dcmitype/StillImage" />
        <cc:license
           rdf:resource="http://creativecommons.org/licenses/GPL/2.0/" />
        <dc:contributor>
          <cc:Agent>
            <dc:title>Oxygen team</dc:title>
          </cc:Agent>
        </dc:contributor>
        <dc:title />
      </cc:Work>
      <cc:License
         rdf:about="http://creativecommons.org/licenses/LGPL/2.1/">
        <cc:permits
           rdf:resource="http://web.resource.org/cc/Reproduction" />
        <cc:permits
           rdf:resource="http://web.resource.org/cc/Distribution" />
        <cc:requires
           rdf:resource="http://web.resource.org/cc/Notice" />
        <cc:permits
           rdf:resource="http://web.resource.org/cc/DerivativeWorks" />
        <cc:requires
           rdf:resource="http://web.resource.org/cc/ShareAlike" />
        <cc:requires
           rdf:resource="http://web.resource.org/cc/SourceCode" />
      </cc:License>
    </rdf:RDF>
  </metadata>
  <g
     id="layer1"
     inkscape:label="Layer 1"
     inkscape:groupmode="layer"
     transform="translate(0,-31.999991)">
    <g
       id="g4795"
       transform="translate(0.73319754,1.2219959)">
      <rect
         style="fill:none;stroke:#1a1a1a"
         width="5.485868"
         height="22.100212"
         x="78.36676"
         y="5.713933"
         rx="2.742934"
         ry="2.742934"
         transform="matrix(0.71832943,0.69570311,-0.69570311,0.71832943,0,0)"
         id="rect4791" />
      <rect
         id="rect4793"
         transform="matrix(0.71832943,0.69570311,-0.69570311,0.71832943,0,0)"
         ry="2.742934"
         rx="2.742934"
         y="5.713933"
         x="78.36676"
         height="22.100212"
         width="5.485868"
         style="opacity:0.5;fill:none;stroke:#1a1a1a;stroke-width:2;stroke-linecap:round;stroke-linejoin:round;stroke-miterlimit:4;stroke-dasharray:none" />
      <rect
         id="rect3046"
         transform="matrix(0.71832943,0.69570311,-0.69570311,0.71832943,0,0)"
         ry="2.742934"
         rx="2.742934"
         y="5.713933"
         x="78.36676"
         height="22.100212"
         width="5.485868"
         style="fill:url(#linearGradient4837);fill-opacity:1;fill-rule:nonzero;stroke:none" />
      <path
         transform="matrix(0.61964405,0.60012617,-0.60012617,0.61964405,35.418016,25.546271)"
         d="m 46.508815,16 c 0,1.179691 -1.172856,2.13602 -2.619647,2.13602 -1.446791,0 -2.619647,-0.956329 -2.619647,-2.13602 0,-1.179691 1.172856,-2.13602 2.619647,-2.13602 1.446791,0 2.619647,0.956329 2.619647,2.13602 z"
         sodipodi:ry="2.1360202"
         sodipodi:rx="2.6196473"
         sodipodi:cy="16"
         sodipodi:cx="43.889168"
         id="path3601"
         style="opacity:0.75;fill:url(#radialGradient4839);fill-opacity:1;fill-rule:nonzero;stroke:none"
         sodipodi:type="arc" />
    </g>
    <g
       transform="translate(11.649694,12.382892)"
       id="g4841">
      <rect
         id="rect4843"
         transform="matrix(0.71832943,0.69570311,-0.69570311,0.71832943,0,0)"
         ry="2.742934"
         rx="2.742934"
         y="5.713933"
         x="78.36676"
         height="22.100212"
         width="5.485868"
         style="fill:none;stroke:#1a1a1a" />
      <rect
         style="opacity:0.5;fill:none;stroke:#1a1a1a;stroke-width:2;stroke-linecap:round;stroke-linejoin:round;stroke-miterlimit:4;stroke-dasharray:none"
         width="5.485868"
         height="22.100212"
         x="78.36676"
         y="5.713933"
         rx="2.742934"
         ry="2.742934"
         transform="matrix(0.71832943,0.69570311,-0.69570311,0.71832943,0,0)"
         id="rect4845" />
      <rect
         style="fill:url(#linearGradient4851);fill-opacity:1;fill-rule:nonzero;stroke:none"
         width="5.485868"
         height="22.100212"
         x="78.36676"
         y="5.713933"
         rx="2.742934"
         ry="2.742934"
         transform="matrix(0.71832943,0.69570311,-0.69570311,0.71832943,0,0)"
         id="rect4847" />
      <path
         sodipodi:type="arc"
         style="opacity:0.75;fill:url(#radialGradient4853);fill-opacity:1;fill-rule:nonzero;stroke:none"
         id="path4849"
         sodipodi:cx="43.889168"
         sodipodi:cy="16"
         sodipodi:rx="2.6196473"
         sodipodi:ry="2.1360202"
         d="m 46.508815,16 c 0,1.179691 -1.172856,2.13602 -2.619647,2.13602 -1.446791,0 -2.619647,-0.956329 -2.619647,-2.13602 0,-1.179691 1.172856,-2.13602 2.619647,-2.13602 1.446791,0 2.619647,0.956329 2.619647,2.13602 z"
         transform="matrix(0.61964405,0.60012617,-0.60012617,0.61964405,35.418016,25.546271)" />
    </g>
    <g
       id="g3807">
      <path
         id="path3002"
         d="M 17.544922,109.54101 A 1.8980813,1.8980813 0 0 0 16.105469,110.25 c -1.555789,1.88291 -3.25829,3.47324 -4.833985,4.10351 -1.575695,0.63028 -2.9882013,0.63542 -5.2207028,-1.05273 A 1.9013975,1.9013975 0 0 0 5.75,113.1289 l 0,4.4043 c 2.4221882,1.14057 4.882829,1.16639 6.939453,0.34375 2.627797,-1.0511 4.618226,-3.11797 6.337891,-5.19922 a 1.8980813,1.8980813 0 0 0 -1.482422,-3.13672 z"
         style="font-size:medium;font-style:normal;font-variant:normal;font-weight:normal;font-stretch:normal;text-indent:0;text-align:start;text-decoration:none;line-height:normal;letter-spacing:normal;word-spacing:normal;text-transform:none;direction:ltr;block-progression:tb;writing-mode:lr-tb;text-anchor:start;baseline-shift:baseline;color:#000000;fill:url(#linearGradient4943-2);fill-opacity:1;stroke:none;stroke-width:5.52113914;marker:none;visibility:visible;display:inline;overflow:visible;enable-background:accumulate;font-family:Sans;-inkscape-font-specification:Sans"
         inkscape:connector-curvature="0" />
      <path
         inkscape:connector-curvature="0"
         style="opacity:0.25;fill:none;stroke:#1a1a1a;stroke-width:8;stroke-linecap:round;stroke-linejoin:round;stroke-miterlimit:4;stroke-dasharray:none"
         d="m 36.8125,73.062491 c -0.882551,1e-6 -1.761245,0.329233 -2.4375,1.03125 l -18.625,19.375 c -1.352511,1.404035 -1.132684,3.468299 0,5.0625 5.385548,7.579919 7.875628,9.636599 15.21875,15.187499 1.542287,1.16586 3.522489,1.40403 4.875,0 L 54.5,94.374991 c 1.352511,-1.404035 1.352515,-3.658469 0,-5.0625 L 39.25,74.093741 c -0.676258,-0.702016 -1.554949,-1.031251 -2.4375,-1.03125 z"
         id="path3893" />
      <path
         inkscape:connector-curvature="0"
         id="path3889"
         d="m 36.8125,73.062491 c -0.882551,1e-6 -1.761245,0.329233 -2.4375,1.03125 l -18.625,19.375 c -1.352511,1.404035 -1.132684,3.468299 0,5.0625 5.385548,7.579919 7.875628,9.636599 15.21875,15.187499 1.542287,1.16586 3.522489,1.40403 4.875,0 L 54.5,94.374991 c 1.352511,-1.404035 1.352515,-3.658469 0,-5.0625 L 39.25,74.093741 c -0.676258,-0.702016 -1.554949,-1.031251 -2.4375,-1.03125 z"
         style="opacity:0.5;fill:none;stroke:#1a1a1a;stroke-width:4;stroke-linecap:round;stroke-linejoin:round;stroke-miterlimit:4;stroke-dasharray:none" />
      <path
         sodipodi:nodetypes="ccccccc"
         inkscape:connector-curvature="0"
         id="path1976"
         d="m 12.952624,110.62759 4.87498,5.08332 9.249961,-4.00005 -3.749984,-3.87499 -2.791655,-2.91665 -3.749985,-3.87498 z"
         style="fill:url(#linearGradient3797);fill-opacity:1;fill-rule:evenodd;stroke:#333333;stroke-width:1.33332777" />
      <path
         inkscape:connector-curvature="0"
         style="fill:none;stroke:#1a1a1a;stroke-width:2;stroke-linecap:round;stroke-linejoin:round;stroke-miterlimit:4;stroke-dasharray:none"
         d="m 36.8125,73.062491 c -0.882551,1e-6 -1.761245,0.329233 -2.4375,1.03125 l -18.625,19.375 c -1.352511,1.404035 -1.132684,3.468299 0,5.0625 5.385548,7.579919 7.875628,9.636599 15.21875,15.187499 1.542287,1.16586 3.522489,1.40403 4.875,0 L 54.5,94.374991 c 1.352511,-1.404035 1.352515,-3.658469 0,-5.0625 L 39.25,74.093741 c -0.676258,-0.702016 -1.554949,-1.031251 -2.4375,-1.03125 z"
         id="path3879" />
      <path
         inkscape:connector-curvature="0"
         id="rect1969"
         d="m 36.8125,73.062491 c -0.882551,1e-6 -1.761245,0.329233 -2.4375,1.03125 l -18.625,19.375 c -1.352511,1.404035 -1.132684,3.468299 0,5.0625 5.385548,7.579919 7.875628,9.636599 15.21875,15.187499 1.542287,1.16586 3.522489,1.40403 4.875,0 L 54.5,94.374991 c 1.352511,-1.404035 1.352515,-3.658469 0,-5.0625 L 39.25,74.093741 c -0.676258,-0.702016 -1.554949,-1.031251 -2.4375,-1.03125 z"
         style="fill:url(#linearGradient3963-4);fill-opacity:1;fill-rule:nonzero;stroke:none" />
      <path
         inkscape:connector-curvature="0"
         id="path3914"
         d="m 36.8125,74.0625 c -0.633855,10e-7 -1.23439,0.215938 -1.71875,0.71875 l -18.625,19.375 c -0.975187,1.012336 -0.838248,2.469505 0.09375,3.78125 5.350721,7.5309 7.664913,9.42392 15,14.96875 0.633041,0.47853 1.329429,0.76012 1.9375,0.78125 0.608071,0.0211 1.137518,-0.1502 1.625,-0.65625 L 53.78125,93.6875 c 0.981447,-1.018835 0.981447,-2.66867 0,-3.6875 l -15.25,-15.1875 a 1.0001,1.0001 0 0 1 0,-0.03125 C 38.046884,74.278435 37.446351,74.062499 36.8125,74.0625 z"
         style="fill:none;stroke:url(#linearGradient3064);stroke-width:2;stroke-miterlimit:4;stroke-dasharray:none" />
    </g>
  </g>
</svg>
