<?xml version="1.0" encoding="UTF-8" standalone="no"?>
<!-- Created with Inkscape (http://www.inkscape.org/) -->

<svg
   xmlns:dc="http://purl.org/dc/elements/1.1/"
   xmlns:cc="http://creativecommons.org/ns#"
   xmlns:rdf="http://www.w3.org/1999/02/22-rdf-syntax-ns#"
   xmlns:svg="http://www.w3.org/2000/svg"
   xmlns="http://www.w3.org/2000/svg"
   xmlns:xlink="http://www.w3.org/1999/xlink"
   xmlns:sodipodi="http://sodipodi.sourceforge.net/DTD/sodipodi-0.dtd"
   xmlns:inkscape="http://www.inkscape.org/namespaces/inkscape"
   width="96"
   height="96"
   id="svg3186"
   sodipodi:version="0.32"
   inkscape:version="0.48.4 r9939"
   version="1.0"
   sodipodi:docname="sync-client-paused.svg"
   inkscape:output_extension="org.inkscape.output.svg.inkscape"
   sodipodi:modified="true"
   inkscape:export-filename="sync-client-all.png"
   inkscape:export-xdpi="90"
   inkscape:export-ydpi="90">
  <sodipodi:namedview
     id="base"
     pagecolor="#ffffff"
     bordercolor="#666666"
     borderopacity="1.0"
     gridtolerance="10000"
     guidetolerance="10"
     objecttolerance="10"
     inkscape:pageopacity="0.0"
     inkscape:pageshadow="2"
     inkscape:zoom="4"
     inkscape:cx="48"
     inkscape:cy="50.875"
     inkscape:document-units="px"
     inkscape:current-layer="layer1"
     width="128px"
     height="128px"
     showgrid="false"
     inkscape:window-width="1006"
     inkscape:window-height="714"
     inkscape:window-x="254"
     inkscape:window-y="87"
     fit-margin-top="0"
     fit-margin-left="0"
     fit-margin-right="0"
     fit-margin-bottom="0"
     inkscape:window-maximized="0"
     inkscape:object-paths="true"
     inkscape:snap-intersection-paths="true"
     inkscape:object-nodes="true"
     inkscape:snap-smooth-nodes="true">
    <inkscape:grid
       id="GridFromPre046Settings"
       type="xygrid"
       originx="0px"
       originy="0px"
       spacingx="8px"
       spacingy="8px"
       color="#3f3fff"
       empcolor="#3f3fff"
       opacity="0.15"
       empopacity="0.38"
       empspacing="5"
       visible="true"
       enabled="true"
       snapvisiblegridlinesonly="true" />
  </sodipodi:namedview>
  <defs
     id="defs3188">
    <linearGradient
       inkscape:collect="always"
       xlink:href="#linearGradient3971-7-8-8-5"
       id="linearGradient2995"
       gradientUnits="userSpaceOnUse"
       gradientTransform="translate(-93.838863,66.999999)"
       x1="141.63745"
       y1="-16.124405"
       x2="141.88745"
       y2="39.777252" />
    <linearGradient
       id="linearGradient3971-7-8-8-5">
      <stop
         style="stop-color:#606060;stop-opacity:1;"
         offset="0"
         id="stop3973-6-3-2-2" />
      <stop
         style="stop-color:#202020;stop-opacity:1;"
         offset="1"
         id="stop3975-1-3-2-5" />
    </linearGradient>
    <linearGradient
       inkscape:collect="always"
       xlink:href="#linearGradient3696-804-7-4-5-6"
       id="linearGradient2999"
       gradientUnits="userSpaceOnUse"
       gradientTransform="matrix(3.8331976,0,0,3.8331976,-91.838096,68.501278)"
       x1="36.480797"
       y1="-3.4242182"
       x2="36.480797"
       y2="10.565258" />
    <linearGradient
       x1="15"
       y1="2"
       x2="15"
       gradientUnits="userSpaceOnUse"
       y2="21"
       id="linearGradient3696-804-7-4-5-6">
      <stop
         offset="0"
         style="stop-color:#ffffff;stop-opacity:1;"
         id="stop3014-5-7-6-2" />
      <stop
         offset="1"
         style="stop-color:#b0b0b0;stop-opacity:1;"
         id="stop3018-79-7-0-4" />
    </linearGradient>
    <linearGradient
       id="linearGradient3774">
      <stop
         style="stop-color:#ffffff;stop-opacity:1;"
         offset="0"
         id="stop3776" />
      <stop
         style="stop-color:#ffffff;stop-opacity:0;"
         offset="1"
         id="stop3778" />
    </linearGradient>
    <linearGradient
       y2="39.777252"
       x2="141.88745"
       y1="-16.124405"
       x1="141.63745"
       gradientTransform="translate(-93.838863,66.999999)"
       gradientUnits="userSpaceOnUse"
       id="linearGradient3837"
       xlink:href="#linearGradient3971-7-8-8-5"
       inkscape:collect="always" />
    <linearGradient
       y2="39.777252"
       x2="141.88745"
       y1="-16.124405"
       x1="141.63745"
       gradientTransform="translate(-93.838863,66.999999)"
       gradientUnits="userSpaceOnUse"
       id="linearGradient3839"
       xlink:href="#linearGradient3971-7-8-8-5"
       inkscape:collect="always" />
    <linearGradient
       y2="87.843643"
       x2="48"
       y1="54.424366"
       x1="48"
       gradientUnits="userSpaceOnUse"
       id="linearGradient3841"
       xlink:href="#linearGradient3774"
       inkscape:collect="always" />
  </defs>
  <metadata
     id="metadata3191">
    <rdf:RDF>
      <cc:Work
         rdf:about="">
        <dc:format>image/svg+xml</dc:format>
        <dc:type
           rdf:resource="http://purl.org/dc/dcmitype/StillImage" />
        <dc:title></dc:title>
      </cc:Work>
    </rdf:RDF>
  </metadata>
  <g
     inkscape:label="Layer 1"
     inkscape:groupmode="layer"
     id="layer1"
     transform="translate(0,-32)">
    <g
       id="g3786">
      <path
         style="opacity:0.25;color:#000000;fill:none;stroke:url(#linearGradient3837);stroke-width:8;stroke-linecap:round;stroke-linejoin:miter;stroke-miterlimit:4;stroke-opacity:1;stroke-dasharray:none;stroke-dashoffset:0.71750001;marker:none;visibility:visible;display:inline;overflow:visible;enable-background:accumulate"
         d="m 54.65625,51 c -7.508889,0 -13.924195,4.562285 -17.34375,11.125 -1.925778,-1.545 -4.395083,-2.5625 -7.09375,-2.5625 -6.133333,0 -11.09375,4.804465 -11.09375,10.71875 0,1.328143 0.228834,2.575715 0.6875,3.75 C 12.836945,77.035536 8,83.850178 8,91.71875 8,102.40303 16.92,109 28,109 l 40,0 C 79.08,109 88,102.40303 88,91.71875 88,83.25575 82.364583,76.11 74.53125,73.5 c 0.01778,-0.364286 0.125,-0.689642 0.125,-1.0625 0,-11.828571 -8.96,-21.4375 -20,-21.4375 z"
         id="path3767"
         inkscape:connector-curvature="0"
         sodipodi:nodetypes="scsscsssscss" />
      <path
         sodipodi:nodetypes="scsscsssscss"
         inkscape:connector-curvature="0"
         id="path3765"
         d="m 54.65625,51 c -7.508889,0 -13.924195,4.562285 -17.34375,11.125 -1.925778,-1.545 -4.395083,-2.5625 -7.09375,-2.5625 -6.133333,0 -11.09375,4.804465 -11.09375,10.71875 0,1.328143 0.228834,2.575715 0.6875,3.75 C 12.836945,77.035536 8,83.850178 8,91.71875 8,102.40303 16.92,109 28,109 l 40,0 C 79.08,109 88,102.40303 88,91.71875 88,83.25575 82.364583,76.11 74.53125,73.5 c 0.01778,-0.364286 0.125,-0.689642 0.125,-1.0625 0,-11.828571 -8.96,-21.4375 -20,-21.4375 z"
         style="opacity:0.5;color:#000000;fill:none;stroke:url(#linearGradient3839);stroke-width:4;stroke-linecap:round;stroke-linejoin:miter;stroke-miterlimit:4;stroke-opacity:1;stroke-dasharray:none;stroke-dashoffset:0.71750001;marker:none;visibility:visible;display:inline;overflow:visible;enable-background:accumulate" />
      <path
         style="color:#000000;fill:none;stroke:url(#linearGradient2995);stroke-width:2;stroke-linecap:round;stroke-linejoin:miter;stroke-miterlimit:4;stroke-opacity:1;stroke-dasharray:none;stroke-dashoffset:0.71750001;marker:none;visibility:visible;display:inline;overflow:visible;enable-background:accumulate"
         d="m 54.65625,51 c -7.508889,0 -13.924195,4.562285 -17.34375,11.125 -1.925778,-1.545 -4.395083,-2.5625 -7.09375,-2.5625 -6.133333,0 -11.09375,4.804465 -11.09375,10.71875 0,1.328143 0.228834,2.575715 0.6875,3.75 C 12.836945,77.035536 8,83.850178 8,91.71875 8,102.40303 16.92,109 28,109 l 40,0 C 79.08,109 88,102.40303 88,91.71875 88,83.25575 82.364583,76.11 74.53125,73.5 c 0.01778,-0.364286 0.125,-0.689642 0.125,-1.0625 0,-11.828571 -8.96,-21.4375 -20,-21.4375 z"
         id="path2993"
         inkscape:connector-curvature="0"
         sodipodi:nodetypes="scsscsssscss" />
      <path
         sodipodi:nodetypes="scsscsssscss"
         inkscape:connector-curvature="0"
         id="rect3193"
         d="m 54.65625,51 c -7.508889,0 -13.924195,4.562285 -17.34375,11.125 -1.925778,-1.545 -4.395083,-2.5625 -7.09375,-2.5625 -6.133333,0 -11.09375,4.804465 -11.09375,10.71875 0,1.328143 0.228834,2.575715 0.6875,3.75 C 12.836945,77.035536 8,83.850178 8,91.71875 8,102.40303 16.92,109 28,109 l 40,0 C 79.08,109 88,102.40303 88,91.71875 88,83.25575 82.364583,76.11 74.53125,73.5 c 0.01778,-0.364286 0.125,-0.689642 0.125,-1.0625 0,-11.828571 -8.96,-21.4375 -20,-21.4375 z"
         style="color:#000000;fill:url(#linearGradient2999);fill-opacity:1;fill-rule:nonzero;stroke:none;stroke-width:2;marker:none;visibility:visible;display:inline;overflow:visible;enable-background:accumulate" />
      <path
         inkscape:connector-curvature="0"
         id="path3771"
         d="m 54.65625,53 c -6.698776,0 -12.4411,4.071996 -15.5625,10.0625 a 2.0002,2.0002 0 0 1 -3.03125,0.625 c -1.609187,-1.291007 -3.6478,-2.125 -5.84375,-2.125 -5.088884,0 -9.09375,3.922756 -9.09375,8.71875 0,1.098415 0.19647,2.094134 0.5625,3.03125 A 2.0002,2.0002 0 0 1 20.59375,75.875 C 14.31885,78.577522 10,84.669801 10,91.71875 c 0,4.785559 1.929266,8.45515 5.125,11.09375 C 18.320734,105.4511 22.85693,107 28,107 l 40,0 c 5.14307,0 9.679266,-1.5489 12.875,-4.1875 C 84.070734,100.1739 86,96.504309 86,91.71875 86,84.143602 80.973875,77.761122 73.90625,75.40625 a 2.0002,2.0002 0 0 1 -1.375,-2 c 0.03404,-0.697411 0.125,-0.979309 0.125,-0.96875 0,-10.818587 -8.120499,-19.4375 -18,-19.4375 z"
         style="color:#000000;fill:none;stroke:url(#linearGradient3841);stroke-width:4;stroke-miterlimit:4;marker:none;visibility:visible;display:inline;overflow:visible;enable-background:accumulate" />
    </g>
    <path
       d="M 43.322077,90.015657 C 39.354171,85.869517 30.775964,76.905202 30.775964,76.905202 L 24.625,83.334243 43.322077,102.87503 71.375,73.55364 65.223202,67.125024 c 0,0 -17.171861,17.948203 -21.901125,22.890633 z"
       style="fill:#4d4d4d;stroke:none"
       id="path24"
       inkscape:connector-curvature="0" />
    <path
       style="opacity:0.25;fill:#000000;stroke:none"
       d="m 65.21875,65.125 c 0,0 -17.176986,17.96382 -21.90625,22.90625 -3.967906,-4.14614 -12.53125,-13.125 -12.53125,-13.125 l -6.15625,6.4375 1.90625,2 4.25,-4.4375 c 0,0 8.563344,8.97886 12.53125,13.125 C 48.041764,87.08882 65.21875,69.125 65.21875,69.125 l 4.25,4.4375 1.90625,-2 -6.15625,-6.4375 z"
       id="path3790"
       inkscape:connector-curvature="0" />
    <path
       style="fill:#ffffff;stroke:none;opacity:0.75"
       d="M 69.46875,73.5625 43.3125,100.875 26.53125,83.34375 l -1.90625,2 18.6875,19.53125 28.0625,-29.3125 -1.90625,-2 z"
       id="path3795"
       inkscape:connector-curvature="0" />
  </g>
</svg>
