<?xml version="1.0" encoding="UTF-8" standalone="no"?>
<!-- Created with Inkscape (http://www.inkscape.org/) -->

<svg
   xmlns:dc="http://purl.org/dc/elements/1.1/"
   xmlns:cc="http://creativecommons.org/ns#"
   xmlns:rdf="http://www.w3.org/1999/02/22-rdf-syntax-ns#"
   xmlns:svg="http://www.w3.org/2000/svg"
   xmlns="http://www.w3.org/2000/svg"
   xmlns:xlink="http://www.w3.org/1999/xlink"
   xmlns:sodipodi="http://sodipodi.sourceforge.net/DTD/sodipodi-0.dtd"
   xmlns:inkscape="http://www.inkscape.org/namespaces/inkscape"
   width="96"
   height="96"
   id="svg3186"
   sodipodi:version="0.32"
   inkscape:version="0.48.4 r9939"
   version="1.0"
   sodipodi:docname="sync-client-updating.svg"
   inkscape:output_extension="org.inkscape.output.svg.inkscape"
   sodipodi:modified="true"
   inkscape:export-filename="sync-client-all.png"
   inkscape:export-xdpi="90"
   inkscape:export-ydpi="90">
  <sodipodi:namedview
     id="base"
     pagecolor="#ffffff"
     bordercolor="#666666"
     borderopacity="1.0"
     gridtolerance="10000"
     guidetolerance="10"
     objecttolerance="10"
     inkscape:pageopacity="0.0"
     inkscape:pageshadow="2"
     inkscape:zoom="4"
     inkscape:cx="48"
     inkscape:cy="48"
     inkscape:document-units="px"
     inkscape:current-layer="layer1"
     width="128px"
     height="128px"
     showgrid="false"
     inkscape:window-width="1006"
     inkscape:window-height="714"
     inkscape:window-x="52"
     inkscape:window-y="88"
     fit-margin-top="0"
     fit-margin-left="0"
     fit-margin-right="0"
     fit-margin-bottom="0"
     inkscape:window-maximized="0"
     inkscape:object-paths="true"
     inkscape:snap-intersection-paths="true"
     inkscape:object-nodes="true"
     inkscape:snap-smooth-nodes="true">
    <inkscape:grid
       id="GridFromPre046Settings"
       type="xygrid"
       originx="0px"
       originy="0px"
       spacingx="8px"
       spacingy="8px"
       color="#3f3fff"
       empcolor="#3f3fff"
       opacity="0.15"
       empopacity="0.38"
       empspacing="5"
       visible="true"
       enabled="true"
       snapvisiblegridlinesonly="true" />
  </sodipodi:namedview>
  <defs
     id="defs3188">
    <linearGradient
       inkscape:collect="always"
       xlink:href="#linearGradient3971-7-8-8-5"
       id="linearGradient2995"
       gradientUnits="userSpaceOnUse"
       gradientTransform="translate(-93.838863,66.999999)"
       x1="141.63745"
       y1="-16.124405"
       x2="141.88745"
       y2="39.777252" />
    <linearGradient
       id="linearGradient3971-7-8-8-5">
      <stop
         style="stop-color:#606060;stop-opacity:1;"
         offset="0"
         id="stop3973-6-3-2-9" />
      <stop
         style="stop-color:#202020;stop-opacity:1;"
         offset="1"
         id="stop3975-1-3-2-5" />
    </linearGradient>
    <linearGradient
       inkscape:collect="always"
       xlink:href="#linearGradient3696-804-7-4-5-5"
       id="linearGradient2999"
       gradientUnits="userSpaceOnUse"
       gradientTransform="matrix(3.8331976,0,0,3.8331976,-91.838096,68.501278)"
       x1="36.480797"
       y1="-3.4242182"
       x2="36.480797"
       y2="10.565258" />
    <linearGradient
       x1="15"
       y1="2"
       x2="15"
       gradientUnits="userSpaceOnUse"
       y2="21"
       id="linearGradient3696-804-7-4-5-5">
      <stop
         offset="0"
         style="stop-color:#ffffff;stop-opacity:1;"
         id="stop3014-5-7-6-8" />
      <stop
         offset="1"
         style="stop-color:#b0b0b0;stop-opacity:1;"
         id="stop3018-79-7-0-2" />
    </linearGradient>
    <linearGradient
       id="linearGradient3774">
      <stop
         style="stop-color:#ffffff;stop-opacity:1;"
         offset="0"
         id="stop3776" />
      <stop
         style="stop-color:#ffffff;stop-opacity:0;"
         offset="1"
         id="stop3778" />
    </linearGradient>
    <linearGradient
       y2="39.777252"
       x2="141.88745"
       y1="-16.124405"
       x1="141.63745"
       gradientTransform="translate(-93.838863,66.999999)"
       gradientUnits="userSpaceOnUse"
       id="linearGradient3837"
       xlink:href="#linearGradient3971-7-8-8-5"
       inkscape:collect="always" />
    <linearGradient
       y2="39.777252"
       x2="141.88745"
       y1="-16.124405"
       x1="141.63745"
       gradientTransform="translate(-93.838863,66.999999)"
       gradientUnits="userSpaceOnUse"
       id="linearGradient3839"
       xlink:href="#linearGradient3971-7-8-8-5"
       inkscape:collect="always" />
    <linearGradient
       y2="87.843643"
       x2="48"
       y1="54.424366"
       x1="48"
       gradientUnits="userSpaceOnUse"
       id="linearGradient3841"
       xlink:href="#linearGradient3774"
       inkscape:collect="always" />
  </defs>
  <metadata
     id="metadata3191">
    <rdf:RDF>
      <cc:Work
         rdf:about="">
        <dc:format>image/svg+xml</dc:format>
        <dc:type
           rdf:resource="http://purl.org/dc/dcmitype/StillImage" />
        <dc:title />
      </cc:Work>
    </rdf:RDF>
  </metadata>
  <g
     inkscape:label="Layer 1"
     inkscape:groupmode="layer"
     id="layer1"
     transform="translate(0,-32)">
    <g
       id="g3786">
      <path
         style="opacity:0.25;color:#000000;fill:none;stroke:url(#linearGradient3837);stroke-width:8;stroke-linecap:round;stroke-linejoin:miter;stroke-miterlimit:4;stroke-opacity:1;stroke-dasharray:none;stroke-dashoffset:0.71750001;marker:none;visibility:visible;display:inline;overflow:visible;enable-background:accumulate"
         d="m 54.65625,51 c -7.508889,0 -13.924195,4.562285 -17.34375,11.125 -1.925778,-1.545 -4.395083,-2.5625 -7.09375,-2.5625 -6.133333,0 -11.09375,4.804465 -11.09375,10.71875 0,1.328143 0.228834,2.575715 0.6875,3.75 C 12.836945,77.035536 8,83.850178 8,91.71875 8,102.40303 16.92,109 28,109 l 40,0 C 79.08,109 88,102.40303 88,91.71875 88,83.25575 82.364583,76.11 74.53125,73.5 c 0.01778,-0.364286 0.125,-0.689642 0.125,-1.0625 0,-11.828571 -8.96,-21.4375 -20,-21.4375 z"
         id="path3767"
         inkscape:connector-curvature="0"
         sodipodi:nodetypes="scsscsssscss" />
      <path
         sodipodi:nodetypes="scsscsssscss"
         inkscape:connector-curvature="0"
         id="path3765"
         d="m 54.65625,51 c -7.508889,0 -13.924195,4.562285 -17.34375,11.125 -1.925778,-1.545 -4.395083,-2.5625 -7.09375,-2.5625 -6.133333,0 -11.09375,4.804465 -11.09375,10.71875 0,1.328143 0.228834,2.575715 0.6875,3.75 C 12.836945,77.035536 8,83.850178 8,91.71875 8,102.40303 16.92,109 28,109 l 40,0 C 79.08,109 88,102.40303 88,91.71875 88,83.25575 82.364583,76.11 74.53125,73.5 c 0.01778,-0.364286 0.125,-0.689642 0.125,-1.0625 0,-11.828571 -8.96,-21.4375 -20,-21.4375 z"
         style="opacity:0.5;color:#000000;fill:none;stroke:url(#linearGradient3839);stroke-width:4;stroke-linecap:round;stroke-linejoin:miter;stroke-miterlimit:4;stroke-opacity:1;stroke-dasharray:none;stroke-dashoffset:0.71750001;marker:none;visibility:visible;display:inline;overflow:visible;enable-background:accumulate" />
      <path
         style="color:#000000;fill:none;stroke:url(#linearGradient2995);stroke-width:2;stroke-linecap:round;stroke-linejoin:miter;stroke-miterlimit:4;stroke-opacity:1;stroke-dasharray:none;stroke-dashoffset:0.71750001;marker:none;visibility:visible;display:inline;overflow:visible;enable-background:accumulate"
         d="m 54.65625,51 c -7.508889,0 -13.924195,4.562285 -17.34375,11.125 -1.925778,-1.545 -4.395083,-2.5625 -7.09375,-2.5625 -6.133333,0 -11.09375,4.804465 -11.09375,10.71875 0,1.328143 0.228834,2.575715 0.6875,3.75 C 12.836945,77.035536 8,83.850178 8,91.71875 8,102.40303 16.92,109 28,109 l 40,0 C 79.08,109 88,102.40303 88,91.71875 88,83.25575 82.364583,76.11 74.53125,73.5 c 0.01778,-0.364286 0.125,-0.689642 0.125,-1.0625 0,-11.828571 -8.96,-21.4375 -20,-21.4375 z"
         id="path2993"
         inkscape:connector-curvature="0"
         sodipodi:nodetypes="scsscsssscss" />
      <path
         sodipodi:nodetypes="scsscsssscss"
         inkscape:connector-curvature="0"
         id="rect3193"
         d="m 54.65625,51 c -7.508889,0 -13.924195,4.562285 -17.34375,11.125 -1.925778,-1.545 -4.395083,-2.5625 -7.09375,-2.5625 -6.133333,0 -11.09375,4.804465 -11.09375,10.71875 0,1.328143 0.228834,2.575715 0.6875,3.75 C 12.836945,77.035536 8,83.850178 8,91.71875 8,102.40303 16.92,109 28,109 l 40,0 C 79.08,109 88,102.40303 88,91.71875 88,83.25575 82.364583,76.11 74.53125,73.5 c 0.01778,-0.364286 0.125,-0.689642 0.125,-1.0625 0,-11.828571 -8.96,-21.4375 -20,-21.4375 z"
         style="color:#000000;fill:url(#linearGradient2999);fill-opacity:1;fill-rule:nonzero;stroke:none;stroke-width:2;marker:none;visibility:visible;display:inline;overflow:visible;enable-background:accumulate" />
      <path
         inkscape:connector-curvature="0"
         id="path3771"
         d="m 54.65625,53 c -6.698776,0 -12.4411,4.071996 -15.5625,10.0625 a 2.0002,2.0002 0 0 1 -3.03125,0.625 c -1.609187,-1.291007 -3.6478,-2.125 -5.84375,-2.125 -5.088884,0 -9.09375,3.922756 -9.09375,8.71875 0,1.098415 0.19647,2.094134 0.5625,3.03125 A 2.0002,2.0002 0 0 1 20.59375,75.875 C 14.31885,78.577522 10,84.669801 10,91.71875 c 0,4.785559 1.929266,8.45515 5.125,11.09375 C 18.320734,105.4511 22.85693,107 28,107 l 40,0 c 5.14307,0 9.679266,-1.5489 12.875,-4.1875 C 84.070734,100.1739 86,96.504309 86,91.71875 86,84.143602 80.973875,77.761122 73.90625,75.40625 a 2.0002,2.0002 0 0 1 -1.375,-2 c 0.03404,-0.697411 0.125,-0.979309 0.125,-0.96875 0,-10.818587 -8.120499,-19.4375 -18,-19.4375 z"
         style="color:#000000;fill:none;stroke:url(#linearGradient3841);stroke-width:4;stroke-miterlimit:4;marker:none;visibility:visible;display:inline;overflow:visible;enable-background:accumulate" />
    </g>
    <g
       id="g3125">
      <path
         transform="translate(0,32)"
         id="path3066"
         d="M 48 34.9375 C 38.951508 34.9375 34.047367 39.515526 31.71875 44 C 30.491591 46.363276 29.898232 48.677731 29.625 50.375 L 36.90625 50.4375 C 37.117304 49.525211 37.443461 48.476784 38 47.40625 C 39.429899 44.65576 42.027537 41.96875 48 41.96875 C 50.524063 41.96875 52.380275 42.473635 53.84375 43.21875 L 52.28125 43.21875 A 1.4485941 1.4485941 0 0 0 50.84375 44.65625 L 50.84375 48.78125 A 1.4485941 1.4485941 0 0 0 52.28125 50.25 L 60.875 50.25 L 65.15625 50.25 A 1.4485941 1.4485941 0 0 0 66.625 48.78125 L 66.625 44.65625 L 66.625 36.375 A 1.4485941 1.4485941 0 0 0 65.15625 34.9375 L 60.875 34.9375 A 1.4485941 1.4485941 0 0 0 59.4375 36.375 L 59.4375 38.3125 C 56.700182 36.322056 52.970097 34.937499 48 34.9375 z M 59.09375 55.28125 C 58.885465 56.224751 58.582017 57.346483 58 58.46875 C 56.5695 61.227094 53.97133 63.90625 48 63.90625 C 45.456727 63.90625 43.594258 63.389314 42.125 62.625 L 43.71875 62.625 A 1.4485941 1.4485941 0 0 0 45.15625 61.1875 L 45.15625 57.0625 A 1.4485941 1.4485941 0 0 0 43.71875 55.59375 L 35.125 55.59375 L 30.84375 55.59375 A 1.4485941 1.4485941 0 0 0 29.375 57.0625 L 29.375 61.1875 L 29.375 69.5 A 1.4485941 1.4485941 0 0 0 30.84375 70.9375 L 35.125 70.9375 A 1.4485941 1.4485941 0 0 0 36.5625 69.5 L 36.5625 67.53125 C 39.29838 69.530021 43.02621 70.9375 48 70.9375 C 57.04934 70.9375 61.953085 66.366785 64.28125 61.875 C 65.52362 59.478066 66.106004 57.114986 66.375 55.40625 L 59.09375 55.28125 z "
         style="color:#000000;fill:#4d4d4d;fill-opacity:1;fill-rule:evenodd;stroke:none;stroke-width:1px;marker:none;visibility:visible;display:inline;overflow:visible;enable-background:accumulate" />
      <path
         inkscape:connector-curvature="0"
         id="path3111"
         d="m 48,71.96875 c -5.972463,0 -8.570101,2.68701 -10,5.4375 -0.556539,1.070534 -0.882696,2.118961 -1.09375,3.03125 L 30.6875,80.375 c -0.545535,1.487928 -0.882861,2.884112 -1.0625,4 l 7.28125,0.0625 C 37.117304,83.525211 37.443461,82.476784 38,81.40625 c 1.429899,-2.75049 4.027537,-5.4375 10,-5.4375 1.069783,0 1.99296,0.12001 2.84375,0.28125 l 0,-1.59375 a 1.4485941,1.4485941 0 0 1 1.4375,-1.4375 l 1.5625,0 c -1.463475,-0.745115 -3.319687,-1.25 -5.84375,-1.25 z m 2.84375,6.96875 0,3.84375 a 1.4485941,1.4485941 0 0 0 1.4375,1.46875 l 8.59375,0 4.28125,0 A 1.4485941,1.4485941 0 0 0 66.625,82.78125 l 0,-3.84375 A 1.4485941,1.4485941 0 0 1 65.15625,80.25 l -4.28125,0 -8.59375,0 a 1.4485941,1.4485941 0 0 1 -1.4375,-1.3125 z m 14.5,10.4375 c -0.290033,0.813819 -0.621928,1.649995 -1.0625,2.5 -2.328165,4.491785 -7.23191,9.0625 -16.28125,9.0625 -4.97379,0 -8.70162,-1.40748 -11.4375,-3.40625 l 0,1.96875 a 1.4485941,1.4485941 0 0 1 -1.4375,1.4375 l -4.28125,0 A 1.4485941,1.4485941 0 0 1 29.375,99.65625 l 0,3.84375 a 1.4485941,1.4485941 0 0 0 1.46875,1.4375 l 4.28125,0 A 1.4485941,1.4485941 0 0 0 36.5625,103.5 l 0,-1.96875 c 2.73588,1.99877 6.46371,3.40625 11.4375,3.40625 9.04934,0 13.953085,-4.57072 16.28125,-9.0625 1.24237,-2.396934 1.824754,-4.760014 2.09375,-6.46875 L 65.34375,89.375 z m -20.1875,1.90625 a 1.4485941,1.4485941 0 0 1 -1.4375,1.34375 l -1.59375,0 c 0.852674,0.443564 1.857498,0.807006 3.03125,1.03125 l 0,-2.375 z"
         style="opacity:0.75;color:#000000;fill:#ffffff;fill-opacity:1;fill-rule:evenodd;stroke:none;stroke-width:1px;marker:none;visibility:visible;display:inline;overflow:visible;enable-background:accumulate" />
      <path
         inkscape:connector-curvature="0"
         id="path3106"
         d="m 48,64.9375 c -9.048492,0 -13.952633,4.578026 -16.28125,9.0625 -1.227159,2.363276 -1.820518,4.677731 -2.09375,6.375 l 1.0625,0 C 30.971725,79.599786 31.2984,78.809514 31.71875,78 34.047367,73.515526 38.951508,68.9375 48,68.9375 c 4.970097,-10e-7 8.700182,1.384556 11.4375,3.375 l 0,-1.9375 a 1.4485941,1.4485941 0 0 1 1.4375,-1.4375 l 4.28125,0 a 1.4485941,1.4485941 0 0 1 1.46875,1.28125 l 0,-3.84375 a 1.4485941,1.4485941 0 0 0 -1.46875,-1.4375 l -4.28125,0 a 1.4485941,1.4485941 0 0 0 -1.4375,1.4375 l 0,1.9375 C 56.700182,66.322056 52.970097,64.937499 48,64.9375 z m 2.84375,11.3125 0,2.3125 a 1.4485941,1.4485941 0 0 1 1.4375,-1.34375 l 1.5625,0 c -0.843205,-0.42931 -1.843422,-0.749557 -3,-0.96875 z m 8.25,9.03125 c -0.208285,0.943501 -0.511733,2.065233 -1.09375,3.1875 -1.4305,2.758344 -4.02867,5.4375 -10,5.4375 -1.067302,0 -1.994988,-0.08785 -2.84375,-0.25 l 0,1.53125 a 1.4485941,1.4485941 0 0 1 -1.4375,1.4375 l -1.59375,0 c 1.469258,0.764314 3.331727,1.28125 5.875,1.28125 5.97133,0 8.5695,-2.679156 10,-5.4375 0.582017,-1.122267 0.885465,-2.243999 1.09375,-3.1875 l 6.25,0.09375 c 0.527833,-1.481073 0.857646,-2.865969 1.03125,-3.96875 l -7.28125,-0.125 z M 30.6875,85.59375 A 1.4485941,1.4485941 0 0 0 29.375,87.0625 l 0,3.84375 a 1.4485941,1.4485941 0 0 1 1.46875,-1.3125 l 4.28125,0 8.59375,0 a 1.4485941,1.4485941 0 0 1 1.4375,1.3125 l 0,-3.84375 a 1.4485941,1.4485941 0 0 0 -1.4375,-1.46875 l -8.59375,0 -4.28125,0 a 1.4485941,1.4485941 0 0 0 -0.15625,0 z"
         style="color:#000000;fill:#000000;fill-opacity:1;fill-rule:evenodd;stroke:none;stroke-width:1px;marker:none;visibility:visible;display:inline;overflow:visible;enable-background:accumulate;opacity:0.5" />
    </g>
  </g>
</svg>
