<?xml version="1.0" encoding="UTF-8" standalone="no"?>
<!-- Created with Inkscape (http://www.inkscape.org/) -->

<svg
   xmlns:dc="http://purl.org/dc/elements/1.1/"
   xmlns:cc="http://creativecommons.org/ns#"
   xmlns:rdf="http://www.w3.org/1999/02/22-rdf-syntax-ns#"
   xmlns:svg="http://www.w3.org/2000/svg"
   xmlns="http://www.w3.org/2000/svg"
   xmlns:xlink="http://www.w3.org/1999/xlink"
   xmlns:sodipodi="http://sodipodi.sourceforge.net/DTD/sodipodi-0.dtd"
   xmlns:inkscape="http://www.inkscape.org/namespaces/inkscape"
   width="96"
   height="96"
   id="svg3989"
   version="1.1"
   inkscape:version="0.48.3.1 r9886"
   sodipodi:docname="archive-extract.svg">
  <defs
     id="defs3991">
    <linearGradient
       id="linearGradient3965">
      <stop
         style="stop-color:#dfff01;stop-opacity:1;"
         offset="0"
         id="stop3967" />
      <stop
         style="stop-color:#7fbf41;stop-opacity:1;"
         offset="1"
         id="stop3971" />
    </linearGradient>
    <filter
       color-interpolation-filters="sRGB"
       inkscape:collect="always"
       id="filter3533"
       x="-0.054145049"
       width="1.1082901"
       y="-0.33451256"
       height="1.6690251">
      <feGaussianBlur
         inkscape:collect="always"
         stdDeviation="2.5436893"
         id="feGaussianBlur3535" />
    </filter>
    <filter
       color-interpolation-filters="sRGB"
       inkscape:collect="always"
       id="filter3410"
       x="-0.016920328"
       width="1.0338407"
       y="-0.10453518"
       height="1.2090704">
      <feGaussianBlur
         inkscape:collect="always"
         stdDeviation="0.79490291"
         id="feGaussianBlur3412" />
    </filter>
    <radialGradient
       inkscape:collect="always"
       xlink:href="#XMLID_15_"
       id="radialGradient3361"
       gradientUnits="userSpaceOnUse"
       cx="7.5"
       cy="8.3301001"
       r="126.4133" />
    <radialGradient
       gradientUnits="userSpaceOnUse"
       r="126.4133"
       cy="8.3301001"
       cx="7.5"
       id="XMLID_15_">
      <stop
         id="stop4"
         style="stop-color:#DBC298"
         offset="0.2722" />
      <stop
         id="stop6"
         style="stop-color:#C7B08A"
         offset="0.4545" />
      <stop
         id="stop8"
         style="stop-color:#b99c6f;stop-opacity:1;"
         offset="0.71829998" />
      <stop
         id="stop10"
         style="stop-color:#b09469;stop-opacity:1;"
         offset="0.88169998" />
      <stop
         id="stop12"
         style="stop-color:#a48a5f;stop-opacity:1;"
         offset="1" />
    </radialGradient>
    <radialGradient
       inkscape:collect="always"
       xlink:href="#XMLID_15_"
       id="radialGradient3363"
       gradientUnits="userSpaceOnUse"
       gradientTransform="matrix(-1.1589375,0,0,1.1589375,124.51974,8.0154104)"
       cx="27.848034"
       cy="8.6778336"
       fx="27.848034"
       fy="8.6778336"
       r="126.4133" />
    <linearGradient
       inkscape:collect="always"
       xlink:href="#XMLID_17_"
       id="linearGradient3365"
       gradientUnits="userSpaceOnUse"
       x1="0.25"
       y1="13.2949"
       x2="104.25"
       y2="13.2949" />
    <linearGradient
       y2="13.2949"
       x2="104.25"
       y1="13.2949"
       x1="0.25"
       gradientUnits="userSpaceOnUse"
       id="XMLID_17_">
      <stop
         id="stop28-9"
         style="stop-color:#8F6B32"
         offset="0" />
      <stop
         id="stop30-6"
         style="stop-color:#000000"
         offset="0.5" />
      <stop
         id="stop32-4"
         style="stop-color:#8F6B32"
         offset="1" />
    </linearGradient>
    <linearGradient
       inkscape:collect="always"
       xlink:href="#XMLID_18_"
       id="linearGradient3367"
       gradientUnits="userSpaceOnUse"
       x1="91.572304"
       y1="4.5991001"
       x2="63.635544"
       y2="22.620584" />
    <linearGradient
       y2="21.1523"
       x2="62.901402"
       y1="4.5991001"
       x1="91.572304"
       gradientUnits="userSpaceOnUse"
       id="XMLID_18_">
      <stop
         id="stop6378"
         style="stop-color:#AD9C80"
         offset="0.0118" />
      <stop
         id="stop41"
         style="stop-color:#FFE6BC"
         offset="0.0414" />
      <stop
         id="stop43"
         style="stop-color:#C4B091"
         offset="0.0828" />
      <stop
         id="stop45"
         style="stop-color:#DEC8A4"
         offset="0.1361" />
      <stop
         id="stop47"
         style="stop-color:#B39E7C"
         offset="1" />
    </linearGradient>
    <linearGradient
       inkscape:collect="always"
       xlink:href="#XMLID_20_"
       id="linearGradient3369"
       gradientUnits="userSpaceOnUse"
       x1="12.0713"
       y1="4.1034999"
       x2="49.135216"
       y2="27.573669" />
    <linearGradient
       y2="26.3501"
       x2="50.6035"
       y1="4.1034999"
       x1="12.0713"
       gradientUnits="userSpaceOnUse"
       id="XMLID_20_">
      <stop
         id="stop59"
         style="stop-color:#AD9C80"
         offset="0.0118" />
      <stop
         id="stop61"
         style="stop-color:#FFE6BC"
         offset="0.0414" />
      <stop
         id="stop63"
         style="stop-color:#C4B091"
         offset="0.0828" />
      <stop
         id="stop65"
         style="stop-color:#DEC8A4"
         offset="0.1361" />
      <stop
         id="stop67"
         style="stop-color:#B39E7C"
         offset="1" />
    </linearGradient>
    <radialGradient
       inkscape:collect="always"
       xlink:href="#path59_1_-8"
       id="radialGradient3334"
       gradientUnits="userSpaceOnUse"
       gradientTransform="matrix(1.8479032,0,0,-1.8463153,-827.14968,-627.54977)"
       cx="427.83167"
       cy="-398.90292"
       fx="427.83167"
       fy="-398.90292"
       r="94.664803" />
    <radialGradient
       gradientUnits="userSpaceOnUse"
       gradientTransform="matrix(1,0,0,-1,-281.9995,-305)"
       r="94.664803"
       cy="-375.27051"
       cx="402.76709"
       id="path59_1_-8">
      <stop
         id="stop38-2"
         style="stop-color:#535557"
         offset="0" />
      <stop
         id="stop40-2"
         style="stop-color:#898A8C"
         offset="0.07095145" />
      <stop
         id="stop42-5"
         style="stop-color:#ECECEC"
         offset="0.203" />
      <stop
         id="stop44-6"
         style="stop-color:#FAFAFA"
         offset="0.2363" />
      <stop
         id="stop46-0"
         style="stop-color:#FFFFFF"
         offset="0.2722" />
      <stop
         id="stop48-1"
         style="stop-color:#FAFAFA"
         offset="0.5313" />
      <stop
         id="stop50-7"
         style="stop-color:#EBECEC"
         offset="0.8449" />
      <stop
         id="stop52-8"
         style="stop-color:#E1E2E3"
         offset="1" />
    </radialGradient>
    <filter
       id="filter5704-0"
       inkscape:collect="always"
       color-interpolation-filters="sRGB">
      <feGaussianBlur
         id="feGaussianBlur5706-6"
         stdDeviation="0.90323211"
         inkscape:collect="always" />
    </filter>
    <linearGradient
       inkscape:collect="always"
       xlink:href="#path101_1_-7"
       id="linearGradient3336"
       gradientUnits="userSpaceOnUse"
       gradientTransform="matrix(1.00086,0,0,-1,-462.16033,-287.04545)"
       x1="398.44479"
       y1="-369.5"
       x2="393.59644"
       y2="-364.65219" />
    <linearGradient
       gradientTransform="matrix(1,0,0,-1,-281.9995,-305)"
       y2="-363.99991"
       x2="392.9447"
       y1="-369.5"
       x1="398.44479"
       gradientUnits="userSpaceOnUse"
       id="path101_1_-7">
      <stop
         id="stop74-8"
         style="stop-color:#888A85"
         offset="0" />
      <stop
         id="stop4208-0"
         style="stop-color:#8C8E89"
         offset="0.0072" />
      <stop
         id="stop4210-1"
         style="stop-color:#ABACA9"
         offset="0.0673" />
      <stop
         id="stop80-0"
         style="stop-color:#C5C6C4"
         offset="0.1347" />
      <stop
         id="stop82-0"
         style="stop-color:#DBDBDA"
         offset="0.2115" />
      <stop
         id="stop84-5"
         style="stop-color:#EBEBEB"
         offset="0.3012" />
      <stop
         id="stop86-4"
         style="stop-color:#F7F7F6"
         offset="0.4122" />
      <stop
         id="stop88-5"
         style="stop-color:#FDFDFD"
         offset="0.5679" />
      <stop
         id="stop90-1"
         style="stop-color:#FFFFFF"
         offset="1" />
    </linearGradient>
    <radialGradient
       inkscape:collect="always"
       xlink:href="#path59_1_-8"
       id="radialGradient3356"
       gradientUnits="userSpaceOnUse"
       gradientTransform="matrix(1.8479032,0,0,-1.8463153,-827.14968,-627.54977)"
       cx="427.83167"
       cy="-398.90292"
       fx="427.83167"
       fy="-398.90292"
       r="94.664803" />
    <linearGradient
       inkscape:collect="always"
       xlink:href="#path101_1_-7"
       id="linearGradient3358"
       gradientUnits="userSpaceOnUse"
       gradientTransform="matrix(1.00086,0,0,-1,-462.16033,-287.04545)"
       x1="398.44479"
       y1="-369.5"
       x2="393.59644"
       y2="-364.65219" />
    <linearGradient
       inkscape:collect="always"
       xlink:href="#linearGradient3965"
       id="linearGradient4397"
       gradientUnits="userSpaceOnUse"
       gradientTransform="matrix(0.67053285,0,0,0.67053285,10.34438,-30.684899)"
       x1="63.998402"
       y1="2.0128229"
       x2="63.998402"
       y2="74.721313" />
  </defs>
  <sodipodi:namedview
     id="base"
     pagecolor="#ffffff"
     bordercolor="#666666"
     borderopacity="1.0"
     inkscape:pageopacity="0.0"
     inkscape:pageshadow="2"
     inkscape:zoom="4"
     inkscape:cx="48"
     inkscape:cy="48"
     inkscape:current-layer="layer1"
     showgrid="true"
     inkscape:document-units="px"
     inkscape:grid-bbox="true"
     inkscape:window-width="1012"
     inkscape:window-height="718"
     inkscape:window-x="5"
     inkscape:window-y="29"
     inkscape:window-maximized="0"
     fit-margin-top="0"
     fit-margin-left="0"
     fit-margin-right="0"
     fit-margin-bottom="0" />
  <metadata
     id="metadata3994">
    <rdf:RDF>
      <cc:Work
         rdf:about="">
        <dc:format>image/svg+xml</dc:format>
        <dc:type
           rdf:resource="http://purl.org/dc/dcmitype/StillImage" />
        <dc:title />
      </cc:Work>
    </rdf:RDF>
  </metadata>
  <g
     id="layer1"
     inkscape:label="Layer 1"
     inkscape:groupmode="layer"
     transform="translate(0,32)">
    <g
       id="g3360"
       transform="translate(12,4.0000003)">
      <g
         transform="matrix(0.68750002,0,0,0.68750002,88.000005,-37.92844)"
         id="g4496">
        <path
           id="path4494"
           d="m -116.36364,17.454546 1e-5,93.454544 51.667603,0 c 0.365314,0 0.710527,-0.14925 0.96875,-0.40625 l 28.411931,-28.380681 c 0.258221,-0.258 0.40625,-0.603749 0.40625,-0.96875 l 0,-63.698863 -81.454544,0 z"
           style="opacity:0.6;fill:#000000;fill-opacity:1;stroke:#000000;stroke-width:5.81818151;stroke-linejoin:round;stroke-miterlimit:4;stroke-opacity:1;stroke-dasharray:none"
           sodipodi:nodetypes="cccccccc"
           inkscape:connector-curvature="0" />
        <path
           sodipodi:nodetypes="cccccccc"
           style="fill:#ffffff;fill-opacity:1"
           d="m -116.36364,17.454546 1e-5,93.454544 51.667603,0 c 0.365314,0 0.710527,-0.14925 0.96875,-0.40625 l 28.411931,-28.380681 c 0.258221,-0.258 0.40625,-0.603749 0.40625,-0.96875 l 0,-63.698863 -81.454544,0 z"
           id="path4712"
           inkscape:connector-curvature="0" />
        <path
           id="path4419"
           d="m -114.71458,19.412808 1e-5,89.538022 51.059213,0 c 0.346487,0 0.673911,-0.14156 0.918826,-0.38532 l 25.793058,-24.308869 c 0.244914,-0.244704 0.385315,-0.572637 0.385315,-0.918826 l 0,-63.925007 -78.156422,0 z"
           style="fill:url(#radialGradient3334)"
           sodipodi:nodetypes="cccccccc"
           inkscape:connector-curvature="0" />
        <g
           id="g4488"
           transform="matrix(1.3181185,0,0,1.3181185,35.106144,-11.417429)">
          <path
             transform="matrix(1.0561473,0,0,1.0633114,28.78946,7.7537706)"
             id="path4924"
             d="m -99.99277,80.598 c 0,0 8.198044,-6.816 11.983298,-10.598 3.785253,-3.782 10.607115,-11.973 10.607115,-11.973 0,0 -8.023478,2.409045 -20.023478,2.409045 0,12 -2.566935,20.161955 -2.566935,20.161955 z"
             style="opacity:0.3;fill:#000000;fill-opacity:1;filter:url(#filter5704-0)"
             sodipodi:nodetypes="csccc"
             inkscape:connector-curvature="0" />
          <path
             sodipodi:nodetypes="csccc"
             style="fill:url(#linearGradient3336)"
             d="m -75.3564,93.052545 c 0,0 8.198044,-6.816 11.983298,-10.598 3.785253,-3.782 10.607115,-11.973 10.607115,-11.973 0,0 -7.597643,2.973 -19.597643,2.973 0,12 -2.99277,19.598 -2.99277,19.598 z"
             id="path4422"
             inkscape:connector-curvature="0" />
        </g>
      </g>
      <g
         id="g4508"
         transform="matrix(0.68750002,0,0,0.68750002,98.000005,-28.928438)">
        <path
           sodipodi:nodetypes="cccccccc"
           style="opacity:0.6;fill:#000000;fill-opacity:1;stroke:#000000;stroke-width:5.81818151;stroke-linejoin:round;stroke-miterlimit:4;stroke-opacity:1;stroke-dasharray:none"
           d="m -116.36364,17.454546 1e-5,93.454544 51.667603,0 c 0.365314,0 0.710527,-0.14925 0.96875,-0.40625 l 28.411931,-28.380681 c 0.258221,-0.258 0.40625,-0.603749 0.40625,-0.96875 l 0,-63.698863 -81.454544,0 z"
           id="path4510"
           inkscape:connector-curvature="0" />
        <path
           id="path4512"
           d="m -116.36364,17.454546 1e-5,93.454544 51.667603,0 c 0.365314,0 0.710527,-0.14925 0.96875,-0.40625 l 28.411931,-28.380681 c 0.258221,-0.258 0.40625,-0.603749 0.40625,-0.96875 l 0,-63.698863 -81.454544,0 z"
           style="fill:#ffffff;fill-opacity:1"
           sodipodi:nodetypes="cccccccc"
           inkscape:connector-curvature="0" />
        <path
           sodipodi:nodetypes="cccccccc"
           style="fill:url(#radialGradient3356)"
           d="m -114.71458,19.412808 1e-5,89.538022 51.059213,0 c 0.346487,0 0.673911,-0.14156 0.918826,-0.38532 l 25.793058,-24.308869 c 0.244914,-0.244704 0.385315,-0.572637 0.385315,-0.918826 l 0,-63.925007 -78.156422,0 z"
           id="path4514"
           inkscape:connector-curvature="0" />
        <g
           transform="matrix(1.3181185,0,0,1.3181185,35.106144,-11.417429)"
           id="g4516">
          <path
             sodipodi:nodetypes="csccc"
             style="opacity:0.3;fill:#000000;fill-opacity:1;filter:url(#filter5704-0)"
             d="m -99.99277,80.598 c 0,0 8.198044,-6.816 11.983298,-10.598 3.785253,-3.782 10.607115,-11.973 10.607115,-11.973 0,0 -8.023478,2.409045 -20.023478,2.409045 0,12 -2.566935,20.161955 -2.566935,20.161955 z"
             id="path4518"
             transform="matrix(1.0561473,0,0,1.0633114,28.78946,7.7537706)"
             inkscape:connector-curvature="0" />
          <path
             id="path4520"
             d="m -75.3564,93.052545 c 0,0 8.198044,-6.816 11.983298,-10.598 3.785253,-3.782 10.607115,-11.973 10.607115,-11.973 0,0 -7.597643,2.973 -19.597643,2.973 0,12 -2.99277,19.598 -2.99277,19.598 z"
             style="fill:url(#linearGradient3358)"
             sodipodi:nodetypes="csccc"
             inkscape:connector-curvature="0" />
        </g>
      </g>
    </g>
    <g
       transform="matrix(0.41696536,0,0,0.41696536,9.1581681,9.2827868)"
       id="g3991">
      <path
         inkscape:connector-curvature="0"
         style="fill:#5a492b;fill-opacity:1;fill-rule:evenodd;stroke:#000000;stroke-width:0.5px;stroke-linecap:butt;stroke-linejoin:miter;stroke-opacity:1;filter:url(#filter3533)"
         d="M 9.25,119.65 121,119.4 l -7.25,-17 -94.75,0 -9.75,17.25 z"
         id="path3431"
         transform="matrix(0.9980065,0,0,0.9980065,-0.870425,0.6770145)" />
      <path
         inkscape:connector-curvature="0"
         transform="matrix(0.9980065,0,0,0.9980065,-0.870425,0.6770145)"
         id="path3388"
         d="M 9.25,119.65 121,119.4 l -7.25,-17 -94.75,0 -9.75,17.25 z"
         style="fill:#000000;fill-opacity:0;fill-rule:evenodd;stroke:#000000;stroke-width:0.5px;stroke-linecap:butt;stroke-linejoin:miter;stroke-opacity:1;filter:url(#filter3410)" />
      <polygon
         transform="matrix(1.1589375,0,0,1.1589375,3.5903842,8.0029358)"
         style="fill:url(#radialGradient3361)"
         id="polygon14"
         points="104.25,24.795 104.25,24.795 100.25,96.58 4.25,96.58 0.25,24.795 " />
      <path
         inkscape:connector-curvature="0"
         style="fill:url(#radialGradient3363)"
         d="m 4.6975479,36.736238 4.6469686,83.208792 -0.9980068,0 -4.6469684,-83.208792 0.9980066,0 z"
         id="path3425" />
      <polygon
         transform="matrix(1.1589375,0,0,1.1589375,3.5903842,8.0029358)"
         style="fill:url(#linearGradient3365)"
         id="polygon34"
         points="104.25,24.795 52.25,25.795 52.25,25.795 0.25,24.795 16.25,0.795 88.25,0.795 " />
      <polygon
         transform="matrix(1.1589375,0,0,1.1589375,3.5903842,8.0029358)"
         points="88.096,0.58 104.25,24.58 52.25,23.5 52.25,0 52.25,0 "
         id="polygon49"
         style="fill:url(#linearGradient3367)" />
      <polygon
         transform="matrix(1.1589375,0,0,1.1589375,3.5903842,8.0029358)"
         style="fill:url(#linearGradient3369)"
         id="polygon69"
         points="52.25,23.5 52.25,23.5 0.25,24.58 16.406,0.58 52.25,0 " />
      <path
         inkscape:connector-curvature="0"
         id="polygon3414"
         d="m 123.37515,36.736238 -4.64697,83.208792 0.99801,0 4.64697,-83.208792 -0.99801,0 z"
         style="fill:#7d6947;fill-opacity:0.53475934" />
      <path
         inkscape:connector-curvature="0"
         sodipodi:nodetypes="cccccccc"
         id="path2565"
         d="m 3.8800139,36.73858 60.4085651,1.240786 60.114971,-1.248219 0,0.212707 0,0 L 64.0047,38.391008 3.8622884,36.93356 3.8800139,36.73858 z"
         style="fill:#ffffff;fill-opacity:0.82352941;fill-rule:evenodd;stroke:none" />
    </g>
    <path
       inkscape:connector-curvature="0"
       sodipodi:nodetypes="ccsccccccccccccsccc"
       id="path3963"
       d="m 53.049339,-28.147647 23.468145,22.0876625 c 0.05641,0.053227 0.08837,0.127359 0.08837,0.2049142 0,0.077557 -0.03196,0.1516838 -0.08837,0.2049158 l -5.521918,5.52191475 c -0.100102,0.09682425 -0.255927,0.10599075 -0.366691,0.02157 L 57.277057,-10.783811 l 0,29.788147 c -7.39e-4,0.154557 -0.125852,0.279669 -0.28041,0.280408 l -8.282874,0 c -0.154558,-7.39e-4 -0.279669,-0.125851 -0.280409,-0.280408 l 0,-29.788148 -13.35182,10.67714225 c -0.110763,0.08442075 -0.266587,0.07525425 -0.366689,-0.02157 L 29.192939,-5.6501545 c -0.0564,-0.053235 -0.08837,-0.127359 -0.08837,-0.2049158 0,-0.077555 0.03197,-0.1516837 0.08837,-0.2049142 L 52.66108,-28.147647 c 0.112354,-0.158601 0.270566,0 0.388259,0 z"
       style="opacity:0.75;fill:none;stroke:#000000;stroke-width:4;stroke-miterlimit:4;stroke-dasharray:none" />
    <path
       style="fill:url(#linearGradient4397);fill-opacity:1;stroke:none"
       d="m 53.049339,-28.147647 23.468145,22.0876625 c 0.05641,0.053227 0.08837,0.127359 0.08837,0.2049142 0,0.077557 -0.03196,0.1516838 -0.08837,0.2049158 l -5.521918,5.52191475 c -0.100102,0.09682425 -0.255927,0.10599075 -0.366691,0.02157 L 57.277057,-10.783811 l 0,29.788147 c -7.39e-4,0.154557 -0.125852,0.279669 -0.28041,0.280408 l -8.282874,0 c -0.154558,-7.39e-4 -0.279669,-0.125851 -0.280409,-0.280408 l 0,-29.788148 -13.35182,10.67714225 c -0.110763,0.08442075 -0.266587,0.07525425 -0.366689,-0.02157 L 29.192939,-5.6501545 c -0.0564,-0.053235 -0.08837,-0.127359 -0.08837,-0.2049158 0,-0.077555 0.03197,-0.1516837 0.08837,-0.2049142 L 52.66108,-28.147647 c 0.112354,-0.158601 0.270566,0 0.388259,0 z"
       id="path2842"
       sodipodi:nodetypes="ccsccccccccccccsccc"
       inkscape:connector-curvature="0" />
    <path
       style="fill:#ffffff;fill-opacity:1;stroke:none"
       d="m 52.753091,-28.214174 c -0.03247,0.0074 -0.07536,0.03794 -0.103451,0.07759 L 29.19226,-6.0499232 c -0.0564,0.053228 -0.07759,0.1293457 -0.07759,0.2069017 0,0.077556 0.02119,0.1278052 0.07759,0.1810388 l 1.50003,0.9586282 21.95735,-20.6642195 c 0.112354,-0.158601 0.270246,0 0.38794,0 l 21.983214,20.6642195 1.500031,-0.9586282 c 0.0564,-0.053235 0.07758,-0.1034828 0.07758,-0.1810388 0,-0.077556 -0.02119,-0.1536712 -0.07758,-0.2069017 L 53.03758,-28.136586 c -0.08827,0 -0.187076,-0.09989 -0.284489,-0.07759 z"
       id="path2861"
       sodipodi:nodetypes="cccsccccccsccc"
       inkscape:connector-curvature="0" />
  </g>
</svg>
