<?xml version="1.0" encoding="UTF-8" standalone="no"?>
<!-- Created with Inkscape (http://www.inkscape.org/) -->

<svg
   xmlns:dc="http://purl.org/dc/elements/1.1/"
   xmlns:cc="http://creativecommons.org/ns#"
   xmlns:rdf="http://www.w3.org/1999/02/22-rdf-syntax-ns#"
   xmlns:svg="http://www.w3.org/2000/svg"
   xmlns="http://www.w3.org/2000/svg"
   xmlns:xlink="http://www.w3.org/1999/xlink"
   xmlns:sodipodi="http://sodipodi.sourceforge.net/DTD/sodipodi-0.dtd"
   xmlns:inkscape="http://www.inkscape.org/namespaces/inkscape"
   version="1.1"
   inkscape:output_extension="org.inkscape.output.svg.inkscape"
   sodipodi:docname="document-open-recent.svg"
   inkscape:version="0.48.3.1 r9886"
   sodipodi:version="0.32"
   id="svg7217"
   height="96"
   width="96"
   inkscape:export-filename="folder-recent.png"
   inkscape:export-xdpi="90"
   inkscape:export-ydpi="90">
  <defs
     id="defs7219">
    <linearGradient
       id="linearGradient3841">
      <stop
         style="stop-color:#ffffff;stop-opacity:0;"
         offset="0"
         id="stop3843" />
      <stop
         id="stop3849"
         offset="0.33000001"
         style="stop-color:#ffffff;stop-opacity:1;" />
      <stop
         style="stop-color:#ffffff;stop-opacity:1;"
         offset="0.67000002"
         id="stop3851" />
      <stop
         style="stop-color:#ffffff;stop-opacity:0;"
         offset="1"
         id="stop3845" />
    </linearGradient>
    <linearGradient
       id="linearGradient3803">
      <stop
         id="stop3805"
         offset="0"
         style="stop-color:#007e80;stop-opacity:1;" />
      <stop
         id="stop3807"
         offset="1"
         style="stop-color:#001e80;stop-opacity:1;" />
    </linearGradient>
    <linearGradient
       inkscape:collect="always"
       id="linearGradient4074">
      <stop
         style="stop-color:#4d4d4d;stop-opacity:1;"
         offset="0"
         id="stop4076" />
      <stop
         style="stop-color:#4d4d4d;stop-opacity:0;"
         offset="1"
         id="stop4078" />
    </linearGradient>
    <linearGradient
       id="linearGradient4064-7-3-5">
      <stop
         style="stop-color:#21fcff;stop-opacity:1;"
         offset="0"
         id="stop4066-4-1-7" />
      <stop
         style="stop-color:#013dff;stop-opacity:1;"
         offset="1"
         id="stop4068-8-1-3" />
    </linearGradient>
    <linearGradient
       id="linearGradient37935">
      <stop
         id="stop37937"
         style="stop-color:#929292;stop-opacity:1"
         offset="0" />
      <stop
         id="stop37939"
         style="stop-color:#4a4a4a;stop-opacity:1"
         offset="1" />
    </linearGradient>
    <linearGradient
       id="linearGradient5354">
      <stop
         id="stop5356"
         style="stop-color:#3f3f3f;stop-opacity:1"
         offset="0" />
      <stop
         id="stop5358"
         style="stop-color:#000000;stop-opacity:1"
         offset="1" />
    </linearGradient>
    <linearGradient
       id="linearGradient2145">
      <stop
         id="stop2147"
         style="stop-color:#fffffd;stop-opacity:1"
         offset="0" />
      <stop
         id="stop2149"
         style="stop-color:#cbcbc9;stop-opacity:1"
         offset="1" />
    </linearGradient>
    <radialGradient
       inkscape:collect="always"
       xlink:href="#linearGradient2145"
       id="radialGradient4022"
       gradientUnits="userSpaceOnUse"
       gradientTransform="matrix(2.1716566,0,0,2.1716566,12.710579,-36.724266)"
       cx="11.901996"
       cy="10.045444"
       fx="11.901996"
       fy="10.045444"
       r="29.292715" />
    <linearGradient
       inkscape:collect="always"
       xlink:href="#linearGradient37935"
       id="linearGradient4028"
       gradientUnits="userSpaceOnUse"
       gradientTransform="matrix(1.873057,0,0,1.8730566,3.0425705,-44.95934)"
       x1="28.771276"
       y1="12.91806"
       x2="28.771276"
       y2="45.347591" />
    <linearGradient
       inkscape:collect="always"
       xlink:href="#linearGradient5354"
       id="linearGradient4030"
       gradientUnits="userSpaceOnUse"
       gradientTransform="matrix(1.873057,0,0,1.8730566,3.0425705,-44.95934)"
       x1="19.176617"
       y1="13.479795"
       x2="19.176617"
       y2="45.358662" />
    <filter
       inkscape:collect="always"
       id="filter4068"
       x="-0.053458079"
       width="1.1069162"
       y="-0.34092134"
       height="1.6818427">
      <feGaussianBlur
         inkscape:collect="always"
         stdDeviation="1.7508557"
         id="feGaussianBlur4070" />
    </filter>
    <linearGradient
       inkscape:collect="always"
       xlink:href="#linearGradient3841"
       id="linearGradient3033"
       gradientUnits="userSpaceOnUse"
       gradientTransform="translate(0,-48)"
       x1="23.96875"
       y1="75.953125"
       x2="72.03125"
       y2="75.953125" />
    <linearGradient
       inkscape:collect="always"
       xlink:href="#linearGradient3841"
       id="linearGradient3036"
       gradientUnits="userSpaceOnUse"
       gradientTransform="translate(0,-48)"
       x1="20.4375"
       y1="15.765625"
       x2="75.5625"
       y2="15.765625" />
    <linearGradient
       inkscape:collect="always"
       xlink:href="#linearGradient4064-7-3-5"
       id="linearGradient3039"
       gradientUnits="userSpaceOnUse"
       gradientTransform="matrix(1.767767,1.767767,-1.767767,1.767767,-119.05398,-255.44232)"
       x1="109.31766"
       y1="14.817658"
       x2="129.68233"
       y2="35.182335" />
    <linearGradient
       inkscape:collect="always"
       xlink:href="#linearGradient3803"
       id="linearGradient3041"
       gradientUnits="userSpaceOnUse"
       x1="48"
       y1="-36.000004"
       x2="47.999989"
       y2="35.999989" />
    <radialGradient
       inkscape:collect="always"
       xlink:href="#linearGradient4074"
       id="radialGradient3044"
       gradientUnits="userSpaceOnUse"
       gradientTransform="scale(1,1.0127646)"
       cx="48.554563"
       cy="1.25e-07"
       fx="48.554563"
       fy="1.25e-07"
       r="43.445436" />
  </defs>
  <sodipodi:namedview
     id="base"
     pagecolor="#ffffff"
     bordercolor="#666666"
     borderopacity="1.0"
     inkscape:pageopacity="0.0"
     inkscape:pageshadow="2"
     inkscape:zoom="4"
     inkscape:cx="48"
     inkscape:cy="56.625"
     inkscape:current-layer="layer1"
     showgrid="true"
     inkscape:grid-bbox="true"
     inkscape:document-units="px"
     inkscape:window-width="1026"
     inkscape:window-height="728"
     inkscape:window-x="17"
     inkscape:window-y="24"
     inkscape:window-maximized="0"
     inkscape:object-paths="false"
     inkscape:snap-intersection-paths="true"
     inkscape:object-nodes="true"
     inkscape:snap-smooth-nodes="false"
     inkscape:snap-midpoints="false"
     inkscape:snap-object-midpoints="true"
     inkscape:snap-nodes="true"
     inkscape:snap-global="false"
     fit-margin-top="0"
     fit-margin-left="0"
     fit-margin-right="0"
     fit-margin-bottom="0" />
  <metadata
     id="metadata7222">
    <rdf:RDF>
      <cc:Work
         rdf:about="">
        <dc:format>image/svg+xml</dc:format>
        <dc:type
           rdf:resource="http://purl.org/dc/dcmitype/StillImage" />
        <dc:title />
      </cc:Work>
    </rdf:RDF>
  </metadata>
  <g
     id="layer1"
     inkscape:label="Layer 1"
     inkscape:groupmode="layer"
     transform="translate(0,48)">
    <path
       sodipodi:type="arc"
       style="opacity:0.25000000000000000;color:#000000;fill:#000000;fill-opacity:1;fill-rule:evenodd;stroke:none;stroke-width:1px;marker:none;visibility:visible;display:inline;overflow:visible;enable-background:accumulate;filter:url(#filter4068)"
       id="path3873"
       sodipodi:cx="49.534885"
       sodipodi:cy="86.581398"
       sodipodi:rx="39.302326"
       sodipodi:ry="6.1627908"
       d="m 88.837212,86.581398 c 0,3.403615 -17.596251,6.162791 -39.302327,6.162791 -21.706075,0 -39.302326,-2.759176 -39.302326,-6.162791 0,-3.403615 17.596251,-6.162791 39.302326,-6.162791 21.706076,0 39.302327,2.759176 39.302327,6.162791 z"
       transform="matrix(0.81420117,0,0,1.2981132,7.6686383,-78.392456)" />
    <g
       id="g3899">
      <path
         d="m 47.970073,-38.095336 c -21.025021,0 -38.065408,17.040384 -38.065408,38.06541294 0,21.02502306 17.040387,38.12526206 38.065408,38.12525806 21.02502,0 38.125281,-17.100235 38.125262,-38.12525806 0,-21.02502894 -17.100242,-38.06541294 -38.125262,-38.06541294 z"
         id="path2555"
         style="fill:url(#linearGradient4028);fill-opacity:1;stroke:url(#linearGradient4030);stroke-width:3.80932902999999978;stroke-linecap:round;stroke-linejoin:round;stroke-miterlimit:4;stroke-opacity:1;stroke-dasharray:none;stroke-dashoffset:0;opacity:0.1"
         inkscape:connector-curvature="0" />
      <path
         d="m 80.380947,7.5e-7 a 32.380951,32.380951 0 0 1 -64.761899,0 32.380951,32.380951 0 1 1 64.761899,0 z"
         id="path35549"
         style="fill:url(#radialGradient4022);fill-opacity:1;fill-rule:evenodd;stroke:none"
         inkscape:connector-curvature="0" />
      <path
         d="m 47.999997,-19.047618 c 0,-5.305418 0,-5.977186 0,-5.977186"
         id="path2308"
         style="fill:#1f1f1f;fill-opacity:1;fill-rule:evenodd;stroke:#727272;stroke-width:3.80952406;stroke-linecap:round;stroke-linejoin:miter;stroke-miterlimit:4;stroke-opacity:1;stroke-dasharray:none"
         inkscape:connector-curvature="0" />
      <path
         d="M 46.836298,0.8146864 67.414293,-19.762846"
         id="path2312"
         style="fill:none;stroke:#000000;stroke-width:1.90476179;stroke-linecap:round;stroke-linejoin:miter;stroke-miterlimit:4;stroke-opacity:1;stroke-dasharray:none"
         inkscape:connector-curvature="0" />
      <path
         d="M 50.177372,0.96654543 36.4334,-12.777117"
         id="path2314"
         style="fill:none;stroke:#000000;stroke-width:1.90476179;stroke-linecap:round;stroke-linejoin:miter;stroke-miterlimit:4;stroke-opacity:1;stroke-dasharray:none"
         inkscape:connector-curvature="0" />
      <path
         d="M 47.291902,-0.24836113 70.72499,-6.5270981"
         id="path2316"
         style="fill:#ff0000;fill-rule:evenodd;stroke:#ff0000;stroke-width:1.90476179;stroke-linecap:round;stroke-linejoin:miter;stroke-miterlimit:4;stroke-opacity:1;stroke-dasharray:none"
         inkscape:connector-curvature="0" />
      <path
         d="m 47.999997,25.84574 c 0,-5.305421 0,-5.977188 0,-5.977188"
         id="path5368"
         style="fill:#121212;fill-opacity:1;fill-rule:evenodd;stroke:#121212;stroke-width:3.80952406;stroke-linecap:round;stroke-linejoin:miter;stroke-miterlimit:4;stroke-opacity:1;stroke-dasharray:none"
         inkscape:connector-curvature="0" />
      <path
         d="m 67.047615,7.5e-7 c 5.30542,0 5.977192,0 5.977192,0"
         id="path5370"
         style="fill:#1f1f1f;fill-opacity:1;fill-rule:evenodd;stroke:#1f1f1f;stroke-width:3.80952406;stroke-linecap:round;stroke-linejoin:miter;stroke-miterlimit:4;stroke-opacity:1;stroke-dasharray:none"
         inkscape:connector-curvature="0" />
      <path
         d="m 22.221466,7.5e-7 c 5.186119,0 5.842781,0 5.842781,0"
         id="path5372"
         style="fill:#1f1f1f;fill-opacity:1;fill-rule:evenodd;stroke:#5f5f5f;stroke-width:3.80952406;stroke-linecap:round;stroke-linejoin:miter;stroke-miterlimit:4;stroke-opacity:1;stroke-dasharray:none"
         inkscape:connector-curvature="0" />
      <path
         inkscape:connector-curvature="0"
         style="fill:none;fill-opacity:1;fill-rule:evenodd;stroke:#808080;stroke-width:2;stroke-miterlimit:4;stroke-dasharray:none"
         id="path4036"
         d="m 78.499999,0.00956556 a 30.5,30.5 0 0 1 -60.999997,0 30.5,30.5 0 1 1 60.999997,0 z" />
    </g>
    <path
       inkscape:transform-center-x="-0.55456385"
       sodipodi:nodetypes="scccccssscsccsss"
       inkscape:connector-curvature="0"
       id="path4072"
       d="m 76.28427,-28.284271 c -15.620972,-15.620972 -40.94757,-15.620972 -56.568541,0 l -8.485282,-8.485281 -2.1213205,26.162951 27.5771645,-0.707107 -9.899496,-9.899495 c 11.71573,-11.71573 30.71068,-11.715728 42.426407,-1e-6 11.715727,11.7157273 11.71573,30.7106773 0,42.426407 -11.715727,11.715727 -30.71068,11.715727 -42.426407,0 C 22.92286,17.349268 20.368041,12.659213 19.052816,7.7339808 18.338103,5.0666496 15.532963,3.4837345 12.865631,4.1984469 10.198301,4.913158 8.615385,7.7183 9.3300974,10.385631 c 0.075943,0.283409 0.2122869,0.515919 0.3314556,0.773398 1.808561,6.264252 5.117944,12.189012 10.054175,17.125243 15.620971,15.620971 40.94757,15.620971 56.568542,0 15.620972,-15.620972 15.620972,-40.947571 0,-56.568543 z"
       style="color:#000000;fill:none;stroke:url(#radialGradient3044);stroke-width:6;stroke-linejoin:miter;stroke-miterlimit:4;stroke-dasharray:none;marker:none;visibility:visible;display:inline;overflow:visible;enable-background:accumulate" />
    <path
       inkscape:transform-center-x="-0.55456385"
       sodipodi:nodetypes="scccccssscsccsss"
       inkscape:connector-curvature="0"
       id="path3814"
       d="m 76.28427,-28.284271 c -15.620972,-15.620972 -40.94757,-15.620972 -56.568541,0 l -8.485282,-8.485281 -2.1213205,26.162951 27.5771645,-0.707107 -9.899496,-9.899495 c 11.71573,-11.71573 30.71068,-11.715728 42.426407,-1e-6 11.715727,11.7157273 11.71573,30.7106773 0,42.426407 -11.715727,11.715727 -30.71068,11.715727 -42.426407,0 C 22.92286,17.349268 20.368041,12.659213 19.052816,7.7339808 18.338103,5.0666496 15.532963,3.4837345 12.865631,4.1984469 10.198301,4.913158 8.615385,7.7183 9.3300974,10.385631 c 0.075943,0.283409 0.2122869,0.515919 0.3314556,0.773398 1.808561,6.264252 5.117944,12.189012 10.054175,17.125243 15.620971,15.620971 40.94757,15.620971 56.568542,0 15.620972,-15.620972 15.620972,-40.947571 0,-56.568543 z"
       style="color:#000000;fill:none;fill-opacity:1;fill-rule:evenodd;stroke:url(#linearGradient3041);stroke-width:4;stroke-linejoin:miter;marker:none;visibility:visible;display:inline;overflow:visible;enable-background:accumulate;stroke-miterlimit:4;stroke-dasharray:none;opacity:0.5" />
    <path
       style="color:#000000;fill:url(#linearGradient3039);fill-opacity:1;fill-rule:evenodd;stroke:url(#linearGradient3041);stroke-width:2;stroke-linejoin:miter;marker:none;visibility:visible;display:inline;overflow:visible;enable-background:accumulate"
       d="m 76.28427,-28.284271 c -15.620972,-15.620972 -40.94757,-15.620972 -56.568541,0 l -8.485282,-8.485281 -2.1213205,26.162951 27.5771645,-0.707107 -9.899496,-9.899495 c 11.71573,-11.71573 30.71068,-11.715728 42.426407,-1e-6 11.715727,11.7157273 11.71573,30.7106773 0,42.426407 -11.715727,11.715727 -30.71068,11.715727 -42.426407,0 C 22.92286,17.349268 20.368041,12.659213 19.052816,7.7339808 18.338103,5.0666496 15.532963,3.4837345 12.865631,4.1984469 10.198301,4.913158 8.615385,7.7183 9.3300974,10.385631 c 0.075943,0.283409 0.2122869,0.515919 0.3314556,0.773398 1.808561,6.264252 5.117944,12.189012 10.054175,17.125243 15.620971,15.620971 40.94757,15.620971 56.568542,0 15.620972,-15.620972 15.620972,-40.947571 0,-56.568543 z"
       id="path3002"
       inkscape:connector-curvature="0"
       sodipodi:nodetypes="scccccssscsccsss"
       inkscape:transform-center-x="-0.55456385" />
    <path
       style="opacity:0.9;color:#000000;fill:url(#linearGradient3036);fill-opacity:1;fill-rule:evenodd;stroke:none;stroke-width:1px;marker:none;visibility:visible;display:inline;overflow:visible;enable-background:accumulate"
       d="m 48,-39 c -10.769552,0 -20.504888,4.379888 -27.5625,11.4375 l 2.09375,2.09375 C 29.045969,-31.983469 38.058875,-36 48,-36 c 9.941125,0 18.954031,4.016531 25.46875,10.53125 L 75.5625,-27.5625 C 68.504888,-34.620112 58.769553,-39 48,-39 z"
       id="path3809"
       inkscape:connector-curvature="0" />
    <path
       style="opacity:0.75;color:#000000;fill:url(#linearGradient3033);fill-opacity:1;fill-rule:evenodd;stroke:none;stroke-width:1px;marker:none;visibility:visible;display:inline;overflow:visible;enable-background:accumulate"
       d="m 26.09375,21.90625 -2.125,2.125 C 30.12154,30.18404 38.611159,34 48,34 c 9.388841,0 17.87846,-3.81596 24.03125,-9.96875 l -2.125,-2.125 C 64.296353,27.516147 56.560414,31 48,31 39.439587,31 31.703647,27.516147 26.09375,21.90625 z"
       id="path3827"
       inkscape:connector-curvature="0" />
  </g>
</svg>
