<?xml version="1.0" encoding="UTF-8" standalone="no"?>
<!-- Created with Inkscape (http://www.inkscape.org/) -->

<svg
   xmlns:dc="http://purl.org/dc/elements/1.1/"
   xmlns:cc="http://creativecommons.org/ns#"
   xmlns:rdf="http://www.w3.org/1999/02/22-rdf-syntax-ns#"
   xmlns:svg="http://www.w3.org/2000/svg"
   xmlns="http://www.w3.org/2000/svg"
   xmlns:xlink="http://www.w3.org/1999/xlink"
   xmlns:sodipodi="http://sodipodi.sourceforge.net/DTD/sodipodi-0.dtd"
   xmlns:inkscape="http://www.inkscape.org/namespaces/inkscape"
   width="96"
   height="96"
   id="svg3408"
   sodipodi:version="0.32"
   inkscape:version="0.48.3.1 r9886"
   version="1.0"
   sodipodi:docname="edit-find.svg"
   inkscape:output_extension="org.inkscape.output.svgz.inkscape"
   inkscape:export-filename="/home/pinheiro/pics/oxygen-icons/scalable/actions/small/16x16/page-zoom.png"
   inkscape:export-xdpi="90"
   inkscape:export-ydpi="90">
  <defs
     id="defs3410">
    <linearGradient
       id="XMLID_9_-6"
       gradientUnits="userSpaceOnUse"
       x1="94.343803"
       y1="102.3447"
       x2="86.535599"
       y2="94.536598">
      <stop
         offset="0"
         style="stop-color:#5c5c5c;stop-opacity:1;"
         id="stop62-5" />
      <stop
         id="stop7472-0"
         style="stop-color:#eff0ef;stop-opacity:1;"
         offset="0.31394675" />
      <stop
         id="stop7470-1"
         style="stop-color:#aaaba9;stop-opacity:1;"
         offset="0.72916669" />
      <stop
         offset="1"
         style="stop-color:#535551;stop-opacity:1;"
         id="stop64-5" />
    </linearGradient>
    <linearGradient
       inkscape:collect="always"
       id="linearGradient7492">
      <stop
         style="stop-color:#ffffff;stop-opacity:1;"
         offset="0"
         id="stop7494" />
      <stop
         style="stop-color:#ffffff;stop-opacity:0;"
         offset="1"
         id="stop7496" />
    </linearGradient>
    <linearGradient
       id="linearGradient7118">
      <stop
         style="stop-color:#d3fcff;stop-opacity:0;"
         offset="0"
         id="stop7120" />
      <stop
         id="stop7128"
         offset="0.55311084"
         style="stop-color:#baf5fc;stop-opacity:0.24705882;" />
      <stop
         id="stop7126"
         offset="0.75562102"
         style="stop-color:#83b5eb;stop-opacity:0.49803922;" />
      <stop
         style="stop-color:#537fc6;stop-opacity:0.78448278;"
         offset="1"
         id="stop7122" />
    </linearGradient>
    <linearGradient
       inkscape:collect="always"
       id="linearGradient7278">
      <stop
         style="stop-color:#000000;stop-opacity:1;"
         offset="0"
         id="stop7280" />
      <stop
         style="stop-color:#000000;stop-opacity:0;"
         offset="1"
         id="stop7282" />
    </linearGradient>
    <linearGradient
       inkscape:collect="always"
       id="linearGradient3436-3-0">
      <stop
         style="stop-color:#ffffff;stop-opacity:1;"
         offset="0"
         id="stop3438-5-9" />
      <stop
         style="stop-color:#ffffff;stop-opacity:0;"
         offset="1"
         id="stop3440-5-0" />
    </linearGradient>
    <linearGradient
       id="XMLID_10_-8"
       gradientUnits="userSpaceOnUse"
       x1="95"
       y1="103"
       x2="86.586502"
       y2="94.586502">
      <stop
         offset="0"
         style="stop-color:#FFFFFF"
         id="stop69-6" />
      <stop
         offset="1"
         style="stop-color:#80837d;stop-opacity:1;"
         id="stop71-5" />
    </linearGradient>
    <linearGradient
       id="linearGradient7041-1">
      <stop
         style="stop-color:#ffffff;stop-opacity:1;"
         offset="0"
         id="stop7043-4" />
      <stop
         id="stop7049-5"
         offset="0.19999996"
         style="stop-color:#ffffff;stop-opacity:0;" />
      <stop
         style="stop-color:#ffffff;stop-opacity:0;"
         offset="1"
         id="stop7045-1" />
    </linearGradient>
    <radialGradient
       inkscape:collect="always"
       xlink:href="#linearGradient7118"
       id="radialGradient5134"
       gradientUnits="userSpaceOnUse"
       gradientTransform="matrix(0.99150354,-0.13044703,0.1304408,0.9914561,-3.9361233,11.720628)"
       cx="87.5"
       cy="35.875004"
       fx="89.841835"
       fy="49.577999"
       r="19.872202" />
    <linearGradient
       inkscape:collect="always"
       xlink:href="#linearGradient3436-3-0"
       id="linearGradient5136"
       gradientUnits="userSpaceOnUse"
       gradientTransform="matrix(0.95034369,-0.16943305,0.17352068,0.97327114,-55.058785,3.4296081)"
       x1="101.5314"
       y1="18.620571"
       x2="101.5314"
       y2="58.619572" />
    <linearGradient
       inkscape:collect="always"
       xlink:href="#XMLID_9_-6"
       id="linearGradient5138"
       gradientUnits="userSpaceOnUse"
       gradientTransform="translate(29.963659,-135.6625)"
       x1="149.32961"
       y1="85.334404"
       x2="154.66281"
       y2="85.334404" />
    <linearGradient
       inkscape:collect="always"
       xlink:href="#XMLID_9_-6"
       id="linearGradient5140"
       gradientUnits="userSpaceOnUse"
       gradientTransform="matrix(1.9999981,0,0,6.9999995,-122.03227,-631.66929)"
       x1="149.32961"
       y1="85.334404"
       x2="154.66281"
       y2="85.334404" />
    <radialGradient
       inkscape:collect="always"
       xlink:href="#XMLID_9_-6"
       id="radialGradient5142"
       gradientUnits="userSpaceOnUse"
       gradientTransform="matrix(2.0000008,0,0,2.000001,-146.66311,-117.3337)"
       cx="146.66299"
       cy="120.00019"
       fx="146.66299"
       fy="120.00019"
       r="5.3332" />
    <linearGradient
       inkscape:collect="always"
       xlink:href="#linearGradient7492"
       id="linearGradient5144"
       gradientUnits="userSpaceOnUse"
       gradientTransform="translate(29.963659,-138.32913)"
       x1="147.116"
       y1="85.787384"
       x2="158.75883"
       y2="129.23904" />
    <radialGradient
       inkscape:collect="always"
       xlink:href="#linearGradient7278"
       id="radialGradient5146"
       gradientUnits="userSpaceOnUse"
       gradientTransform="matrix(1.6087026,0.17992558,-0.18009846,1.6087035,-237.79868,-92.845067)"
       cx="177.12991"
       cy="42.65752"
       fx="177.12991"
       fy="42.65752"
       r="32.512764" />
    <radialGradient
       inkscape:collect="always"
       xlink:href="#linearGradient3436-3-0"
       id="radialGradient5148"
       gradientUnits="userSpaceOnUse"
       gradientTransform="matrix(0.82881242,0,0,0.8288129,-106.91751,-24.491653)"
       cx="199.99719"
       cy="96.868515"
       fx="199.99719"
       fy="96.868515"
       r="32.512764" />
    <linearGradient
       inkscape:collect="always"
       xlink:href="#XMLID_10_-8"
       id="linearGradient5150"
       gradientUnits="userSpaceOnUse"
       gradientTransform="matrix(1.0143004,0,0,1.0138137,-140.55182,-38.303527)"
       x1="165.64815"
       y1="33.308235"
       x2="198.18205"
       y2="89.6586" />
    <radialGradient
       inkscape:collect="always"
       xlink:href="#linearGradient3436-3-0"
       id="radialGradient5152"
       gradientUnits="userSpaceOnUse"
       gradientTransform="matrix(1.0464591,0,0,1.0464597,-146.38313,-40.740826)"
       cx="177.12991"
       cy="42.65752"
       fx="177.12991"
       fy="42.65752"
       r="32.512764" />
    <linearGradient
       inkscape:collect="always"
       xlink:href="#linearGradient7041-1"
       id="linearGradient5154"
       gradientUnits="userSpaceOnUse"
       gradientTransform="matrix(1.0143004,0,0,1.0138137,-140.55182,-38.303527)"
       spreadMethod="reflect"
       x1="183.60056"
       y1="77.033615"
       x2="205.3282"
       y2="114.667" />
    <radialGradient
       inkscape:collect="always"
       xlink:href="#linearGradient3436-3-0"
       id="radialGradient5156"
       gradientUnits="userSpaceOnUse"
       gradientTransform="matrix(0.96716448,0,0,0.96716503,-132.00472,-34.820806)"
       cx="199.99719"
       cy="96.868515"
       fx="199.99719"
       fy="96.868515"
       r="32.512764" />
  </defs>
  <sodipodi:namedview
     id="base"
     pagecolor="#ffffff"
     bordercolor="#666666"
     borderopacity="1.0"
     inkscape:pageopacity="0.0"
     inkscape:pageshadow="2"
     inkscape:zoom="4"
     inkscape:cx="48"
     inkscape:cy="48"
     inkscape:document-units="px"
     inkscape:current-layer="svg3408"
     height="88px"
     width="88px"
     showborder="true"
     inkscape:showpageshadow="true"
     showgrid="false"
     inkscape:window-width="1026"
     inkscape:window-height="716"
     inkscape:window-x="0"
     inkscape:window-y="24"
     showguides="true"
     inkscape:guide-bbox="true"
     inkscape:object-paths="false"
     inkscape:object-nodes="false"
     objecttolerance="1"
     gridtolerance="18"
     borderlayer="true"
     inkscape:snap-global="true"
     inkscape:window-maximized="0"
     inkscape:snap-bbox="true"
     fit-margin-top="0"
     fit-margin-left="0"
     fit-margin-right="0"
     fit-margin-bottom="0">
    <inkscape:grid
       type="xygrid"
       id="grid2445"
       spacingx="1px"
       spacingy="1px"
       empspacing="8"
       visible="true"
       enabled="true"
       snapvisiblegridlinesonly="true"
       originx="0px"
       originy="0px" />
  </sodipodi:namedview>
  <metadata
     id="metadata3413">
    <rdf:RDF>
      <cc:Work
         rdf:about="">
        <dc:format>image/svg+xml</dc:format>
        <dc:type
           rdf:resource="http://purl.org/dc/dcmitype/StillImage" />
        <dc:title />
      </cc:Work>
    </rdf:RDF>
  </metadata>
  <g
     id="g3058">
    <path
       transform="translate(-45.276596,11.574468)"
       id="path5132"
       d="m 88.65625,-8.1875 c -18.774453,0 -34.03125,15.2332147 -34.03125,34 0,18.766787 15.255655,34.03125 34.03125,34.03125 7.335255,0 14.10104,-2.358708 19.65625,-6.3125 l 0.5,0.59375 -1.15625,0.96875 A 1.0001,1.0001 0 0 0 107.5625,56.5 L 126.875,79 c 2.13391,2.486423 5.90202,2.779023 8.40625,0.65625 2.45859,-2.084092 2.84004,-5.751646 0.8125,-8.25 A 1.0001,1.0001 0 0 0 136.0625,71.375 L 116.65625,48.75 A 1.0001,1.0001 0 0 0 115.25,48.65625 L 114.125,49.625 113.5,48.90625 c 5.64587,-6.07362 9.15625,-14.153925 9.15625,-23.09375 0,-18.7649892 -15.22552,-34 -34,-34 z m 0,5.875 c 15.58529,0 28.15625,12.548669 28.15625,28.125 C 116.8125,41.388802 104.2382,54 88.65625,54 73.074323,54 60.46875,41.386751 60.46875,25.8125 c 0,-15.57428 12.602233,-28.125 28.1875,-28.125 z"
       style="opacity:0.75;fill:#000000;fill-opacity:1;stroke:none" />
    <g
       transform="matrix(0.6820725,0,0,0.6820725,3.8205119,4.3428301)"
       style="fill:#808080"
       id="g3793">
      <path
         id="path3698"
         d="m 58.006604,0.04231921 c -26.733641,0 -48.4232349,21.67918779 -48.4232349,48.40000079 0,26.720814 21.6895939,48.400002 48.4232349,48.400002 26.73364,0 48.376766,-21.680175 48.376766,-48.400002 0,-26.719826 -21.643126,-48.40000079 -48.376766,-48.40000079 z m 0,5.66679479 c 23.638568,0 42.753716,19.105976 42.753716,42.733206 0,23.62723 -19.116218,42.779656 -42.753716,42.779656 -23.637498,0 -42.800191,-19.153502 -42.800191,-42.779656 0,-23.626153 19.161622,-42.733206 42.800191,-42.733206 z"
         style="fill:#808080;fill-opacity:1;stroke:none"
         inkscape:connector-curvature="0" />
      <path
         style="opacity:0.97101452;fill:#808080;fill-opacity:1;stroke:none"
         d="m 89.3125,78.5625 -5.5625,4.71875 5.84375,6.8125 -2.78125,2.375 28.3125,32.96875 c 2.61765,3.05006 7.21105,3.41503 10.28125,0.8125 3.01818,-2.55844 3.44271,-7.01406 0.96875,-10.0625 L 97.9375,83.03125 95.15625,85.40625 89.3125,78.5625 z"
         id="rect3766"
         inkscape:connector-curvature="0" />
    </g>
    <g
       id="g5214">
      <g
         id="g4934"
         style="opacity:0.75">
        <path
           transform="matrix(1.5018565,-0.04674504,0.04674504,1.5018565,-89.720043,-12.40491)"
           d="m 107.3722,35.875004 c 0,10.975114 -8.897086,19.872202 -19.8722,19.872202 -10.975114,0 -19.872202,-8.897088 -19.872202,-19.872202 0,-10.975114 8.897088,-19.872202 19.872202,-19.872202 10.975114,0 19.8722,8.897088 19.8722,19.872202 z"
           sodipodi:ry="19.872202"
           sodipodi:rx="19.872202"
           sodipodi:cy="35.875004"
           sodipodi:cx="87.5"
           id="path7116"
           style="fill:url(#radialGradient5134);fill-opacity:1;stroke:none"
           sodipodi:type="arc" />
        <path
           sodipodi:nodetypes="csssz"
           id="path7175"
           d="M 38.71605,10.01475 C 26.604458,12.174086 15.470752,24.348157 16.927859,32.521052 17.987627,38.465261 31.894273,38.808876 42.429788,36.930541 51.655921,35.285644 68.578042,30.387856 67.594064,24.86876 66.007683,15.97082 50.343013,7.9418236 38.71605,10.01475 z"
           style="fill:url(#linearGradient5136);fill-opacity:1;stroke:none"
           inkscape:connector-curvature="0" />
      </g>
      <g
         id="g7500"
         transform="matrix(0.07410267,-0.92557688,0.93135015,0.07328066,-33.652557,207.51919)">
        <rect
           transform="matrix(0.70710678,0.70710678,-0.70710678,0.70710678,0,0)"
           y="-54.244732"
           x="179.29326"
           height="6.5831962"
           width="5.3332"
           id="rect7460"
           style="opacity:0.97101452;fill:url(#linearGradient5138);fill-opacity:1;stroke:none" />
        <rect
           transform="matrix(0.70710678,0.70710678,-0.70710678,0.70710678,0,0)"
           style="fill:url(#linearGradient5140);fill-opacity:1;stroke:none"
           id="rect7474"
           width="10.666389"
           height="31.999203"
           x="176.62666"
           y="-47.66153" />
        <path
           transform="matrix(0.70710678,0.70710678,-0.70710678,0.70710678,119.10097,-76.725959)"
           sodipodi:end="3.1415927"
           sodipodi:start="0"
           d="m 157.3294,122.6668 c 0,2.94545 -2.38775,5.3332 -5.3332,5.3332 -2.94544,0 -5.3332,-2.38775 -5.3332,-5.3332 0,0 0,0 0,0 l 5.3332,0 z"
           sodipodi:ry="5.3332"
           sodipodi:rx="5.3332"
           sodipodi:cy="122.6668"
           sodipodi:cx="151.9962"
           id="path7480"
           style="fill:url(#radialGradient5142);fill-opacity:1;stroke:none"
           sodipodi:type="arc" />
        <rect
           transform="matrix(0.70710678,0.70710678,-0.70710678,0.70710678,0,0)"
           y="-47.66153"
           x="179.29326"
           height="31.999199"
           width="2.66658"
           id="rect7490"
           style="opacity:0.97101452;fill:url(#linearGradient5144);fill-opacity:1;stroke:none" />
      </g>
      <g
         id="g5042">
        <path
           id="path7276"
           d="m 43.383957,8.1549843 c -16.159637,0 -29.243241,13.0773227 -29.243241,29.2292107 0,16.151887 13.083604,29.229209 29.243241,29.229209 16.159638,0 29.214202,-13.076748 29.214202,-29.229209 0,-16.152462 -13.054564,-29.2292107 -29.214202,-29.2292107 z m 0,1.5093534 c 15.317051,0 27.733163,12.4101593 27.733163,27.7198573 0,15.309697 -12.415489,27.748882 -27.733163,27.748882 -15.317673,0 -27.762203,-12.438559 -27.762203,-27.748882 0,-15.310324 12.445152,-27.7198573 27.762203,-27.7198573 z"
           style="fill:url(#radialGradient5146);fill-opacity:1;stroke:none"
           inkscape:connector-curvature="0" />
        <path
           id="path7400"
           d="m 43.382447,10.409153 c -14.897878,0 -26.988205,12.084529 -26.988205,26.975256 0,14.890727 12.090327,26.975256 26.988205,26.975256 14.897878,0 26.962304,-12.085075 26.962304,-26.975256 0,-14.890182 -12.064426,-26.975256 -26.962304,-26.975256 z m 0,3.158331 c 13.176567,0 23.828357,10.646678 23.828357,23.816925 0,13.170248 -10.652386,23.842813 -23.828357,23.842813 -13.175971,0 -23.854258,-10.673162 -23.854258,-23.842813 0,-13.169652 10.67769,-23.816925 23.854258,-23.816925 z"
           style="opacity:0.54098361;fill:url(#radialGradient5148);fill-opacity:1;stroke:none"
           inkscape:connector-curvature="0" />
        <path
           id="path7258"
           d="m 43.385221,4.3716949 c -18.234281,0 -33.028157,14.7867781 -33.028157,33.0123091 0,18.225533 14.793876,33.012311 33.028157,33.012311 18.234281,0 32.996462,-14.787451 32.996462,-33.012311 0,-18.224858 -14.762181,-33.0123091 -32.996462,-33.0123091 z m 0,3.8651649 c 16.123217,0 29.161134,13.0316612 29.161134,29.1471442 0,16.115484 -13.038646,29.178827 -29.161134,29.178827 -16.122487,0 -29.192833,-13.064077 -29.192833,-29.178827 0,-16.114749 13.069615,-29.1471442 29.192833,-29.1471442 z"
           style="fill:url(#linearGradient5150);fill-opacity:1;stroke:none"
           inkscape:connector-curvature="0" />
        <path
           id="path7290"
           d="m 43.385689,4.6650867 c -18.085963,0 -32.734548,14.6415603 -32.734548,32.7188423 0,18.077283 14.648585,32.718844 32.734548,32.718844 18.085963,0 32.701843,-14.640672 32.701843,-32.718844 0,-18.078171 -14.61588,-32.7188423 -32.701843,-32.7188423 z m 0,1.3074462 c 17.35971,0 31.426477,14.0600221 31.426477,31.4113961 0,17.351376 -14.065805,31.444084 -31.426477,31.444084 -17.360672,0 -31.459177,-14.091739 -31.459177,-31.444084 0,-17.352343 14.099467,-31.4113961 31.459177,-31.4113961 z"
           style="opacity:0.51912584;fill:url(#radialGradient5152);fill-opacity:1;stroke:none"
           inkscape:connector-curvature="0" />
        <path
           id="path7254"
           d="m 43.385221,5.2587819 c -17.747285,0 -32.140644,14.3864491 -32.140644,32.1252221 0,17.738775 14.393359,32.125224 32.140644,32.125224 17.747285,0 32.108949,-14.386061 32.108949,-32.125224 0,-17.739162 -14.361664,-32.1252221 -32.108949,-32.1252221 z m 0,2.0909908 c 16.609443,0 30.048647,13.4327623 30.048647,30.0342313 0,16.60147 -13.438778,30.065914 -30.048647,30.065914 -16.609869,0 -30.080346,-13.46402 -30.080346,-30.065914 0,-16.601893 13.470904,-30.0342313 30.080346,-30.0342313 z"
           style="fill:url(#linearGradient5154);fill-opacity:1;stroke:none"
           inkscape:connector-curvature="0" />
        <path
           id="path7396"
           d="m 43.384515,7.4768101 c -16.531239,0 -29.921651,13.3839829 -29.921651,29.9072939 0,16.52331 13.390412,29.907293 29.921651,29.907293 16.53124,0 29.891426,-13.382759 29.891426,-29.907293 0,-16.524534 -13.360186,-29.9072939 -29.891426,-29.9072939 z m 0,0.543769 c 16.228266,0 29.377621,13.1430509 29.377621,29.3635249 0,16.220474 -13.14802,29.393734 -29.377621,29.393734 -16.2296,0 -29.407845,-13.171925 -29.407845,-29.393734 0,-16.221809 13.17958,-29.3635249 29.407845,-29.3635249 z"
           style="fill:url(#radialGradient5156);fill-opacity:1;stroke:none"
           inkscape:connector-curvature="0" />
      </g>
    </g>
  </g>
</svg>
