<?xml version="1.0" encoding="UTF-8" standalone="no"?>
<!-- Created with Inkscape (http://www.inkscape.org/) -->

<svg
   xmlns:dc="http://purl.org/dc/elements/1.1/"
   xmlns:cc="http://creativecommons.org/ns#"
   xmlns:rdf="http://www.w3.org/1999/02/22-rdf-syntax-ns#"
   xmlns:svg="http://www.w3.org/2000/svg"
   xmlns="http://www.w3.org/2000/svg"
   xmlns:xlink="http://www.w3.org/1999/xlink"
   xmlns:sodipodi="http://sodipodi.sourceforge.net/DTD/sodipodi-0.dtd"
   xmlns:inkscape="http://www.inkscape.org/namespaces/inkscape"
   version="1.1"
   inkscape:output_extension="org.inkscape.output.svg.inkscape"
   sodipodi:docname="folder-system.svg"
   inkscape:version="0.48.3.1 r9886"
   sodipodi:version="0.32"
   id="svg7217"
   height="96"
   width="96">
  <defs
     id="defs7219">
    <linearGradient
       inkscape:collect="always"
       xlink:href="#linearGradient5048-2"
       id="linearGradient3247"
       gradientUnits="userSpaceOnUse"
       gradientTransform="matrix(0.125709,0,0,0.0864706,2.5651808,-10.70427)"
       x1="302.85715"
       y1="366.64789"
       x2="302.85715"
       y2="609.50507" />
    <linearGradient
       id="linearGradient5048-2">
      <stop
         style="stop-color:black;stop-opacity:0;"
         offset="0"
         id="stop5050-0" />
      <stop
         id="stop5056-56"
         offset="0.5"
         style="stop-color:black;stop-opacity:1;" />
      <stop
         style="stop-color:black;stop-opacity:0;"
         offset="1"
         id="stop5052-25" />
    </linearGradient>
    <radialGradient
       inkscape:collect="always"
       xlink:href="#linearGradient5060-6"
       id="radialGradient3244"
       gradientUnits="userSpaceOnUse"
       gradientTransform="matrix(0.125709,0,0,0.0864706,2.5899204,-10.70427)"
       cx="605.71429"
       cy="486.64789"
       fx="605.71429"
       fy="486.64789"
       r="117.14286" />
    <linearGradient
       inkscape:collect="always"
       id="linearGradient5060-6">
      <stop
         style="stop-color:black;stop-opacity:1;"
         offset="0"
         id="stop5062-7" />
      <stop
         style="stop-color:black;stop-opacity:0;"
         offset="1"
         id="stop5064-1" />
    </linearGradient>
    <radialGradient
       inkscape:collect="always"
       xlink:href="#linearGradient5060-6"
       id="radialGradient3241"
       gradientUnits="userSpaceOnUse"
       gradientTransform="matrix(-0.125709,0,0,0.0864706,93.410098,-10.70427)"
       cx="605.71429"
       cy="486.64789"
       fx="605.71429"
       fy="486.64789"
       r="117.14286" />
    <linearGradient
       inkscape:collect="always"
       xlink:href="#linearGradient4064-7-5"
       id="linearGradient3230"
       gradientUnits="userSpaceOnUse"
       gradientTransform="matrix(2,0,0,2,-94,-48)"
       x1="71"
       y1="8"
       x2="71"
       y2="41.5" />
    <linearGradient
       id="linearGradient4064-7-5">
      <stop
         style="stop-color:#434445;stop-opacity:1;"
         offset="0"
         id="stop4066-4-3" />
      <stop
         style="stop-color:#434445;stop-opacity:0.50196081;"
         offset="1"
         id="stop4068-8-3" />
    </linearGradient>
    <linearGradient
       inkscape:collect="always"
       xlink:href="#linearGradient4054-7-93"
       id="linearGradient3232"
       gradientUnits="userSpaceOnUse"
       gradientTransform="matrix(2,0,0,2,-94,-48)"
       x1="71"
       y1="8"
       x2="71"
       y2="41.5" />
    <linearGradient
       id="linearGradient4054-7-93">
      <stop
         style="stop-color:#212223;stop-opacity:1;"
         offset="0"
         id="stop4056-0-1" />
      <stop
         style="stop-color:#212223;stop-opacity:0.50196081;"
         offset="1"
         id="stop4058-9-4" />
    </linearGradient>
    <linearGradient
       inkscape:collect="always"
       xlink:href="#linearGradient9101-0"
       id="linearGradient3227"
       gradientUnits="userSpaceOnUse"
       gradientTransform="matrix(0.75086228,0,0,0.3333332,-6.0605797,-28.166666)"
       x1="71.999496"
       y1="14.2578"
       x2="71.999496"
       y2="19.9583" />
    <linearGradient
       gradientTransform="matrix(1.0033404,0,0,1,-8.2374684,8)"
       y2="19.9583"
       x2="71.999496"
       y1="14.2578"
       x1="71.999496"
       gradientUnits="userSpaceOnUse"
       id="linearGradient9101-0">
      <stop
         id="stop9103-1"
         style="stop-color:#212223;stop-opacity:0;"
         offset="0.25" />
      <stop
         id="stop9105-9"
         style="stop-color:#212223;stop-opacity:1;"
         offset="1" />
    </linearGradient>
    <linearGradient
       inkscape:collect="always"
       xlink:href="#linearGradient9073-9-9"
       id="linearGradient3259"
       gradientUnits="userSpaceOnUse"
       gradientTransform="matrix(0.7031318,0,0,0.7105376,-69.874472,-254.68002)"
       x1="167.64111"
       y1="328.87747"
       x2="167.64111"
       y2="407.69193" />
    <linearGradient
       id="linearGradient9073-9-9">
      <stop
         id="stop9075-9-1"
         offset="0"
         style="stop-color:#878889;stop-opacity:1" />
      <stop
         id="stop9077-5-4"
         offset="1"
         style="stop-color:#434445;stop-opacity:1" />
    </linearGradient>
    <linearGradient
       inkscape:collect="always"
       xlink:href="#linearGradient9087-5-9"
       id="linearGradient3261"
       gradientUnits="userSpaceOnUse"
       gradientTransform="matrix(2,0,0,2,-365.99542,-54)"
       x1="206.99738"
       y1="16.499895"
       x2="206.99738"
       y2="44.50021" />
    <linearGradient
       inkscape:collect="always"
       id="linearGradient9087-5-9">
      <stop
         style="stop-color:#434445;stop-opacity:1"
         offset="0"
         id="stop9089-5-8" />
      <stop
         style="stop-color:#212223;stop-opacity:1"
         offset="1"
         id="stop9091-1-95" />
    </linearGradient>
    <linearGradient
       inkscape:collect="always"
       xlink:href="#linearGradient10176-3"
       id="linearGradient3256"
       gradientUnits="userSpaceOnUse"
       gradientTransform="matrix(0.9204022,0,0,1.885618,-11.468937,-87.058428)"
       x1="7.2379346"
       y1="36.005047"
       x2="122.17093"
       y2="36.005047" />
    <linearGradient
       id="linearGradient10176-3"
       gradientUnits="userSpaceOnUse"
       x1="71.999496"
       y1="14.2578"
       x2="71.999496"
       y2="19.9583"
       gradientTransform="matrix(1.0033404,0,0,1,-8.2374684,8)">
      <stop
         offset="0.00445589"
         style="stop-color:#eaeaea;stop-opacity:0;"
         id="stop10178-9" />
      <stop
         id="stop10180-8"
         style="stop-color:#ffffff;stop-opacity:0.52941179;"
         offset="0.46138024" />
      <stop
         offset="1"
         style="stop-color:#f5f5f5;stop-opacity:0"
         id="stop10182-1" />
    </linearGradient>
  </defs>
  <sodipodi:namedview
     id="base"
     pagecolor="#ffffff"
     bordercolor="#666666"
     borderopacity="1.0"
     inkscape:pageopacity="0.0"
     inkscape:pageshadow="2"
     inkscape:zoom="6.2395833"
     inkscape:cx="48"
     inkscape:cy="48"
     inkscape:current-layer="layer1"
     showgrid="true"
     inkscape:grid-bbox="true"
     inkscape:document-units="px"
     inkscape:window-width="1058"
     inkscape:window-height="811"
     inkscape:window-x="220"
     inkscape:window-y="24"
     inkscape:window-maximized="0"
     inkscape:object-paths="true"
     inkscape:snap-intersection-paths="true"
     inkscape:object-nodes="true"
     inkscape:snap-smooth-nodes="true"
     inkscape:snap-midpoints="true"
     inkscape:snap-object-midpoints="true"
     fit-margin-top="0"
     fit-margin-left="0"
     fit-margin-right="0"
     fit-margin-bottom="0" />
  <metadata
     id="metadata7222">
    <rdf:RDF>
      <cc:Work
         rdf:about="">
        <dc:format>image/svg+xml</dc:format>
        <dc:type
           rdf:resource="http://purl.org/dc/dcmitype/StillImage" />
        <dc:title />
      </cc:Work>
    </rdf:RDF>
  </metadata>
  <g
     id="layer1"
     inkscape:label="Layer 1"
     inkscape:groupmode="layer"
     transform="translate(0,48)">
    <g
       id="g3274">
      <g
         id="g3269">
        <rect
           style="opacity:0.40206185;fill:url(#linearGradient3247);fill-opacity:1;fill-rule:nonzero;stroke:none;stroke-width:1;marker:none;visibility:visible;display:inline;overflow:visible"
           id="rect13073"
           width="60.699482"
           height="21.000004"
           x="17.650259"
           y="21" />
        <path
           style="opacity:0.40206185;fill:url(#radialGradient3244);fill-opacity:1;fill-rule:nonzero;stroke:none;stroke-width:1;marker:none;visibility:visible;display:inline;overflow:visible"
           d="m 78.349742,21.000718 c 0,0 0,20.998846 0,20.998846 C 84.823444,42.039084 94.000004,37.294788 94,31.49879 94,25.70279 86.775836,21.00072 78.349742,21.000718 z"
           id="path13075"
           sodipodi:nodetypes="cccc"
           inkscape:connector-curvature="0" />
        <path
           sodipodi:nodetypes="cccc"
           id="path13077"
           d="m 17.65026,21.000718 c 0,0 0,20.998846 0,20.998846 -6.473703,0.03952 -15.6502598,-4.704776 -15.6502598,-10.500774 0,-5.796 7.224163,-10.49807 15.6502598,-10.498072 z"
           style="opacity:0.40206185;fill:url(#radialGradient3241);fill-opacity:1;fill-rule:nonzero;stroke:none;stroke-width:1;marker:none;visibility:visible;display:inline;overflow:visible"
           inkscape:connector-curvature="0" />
      </g>
      <g
         id="g3263">
        <path
           style="color:#000000;fill:url(#linearGradient3230);fill-opacity:1;fill-rule:evenodd;stroke:url(#linearGradient3232);stroke-width:1;stroke-linecap:butt;stroke-linejoin:miter;stroke-miterlimit:4;stroke-opacity:1;stroke-dasharray:none;stroke-dashoffset:0;marker:none;visibility:visible;display:inline;overflow:visible;enable-background:accumulate"
           d="m 63,-32 c -1.108,0 -2.0895,0.4645 -2.8125,1.1875 L 56.375,-27 11,-27 c -2.216,0 -4,1.784 -4,4 l 0,56 c 0,1.108 0.892,2 2,2 l 78,0 c 1.108,0 2,-0.892 2,-2 l 0,-61 c 0,-2.216 -1.784,-4 -4,-4 z"
           id="rect3142"
           inkscape:connector-curvature="0"
           sodipodi:nodetypes="sscsccccccss" />
        <path
           style="opacity:0.5;fill:url(#linearGradient3227);fill-opacity:1;display:inline;enable-background:new"
           id="path39053"
           d="m 7.5014969,-23.5 c 0.00626,0.583332 0.012514,1.251666 0.018752,2 l 80.9609801,0 c 0.0063,-0.748334 0.01256,-1.416668 0.01883,-2 l -80.9999993,0 0.0015,0 z"
           inkscape:connector-curvature="0" />
        <path
           inkscape:connector-curvature="0"
           sodipodi:nodetypes="cccccccccc"
           style="opacity:0.9;color:#000000;fill:url(#linearGradient3259);fill-opacity:1;fill-rule:nonzero;stroke:url(#linearGradient3261);stroke-width:0.99958181;stroke-linecap:butt;stroke-linejoin:miter;stroke-miterlimit:4;stroke-opacity:1;stroke-dasharray:none;stroke-dashoffset:0;marker:none;visibility:visible;display:inline;overflow:visible;enable-background:new"
           id="path3300"
           d="m 90.493984,33 c -0.06074,1.170968 -1.335732,2.000418 -2.499686,2.000418 l -79.9899374,0 c -1.163934,0 -2.438312,-0.82945 -2.499686,-2.000418 l -2.499684,-51.999792 c -0.08468,-1.168834 0.835794,-2.000416 1.999748,-2.000416 l 85.9891834,0 c 1.163954,0 2.088616,0.831582 1.999748,2.000416 L 90.493984,33 z" />
        <rect
           style="fill:url(#linearGradient3256);fill-opacity:1;stroke:none;display:inline;enable-background:new"
           id="rect3521-5"
           width="89"
           height="2"
           x="3.4999948"
           y="-20.5"
           rx="0"
           ry="0" />
      </g>
    </g>
    <path
       d="m 45.721664,24 c -0.649358,0 -1.175146,-0.538672 -1.175146,-1.199124 l 0,-2.326302 c -1.16109,-0.309358 -2.270514,-0.77664 -3.2856,-1.367002 l -1.654796,1.654792 c -0.233506,0.233506 -0.51322,0.357176 -0.8154,0.359738 -0.302182,0.0026 -0.609808,-0.10618 -0.839386,-0.335756 l -3.23764,-3.237636 c -0.459158,-0.459162 -0.443026,-1.18778 0.02394,-1.654792 l 1.654794,-1.65479 c -0.59036,-1.015084 -1.057638,-2.12451 -1.367004,-3.285602 l -2.326298,0 c -0.660454,0 -1.199126,-0.525788 -1.199126,-1.175142 l 0,-4.556672 c 0,-0.649354 0.538672,-1.175144 1.199126,-1.175144 l 2.326298,0 C 35.334792,2.885476 35.80207,1.77605 36.39243,0.760968 l -1.654794,-1.654792 c -0.46701,-0.46701 -0.48314,-1.19563 -0.02394,-1.654792 l 3.23764,-3.237638 c 0.459158,-0.45916 1.187778,-0.443026 1.654786,0.024 l 1.654796,1.654792 c 1.015086,-0.590364 2.12451,-1.057642 3.2856,-1.367002 l 0,-2.326302 c 0,-0.660452 0.525788,-1.199124 1.175146,-1.199124 l 4.556672,0 c 0.649352,0 1.17514,0.538672 1.17514,1.199124 l 0,2.326302 c 1.16109,0.30936 2.270514,0.776638 3.2856,1.367002 l 1.654794,-1.654792 c 0.467008,-0.46701 1.19563,-0.483146 1.654794,-0.024 l 3.237634,3.237638 c 0.459156,0.459162 0.443026,1.187782 -0.02394,1.654792 L 59.60757,0.760968 c 0.59036,1.015082 1.057638,2.124508 1.366998,3.2856 l 2.326306,0 c 0.660446,0 1.199122,0.525788 1.199122,1.175144 l 0,4.556672 c 0,0.649354 -0.538676,1.175142 -1.199122,1.175142 l -2.326306,0 c -0.309358,1.161092 -0.776636,2.270518 -1.366996,3.285602 l 1.654788,1.65479 c 0.467008,0.467012 0.483146,1.19563 0.02394,1.654792 l -3.237634,3.237636 c -0.459164,0.459162 -1.187784,0.44303 -1.654794,-0.024 l -1.654794,-1.654792 c -1.015086,0.590362 -2.12451,1.057644 -3.285598,1.367002 l 0,2.3263 c 0,0.660454 -0.52579,1.199126 -1.175142,1.199126 l -4.556672,0 z m 2.278334,-11.511594 c 2.753576,0 4.988358,-2.234784 4.988358,-4.98836 0,-2.753572 -2.234782,-4.988356 -4.988358,-4.988356 -2.753574,0 -4.98836,2.234784 -4.98836,4.988356 0,2.753576 2.234786,4.98836 4.98836,4.98836 z"
       id="rect3267"
       style="opacity:0.6;fill:#ffffff;fill-opacity:1;fill-rule:nonzero;stroke:none;stroke-width:1;marker:none;visibility:visible;display:block;overflow:visible;enable-background:accumulate"
       inkscape:connector-curvature="0" />
    <path
       style="opacity:0.25;fill:#000000;fill-opacity:1;fill-rule:nonzero;stroke:none;stroke-width:1;marker:none;visibility:visible;display:block;overflow:visible;enable-background:accumulate"
       d="m 45.75,-10 c -0.649358,0 -1.1875,0.527048 -1.1875,1.1875 l 0,2 C 44.5625,-7.472952 45.100642,-8 45.75,-8 l 4.5,0 c 0.649352,0 1.1875,0.527048 1.1875,1.1875 l 0,-2 C 51.4375,-9.472952 50.899352,-10 50.25,-10 l -4.5,0 z m -7,2.875 c -0.297926,-0.005 -0.58292,0.08292 -0.8125,0.3125 l -3.25,3.25 c -0.4592,0.459162 -0.40451,1.22049 0.0625,1.6875 l 0.125,0.125 3.0625,-3.0625 c 0.459158,-0.45916 1.220492,-0.404526 1.6875,0.0625 l 1.625,1.625 c 1.015086,-0.590364 2.15141,-1.06564 3.3125,-1.375 l 0,-2 c -1.16109,0.30936 -2.297414,0.784636 -3.3125,1.375 L 39.625,-6.75 C 39.391496,-6.983514 39.047926,-7.119984 38.75,-7.125 z m 18.5,0 c -0.297928,0.005 -0.641496,0.1415 -0.875,0.375 L 54.75,-5.125 C 53.734914,-5.715364 52.59859,-6.19064 51.4375,-6.5 l 0,2 c 1.16109,0.30936 2.297414,0.784636 3.3125,1.375 l 1.625,-1.625 c 0.467008,-0.46701 1.228336,-0.521646 1.6875,-0.0625 L 61.125,-1.75 61.25,-1.875 c 0.466966,-0.46701 0.521656,-1.228338 0.0625,-1.6875 l -3.25,-3.25 C 57.832918,-7.042074 57.547928,-7.130018 57.25,-7.125 z m -21.5,8.25 C 35.47237,1.753398 35.178828,2.391332 35,3.0625 l -2.3125,0 C 32.027046,3.0625 31.5,3.600646 31.5,4.25 l 0,2 c 0,-0.649354 0.527046,-1.1875 1.1875,-1.1875 l 2.3125,0 C 35.309366,3.901408 35.78464,2.765082 36.375,1.75 L 35.75,1.125 z m 24.5,0 -0.625,0.625 C 60.21536,2.765082 60.69064,3.901408 61,5.0625 l 2.3125,0 c 0.660446,0 1.1875,0.538144 1.1875,1.1875 l 0,-2 C 64.5,3.600644 63.972946,3.0625 63.3125,3.0625 L 61,3.0625 C 60.821174,2.391332 60.52763,1.753398 60.25,1.125 z M 43.125,7.5 C 43.05852,7.824632 43,8.155804 43,8.5 c 0,2.753576 2.246426,5 5,5 2.753576,0 5,-2.246424 5,-5 0,-0.344196 -0.05852,-0.675368 -0.125,-1 -0.465398,2.272432 -2.46562,4 -4.875,4 -2.409378,0 -4.409602,-1.727568 -4.875,-4 z m -7.375,6.375 -1,1 c -0.466966,0.467012 -0.521658,1.228338 -0.0625,1.6875 l 0.1875,0.1875 1.5,-1.5 C 36.125896,14.821684 35.952658,14.333704 35.75,13.875 z m 24.5,0 c -0.202658,0.458704 -0.375896,0.946684 -0.625,1.375 l 1.5,1.5 0.1875,-0.1875 C 61.771706,16.103338 61.717008,15.342012 61.25,14.875 l -1,-1 z"
       id="path3052"
       inkscape:connector-curvature="0" />
  </g>
</svg>
