<?xml version="1.0" encoding="UTF-8" standalone="no"?>
<!-- Created with Inkscape (http://www.inkscape.org/) -->

<svg
   xmlns:dc="http://purl.org/dc/elements/1.1/"
   xmlns:cc="http://creativecommons.org/ns#"
   xmlns:rdf="http://www.w3.org/1999/02/22-rdf-syntax-ns#"
   xmlns:svg="http://www.w3.org/2000/svg"
   xmlns="http://www.w3.org/2000/svg"
   xmlns:sodipodi="http://sodipodi.sourceforge.net/DTD/sodipodi-0.dtd"
   xmlns:inkscape="http://www.inkscape.org/namespaces/inkscape"
   id="svg7384"
   height="16"
   width="16"
   version="1.1"
   inkscape:version="0.48.3.1 r9886"
   sodipodi:docname="folder-remote-symbolic.svg">
  <defs
     id="defs10" />
  <sodipodi:namedview
     pagecolor="#ffffff"
     bordercolor="#666666"
     borderopacity="1"
     objecttolerance="10"
     gridtolerance="10"
     guidetolerance="10"
     inkscape:pageopacity="0"
     inkscape:pageshadow="2"
     inkscape:window-width="1052"
     inkscape:window-height="763"
     id="namedview8"
     showgrid="true"
     inkscape:zoom="34.625"
     inkscape:cx="8"
     inkscape:cy="8"
     inkscape:window-x="0"
     inkscape:window-y="24"
     inkscape:window-maximized="0"
     inkscape:current-layer="svg7384">
    <inkscape:grid
       type="xygrid"
       id="grid2987" />
  </sodipodi:namedview>
  <metadata
     id="metadata90">
    <rdf:RDF>
      <cc:Work
         rdf:about="">
        <dc:format>image/svg+xml</dc:format>
        <dc:type
           rdf:resource="http://purl.org/dc/dcmitype/StillImage" />
        <dc:title>Gnome Symbolic Icon Theme</dc:title>
      </cc:Work>
    </rdf:RDF>
  </metadata>
  <title
     id="title9167">Gnome Symbolic Icon Theme</title>
  <path
     style="color:#000000;fill:#bebebe;fill-opacity:1;fill-rule:nonzero;stroke:none;stroke-width:1;marker:none;visibility:visible;display:inline;overflow:visible;enable-background:accumulate"
     d="m 13.5,1 c 0.554,0 1,0.446 1,1 l 0,2.5 1,0 0,1 -1,7 -6,0 0,0.84375 C 8.7990959,13.470257 9.0297431,13.700904 9.15625,14 L 14,14 14,15 9.15625,15 C 8.9664897,15.448644 8.517767,15.75 8,15.75 7.482233,15.75 7.0335103,15.448644 6.84375,15 L 2,15 2,14 6.84375,14 C 6.9702569,13.700904 7.2009041,13.470257 7.5,13.34375 l 0,-0.84375 -6,0 -1,-7 0,-1 1,0 0,-1.5 c 0,-0.554 0.453538,-1.091077 1,-1 L 4,2 8.5,2 10,1 11.4375,1 13.5,1 z m -0.25,2.25 -10.5,0 0,1.25 10.5,0 0,-1.25 z"
     id="path3050"
     inkscape:connector-curvature="0" />
</svg>
