<?xml version="1.0" encoding="UTF-8" standalone="no"?>
<!-- Created with Inkscape (http://www.inkscape.org/) -->

<svg
   xmlns:dc="http://purl.org/dc/elements/1.1/"
   xmlns:cc="http://creativecommons.org/ns#"
   xmlns:rdf="http://www.w3.org/1999/02/22-rdf-syntax-ns#"
   xmlns:svg="http://www.w3.org/2000/svg"
   xmlns="http://www.w3.org/2000/svg"
   xmlns:sodipodi="http://sodipodi.sourceforge.net/DTD/sodipodi-0.dtd"
   xmlns:inkscape="http://www.inkscape.org/namespaces/inkscape"
   id="svg7384"
   height="16"
   width="16"
   version="1.1"
   inkscape:version="0.48.3.1 r9886"
   sodipodi:docname="start-here-symbolic-ubuntu.svg">
  <defs
     id="defs9" />
  <sodipodi:namedview
     pagecolor="#ffffff"
     bordercolor="#666666"
     borderopacity="1"
     objecttolerance="10"
     gridtolerance="10"
     guidetolerance="10"
     inkscape:pageopacity="0"
     inkscape:pageshadow="2"
     inkscape:window-width="1152"
     inkscape:window-height="819"
     id="namedview7"
     showgrid="true"
     inkscape:zoom="31.6875"
     inkscape:cx="8"
     inkscape:cy="8"
     inkscape:window-x="0"
     inkscape:window-y="1"
     inkscape:window-maximized="1"
     inkscape:current-layer="svg7384">
    <inkscape:grid
       type="xygrid"
       id="grid2986"
       empspacing="5"
       visible="true"
       enabled="true"
       snapvisiblegridlinesonly="true" />
  </sodipodi:namedview>
  <metadata
     id="metadata90">
    <rdf:RDF>
      <cc:Work
         rdf:about="">
        <dc:format>image/svg+xml</dc:format>
        <dc:type
           rdf:resource="http://purl.org/dc/dcmitype/StillImage" />
        <dc:title>Gnome Symbolic Icon Theme</dc:title>
      </cc:Work>
    </rdf:RDF>
  </metadata>
  <title
     id="title9167">Gnome Symbolic Icon Theme</title>
  <path
     inkscape:connector-curvature="0"
     style="fill:#bebebe;fill-opacity:1;fill-rule:evenodd;stroke:none"
     d="M 8.0507332,0.50025846 C 4.417846,0.47004463 1.2098929,3.0901939 0.60294396,6.7848645 -0.06679321,10.861734 2.6850083,14.713026 6.7597262,15.395837 10.834445,16.078647 14.696115,13.332843 15.392004,9.2603583 l 0.01277,-0.093696 C 16.048335,5.0855824 13.271626,1.2549496 9.1926117,0.59829522 8.8102039,0.53677683 8.4265469,0.50339982 8.050731,0.50034572 z M 10.577357,2.579504 c 0.161354,0.00436 0.323294,0.050065 0.472943,0.1363439 0.478879,0.2766037 0.64303,0.8888209 0.366425,1.3677045 C 11.140449,4.562447 10.52792,4.7265833 10.049024,4.4499687 9.570478,4.1736921 9.406325,3.5608424 9.6826,3.0822751 9.872766,2.7530426 10.22238,2.5703744 10.577357,2.579504 z M 7.9996042,3.6489533 c 0.4026249,0 0.7932012,0.055519 1.1631845,0.1576464 0.065267,0.4023019 0.3010663,0.7730266 0.6817203,0.9927585 0.380008,0.2190775 0.820894,0.241787 1.201531,0.09795 0.740313,0.7281313 1.220891,1.7177485 1.291007,2.8206185 l -1.423091,0.02127 C 10.782429,6.2454551 9.527364,5.0720462 7.9996042,5.0720462 c -0.4401141,0 -0.8571726,0.098495 -1.2313565,0.2726879 L 6.0737457,4.10059 C 6.6546696,3.8130133 7.3074514,3.6489533 7.9996042,3.6489533 z M 5.5880203,4.3775427 6.3166083,5.6046384 C 5.5646811,6.133893 5.0767304,7.009723 5.0767304,7.9991766 c 0,0.9894536 0.4879507,1.8613133 1.2398779,2.3902844 l -0.728588,1.227095 C 4.7116953,11.031041 4.0604527,10.138195 3.7899842,9.0899284 4.1059992,8.8320637 4.3055348,8.4390332 4.3055348,7.9991766 4.3055348,7.5590583 4.1059992,7.1662895 3.7899842,6.9084249 4.06075,5.8605397 4.71201,4.9630692 5.5880203,4.3775427 z M 2.8994877,6.9978993 c 0.5528805,0 1.001276,0.448059 1.001276,1.0012773 0,0.5529566 -0.4483955,1.0012774 -1.001276,1.0012774 -0.5532127,0 -1.001276,-0.4483208 -1.001276,-1.0012774 0,-0.5532183 0.4480633,-1.0012773 1.001276,-1.0012773 z m 8.0144683,1.2611817 1.423091,0.02127 c -0.07011,1.10287 -0.550694,2.092585 -1.291007,2.820618 -0.380637,-0.143794 -0.821207,-0.125677 -1.201531,0.0937 -0.380654,0.22006 -0.616453,0.590457 -0.6817203,0.992748 -0.3699833,0.102531 -0.7605596,0.161988 -1.1631845,0.161988 -0.6920858,0 -1.3448677,-0.163733 -1.9258585,-0.451637 l 0.694502,-1.248398 c 0.3741839,0.174182 0.7912424,0.272688 1.2313565,0.272688 1.5277108,0 2.7831548,-1.1688272 2.9143518,-2.6629716 z m -0.391988,3.152959 c 0.354947,-0.0087 0.704806,0.173746 0.894757,0.502761 0.27659,0.478883 0.112454,1.091406 -0.366425,1.367704 -0.478878,0.276593 -1.091409,0.112478 -1.3677,-0.366427 -0.276589,-0.478567 -0.112454,-1.091101 0.366424,-1.367694 0.149552,-0.08639 0.311604,-0.132188 0.472944,-0.136344 z"
     id="path3869" />
</svg>
