<?xml version="1.0" encoding="UTF-8" standalone="no"?>
<!-- Created with Inkscape (http://www.inkscape.org/) -->

<svg
   xmlns:dc="http://purl.org/dc/elements/1.1/"
   xmlns:cc="http://creativecommons.org/ns#"
   xmlns:rdf="http://www.w3.org/1999/02/22-rdf-syntax-ns#"
   xmlns:svg="http://www.w3.org/2000/svg"
   xmlns="http://www.w3.org/2000/svg"
   xmlns:sodipodi="http://sodipodi.sourceforge.net/DTD/sodipodi-0.dtd"
   xmlns:inkscape="http://www.inkscape.org/namespaces/inkscape"
   width="16px"
   height="16px"
   id="svg3930"
   version="1.1"
   inkscape:version="0.48.3.1 r9886"
   sodipodi:docname="start-here-symbolic-debian.svg">
  <defs
     id="defs3932" />
  <sodipodi:namedview
     id="base"
     pagecolor="#ffffff"
     bordercolor="#666666"
     borderopacity="1.0"
     inkscape:pageopacity="0.0"
     inkscape:pageshadow="2"
     inkscape:zoom="22.197802"
     inkscape:cx="8"
     inkscape:cy="8"
     inkscape:current-layer="layer1"
     showgrid="true"
     inkscape:grid-bbox="true"
     inkscape:document-units="px"
     inkscape:window-width="1001"
     inkscape:window-height="694"
     inkscape:window-x="129"
     inkscape:window-y="15"
     inkscape:window-maximized="0" />
  <metadata
     id="metadata3935">
    <rdf:RDF>
      <cc:Work
         rdf:about="">
        <dc:format>image/svg+xml</dc:format>
        <dc:type
           rdf:resource="http://purl.org/dc/dcmitype/StillImage" />
        <dc:title></dc:title>
      </cc:Work>
    </rdf:RDF>
  </metadata>
  <g
     id="layer1"
     inkscape:label="Layer 1"
     inkscape:groupmode="layer">
    <path
       style="fill:#b3b3b3;fill-opacity:1"
       d="m 8.93245,9.2e-5 c -0.247489,0.02065 -0.493425,0.0351 -0.737367,0.06658 l 0.105339,0.01084 0,0.0057 C 8.479252,0.018082 8.741732,0.043472 8.93245,1.2e-5 z M 7.851349,0.116531 C 7.448625,0.140791 6.891464,0.352144 7.064085,0.160921 6.407131,0.453979 5.240872,0.86585 4.585869,1.480405 L 4.563689,1.341772 C 4.263509,1.701411 3.251776,2.421463 3.172118,2.888611 l -0.07762,0.01652 C 2.938731,3.169131 2.835256,3.470499 2.711954,3.742292 2.55907,4.003195 2.469937,3.946111 2.445837,3.92526 c 8.75e-4,0 -0.0015,0.0052 0,0.0052 C 2.044533,4.744808 1.841575,5.425892 1.669663,5.987389 1.792432,6.1703052 1.673263,7.0955697 1.719553,7.8335307 1.518724,11.478124 4.275386,15.017221 7.291382,15.833685 7.732966,15.99173 8.39542,15.984711 8.954621,15.999988 8.294828,15.811549 8.206166,15.897485 7.56305,15.672865 7.100006,15.454646 6.998837,15.209123 6.670448,14.924427 L 6.803507,15.15173 C 6.15968,14.924427 6.429257,14.868324 5.905361,14.702646 l 0.138603,-0.177393 c -0.208636,-0.016 -0.554278,-0.351536 -0.648661,-0.537807 l -0.227308,0.0057 C 4.89425,13.65501 4.747264,13.411603 4.757732,13.222545 l -0.07207,0.133007 C 4.602632,13.212739 3.673176,12.084688 4.153429,12.34652 4.064719,12.265436 3.948873,12.214133 3.820782,11.980636 L 3.915032,11.86972 C 3.684397,11.572378 3.490221,11.192714 3.504768,11.065849 3.627359,11.232094 3.714158,11.259243 3.798606,11.28763 3.2151,9.8399396 3.18179,11.213411 2.739682,9.8184171 l 0.09425,-0.010838 C 2.762432,9.6993468 2.719546,9.5843015 2.662064,9.4694113 L 2.700874,9.0646628 C 2.280764,8.5796048 2.584404,6.9981337 2.645434,6.1318112 2.687124,5.779863 2.998926,5.406908 3.23311,4.817901 L 3.088962,4.790551 C 3.361999,4.313854 4.648986,2.876435 5.245621,2.94988 5.534624,2.587454 5.191511,2.94468 5.134739,2.85563 5.769517,2.199372 5.96498,2.391991 6.393251,2.273488 6.854876,1.999733 5.996914,2.384301 6.21584,2.173668 7.014191,1.969901 6.781339,1.705901 7.823631,1.602623 c 0.07699,0.04387 -0.0788,0.07995 -0.210676,0.121962 0.709839,-0.25853 2.02809,-0.165575 2.905112,0.238451 1.085226,0.507406 2.307636,2.004232 2.356246,3.415174 l 0.05544,0.01652 c -0.02697,0.560671 0.08534,1.211355 -0.110882,1.8074325 L 12.946379,6.930466 c 0.01149,0.4163615 -0.129243,0.624 -0.255029,0.9868902 l -0.227309,0.1163873 c -0.187169,0.363871 0.01734,0.231484 -0.116426,0.521187 -0.292552,0.259871 -0.885017,0.8135743 -1.075557,0.8648773 -0.138736,-0.00516 0.09145,-0.1648515 0.12197,-0.227303 -0.391546,0.268903 -0.316014,0.4019097 -0.914777,0.5654708 l -0.01663,-0.039226 C 8.985138,10.413821 6.932311,9.0375626 6.958745,7.1573563 6.943485,7.2765303 6.913765,7.2480923 6.881125,7.2959883 6.804835,6.3292272 7.32962,5.353382 8.21171,4.956376 9.07393,4.530053 10.083623,4.70755 10.701014,5.283447 10.362158,4.839214 9.688572,4.369382 8.888091,4.413047 8.104287,4.425437 7.370425,4.919576 7.125065,5.460892 6.723937,5.712969 6.673153,6.4373563 6.498581,6.56964 6.262978,8.3008398 6.941533,9.0494336 8.08974,9.9293821 c 0.09012,0.060696 0.106624,0.096051 0.09979,0.1275349 1.354181,0.505291 2.752715,0.38462 3.925228,-0.5544254 0.298051,-0.2320518 0.626528,-0.6264773 0.720734,-0.632 -0.123722,0.186116 -0.01272,0.1248515 -0.05544,0.2328257 0.222888,-0.393342 -0.137988,-0.1676902 0.277206,-0.7705805 l 0.160778,0.221729 c -0.05961,-0.3979355 0.494047,-0.8842323 0.437986,-1.5135485 0.126849,-0.1919483 0.140732,0.2121292 0.0056,0.6541937 0.187169,-0.4906837 0.04653,-0.5710967 0.09425,-0.975742 0.05127,0.1356905 0.11993,0.2779873 0.155235,0.4213678 -0.12135,-0.4739095 0.12676,-0.7943743 0.188499,-1.0700388 -0.06032,-0.026322 -0.187124,0.204387 -0.216221,-0.354838 0.0042,-0.2432 0.0644,-0.123304 0.08871,-0.182917 -0.04719,-0.02735 -0.173374,-0.212851 -0.249485,-0.571045 0.05465,-0.08392 0.146365,0.21471 0.221765,0.227304 -0.04773,-0.284233 -0.129687,-0.502504 -0.133059,-0.720723 -0.219812,-0.45951 -0.07691,0.06369 -0.255028,-0.194064 -0.233473,-0.729859 0.192668,-0.167743 0.221765,-0.498994 0.354113,0.5136 0.555873,1.305755 0.648658,1.635561 -0.07061,-0.401858 -0.181578,-0.787458 -0.321557,-1.164284 0.108221,0.0449 -0.174527,-0.827509 0.138602,-0.249496 -0.334598,-1.231433 -1.434592,-2.387458 -2.44495,-2.927278 0.122591,0.112826 0.277826,0.254349 0.221764,0.277161 -0.50243,-0.298528 -0.410131,-0.317367 -0.482337,-0.443509 -0.408756,-0.1664 -0.438739,0.01342 -0.709646,0 C 10.057202,0.494647 9.908797,0.533511 9.19862,0.27715 l 0.03326,0.1552 C 8.721113,0.262544 8.636708,0.4962 8.08425,0.43235 8.05106,0.40654 8.260366,0.33521 8.43352,0.310389 7.940139,0.375519 7.963734,0.212739 7.479933,0.326909 7.598443,0.243919 7.724539,0.187606 7.851388,0.116276 z M 7.612952,1.724324 c -0.05561,0.01755 -0.105904,0.03148 -0.133059,0.05543 0.04158,-0.02065 0.08574,-0.03819 0.133059,-0.05543 z M 8.250525,0.205253 c 0.141397,0.02477 0.306345,0.04903 0.282749,0.08315 0.154525,-0.03355 0.189165,-0.06932 -0.282749,-0.08315 z m 0.282749,0.08315 -0.09979,0.01652 0.09425,-0.0057 0.0055,-0.01084 z M 2.007859,3.426416 C 2.048839,3.808144 1.720852,3.955654 2.079929,3.703577 2.27313,3.268222 2.005189,3.584454 2.007859,3.426416 z M 1.714022,4.640506 C 1.484629,4.933615 1.610635,4.995344 1.586507,5.194931 1.669537,4.940531 1.682087,4.788119 1.714022,4.640506 z m 9.447159,1.7741417 c -0.03264,0 -0.07314,0.081136 -0.09425,0.1718708 0.04843,0.025807 0.09088,0.3361035 0.138603,0.144155 0.01596,-0.2384515 -0.01171,-0.316903 -0.04435,-0.3160258 z m 2.899568,0.8039225 -0.03881,0.094245 c -0.07061,0.5066322 -0.223673,1.0090323 -0.460162,1.4747353 0.260619,-0.490787 0.428183,-1.0248773 0.498969,-1.5689806 z m -3.071435,0.1773935 c -0.0353,0.1752775 -0.126095,0.327897 -0.216221,0.4878453 -0.49551,0.3119483 -0.04648,-0.1822968 0,-0.3714583 -0.532234,0.6708648 -0.07473,0.3997938 -0.09425,0.5877163 0.157897,-0.2177033 0.270376,-0.4573418 0.310471,-0.7041033 z M 9.908213,8.4216155 c -0.214846,0.052697 -0.43315,0.053368 -0.654205,0.033548 -0.264698,0.00516 0.0534,0.1352772 0.399176,0.188542 0.0958,-0.074736 0.17821,-0.1483355 0.255029,-0.2217808 z m -3.343097,0.033548 c 0.05819,0.2148647 0.176702,0.4 0.288293,0.5877162 L 6.775789,8.8044282 C 6.683539,8.7026475 6.626851,8.577073 6.565113,8.4551635 z M 6.359984,8.8155247 6.326714,9.0040667 C 6.500577,9.2403505 6.636474,9.49537 6.858949,9.6804538 6.699633,9.368557 6.578905,9.2383377 6.359979,8.8155247 z m 0.33819,0.2772645 c 0.619522,1.1101938 2.516449,1.9451358 3.509421,1.5301678 -0.458787,0.01652 -1.041627,0.01239 -1.557894,-0.177445 -0.189698,-0.09765 -0.441636,-0.291406 -0.465706,-0.365884 -0.0098,0.02374 -0.02581,0.048 -0.01664,0.08315 C 7.786275,9.9846082 7.434114,9.7173052 7.147239,9.3865697 7.299636,9.6090727 7.466757,9.8259502 7.679474,9.9964277 7.319861,9.8750857 6.838145,9.1232404 6.698166,9.0927889 z"
       id="path3159"
       inkscape:connector-curvature="0" />
  </g>
</svg>
