<?xml version="1.0" encoding="UTF-8" standalone="no"?>
<!-- Created with Inkscape (http://www.inkscape.org/) -->

<svg
   xmlns:dc="http://purl.org/dc/elements/1.1/"
   xmlns:cc="http://creativecommons.org/ns#"
   xmlns:rdf="http://www.w3.org/1999/02/22-rdf-syntax-ns#"
   xmlns:svg="http://www.w3.org/2000/svg"
   xmlns="http://www.w3.org/2000/svg"
   xmlns:sodipodi="http://sodipodi.sourceforge.net/DTD/sodipodi-0.dtd"
   xmlns:inkscape="http://www.inkscape.org/namespaces/inkscape"
   width="16px"
   height="16px"
   id="svg3062"
   version="1.1"
   inkscape:version="0.48.3.1 r9886"
   sodipodi:docname="start-here-symbolic-opensuse.svg">
  <defs
     id="defs3064" />
  <sodipodi:namedview
     id="base"
     pagecolor="#ffffff"
     bordercolor="#666666"
     borderopacity="1.0"
     inkscape:pageopacity="0.0"
     inkscape:pageshadow="2"
     inkscape:zoom="20"
     inkscape:cx="8"
     inkscape:cy="8"
     inkscape:current-layer="layer1"
     showgrid="true"
     inkscape:grid-bbox="true"
     inkscape:document-units="px"
     inkscape:window-width="962"
     inkscape:window-height="681"
     inkscape:window-x="22"
     inkscape:window-y="27"
     inkscape:window-maximized="0" />
  <metadata
     id="metadata3067">
    <rdf:RDF>
      <cc:Work
         rdf:about="">
        <dc:format>image/svg+xml</dc:format>
        <dc:type
           rdf:resource="http://purl.org/dc/dcmitype/StillImage" />
        <dc:title></dc:title>
      </cc:Work>
    </rdf:RDF>
  </metadata>
  <g
     id="layer1"
     inkscape:label="Layer 1"
     inkscape:groupmode="layer">
    <path
       style="color:#000000;fill:#b3b3b3;fill-opacity:1;fill-rule:nonzero;stroke:none;stroke-width:1px;marker:none;visibility:visible;display:inline;overflow:visible;enable-background:accumulate"
       d="M 8,0.5 C 3.8578644,0.5 0.5,3.8578644 0.5,8 c 0,4.142136 3.3578644,7.5 7.5,7.5 4.142136,0 7.5,-3.357864 7.5,-7.5 C 15.5,3.8578644 12.142136,0.5 8,0.5 z m 0.036056,1.0396631 c 3.568752,0 6.466346,2.8921228 6.466346,6.4603369 0,3.568751 -2.897954,6.460337 -6.466346,6.460337 -1.9269816,0 -3.654045,-0.843669 -4.837741,-2.18149 0.4866769,-0.37783 1.2988313,-0.282587 2.3016825,-0.16827 0.4805803,0.05469 1.0271503,0.113649 1.5925481,0.126202 1.579816,0.0092 3.2838174,-0.280659 4.3329334,-0.739183 0.678191,-0.297493 1.11072,-0.492079 1.382211,-0.739182 0.09791,-0.08025 0.145956,-0.215415 0.198318,-0.354567 l 0.03606,-0.09014 c 0.04393,-0.112434 0.109979,-0.354799 0.138222,-0.486779 0.01264,-0.05774 0.01693,-0.118232 -0.02404,-0.15024 l -0.14423,0.02404 c -0.460409,0.27606 -1.608763,0.801795 -2.686301,0.823314 C 8.9905869,10.552017 6.2974616,9.1784581 6.0168247,9.0336566 L 5.9867778,9.0036097 C 5.9195309,8.8430281 5.5191603,7.8886119 5.4338937,7.6875041 7.3708259,8.9630122 8.97476,9.669195 10.205528,9.77885 c 1.368396,0.12158 2.440084,-0.6303281 2.896635,-0.9495197 0.08912,-0.060787 0.152314,-0.1038712 0.180288,-0.1141819 l 0.03005,-0.054084 C 13.236822,8.1802091 12.518928,5.8547056 11.978366,5.2956734 11.828453,5.1423538 11.709541,4.9930728 11.467548,4.8509619 9.5108,3.7104819 4.8641506,3.02573 4.6466347,2.99399 l -0.036056,0.006 -0.012019,0.036056 c 0,0 -0.016059,0.9626568 -0.018028,1.0697118 C 4.4211153,4.0530331 3.9243969,3.8913087 3.2163491,3.6971037 4.1403884,2.553845 5.5582062,1.5396519 8.0360609,1.5396519 z m 1.70673,3.4194713 c 0.032906,-5.382e-4 0.068897,-0.00122 0.102164,0 1.096098,0.039356 1.954545,0.9599081 1.917068,2.0552887 -0.01945,0.5298928 -0.244036,1.0205213 -0.63101,1.3822116 C 10.742958,8.7602075 10.239581,8.948705 9.7067291,8.9314906 8.6124238,8.8906062 7.7541556,7.9700581 7.7896616,6.8762019 7.8084022,6.3455019 8.0313659,5.8545144 8.4206712,5.4939903 8.784065,5.1531912 9.2481303,4.9665762 9.7427863,4.9591344 z M 9.6887019,5.5420672 C 9.3694213,5.5615203 9.0712334,5.6935606 8.8353369,5.9146634 8.566535,6.1669681 8.4082906,6.5060844 8.3966347,6.8762019 8.3712566,7.6408259 8.9667734,8.2841675 9.7307694,8.3124997 10.102053,8.3238903 10.457233,8.1975003 10.728365,7.9459137 10.998781,7.6923538 11.155501,7.3468691 11.167067,6.978365 11.192623,6.2124866 10.591098,5.5688759 9.8269231,5.5420672 c -0.046172,-0.00169 -0.092672,-0.00281 -0.1382212,0 z m 0.3665871,0.6971156 c 0.339544,0 0.61298,0.1815441 0.61298,0.4086534 0,0.2260341 -0.273437,0.4146638 -0.61298,0.4146638 -0.3406202,0 -0.6189912,-0.1889878 -0.6189912,-0.4146638 0,-0.2271093 0.278371,-0.4086534 0.6189912,-0.4086534 z"
       id="path3047"
       inkscape:connector-curvature="0" />
  </g>
</svg>
