<?xml version="1.0" encoding="UTF-8" standalone="no"?>
<!-- Created with Inkscape (http://www.inkscape.org/) -->

<svg
   xmlns:dc="http://purl.org/dc/elements/1.1/"
   xmlns:cc="http://creativecommons.org/ns#"
   xmlns:rdf="http://www.w3.org/1999/02/22-rdf-syntax-ns#"
   xmlns:svg="http://www.w3.org/2000/svg"
   xmlns="http://www.w3.org/2000/svg"
   xmlns:sodipodi="http://sodipodi.sourceforge.net/DTD/sodipodi-0.dtd"
   xmlns:inkscape="http://www.inkscape.org/namespaces/inkscape"
   width="16px"
   height="16px"
   id="svg3059"
   version="1.1"
   inkscape:version="0.48.3.1 r9886"
   sodipodi:docname="New document 3">
  <defs
     id="defs3061" />
  <sodipodi:namedview
     id="base"
     pagecolor="#ffffff"
     bordercolor="#666666"
     borderopacity="1.0"
     inkscape:pageopacity="0.0"
     inkscape:pageshadow="2"
     inkscape:zoom="22.197802"
     inkscape:cx="8"
     inkscape:cy="8"
     inkscape:current-layer="layer1"
     showgrid="true"
     inkscape:grid-bbox="true"
     inkscape:document-units="px"
     inkscape:window-width="1001"
     inkscape:window-height="694"
     inkscape:window-x="101"
     inkscape:window-y="49"
     inkscape:window-maximized="0" />
  <metadata
     id="metadata3064">
    <rdf:RDF>
      <cc:Work
         rdf:about="">
        <dc:format>image/svg+xml</dc:format>
        <dc:type
           rdf:resource="http://purl.org/dc/dcmitype/StillImage" />
        <dc:title></dc:title>
      </cc:Work>
    </rdf:RDF>
  </metadata>
  <g
     id="layer1"
     inkscape:label="Layer 1"
     inkscape:groupmode="layer">
    <path
       inkscape:connector-curvature="0"
       style="fill:#b3b3b3"
       d="m 7.4344325,0 c -0.17266,1.61e-4 -0.334998,0.06973 -0.456999,0.191889 -0.12192,0.122243 -0.189606,0.284016 -0.189364,0.456999 2.35e-4,0.356064 0.290298,0.646362 0.646363,0.646362 l 0.0025,0 C 7.7934015,1.29492 8.0810935,1.003316 8.0807705,0.646363 8.0805485,0.290459 7.7910655,0 7.4344345,0 z m 1.939087,0.972069 c -0.400905,2.35e-4 -0.72732,0.325363 -0.727158,0.727158 4.95e-4,0.400341 0.3291,0.727158 0.729683,0.727158 0.194232,-2.36e-4 0.375192,-0.0771 0.512545,-0.214613 C 10.02578,2.07442 10.10084,1.8915 10.100677,1.696702 10.100182,1.29628 9.7745875,0.972069 9.3735195,0.972069 z m -1.535111,1.292725 c -0.215804,1.62e-4 -0.418075,0.08203 -0.570617,0.234811 -0.15246,0.152623 -0.237498,0.35653 -0.237336,0.573142 4e-4,0.44486 0.362771,0.807954 0.807953,0.807954 l 0.0025,0 c 0.215884,-1.62e-4 0.418157,-0.08471 0.570617,-0.237337 0.15246,-0.152703 0.234972,-0.35661 0.234812,-0.573141 -2.35e-4,-0.44494 -0.362045,-0.805429 -0.807955,-0.805429 z m 1.777499,1.373521 c -0.490106,4e-4 -0.889235,0.398078 -0.888751,0.888748 2.59e-4,0.4893775 0.398968,0.888749 0.888751,0.888749 l 0.0025,0 C 10.108433,5.4153414 10.505036,5.0152085 10.504633,4.524539 10.504139,4.035161 10.106311,3.638315 9.6158825,3.638315 z m -2.908633,0.484772 c -0.534542,5.65e-4 -0.969948,0.434032 -0.969544,0.9695436 5.64e-4,0.5337339 0.435486,0.969544 0.969544,0.969544 l 0.0025,0 C 7.2443165,6.0616099 7.6771975,5.6256172 7.6767935,5.0901056 7.6761345,4.556372 7.2421145,4.123087 6.7072495,4.123087 z m -1.603282,1.6967015 c -0.179306,-1.04e-5 -0.359298,0.059304 -0.504972,0.1817896 -1.278586,1.0748203 -2.012308,2.6688311 -2.012308,4.3730469 0,3.101086 2.428384,5.625375 5.413287,5.625375 2.9849035,0 5.4132875,-2.524208 5.4132875,-5.625375 0,-1.7051045 -0.73225,-3.299277 -2.009785,-4.3730471 -0.291427,-0.2449713 -0.715987,-0.2450523 -1.007417,0 -0.6872455,0.5780906 -1.5168705,0.883699 -2.3960855,0.883699 -0.878164,0 -1.703792,-0.3056891 -2.391037,-0.883699 C 5.4632085,5.879052 5.2832965,5.8197991 5.1039925,5.8197885 z m 0.07827,1.8153701 c 0.844069,0.5356729 1.822338,0.825627 2.817737,0.825627 0.996368,0 1.976113,-0.2900348 2.8202635,-0.825627 0.652987,0.7425899 1.017515,1.712336 1.017515,2.7419914 0,2.230032 -1.721668,4.044816 -3.8377785,4.044816 -2.116191,0 -3.837778,-1.814784 -3.837778,-4.044816 0,-1.0289286 0.366083,-1.9989975 1.020041,-2.7419914 z"
       id="path52" />
  </g>
</svg>
