<?xml version="1.0" encoding="UTF-8" standalone="no"?>
<!-- Created with Inkscape (http://www.inkscape.org/) -->

<svg
   xmlns:dc="http://purl.org/dc/elements/1.1/"
   xmlns:cc="http://creativecommons.org/ns#"
   xmlns:rdf="http://www.w3.org/1999/02/22-rdf-syntax-ns#"
   xmlns:svg="http://www.w3.org/2000/svg"
   xmlns="http://www.w3.org/2000/svg"
   xmlns:sodipodi="http://sodipodi.sourceforge.net/DTD/sodipodi-0.dtd"
   xmlns:inkscape="http://www.inkscape.org/namespaces/inkscape"
   width="16px"
   height="16px"
   id="svg3069"
   version="1.1"
   inkscape:version="0.48.3.1 r9886"
   sodipodi:docname="New document 3">
  <defs
     id="defs3071" />
  <sodipodi:namedview
     id="base"
     pagecolor="#ffffff"
     bordercolor="#666666"
     borderopacity="1.0"
     inkscape:pageopacity="0.0"
     inkscape:pageshadow="2"
     inkscape:zoom="22.197802"
     inkscape:cx="8"
     inkscape:cy="8"
     inkscape:current-layer="layer1"
     showgrid="true"
     inkscape:grid-bbox="true"
     inkscape:document-units="px"
     inkscape:window-width="968"
     inkscape:window-height="694"
     inkscape:window-x="138"
     inkscape:window-y="1"
     inkscape:window-maximized="0" />
  <metadata
     id="metadata3074">
    <rdf:RDF>
      <cc:Work
         rdf:about="">
        <dc:format>image/svg+xml</dc:format>
        <dc:type
           rdf:resource="http://purl.org/dc/dcmitype/StillImage" />
        <dc:title></dc:title>
      </cc:Work>
    </rdf:RDF>
  </metadata>
  <g
     id="layer1"
     inkscape:label="Layer 1"
     inkscape:groupmode="layer">
    <path
       inkscape:connector-curvature="0"
       style="color:#000000;fill:#b3b3b3;fill-opacity:1;fill-rule:nonzero;stroke:none;stroke-width:2;marker:none;visibility:visible;display:inline;overflow:visible;enable-background:accumulate"
       d="m 0,1.470588 0,3.82353 0.970588,0 c 0.509348,-3.75e-4 0.970955,0.46124 0.970589,0.970588 l 0,1.588235 0,2.82353 c 0,2.144835 1.678695,3.852941 3.823529,3.852941 l 4.441176,0 4.794118,0 0,-3.852941 0,-5.382353 c 0,-2.144835 -1.708107,-3.82353 -3.852941,-3.82353 l -2.441177,0 -1.941176,0 -5.794118,0 -0.970588,0 z m 3.735294,1.794118 0.911765,0 0,7.411764 0,0.235295 c 0,0.50535 0.424166,0.911765 0.941176,0.911765 l 5.705883,0 c 0.517009,0 0.911764,-0.406414 0.911764,-0.911765 l 0,-0.235295 0,-0.823528 0,-1.882354 0,-0.941176 c 0,-0.519798 -0.421379,-0.941177 -0.941176,-0.941177 -0.519798,0 -0.941176,0.421379 -0.941176,0.941177 l 0,0.941176 0,1.882354 -0.941177,0 0,-1.882354 0,-0.941176 C 9.382353,6.509614 8.960974,6.088235 8.441176,6.088235 7.921379,6.088235 7.5,6.509614 7.5,7.029412 l 0,2.82353 -0.941176,0 0,-2.82353 c 0,-1.039595 0.842758,-1.882353 1.882352,-1.882353 0.565504,0 1.066716,0.252283 1.411765,0.647059 0.34505,-0.394776 0.846262,-0.647059 1.411765,-0.647059 1.039594,0 1.882353,0.842758 1.882353,1.882353 l 0,0.941176 0,1.882354 0,0.823528 0,0.235295 c 0,1.0107 -0.818921,1.823529 -1.852941,1.823529 l -5.705883,0 c -1.03402,0 -1.852941,-0.812829 -1.852941,-1.823529 l 0,-0.235295 0,-7.411764 z"
       id="path3098" />
  </g>
</svg>
