<?xml version="1.0" encoding="UTF-8" standalone="no"?>
<!-- Created with Inkscape (http://www.inkscape.org/) -->

<svg
   xmlns:dc="http://purl.org/dc/elements/1.1/"
   xmlns:cc="http://creativecommons.org/ns#"
   xmlns:rdf="http://www.w3.org/1999/02/22-rdf-syntax-ns#"
   xmlns:svg="http://www.w3.org/2000/svg"
   xmlns="http://www.w3.org/2000/svg"
   xmlns:sodipodi="http://sodipodi.sourceforge.net/DTD/sodipodi-0.dtd"
   xmlns:inkscape="http://www.inkscape.org/namespaces/inkscape"
   id="svg7384"
   height="16"
   width="16"
   version="1.1"
   inkscape:version="0.48.3.1 r9886"
   sodipodi:docname="user-desktop.svg">
  <defs
     id="defs12" />
  <sodipodi:namedview
     pagecolor="#ffffff"
     bordercolor="#666666"
     borderopacity="1"
     objecttolerance="10"
     gridtolerance="10"
     guidetolerance="10"
     inkscape:pageopacity="0"
     inkscape:pageshadow="2"
     inkscape:window-width="1080"
     inkscape:window-height="771"
     id="namedview10"
     showgrid="true"
     inkscape:zoom="33.8125"
     inkscape:cx="8"
     inkscape:cy="8"
     inkscape:window-x="0"
     inkscape:window-y="24"
     inkscape:window-maximized="0"
     inkscape:current-layer="svg7384">
    <inkscape:grid
       type="xygrid"
       id="grid2989" />
  </sodipodi:namedview>
  <metadata
     id="metadata90">
    <rdf:RDF>
      <cc:Work
         rdf:about="">
        <dc:format>image/svg+xml</dc:format>
        <dc:type
           rdf:resource="http://purl.org/dc/dcmitype/StillImage" />
        <dc:title>Gnome Symbolic Icon Theme</dc:title>
      </cc:Work>
    </rdf:RDF>
  </metadata>
  <title
     id="title9167">Gnome Symbolic Icon Theme</title>
  <path
     style="opacity:1;color:#000000;fill:#bebebe;fill-opacity:1;fill-rule:evenodd;stroke:none;stroke-width:1px;marker:none;visibility:visible;display:inline;overflow:visible;enable-background:accumulate"
     d="M 1 2 C 0.446 2 0 2.446 0 3 L 0 5 L 1.5 5 L 1.5 3.5 L 3 3.5 L 3 2 L 1 2 z M 13 2 L 13 3.5 L 14.5 3.5 L 14.5 5 L 16 5 L 16 3 C 16 2.446 15.554 2 15 2 L 13 2 z M 0 11 L 0 13 C 0 13.554 0.446 14 1 14 L 3 14 L 3 12.5 L 1.5 12.5 L 1.5 11 L 0 11 z M 14.5 11 L 14.5 12.5 L 13 12.5 L 13 14 L 15 14 C 15.554 14 16 13.554 16 13 L 16 11 L 14.5 11 z "
     id="rect2993" />
  <path
     style="opacity:1;color:#000000;fill:#bebebe;fill-opacity:1;fill-rule:evenodd;stroke:none;stroke-width:1px;marker:none;visibility:visible;display:inline;overflow:visible;enable-background:accumulate"
     d="M 3 3.5 L 3 5 L 13 5 L 13 3.5 L 3 3.5 z M 13 5 L 13 11 L 14.5 11 L 14.5 5 L 13 5 z M 13 11 L 3 11 L 3 12.5 L 13 12.5 L 13 11 z M 3 11 L 3 5 L 1.5 5 L 1.5 11 L 3 11 z "
     id="path3037" />
</svg>
