<?xml version="1.0" encoding="UTF-8" standalone="no"?>
<!-- Created with Inkscape (http://www.inkscape.org/) -->

<svg
   xmlns:dc="http://purl.org/dc/elements/1.1/"
   xmlns:cc="http://creativecommons.org/ns#"
   xmlns:rdf="http://www.w3.org/1999/02/22-rdf-syntax-ns#"
   xmlns:svg="http://www.w3.org/2000/svg"
   xmlns="http://www.w3.org/2000/svg"
   xmlns:xlink="http://www.w3.org/1999/xlink"
   xmlns:sodipodi="http://sodipodi.sourceforge.net/DTD/sodipodi-0.dtd"
   xmlns:inkscape="http://www.inkscape.org/namespaces/inkscape"
   version="1.0"
   width="96"
   height="96"
   id="svg3669"
   sodipodi:version="0.32"
   inkscape:version="0.48.3.1 r9886"
   sodipodi:docname="emblem-readonly1.svg"
   inkscape:output_extension="org.inkscape.output.svgz.inkscape"
   inkscape:export-filename="/home/pinheiro/pics/oxygen/scalable/actions/dialog-cancel.png"
   inkscape:export-xdpi="180"
   inkscape:export-ydpi="180">
  <metadata
     id="metadata754">
    <rdf:RDF>
      <cc:Work
         rdf:about="">
        <dc:format>image/svg+xml</dc:format>
        <dc:type
           rdf:resource="http://purl.org/dc/dcmitype/StillImage" />
        <dc:title />
      </cc:Work>
    </rdf:RDF>
  </metadata>
  <sodipodi:namedview
     inkscape:window-height="701"
     inkscape:window-width="1045"
     inkscape:pageshadow="2"
     inkscape:pageopacity="0.0"
     guidetolerance="10.0"
     gridtolerance="10.0"
     objecttolerance="10.0"
     borderopacity="1.0"
     bordercolor="#666666"
     pagecolor="#ffffff"
     id="base"
     inkscape:zoom="4.5208333"
     inkscape:cx="48"
     inkscape:cy="48"
     inkscape:window-x="19"
     inkscape:window-y="74"
     inkscape:current-layer="svg3669"
     showgrid="false"
     fit-margin-top="0"
     fit-margin-left="0"
     fit-margin-right="0"
     fit-margin-bottom="0"
     inkscape:window-maximized="0" />
  <defs
     id="defs3671">
    <linearGradient
       id="linearGradient3260-778">
      <stop
         id="stop2489"
         style="stop-color:#ffffff;stop-opacity:1"
         offset="0" />
      <stop
         id="stop2491"
         style="stop-color:#ffffff;stop-opacity:0"
         offset="1" />
    </linearGradient>
    <linearGradient
       id="linearGradient3527">
      <stop
         id="stop3529"
         style="stop-color:#ff0000;stop-opacity:1"
         offset="0" />
      <stop
         id="stop3531"
         style="stop-color:#7f0000;stop-opacity:1"
         offset="1" />
    </linearGradient>
    <linearGradient
       id="linearGradient3551">
      <stop
         id="stop3553"
         style="stop-color:#bf0000;stop-opacity:1"
         offset="0" />
      <stop
         id="stop3555"
         style="stop-color:#8c0000;stop-opacity:1"
         offset="1" />
    </linearGradient>
    <linearGradient
       id="linearGradient3598">
      <stop
         id="stop3600"
         style="stop-color:#ffbfbf;stop-opacity:1"
         offset="0" />
      <stop
         id="stop3602"
         style="stop-color:#ffbfbf;stop-opacity:0"
         offset="1" />
    </linearGradient>
    <linearGradient
       id="linearGradient3671">
      <stop
         id="stop3673"
         style="stop-color:#1a0000;stop-opacity:1"
         offset="0" />
      <stop
         id="stop3675"
         style="stop-color:#a20000;stop-opacity:0"
         offset="1" />
    </linearGradient>
    <linearGradient
       inkscape:collect="always"
       xlink:href="#linearGradient3598"
       id="linearGradient3969"
       gradientUnits="userSpaceOnUse"
       gradientTransform="matrix(0.75881655,0,0,0.75881655,108.87713,11.577639)"
       x1="-89.75"
       y1="-28.999977"
       x2="-73.8125"
       y2="76.000023" />
    <linearGradient
       inkscape:collect="always"
       xlink:href="#linearGradient3260-778"
       id="linearGradient3971"
       gradientUnits="userSpaceOnUse"
       gradientTransform="matrix(0.75881655,0,0,0.75881655,108.66235,11.416269)"
       x1="-89.75"
       y1="-28.999977"
       x2="-73.8125"
       y2="76.000023" />
    <linearGradient
       inkscape:collect="always"
       xlink:href="#linearGradient3260-778"
       id="linearGradient3973"
       gradientUnits="userSpaceOnUse"
       gradientTransform="matrix(0.75881655,0,0,0.75881655,108.73423,11.49215)"
       x1="-13.20569"
       y1="84.70369"
       x2="-84.772652"
       y2="19.43148" />
    <radialGradient
       inkscape:collect="always"
       xlink:href="#linearGradient3527"
       id="radialGradient3980"
       gradientUnits="userSpaceOnUse"
       gradientTransform="matrix(0.91124508,0,0,1.1000772,120.21616,-20.966983)"
       cx="-79.25"
       cy="81.75"
       fx="-79.25"
       fy="81.75"
       r="43.5" />
    <linearGradient
       inkscape:collect="always"
       xlink:href="#linearGradient3671"
       id="linearGradient3984"
       gradientUnits="userSpaceOnUse"
       gradientTransform="matrix(0.7298398,0,0,0.73003802,47.714908,-159.96958)"
       x1="11.843751"
       y1="365.3761"
       x2="19.390625"
       y2="206.375" />
    <linearGradient
       inkscape:collect="always"
       xlink:href="#linearGradient3551"
       id="linearGradient3987"
       gradientUnits="userSpaceOnUse"
       gradientTransform="matrix(0.7298398,0,0,0.73003802,47.714907,-159.96958)"
       x1="3.3437505"
       y1="236.8761"
       x2="0.390625"
       y2="351.875" />
    <radialGradient
       inkscape:collect="always"
       xlink:href="#linearGradient2257"
       id="radialGradient3759"
       gradientUnits="userSpaceOnUse"
       gradientTransform="matrix(-2.8660972,2.7612343,12.944708,11.374927,-1335.9303,-1395.3751)"
       cx="42.617531"
       cy="120.64188"
       fx="42.617531"
       fy="120.64188"
       r="3.406888" />
    <linearGradient
       id="linearGradient2257">
      <stop
         style="stop-color:#b4942a;stop-opacity:1;"
         offset="0"
         id="stop2259" />
      <stop
         style="stop-color:#e4dcc9;stop-opacity:1"
         offset="1"
         id="stop2261" />
    </linearGradient>
    <linearGradient
       inkscape:collect="always"
       xlink:href="#linearGradient2598"
       id="linearGradient3756"
       gradientUnits="userSpaceOnUse"
       gradientTransform="matrix(-1.4992869,0,0,1.5011476,179.9642,-72.166704)"
       x1="75.848022"
       y1="72.804123"
       x2="81.452583"
       y2="77.047241" />
    <linearGradient
       id="linearGradient2598">
      <stop
         id="stop2600"
         offset="0"
         style="stop-color:#252525;stop-opacity:1;" />
      <stop
         style="stop-color:#252525;stop-opacity:1;"
         offset="0.5"
         id="stop2606" />
      <stop
         id="stop2608"
         offset="0.75"
         style="stop-color:#252525;stop-opacity:1;" />
      <stop
         id="stop2602"
         offset="1"
         style="stop-color:#000000;stop-opacity:1;" />
    </linearGradient>
    <linearGradient
       inkscape:collect="always"
       xlink:href="#linearGradient7364"
       id="linearGradient3752"
       gradientUnits="userSpaceOnUse"
       gradientTransform="matrix(-1.4992869,0,0,1.5011476,179.9642,-72.166704)"
       x1="76.708534"
       y1="83.325729"
       x2="80.579521"
       y2="87.154587" />
    <linearGradient
       id="linearGradient7364">
      <stop
         offset="0"
         style="stop-color:#d4a100;stop-opacity:0.97647059"
         id="stop7366" />
      <stop
         offset="1"
         style="stop-color:#ffc712;stop-opacity:1"
         id="stop7368" />
    </linearGradient>
    <linearGradient
       inkscape:collect="always"
       xlink:href="#linearGradient3058"
       id="linearGradient3747"
       gradientUnits="userSpaceOnUse"
       gradientTransform="matrix(-1.9330911,1.7621545,0.82060192,0.93277261,57.538002,-30.296335)"
       x1="11.326384"
       y1="57.383999"
       x2="14.493531"
       y2="57.383999" />
    <linearGradient
       id="linearGradient3058">
      <stop
         id="stop3060"
         offset="0"
         style="stop-color:#9a7600;stop-opacity:1;" />
      <stop
         style="stop-color:#e3ad00;stop-opacity:1;"
         offset="0.09292036"
         id="stop3066" />
      <stop
         id="stop3070"
         offset="0.5043171"
         style="stop-color:#ffcd2c;stop-opacity:1;" />
      <stop
         id="stop3068"
         offset="0.91571385"
         style="stop-color:#e3ad00;stop-opacity:1;" />
      <stop
         id="stop3062"
         offset="1"
         style="stop-color:#b98d00;stop-opacity:1;" />
    </linearGradient>
    <linearGradient
       inkscape:collect="always"
       xlink:href="#linearGradient2922"
       id="linearGradient3741"
       gradientUnits="userSpaceOnUse"
       gradientTransform="matrix(-0.92814631,0,0,0.93572209,143.98132,-0.12086129)"
       x1="33.342377"
       y1="117.83894"
       x2="24.450998"
       y2="107.35519" />
    <linearGradient
       id="linearGradient2922">
      <stop
         offset="0"
         style="stop-color:#000000;stop-opacity:1"
         id="stop2924" />
      <stop
         offset="1"
         style="stop-color:#515151;stop-opacity:1"
         id="stop2926" />
    </linearGradient>
    <linearGradient
       inkscape:collect="always"
       xlink:href="#linearGradient3551"
       id="linearGradient4697"
       gradientUnits="userSpaceOnUse"
       gradientTransform="matrix(0.7298398,0,0,0.73003802,47.714907,-159.96958)"
       x1="3.3437505"
       y1="236.8761"
       x2="0.390625"
       y2="351.875" />
    <linearGradient
       inkscape:collect="always"
       xlink:href="#linearGradient3671"
       id="linearGradient4699"
       gradientUnits="userSpaceOnUse"
       gradientTransform="matrix(0.7298398,0,0,0.73003802,47.714908,-159.96958)"
       x1="11.843751"
       y1="365.3761"
       x2="19.390625"
       y2="206.375" />
    <radialGradient
       inkscape:collect="always"
       xlink:href="#linearGradient3527"
       id="radialGradient4701"
       gradientUnits="userSpaceOnUse"
       gradientTransform="matrix(0.91124508,0,0,1.1000772,120.21616,-20.966983)"
       cx="-79.25"
       cy="81.75"
       fx="-79.25"
       fy="81.75"
       r="43.5" />
    <linearGradient
       inkscape:collect="always"
       xlink:href="#linearGradient3598"
       id="linearGradient4703"
       gradientUnits="userSpaceOnUse"
       gradientTransform="matrix(0.75881655,0,0,0.75881655,108.87713,11.577639)"
       x1="-89.75"
       y1="-28.999977"
       x2="-73.8125"
       y2="76.000023" />
    <linearGradient
       inkscape:collect="always"
       xlink:href="#linearGradient3260-778"
       id="linearGradient4705"
       gradientUnits="userSpaceOnUse"
       gradientTransform="matrix(0.75881655,0,0,0.75881655,108.66235,11.416269)"
       x1="-89.75"
       y1="-28.999977"
       x2="-73.8125"
       y2="76.000023" />
    <linearGradient
       inkscape:collect="always"
       xlink:href="#linearGradient3260-778"
       id="linearGradient4707"
       gradientUnits="userSpaceOnUse"
       gradientTransform="matrix(0.75881655,0,0,0.75881655,108.73423,11.49215)"
       x1="-13.20569"
       y1="84.70369"
       x2="-84.772652"
       y2="19.43148" />
    <radialGradient
       inkscape:collect="always"
       xlink:href="#linearGradient3527"
       id="radialGradient4714"
       gradientUnits="userSpaceOnUse"
       gradientTransform="matrix(0.91124508,0,0,1.1000772,120.21616,-20.966983)"
       cx="-79.25"
       cy="81.75"
       fx="-79.25"
       fy="81.75"
       r="43.5" />
    <linearGradient
       inkscape:collect="always"
       xlink:href="#linearGradient3671"
       id="linearGradient4717"
       gradientUnits="userSpaceOnUse"
       gradientTransform="matrix(0.7298398,0,0,0.73003802,47.714908,-159.96958)"
       x1="11.843751"
       y1="365.3761"
       x2="19.390625"
       y2="206.375" />
    <linearGradient
       inkscape:collect="always"
       xlink:href="#linearGradient3551"
       id="linearGradient4720"
       gradientUnits="userSpaceOnUse"
       gradientTransform="matrix(0.7298398,0,0,0.73003802,47.714907,-159.96958)"
       x1="3.3437505"
       y1="236.8761"
       x2="0.390625"
       y2="351.875" />
    <linearGradient
       inkscape:collect="always"
       xlink:href="#linearGradient3598"
       id="linearGradient4727"
       gradientUnits="userSpaceOnUse"
       gradientTransform="matrix(0.75881655,0,0,0.75881655,108.87713,11.577639)"
       x1="-89.75"
       y1="-28.999977"
       x2="-73.8125"
       y2="76.000023" />
    <linearGradient
       inkscape:collect="always"
       xlink:href="#linearGradient3260-778"
       id="linearGradient4729"
       gradientUnits="userSpaceOnUse"
       gradientTransform="matrix(0.75881655,0,0,0.75881655,108.66235,11.416269)"
       x1="-89.75"
       y1="-28.999977"
       x2="-73.8125"
       y2="76.000023" />
    <linearGradient
       inkscape:collect="always"
       xlink:href="#linearGradient3260-778"
       id="linearGradient4731"
       gradientUnits="userSpaceOnUse"
       gradientTransform="matrix(0.75881655,0,0,0.75881655,108.73423,11.49215)"
       x1="-13.20569"
       y1="84.70369"
       x2="-84.772652"
       y2="19.43148" />
    <linearGradient
       inkscape:collect="always"
       xlink:href="#linearGradient3260-778"
       id="linearGradient4734"
       gradientUnits="userSpaceOnUse"
       gradientTransform="matrix(0.7298398,0,0,0.73003802,105.69363,12.876732)"
       x1="-13.20569"
       y1="84.70369"
       x2="-84.772652"
       y2="19.43148" />
    <linearGradient
       inkscape:collect="always"
       xlink:href="#linearGradient3260-778"
       id="linearGradient4737"
       gradientUnits="userSpaceOnUse"
       gradientTransform="matrix(0.7298398,0,0,0.73003802,105.62449,12.803728)"
       x1="-89.75"
       y1="-28.999977"
       x2="-73.8125"
       y2="76.000023" />
    <linearGradient
       inkscape:collect="always"
       xlink:href="#linearGradient3598"
       id="linearGradient4740"
       gradientUnits="userSpaceOnUse"
       gradientTransform="matrix(0.7298398,0,0,0.73003802,105.83107,12.958978)"
       x1="-89.75"
       y1="-28.999977"
       x2="-73.8125"
       y2="76.000023" />
    <radialGradient
       inkscape:collect="always"
       xlink:href="#linearGradient2257-4"
       id="radialGradient3875"
       gradientUnits="userSpaceOnUse"
       gradientTransform="matrix(-2.8660972,2.7612343,12.944708,11.374927,-1335.9303,-1395.3751)"
       cx="42.617531"
       cy="120.64188"
       fx="42.617531"
       fy="120.64188"
       r="3.406888" />
    <linearGradient
       id="linearGradient2257-4">
      <stop
         style="stop-color:#b4942a;stop-opacity:1;"
         offset="0"
         id="stop2259-2" />
      <stop
         style="stop-color:#e4dcc9;stop-opacity:1"
         offset="1"
         id="stop2261-3" />
    </linearGradient>
    <linearGradient
       inkscape:collect="always"
       xlink:href="#linearGradient7364-8"
       id="linearGradient3868"
       gradientUnits="userSpaceOnUse"
       gradientTransform="matrix(-1.4992869,0,0,1.5011476,179.9642,-72.166704)"
       x1="76.708534"
       y1="83.325729"
       x2="80.579521"
       y2="87.154587" />
    <linearGradient
       id="linearGradient7364-8">
      <stop
         offset="0"
         style="stop-color:#d4a100;stop-opacity:0.97647059"
         id="stop7366-7" />
      <stop
         offset="1"
         style="stop-color:#ffc712;stop-opacity:1"
         id="stop7368-7" />
    </linearGradient>
    <linearGradient
       inkscape:collect="always"
       xlink:href="#linearGradient3058-0"
       id="linearGradient3863"
       gradientUnits="userSpaceOnUse"
       gradientTransform="matrix(-1.9330911,1.7621545,0.82060192,0.93277261,57.538002,-30.296335)"
       x1="11.326384"
       y1="57.383999"
       x2="14.493531"
       y2="57.383999" />
    <linearGradient
       id="linearGradient3058-0">
      <stop
         id="stop3060-9"
         offset="0"
         style="stop-color:#9a7600;stop-opacity:1;" />
      <stop
         style="stop-color:#e3ad00;stop-opacity:1;"
         offset="0.09292036"
         id="stop3066-9" />
      <stop
         id="stop3070-5"
         offset="0.5043171"
         style="stop-color:#ffcd2c;stop-opacity:1;" />
      <stop
         id="stop3068-7"
         offset="0.91571385"
         style="stop-color:#e3ad00;stop-opacity:1;" />
      <stop
         id="stop3062-4"
         offset="1"
         style="stop-color:#b98d00;stop-opacity:1;" />
    </linearGradient>
    <linearGradient
       inkscape:collect="always"
       xlink:href="#linearGradient5826"
       id="linearGradient3860"
       gradientUnits="userSpaceOnUse"
       gradientTransform="matrix(1.5001254,0,0,1.5003225,-182.35194,67.391241)"
       x1="114.92793"
       y1="-22.560064"
       x2="100.65602"
       y2="-22.052734" />
    <linearGradient
       id="linearGradient5826">
      <stop
         offset="0"
         style="stop-color:#980000;stop-opacity:1"
         id="stop5828" />
      <stop
         offset="1"
         style="stop-color:#db5c5c;stop-opacity:1"
         id="stop5830" />
    </linearGradient>
    <linearGradient
       inkscape:collect="always"
       xlink:href="#linearGradient2922-0"
       id="linearGradient3857"
       gradientUnits="userSpaceOnUse"
       gradientTransform="matrix(-0.92814631,0,0,0.93572209,143.98132,-0.12086129)"
       x1="33.342377"
       y1="117.83894"
       x2="24.450998"
       y2="107.35519" />
    <linearGradient
       id="linearGradient2922-0">
      <stop
         offset="0"
         style="stop-color:#000000;stop-opacity:1"
         id="stop2924-3" />
      <stop
         offset="1"
         style="stop-color:#515151;stop-opacity:1"
         id="stop2926-7" />
    </linearGradient>
    <linearGradient
       inkscape:collect="always"
       xlink:href="#linearGradient5433"
       id="linearGradient3854"
       gradientUnits="userSpaceOnUse"
       gradientTransform="matrix(-1.4972624,0,0,1.5009811,179.75364,-72.158713)"
       x1="92.226158"
       y1="54.119438"
       x2="96.579895"
       y2="57.15118" />
    <linearGradient
       id="linearGradient5433">
      <stop
         offset="0"
         style="stop-color:#ea3838;stop-opacity:1"
         id="stop5435" />
      <stop
         offset="1"
         style="stop-color:#c40000;stop-opacity:1"
         id="stop5437" />
    </linearGradient>
    <radialGradient
       inkscape:collect="always"
       xlink:href="#linearGradient2257-4"
       id="radialGradient4944"
       gradientUnits="userSpaceOnUse"
       gradientTransform="matrix(-2.8660972,2.7612343,12.944708,11.374927,-1335.9303,-1395.3751)"
       cx="42.617531"
       cy="120.64188"
       fx="42.617531"
       fy="120.64188"
       r="3.406888" />
    <linearGradient
       inkscape:collect="always"
       xlink:href="#linearGradient7364-8"
       id="linearGradient4946"
       gradientUnits="userSpaceOnUse"
       gradientTransform="matrix(-1.4992869,0,0,1.5011476,179.9642,-72.166704)"
       x1="76.708534"
       y1="83.325729"
       x2="80.579521"
       y2="87.154587" />
    <linearGradient
       inkscape:collect="always"
       xlink:href="#linearGradient3058-0"
       id="linearGradient4948"
       gradientUnits="userSpaceOnUse"
       gradientTransform="matrix(-1.9330911,1.7621545,0.82060192,0.93277261,57.538002,-30.296335)"
       x1="11.326384"
       y1="57.383999"
       x2="14.493531"
       y2="57.383999" />
    <linearGradient
       inkscape:collect="always"
       xlink:href="#linearGradient5826"
       id="linearGradient4950"
       gradientUnits="userSpaceOnUse"
       gradientTransform="matrix(1.5001254,0,0,1.5003225,-182.35194,67.391241)"
       x1="114.92793"
       y1="-22.560064"
       x2="100.65602"
       y2="-22.052734" />
    <linearGradient
       inkscape:collect="always"
       xlink:href="#linearGradient2922-0"
       id="linearGradient4952"
       gradientUnits="userSpaceOnUse"
       gradientTransform="matrix(-0.92814631,0,0,0.93572209,143.98132,-0.12086129)"
       x1="33.342377"
       y1="117.83894"
       x2="24.450998"
       y2="107.35519" />
    <clipPath
       clipPathUnits="userSpaceOnUse"
       id="clipPath4978">
      <path
         style="font-size:medium;font-style:normal;font-variant:normal;font-weight:normal;font-stretch:normal;text-indent:0;text-align:start;text-decoration:none;line-height:normal;letter-spacing:normal;word-spacing:normal;text-transform:none;direction:ltr;block-progression:tb;writing-mode:lr-tb;text-anchor:start;baseline-shift:baseline;color:#000000;fill:#ff0000;fill-opacity:1;stroke:none;stroke-width:1;marker:none;visibility:visible;display:inline;overflow:visible;enable-background:accumulate;font-family:Sans;-inkscape-font-specification:Sans"
         d="M 48,5.5 C 41.198867,5.5 34.769808,7.1140083 29.0625,9.96875 L 39,21.34375 c 2.823933,-0.949434 5.851623,-1.46875 9,-1.46875 4.811177,0 9.262472,1.307024 13.21875,3.4375 L 23.3125,61.21875 C 21.182587,57.261371 19.875,52.812553 19.875,48 c 0,-4.992823 1.292192,-9.659477 3.5625,-13.71875 l -9.78125,-11.25 C 8.5413992,30.047697 5.5,38.674073 5.5,48 c 9e-7,23.431635 19.074505,42.5 42.5,42.5 8.503501,0 16.441182,-2.521885 23.09375,-6.84375 l -7.875,-3.6875 L 63.125,79.875 58.1875,74.21875 C 55.032103,75.440302 51.59236,76.125 48,76.125 c -3.951414,6e-6 -7.686861,-0.896248 -11.09375,-2.375 L 73.75,36.90625 c 1.484738,3.414159 2.375,7.132093 2.375,11.09375 -3e-6,4.530886 -1.075028,8.807616 -2.96875,12.59375 l 4.78125,5.5 0.15625,0.15625 2.78125,8.6875 C 86.894133,67.602752 90.5,58.204527 90.5,48 90.5,24.568037 71.4255,5.5 48,5.5 z"
         id="path4980"
         inkscape:connector-curvature="0" />
    </clipPath>
  </defs>
  <g
     id="g3941"
     transform="matrix(0.74479521,0,0,0.74479521,-8.0823213,5.5933462)">
    <path
       inkscape:connector-curvature="0"
       d="M 44.95513,0.32077427 C 44.03386,-0.71832275 37.97604,-0.22428832 31.527,5.6301371 25.01471,11.54195 23.70504,17.262491 24.85907,18.563996 c 0.75111,0.847167 1.50223,1.694332 2.25335,2.541501 C 33.81116,15.024422 40.50985,8.9433481 47.20855,2.8622738 46.45743,2.0151078 45.7063,1.1679433 44.95513,0.32077427 c 0,0 0,0 0,0"
       id="path3180"
       style="fill:#bf0000;fill-opacity:1;fill-rule:evenodd;stroke:none" />
    <path
       inkscape:connector-curvature="0"
       d="M 126.12659,113.98825 95.729486,99.83607 95.588107,99.674348 115.50905,81.231515 l 0.19168,0.219042 10.42586,32.537693 z"
       id="path3299"
       style="fill:#b3925d;fill-opacity:1;fill-rule:evenodd;stroke:none" />
    <path
       inkscape:connector-curvature="0"
       d="M 124.62039,112.51055 96.267817,99.328731 96.126453,99.167054 114.97071,81.738809 l 0.1917,0.219072 9.45798,30.552669 z"
       id="path2247"
       style="fill:url(#radialGradient4944);fill-opacity:1;fill-rule:evenodd;stroke:none" />
    <path
       inkscape:connector-curvature="0"
       d="m 106.36402,91.385954 c -2.47561,2.253562 -4.13679,2.267795 -5.02171,3.07334 -0.143,0.130164 -0.2632,0.283012 -0.36602,0.437888 L 33.95765,17.930126 43.68695,9.0734009 110.83302,86.186122 c -0.32241,0.08467 -0.62433,0.201987 -0.90422,0.45676 -0.80886,0.73632 -1.07766,2.47903 -3.56478,4.743072 z"
       id="rect2192"
       style="fill:#806600;fill-opacity:1;fill-rule:nonzero;stroke:none" />
    <path
       inkscape:connector-curvature="0"
       d="m 34.31284,17.606789 66.96769,76.908744 c -0.81309,0.801011 -0.77684,2.06794 -2.271224,3.428296 -1.610478,1.466063 -2.334609,0.835151 -3.378089,1.779763 L 28.63168,22.778438 34.31284,17.606789 z"
       id="rect2190"
       style="fill:url(#linearGradient4946);fill-opacity:1;fill-rule:nonzero;stroke:none" />
    <path
       inkscape:connector-curvature="0"
       d="m 113.36357,84.975207 c -1.5497,1.395051 -2.60962,0.916553 -3.43477,1.667675 L 42.96108,9.7341578 48.7028,4.5074048 115.70236,81.452569 c -0.0315,0.02853 -0.0625,0.0569 -0.0941,0.08572 -0.64513,0.587254 -0.68332,2.031188 -2.24468,3.436943 z"
       id="rect1315"
       style="fill:url(#linearGradient4948);fill-opacity:1;fill-rule:nonzero;stroke:none" />
    <rect
       width="27.133339"
       height="6.3839917"
       x="-33.312592"
       y="30.527153"
       transform="matrix(-0.74093461,0.67157717,0.6655662,0.74633882,0,0)"
       id="rect2069"
       style="fill:url(#linearGradient4950);fill-opacity:1;stroke:none" />
    <path
       inkscape:connector-curvature="0"
       d="m 113.03471,107.95798 c 2.84489,-1.16826 6.70994,-5.90929 8.68947,-7.62422 l 4.40355,13.64651 -13.09302,-6.02229 z"
       id="path2265"
       style="fill:url(#linearGradient4952);fill-opacity:1;fill-rule:evenodd;stroke:none" />
    <path
       inkscape:connector-curvature="0"
       d="m 39.57245,5.2825303 4.16426,4.8312827 -9.7322,8.818264 -4.16426,-4.784377 9.7322,-8.8651697 z"
       id="path5045"
       style="fill:url(#linearGradient3854);fill-opacity:1;fill-rule:nonzero;stroke:none" />
  </g>
  <g
     id="g3991"
     clip-path="url(#clipPath4978)">
    <path
       inkscape:connector-curvature="0"
       d="M 47.988597,6.0000003 C 24.834318,6.0000003 6.0000011,24.839434 6.0000011,48 c 9e-7,23.160566 18.8343169,42 41.9885959,42 23.154284,0 42.011402,-18.839434 42.011402,-42 0,-23.160566 -18.857118,-41.9999997 -42.011402,-41.9999997 z m 0,13.3688217 c 5.141014,0 9.929088,1.396613 14.095033,3.764258 L 23.128429,62.098859 c -2.367002,-4.167071 -3.763237,-8.956449 -3.763237,-14.098858 0,-15.833087 12.794619,-28.631179 28.623405,-28.631179 z m 25.95493,16.631179 c 1.699294,3.651766 2.668474,7.705017 2.668474,12 -9e-6,15.833086 -12.794616,28.631178 -28.623404,28.631178 -4.293814,7e-6 -8.345971,-0.969439 -11.996742,-2.669201 L 73.943527,36.000001 z"
       id="path3989"
       style="fill:none;fill-opacity:1;stroke:#550000" />
    <path
       style="fill:url(#linearGradient3987);fill-opacity:1;stroke:none"
       id="path3949"
       d="M 47.988596,6.0000001 C 24.834317,6.0000001 6.0000001,24.839434 6.0000001,48 6.0000011,71.160566 24.834317,90 47.988596,90 71.142876,90 90,71.160566 90,48 90,24.839434 71.142876,6.0000001 47.988596,6.0000001 z m 0,13.3688219 c 5.141014,0 9.929088,1.396613 14.095031,3.764258 L 23.128428,62.098859 c -2.367002,-4.167071 -3.763237,-8.956449 -3.763237,-14.098858 0,-15.833087 12.794619,-28.631179 28.623405,-28.631179 z m 25.954928,16.631179 c 1.6993,3.651766 2.668476,7.705017 2.668476,12 -7e-6,15.833086 -12.794619,28.631178 -28.623404,28.631178 -4.293814,7e-6 -8.345971,-0.969439 -11.996742,-2.669201 l 37.95167,-37.961977 z"
       inkscape:connector-curvature="0" />
    <path
       style="fill:url(#linearGradient3984);fill-opacity:1;stroke:none"
       id="path4059"
       d="M 47.988597,6.0000003 C 24.834318,6.0000003 6.0000011,24.839434 6.0000011,48 c 9e-7,23.160566 18.8343169,42 41.9885959,42 23.154284,0 42.011402,-18.839434 42.011402,-42 0,-23.160566 -18.857118,-41.9999997 -42.011402,-41.9999997 z m 0,13.3688217 c 5.141014,0 9.929088,1.396613 14.095033,3.764258 L 23.128429,62.098859 c -2.367002,-4.167071 -3.763237,-8.956449 -3.763237,-14.098858 0,-15.833087 12.794619,-28.631179 28.623405,-28.631179 z m 25.95493,16.631179 c 1.699294,3.651766 2.668474,7.705017 2.668474,12 -9e-6,15.833086 -12.794616,28.631178 -28.623404,28.631178 -4.293814,7e-6 -8.345971,-0.969439 -11.996742,-2.669201 L 73.943527,36.000001 z"
       inkscape:connector-curvature="0" />
    <path
       style="fill:url(#radialGradient3980);fill-opacity:1;stroke:none"
       id="path3350"
       d="m 47.999998,8.5779482 c -21.755065,0 -39.4113487,17.6610798 -39.4113487,39.4220528 0,21.760973 17.6562837,39.422051 39.4113487,39.422051 21.755068,0 39.411353,-17.661078 39.411353,-39.422051 0,-21.760974 -17.656285,-39.4220528 -39.411353,-39.4220528 z m 0,8.2034368 c 6.795785,0 13.098201,2.174454 18.224906,5.867731 l -43.56891,43.580737 c -3.692273,-5.128093 -5.866139,-11.43222 -5.866139,-18.229852 0,-17.232679 13.982143,-31.218616 31.210143,-31.218616 z M 74.596959,31.70707 c 2.913708,4.746394 4.613174,10.318584 4.613174,16.292931 0,17.232678 -13.982139,31.218625 -31.210135,31.218625 -5.972723,0 -11.543403,-1.699935 -16.288506,-4.614436 L 74.596959,31.70707 z"
       inkscape:connector-curvature="0" />
    <g
       transform="matrix(0.96181323,0,0,0.96207446,1.1116065,1.8204275)"
       id="g3870">
      <path
         inkscape:connector-curvature="0"
         d="m 48.740911,7.0247395 c -22.618803,0 -40.9760935,18.3572905 -40.9760935,40.9760935 0,0.317702 0.016515,0.632549 0.023715,0.948521 2.7751435,0.558117 5.6308585,1.020897 8.5841115,1.422781 -0.05621,-0.780716 -0.07114,-1.576594 -0.07114,-2.371302 0,-17.912001 14.527406,-32.439407 32.439408,-32.439407 7.0656,0 13.616454,2.255377 18.946703,6.094245 L 37.548367,51.794916 c 0.06362,7.6e-5 0.12604,0 0.189704,0 6.596569,0 12.975102,-0.386132 19.041553,-1.114512 L 76.39029,31.069739 c 2.603385,4.239728 4.276688,9.118296 4.69518,14.346375 2.925967,-0.972181 5.658292,-2.047993 8.2047,-3.201257 C 86.47509,22.334023 69.394922,7.0247395 48.740911,7.0247395 z"
         id="path3977"
         style="fill:url(#linearGradient3969);fill-opacity:1;stroke:none" />
      <path
         inkscape:connector-curvature="0"
         d="m 48.526146,6.8633696 c -22.618803,0 -40.976097,18.3572904 -40.976097,40.9760934 0,0.119066 -0.0033,0.237229 0,0.355695 C 7.7672902,25.762349 26.042288,7.6221862 48.526146,7.6221862 c 20.405761,0 37.312187,14.9469408 40.430694,34.4787268 0.03833,-0.01729 0.08031,-0.0301 0.118567,-0.04742 C 86.260327,22.172645 69.180154,6.8633696 48.526146,6.8633696 z M 37.333602,51.633546 c 0.06362,6.8e-5 0.12604,0 0.189704,0 0.191165,0 0.378316,6.45e-4 0.569112,0 L 67.321084,22.025473 37.333602,51.633546 z M 16.086735,48.290011 c -9.75e-4,0.103639 0,0.204402 0,0.308269 0,0.54049 0.02533,1.076047 0.04743,1.612485 0.0078,10e-4 0.01588,-0.001 0.02371,0 -0.04553,-0.632443 -0.06577,-1.277096 -0.07114,-1.920754 z"
         id="path4007"
         style="fill:url(#linearGradient3971);fill-opacity:1;stroke:none" />
      <path
         inkscape:connector-curvature="0"
         d="m 68.943791,12.345819 c 10.130194,6.257422 17.323631,16.795995 19.065266,29.095872 -2.244847,1.016678 -4.418287,2.422484 -6.957397,3.300852 0.0393,0.347576 0.01462,0.237267 0.04268,0.588083 2.925968,-0.972188 5.50653,-2.048 8.052938,-3.201257 C 87.341805,29.378702 79.664242,18.50285 68.943783,12.345819 z m -20.042247,2.745968 c -17.912001,0 -33.349987,14.223879 -33.349987,32.13588 0,0.794709 -0.516245,1.590586 -0.460032,2.371302 -2.550967,-0.347151 -5.029543,-0.749157 -7.4458877,-1.209363 0.00502,0.157818 -0.0036,0.316365 0,0.47426 2.7751437,0.558117 5.6308587,1.020888 8.5841127,1.422781 -0.05621,-0.780716 -0.07114,-1.576594 -0.07114,-2.371302 0,-17.912002 14.527406,-32.439408 32.439407,-32.439408 5.710284,0 11.080179,1.463363 15.745444,4.054926 -4.92132,-3.003433 -9.25952,-4.439077 -15.441917,-4.439077 z m 6.596962,34.815452 c -5.553589,0.666794 -11.377119,1.031314 -17.381642,1.090798 l -0.71139,0.711391 c 0.06363,6.8e-5 0.12604,0 0.189704,0 6.596566,0 12.975103,-0.386139 19.041553,-1.114512 L 75.773138,31.458511 55.498506,49.907239 z"
         id="path4021"
         style="fill:url(#linearGradient3973);fill-opacity:1;stroke:none" />
    </g>
  </g>
</svg>
