<?xml version="1.0" encoding="UTF-8" standalone="no"?>
<!-- Created with Inkscape (http://www.inkscape.org/) -->

<svg
   xmlns:dc="http://purl.org/dc/elements/1.1/"
   xmlns:cc="http://creativecommons.org/ns#"
   xmlns:rdf="http://www.w3.org/1999/02/22-rdf-syntax-ns#"
   xmlns:svg="http://www.w3.org/2000/svg"
   xmlns="http://www.w3.org/2000/svg"
   xmlns:xlink="http://www.w3.org/1999/xlink"
   xmlns:sodipodi="http://sodipodi.sourceforge.net/DTD/sodipodi-0.dtd"
   xmlns:inkscape="http://www.inkscape.org/namespaces/inkscape"
   width="96"
   height="96"
   id="svg8331"
   sodipodi:version="0.32"
   inkscape:version="0.48.3.1 r9886"
   sodipodi:docname="folder-ubuntu.svg"
   inkscape:output_extension="org.inkscape.output.svg.inkscape"
   version="1.1">
  <defs
     id="defs8333">
    <linearGradient
       inkscape:collect="always"
       xlink:href="#linearGradient5048-2"
       id="linearGradient3247"
       gradientUnits="userSpaceOnUse"
       gradientTransform="matrix(0.125709,0,0,0.0864706,2.5651808,-10.70427)"
       x1="302.85715"
       y1="366.64789"
       x2="302.85715"
       y2="609.50507" />
    <linearGradient
       id="linearGradient5048-2">
      <stop
         style="stop-color:black;stop-opacity:0;"
         offset="0"
         id="stop5050-1" />
      <stop
         id="stop5056-5"
         offset="0.5"
         style="stop-color:black;stop-opacity:1;" />
      <stop
         style="stop-color:black;stop-opacity:0;"
         offset="1"
         id="stop5052-79" />
    </linearGradient>
    <radialGradient
       inkscape:collect="always"
       xlink:href="#linearGradient5060-2"
       id="radialGradient3244"
       gradientUnits="userSpaceOnUse"
       gradientTransform="matrix(0.125709,0,0,0.0864706,2.5899204,-10.70427)"
       cx="605.71429"
       cy="486.64789"
       fx="605.71429"
       fy="486.64789"
       r="117.14286" />
    <linearGradient
       inkscape:collect="always"
       id="linearGradient5060-2">
      <stop
         style="stop-color:black;stop-opacity:1;"
         offset="0"
         id="stop5062-5" />
      <stop
         style="stop-color:black;stop-opacity:0;"
         offset="1"
         id="stop5064-1" />
    </linearGradient>
    <radialGradient
       inkscape:collect="always"
       xlink:href="#linearGradient5060-2"
       id="radialGradient3241"
       gradientUnits="userSpaceOnUse"
       gradientTransform="matrix(-0.125709,0,0,0.0864706,93.410098,-10.70427)"
       cx="605.71429"
       cy="486.64789"
       fx="605.71429"
       fy="486.64789"
       r="117.14286" />
    <linearGradient
       inkscape:collect="always"
       xlink:href="#linearGradient4064-7-2"
       id="linearGradient3230"
       gradientUnits="userSpaceOnUse"
       gradientTransform="matrix(2,0,0,2,-94,-48)"
       x1="71"
       y1="8"
       x2="71"
       y2="41.5" />
    <linearGradient
       id="linearGradient4064-7-2">
      <stop
         style="stop-color:#709937;stop-opacity:1;"
         offset="0"
         id="stop4066-4-7" />
      <stop
         style="stop-color:#709937;stop-opacity:0.50196081;"
         offset="1"
         id="stop4068-8-4" />
    </linearGradient>
    <linearGradient
       inkscape:collect="always"
       xlink:href="#linearGradient4054-7-5"
       id="linearGradient3232"
       gradientUnits="userSpaceOnUse"
       gradientTransform="matrix(2,0,0,2,-94,-48)"
       x1="71"
       y1="8"
       x2="71"
       y2="41.5" />
    <linearGradient
       id="linearGradient4054-7-5">
      <stop
         style="stop-color:#51751e;stop-opacity:1;"
         offset="0"
         id="stop4056-0-4" />
      <stop
         style="stop-color:#51751e;stop-opacity:0.50196081;"
         offset="1"
         id="stop4058-9-1" />
    </linearGradient>
    <linearGradient
       inkscape:collect="always"
       xlink:href="#linearGradient9101-97"
       id="linearGradient3227"
       gradientUnits="userSpaceOnUse"
       gradientTransform="matrix(0.75086228,0,0,0.3333332,-6.0605797,-28.166666)"
       x1="71.999496"
       y1="14.2578"
       x2="71.999496"
       y2="19.9583" />
    <linearGradient
       gradientTransform="matrix(1.0033404,0,0,1,-8.2374684,8)"
       y2="19.9583"
       x2="71.999496"
       y1="14.2578"
       x1="71.999496"
       gradientUnits="userSpaceOnUse"
       id="linearGradient9101-97">
      <stop
         id="stop9103-5"
         style="stop-color:#51751e;stop-opacity:0;"
         offset="0.25" />
      <stop
         id="stop9105-50"
         style="stop-color:#51751e;stop-opacity:1;"
         offset="1" />
    </linearGradient>
    <linearGradient
       inkscape:collect="always"
       xlink:href="#linearGradient9073-9-8"
       id="linearGradient3259"
       gradientUnits="userSpaceOnUse"
       gradientTransform="matrix(0.7031318,0,0,0.7105376,-69.874472,-254.68002)"
       x1="167.64111"
       y1="328.87747"
       x2="167.64111"
       y2="407.69193" />
    <linearGradient
       id="linearGradient9073-9-8">
      <stop
         id="stop9075-9-5"
         offset="0"
         style="stop-color:#aacb7d;stop-opacity:1" />
      <stop
         id="stop9077-5-3"
         offset="1"
         style="stop-color:#709937;stop-opacity:1" />
    </linearGradient>
    <linearGradient
       inkscape:collect="always"
       xlink:href="#linearGradient9087-5-6"
       id="linearGradient3261"
       gradientUnits="userSpaceOnUse"
       gradientTransform="matrix(2,0,0,2,-365.99542,-54)"
       x1="206.99738"
       y1="16.499895"
       x2="206.99738"
       y2="44.50021" />
    <linearGradient
       inkscape:collect="always"
       id="linearGradient9087-5-6">
      <stop
         style="stop-color:#709937;stop-opacity:1"
         offset="0"
         id="stop9089-5-63" />
      <stop
         style="stop-color:#51751e;stop-opacity:1"
         offset="1"
         id="stop9091-1-8" />
    </linearGradient>
    <linearGradient
       inkscape:collect="always"
       xlink:href="#linearGradient10176-5"
       id="linearGradient3256"
       gradientUnits="userSpaceOnUse"
       gradientTransform="matrix(0.9204022,0,0,1.885618,-11.468937,-87.058428)"
       x1="7.2379346"
       y1="36.005047"
       x2="122.17093"
       y2="36.005047" />
    <linearGradient
       id="linearGradient10176-5"
       gradientUnits="userSpaceOnUse"
       x1="71.999496"
       y1="14.2578"
       x2="71.999496"
       y2="19.9583"
       gradientTransform="matrix(1.0033404,0,0,1,-8.2374684,8)">
      <stop
         offset="0.00445589"
         style="stop-color:#eaeaea;stop-opacity:0;"
         id="stop10178-30" />
      <stop
         id="stop10180-9"
         style="stop-color:#ffffff;stop-opacity:0.52941179;"
         offset="0.46138024" />
      <stop
         offset="1"
         style="stop-color:#f5f5f5;stop-opacity:0"
         id="stop10182-2" />
    </linearGradient>
  </defs>
  <sodipodi:namedview
     id="base"
     pagecolor="#ffffff"
     bordercolor="#666666"
     borderopacity="1.0"
     inkscape:pageopacity="0.0"
     inkscape:pageshadow="2"
     inkscape:zoom="6.2395833"
     inkscape:cx="48"
     inkscape:cy="48"
     inkscape:current-layer="layer1"
     showgrid="true"
     inkscape:grid-bbox="true"
     inkscape:document-units="px"
     inkscape:window-width="1058"
     inkscape:window-height="811"
     inkscape:window-x="147"
     inkscape:window-y="27"
     inkscape:window-maximized="0"
     fit-margin-top="0"
     fit-margin-left="0"
     fit-margin-right="0"
     fit-margin-bottom="0" />
  <metadata
     id="metadata8336">
    <rdf:RDF>
      <cc:Work
         rdf:about="">
        <dc:format>image/svg+xml</dc:format>
        <dc:type
           rdf:resource="http://purl.org/dc/dcmitype/StillImage" />
        <dc:title />
      </cc:Work>
    </rdf:RDF>
  </metadata>
  <g
     id="layer1"
     inkscape:label="Layer 1"
     inkscape:groupmode="layer"
     transform="translate(0,48)">
    <g
       id="g3274">
      <g
         id="g3269">
        <rect
           style="opacity:0.40206185;fill:url(#linearGradient3247);fill-opacity:1;fill-rule:nonzero;stroke:none;stroke-width:1;marker:none;visibility:visible;display:inline;overflow:visible"
           id="rect13073"
           width="60.699482"
           height="21.000004"
           x="17.650259"
           y="21" />
        <path
           style="opacity:0.40206185;fill:url(#radialGradient3244);fill-opacity:1;fill-rule:nonzero;stroke:none;stroke-width:1;marker:none;visibility:visible;display:inline;overflow:visible"
           d="m 78.349742,21.000718 c 0,0 0,20.998846 0,20.998846 C 84.823444,42.039084 94.000004,37.294788 94,31.49879 94,25.70279 86.775836,21.00072 78.349742,21.000718 z"
           id="path13075"
           sodipodi:nodetypes="cccc"
           inkscape:connector-curvature="0" />
        <path
           sodipodi:nodetypes="cccc"
           id="path13077"
           d="m 17.65026,21.000718 c 0,0 0,20.998846 0,20.998846 -6.473703,0.03952 -15.6502598,-4.704776 -15.6502598,-10.500774 0,-5.796 7.224163,-10.49807 15.6502598,-10.498072 z"
           style="opacity:0.40206185;fill:url(#radialGradient3241);fill-opacity:1;fill-rule:nonzero;stroke:none;stroke-width:1;marker:none;visibility:visible;display:inline;overflow:visible"
           inkscape:connector-curvature="0" />
      </g>
      <g
         id="g3263">
        <path
           style="color:#000000;fill:url(#linearGradient3230);fill-opacity:1;fill-rule:evenodd;stroke:url(#linearGradient3232);stroke-width:1;stroke-linecap:butt;stroke-linejoin:miter;stroke-miterlimit:4;stroke-opacity:1;stroke-dasharray:none;stroke-dashoffset:0;marker:none;visibility:visible;display:inline;overflow:visible;enable-background:accumulate"
           d="m 63,-32 c -1.108,0 -2.0895,0.4645 -2.8125,1.1875 L 56.375,-27 11,-27 c -2.216,0 -4,1.784 -4,4 l 0,56 c 0,1.108 0.892,2 2,2 l 78,0 c 1.108,0 2,-0.892 2,-2 l 0,-61 c 0,-2.216 -1.784,-4 -4,-4 z"
           id="rect3142"
           inkscape:connector-curvature="0"
           sodipodi:nodetypes="sscsccccccss" />
        <path
           style="opacity:0.5;fill:url(#linearGradient3227);fill-opacity:1;display:inline;enable-background:new"
           id="path39053"
           d="m 7.5014969,-23.5 c 0.00626,0.583332 0.012514,1.251666 0.018752,2 l 80.9609801,0 c 0.0063,-0.748334 0.01256,-1.416668 0.01883,-2 l -80.9999993,0 0.0015,0 z"
           inkscape:connector-curvature="0" />
        <path
           inkscape:connector-curvature="0"
           sodipodi:nodetypes="cccccccccc"
           style="opacity:0.9;color:#000000;fill:url(#linearGradient3259);fill-opacity:1;fill-rule:nonzero;stroke:url(#linearGradient3261);stroke-width:0.99958181;stroke-linecap:butt;stroke-linejoin:miter;stroke-miterlimit:4;stroke-opacity:1;stroke-dasharray:none;stroke-dashoffset:0;marker:none;visibility:visible;display:inline;overflow:visible;enable-background:new"
           id="path3300"
           d="m 90.493984,33 c -0.06074,1.170968 -1.335732,2.000418 -2.499686,2.000418 l -79.9899374,0 c -1.163934,0 -2.438312,-0.82945 -2.499686,-2.000418 l -2.499684,-51.999792 c -0.08468,-1.168834 0.835794,-2.000416 1.999748,-2.000416 l 85.9891834,0 c 1.163954,0 2.088616,0.831582 1.999748,2.000416 L 90.493984,33 z" />
        <rect
           style="fill:url(#linearGradient3256);fill-opacity:1;stroke:none;display:inline;enable-background:new"
           id="rect3521-5"
           width="89"
           height="2"
           x="3.4999948"
           y="-20.5"
           rx="0"
           ry="0" />
      </g>
    </g>
    <path
       inkscape:connector-curvature="0"
       style="opacity:0.6;fill:#ffffff;fill-opacity:1;fill-rule:evenodd;stroke:none"
       d="m 48.107272,-8.999462 c -7.751004,-0.06442 -14.598264,5.521768 -15.89323,13.40461 -1.428928,8.698306 4.446986,16.915594 13.140666,18.372422 8.693682,1.456832 16.925406,-4.39515 18.410128,-13.084106 l 0.0377,-0.19796 C 65.175596,0.788208 59.242172,-7.39108 50.539324,-8.79208 49.723432,-8.92342 48.909092,-8.9928 48.107264,-8.999464 z m 5.373156,4.015726 c 0.425482,-0.03018 0.865858,0.063 1.263162,0.292224 1.059484,0.611978 1.422656,1.966442 0.810688,3.025936 -0.61124,1.05953 -1.966414,1.422664 -3.025936,0.810686 -1.058746,-0.611244 -1.421924,-1.967136 -0.810686,-3.025934 0.38248,-0.662184 1.053634,-1.05262 1.762772,-1.102912 z m -5.486274,2.356648 c 0.890776,0 1.754898,0.1323 2.573458,0.35821 0.1444,0.890056 0.675514,1.710262 1.51768,2.196396 0.840742,0.484706 1.806742,0.525506 2.648872,0.207384 1.637888,1.610928 2.71056,3.800402 2.865684,6.240402 L 54.44194,6.422444 C 54.150946,3.117498 51.374208,0.530826 47.994154,0.530826 c -0.97372,0 -1.896432,0.217974 -2.724286,0.6033 l -1.536534,-2.76199 c 1.285252,-0.636244 2.729482,-0.999218 4.26082,-0.999218 z m -5.33545,1.621374 1.621374,2.714856 c -1.663584,1.170952 -2.752564,3.099234 -2.752564,5.288318 0,2.189082 1.08898,4.12745 2.752564,5.297742 l -1.621374,2.714858 c -1.938804,-1.295404 -3.37963,-3.280186 -3.97802,-5.599394 0.699158,-0.570504 1.150042,-1.440062 1.150042,-2.413206 0,-0.973732 -0.450884,-1.842702 -1.150042,-2.413208 0.599048,-2.318366 2.039912,-4.294526 3.97802,-5.589966 z M 36.719952,4.78221 c 1.223208,0 2.21525,0.991296 2.21525,2.21525 0,1.223366 -0.992042,2.215248 -2.21525,2.215248 -1.223942,0 -2.215248,-0.991882 -2.215248,-2.215248 0,-1.223954 0.991306,-2.21525 2.215248,-2.21525 z m 17.721988,2.790272 3.157908,0.04714 c -0.15512,2.44 -1.227796,4.629694 -2.865684,6.240402 -0.84213,-0.318122 -1.807434,-0.268626 -2.648872,0.216812 -0.842166,0.486866 -1.373282,1.30634 -1.51768,2.196394 -0.81856,0.226652 -1.682682,0.348784 -2.573458,0.348784 -1.53119,0 -2.97542,-0.36224 -4.26082,-0.999218 l 1.536534,-2.752564 c 0.827854,0.385364 1.750566,0.603302 2.724286,0.603302 3.379944,0 6.157522,-2.595368 6.447786,-5.901044 z m -0.867246,6.985102 c 0.785292,-0.02026 1.559332,0.374988 1.979584,1.10291 0.611934,1.059494 0.248796,2.414656 -0.810688,3.025936 -1.059482,0.61194 -2.414662,0.248844 -3.025934,-0.810686 -0.611934,-1.0588 -0.248796,-2.413996 0.810686,-3.025936 0.330872,-0.19102 0.6894,-0.283014 1.046352,-0.292224 z"
       id="path3389" />
    <path
       style="opacity:0.25;fill:#000000;fill-opacity:1;fill-rule:evenodd;stroke:none"
       d="M 48.125,-10 C 40.373996,-10.06442 33.482466,-4.507842 32.1875,3.375 31.99468,4.548718 31.937828,5.734226 32,6.875 32.03466,6.377044 32.10498,5.877374 32.1875,5.375 33.482466,-2.507842 40.373996,-8.06442 48.125,-8 c 0.801828,0.0066 1.621608,0.05616 2.4375,0.1875 C 58.113148,-6.596984 63.581748,-0.275656 64,7.0625 64.54567,-1.089202 58.783356,-8.489092 50.5625,-9.8125 49.746608,-9.94384 48.926828,-9.993336 48.125,-10 z m 3.5625,7.1875 C 51.460358,-2.391776 51.443748,-1.943584 51.5,-1.5 c 0.17048,0.15916 0.351958,0.315966 0.5625,0.4375 0.840742,0.484706 1.84537,0.505622 2.6875,0.1875 0.17824,0.1753 0.3356,0.373912 0.5,0.5625 0.10936,-0.11854 0.22853,-0.229446 0.3125,-0.375 0.37228,-0.644526 0.286688,-1.370714 0,-2 -0.61124,1.05953 -2.002978,1.424478 -3.0625,0.8125 -0.39703,-0.229216 -0.625804,-0.553786 -0.8125,-0.9375 z M 44.625,-1 c -0.294598,0.1118 -0.594772,0.236278 -0.875,0.375 l 1.5,2.75 C 46.077854,1.739674 47.02628,1.5 48,1.5 c 3.224754,0 5.883242,2.413636 6.375,5.5 0.02366,-0.1487 0.04916,-0.285618 0.0625,-0.4375 L 57.5,6.625 C 57.43776,6.19805 57.3667,5.781722 57.25,5.375 L 54.4375,5.4375 C 54.257108,3.388702 53.142472,1.551618 51.5,0.5 c -1.007024,-0.644762 -2.215304,-1 -3.5,-1 -0.97372,0 -1.922146,0.239674 -2.75,0.625 L 44.625,-1 z M 43.5,1.375 c -1.220718,1.17532 -2,2.795704 -2,4.625 0,0.343386 0.0734,0.67095 0.125,1 0.277378,-1.766412 1.22237,-3.325226 2.625,-4.3125 L 43.5,1.375 z m -4.3125,2.8125 c -0.15946,0.367366 -0.261752,0.735382 -0.375,1.125 0.05024,0.15486 0.04756,0.33225 0.0625,0.5 0.33042,0.330258 0.593566,0.736274 0.75,1.1875 0.11026,-0.318064 0.1875,-0.644838 0.1875,-1 0,-0.680364 -0.253864,-1.300502 -0.625,-1.8125 z M 34.75,7 c -0.15078,0.299322 -0.25,0.641814 -0.25,1 0,1.223366 1.026058,2.1875 2.25,2.1875 0.984534,0 1.774216,-0.61135 2.0625,-1.5 -0.02658,-0.09156 -0.1011,-0.15736 -0.125,-0.25 0.08198,-0.0669 0.11268,-0.1752 0.1875,-0.25 C 38.8808,8.12188 38.9375,8.06714 38.9375,8 c 0,-0.358186 -0.09914,-0.700678 -0.25,-1 -0.364622,0.72345 -1.07226,1.1875 -1.9375,1.1875 -0.865758,0 -1.63555,-0.46405 -2,-1.1875 z M 57.5625,7 C 57.5491,7.12896 57.51856,7.247618 57.5,7.375 l 0.125,0 C 57.6168,7.24456 57.57598,7.128962 57.5625,7 z M 57.25,8.625 c -0.464972,1.62043 -1.33073,3.100134 -2.5,4.25 -0.84213,-0.318122 -1.846062,-0.297938 -2.6875,0.1875 -0.210542,0.12172 -0.392022,0.278302 -0.5625,0.4375 -0.511434,0.477594 -0.829202,1.08246 -0.9375,1.75 -0.81856,0.226652 -1.671724,0.375 -2.5625,0.375 -1.19734,0 -2.318372,-0.22384 -3.375,-0.625 l -0.875,1.625 c 1.2854,0.636978 2.71881,1 4.25,1 0.890776,0 1.74394,-0.14834 2.5625,-0.375 0.1083,-0.66754 0.426066,-1.272406 0.9375,-1.75 0.08408,-0.663482 0.376142,-1.26467 1,-1.625 0.330872,-0.19102 0.705548,-0.30329 1.0625,-0.3125 0.63216,-0.0164 1.24861,0.271002 1.6875,0.75 1.3463,-1.544258 2.23676,-3.51303 2.375,-5.6875 l -0.375,0 z M 39.1875,9.8125 c -0.16002,0.220828 -0.289356,0.453118 -0.5,0.625 0.59839,2.319208 2.061196,4.267096 4,5.5625 L 44.25,13.3125 C 43.968912,13.114762 43.745798,12.8641 43.5,12.625 L 42.6875,14 c -1.531556,-1.023302 -2.759738,-2.4788 -3.5,-4.1875 z m 16.375,6.875 c -0.18584,0.39386 -0.406796,0.765924 -0.8125,1 -1.059482,0.61194 -2.451228,0.24703 -3.0625,-0.8125 -0.28668,0.629426 -0.37226,1.355896 0,2 0.611272,1.05953 2.003018,1.42444 3.0625,0.8125 1.059484,-0.61128 1.424434,-1.940506 0.8125,-3 z"
       id="path3144"
       inkscape:connector-curvature="0" />
  </g>
</svg>
