<?xml version="1.0" encoding="UTF-8" standalone="no"?>
<!-- Created with Inkscape (http://www.inkscape.org/) -->

<svg
   xmlns:dc="http://purl.org/dc/elements/1.1/"
   xmlns:cc="http://creativecommons.org/ns#"
   xmlns:rdf="http://www.w3.org/1999/02/22-rdf-syntax-ns#"
   xmlns:svg="http://www.w3.org/2000/svg"
   xmlns="http://www.w3.org/2000/svg"
   xmlns:xlink="http://www.w3.org/1999/xlink"
   xmlns:sodipodi="http://sodipodi.sourceforge.net/DTD/sodipodi-0.dtd"
   xmlns:inkscape="http://www.inkscape.org/namespaces/inkscape"
   width="96"
   height="96"
   id="svg3227"
   version="1.1"
   inkscape:version="0.48.4 r9939"
   sodipodi:docname="media-removable.svg">
  <defs
     id="defs3229">
    <linearGradient
       id="linearGradient4023">
      <stop
         style="stop-color:#4483aa;stop-opacity:1;"
         offset="0"
         id="stop4025" />
      <stop
         id="stop4031"
         offset="0.5"
         style="stop-color:#aadfee;stop-opacity:1;" />
      <stop
         style="stop-color:#4483aa;stop-opacity:1;"
         offset="1"
         id="stop4027" />
    </linearGradient>
    <linearGradient
       id="XMLID_45_"
       gradientUnits="userSpaceOnUse"
       x1="-20.159401"
       y1="106.5508"
       x2="3.6184001"
       y2="106.5508"
       gradientTransform="matrix(1.2413686,0,0,-1,33.838988,123)">
      <stop
         offset="0"
         style="stop-color:#DDDDDD"
         id="stop40" />
      <stop
         offset="0.27219999"
         style="stop-color:#eeeeee;stop-opacity:1;"
         id="stop42" />
      <stop
         offset="0.4705"
         style="stop-color:#EAEAEB"
         id="stop44" />
      <stop
         offset="0.6767"
         style="stop-color:#DDDEE1"
         id="stop46" />
      <stop
         offset="0.8858"
         style="stop-color:#C9CBD2"
         id="stop48" />
      <stop
         offset="1"
         style="stop-color:#BABDC7"
         id="stop50" />
    </linearGradient>
    <linearGradient
       id="XMLID_50_"
       gradientUnits="userSpaceOnUse"
       x1="-33.092602"
       y1="48.1567"
       x2="16.605101"
       y2="54.373299"
       gradientTransform="matrix(1,0,0,-1,36.9277,123)">
      <stop
         offset="0"
         style="stop-color:#4483aa;stop-opacity:1;"
         id="stop93" />
      <stop
         offset="0.89889997"
         style="stop-color:#265c88;stop-opacity:1;"
         id="stop95" />
      <stop
         offset="1"
         style="stop-color:#aadfee;stop-opacity:1;"
         id="stop97" />
    </linearGradient>
    <linearGradient
       id="XMLID_51_"
       gradientUnits="userSpaceOnUse"
       x1="-43.708679"
       y1="117.80003"
       x2="-11.393909"
       y2="-2.8003335"
       gradientTransform="matrix(1,0,0,-1,35.9277,123)">
      <stop
         offset="0"
         style="stop-color:#aadfee;stop-opacity:1;"
         id="stop102" />
      <stop
         offset="1"
         style="stop-color:#265c88;stop-opacity:1;"
         id="stop104" />
    </linearGradient>
    <linearGradient
       id="XMLID_53_"
       gradientUnits="userSpaceOnUse"
       x1="-22.477301"
       y1="95.253899"
       x2="5.9488001"
       y2="11.4655"
       gradientTransform="matrix(1,0,0,-1,32.9277,123)">
      <stop
         offset="0"
         style="stop-color:#f0f0f0;stop-opacity:1;"
         id="stop118" />
      <stop
         offset="1"
         style="stop-color:#c1c1c1;stop-opacity:1;"
         id="stop120" />
    </linearGradient>
    <linearGradient
       inkscape:collect="always"
       xlink:href="#XMLID_53_"
       id="linearGradient3823"
       gradientUnits="userSpaceOnUse"
       gradientTransform="matrix(0.7127975,-0.41153382,-0.41153382,-0.7127975,81.114242,58.367528)"
       x1="-22.477301"
       y1="95.253899"
       x2="5.9488001"
       y2="11.4655" />
    <linearGradient
       inkscape:collect="always"
       xlink:href="#XMLID_51_"
       id="linearGradient3826"
       gradientUnits="userSpaceOnUse"
       gradientTransform="matrix(0.7127975,-0.41153382,-0.41153382,-0.7127975,81.114242,58.367528)"
       x1="-43.708679"
       y1="117.80003"
       x2="-11.393909"
       y2="-2.8003335" />
    <linearGradient
       inkscape:collect="always"
       xlink:href="#XMLID_50_"
       id="linearGradient3829"
       gradientUnits="userSpaceOnUse"
       gradientTransform="matrix(0.7127975,-0.41153382,-0.41153382,-0.7127975,81.114242,58.367528)"
       x1="-33.092602"
       y1="48.1567"
       x2="16.605101"
       y2="54.373299" />
    <linearGradient
       inkscape:collect="always"
       xlink:href="#linearGradient4023"
       id="linearGradient3834"
       gradientUnits="userSpaceOnUse"
       gradientTransform="matrix(1.7320508,-1,1,1.7320508,-16.277604,1.13989)"
       x1="13.8125"
       y1="29.109375"
       x2="34.1875"
       y2="29.109375" />
    <linearGradient
       inkscape:collect="always"
       xlink:href="#XMLID_45_"
       id="linearGradient3837"
       gradientUnits="userSpaceOnUse"
       gradientTransform="matrix(0.85433256,-0.49324914,-0.41153382,-0.7127975,81.847944,58.780276)"
       x1="-20.159401"
       y1="106.5508"
       x2="3.6184001"
       y2="106.5508" />
  </defs>
  <sodipodi:namedview
     id="base"
     pagecolor="#ffffff"
     bordercolor="#666666"
     borderopacity="1.0"
     inkscape:pageopacity="0.0"
     inkscape:pageshadow="2"
     inkscape:zoom="4"
     inkscape:cx="48"
     inkscape:cy="48"
     inkscape:current-layer="layer1"
     showgrid="true"
     inkscape:document-units="px"
     inkscape:grid-bbox="true"
     inkscape:window-width="1073"
     inkscape:window-height="748"
     inkscape:window-x="158"
     inkscape:window-y="27"
     inkscape:window-maximized="0"
     fit-margin-top="0"
     fit-margin-left="0"
     fit-margin-right="0"
     fit-margin-bottom="0" />
  <metadata
     id="metadata3232">
    <rdf:RDF>
      <cc:Work
         rdf:about="">
        <dc:format>image/svg+xml</dc:format>
        <dc:type
           rdf:resource="http://purl.org/dc/dcmitype/StillImage" />
        <dc:title />
      </cc:Work>
    </rdf:RDF>
  </metadata>
  <g
     id="layer1"
     inkscape:label="Layer 1"
     inkscape:groupmode="layer"
     transform="translate(0,32)">
    <g
       id="g3840">
      <path
         sodipodi:nodetypes="ccccc"
         inkscape:connector-curvature="0"
         id="path3135"
         d="m 15.647067,-16.064958 10.218749,17.699394 20.351598,-11.75 -10.21875,-17.699394 z"
         style="fill:#ffffff;stroke:#000000;stroke-width:0.8;stroke-opacity:0.62745097999999999;stroke-miterlimit:4;stroke-dasharray:none" />
      <path
         inkscape:connector-curvature="0"
         style="fill:url(#linearGradient3837);stroke:none"
         id="path52"
         d="m 15.652328,-16.098872 c 0.733353,1.270204 9.513016,16.477026 10.24637,17.747232 1.51473,-0.87453 18.799586,-10.853946 20.31432,-11.728478 -0.733354,-1.270206 -9.513016,-16.477026 -10.24637,-17.747232 -1.515588,0.875024 -18.799589,10.853948 -20.31432,11.728478 z" />
      <path
         sodipodi:nodetypes="cccsccccsscscssccccsccccccsc"
         inkscape:connector-curvature="0"
         id="path3224"
         d="m 22.455842,3.603186 -0.04576,0.17076 2.21875,3.842986 c -1.270004,2.209414 -1.579038,4.39003 -0.647714,6.003124 l 10.1875,17.645268 3,5.196152 3.625,6.278684 c 2.694552,4.591342 6.273068,8.165158 10.210214,10.559612 l 0.46875,0.8119 c 3.079096,5.333154 9.94926,7.174002 15.28241,4.094908 l 0.32476,-0.1875 c 1.771892,1.688728 4.012128,2.302396 5.680608,1.339102 1.669018,-0.963606 2.25754,-3.209936 1.680608,-5.589102 l 0.324758,-0.1875 c 5.33315,-3.079104 7.174014,-9.949258 4.09491,-15.282408 l -0.5,-0.866026 C 78.246416,32.841716 76.97021,27.975944 74.352102,23.36516 l -3.625,-6.278684 -3,-5.196152 -10.1875,-17.645268 C 56.601688,-7.379456 54.53682,-8.170742 51.96276,-8.164318 l -2.164624,-3.874236 -0.17076,-0.04576 z m 45.48994,53.915888 5.629166,-3.25 c 0.369286,1.87078 -0.02662,3.623812 -1.252082,4.33133 -1.225462,0.70752 -2.941332,0.17372 -4.377084,-1.08133 z"
         style="fill:url(#linearGradient3834);fill-opacity:1;stroke:#265c88;stroke-width:0.8;stroke-opacity:1;stroke-miterlimit:4;stroke-dasharray:none" />
      <path
         style="fill:#e6e6e6;stroke:none"
         id="path30"
         d="m 66.316762,48.19755 c -2.206108,1.273692 -2.548796,4.81029 -0.765622,7.898842 1.783176,3.088552 5.016482,4.55864 7.222588,3.284946 2.206822,-1.274106 2.548798,-4.810296 0.765622,-7.89884 -1.783176,-3.088554 -5.015766,-4.559064 -7.222588,-3.284948 z M 72.3124,58.58229 c -1.7321,1.000028 -4.462996,-0.350506 -5.963038,-2.948658 -1.500452,-2.598852 -1.30389,-5.639562 0.427496,-6.639178 1.731384,-0.999614 4.462284,0.350918 5.962734,2.94978 1.500754,2.597738 1.304904,5.638028 -0.427192,6.638056 z"
         inkscape:connector-curvature="0" />
      <path
         style="fill:#4483aa;fill-opacity:1;stroke:none"
         id="path90"
         d="M 42.088938,-5.162472 32.219546,0.535626 C 25.68034,4.311038 21.989816,10.164466 23.97794,13.60799 l 10.20192,17.67025 3.005432,5.20556 3.60051,6.236264 0.0036,-0.002 c 6.968548,11.873962 20.005014,17.189114 29.217208,11.870452 9.212192,-5.318664 11.125834,-19.26716 4.328468,-31.23808 l 0.0036,-0.002 L 70.738168,17.11217 67.732664,11.90652 57.53074,-5.76373 c -1.98812,-3.443526 -8.902598,-3.174152 -15.441802,0.601258 z"
         inkscape:connector-curvature="0" />
      <path
         style="fill:url(#linearGradient3829);stroke:none"
         id="path99"
         d="m 32.63108,1.248424 c -6.032408,3.482808 -9.668788,8.954284 -7.940346,11.94803 l 16.807454,29.111364 c 6.719058,11.44019 19.323332,16.63232 28.096442,11.567156 8.773112,-5.065156 10.578032,-18.57643 4.024322,-30.11874 L 70.02496,17.522858 56.81802,-5.35224 c -1.728446,-2.99375 -8.28548,-2.581002 -14.317884,0.90181 l -9.868982,5.69881 0,0 z"
         inkscape:connector-curvature="0" />
      <path
         style="fill:url(#linearGradient3826);stroke:none"
         id="path106"
         d="m 33.60312,2.932052 c -5.678144,3.278278 -8.111086,7.764122 -7.228756,9.292362 l 16.807452,29.111362 c 6.17476,10.512278 17.590732,15.387796 25.440772,10.855576 7.851462,-4.533044 9.333752,-16.858234 3.305438,-27.474068 0.0066,0.0114 -3.587126,-6.223086 -3.587126,-6.223086 L 55.134368,-4.380184 c -0.88274,-1.52895 -5.983656,-1.66417 -11.661802,1.614106 l -9.869394,5.6981 z"
         inkscape:connector-curvature="0" />
      <path
         sodipodi:nodetypes="cccssccccccssccccc"
         style="opacity:0.5;fill:url(#linearGradient3823);stroke:none"
         id="path122"
         d="m 22.474926,3.625074 c -0.04704,0.02716 -0.06402,0.0883 -0.03646,0.13604 l 3.395154,5.880578 c 6.761898,3.614606 4.8274,-4.552632 20.415346,22.446484 4.594364,7.95767 4.251352,10.229474 3.682624,13.993512 -0.18574,1.2306 -0.397386,2.625384 -0.460626,4.471448 l 2.025098,3.537172 c 3.079094,5.333154 9.92331,7.16766 15.25646,4.088566 l 7.989748,-4.612882 c 5.33315,-3.079104 7.167244,-9.924028 4.08814,-15.257178 l -2.011568,-3.484152 c -1.669832,-0.90535 -2.98327,-1.42057 -4.142584,-1.87461 C 69.13143,31.560978 66.993196,30.721722 62.398832,22.76405 48.547336,-1.227442 52.916672,1.523876 53.180074,-6.085962 l -3.407288,-5.934396 c -0.02716,-0.04704 -0.089,-0.0636 -0.13604,-0.03644 L 22.474882,3.62511 l 0,0 z"
         inkscape:connector-curvature="0" />
      <path
         d="m 25.352046,3.475416 c -0.03932,0.02272 -0.05052,0.07906 -0.02372,0.12548 l 3.299938,5.715662 c 6.096762,3.787768 3.933674,-3.987126 19.08447,22.254822 4.465518,7.734508 4.300422,9.845434 4.026528,13.342902 -0.08938,1.143464 -0.19166,2.43941 -0.13828,4.167404 l 1.970026,3.436986 c 2.992744,5.183588 9.056614,7.306358 13.516946,4.731188 l 6.682154,-3.857948 c 4.460328,-2.57517 5.654484,-8.88837 2.661744,-14.071954 L 74.476678,35.93352 C 72.970348,34.986196 71.797084,34.425764 70.761532,33.931776 67.595094,32.420584 65.685022,31.507756 61.219504,23.77325 47.75646,0.454574 51.720418,3.292036 51.502766,-3.830924 L 48.189182,-9.59782 c -0.0264,-0.04572 -0.08118,-0.0649 -0.12054,-0.04218 l -22.716574,13.115422 0,0 z"
         id="path3557"
         style="opacity:0.75;fill:#ffffff;fill-opacity:1;stroke:none"
         sodipodi:nodetypes="cccssccccccssccccc"
         inkscape:connector-curvature="0" />
      <path
         d="m 25.487164,0.935562 c 0.02946,0.051 0.38208,0.661782 0.411534,0.712798 1.51473,-0.87453 18.799586,-10.853946 20.31432,-11.728478 -0.02944,-0.051 -0.38208,-0.661784 -0.411536,-0.712796 C 44.285896,-9.91789 27.001894,0.061034 25.487164,0.935562 z"
         id="path3063"
         style="opacity:0.25;fill:#000000;stroke:none"
         inkscape:connector-curvature="0" />
      <path
         style="fill:#265c88;fill-opacity:1"
         id="path161"
         d="m 38.555512,-0.114834 0.24402,3.602654 0.994198,-0.574002 7.550002,13.076986 c -2.02222,-0.542586 -4.832134,-1.2955 -4.899936,-1.312932 -0.035,-0.06062 -0.6395,-1.107648 -1.0645,-1.843768 0.526646,-0.503822 0.665774,-1.32085 0.284774,-1.980758 -0.448,-0.775962 -1.441834,-1.03933 -2.21606,-0.59233 -0.774226,0.447002 -1.039962,1.438736 -0.59246,2.21383 0.374998,0.649518 1.132538,0.939614 1.823828,0.75296 l 1.204,2.085392 c 0.0345,0.05976 0.09462,0.10588 0.16736,0.1239 l 5.884472,1.578204 1.242,2.151208 c -0.874674,0.759026 -1.117222,2.054916 -0.517222,3.094148 0.6815,1.180392 2.191092,1.587082 3.372352,0.905082 1.181258,-0.682 1.586582,-2.191958 0.904084,-3.374082 -0.600002,-1.039232 -1.844918,-1.477486 -2.938222,-1.099148 l -2.9495,-5.108684 1.457244,-5.443978 c 0.02076,-0.07204 0.0122,-0.14902 -0.02188,-0.207912 l -1.5885,-2.751362 1.071274,-0.6185 -1.621,-2.807654 -2.806788,1.6205 1.621002,2.807654 1.038362,-0.5995 c 0.184,0.318698 1.4035,2.430934 1.4535,2.517536 -0.0178,0.06334 -0.66886,2.493498 -1.195938,4.460574 L 40.61298,2.44081 41.605442,1.86781 38.5555,-0.114844 z"
         inkscape:connector-curvature="0" />
    </g>
  </g>
</svg>
