<?xml version="1.0" encoding="UTF-8" standalone="no"?>
<!-- Created with Inkscape (http://www.inkscape.org/) -->

<svg
   xmlns:dc="http://purl.org/dc/elements/1.1/"
   xmlns:cc="http://creativecommons.org/ns#"
   xmlns:rdf="http://www.w3.org/1999/02/22-rdf-syntax-ns#"
   xmlns:svg="http://www.w3.org/2000/svg"
   xmlns="http://www.w3.org/2000/svg"
   xmlns:xlink="http://www.w3.org/1999/xlink"
   xmlns:sodipodi="http://sodipodi.sourceforge.net/DTD/sodipodi-0.dtd"
   xmlns:inkscape="http://www.inkscape.org/namespaces/inkscape"
   width="96"
   height="96"
   id="svg2606"
   sodipodi:version="0.32"
   inkscape:version="0.48.3.1 r9886"
   version="1.0"
   sodipodi:docname="application-x-zoncolor-config.svg"
   inkscape:output_extension="org.inkscape.output.svgz.inkscape"
   inkscape:export-filename="application-x-zoncolor-config.png"
   inkscape:export-xdpi="90"
   inkscape:export-ydpi="90">
  <defs
     id="defs2608">
    <linearGradient
       id="linearGradient3897-7">
      <stop
         style="stop-color:#fcfcfc;stop-opacity:1"
         offset="0"
         id="stop3899-4" />
      <stop
         id="stop3901-5"
         offset="0.52275378"
         style="stop-color:#f8f8f8;stop-opacity:1" />
      <stop
         style="stop-color:#f0efef;stop-opacity:1;"
         offset="0.72337759"
         id="stop3903-2" />
      <stop
         style="stop-color:#e3e1e1;stop-opacity:1;"
         offset="0.89024991"
         id="stop3905-5" />
      <stop
         style="stop-color:#cecbcb;stop-opacity:1"
         offset="1"
         id="stop3907-4" />
    </linearGradient>
    <radialGradient
       inkscape:collect="always"
       xlink:href="#linearGradient3995-0"
       id="radialGradient3169"
       gradientUnits="userSpaceOnUse"
       gradientTransform="matrix(0.29788967,0,0,0.29729501,-134.54196,36.582002)"
       cx="371.50317"
       cy="-1.7960877"
       fx="370.9519"
       fy="12.467011"
       r="38.290279" />
    <linearGradient
       id="linearGradient3995-0">
      <stop
         style="stop-color:#c1edff;stop-opacity:1;"
         offset="0"
         id="stop3997-9" />
      <stop
         id="stop4027"
         offset="0.75"
         style="stop-color:#71d5ff;stop-opacity:1;" />
      <stop
         style="stop-color:#01b5ff;stop-opacity:1;"
         offset="1"
         id="stop4029" />
    </linearGradient>
    <radialGradient
       inkscape:collect="always"
       xlink:href="#linearGradient3836-4"
       id="radialGradient3158"
       gradientUnits="userSpaceOnUse"
       gradientTransform="matrix(0.29788967,0,0,0.29729501,-134.54196,36.582002)"
       cx="371.50317"
       cy="-1.7960877"
       fx="370.9519"
       fy="12.467011"
       r="38.290279" />
    <linearGradient
       id="linearGradient3836-4">
      <stop
         id="stop3838-6"
         offset="0"
         style="stop-color:#e1c1ff;stop-opacity:1;" />
      <stop
         style="stop-color:#c281ff;stop-opacity:1;"
         offset="0.75"
         id="stop3840-1" />
      <stop
         id="stop3842-3"
         offset="1"
         style="stop-color:#9421ff;stop-opacity:1;" />
    </linearGradient>
    <radialGradient
       inkscape:collect="always"
       xlink:href="#linearGradient3975-9"
       id="radialGradient3147"
       gradientUnits="userSpaceOnUse"
       gradientTransform="matrix(0.29788967,0,0,0.29729501,-134.54196,36.582002)"
       cx="371.50317"
       cy="-1.7960877"
       fx="370.9519"
       fy="12.467011"
       r="38.290279" />
    <linearGradient
       id="linearGradient3975-9">
      <stop
         id="stop3977-2"
         offset="0"
         style="stop-color:#e0ffc1;stop-opacity:1;" />
      <stop
         style="stop-color:#b7ff71;stop-opacity:1;"
         offset="0.75"
         id="stop3979-2" />
      <stop
         id="stop3981-3"
         offset="1"
         style="stop-color:#6fe000;stop-opacity:1;" />
    </linearGradient>
    <radialGradient
       inkscape:collect="always"
       xlink:href="#linearGradient4017-9"
       id="radialGradient3136"
       gradientUnits="userSpaceOnUse"
       gradientTransform="matrix(0.29788967,0,0,0.29729501,-134.54196,36.582002)"
       cx="371.50317"
       cy="-1.7960877"
       fx="370.9519"
       fy="12.467011"
       r="38.290279" />
    <linearGradient
       id="linearGradient4017-9">
      <stop
         id="stop4019-2"
         offset="0"
         style="stop-color:#fff3c1;stop-opacity:1;" />
      <stop
         style="stop-color:#ffd841;stop-opacity:1;"
         offset="0.75"
         id="stop4021-8" />
      <stop
         id="stop4023-8"
         offset="1"
         style="stop-color:#e0b300;stop-opacity:1;" />
    </linearGradient>
    <radialGradient
       inkscape:collect="always"
       xlink:href="#linearGradient3828-4-4-9"
       id="radialGradient3125"
       gradientUnits="userSpaceOnUse"
       gradientTransform="matrix(0.29788967,0,0,0.29729501,-134.54196,36.582002)"
       cx="371.50317"
       cy="-1.7960877"
       fx="370.9519"
       fy="12.467011"
       r="38.290279" />
    <linearGradient
       id="linearGradient3828-4-4-9">
      <stop
         style="stop-color:#ffc1c1;stop-opacity:1;"
         offset="0"
         id="stop3830-1-1-1" />
      <stop
         id="stop3832-0-6-9"
         offset="0.75"
         style="stop-color:#ff8181;stop-opacity:1;" />
      <stop
         style="stop-color:#ff2121;stop-opacity:1;"
         offset="1"
         id="stop3834-8-1-0" />
    </linearGradient>
    <radialGradient
       inkscape:collect="always"
       xlink:href="#linearGradient3165-7"
       id="radialGradient3956"
       cx="-23.875"
       cy="33.625"
       fx="-23.875"
       fy="33.625"
       r="14.875"
       gradientUnits="userSpaceOnUse"
       gradientTransform="matrix(-0.94117647,0,0,0.94117647,26.529412,-4.1470597)" />
    <linearGradient
       id="linearGradient3165-7">
      <stop
         id="stop3167-9"
         offset="0"
         style="stop-color:#000000;stop-opacity:0;" />
      <stop
         style="stop-color:#000000;stop-opacity:0;"
         offset="0.60000002"
         id="stop3169-0" />
      <stop
         id="stop3171-5"
         offset="1"
         style="stop-color:#000000;stop-opacity:1;" />
    </linearGradient>
    <radialGradient
       inkscape:collect="always"
       xlink:href="#linearGradient3844-9-9"
       id="radialGradient3173"
       gradientUnits="userSpaceOnUse"
       gradientTransform="matrix(1.4864865,-8.4172741e-7,1.0406811e-6,1.8378378,-221.5964,32.464567)"
       cx="455.50381"
       cy="-40.349792"
       fx="455.50381"
       fy="-32.883251"
       r="14.103466" />
    <linearGradient
       id="linearGradient3844-9-9">
      <stop
         style="stop-color:#ffffff;stop-opacity:0;"
         offset="0"
         id="stop3846-2-5" />
      <stop
         style="stop-color:#ffffff;stop-opacity:1;"
         offset="1"
         id="stop3848-7-0" />
    </linearGradient>
    <radialGradient
       inkscape:collect="always"
       xlink:href="#linearGradient3165-7"
       id="radialGradient3970"
       gradientUnits="userSpaceOnUse"
       gradientTransform="matrix(-0.80672269,0,0,0.80672269,8.7394958,22.37395)"
       cx="-23.875"
       cy="33.625"
       fx="-23.875"
       fy="33.625"
       r="14.875" />
    <radialGradient
       inkscape:collect="always"
       xlink:href="#linearGradient3844-9-9"
       id="radialGradient3151"
       gradientUnits="userSpaceOnUse"
       gradientTransform="matrix(1.4864865,-8.4172741e-7,1.0406811e-6,1.8378378,-221.5964,32.464567)"
       cx="455.50381"
       cy="-40.349792"
       fx="455.50381"
       fy="-32.883251"
       r="14.103466" />
    <radialGradient
       inkscape:collect="always"
       xlink:href="#linearGradient3165-7"
       id="radialGradient3974"
       gradientUnits="userSpaceOnUse"
       gradientTransform="matrix(-0.67226891,0,0,0.67226891,23.94958,49.894959)"
       cx="-23.875"
       cy="33.625"
       fx="-23.875"
       fy="33.625"
       r="14.875" />
    <radialGradient
       inkscape:collect="always"
       xlink:href="#linearGradient3844-9-9"
       id="radialGradient3140"
       gradientUnits="userSpaceOnUse"
       gradientTransform="matrix(1.4864865,-8.4172741e-7,1.0406811e-6,1.8378378,-221.5964,32.464567)"
       cx="455.50381"
       cy="-40.349792"
       fx="455.50381"
       fy="-32.883251"
       r="14.103466" />
    <radialGradient
       inkscape:collect="always"
       xlink:href="#linearGradient3165-7"
       id="radialGradient3978"
       gradientUnits="userSpaceOnUse"
       gradientTransform="matrix(-0.53781513,0,0,0.53781513,49.159664,54.415967)"
       cx="-23.875"
       cy="33.625"
       fx="-23.875"
       fy="33.625"
       r="14.875" />
    <radialGradient
       inkscape:collect="always"
       xlink:href="#linearGradient3844-9-9"
       id="radialGradient3129"
       gradientUnits="userSpaceOnUse"
       gradientTransform="matrix(1.4864865,-8.4172741e-7,1.0406811e-6,1.8378378,-221.5964,32.464567)"
       cx="455.50381"
       cy="-40.349792"
       fx="455.50381"
       fy="-32.883251"
       r="14.103466" />
    <radialGradient
       inkscape:collect="always"
       xlink:href="#linearGradient3165-7"
       id="radialGradient3982"
       gradientUnits="userSpaceOnUse"
       gradientTransform="matrix(-0.40336135,0,0,0.40336135,65.369748,45.936975)"
       cx="-23.875"
       cy="33.625"
       fx="-23.875"
       fy="33.625"
       r="14.875" />
    <radialGradient
       inkscape:collect="always"
       xlink:href="#linearGradient3844-9-9"
       id="radialGradient3162"
       gradientUnits="userSpaceOnUse"
       gradientTransform="matrix(1.4864865,-8.4172741e-7,1.0406811e-6,1.8378378,-221.5964,32.464567)"
       cx="455.50381"
       cy="-40.349792"
       fx="455.50381"
       fy="-32.883251"
       r="14.103466" />
    <linearGradient
       inkscape:collect="always"
       xlink:href="#linearGradient3897-7"
       id="linearGradient3081"
       gradientUnits="userSpaceOnUse"
       gradientTransform="matrix(1.0570705,0,0,1.0583767,-32.774425,-2.6712375)"
       x1="82.15696"
       y1="90.381706"
       x2="94.220871"
       y2="102.18401" />
    <linearGradient
       inkscape:collect="always"
       xlink:href="#linearGradient3897-7"
       id="linearGradient3080"
       gradientUnits="userSpaceOnUse"
       gradientTransform="matrix(1.0570705,0,0,1.0583767,-32.774425,-2.6712375)"
       x1="82.15696"
       y1="90.381706"
       x2="94.220871"
       y2="102.18401" />
  </defs>
  <sodipodi:namedview
     id="base"
     pagecolor="#ffffff"
     bordercolor="#666666"
     borderopacity="1.0"
     inkscape:pageopacity="0.0"
     inkscape:pageshadow="2"
     inkscape:zoom="4"
     inkscape:cx="48"
     inkscape:cy="48"
     inkscape:document-units="px"
     inkscape:current-layer="layer1"
     width="128px"
     height="128px"
     showgrid="false"
     inkscape:grid-points="true"
     showguides="true"
     inkscape:guide-bbox="true"
     inkscape:window-width="992"
     inkscape:window-height="707"
     inkscape:window-x="33"
     inkscape:window-y="63"
     inkscape:snap-global="false"
     inkscape:window-maximized="0"
     inkscape:snap-page="true"
     inkscape:object-nodes="true"
     fit-margin-top="0"
     fit-margin-left="0"
     fit-margin-right="0"
     fit-margin-bottom="0">
    <inkscape:grid
       id="GridFromPre046Settings"
       type="xygrid"
       originx="0px"
       originy="-1.0783069e-05px"
       spacingx="5.8181px"
       spacingy="5.8181px"
       color="#0000ff"
       empcolor="#0000ff"
       opacity="0.2"
       empopacity="0.4"
       empspacing="2"
       visible="true"
       enabled="true"
       snapvisiblegridlinesonly="true" />
  </sodipodi:namedview>
  <metadata
     id="metadata2611">
    <rdf:RDF>
      <cc:Work
         rdf:about="">
        <dc:format>image/svg+xml</dc:format>
        <dc:type
           rdf:resource="http://purl.org/dc/dcmitype/StillImage" />
        <dc:title />
      </cc:Work>
    </rdf:RDF>
  </metadata>
  <g
     inkscape:label="1"
     inkscape:groupmode="layer"
     id="layer1"
     transform="translate(0,-31.999992)">
    <g
       id="g3094">
      <path
         clip-path="none"
         sodipodi:nodetypes="ccsssccccccc"
         inkscape:connector-curvature="0"
         id="path5990"
         d="m 10.881316,36.449635 0,87.175595 37.5066,-0.0492 c 1.591576,-0.002 3.407202,-1.30523 5.266249,-3.13104 0.535908,-0.52632 1.083903,-1.02693 1.622192,-1.54249 0.312673,-0.29946 0.626072,-0.6 0.940402,-0.89786 5.848513,-5.45877 20.300191,-18.508163 25.743489,-24.38522 0.31647,-0.309891 0.610942,-0.597548 0.869872,-0.874847 1.101735,-1.103346 2.077598,-2.090646 2.252265,-4.318983 l 0.0282,-0.538721 -0.0023,-51.437219 z"
         style="opacity:0.45606695;fill:#000000;fill-opacity:1;stroke:none" />
      <path
         sodipodi:nodetypes="ccccccccccc"
         inkscape:connector-curvature="0"
         id="path3093"
         d="m 8.5,36.46875 c 0,29.061982 0,58.12768 0,87.18755 0.023191,1.26459 1.0865148,2.29025 2.34375,2.3125 12.818208,0 25.838931,0 36.8125,0 3.39841,-0.14532 5.053161,-0.87822 7.40625,-2.75 9.845264,-9.34831 20.717616,-21.11602 29.28125,-29.74995 1.295724,-1.270215 3.15625,-3.23129 3.15625,-6.9376 0,-16.704174 0,-33.436063 0,-50.125 -0.0235,-1.26425 -1.086469,-2.290255 -2.34375,-2.3125 -24.695241,-10e-7 -49.396366,0 -74.09375,0 -1.1103958,0.25383 -2.4476421,1.295141 -2.5625,2.375 z"
         style="opacity:0.15;fill:#000000;fill-opacity:1;stroke:none" />
      <path
         sodipodi:nodetypes="ccccccccccccccsccccccc"
         inkscape:connector-curvature="0"
         clip-path="none"
         id="path3314"
         d="m 10.701323,35.096734 c -0.0318,0.0057 -0.06323,0.01343 -0.09404,0.02302 -0.6657935,0.137966 -1.1073087,0.668878 -1.104971,1.335293 l 0,87.162413 c -1.2e-4,0.008 -1.2e-4,0.0154 0,0.023 0.013912,0.7586 0.589029,1.32158 1.363582,1.33529 0.0078,1.2e-4 0.01567,1.2e-4 0.02351,0 l 36.722682,0 c 3.295218,-0.14091 4.521524,-0.70578 6.81791,-2.53245 0.0302,-0.0248 0.05993,-0.0376 0.09404,-0.069 0.01705,-0.0157 0.0361,-0.0301 0.07053,-0.069 0.01721,-0.0195 0.03556,-0.0376 0.07053,-0.0921 0.0061,-0.01 0.0136,-0.0269 0.02351,-0.046 7.358187,-6.87561 20.644435,-21.12962 28.964373,-29.376448 1.287255,-1.260555 2.844712,-2.845723 2.844712,-6.262063 l 0,-50.073489 c 1.2e-4,-0.0077 1.2e-4,-0.01535 0,-0.02302 -0.0141,-0.758577 -0.58899,-1.321698 -1.363582,-1.335403 -0.0078,-1.17e-4 -0.01568,-1.17e-4 -0.02355,0 l -74.15067,0 c -0.02392,-0.0022 -0.04657,10e-4 -0.07053,0 -0.06388,-0.0027 -0.124303,-0.0059 -0.188081,0 z"
         style="opacity:0.25;fill:#000000;fill-opacity:1;stroke:none" />
      <path
         clip-path="none"
         inkscape:connector-curvature="0"
         sodipodi:nodetypes="cccssccc"
         id="path34"
         d="m 10.881317,36.377055 0,87.248175 37.113824,0 c 1.260364,0 2.944844,-0.41991 5.266314,-2.677 6.673207,-6.48818 24.131517,-23.437579 29.592365,-28.883904 1.836098,-1.831226 2.257695,-3.324812 2.257695,-5.00007 l -0.0023,-50.687201 z"
         style="fill:#ffffff;fill-opacity:1;stroke:none" />
      <path
         sodipodi:nodetypes="ccccc"
         inkscape:connector-curvature="0"
         clip-path="none"
         id="rect3038"
         d="m 16.265504,45.092073 3.394922,0 0,3.363575 -3.394922,0 z"
         style="opacity:0.25;fill:#000000;fill-opacity:0.72000002;stroke:none" />
      <path
         sodipodi:nodetypes="ccccc"
         inkscape:connector-curvature="0"
         clip-path="none"
         id="rect3808"
         d="m 16.265504,58.182798 3.394922,0 0,3.363575 -3.394922,0 z"
         style="opacity:0.25;fill:#000000;fill-opacity:0.72000002;stroke:none" />
      <path
         sodipodi:nodetypes="ccccc"
         inkscape:connector-curvature="0"
         clip-path="none"
         id="rect3810"
         d="m 16.265504,71.273523 3.394922,0 0,3.363575 -3.394922,0 z"
         style="opacity:0.25;fill:#000000;fill-opacity:0.72000002;stroke:none" />
      <path
         sodipodi:nodetypes="ccccc"
         inkscape:connector-curvature="0"
         clip-path="none"
         id="rect3812"
         d="m 16.265504,84.364248 3.394922,0 0,3.363575 -3.394922,0 z"
         style="opacity:0.25;fill:#000000;fill-opacity:0.72000002;stroke:none" />
      <path
         sodipodi:nodetypes="ccccc"
         inkscape:connector-curvature="0"
         clip-path="none"
         id="rect3814"
         d="m 16.265504,97.454973 3.394922,0 0,3.363577 -3.394922,0 z"
         style="opacity:0.25;fill:#000000;fill-opacity:0.72000002;stroke:none" />
      <path
         sodipodi:nodetypes="ccccc"
         inkscape:connector-curvature="0"
         clip-path="none"
         id="rect3816"
         d="m 16.265504,110.5457 3.394922,0 0,3.36357 -3.394922,0 z"
         style="opacity:0.25;fill:#000000;fill-opacity:0.72000002;stroke:none" />
      <path
         sodipodi:nodetypes="ccccc"
         inkscape:connector-curvature="0"
         clip-path="none"
         id="rect3475"
         d="m 24.674779,45.092073 52.753136,0 0,3.363575 -52.753135,0 z"
         style="opacity:0.25;fill:#000000;fill-opacity:0.72000002;stroke:none" />
      <path
         sodipodi:nodetypes="cccc"
         inkscape:connector-curvature="0"
         id="path6153"
         d="m 85.150695,84.646219 c -7.7541,10.289761 -16.847433,7.805245 -32.08121,7.975047 1.302519,17.658434 -0.142692,23.042244 -7.08945,31.244024 9.373652,-5.04793 31.432542,-25.465827 39.17066,-39.219071 z"
         clip-path="none"
         mask="none"
         style="opacity:0.5;fill:#000000;fill-opacity:1;stroke:none" />
      <path
         clip-path="none"
         mask="none"
         sodipodi:nodetypes="cscscssc"
         inkscape:connector-curvature="0"
         id="path6011"
         d="m 85.150695,84.646219 c 0,4.669995 -2.922112,6.703792 -5.51493,8.464642 -5.33614,3.623927 -16.319131,2.856639 -22.357857,2.941373 -0.08461,6.046176 0.540177,16.147896 -3.079276,21.490606 -1.758678,2.59603 -5.178673,6.32245 -8.218597,6.32245 2.421299,0 4.954135,-1.39596 7.921892,-4.27207 9.549251,-9.25436 18.140861,-16.87502 26.81692,-26.457204 2.004443,-2.213777 4.431848,-3.808831 4.431848,-8.489797 z"
         style="fill:url(#linearGradient3080);fill-opacity:1;stroke:none" />
      <path
         clip-path="none"
         mask="none"
         sodipodi:nodetypes="cscsccccsscccc"
         inkscape:connector-curvature="0"
         id="path6122"
         d="m 85.170255,84.320445 c -0.330488,4.077851 -3.384855,5.503532 -5.047928,6.632957 -3.943005,2.677797 -9.180809,2.459635 -25.615767,2.459635 0,14.821003 0.384909,21.415203 -2.478752,25.036893 -1.704742,2.15599 -5.118016,4.55997 -7.8997,5.1769 3.811585,0 6.471921,-0.81563 8.96194,-3.22876 0.354226,-0.40635 1.061774,-1.16253 1.617428,-2.0212 2.95548,-4.36263 2.87836,-12.97105 2.87836,-21.947607 6.038725,-0.08471 16.651838,0.871617 21.987971,-2.752307 0.486165,-0.330161 1.978305,-1.515569 2.413725,-1.94208 2.418563,-2.369041 2.942978,-3.879142 3.182723,-7.414431 z M 44.128108,123.62683 c -0.164681,0.0364 -0.327399,0.0434 -0.489634,0.0653 0.163986,-0.0175 0.324275,-0.0351 0.489634,-0.0653 z"
         style="fill:#ffffff;fill-opacity:1;stroke:none" />
      <path
         sodipodi:nodetypes="ccccc"
         inkscape:connector-curvature="0"
         clip-path="none"
         id="rect3486"
         d="m 24.674779,58.182798 52.753136,0 0,3.363575 -52.753135,0 z"
         style="opacity:0.25;fill:#000000;fill-opacity:0.72000002;stroke:none" />
      <path
         sodipodi:nodetypes="ccccc"
         inkscape:connector-curvature="0"
         clip-path="none"
         id="rect3488"
         d="m 24.674779,71.273523 52.753136,0 0,3.363575 -52.753135,0 z"
         style="opacity:0.25;fill:#000000;fill-opacity:0.72000002;stroke:none" />
      <path
         sodipodi:nodetypes="ccccc"
         inkscape:connector-curvature="0"
         clip-path="none"
         id="rect3490"
         d="m 24.674779,84.364248 52.753136,0 0,3.363575 -52.753135,0 z"
         style="opacity:0.25;fill:#000000;fill-opacity:0.72000002;stroke:none" />
      <path
         sodipodi:nodetypes="ccccc"
         inkscape:connector-curvature="0"
         clip-path="none"
         id="rect3492"
         d="m 24.674779,97.460936 0,3.359374 28.828126,0 c -0.0098,-1.35272 -0.06613,-1.801091 -0.140625,-3.359374 z"
         style="opacity:0.25;fill:#000000;fill-opacity:0.72000002;stroke:none" />
      <path
         sodipodi:nodetypes="ccccc"
         inkscape:connector-curvature="0"
         clip-path="none"
         id="rect3494"
         d="m 24.674779,110.53906 0,3.35938 27.000001,0 c 0.517159,-1.34949 0.904836,-1.78685 1.195312,-3.35938 z"
         style="opacity:0.25;fill:#000000;fill-opacity:0.72000002;stroke:none" />
    </g>
    <g
       transform="matrix(0.73230769,0,0,0.73230769,25.453847,64.814954)"
       id="g3112">
      <path
         transform="matrix(-0.94117647,0,0,0.94117647,26.529412,-4.1470597)"
         d="m -9,33.625 c 0,8.215236 -6.659764,14.875 -14.875,14.875 -8.215236,0 -14.875,-6.659764 -14.875,-14.875 0,-8.215236 6.659764,-14.875 14.875,-14.875 8.215236,0 14.875,6.659764 14.875,14.875 z"
         sodipodi:ry="14.875"
         sodipodi:rx="14.875"
         sodipodi:cy="33.625"
         sodipodi:cx="-23.875"
         id="path3983"
         style="color:#000000;fill:url(#radialGradient3169);fill-opacity:1;fill-rule:nonzero;stroke:none;stroke-width:1;marker:none;visibility:visible;display:inline;overflow:visible;enable-background:accumulate"
         sodipodi:type="arc" />
      <path
         sodipodi:type="arc"
         style="color:#000000;fill:url(#radialGradient3158);fill-opacity:1;fill-rule:nonzero;stroke:none;stroke-width:1;marker:none;visibility:visible;display:inline;overflow:visible;enable-background:accumulate"
         id="path3049"
         sodipodi:cx="-23.875"
         sodipodi:cy="33.625"
         sodipodi:rx="14.875"
         sodipodi:ry="14.875"
         d="m -9,33.625 c 0,8.215236 -6.659764,14.875 -14.875,14.875 -8.215236,0 -14.875,-6.659764 -14.875,-14.875 0,-8.215236 6.659764,-14.875 14.875,-14.875 8.215236,0 14.875,6.659764 14.875,14.875 z"
         transform="matrix(0.40336134,0,0,0.40336134,84.630252,45.936975)" />
      <path
         sodipodi:type="arc"
         style="color:#000000;fill:url(#radialGradient3147);fill-opacity:1;fill-rule:nonzero;stroke:none;stroke-width:1;marker:none;visibility:visible;display:inline;overflow:visible;enable-background:accumulate"
         id="path3963"
         sodipodi:cx="-23.875"
         sodipodi:cy="33.625"
         sodipodi:rx="14.875"
         sodipodi:ry="14.875"
         d="m -9,33.625 c 0,8.215236 -6.659764,14.875 -14.875,14.875 -8.215236,0 -14.875,-6.659764 -14.875,-14.875 0,-8.215236 6.659764,-14.875 14.875,-14.875 8.215236,0 14.875,6.659764 14.875,14.875 z"
         transform="matrix(0.80672269,0,0,0.80672269,47.260504,22.37395)" />
      <path
         sodipodi:type="arc"
         style="color:#000000;fill:url(#radialGradient3136);fill-opacity:1;fill-rule:nonzero;stroke:none;stroke-width:1;marker:none;visibility:visible;display:inline;overflow:visible;enable-background:accumulate"
         id="path4005"
         sodipodi:cx="-23.875"
         sodipodi:cy="33.625"
         sodipodi:rx="14.875"
         sodipodi:ry="14.875"
         d="m -9,33.625 c 0,8.215236 -6.659764,14.875 -14.875,14.875 -8.215236,0 -14.875,-6.659764 -14.875,-14.875 0,-8.215236 6.659764,-14.875 14.875,-14.875 8.215236,0 14.875,6.659764 14.875,14.875 z"
         transform="matrix(-0.67226891,0,0,0.67226891,23.94958,49.894958)" />
      <path
         transform="matrix(0.53781512,0,0,0.53781512,74.840336,54.415967)"
         d="m -9,33.625 c 0,8.215236 -6.659764,14.875 -14.875,14.875 -8.215236,0 -14.875,-6.659764 -14.875,-14.875 0,-8.215236 6.659764,-14.875 14.875,-14.875 8.215236,0 14.875,6.659764 14.875,14.875 z"
         sodipodi:ry="14.875"
         sodipodi:rx="14.875"
         sodipodi:cy="33.625"
         sodipodi:cx="-23.875"
         id="path3083"
         style="color:#000000;fill:url(#radialGradient3125);fill-opacity:1;fill-rule:nonzero;stroke:none;stroke-width:1;marker:none;visibility:visible;display:inline;overflow:visible;enable-background:accumulate"
         sodipodi:type="arc" />
      <path
         inkscape:connector-curvature="0"
         id="path3948"
         d="m 49,13.5 c -7.731986,0 -14,6.268014 -14,14 0,7.322137 5.618871,13.321008 12.78125,13.9375 C 41.730177,40.82298 37,35.713203 37,29.5 c 0,-6.627417 5.372583,-12 12,-12 6.627417,0 12,5.372583 12,12 0,6.213203 -4.730177,11.32298 -10.78125,11.9375 C 57.381129,40.821008 63,34.822137 63,27.5 c 0,-7.731986 -6.268014,-14 -14,-14 z"
         style="opacity:0.75;color:#000000;fill:url(#radialGradient3956);fill-opacity:1;fill-rule:nonzero;stroke:none;stroke-width:1;marker:none;visibility:visible;display:inline;overflow:visible;enable-background:accumulate" />
      <path
         sodipodi:type="arc"
         style="opacity:0.75;fill:url(#radialGradient3173);fill-opacity:1;stroke:none"
         id="path3987"
         sodipodi:cx="455.50381"
         sodipodi:cy="-34.831043"
         sodipodi:rx="14.103466"
         sodipodi:ry="17.534039"
         d="m 469.60728,-34.831043 c 0,9.683782 -6.31434,17.534038 -14.10347,17.534038 -7.78912,0 -14.10346,-7.850256 -14.10346,-17.534038 0,-9.683782 6.31434,-17.534039 14.10346,-17.534039 7.78913,0 14.10347,7.850257 14.10347,17.534039 z"
         transform="matrix(-0.37224891,0,0,0.2994176,218.5608,30.929028)" />
      <path
         inkscape:connector-curvature="0"
         style="opacity:0.75;color:#000000;fill:url(#radialGradient3970);fill-opacity:1;fill-rule:nonzero;stroke:none;stroke-width:1;marker:none;visibility:visible;display:inline;overflow:visible;enable-background:accumulate"
         d="m 28,37.5 c -6.627417,0 -12,5.372584 -12,12 0,6.276118 4.816175,11.418007 10.955357,11.946429 -5.186634,-0.526731 -9.241071,-4.90654 -9.241071,-10.232143 0,-5.680643 4.605071,-10.285714 10.285714,-10.285714 5.680643,0 10.285714,4.605071 10.285714,10.285714 0,5.325603 -4.054437,9.705412 -9.241071,10.232143 C 35.183825,60.918007 40,55.776118 40,49.5 c 0,-6.627416 -5.372583,-12 -12,-12 z"
         id="path3968" />
      <path
         transform="matrix(0.31907049,0,0,0.25664366,-117.33783,52.439168)"
         d="m 469.60728,-34.831043 c 0,9.683782 -6.31434,17.534038 -14.10347,17.534038 -7.78912,0 -14.10346,-7.850256 -14.10346,-17.534038 0,-9.683782 6.31434,-17.534039 14.10346,-17.534039 7.78913,0 14.10347,7.850257 14.10347,17.534039 z"
         sodipodi:ry="17.534039"
         sodipodi:rx="14.103466"
         sodipodi:cy="-34.831043"
         sodipodi:cx="455.50381"
         id="path3967"
         style="opacity:0.75;fill:url(#radialGradient3151);fill-opacity:1;stroke:none"
         sodipodi:type="arc" />
      <path
         id="path3972"
         d="m 40,62.5 c -5.522848,0 -10,4.477154 -10,10 0,5.230099 4.013479,9.515006 9.129464,9.955358 -4.322195,-0.438943 -7.700892,-4.088783 -7.700892,-8.526786 0,-4.733869 3.837559,-8.571428 8.571428,-8.571428 4.733869,0 8.571428,3.837559 8.571428,8.571428 0,4.438003 -3.378697,8.087843 -7.700892,8.526786 C 45.986521,82.015006 50,77.730099 50,72.5 c 0,-5.522846 -4.477153,-10 -10,-10 z"
         style="opacity:0.75;color:#000000;fill:url(#radialGradient3974);fill-opacity:1;fill-rule:nonzero;stroke:none;stroke-width:1;marker:none;visibility:visible;display:inline;overflow:visible;enable-background:accumulate"
         inkscape:connector-curvature="0" />
      <path
         transform="matrix(-0.26589207,0,0,0.21386971,161.11486,74.949305)"
         d="m 469.60728,-34.831043 c 0,9.683782 -6.31434,17.534038 -14.10347,17.534038 -7.78912,0 -14.10346,-7.850256 -14.10346,-17.534038 0,-9.683782 6.31434,-17.534039 14.10346,-17.534039 7.78913,0 14.10347,7.850257 14.10347,17.534039 z"
         sodipodi:ry="17.534039"
         sodipodi:rx="14.103466"
         sodipodi:cy="-34.831043"
         sodipodi:cx="455.50381"
         id="path4009"
         style="opacity:0.75;fill:url(#radialGradient3140);fill-opacity:1;stroke:none"
         sodipodi:type="arc" />
      <path
         inkscape:connector-curvature="0"
         style="opacity:0.75;color:#000000;fill:url(#radialGradient3978);fill-opacity:1;fill-rule:nonzero;stroke:none;stroke-width:1;marker:none;visibility:visible;display:inline;overflow:visible;enable-background:accumulate"
         d="m 62,64.5 c -4.418278,0 -8,3.581723 -8,8 0,4.184079 3.210783,7.612004 7.303571,7.964286 -3.457756,-0.351153 -6.160713,-3.271026 -6.160713,-6.821428 0,-3.787095 3.070047,-6.857142 6.857142,-6.857142 3.787095,0 6.857142,3.070047 6.857142,6.857142 0,3.550403 -2.702957,6.470275 -6.160713,6.821428 C 66.789217,80.112004 70,76.684079 70,72.5 c 0,-4.418277 -3.581722,-8 -8,-8 z"
         id="path3976" />
      <path
         sodipodi:type="arc"
         style="opacity:0.75;fill:url(#radialGradient3129);fill-opacity:1;stroke:none"
         id="path3173"
         sodipodi:cx="455.50381"
         sodipodi:cy="-34.831043"
         sodipodi:rx="14.103466"
         sodipodi:ry="17.534039"
         d="m 469.60728,-34.831043 c 0,9.683782 -6.31434,17.534038 -14.10347,17.534038 -7.78912,0 -14.10346,-7.850256 -14.10346,-17.534038 0,-9.683782 6.31434,-17.534039 14.10346,-17.534039 7.78913,0 14.10347,7.850257 14.10347,17.534039 z"
         transform="matrix(0.21271366,0,0,0.17109577,-34.891884,74.459446)" />
      <path
         id="path3980"
         d="m 75,53.5 c -3.313709,0 -6,2.686292 -6,6 0,3.138059 2.408087,5.709002 5.477678,5.973214 -2.593317,-0.263365 -4.620535,-2.45327 -4.620535,-5.116071 0,-2.840321 2.302536,-5.142856 5.142857,-5.142856 2.840321,0 5.142856,2.302535 5.142856,5.142856 0,2.662802 -2.027217,4.852706 -4.620534,5.116071 C 78.591913,65.209002 81,62.638059 81,59.5 c 0,-3.313708 -2.686291,-6 -6,-6 z"
         style="opacity:0.75;color:#000000;fill:url(#radialGradient3982);fill-opacity:1;fill-rule:nonzero;stroke:none;stroke-width:1;marker:none;visibility:visible;display:inline;overflow:visible;enable-background:accumulate"
         inkscape:connector-curvature="0" />
      <path
         transform="matrix(0.15953524,0,0,0.12832183,2.3310857,60.969585)"
         d="m 469.60728,-34.831043 c 0,9.683782 -6.31434,17.534038 -14.10347,17.534038 -7.78912,0 -14.10346,-7.850256 -14.10346,-17.534038 0,-9.683782 6.31434,-17.534039 14.10346,-17.534039 7.78913,0 14.10347,7.850257 14.10347,17.534039 z"
         sodipodi:ry="17.534039"
         sodipodi:rx="14.103466"
         sodipodi:cy="-34.831043"
         sodipodi:cx="455.50381"
         id="path3053"
         style="opacity:0.75;fill:url(#radialGradient3162);fill-opacity:1;stroke:none"
         sodipodi:type="arc" />
      <path
         inkscape:connector-curvature="0"
         id="path3989"
         d="m 49,12.499999 c 8.272427,0 15,6.727574 15,15 0,8.272426 -6.727573,15 -15,15 -8.272426,0 -15,-6.727574 -15,-15 0,-8.272426 6.727574,-15 15,-15 z m 0,2 c -7.191546,0 -13,5.808454 -13,13 0,7.191546 5.808454,13 13,13 7.191547,0 13,-5.808454 13,-13 0,-7.191546 -5.808453,-13 -13,-13 z"
         style="font-size:medium;font-style:normal;font-variant:normal;font-weight:normal;font-stretch:normal;text-indent:0;text-align:start;text-decoration:none;line-height:normal;letter-spacing:normal;word-spacing:normal;text-transform:none;direction:ltr;block-progression:tb;writing-mode:lr-tb;text-anchor:start;baseline-shift:baseline;opacity:0.5;color:#000000;fill:#000000;fill-opacity:1;stroke:none;stroke-width:2.125;marker:none;visibility:visible;display:inline;overflow:visible;enable-background:accumulate;font-family:Sans;-inkscape-font-specification:Sans" />
      <path
         inkscape:connector-curvature="0"
         id="path3993"
         d="m 28,36.491597 c -7.167857,0 -13.008404,5.840547 -13.008404,13.008403 0,7.167857 5.840547,13.008404 13.008404,13.008404 7.167857,0 13.008403,-5.840547 13.008403,-13.008404 0,-7.167856 -5.840546,-13.008403 -13.008403,-13.008403 z m 0,2.016807 c 6.086977,0 10.991596,4.90462 10.991596,10.991596 0,6.086977 -4.904619,10.991597 -10.991596,10.991597 -6.086977,0 -10.991597,-4.90462 -10.991597,-10.991597 0,-6.086976 4.90462,-10.991596 10.991597,-10.991596 z"
         style="font-size:medium;font-style:normal;font-variant:normal;font-weight:normal;font-stretch:normal;text-indent:0;text-align:start;text-decoration:none;line-height:normal;letter-spacing:normal;word-spacing:normal;text-transform:none;direction:ltr;block-progression:tb;writing-mode:lr-tb;text-anchor:start;baseline-shift:baseline;opacity:0.5;color:#000000;fill:#000000;fill-opacity:1;stroke:none;stroke-width:2.47916675;marker:none;visibility:visible;display:inline;overflow:visible;enable-background:accumulate;font-family:Sans;-inkscape-font-specification:Sans" />
      <path
         inkscape:connector-curvature="0"
         id="path3995"
         d="m 40,61.491597 c 6.063288,0 11.008404,4.945116 11.008404,11.008403 0,6.063288 -4.945116,11.008403 -11.008404,11.008403 -6.063287,0 -11.008403,-4.945115 -11.008403,-11.008403 0,-6.063287 4.945116,-11.008403 11.008403,-11.008403 z m 0,2.016806 c -4.982407,0 -8.991596,4.00919 -8.991596,8.991597 0,4.982408 4.009189,8.991597 8.991596,8.991597 4.982408,0 8.991597,-4.009189 8.991597,-8.991597 0,-4.982407 -4.009189,-8.991597 -8.991597,-8.991597 z"
         style="font-size:medium;font-style:normal;font-variant:normal;font-weight:normal;font-stretch:normal;text-indent:0;text-align:start;text-decoration:none;line-height:normal;letter-spacing:normal;word-spacing:normal;text-transform:none;direction:ltr;block-progression:tb;writing-mode:lr-tb;text-anchor:start;baseline-shift:baseline;opacity:0.5;color:#000000;fill:#000000;fill-opacity:1;stroke:none;stroke-width:2.9749999;marker:none;visibility:visible;display:inline;overflow:visible;enable-background:accumulate;font-family:Sans;-inkscape-font-specification:Sans" />
      <path
         inkscape:connector-curvature="0"
         id="path3997"
         d="m 62,63.491597 c -4.958718,0 -9.008403,4.049686 -9.008403,9.008403 0,4.958718 4.049685,9.008404 9.008403,9.008404 4.958718,0 9.008403,-4.049686 9.008403,-9.008404 0,-4.958717 -4.049685,-9.008403 -9.008403,-9.008403 z m 0,2.016807 c 3.877838,0 6.991597,3.113758 6.991597,6.991596 0,3.877838 -3.113759,6.991597 -6.991597,6.991597 -3.877838,0 -6.991597,-3.113759 -6.991597,-6.991597 0,-3.877838 3.113759,-6.991596 6.991597,-6.991596 z"
         style="font-size:medium;font-style:normal;font-variant:normal;font-weight:normal;font-stretch:normal;text-indent:0;text-align:start;text-decoration:none;line-height:normal;letter-spacing:normal;word-spacing:normal;text-transform:none;direction:ltr;block-progression:tb;writing-mode:lr-tb;text-anchor:start;baseline-shift:baseline;opacity:0.5;color:#000000;fill:#000000;fill-opacity:1;stroke:none;stroke-width:3.71875;marker:none;visibility:visible;display:inline;overflow:visible;enable-background:accumulate;font-family:Sans;-inkscape-font-specification:Sans" />
      <path
         inkscape:connector-curvature="0"
         id="path3999"
         d="m 75,52.504202 c -3.854149,0 -6.995798,3.141649 -6.995798,6.995798 0,3.854149 3.141649,6.995798 6.995798,6.995798 3.854149,0 6.995798,-3.141649 6.995798,-6.995798 0,-3.854149 -3.141649,-6.995798 -6.995798,-6.995798 z m 0,1.991596 c 2.773268,0 5.004202,2.230934 5.004202,5.004202 0,2.773268 -2.230934,5.004202 -5.004202,5.004202 -2.773268,0 -5.004202,-2.230934 -5.004202,-5.004202 0,-2.773268 2.230934,-5.004202 5.004202,-5.004202 z"
         style="font-size:medium;font-style:normal;font-variant:normal;font-weight:normal;font-stretch:normal;text-indent:0;text-align:start;text-decoration:none;line-height:normal;letter-spacing:normal;word-spacing:normal;text-transform:none;direction:ltr;block-progression:tb;writing-mode:lr-tb;text-anchor:start;baseline-shift:baseline;opacity:0.5;color:#000000;fill:#000000;fill-opacity:1;stroke:none;stroke-width:4.95833349;marker:none;visibility:visible;display:inline;overflow:visible;enable-background:accumulate;font-family:Sans;-inkscape-font-specification:Sans" />
    </g>
  </g>
</svg>
