<?xml version="1.0" encoding="UTF-8" standalone="no"?>
<!-- Created with Inkscape (http://www.inkscape.org/) -->

<svg
   xmlns:dc="http://purl.org/dc/elements/1.1/"
   xmlns:cc="http://creativecommons.org/ns#"
   xmlns:rdf="http://www.w3.org/1999/02/22-rdf-syntax-ns#"
   xmlns:svg="http://www.w3.org/2000/svg"
   xmlns="http://www.w3.org/2000/svg"
   xmlns:sodipodi="http://sodipodi.sourceforge.net/DTD/sodipodi-0.dtd"
   xmlns:inkscape="http://www.inkscape.org/namespaces/inkscape"
   id="svg7384"
   height="16"
   width="16"
   version="1.1"
   inkscape:version="0.48.3.1 r9886"
   sodipodi:docname="folder-saved-search-symbolic.svg">
  <defs
     id="defs10" />
  <sodipodi:namedview
     pagecolor="#ffffff"
     bordercolor="#666666"
     borderopacity="1"
     objecttolerance="10"
     gridtolerance="10"
     guidetolerance="10"
     inkscape:pageopacity="0"
     inkscape:pageshadow="2"
     inkscape:window-width="1042"
     inkscape:window-height="772"
     id="namedview8"
     showgrid="true"
     inkscape:snap-object-midpoints="true"
     inkscape:zoom="35.1875"
     inkscape:cx="6.4180458"
     inkscape:cy="8"
     inkscape:window-x="0"
     inkscape:window-y="24"
     inkscape:window-maximized="0"
     inkscape:current-layer="svg7384">
    <inkscape:grid
       type="xygrid"
       id="grid2987" />
  </sodipodi:namedview>
  <metadata
     id="metadata90">
    <rdf:RDF>
      <cc:Work
         rdf:about="">
        <dc:format>image/svg+xml</dc:format>
        <dc:type
           rdf:resource="http://purl.org/dc/dcmitype/StillImage" />
        <dc:title>Gnome Symbolic Icon Theme</dc:title>
      </cc:Work>
    </rdf:RDF>
  </metadata>
  <title
     id="title9167">Gnome Symbolic Icon Theme</title>
  <path
     style="opacity:1;color:#000000;fill:#bebebe;fill-opacity:1;fill-rule:evenodd;stroke:none;stroke-width:1px;marker:none;visibility:visible;display:inline;overflow:visible;enable-background:accumulate"
     d="M 6.5 1 C 3.4624339 1 1 3.4624339 1 6.5 C 1 9.5375661 3.4624339 12 6.5 12 C 7.5061252 12 8.4386557 11.721732 9.25 11.25 L 13 15 L 14 15 C 14.554 15 15 14.554 15 14 L 15 13 L 11.25 9.25 C 11.721732 8.4386557 12 7.5061252 12 6.5 C 12 3.4624339 9.5375661 1 6.5 1 z M 6.5 3 C 8.4329966 3 10 4.5670034 10 6.5 C 10 8.4329966 8.4329966 10 6.5 10 C 4.5670034 10 3 8.4329966 3 6.5 C 3 4.5670034 4.5670034 3 6.5 3 z "
     id="path3791" />
</svg>
