<?xml version="1.0" encoding="UTF-8" standalone="no"?>
<!-- Created with Inkscape (http://www.inkscape.org/) -->

<svg
   xmlns:dc="http://purl.org/dc/elements/1.1/"
   xmlns:cc="http://creativecommons.org/ns#"
   xmlns:rdf="http://www.w3.org/1999/02/22-rdf-syntax-ns#"
   xmlns:svg="http://www.w3.org/2000/svg"
   xmlns="http://www.w3.org/2000/svg"
   xmlns:xlink="http://www.w3.org/1999/xlink"
   xmlns:sodipodi="http://sodipodi.sourceforge.net/DTD/sodipodi-0.dtd"
   xmlns:inkscape="http://www.inkscape.org/namespaces/inkscape"
   id="svg7384"
   height="16"
   width="16"
   version="1.1"
   inkscape:version="0.48.4 r9939"
   sodipodi:docname="folder-pictures-symbolic.svg">
  <defs
     id="defs9">
    <linearGradient
       inkscape:collect="always"
       xlink:href="#linearGradient9073-9-6-3-7-2-4"
       id="linearGradient2996"
       gradientUnits="userSpaceOnUse"
       gradientTransform="matrix(1.2173913,0,0,1.2173913,3.086957,-37.478261)"
       x1="4.0357137"
       y1="33.25"
       x2="4.0357137"
       y2="41.464287" />
    <linearGradient
       id="linearGradient9073-9-6-3-7-2-4">
      <stop
         id="stop9075-9-1-5-3-8-9"
         offset="0"
         style="stop-color:#8fb3d9;stop-opacity:1" />
      <stop
         id="stop9077-5-3-8-0-5-8"
         offset="1"
         style="stop-color:#3465a4;stop-opacity:1" />
    </linearGradient>
  </defs>
  <sodipodi:namedview
     pagecolor="#ffffff"
     bordercolor="#666666"
     borderopacity="1"
     objecttolerance="10"
     gridtolerance="10"
     guidetolerance="10"
     inkscape:pageopacity="0"
     inkscape:pageshadow="2"
     inkscape:window-width="1025"
     inkscape:window-height="726"
     id="namedview7"
     showgrid="true"
     inkscape:zoom="24"
     inkscape:cx="8"
     inkscape:cy="8.4791667"
     inkscape:window-x="0"
     inkscape:window-y="24"
     inkscape:window-maximized="0"
     inkscape:current-layer="svg7384"
     inkscape:object-paths="true"
     inkscape:snap-intersection-paths="true">
    <inkscape:grid
       type="xygrid"
       id="grid2986" />
  </sodipodi:namedview>
  <metadata
     id="metadata90">
    <rdf:RDF>
      <cc:Work
         rdf:about="">
        <dc:format>image/svg+xml</dc:format>
        <dc:type
           rdf:resource="http://purl.org/dc/dcmitype/StillImage" />
        <dc:title>Gnome Symbolic Icon Theme</dc:title>
      </cc:Work>
    </rdf:RDF>
  </metadata>
  <title
     id="title9167">Gnome Symbolic Icon Theme</title>
  <path
     style="color:#bebebe;fill:#bebebe;fill-opacity:1;fill-rule:nonzero;stroke:none;stroke-width:1;marker:none;visibility:visible;display:inline;overflow:visible;enable-background:accumulate"
     d="m 7.5,2 -1,1 -5,0 c -0.554,0 -1,0.446 -1,1 l 0,8.5 c 0,0.554 0.446,1 1,1 l 13,0 c 0.554,0 1,-0.446 1,-1 l 0,-8.5 c 0,-0.554 -0.462541,-1.1343647 -1,-1 l -2,0 -1,-1 z m 2,2.75 c 1.932997,0 3.5,1.5670034 3.5,3.5 0,1.932997 -1.567003,3.5 -3.5,3.5 C 7.5670034,11.75 6,10.182997 6,8.25 6,6.3170034 7.5670034,4.75 9.5,4.75 z m 0,1.5 c -1.1045695,0 -2,0.8954305 -2,2 0,1.1045695 0.8954305,2 2,2 1.104569,0 2,-0.8954305 2,-2 0,-1.1045695 -0.895431,-2 -2,-2 z"
     id="rect3785"
     inkscape:connector-curvature="0"
     sodipodi:nodetypes="ccsssssssccccssssssssss" />
</svg>
