<?xml version="1.0" encoding="UTF-8" standalone="no"?>
<!-- Created with Inkscape (http://www.inkscape.org/) -->

<svg
   xmlns:dc="http://purl.org/dc/elements/1.1/"
   xmlns:cc="http://creativecommons.org/ns#"
   xmlns:rdf="http://www.w3.org/1999/02/22-rdf-syntax-ns#"
   xmlns:svg="http://www.w3.org/2000/svg"
   xmlns="http://www.w3.org/2000/svg"
   xmlns:sodipodi="http://sodipodi.sourceforge.net/DTD/sodipodi-0.dtd"
   xmlns:inkscape="http://www.inkscape.org/namespaces/inkscape"
   width="16px"
   height="16px"
   id="svg3834"
   version="1.1"
   inkscape:version="0.48.3.1 r9886"
   sodipodi:docname="New document 3">
  <defs
     id="defs3836" />
  <sodipodi:namedview
     id="base"
     pagecolor="#ffffff"
     bordercolor="#666666"
     borderopacity="1.0"
     inkscape:pageopacity="0.0"
     inkscape:pageshadow="2"
     inkscape:zoom="22.197802"
     inkscape:cx="8"
     inkscape:cy="8"
     inkscape:current-layer="layer1"
     showgrid="true"
     inkscape:grid-bbox="true"
     inkscape:document-units="px"
     inkscape:window-width="961"
     inkscape:window-height="674"
     inkscape:window-x="22"
     inkscape:window-y="27"
     inkscape:window-maximized="0" />
  <metadata
     id="metadata3839">
    <rdf:RDF>
      <cc:Work
         rdf:about="">
        <dc:format>image/svg+xml</dc:format>
        <dc:type
           rdf:resource="http://purl.org/dc/dcmitype/StillImage" />
        <dc:title></dc:title>
      </cc:Work>
    </rdf:RDF>
  </metadata>
  <g
     id="layer1"
     inkscape:label="Layer 1"
     inkscape:groupmode="layer">
    <g
       id="g3815"
       transform="matrix(0.05633803,0,0,0.05633803,0.478873,0.47887299)">
      <path
         id="voice"
         d="M 133.5,0.375 C 60.00876,0.375 0.42714,59.92523 0.375,133.40625 l 0,103.03125 c 0.03955,16.68433 13.55518,30.1875 30.25,30.1875 l 102.9375,0 C 207.06225,266.59615 266.625,207.00529 266.625,133.5 266.625,59.97515 207.0243,0.375 133.5,0.375 z m 39.09375,31.5 c 34.31253,0 62.4375,28.15623 62.4375,62.46875 0,34.31253 -28.12496,62.4375 -62.4375,62.4375 l -33,0 0,33.09375 c 0,23.72151 -13.21077,44.35656 -32.6875,54.9375 -0.0281,0.0154 -0.0656,0.0159 -0.0937,0.0313 -0.85746,0.46409 -1.71272,0.9192 -2.59375,1.34375 -0.0294,0.0143 -0.0643,0.017 -0.0937,0.0313 -0.8819,0.42326 -1.78325,0.83626 -2.6875,1.21875 -0.47463,0.20289 -0.95704,0.37117 -1.4375,0.5625 -0.468471,0.18462 -0.932324,0.38896 -1.40625,0.5625 -6.70255,2.47981 -13.938236,3.84375 -21.46875,3.84375 -34.312527,0 -62.4375,-28.15623 -62.4375,-62.46875 0,-34.31253 28.124962,-62.4375 62.4375,-62.4375 l 32.96875,0 0,-33.09375 c 0,-24.799764 14.46488,-46.221305 35.40625,-56.3125 0.0296,-0.01427 0.0641,-0.01702 0.0937,-0.03125 0.87969,-0.426219 1.75457,-0.833301 2.65625,-1.21875 0.0301,-0.01275 0.0636,-0.01854 0.0937,-0.03125 0.90264,-0.384164 1.82661,-0.751635 2.75,-1.09375 0.0309,-0.0113 0.0629,-0.01999 0.0937,-0.03125 0.92406,-0.340694 1.86895,-0.640114 2.8125,-0.9375 0.0313,-0.0097 0.0624,-0.02157 0.0937,-0.03125 0.95372,-0.298913 1.90268,-0.559064 2.875,-0.8125 0.0218,-0.0056 0.0407,-0.02566 0.0625,-0.03125 0.97338,-0.252541 1.97803,-0.481781 2.96875,-0.6875 4.07345,-0.845839 8.28127,-1.3125 12.59375,-1.3125 z m 0,29.5625 c -18.19161,0 -32.96809,14.7459 -33,32.9375 l 0,28.65625 c 0,2.35377 1.7579,4.25479 4.03125,4.5625 l 28.96875,0 c 18.50808,0 33.25,-14.74191 33.25,-33.25 0,-15.944461 -10.94824,-29.069443 -25.8125,-32.40625 -1.87416,-0.227483 -3.88184,-0.5 -7.4375,-0.5 z m -95.46875,95.25 c -18.508082,0 -33.25,14.74191 -33.25,33.25 0,15.92148 10.918463,29.04602 25.75,32.40625 1.892126,0.22905 3.904686,0.5 7.5,0.5 18.19161,0 32.93684,-14.71465 32.96875,-32.90625 l 0,-28.65625 c 0,-2.35377 -1.7579,-4.28604 -4.03125,-4.59375 l -28.9375,0 z"
         style="fill:#b3b3b3"
         inkscape:connector-curvature="0" />
      <path
         id="in"
         d="m 77.125,127.5 c -34.312538,0 -62.4375,28.12497 -62.4375,62.4375 0,34.31252 28.124973,62.46875 62.4375,62.46875 4.312476,0 8.520303,-0.46666 12.59375,-1.3125 -4.067211,0.83236 -8.280595,1.25 -12.59375,1.25 -5.23494,0 -8.96664,-0.57706 -13.8125,-1.84375 -7.06595,-1.84912 -12.84135,-7.63642 -12.84375,-14.375 0,-8.14513 5.91207,-14.09375 14.75,-14.09375 1.752198,0 3.055335,0.14897 4.40625,0.3125 -14.831537,-3.36023 -25.75,-16.48477 -25.75,-32.40625 0,-18.50809 14.741918,-33.25 33.25,-33.25 l 28.9375,0 c -0.20667,-0.028 -0.41066,-0.0625 -0.625,-0.0625 l -21.65625,0 c -8.07212,0 -14.59375,-6.43702 -14.59375,-14.53125 -0.0043,-8.14456 6.59072,-14.5625 14.75,-14.5625 l 55.625,0 0,-0.0313 -14.59375,0 -47.84375,0 z m 12.59375,123.59375 c 3.016386,-0.62634 5.968748,-1.45153 8.8125,-2.5 -2.850491,1.04015 -5.785287,1.88048 -8.8125,2.5 z"
         style="font-size:medium;font-style:normal;font-variant:normal;font-weight:normal;font-stretch:normal;text-indent:0;text-align:start;text-decoration:none;line-height:normal;letter-spacing:normal;word-spacing:normal;text-transform:none;direction:ltr;block-progression:tb;writing-mode:lr-tb;text-anchor:start;baseline-shift:baseline;opacity:0.5;color:#000000;fill:#b3b3b3;fill-opacity:1;stroke:none;stroke-width:29.20999908;marker:none;visibility:visible;display:inline;overflow:visible;enable-background:accumulate;font-family:Sans;-inkscape-font-specification:Sans"
         inkscape:connector-curvature="0" />
      <path
         id="finity"
         d="m 172.59375,31.875 c -4.31248,0 -8.5203,0.466661 -12.59375,1.3125 4.06721,-0.832359 8.2806,-1.25 12.59375,-1.25 5.23494,0 8.93539,0.57706 13.78125,1.84375 7.06595,1.84912 12.84135,7.63642 12.84375,14.375 0,8.14513 -5.91207,14.09375 -14.75,14.09375 -1.77926,0 -3.06359,-0.145737 -4.4375,-0.3125 14.86426,3.336807 25.8125,16.461789 25.8125,32.40625 0,18.50809 -14.74192,33.25 -33.25,33.25 l -28.96875,0 c 0.20667,0.028 0.41066,0.0625 0.625,0.0625 l 21.6875,0 c 8.07212,0 14.59375,6.43702 14.59375,14.53125 0.004,8.14456 -6.59072,14.5625 -14.75,14.5625 l -55.625,0 0,0.0313 14.59375,0 47.84375,0 c 34.31254,0 62.4375,-28.12497 62.4375,-62.4375 0,-34.31252 -28.12497,-62.46875 -62.4375,-62.46875 z"
         style="font-size:medium;font-style:normal;font-variant:normal;font-weight:normal;font-stretch:normal;text-indent:0;text-align:start;text-decoration:none;line-height:normal;letter-spacing:normal;word-spacing:normal;text-transform:none;direction:ltr;block-progression:tb;writing-mode:lr-tb;text-anchor:start;baseline-shift:baseline;opacity:0.5;color:#000000;fill:#b3b3b3;fill-opacity:1;stroke:none;stroke-width:29.20999908;marker:none;visibility:visible;display:inline;overflow:visible;enable-background:accumulate;font-family:Sans;-inkscape-font-specification:Sans"
         inkscape:connector-curvature="0" />
    </g>
  </g>
</svg>
