<?xml version="1.0" encoding="UTF-8" standalone="no"?>
<!-- Created with Inkscape (http://www.inkscape.org/) -->

<svg
   xmlns:dc="http://purl.org/dc/elements/1.1/"
   xmlns:cc="http://creativecommons.org/ns#"
   xmlns:rdf="http://www.w3.org/1999/02/22-rdf-syntax-ns#"
   xmlns:svg="http://www.w3.org/2000/svg"
   xmlns="http://www.w3.org/2000/svg"
   xmlns:sodipodi="http://sodipodi.sourceforge.net/DTD/sodipodi-0.dtd"
   xmlns:inkscape="http://www.inkscape.org/namespaces/inkscape"
   width="16px"
   height="16px"
   id="svg3191"
   version="1.1"
   inkscape:version="0.48.3.1 r9886"
   sodipodi:docname="New document 4">
  <defs
     id="defs3193" />
  <sodipodi:namedview
     id="base"
     pagecolor="#ffffff"
     bordercolor="#666666"
     borderopacity="1.0"
     inkscape:pageopacity="0.0"
     inkscape:pageshadow="2"
     inkscape:zoom="22.197802"
     inkscape:cx="8"
     inkscape:cy="8"
     inkscape:current-layer="layer1"
     showgrid="true"
     inkscape:grid-bbox="true"
     inkscape:document-units="px"
     inkscape:window-width="1001"
     inkscape:window-height="694"
     inkscape:window-x="46"
     inkscape:window-y="34"
     inkscape:window-maximized="0" />
  <metadata
     id="metadata3196">
    <rdf:RDF>
      <cc:Work
         rdf:about="">
        <dc:format>image/svg+xml</dc:format>
        <dc:type
           rdf:resource="http://purl.org/dc/dcmitype/StillImage" />
        <dc:title></dc:title>
      </cc:Work>
    </rdf:RDF>
  </metadata>
  <g
     id="layer1"
     inkscape:label="Layer 1"
     inkscape:groupmode="layer">
    <path
       style="fill:#b3b3b3;fill-opacity:1;fill-rule:evenodd;stroke:none"
       d="M 8.000027,-5e-6 C 7.28785,1.746022 6.85544,2.889805 6.062525,4.583985 6.548682,5.0993114 7.146167,5.697205 8.115261,6.3749925 7.07339,5.9462706 6.363162,5.516972 5.832056,5.0703211 4.817276,7.1877714 3.226376,10.202875 2e-5,16.000005 2.535192,14.536437 4.500499,13.633646 6.332057,13.289065 6.253697,12.951298 6.211837,12.584227 6.214869,12.203158 l 0.0019,-0.0801 c 0.04023,-1.624614 0.885584,-2.8738738 1.88672,-2.7891045 1.001135,0.084874 1.780473,1.4711175 1.740236,3.0957315 -0.0076,0.305997 -0.04315,0.600095 -0.103516,0.873066 1.811847,0.354595 3.75862,1.253296 6.259771,2.697258 -0.493246,-0.908086 -0.935033,-1.726212 -1.35547,-2.505859 -0.662256,-0.513281 -1.352689,-1.181108 -2.761721,-1.904295 0.968488,0.251634 1.662616,0.542639 2.203127,0.867195 C 9.811255,4.498272 9.465903,3.440045 8.000013,-5e-6 z"
       id="path2518"
       inkscape:connector-curvature="0" />
  </g>
</svg>
