<?xml version="1.0" encoding="UTF-8" standalone="no"?>
<!-- Created with Inkscape (http://www.inkscape.org/) -->

<svg
   xmlns:dc="http://purl.org/dc/elements/1.1/"
   xmlns:cc="http://creativecommons.org/ns#"
   xmlns:rdf="http://www.w3.org/1999/02/22-rdf-syntax-ns#"
   xmlns:svg="http://www.w3.org/2000/svg"
   xmlns="http://www.w3.org/2000/svg"
   xmlns:sodipodi="http://sodipodi.sourceforge.net/DTD/sodipodi-0.dtd"
   xmlns:inkscape="http://www.inkscape.org/namespaces/inkscape"
   width="16px"
   height="16px"
   id="svg4014"
   version="1.1"
   inkscape:version="0.48.3.1 r9886"
   sodipodi:docname="New document 11">
  <defs
     id="defs4016" />
  <sodipodi:namedview
     id="base"
     pagecolor="#ffffff"
     bordercolor="#666666"
     borderopacity="1.0"
     inkscape:pageopacity="0.0"
     inkscape:pageshadow="2"
     inkscape:zoom="22.197802"
     inkscape:cx="8"
     inkscape:cy="8"
     inkscape:current-layer="layer1"
     showgrid="true"
     inkscape:grid-bbox="true"
     inkscape:document-units="px"
     inkscape:window-width="1001"
     inkscape:window-height="694"
     inkscape:window-x="47"
     inkscape:window-y="64"
     inkscape:window-maximized="0" />
  <metadata
     id="metadata4019">
    <rdf:RDF>
      <cc:Work
         rdf:about="">
        <dc:format>image/svg+xml</dc:format>
        <dc:type
           rdf:resource="http://purl.org/dc/dcmitype/StillImage" />
        <dc:title></dc:title>
      </cc:Work>
    </rdf:RDF>
  </metadata>
  <g
     id="layer1"
     inkscape:label="Layer 1"
     inkscape:groupmode="layer">
    <path
       inkscape:connector-curvature="0"
       sodipodi:nodetypes="cssssssssssscsscsss"
       id="path2977"
       d="m 6.1527994,0.52297188 c -1.711101,0.18035 -2.03881,0.400549 -3.588934,1.57334702 -0.519531,0.3931 -1.475731,1.349498 -1.72073304,2.484147 -0.09331,0.432099 0.01698,0.805198 0.32820504,1.066798 0.996541,0.837799 2.664443,1.517547 4.032797,2.174596 0.400792,0.19245 0.135421,0.5414 -0.510897,1.100949 -1.630896,1.4118971 -3.83588904,3.1305941 -3.98982204,4.4401921 -0.07254,0.617149 0.138734,1.455698 0.88779004,1.884847 0.875017,0.5013 2.691423,0.1741 3.904307,-0.277549 1.772398,-0.659999 4.100618,-2.116647 5.9489986,-3.548444 1.922083,-1.4888981 3.709199,-3.3800451 3.7976,-3.6884451 0.108554,-0.378799 0.09773,-0.728598 -0.111762,-1.130798 C 14.801365,5.9709629 14.361534,5.5016139 13.889271,4.9763149 12.62211,3.6404169 11.281377,2.4665689 9.6772744,1.5670199 8.5188914,0.91742188 7.4997064,0.38102188 6.1527994,0.52297188 z m 2.513515,2.99499502 c 1.236191,0.597699 2.5056646,2.167547 -0.01101,3.071095 -0.684345,0.2457 -2.854699,-0.603449 -2.788259,-1.762197 0.09689,-1.711697 1.289868,-2.038647 2.799275,-1.308898 z"
       style="fill:#b3b3b3;fill-opacity:1;fill-rule:evenodd;stroke:none" />
  </g>
</svg>
