<?xml version="1.0" encoding="UTF-8" standalone="no"?>
<!-- Created with Inkscape (http://www.inkscape.org/) -->

<svg
   xmlns:dc="http://purl.org/dc/elements/1.1/"
   xmlns:cc="http://creativecommons.org/ns#"
   xmlns:rdf="http://www.w3.org/1999/02/22-rdf-syntax-ns#"
   xmlns:svg="http://www.w3.org/2000/svg"
   xmlns="http://www.w3.org/2000/svg"
   xmlns:xlink="http://www.w3.org/1999/xlink"
   xmlns:sodipodi="http://sodipodi.sourceforge.net/DTD/sodipodi-0.dtd"
   xmlns:inkscape="http://www.inkscape.org/namespaces/inkscape"
   version="1.1"
   inkscape:output_extension="org.inkscape.output.svg.inkscape"
   sodipodi:docname="folder-recent.svg"
   inkscape:version="0.48.3.1 r9886"
   sodipodi:version="0.32"
   id="svg7217"
   height="96"
   width="96"
   inkscape:export-filename="folder-recent.png"
   inkscape:export-xdpi="90"
   inkscape:export-ydpi="90">
  <defs
     id="defs7219">
    <linearGradient
       inkscape:collect="always"
       xlink:href="#linearGradient5048-3"
       id="linearGradient3247"
       gradientUnits="userSpaceOnUse"
       gradientTransform="matrix(0.125709,0,0,0.0864706,2.5651808,-10.70427)"
       x1="302.85715"
       y1="366.64789"
       x2="302.85715"
       y2="609.50507" />
    <linearGradient
       id="linearGradient5048-3">
      <stop
         style="stop-color:black;stop-opacity:0;"
         offset="0"
         id="stop5050-4" />
      <stop
         id="stop5056-6"
         offset="0.5"
         style="stop-color:black;stop-opacity:1;" />
      <stop
         style="stop-color:black;stop-opacity:0;"
         offset="1"
         id="stop5052-8" />
    </linearGradient>
    <radialGradient
       inkscape:collect="always"
       xlink:href="#linearGradient5060-5"
       id="radialGradient3244"
       gradientUnits="userSpaceOnUse"
       gradientTransform="matrix(0.125709,0,0,0.0864706,2.5899204,-10.70427)"
       cx="605.71429"
       cy="486.64789"
       fx="605.71429"
       fy="486.64789"
       r="117.14286" />
    <linearGradient
       inkscape:collect="always"
       id="linearGradient5060-5">
      <stop
         style="stop-color:black;stop-opacity:1;"
         offset="0"
         id="stop5062-8" />
      <stop
         style="stop-color:black;stop-opacity:0;"
         offset="1"
         id="stop5064-65" />
    </linearGradient>
    <radialGradient
       inkscape:collect="always"
       xlink:href="#linearGradient5060-5"
       id="radialGradient3241"
       gradientUnits="userSpaceOnUse"
       gradientTransform="matrix(-0.125709,0,0,0.0864706,93.410098,-10.70427)"
       cx="605.71429"
       cy="486.64789"
       fx="605.71429"
       fy="486.64789"
       r="117.14286" />
    <linearGradient
       inkscape:collect="always"
       xlink:href="#linearGradient4064-7-45"
       id="linearGradient3230"
       gradientUnits="userSpaceOnUse"
       gradientTransform="matrix(2,0,0,2,-94,-48)"
       x1="71"
       y1="8"
       x2="71"
       y2="41.5" />
    <linearGradient
       id="linearGradient4064-7-45">
      <stop
         style="stop-color:#c22f2f;stop-opacity:1;"
         offset="0"
         id="stop4066-4-2" />
      <stop
         style="stop-color:#c22f2f;stop-opacity:0.50196081;"
         offset="1"
         id="stop4068-8-2" />
    </linearGradient>
    <linearGradient
       inkscape:collect="always"
       xlink:href="#linearGradient4054-7-77"
       id="linearGradient3232"
       gradientUnits="userSpaceOnUse"
       gradientTransform="matrix(2,0,0,2,-94,-48)"
       x1="71"
       y1="8"
       x2="71"
       y2="41.5" />
    <linearGradient
       id="linearGradient4054-7-77">
      <stop
         style="stop-color:#a40000;stop-opacity:1;"
         offset="0"
         id="stop4056-0-6" />
      <stop
         style="stop-color:#a40000;stop-opacity:0.50196081;"
         offset="1"
         id="stop4058-9-6" />
    </linearGradient>
    <linearGradient
       inkscape:collect="always"
       xlink:href="#linearGradient9101-6"
       id="linearGradient3227"
       gradientUnits="userSpaceOnUse"
       gradientTransform="matrix(0.75086228,0,0,0.3333332,-6.0605797,-28.166666)"
       x1="71.999496"
       y1="14.2578"
       x2="71.999496"
       y2="19.9583" />
    <linearGradient
       gradientTransform="matrix(1.0033404,0,0,1,-8.2374684,8)"
       y2="19.9583"
       x2="71.999496"
       y1="14.2578"
       x1="71.999496"
       gradientUnits="userSpaceOnUse"
       id="linearGradient9101-6">
      <stop
         id="stop9103-4"
         style="stop-color:#a40000;stop-opacity:0;"
         offset="0.25" />
      <stop
         id="stop9105-4"
         style="stop-color:#a40000;stop-opacity:1;"
         offset="1" />
    </linearGradient>
    <linearGradient
       inkscape:collect="always"
       xlink:href="#linearGradient9073-9-1"
       id="linearGradient3259"
       gradientUnits="userSpaceOnUse"
       gradientTransform="matrix(0.7031318,0,0,0.7105376,-69.874472,-254.68002)"
       x1="167.64111"
       y1="328.87747"
       x2="167.64111"
       y2="407.69193" />
    <linearGradient
       id="linearGradient9073-9-1">
      <stop
         id="stop9075-9-7"
         offset="0"
         style="stop-color:#e47070;stop-opacity:1" />
      <stop
         id="stop9077-5-1"
         offset="1"
         style="stop-color:#c22f2f;stop-opacity:1" />
    </linearGradient>
    <linearGradient
       inkscape:collect="always"
       xlink:href="#linearGradient9087-5-4"
       id="linearGradient3261"
       gradientUnits="userSpaceOnUse"
       gradientTransform="matrix(2,0,0,2,-365.99542,-54)"
       x1="206.99738"
       y1="16.499895"
       x2="206.99738"
       y2="44.50021" />
    <linearGradient
       inkscape:collect="always"
       id="linearGradient9087-5-4">
      <stop
         style="stop-color:#c22f2f;stop-opacity:1"
         offset="0"
         id="stop9089-5-8" />
      <stop
         style="stop-color:#a40000;stop-opacity:1"
         offset="1"
         id="stop9091-1-5" />
    </linearGradient>
    <linearGradient
       inkscape:collect="always"
       xlink:href="#linearGradient10176-3"
       id="linearGradient3256"
       gradientUnits="userSpaceOnUse"
       gradientTransform="matrix(0.9204022,0,0,1.885618,-11.468937,-87.058428)"
       x1="7.2379346"
       y1="36.005047"
       x2="122.17093"
       y2="36.005047" />
    <linearGradient
       id="linearGradient10176-3"
       gradientUnits="userSpaceOnUse"
       x1="71.999496"
       y1="14.2578"
       x2="71.999496"
       y2="19.9583"
       gradientTransform="matrix(1.0033404,0,0,1,-8.2374684,8)">
      <stop
         offset="0.00445589"
         style="stop-color:#eaeaea;stop-opacity:0;"
         id="stop10178-0" />
      <stop
         id="stop10180-4"
         style="stop-color:#ffffff;stop-opacity:0.52941179;"
         offset="0.46138024" />
      <stop
         offset="1"
         style="stop-color:#f5f5f5;stop-opacity:0"
         id="stop10182-6" />
    </linearGradient>
  </defs>
  <sodipodi:namedview
     id="base"
     pagecolor="#ffffff"
     bordercolor="#666666"
     borderopacity="1.0"
     inkscape:pageopacity="0.0"
     inkscape:pageshadow="2"
     inkscape:zoom="6.2395833"
     inkscape:cx="48"
     inkscape:cy="48"
     inkscape:current-layer="layer1"
     showgrid="true"
     inkscape:grid-bbox="true"
     inkscape:document-units="px"
     inkscape:window-width="1058"
     inkscape:window-height="811"
     inkscape:window-x="145"
     inkscape:window-y="24"
     inkscape:window-maximized="0"
     inkscape:object-paths="true"
     inkscape:snap-intersection-paths="true"
     inkscape:object-nodes="false"
     inkscape:snap-smooth-nodes="false"
     inkscape:snap-midpoints="false"
     inkscape:snap-object-midpoints="true"
     inkscape:snap-nodes="true"
     fit-margin-top="0"
     fit-margin-left="0"
     fit-margin-right="0"
     fit-margin-bottom="0" />
  <metadata
     id="metadata7222">
    <rdf:RDF>
      <cc:Work
         rdf:about="">
        <dc:format>image/svg+xml</dc:format>
        <dc:type
           rdf:resource="http://purl.org/dc/dcmitype/StillImage" />
        <dc:title />
      </cc:Work>
    </rdf:RDF>
  </metadata>
  <g
     id="layer1"
     inkscape:label="Layer 1"
     inkscape:groupmode="layer"
     transform="translate(0,48)">
    <g
       id="g3274">
      <g
         id="g3269">
        <rect
           style="opacity:0.40206185;fill:url(#linearGradient3247);fill-opacity:1;fill-rule:nonzero;stroke:none;stroke-width:1;marker:none;visibility:visible;display:inline;overflow:visible"
           id="rect13073"
           width="60.699482"
           height="21.000004"
           x="17.650259"
           y="21" />
        <path
           style="opacity:0.40206185;fill:url(#radialGradient3244);fill-opacity:1;fill-rule:nonzero;stroke:none;stroke-width:1;marker:none;visibility:visible;display:inline;overflow:visible"
           d="m 78.349742,21.000718 c 0,0 0,20.998846 0,20.998846 C 84.823444,42.039084 94.000004,37.294788 94,31.49879 94,25.70279 86.775836,21.00072 78.349742,21.000718 z"
           id="path13075"
           sodipodi:nodetypes="cccc"
           inkscape:connector-curvature="0" />
        <path
           sodipodi:nodetypes="cccc"
           id="path13077"
           d="m 17.65026,21.000718 c 0,0 0,20.998846 0,20.998846 -6.473703,0.03952 -15.6502598,-4.704776 -15.6502598,-10.500774 0,-5.796 7.224163,-10.49807 15.6502598,-10.498072 z"
           style="opacity:0.40206185;fill:url(#radialGradient3241);fill-opacity:1;fill-rule:nonzero;stroke:none;stroke-width:1;marker:none;visibility:visible;display:inline;overflow:visible"
           inkscape:connector-curvature="0" />
      </g>
      <g
         id="g3263">
        <path
           style="color:#000000;fill:url(#linearGradient3230);fill-opacity:1;fill-rule:evenodd;stroke:url(#linearGradient3232);stroke-width:1;stroke-linecap:butt;stroke-linejoin:miter;stroke-miterlimit:4;stroke-opacity:1;stroke-dasharray:none;stroke-dashoffset:0;marker:none;visibility:visible;display:inline;overflow:visible;enable-background:accumulate"
           d="m 63,-32 c -1.108,0 -2.0895,0.4645 -2.8125,1.1875 L 56.375,-27 11,-27 c -2.216,0 -4,1.784 -4,4 l 0,56 c 0,1.108 0.892,2 2,2 l 78,0 c 1.108,0 2,-0.892 2,-2 l 0,-61 c 0,-2.216 -1.784,-4 -4,-4 z"
           id="rect3142"
           inkscape:connector-curvature="0"
           sodipodi:nodetypes="sscsccccccss" />
        <path
           style="opacity:0.5;fill:url(#linearGradient3227);fill-opacity:1;display:inline;enable-background:new"
           id="path39053"
           d="m 7.5014969,-23.5 c 0.00626,0.583332 0.012514,1.251666 0.018752,2 l 80.9609801,0 c 0.0063,-0.748334 0.01256,-1.416668 0.01883,-2 l -80.9999993,0 0.0015,0 z"
           inkscape:connector-curvature="0" />
        <path
           inkscape:connector-curvature="0"
           sodipodi:nodetypes="cccccccccc"
           style="opacity:0.9;color:#000000;fill:url(#linearGradient3259);fill-opacity:1;fill-rule:nonzero;stroke:url(#linearGradient3261);stroke-width:0.99958181;stroke-linecap:butt;stroke-linejoin:miter;stroke-miterlimit:4;stroke-opacity:1;stroke-dasharray:none;stroke-dashoffset:0;marker:none;visibility:visible;display:inline;overflow:visible;enable-background:new"
           id="path3300"
           d="m 90.493984,33 c -0.06074,1.170968 -1.335732,2.000418 -2.499686,2.000418 l -79.9899374,0 c -1.163934,0 -2.438312,-0.82945 -2.499686,-2.000418 l -2.499684,-51.999792 c -0.08468,-1.168834 0.835794,-2.000416 1.999748,-2.000416 l 85.9891834,0 c 1.163954,0 2.088616,0.831582 1.999748,2.000416 L 90.493984,33 z" />
        <rect
           style="fill:url(#linearGradient3256);fill-opacity:1;stroke:none;display:inline;enable-background:new"
           id="rect3521-5"
           width="89"
           height="2"
           x="3.4999948"
           y="-20.5"
           rx="0"
           ry="0" />
      </g>
    </g>
    <path
       style="opacity:0.6;fill:#ffffff;fill-rule:evenodd;stroke:none"
       d="m 48,-9.00001 c -8.836556,0 -16,7.163444 -16,16 l -4,0 6.5,8 6.5,-8 -4,0 c 0,-6.075132 4.924868,-11 11,-11 6.075132,0 11,4.924868 11,11 0,6.075132 -4.924868,11 -11,11 -1.87512,0.0048 -3.759156,-0.494924 -5.5,-1.5 -0.299862,-0.17312 -0.615216,-0.27212 -0.9375,-0.3125 -0.966854,-0.12114 -1.980624,0.350416 -2.5,1.25 -0.6925,1.199446 -0.261946,2.745 0.9375,3.4375 2.525172,1.457908 5.279848,2.128004 8,2.125 8.836556,0 16,-7.163444 16,-16 0,-8.836556 -7.163444,-16 -16,-16 z m 0,6 c -1.108,0 -2,0.892 -2,2 l 0,8 c 0,0.04344 -0.0028,0.08226 0,0.125 0.0292,0.425922 0.215998,0.795464 0.5,1.125 0.09856,0.11938 0.189,0.218888 0.3125,0.3125 0.06758,0.0514 0.11196,0.14388 0.1875,0.1875 l 5.1875,3 c 0.959556,0.554 2.196,0.209556 2.75,-0.75 0.554,-0.959556 0.209556,-2.196 -0.75,-2.75 L 50,5.81249 l 0,-6.8125 c 0,-1.108 -0.892,-2 -2,-2 z"
       id="path3043"
       inkscape:connector-curvature="0"
       sodipodi:nodetypes="scccccsscsssscssssscccccsccss" />
    <path
       style="opacity:0.25;fill:#000000;fill-rule:evenodd;stroke:none"
       d="m 48,-10.00001 c -8.836556,0 -16,7.163444 -16,16 l -4,0 1.625,2 2.375,0 c 0,-8.836556 7.163444,-16 16,-16 8.496374,0 15.415014,6.63531 15.9375,15 0.02092,-0.334908 0.0625,-0.659818 0.0625,-1 0,-8.836556 -7.163444,-16 -16,-16 z m 0,7 c -0.603946,0 -1.172498,0.09386 -1.75,0.1875 -0.122576,0.259452 -0.25,0.505506 -0.25,0.8125 l 0,2 c 0,-1.108 0.892,-2 2,-2 1.108,0 2,0.892 2,2 l 0,-2 c 0,-0.306994 -0.12742,-0.553048 -0.25,-0.8125 -0.577502,-0.09364 -1.146054,-0.1875 -1.75,-0.1875 z m 2,7.8125 0,2 4.1875,2.4375 c 0.322218,0.18604 0.577232,0.446386 0.75,0.75 0.554,-0.959556 0.209556,-2.196 -0.75,-2.75 L 50,4.81249 z M 37.1875,5.99999 C 37.06576,6.655306 37,7.309402 37,7.99999 l 2.375,0 1.625,-2 -3.8125,0 z m 21.75,1.125 c -0.56331,5.546816 -5.242064,9.875 -10.9375,9.875 -1.87512,0.0048 -3.759156,-0.494924 -5.5,-1.5 -0.299862,-0.17312 -0.615216,-0.27212 -0.9375,-0.3125 -0.966854,-0.12114 -1.980624,0.350416 -2.5,1.25 -0.408988,0.708388 -0.426506,1.547194 -0.125,2.25 0.03882,-0.09114 0.07426,-0.1621 0.125,-0.25 0.519376,-0.899584 1.533146,-1.37114 2.5,-1.25 0.322284,0.04038 0.637638,0.13938 0.9375,0.3125 1.740844,1.005076 3.62488,1.5048 5.5,1.5 6.075132,0 11,-4.924868 11,-11 0,-0.295578 -0.03962,-0.585302 -0.0625,-0.875 z"
       id="path3895"
       inkscape:connector-curvature="0" />
  </g>
</svg>
