<?xml version="1.0" encoding="UTF-8" standalone="no"?>
<!-- Created with Inkscape (http://www.inkscape.org/) -->

<svg
   xmlns:dc="http://purl.org/dc/elements/1.1/"
   xmlns:cc="http://creativecommons.org/ns#"
   xmlns:rdf="http://www.w3.org/1999/02/22-rdf-syntax-ns#"
   xmlns:svg="http://www.w3.org/2000/svg"
   xmlns="http://www.w3.org/2000/svg"
   xmlns:sodipodi="http://sodipodi.sourceforge.net/DTD/sodipodi-0.dtd"
   xmlns:inkscape="http://www.inkscape.org/namespaces/inkscape"
   id="svg7384"
   height="16"
   width="16"
   version="1.1"
   inkscape:version="0.48.4 r9939"
   sodipodi:docname="drive-harddisk-symbolic.svg">
  <defs
     id="defs11" />
  <sodipodi:namedview
     pagecolor="#ffffff"
     bordercolor="#666666"
     borderopacity="1"
     objecttolerance="10"
     gridtolerance="10"
     guidetolerance="10"
     inkscape:pageopacity="0"
     inkscape:pageshadow="2"
     inkscape:window-width="1046"
     inkscape:window-height="774"
     id="namedview9"
     showgrid="true"
     inkscape:object-paths="true"
     inkscape:snap-intersection-paths="true"
     inkscape:object-nodes="true"
     inkscape:zoom="35"
     inkscape:cx="8"
     inkscape:cy="8"
     inkscape:window-x="158"
     inkscape:window-y="83"
     inkscape:window-maximized="0"
     inkscape:current-layer="svg7384">
    <inkscape:grid
       type="xygrid"
       id="grid2988" />
  </sodipodi:namedview>
  <metadata
     id="metadata90">
    <rdf:RDF>
      <cc:Work
         rdf:about="">
        <dc:format>image/svg+xml</dc:format>
        <dc:type
           rdf:resource="http://purl.org/dc/dcmitype/StillImage" />
        <dc:title>Gnome Symbolic Icon Theme</dc:title>
      </cc:Work>
    </rdf:RDF>
  </metadata>
  <title
     id="title9167">Gnome Symbolic Icon Theme</title>
  <path
     style="opacity:1;color:#000000;fill:#bebebe;fill-opacity:1;fill-rule:evenodd;stroke:none;stroke-width:1px;marker:none;visibility:visible;display:inline;overflow:visible;enable-background:accumulate"
     d="M 2 12 C 1.4477153 12 1 12.447715 1 13 L 1 14 C 1 14.552285 1.4477153 15 2 15 L 14 15 C 14.552285 15 15 14.552285 15 14 L 15 13 C 15 12.447715 14.552285 12 14 12 L 2 12 z M 4 12.5 C 4.5522847 12.5 5 12.947715 5 13.5 C 5 14.052285 4.5522847 14.5 4 14.5 C 3.4477153 14.5 3 14.052285 3 13.5 C 3 12.947715 3.4477153 12.5 4 12.5 z "
     id="rect3004" />
  <path
     style="color:#000000;fill:#bebebe;fill-opacity:1;fill-rule:evenodd;stroke:none;stroke-width:1px;marker:none;visibility:visible;display:inline;overflow:visible;enable-background:accumulate"
     d="M 3.5,1 C 2.947715,1 2.5819262,1.4538253 2.5,2 L 1,12 c 0,-0.552285 0.4477153,-1 1,-1 l 12,0 c 0.552285,0 1,0.447715 1,1 L 13.5,2 c -0.08193,-0.5461747 -0.447715,-1 -1,-1 z"
     id="rect3001"
     inkscape:connector-curvature="0"
     sodipodi:nodetypes="sscsscsss" />
</svg>
