<?xml version="1.0" encoding="UTF-8" standalone="no"?>
<!-- Created with Inkscape (http://www.inkscape.org/) -->

<svg
   xmlns:dc="http://purl.org/dc/elements/1.1/"
   xmlns:cc="http://creativecommons.org/ns#"
   xmlns:rdf="http://www.w3.org/1999/02/22-rdf-syntax-ns#"
   xmlns:svg="http://www.w3.org/2000/svg"
   xmlns="http://www.w3.org/2000/svg"
   xmlns:xlink="http://www.w3.org/1999/xlink"
   xmlns:sodipodi="http://sodipodi.sourceforge.net/DTD/sodipodi-0.dtd"
   xmlns:inkscape="http://www.inkscape.org/namespaces/inkscape"
   width="96"
   height="96"
   id="svg4184"
   version="1.1"
   inkscape:version="0.48.3.1 r9886"
   sodipodi:docname="dialog-question.svg"
   inkscape:export-filename="dialog-question.png"
   inkscape:export-xdpi="90"
   inkscape:export-ydpi="90">
  <defs
     id="defs4186">
    <linearGradient
       id="linearGradient3808">
      <stop
         style="stop-color:#016dff;stop-opacity:1;"
         offset="0"
         id="stop3810" />
      <stop
         style="stop-color:#016dff;stop-opacity:1;"
         offset="1"
         id="stop3812" />
    </linearGradient>
    <radialGradient
       inkscape:collect="always"
       xlink:href="#linearGradient5960"
       id="radialGradient3509"
       gradientUnits="userSpaceOnUse"
       cx="-166.53223"
       cy="84.275475"
       fx="-166.53223"
       fy="84.275475"
       r="31.190229" />
    <linearGradient
       id="linearGradient5960"
       gradientUnits="userSpaceOnUse"
       x1="-84.002403"
       y1="-383.9971"
       x2="-12.0029"
       y2="-383.9971"
       gradientTransform="matrix(0,1,-1,0,-39.9985,140.0029)">
      <stop
         offset="0"
         style="stop-color:#016dff;stop-opacity:1;"
         id="stop5962" />
      <stop
         offset="1"
         style="stop-color:#000680;stop-opacity:1;"
         id="stop5964" />
    </linearGradient>
    <linearGradient
       inkscape:collect="always"
       id="linearGradient5990">
      <stop
         style="stop-color:#ffffff;stop-opacity:1;"
         offset="0"
         id="stop5992" />
      <stop
         style="stop-color:#ffffff;stop-opacity:0;"
         offset="1"
         id="stop5994" />
    </linearGradient>
    <radialGradient
       inkscape:collect="always"
       xlink:href="#linearGradient6138"
       id="radialGradient3513"
       gradientUnits="userSpaceOnUse"
       cx="-166.53223"
       cy="116.62209"
       fx="-166.53223"
       fy="116.62209"
       r="31.190229" />
    <linearGradient
       id="linearGradient6138"
       gradientUnits="userSpaceOnUse"
       x1="-84.002403"
       y1="-383.9971"
       x2="-12.0029"
       y2="-383.9971"
       gradientTransform="matrix(0,1,-1,0,-39.9985,140.0029)">
      <stop
         offset="0"
         style="stop-color:#016dff;stop-opacity:1;"
         id="stop6140" />
      <stop
         offset="1"
         style="stop-color:#0008a0;stop-opacity:1;"
         id="stop6142" />
    </linearGradient>
    <linearGradient
       id="linearGradient4021">
      <stop
         id="stop4023"
         offset="0"
         style="stop-color:#81b6ff;stop-opacity:1;" />
      <stop
         id="stop4025"
         offset="1"
         style="stop-color:#ffffff;stop-opacity:0;" />
    </linearGradient>
    <linearGradient
       id="linearGradient5919">
      <stop
         style="stop-color:#ffffff;stop-opacity:1;"
         offset="0"
         id="stop5921" />
      <stop
         style="stop-color:#ffffff;stop-opacity:0;"
         offset="1"
         id="stop5923" />
    </linearGradient>
    <linearGradient
       inkscape:collect="always"
       xlink:href="#linearGradient5990"
       id="linearGradient3794"
       gradientUnits="userSpaceOnUse"
       gradientTransform="matrix(1.3940456,0,0,1.3940456,290.66247,-141.60055)"
       x1="-176.82246"
       y1="72.392433"
       x2="-176.14407"
       y2="95.831161" />
    <linearGradient
       inkscape:collect="always"
       xlink:href="#linearGradient5919"
       id="linearGradient3797"
       gradientUnits="userSpaceOnUse"
       gradientTransform="matrix(1.3940456,0,0,1.3940456,290.66247,-141.60055)"
       x1="-176.82246"
       y1="5.9640594"
       x2="-176.82246"
       y2="109.09552" />
    <linearGradient
       inkscape:collect="always"
       xlink:href="#linearGradient4021"
       id="linearGradient3801"
       gradientUnits="userSpaceOnUse"
       gradientTransform="matrix(1.4746929,0,0,1.4746929,298.29012,-141.08039)"
       x1="-150.48445"
       y1="68.066399"
       x2="-150.48445"
       y2="117.80468" />
    <radialGradient
       inkscape:collect="always"
       xlink:href="#linearGradient5990"
       id="radialGradient3805"
       gradientUnits="userSpaceOnUse"
       gradientTransform="matrix(-1.4336811,0,0,0.9431004,-190.75411,-101.45974)"
       cx="-166.53223"
       cy="65.938202"
       fx="-166.53223"
       fy="65.938202"
       r="31.190229" />
    <linearGradient
       inkscape:collect="always"
       xlink:href="#linearGradient3808"
       id="linearGradient3814"
       x1="7.4578653"
       y1="20.146937"
       x2="88.532063"
       y2="20.146937"
       gradientUnits="userSpaceOnUse" />
    <linearGradient
       inkscape:collect="always"
       xlink:href="#linearGradient3808"
       id="linearGradient3792"
       x1="-26.234818"
       y1="25.068827"
       x2="-25.651821"
       y2="25.068827"
       gradientUnits="userSpaceOnUse" />
  </defs>
  <sodipodi:namedview
     id="base"
     pagecolor="#ffffff"
     bordercolor="#666666"
     borderopacity="1.0"
     inkscape:pageopacity="0.0"
     inkscape:pageshadow="2"
     inkscape:zoom="4"
     inkscape:cx="48"
     inkscape:cy="48"
     inkscape:current-layer="layer1"
     showgrid="true"
     inkscape:grid-bbox="true"
     inkscape:document-units="px"
     inkscape:window-width="1007"
     inkscape:window-height="714"
     inkscape:window-x="0"
     inkscape:window-y="0"
     inkscape:window-maximized="0" />
  <metadata
     id="metadata4189">
    <rdf:RDF>
      <cc:Work
         rdf:about="">
        <dc:format>image/svg+xml</dc:format>
        <dc:type
           rdf:resource="http://purl.org/dc/dcmitype/StillImage" />
        <dc:title></dc:title>
      </cc:Work>
    </rdf:RDF>
  </metadata>
  <g
     id="layer1"
     inkscape:label="Layer 1"
     inkscape:groupmode="layer"
     transform="translate(0,48)">
    <path
       transform="matrix(-1.4234093,0,0,1.4234093,-189.04353,-132.84908)"
       d="m -135.842,93.331604 c 0,16.949746 -13.74048,30.690226 -30.69023,30.690226 -16.94974,0 -30.69023,-13.74048 -30.69023,-30.690226 0,-16.949746 13.74049,-30.690229 30.69023,-30.690229 16.94975,0 30.69023,13.740483 30.69023,30.690229 z"
       sodipodi:ry="30.690229"
       sodipodi:rx="30.690229"
       sodipodi:cy="93.331604"
       sodipodi:cx="-166.53223"
       id="path5515"
       style="fill:url(#radialGradient3509);fill-opacity:1;stroke:none"
       sodipodi:type="arc" />
    <path
       style="fill:url(#radialGradient3805);fill-opacity:1;stroke:none"
       d="M 48,-44 C 23.699469,-44 4.0000001,-24.300531 4.0000001,0 L 92,0 C 92,-24.300531 72.300531,-44 48,-44 z"
       id="path3915"
       inkscape:connector-curvature="0" />
    <path
       sodipodi:type="arc"
       style="fill:url(#radialGradient3513);fill-opacity:1;stroke:none"
       id="path5906"
       sodipodi:cx="-166.53223"
       sodipodi:cy="93.331604"
       sodipodi:rx="30.690229"
       sodipodi:ry="30.690229"
       d="m -135.842,93.331604 c 0,16.949746 -13.74048,30.690226 -30.69023,30.690226 -16.94974,0 -30.69023,-13.74048 -30.69023,-30.690226 0,-16.949746 13.74049,-30.690229 30.69023,-30.690229 16.94975,0 30.69023,13.740483 30.69023,30.690229 z"
       transform="matrix(-1.3206644,0,0,1.3206644,-171.9332,-123.44522)" />
    <path
       inkscape:connector-curvature="0"
       id="path5910"
       d="m 47.995977,-40.702488 c -22.373391,0 -40.5144449,18.141065 -40.5144449,40.51445189 0,2.08287201 0.1321354,4.14396811 0.4356405,6.14251351 0.00215,0.014038 -0.00215,0.029525 0,0.043562 8.5187124,1.3625398 17.5904174,2.0475059 27.0096204,2.0475059 20.123275,0 38.698169,-3.3626498 53.583629,-9.01773613 C 88.091905,-22.984007 70.107287,-40.702481 47.995977,-40.702484 z"
       style="opacity:0.8921933;fill:url(#linearGradient3801);fill-opacity:1;stroke:none" />
    <path
       inkscape:connector-curvature="0"
       id="path5927"
       d="m 88.488423,-0.45879841 c 0.0042,0.23232528 0.04364,0.46376302 0.04364,0.69702238 0,22.37338603 -18.184628,40.51444903 -40.558015,40.51444903 -22.373385,0 -40.5144537,-18.141063 -40.5144494,-40.51444903 0,-0.2329547 -0.0039,-0.46499753 0,-0.69702238 C 7.8322872,21.59326 25.833614,39.358629 47.974044,39.358629 c 22.140135,0 40.141279,-17.765773 40.514451,-39.81742741 z"
       style="fill:url(#linearGradient3814);fill-opacity:1;stroke:none" />
    <path
       inkscape:connector-curvature="0"
       id="path5966"
       d="m 47.971646,-40.673694 c -22.373377,0 -40.5144444,18.141068 -40.5144444,40.51445895 0,0.20518928 -0.00264,0.40515701 0,0.6098893 C 7.8753349,-21.560774 25.860336,-39.279652 47.971646,-39.279637 c 21.641089,0 39.335975,16.97721 40.47089,38.33624859 0.01258,-0.004866 0.03093,0.004866 0.04358,0 C 88.067586,-22.955214 70.082955,-40.673679 47.971646,-40.673694 z"
       style="fill:url(#linearGradient3797);fill-opacity:1;stroke:none" />
    <path
       inkscape:connector-curvature="0"
       sodipodi:nodetypes="cscsccc"
       style="opacity:0.8;fill:url(#linearGradient3794);fill-opacity:1;stroke:none"
       d="m 47.971646,-40.673694 c -22.373377,0 -40.5144444,18.141068 -40.5144444,40.51445895 0,0.20518928 -0.00264,0.40515701 0,0.6098893 C 7.8753349,-21.560774 25.860336,-39.83727 47.971646,-39.837256 c 21.641089,0 39.335975,17.534829 40.47089,38.89386759 0.01258,-0.004866 0.03093,0.004866 0.04358,0 C 88.067586,-22.955214 70.082955,-40.673679 47.971646,-40.673694 z"
       id="path6088" />
    <path
       style="font-size:83.1875px;font-style:normal;font-variant:normal;font-weight:bold;font-stretch:normal;text-align:center;line-height:100%;letter-spacing:0px;word-spacing:0px;writing-mode:lr-tb;text-anchor:middle;opacity:0.5;fill:#000000;fill-opacity:1;stroke:none;font-family:Ubuntu Mono;-inkscape-font-specification:Ubuntu Mono Bold"
       d="m 46.710742,-28.793389 c -5.571823,0.07846 -11.178412,1.468529 -15.999999,4.330578 a 1.057957,1.057957 0 0 0 -0.46281,1.289256 l 3.140496,8.628099 a 1.057957,1.057957 0 0 0 1.454545,0.595041 c 3.829078,-1.800717 7.790941,-3.399395 11.83471,-3.173553 a 1.057957,1.057957 0 0 0 0.03306,0 c 1.206184,0.02505 2.546595,0.479774 3.504132,1.22314 0.957538,0.743366 1.544524,1.680213 1.520661,2.909091 a 1.057957,1.057957 0 0 0 0,0.09917 c 0.0968,1.314024 -0.377176,2.388136 -1.22314,3.4710747 -0.832561,1.065782 -2.01741,2.0835247 -3.107438,3.0743801 -0.01755,0.015952 -0.04861,0.017106 -0.06612,0.033058 -4.766692,3.709972 -9.054034,9.496965 -8.231404,16.1322308 a 1.057957,1.057957 0 0 0 1.057851,0.9256196 l 9.851239,0 a 1.057957,1.057957 0 0 0 0.92562,-0.561983 C 51.457796,9.2447881 51.741491,8.1208286 52.165287,7.04132 52.589084,5.9618115 53.134691,4.9969295 53.81818,4.4628077 a 1.057957,1.057957 0 0 0 0.132231,-0.1322314 c 3.05331,-3.39667341 7.140328,-6.2445538 9.752066,-10.6115698 0.01272,-0.021263 0.02042,-0.044789 0.03306,-0.066116 2.355697,-3.577365 2.617311,-8.1114178 1.22314,-12.0330578 -0.0094,-0.0347 -0.02331,-0.06464 -0.03306,-0.09917 -1.61946,-5.73602 -7.263098,-9.110785 -12.661157,-9.983471 -1.83807,-0.270118 -3.705158,-0.35661 -5.553719,-0.330578 z m 0.528926,44.099172 c -4.811369,-0.764468 -9.825691,2.897324 -9.917355,7.966941 l -0.03306,0 c -0.0023,0.02264 0.0022,0.0435 0,0.06612 -9.3e-5,0.01128 4.4e-5,0.02177 0,0.03306 -0.411562,4.471518 3.091198,8.478832 7.471074,8.991735 0.0034,3.93e-4 -0.0034,0.03267 0,0.03306 0.02236,0.0039 0.04375,-0.0037 0.06612,0 5.022886,0.825096 10.150521,-3.31743 9.851239,-8.561983 l 0.03306,0 c -0.0014,-0.02288 0.0015,-0.04319 0,-0.06612 3.16e-4,-0.01131 -2.68e-4,-0.02176 0,-0.03306 0.100972,-4.269517 -3.272909,-7.925595 -7.438016,-8.429751 -0.01066,-0.0013 -0.02238,0.0013 -0.03306,0 z"
       id="path3395"
       inkscape:connector-curvature="0" />
    <path
       inkscape:connector-curvature="0"
       id="path3391"
       d="m 40.155585,9.6712503 c -0.759775,-6.1282897 3.309748,-11.626338 7.918934,-15.1956475 2.163507,-1.9709598 4.975115,-4.1737974 4.734678,-7.4376478 0.06179,-3.181914 -3.182865,-5.17515 -6.063577,-5.234972 -4.354988,-0.243223 -8.507185,1.463312 -12.370126,3.279956 -1.039803,-2.874753 -2.079606,-5.749506 -3.119409,-8.624259 6.190037,-3.674347 13.738351,-4.89503 20.826647,-3.853349 5.120721,0.82785 10.399466,3.996776 11.835439,9.266447 1.337487,3.67916 1.079297,7.94738 -1.122499,11.2462537 -2.46009,4.1500846 -6.44761,6.99563664 -9.624512,10.5298011 -1.874673,1.4649896 -2.340031,4.5554924 -3.147835,6.0234175 -3.289246,0 -6.578493,0 -9.86774,0 z M 53.642458,23.800355 c 0.325855,4.56165 -4.324453,8.295715 -8.703118,7.537624 -3.854344,-0.415528 -7.02014,-4.054259 -6.608673,-7.967687 0.01723,-4.416587 4.576056,-7.702481 8.784806,-7.015804 3.660972,0.428567 6.663503,3.714076 6.526985,7.445867 z"
       style="font-size:83.1875px;font-style:normal;font-variant:normal;font-weight:bold;font-stretch:normal;text-align:center;line-height:100%;letter-spacing:0px;word-spacing:0px;writing-mode:lr-tb;text-anchor:middle;fill:#ffffff;fill-opacity:1;stroke:none;font-family:Ubuntu Mono;-inkscape-font-specification:Ubuntu Mono Bold" />
  </g>
</svg>
