<?xml version="1.0" encoding="UTF-8" standalone="no"?>
<!-- Created with Inkscape (http://www.inkscape.org/) -->

<svg
   xmlns:dc="http://purl.org/dc/elements/1.1/"
   xmlns:cc="http://creativecommons.org/ns#"
   xmlns:rdf="http://www.w3.org/1999/02/22-rdf-syntax-ns#"
   xmlns:svg="http://www.w3.org/2000/svg"
   xmlns="http://www.w3.org/2000/svg"
   xmlns:xlink="http://www.w3.org/1999/xlink"
   xmlns:sodipodi="http://sodipodi.sourceforge.net/DTD/sodipodi-0.dtd"
   xmlns:inkscape="http://www.inkscape.org/namespaces/inkscape"
   width="96"
   height="96"
   id="svg1307"
   sodipodi:version="0.32"
   inkscape:version="0.48.3.1 r9886"
   version="1.0"
   sodipodi:docname="network-connect.svg"
   inkscape:output_extension="org.inkscape.output.svg.inkscape"
   sodipodi:modified="true"
   inkscape:export-filename="network-connect.png"
   inkscape:export-xdpi="90"
   inkscape:export-ydpi="90">
  <defs
     id="defs1309">
    <linearGradient
       id="linearGradient4945">
      <stop
         id="stop4947"
         offset="0"
         style="stop-color:#ffffff;stop-opacity:1;" />
      <stop
         id="stop4949"
         offset="1"
         style="stop-color:#aeaeae;stop-opacity:1;" />
    </linearGradient>
    <linearGradient
       inkscape:collect="always"
       id="linearGradient4073">
      <stop
         style="stop-color:black;stop-opacity:1;"
         offset="0"
         id="stop4075" />
      <stop
         style="stop-color:black;stop-opacity:0;"
         offset="1"
         id="stop4077" />
    </linearGradient>
    <linearGradient
       inkscape:collect="always"
       id="linearGradient3036">
      <stop
         style="stop-color:#a1a1a1;stop-opacity:1;"
         offset="0"
         id="stop3038" />
      <stop
         style="stop-color:#a1a1a1;stop-opacity:0;"
         offset="1"
         id="stop3040" />
    </linearGradient>
    <linearGradient
       id="linearGradient3004">
      <stop
         style="stop-color:#808080;stop-opacity:1;"
         offset="0"
         id="stop3006" />
      <stop
         style="stop-color:black;stop-opacity:0;"
         offset="1"
         id="stop3008" />
    </linearGradient>
    <linearGradient
       inkscape:collect="always"
       id="linearGradient2964">
      <stop
         style="stop-color:#c1c1c1;stop-opacity:1;"
         offset="0"
         id="stop2966" />
      <stop
         style="stop-color:#c1c1c1;stop-opacity:0;"
         offset="1"
         id="stop2968" />
    </linearGradient>
    <linearGradient
       id="linearGradient2945">
      <stop
         style="stop-color:white;stop-opacity:0.66425991;"
         offset="0"
         id="stop2947" />
      <stop
         id="stop2951"
         offset="0.25824177"
         style="stop-color:white;stop-opacity:1;" />
      <stop
         style="stop-color:#ffffff;stop-opacity:0;"
         offset="1"
         id="stop2949" />
    </linearGradient>
    <linearGradient
       id="linearGradient3225">
      <stop
         style="stop-color:#ffffff;stop-opacity:1;"
         offset="0"
         id="stop3227" />
      <stop
         style="stop-color:#000000;stop-opacity:1;"
         offset="1"
         id="stop3229" />
    </linearGradient>
    <linearGradient
       id="linearGradient2426">
      <stop
         id="stop2428"
         offset="0"
         style="stop-color:#ffffff;stop-opacity:1;" />
      <stop
         id="stop2430"
         offset="1"
         style="stop-color:#ffffff;stop-opacity:0;" />
    </linearGradient>
    <linearGradient
       y2="29.0005"
       x2="64.000504"
       y1="113"
       x1="64.000504"
       gradientUnits="userSpaceOnUse"
       id="XMLID_2_">
      <stop
         id="stop20"
         style="stop-color:#00bf00;stop-opacity:1;"
         offset="0" />
      <stop
         id="stop22"
         style="stop-color:#009300;stop-opacity:1;"
         offset="1" />
    </linearGradient>
    <linearGradient
       inkscape:collect="always"
       xlink:href="#XMLID_2_"
       id="linearGradient4740"
       gradientUnits="userSpaceOnUse"
       gradientTransform="matrix(0.41741068,0,0,0.42559523,39.160714,70.407737)"
       x1="64.000504"
       y1="113"
       x2="64.000504"
       y2="29.0005" />
    <linearGradient
       inkscape:collect="always"
       xlink:href="#linearGradient4073"
       id="linearGradient4845"
       gradientUnits="userSpaceOnUse"
       gradientTransform="matrix(-0.67736158,0,0,-0.70316386,67.588274,153.77256)"
       x1="75.800629"
       y1="70.184402"
       x2="67.801277"
       y2="79.31221" />
    <linearGradient
       inkscape:collect="always"
       xlink:href="#linearGradient4073"
       id="linearGradient4848"
       gradientUnits="userSpaceOnUse"
       gradientTransform="matrix(-0.67736158,0,0,-0.70316386,90.956396,128.4941)"
       x1="75.800629"
       y1="70.184402"
       x2="67.801277"
       y2="79.31221" />
    <linearGradient
       inkscape:collect="always"
       xlink:href="#linearGradient3036"
       id="linearGradient4851"
       gradientUnits="userSpaceOnUse"
       gradientTransform="matrix(-0.47896779,-0.49721139,0.47896643,-0.49721279,55.427947,130.28274)"
       x1="30.560009"
       y1="66.608261"
       x2="41.596611"
       y2="67.292229" />
    <linearGradient
       inkscape:collect="always"
       xlink:href="#linearGradient4073"
       id="linearGradient4854"
       gradientUnits="userSpaceOnUse"
       gradientTransform="matrix(0.67736158,0,0,0.70316386,4.8972681,34.227457)"
       x1="90.793068"
       y1="75.343094"
       x2="73.121178"
       y2="88.823547" />
    <linearGradient
       inkscape:collect="always"
       xlink:href="#linearGradient3036"
       id="linearGradient4857"
       gradientUnits="userSpaceOnUse"
       gradientTransform="matrix(-0.47896779,-0.49721139,0.47896643,-0.49721279,55.540464,130.45979)"
       x1="25.886337"
       y1="67.406197"
       x2="35.311226"
       y2="67.406197" />
    <linearGradient
       inkscape:collect="always"
       xlink:href="#linearGradient2426"
       id="linearGradient4860"
       gradientUnits="userSpaceOnUse"
       gradientTransform="matrix(-0.47896779,-0.49721139,0.47896643,-0.49721279,55.540464,130.45979)"
       x1="57.673443"
       y1="96.847885"
       x2="57.673443"
       y2="86.428795" />
    <linearGradient
       inkscape:collect="always"
       xlink:href="#linearGradient2964"
       id="linearGradient4863"
       gradientUnits="userSpaceOnUse"
       gradientTransform="matrix(0.69038345,0,0,0.69038352,59.554687,-40.403876)"
       x1="26.218166"
       y1="47.293644"
       x2="26.218166"
       y2="51.283363" />
    <linearGradient
       inkscape:collect="always"
       xlink:href="#linearGradient2945"
       id="linearGradient4866"
       gradientUnits="userSpaceOnUse"
       gradientTransform="matrix(0.69038345,0,0,0.69038352,59.554687,-40.403876)"
       x1="50.225857"
       y1="55.274342"
       x2="50.225857"
       y2="50.108566" />
    <linearGradient
       inkscape:collect="always"
       xlink:href="#linearGradient2964"
       id="linearGradient4869"
       gradientUnits="userSpaceOnUse"
       gradientTransform="matrix(0.69038345,0,0,0.69038352,59.554674,-30.920692)"
       x1="26.218166"
       y1="47.293644"
       x2="26.218166"
       y2="51.283363" />
    <linearGradient
       inkscape:collect="always"
       xlink:href="#linearGradient2945"
       id="linearGradient4872"
       gradientUnits="userSpaceOnUse"
       gradientTransform="matrix(0.69038345,0,0,0.69038352,59.554674,-30.920692)"
       x1="50.225857"
       y1="55.274342"
       x2="50.225857"
       y2="50.108566" />
    <linearGradient
       inkscape:collect="always"
       xlink:href="#linearGradient2964"
       id="linearGradient4875"
       gradientUnits="userSpaceOnUse"
       gradientTransform="matrix(0.69038345,0,0,0.69038352,59.554711,-21.437554)"
       x1="26.218166"
       y1="47.293644"
       x2="26.218166"
       y2="51.283363" />
    <linearGradient
       inkscape:collect="always"
       xlink:href="#linearGradient2945"
       id="linearGradient4878"
       gradientUnits="userSpaceOnUse"
       gradientTransform="matrix(0.69038345,0,0,0.69038352,59.554711,-21.437554)"
       x1="50.225857"
       y1="55.274342"
       x2="50.225857"
       y2="50.108566" />
    <linearGradient
       inkscape:collect="always"
       xlink:href="#linearGradient3036"
       id="linearGradient4881"
       gradientUnits="userSpaceOnUse"
       gradientTransform="matrix(-0.47896779,-0.49721139,0.47896643,-0.49721279,31.337237,155.41135)"
       x1="30.787992"
       y1="67.292213"
       x2="39.095165"
       y2="67.292229" />
    <linearGradient
       inkscape:collect="always"
       xlink:href="#linearGradient4945"
       id="linearGradient4884"
       gradientUnits="userSpaceOnUse"
       gradientTransform="matrix(-0.47896779,-0.49721139,0.47896643,-0.49721279,50.408231,125.13206)"
       x1="28.294514"
       y1="45.975697"
       x2="86.086845"
       y2="129.41786" />
    <linearGradient
       inkscape:collect="always"
       xlink:href="#linearGradient3225"
       id="linearGradient4888"
       gradientUnits="userSpaceOnUse"
       gradientTransform="matrix(0.1230933,0,0,0.10177979,-88.003201,24.247612)"
       x1="-23.214106"
       y1="-64.644836"
       x2="-20.225784"
       y2="-13.333566" />
    <linearGradient
       inkscape:collect="always"
       xlink:href="#linearGradient3225"
       id="linearGradient4891"
       gradientUnits="userSpaceOnUse"
       gradientTransform="matrix(0.14110195,0,0,0.10177979,-87.518379,22.543331)"
       x1="-23.214106"
       y1="-64.644836"
       x2="-20.225784"
       y2="-13.333566" />
    <linearGradient
       inkscape:collect="always"
       xlink:href="#linearGradient3225"
       id="linearGradient4894"
       gradientUnits="userSpaceOnUse"
       gradientTransform="matrix(0.15947996,0,0,0.10177979,-87.023609,20.794314)"
       x1="-23.214106"
       y1="-64.644836"
       x2="-20.225784"
       y2="-13.333566" />
    <linearGradient
       inkscape:collect="always"
       xlink:href="#linearGradient3225"
       id="linearGradient4897"
       gradientUnits="userSpaceOnUse"
       gradientTransform="matrix(0.18463477,0,0,0.10177979,-86.346398,18.955546)"
       x1="-23.214106"
       y1="-64.644836"
       x2="-20.225784"
       y2="-13.333566" />
    <linearGradient
       inkscape:collect="always"
       xlink:href="#linearGradient3225"
       id="linearGradient4900"
       gradientUnits="userSpaceOnUse"
       gradientTransform="matrix(-0.47896779,-0.49721139,0.47896643,-0.49721279,48.316682,127.24906)"
       x1="24.894003"
       y1="101.84745"
       x2="50.270184"
       y2="101.84745" />
    <linearGradient
       inkscape:collect="always"
       xlink:href="#linearGradient3004"
       id="linearGradient4903"
       gradientUnits="userSpaceOnUse"
       gradientTransform="matrix(-0.47896779,-0.49721139,0.47896643,-0.49721279,55.212892,130.11967)"
       x1="56.90382"
       y1="108.80531"
       x2="48.122787"
       y2="117.97591" />
    <linearGradient
       inkscape:collect="always"
       xlink:href="#linearGradient2964"
       id="linearGradient4906"
       gradientUnits="userSpaceOnUse"
       gradientTransform="matrix(0.69038345,0,0,0.69038352,58.974474,12.224815)"
       x1="26.218166"
       y1="47.293644"
       x2="26.218166"
       y2="51.283363" />
    <linearGradient
       inkscape:collect="always"
       xlink:href="#linearGradient2945"
       id="linearGradient4909"
       gradientUnits="userSpaceOnUse"
       gradientTransform="matrix(0.69038345,0,0,0.69038352,58.974474,12.224815)"
       x1="50.225857"
       y1="55.274342"
       x2="50.225857"
       y2="50.108566" />
    <linearGradient
       inkscape:collect="always"
       xlink:href="#linearGradient2964"
       id="linearGradient4912"
       gradientUnits="userSpaceOnUse"
       gradientTransform="matrix(0.69038345,0,0,0.69038352,58.974473,2.7416743)"
       x1="26.218166"
       y1="47.293644"
       x2="26.218166"
       y2="51.283363" />
    <linearGradient
       inkscape:collect="always"
       xlink:href="#linearGradient2945"
       id="linearGradient4915"
       gradientUnits="userSpaceOnUse"
       gradientTransform="matrix(0.69038345,0,0,0.69038352,58.974473,2.7416743)"
       x1="50.225857"
       y1="55.274342"
       x2="50.225857"
       y2="50.108566" />
    <linearGradient
       inkscape:collect="always"
       xlink:href="#linearGradient2964"
       id="linearGradient4918"
       gradientUnits="userSpaceOnUse"
       gradientTransform="matrix(0.69038345,0,0,0.69038352,58.974471,-6.7414567)"
       x1="26.218166"
       y1="47.293644"
       x2="26.218166"
       y2="51.283363" />
    <linearGradient
       inkscape:collect="always"
       xlink:href="#linearGradient2945"
       id="linearGradient4921"
       gradientUnits="userSpaceOnUse"
       gradientTransform="matrix(0.69038345,0,0,0.69038352,58.974471,-6.7414567)"
       x1="50.225857"
       y1="55.274342"
       x2="50.225857"
       y2="50.108566" />
    <linearGradient
       inkscape:collect="always"
       xlink:href="#linearGradient4945"
       id="linearGradient4924"
       gradientUnits="userSpaceOnUse"
       gradientTransform="matrix(0.47896779,0.49721139,-0.47896643,0.49721279,45.59177,37.617994)"
       x1="28.294514"
       y1="45.975697"
       x2="86.086845"
       y2="129.41786" />
    <linearGradient
       inkscape:collect="always"
       xlink:href="#linearGradient3225"
       id="linearGradient4928"
       gradientUnits="userSpaceOnUse"
       gradientTransform="matrix(0.1230933,0,0,0.10177979,94.173894,68.05055)"
       x1="-23.214106"
       y1="-64.644836"
       x2="-20.225784"
       y2="-13.333566" />
    <linearGradient
       inkscape:collect="always"
       xlink:href="#linearGradient3225"
       id="linearGradient4931"
       gradientUnits="userSpaceOnUse"
       gradientTransform="matrix(0.14110195,0,0,0.10177979,94.658716,66.346269)"
       x1="-23.214106"
       y1="-64.644836"
       x2="-20.225784"
       y2="-13.333566" />
    <linearGradient
       inkscape:collect="always"
       xlink:href="#linearGradient3225"
       id="linearGradient4934"
       gradientUnits="userSpaceOnUse"
       gradientTransform="matrix(0.15947996,0,0,0.10177979,95.153486,64.597252)"
       x1="-23.214106"
       y1="-64.644836"
       x2="-20.225784"
       y2="-13.333566" />
    <linearGradient
       inkscape:collect="always"
       xlink:href="#linearGradient3225"
       id="linearGradient4937"
       gradientUnits="userSpaceOnUse"
       gradientTransform="matrix(0.18463477,0,0,0.10177979,95.830697,62.758485)"
       x1="-23.214106"
       y1="-64.644836"
       x2="-20.225784"
       y2="-13.333566" />
    <linearGradient
       inkscape:collect="always"
       xlink:href="#linearGradient3225"
       id="linearGradient4940"
       gradientUnits="userSpaceOnUse"
       gradientTransform="matrix(0.47896779,0.49721139,-0.47896643,0.49721279,47.683338,35.500934)"
       x1="24.894003"
       y1="101.84745"
       x2="50.270184"
       y2="101.84745" />
    <linearGradient
       inkscape:collect="always"
       xlink:href="#linearGradient3004"
       id="linearGradient4943"
       gradientUnits="userSpaceOnUse"
       gradientTransform="matrix(0.47896779,0.49721139,-0.47896643,0.49721279,40.787102,32.630317)"
       x1="56.90382"
       y1="108.80531"
       x2="48.122787"
       y2="117.97591" />
  </defs>
  <sodipodi:namedview
     id="base"
     pagecolor="#ffffff"
     bordercolor="#666666"
     borderopacity="1.0"
     inkscape:pageopacity="0.0"
     inkscape:pageshadow="2"
     inkscape:zoom="4"
     inkscape:cx="48"
     inkscape:cy="48"
     inkscape:current-layer="layer1"
     showgrid="false"
     inkscape:document-units="px"
     inkscape:grid-bbox="true"
     guidetolerance="0.1px"
     showguides="true"
     inkscape:guide-bbox="true"
     inkscape:window-width="1005"
     inkscape:window-height="705"
     inkscape:window-x="0"
     inkscape:window-y="24"
     fit-margin-top="0"
     fit-margin-left="0"
     fit-margin-right="0"
     fit-margin-bottom="0"
     inkscape:window-maximized="0">
    <inkscape:grid
       id="GridFromPre046Settings"
       type="xygrid"
       originx="0px"
       originy="-9.1525574e-06px"
       spacingx="4px"
       spacingy="4px"
       color="#3f3fff"
       empcolor="#3f3fff"
       opacity="0.15"
       empopacity="0.38"
       empspacing="5"
       visible="true"
       enabled="true"
       snapvisiblegridlinesonly="true" />
  </sodipodi:namedview>
  <metadata
     id="metadata1312">
    <rdf:RDF>
      <cc:Work
         rdf:about="">
        <dc:format>image/svg+xml</dc:format>
        <dc:type
           rdf:resource="http://purl.org/dc/dcmitype/StillImage" />
        <cc:license
           rdf:resource="http://creativecommons.org/licenses/GPL/2.0/" />
        <dc:contributor>
          <cc:Agent>
            <dc:title>Oxygen team</dc:title>
          </cc:Agent>
        </dc:contributor>
        <dc:title />
      </cc:Work>
      <cc:License
         rdf:about="http://creativecommons.org/licenses/LGPL/2.1/">
        <cc:permits
           rdf:resource="http://web.resource.org/cc/Reproduction" />
        <cc:permits
           rdf:resource="http://web.resource.org/cc/Distribution" />
        <cc:requires
           rdf:resource="http://web.resource.org/cc/Notice" />
        <cc:permits
           rdf:resource="http://web.resource.org/cc/DerivativeWorks" />
        <cc:requires
           rdf:resource="http://web.resource.org/cc/ShareAlike" />
        <cc:requires
           rdf:resource="http://web.resource.org/cc/SourceCode" />
      </cc:License>
    </rdf:RDF>
  </metadata>
  <g
     id="layer1"
     inkscape:label="Layer 1"
     inkscape:groupmode="layer"
     transform="translate(0,-31.999991)">
    <path
       inkscape:connector-curvature="0"
       style="font-size:medium;font-style:normal;font-variant:normal;font-weight:normal;font-stretch:normal;text-indent:0;text-align:start;text-decoration:none;line-height:normal;letter-spacing:normal;word-spacing:normal;text-transform:none;direction:ltr;block-progression:tb;writing-mode:lr-tb;text-anchor:start;baseline-shift:baseline;color:#000000;fill:url(#linearGradient4943);fill-opacity:1;stroke:none;stroke-width:5.52113914;marker:none;visibility:visible;display:inline;overflow:visible;enable-background:accumulate;font-family:Sans;-inkscape-font-specification:Sans"
       d="M 18.544922,109.54101 A 1.8980813,1.8980813 0 0 0 17.105469,110.25 c -1.555789,1.88291 -3.25829,3.47324 -4.833985,4.10351 -1.575695,0.63028 -2.9882013,0.63542 -5.2207028,-1.05273 A 1.9013975,1.9013975 0 0 0 6.75,113.1289 l 0,4.4043 c 2.4221882,1.14057 4.882829,1.16639 6.939453,0.34375 2.627797,-1.0511 4.618226,-3.11797 6.337891,-5.19922 a 1.8980813,1.8980813 0 0 0 -1.482422,-3.13672 z"
       id="path3002" />
    <path
       style="fill:url(#linearGradient4940);fill-opacity:1;fill-rule:evenodd;stroke:none"
       d="m 19.585417,102.51563 -2.873624,7.21007 3.660767,3.80021 6.945494,-2.98311 -2.825513,-2.93313 -2.081612,-2.1609 -2.825512,-2.93314 z"
       id="path1976"
       sodipodi:nodetypes="ccccccc"
       inkscape:connector-curvature="0" />
    <rect
       style="fill:url(#linearGradient4937);fill-opacity:1;fill-rule:nonzero;stroke:none"
       id="rect2880"
       width="12.203566"
       height="1.345439"
       x="84.758194"
       y="57.146988"
       rx="0.48861316"
       ry="0.60224462"
       transform="matrix(0.69377067,0.72019598,-0.69376864,0.72019794,0,0)" />
    <rect
       ry="0.54428172"
       rx="0.43793231"
       y="58.985752"
       x="85.5895"
       height="1.345439"
       width="10.540951"
       id="rect2890"
       style="fill:url(#linearGradient4934);fill-opacity:1;fill-rule:nonzero;stroke:none"
       transform="matrix(0.69377067,0.72019598,-0.69376864,0.72019794,0,0)" />
    <rect
       style="fill:url(#linearGradient4931);fill-opacity:1;fill-rule:nonzero;stroke:none"
       id="rect2894"
       width="9.3262548"
       height="1.345439"
       x="86.196854"
       y="60.734821"
       rx="0.42097291"
       ry="0.46869844"
       transform="matrix(0.69377067,0.72019598,-0.69376864,0.72019794,0,0)" />
    <rect
       ry="0.42209661"
       rx="0.39761993"
       y="62.439045"
       x="86.791992"
       height="1.345439"
       width="8.1359663"
       id="rect2898"
       style="fill:url(#linearGradient4928);fill-opacity:1;fill-rule:nonzero;stroke:none"
       transform="matrix(0.69377067,0.72019598,-0.69376864,0.72019794,0,0)" />
    <path
       style="font-size:medium;font-style:normal;font-variant:normal;font-weight:normal;font-stretch:normal;text-indent:0;text-align:start;text-decoration:none;line-height:normal;letter-spacing:normal;word-spacing:normal;text-transform:none;direction:ltr;block-progression:tb;writing-mode:lr-tb;text-anchor:start;baseline-shift:baseline;color:#000000;fill:#000000;fill-opacity:1;fill-rule:nonzero;stroke:none;stroke-width:4;marker:none;visibility:visible;display:inline;overflow:visible;enable-background:accumulate;font-family:Sans;-inkscape-font-specification:Sans;opacity:0.75"
       d="m 35.818359,69.021482 c -1.267823,-0.0029 -2.535001,0.500937 -3.480468,1.482422 L 13.367188,90.205076 c -1.899581,1.971952 -1.542951,4.900506 -0.107422,6.917969 5.586785,7.851565 12.057051,14.682055 19.679687,20.453125 0.978068,0.74051 2.133872,1.22235 3.351563,1.26758 1.217691,0.0452 2.508836,-0.41014 3.458984,-1.39649 L 58.720703,97.746092 c 1.890931,-1.962972 1.892647,-5.125107 0,-7.089844 L 39.298828,70.503904 C 38.352504,69.521533 37.086183,69.02435 35.818359,69.021482 z m 0,2.707032 c 0.533366,0.0016 1.066764,0.233706 1.503907,0.6875 l 19.421875,20.152343 c 0.874284,0.907587 0.862788,2.369966 0,3.265625 L 37.773437,115.53515 c -0.426715,0.44297 -0.839775,0.57848 -1.375,0.5586 -0.535224,-0.0199 -1.184713,-0.25587 -1.783203,-0.70899 -7.38995,-5.5949 -13.680949,-12.20608 -19.121093,-19.851559 -0.883649,-1.241862 -1.004531,-2.550818 -0.150391,-3.4375 L 34.335937,72.394529 c 0.431396,-0.447829 0.949057,-0.667614 1.482422,-0.666015 z"
       id="path2917"
       inkscape:connector-curvature="0" />
    <path
       inkscape:connector-curvature="0"
       style="fill:url(#linearGradient4924);fill-opacity:1.0;fill-rule:nonzero;stroke:none"
       d="m 38.262971,71.856809 18.976046,19.698833 c 1.352515,1.404031 1.352518,3.664677 7e-6,5.068712 L 38.595943,115.97765 c -1.352511,1.40403 -3.340431,1.16587 -4.882718,1e-5 -7.343122,-5.5509 -13.590498,-12.11892 -18.976046,-19.698838 -1.132684,-1.594201 -1.352518,-3.664676 -7e-6,-5.068711 l 18.64308,-19.353294 c 1.352511,-1.404035 3.530204,-1.404039 4.882719,-8e-6 z"
       id="rect1969"
       sodipodi:nodetypes="ccccssccc" />
    <rect
       style="fill:url(#linearGradient4921);fill-opacity:1;fill-rule:nonzero;stroke:none"
       id="rect2935"
       width="27.544373"
       height="5.5088749"
       x="77.075058"
       y="25.909296"
       rx="2.7544372"
       ry="2.7544374"
       transform="matrix(0.69377067,0.72019598,-0.69376864,0.72019794,0,0)" />
    <rect
       ry="2.7544374"
       rx="2.7544372"
       y="25.909296"
       x="77.075058"
       height="5.5088749"
       width="27.544373"
       id="rect2962"
       style="fill:url(#linearGradient4918);fill-opacity:1;fill-rule:nonzero;stroke:none"
       transform="matrix(0.69377067,0.72019598,-0.69376864,0.72019794,0,0)" />
    <rect
       ry="2.7544374"
       rx="2.7544372"
       y="35.392426"
       x="77.075058"
       height="5.5088749"
       width="27.544373"
       id="rect2982"
       style="fill:url(#linearGradient4915);fill-opacity:1;fill-rule:nonzero;stroke:none"
       transform="matrix(0.69377067,0.72019598,-0.69376864,0.72019794,0,0)" />
    <rect
       style="fill:url(#linearGradient4912);fill-opacity:1;fill-rule:nonzero;stroke:none"
       id="rect2984"
       width="27.544373"
       height="5.5088749"
       x="77.075058"
       y="35.392426"
       rx="2.7544372"
       ry="2.7544374"
       transform="matrix(0.69377067,0.72019598,-0.69376864,0.72019794,0,0)" />
    <rect
       style="fill:url(#linearGradient4909);fill-opacity:1;fill-rule:nonzero;stroke:none"
       id="rect2992"
       width="27.544373"
       height="5.5088749"
       x="77.075058"
       y="44.875568"
       rx="2.7544372"
       ry="2.7544374"
       transform="matrix(0.69377067,0.72019598,-0.69376864,0.72019794,0,0)" />
    <rect
       ry="2.7544374"
       rx="2.7544372"
       y="44.875568"
       x="77.075058"
       height="5.5088749"
       width="27.544373"
       id="rect2994"
       style="fill:url(#linearGradient4906);fill-opacity:1;fill-rule:nonzero;stroke:none"
       transform="matrix(0.69377067,0.72019598,-0.69376864,0.72019794,0,0)" />
    <path
       inkscape:connector-curvature="0"
       style="font-size:medium;font-style:normal;font-variant:normal;font-weight:normal;font-stretch:normal;text-indent:0;text-align:start;text-decoration:none;line-height:normal;letter-spacing:normal;word-spacing:normal;text-transform:none;direction:ltr;block-progression:tb;writing-mode:lr-tb;text-anchor:start;baseline-shift:baseline;color:#000000;fill:url(#linearGradient4903);fill-opacity:1;stroke:none;stroke-width:5.52113914;marker:none;visibility:visible;display:inline;overflow:visible;enable-background:accumulate;font-family:Sans;-inkscape-font-specification:Sans"
       d="m 85.210937,44.292967 c -0.278244,0.0036 -0.544912,0.01187 -0.816406,0.04297 -0.723972,0.08294 -1.427037,0.274334 -2.083984,0.53711 -2.627797,1.051106 -4.618226,3.117975 -6.337891,5.199219 a 1.8994241,1.8994241 0 1 0 2.921875,2.427734 c 1.555785,-1.88291 3.25829,-3.473245 4.833985,-4.103516 1.575695,-0.63027 2.988198,-0.635416 5.220703,1.052735 A 1.9013975,1.9013975 0 0 0 89.25,49.621092 l 0,-4.404297 c -1.358108,-0.643313 -2.735989,-0.940688 -4.039063,-0.923828 z"
       id="path3847" />
    <path
       sodipodi:nodetypes="ccccccc"
       id="path3851"
       d="m 76.414602,60.234367 2.873626,-7.210073 -3.660765,-3.800203 -6.945497,2.983108 2.825513,2.933134 2.081615,2.1609 2.825508,2.933134 z"
       style="fill:url(#linearGradient4900);fill-opacity:1;fill-rule:evenodd;stroke:none"
       inkscape:connector-curvature="0" />
    <rect
       ry="0.60224462"
       rx="0.48861316"
       y="13.344048"
       x="-97.4189"
       height="1.345439"
       width="12.203566"
       id="rect3853"
       style="fill:url(#linearGradient4897);fill-opacity:1;fill-rule:nonzero;stroke:none"
       transform="matrix(-0.69377067,-0.72019598,0.69376864,-0.72019794,0,0)" />
    <rect
       style="fill:url(#linearGradient4894);fill-opacity:1;fill-rule:nonzero;stroke:none"
       id="rect3855"
       width="10.540951"
       height="1.345439"
       x="-96.587593"
       y="15.182816"
       rx="0.43793231"
       ry="0.54428172"
       transform="matrix(-0.69377067,-0.72019598,0.69376864,-0.72019794,0,0)" />
    <rect
       ry="0.46869844"
       rx="0.42097291"
       y="16.931881"
       x="-95.980247"
       height="1.345439"
       width="9.3262548"
       id="rect3857"
       style="fill:url(#linearGradient4891);fill-opacity:1;fill-rule:nonzero;stroke:none"
       transform="matrix(-0.69377067,-0.72019598,0.69376864,-0.72019794,0,0)" />
    <rect
       style="fill:url(#linearGradient4888);fill-opacity:1;fill-rule:nonzero;stroke:none"
       id="rect3859"
       width="8.1359663"
       height="1.345439"
       x="-95.385101"
       y="18.636106"
       rx="0.39761993"
       ry="0.42209661"
       transform="matrix(-0.69377067,-0.72019598,0.69376864,-0.72019794,0,0)" />
    <path
       style="font-size:medium;font-style:normal;font-variant:normal;font-weight:normal;font-stretch:normal;text-indent:0;text-align:start;text-decoration:none;line-height:normal;letter-spacing:normal;word-spacing:normal;text-transform:none;direction:ltr;block-progression:tb;writing-mode:lr-tb;text-anchor:start;baseline-shift:baseline;color:#000000;fill:#000000;fill-opacity:1;fill-rule:nonzero;stroke:none;stroke-width:4;marker:none;visibility:visible;display:inline;overflow:visible;enable-background:accumulate;font-family:Sans;-inkscape-font-specification:Sans;opacity:0.75"
       d="M 59.708984,43.906248 C 58.491297,43.861021 57.200149,44.316388 56.25,45.302732 L 37.279297,65.003904 c -1.89094,1.962971 -1.892644,5.125106 0,7.089844 l 19.421875,20.152344 c 1.892645,1.964734 5.069999,1.962969 6.960937,0 L 82.632812,72.54492 C 84.53243,70.572974 84.175755,67.644412 82.740234,65.626951 77.153451,57.775386 70.68318,50.944889 63.060547,45.173826 62.082479,44.433338 60.926672,43.951474 59.708984,43.906248 z m -0.107422,2.75 c 0.535228,0.01988 1.184713,0.255871 1.783204,0.708984 7.389947,5.594898 13.680954,12.206086 19.121093,19.851563 0.883651,1.241863 1.004555,2.550813 0.150391,3.4375 L 61.664062,90.355467 c -0.862795,0.895661 -2.112046,0.886097 -2.986328,-0.02148 L 39.255859,70.181639 c -0.874283,-0.907587 -0.862793,-2.369966 0,-3.265625 L 58.226562,47.214842 c 0.426717,-0.442972 0.839773,-0.578473 1.375,-0.558594 z"
       id="path3861"
       inkscape:connector-curvature="0" />
    <path
       inkscape:connector-curvature="0"
       sodipodi:nodetypes="ccccssccc"
       id="path3863"
       d="M 57.737025,90.893214 38.760978,71.194381 c -1.352515,-1.404031 -1.352522,-3.664677 -7e-6,-5.068712 L 57.404048,46.772375 c 1.352515,-1.404035 3.340436,-1.16587 4.88272,-7e-6 7.343121,5.550899 13.590504,12.118918 18.976049,19.698833 1.132684,1.594202 1.352512,3.664676 7e-6,5.068711 L 62.619739,90.893206 c -1.352508,1.404036 -3.530199,1.40404 -4.882714,8e-6 z"
       style="fill:url(#linearGradient4884);fill-opacity:1.0;fill-rule:nonzero;stroke:none" />
    <path
       inkscape:connector-curvature="0"
       style="fill:url(#linearGradient4881);fill-opacity:1;fill-rule:nonzero;stroke:none"
       d="m 33.425758,115.84089 c -9.23175,-9.56981 19.251942,-30.308599 24.001509,-24.462422 1.25826,1.548775 1.388782,3.743024 0.01192,5.17234 L 38.460439,116.25255 c -1.376862,1.42932 -3.651214,1.0245 -5.034681,-0.41166 z"
       id="path3034"
       sodipodi:nodetypes="csccc" />
    <rect
       ry="2.7544374"
       rx="2.7544372"
       y="11.213199"
       x="77.655304"
       height="5.5088749"
       width="27.544373"
       id="rect3867"
       style="fill:url(#linearGradient4878);fill-opacity:1;fill-rule:nonzero;stroke:none"
       transform="matrix(0.69377067,0.72019598,-0.69376864,0.72019794,0,0)" />
    <rect
       style="fill:url(#linearGradient4875);fill-opacity:1;fill-rule:nonzero;stroke:none"
       id="rect3869"
       width="27.544373"
       height="5.5088749"
       x="77.655304"
       y="11.213199"
       rx="2.7544372"
       ry="2.7544374"
       transform="matrix(0.69377067,0.72019598,-0.69376864,0.72019794,0,0)" />
    <rect
       style="fill:url(#linearGradient4872);fill-opacity:1;fill-rule:nonzero;stroke:none"
       id="rect3873"
       width="27.544373"
       height="5.5088749"
       x="77.655266"
       y="1.7300609"
       rx="2.7544372"
       ry="2.7544374"
       transform="matrix(0.69377067,0.72019598,-0.69376864,0.72019794,0,0)" />
    <rect
       ry="2.7544374"
       rx="2.7544372"
       y="1.7300609"
       x="77.655266"
       height="5.5088749"
       width="27.544373"
       id="rect3875"
       style="fill:url(#linearGradient4869);fill-opacity:1;fill-rule:nonzero;stroke:none"
       transform="matrix(0.69377067,0.72019598,-0.69376864,0.72019794,0,0)" />
    <rect
       ry="2.7544374"
       rx="2.7544372"
       y="-7.7531242"
       x="77.655273"
       height="5.5088749"
       width="27.544373"
       id="rect3879"
       style="fill:url(#linearGradient4866);fill-opacity:1;fill-rule:nonzero;stroke:none"
       transform="matrix(0.69377067,0.72019598,-0.69376864,0.72019794,0,0)" />
    <rect
       style="fill:url(#linearGradient4863);fill-opacity:1;fill-rule:nonzero;stroke:none"
       id="rect3881"
       width="27.544373"
       height="5.5088749"
       x="77.655273"
       y="-7.7531242"
       rx="2.7544372"
       ry="2.7544374"
       transform="matrix(0.69377067,0.72019598,-0.69376864,0.72019794,0,0)" />
    <path
       inkscape:connector-curvature="0"
       sodipodi:nodetypes="csscc"
       id="path3883"
       d="m 57.237688,46.264937 c 1.376866,-1.429316 3.405984,-1.181248 4.982543,0.01235 7.50629,5.68298 13.896835,12.401101 19.410296,20.149622 1.159586,1.629662 1.388784,3.743023 0.01189,5.17234 L 57.237688,46.264937 z"
       style="fill:url(#linearGradient4860);fill-opacity:1;fill-rule:nonzero;stroke:none" />
    <path
       inkscape:connector-curvature="0"
       sodipodi:nodetypes="csccs"
       id="path3885"
       d="M 58.639088,90.294217 81.630527,66.426916 c 1.380053,-1.432626 1.388784,3.743023 0.01189,5.172339 L 62.6637,91.301001 c -1.376867,1.429315 -5.40664,0.427893 -4.024612,-1.006784 z"
       style="fill:url(#linearGradient4857);fill-opacity:1;fill-rule:nonzero;stroke:none" />
    <path
       inkscape:connector-curvature="0"
       sodipodi:nodetypes="ccccccc"
       id="path4071"
       d="m 38.262971,71.856809 18.976046,19.698833 c 1.352515,1.404031 1.352518,3.664677 7e-6,5.068712 l -2.659395,2.774922 -23.858772,-24.767537 2.659395,-2.774922 c 1.352511,-1.404035 3.530204,-1.404039 4.882719,-8e-6 z"
       style="fill:url(#linearGradient4854);fill-opacity:1;fill-rule:nonzero;stroke:none" />
    <path
       inkscape:connector-curvature="0"
       sodipodi:nodetypes="cccsccc"
       id="path2126"
       d="M 57.362042,90.832506 53.332191,86.622844 C 61.962544,76.250859 68.949505,70.626048 78.403711,62.31257 l 2.959839,4.057516 c 1.178231,1.615185 1.543211,3.622791 0.166341,5.052107 L 62.55115,91.123941 c -1.376863,1.429314 -3.805643,1.144728 -5.189108,-0.291435 z"
       style="fill:url(#linearGradient4851);fill-opacity:1;fill-rule:nonzero;stroke:none" />
    <path
       inkscape:connector-curvature="0"
       style="fill:url(#linearGradient4848);fill-opacity:1;fill-rule:nonzero;stroke:none"
       d="M 57.590692,90.864732 38.614645,71.165899 c -1.352514,-1.404031 -1.352517,-3.664676 -7e-6,-5.068712 l 2.659395,-2.774921 23.858772,24.767536 -2.659395,2.774923 c -1.352511,1.404035 -3.530204,1.404039 -4.882718,7e-6 z"
       id="path2130"
       sodipodi:nodetypes="ccccccc" />
    <path
       inkscape:connector-curvature="0"
       sodipodi:nodetypes="ccccccs"
       id="path2134"
       d="M 34.086075,116.31324 C 26.412672,110.71386 20.025807,103.88475 14.40025,96.160983 c -1.352515,-1.404031 -0.833833,-3.89139 0.518678,-5.295425 l 2.659395,-2.774921 24.186362,25.277643 -2.659395,2.77492 c -1.352511,1.40403 -3.583888,1.21742 -5.019215,0.17004 z"
       style="fill:url(#linearGradient4845);fill-opacity:1;fill-rule:nonzero;stroke:none" />
    <path
       d="M 61.197077,105.64063 C 57.229171,101.49449 48.650964,92.530176 48.650964,92.530176 L 42.5,98.959217 61.197077,118.5 89.25,89.178614 83.098202,82.749998 c 0,0 -17.171861,17.948202 -21.901125,22.890632 z"
       style="fill:url(#linearGradient4740);stroke:none"
       id="path24"
       inkscape:connector-curvature="0" />
  </g>
</svg>
