<?xml version="1.0" encoding="UTF-8" standalone="no"?>
<!-- Created with Inkscape (http://www.inkscape.org/) -->

<svg
   xmlns:dc="http://purl.org/dc/elements/1.1/"
   xmlns:cc="http://creativecommons.org/ns#"
   xmlns:rdf="http://www.w3.org/1999/02/22-rdf-syntax-ns#"
   xmlns:svg="http://www.w3.org/2000/svg"
   xmlns="http://www.w3.org/2000/svg"
   xmlns:xlink="http://www.w3.org/1999/xlink"
   xmlns:sodipodi="http://sodipodi.sourceforge.net/DTD/sodipodi-0.dtd"
   xmlns:inkscape="http://www.inkscape.org/namespaces/inkscape"
   width="96"
   height="96"
   id="svg1307"
   sodipodi:version="0.32"
   inkscape:version="0.48.3.1 r9886"
   version="1.0"
   sodipodi:docname="network-disconnect.svg"
   inkscape:export-filename="network-disconnect.png"
   inkscape:export-xdpi="90"
   inkscape:export-ydpi="90">
  <defs
     id="defs1309">
    <linearGradient
       inkscape:collect="always"
       id="linearGradient3634">
      <stop
         style="stop-color:black;stop-opacity:1;"
         offset="0"
         id="stop3636" />
      <stop
         style="stop-color:black;stop-opacity:0;"
         offset="1"
         id="stop3638" />
    </linearGradient>
    <linearGradient
       id="linearGradient3603">
      <stop
         style="stop-color:white;stop-opacity:1;"
         offset="0"
         id="stop3605" />
      <stop
         id="stop3613"
         offset="0.57348901"
         style="stop-color:white;stop-opacity:0.35740072;" />
      <stop
         style="stop-color:black;stop-opacity:0.37254903;"
         offset="0.625"
         id="stop3617" />
      <stop
         style="stop-color:white;stop-opacity:0.69675088;"
         offset="0.66826922"
         id="stop3615" />
      <stop
         style="stop-color:white;stop-opacity:0;"
         offset="1"
         id="stop3607" />
    </linearGradient>
    <linearGradient
       inkscape:collect="always"
       id="linearGradient3036">
      <stop
         style="stop-color:#a1a1a1;stop-opacity:1;"
         offset="0"
         id="stop3038" />
      <stop
         style="stop-color:#a1a1a1;stop-opacity:0;"
         offset="1"
         id="stop3040" />
    </linearGradient>
    <linearGradient
       inkscape:collect="always"
       id="linearGradient3014">
      <stop
         style="stop-color:#989898;stop-opacity:1;"
         offset="0"
         id="stop3016" />
      <stop
         style="stop-color:#989898;stop-opacity:0;"
         offset="1"
         id="stop3018" />
    </linearGradient>
    <linearGradient
       id="linearGradient3004">
      <stop
         style="stop-color:#909090;stop-opacity:1;"
         offset="0"
         id="stop3006" />
      <stop
         style="stop-color:black;stop-opacity:0;"
         offset="1"
         id="stop3008" />
    </linearGradient>
    <linearGradient
       inkscape:collect="always"
       id="linearGradient2964">
      <stop
         style="stop-color:#c1c1c1;stop-opacity:1;"
         offset="0"
         id="stop2966" />
      <stop
         style="stop-color:#c1c1c1;stop-opacity:0;"
         offset="1"
         id="stop2968" />
    </linearGradient>
    <linearGradient
       id="linearGradient2945">
      <stop
         style="stop-color:white;stop-opacity:0.66425991;"
         offset="0"
         id="stop2947" />
      <stop
         id="stop2951"
         offset="0.25824177"
         style="stop-color:white;stop-opacity:1;" />
      <stop
         style="stop-color:#ffffff;stop-opacity:0;"
         offset="1"
         id="stop2949" />
    </linearGradient>
    <linearGradient
       id="linearGradient3225">
      <stop
         style="stop-color:#ffffff;stop-opacity:1;"
         offset="0"
         id="stop3227" />
      <stop
         style="stop-color:#aeaeae;stop-opacity:1;"
         offset="1"
         id="stop3229" />
    </linearGradient>
    <linearGradient
       id="linearGradient3197">
      <stop
         style="stop-color:#ffd98c;stop-opacity:1;"
         offset="0"
         id="stop2262" />
      <stop
         id="stop2284"
         offset="0"
         style="stop-color:#ffc550;stop-opacity:1;" />
      <stop
         style="stop-color:#ffac03;stop-opacity:1;"
         offset="0.25423729"
         id="stop2288" />
      <stop
         style="stop-color:#ffbb32;stop-opacity:1;"
         offset="0"
         id="stop2286" />
      <stop
         id="stop2280"
         offset="0.40677965"
         style="stop-color:#ffb115;stop-opacity:1;" />
      <stop
         style="stop-color:#d99723;stop-opacity:1;"
         offset="0.5"
         id="stop2443" />
      <stop
         id="stop2282"
         offset="0.53389829"
         style="stop-color:#d79e3c;stop-opacity:1;" />
      <stop
         id="stop2260"
         offset="0.56197929"
         style="stop-color:#f4d232;stop-opacity:1;" />
      <stop
         id="stop2445"
         offset="0.89111352"
         style="stop-color:#ffaa00;stop-opacity:1;" />
      <stop
         id="stop3208"
         offset="1"
         style="stop-color:#9f6a00;stop-opacity:1;" />
    </linearGradient>
    <linearGradient
       inkscape:collect="always"
       xlink:href="#linearGradient3197"
       id="linearGradient3419"
       gradientUnits="userSpaceOnUse"
       gradientTransform="translate(68.035596,-44.728768)"
       x1="38.54076"
       y1="26.656343"
       x2="52.48494"
       y2="28.429644" />
    <linearGradient
       inkscape:collect="always"
       xlink:href="#linearGradient3634"
       id="linearGradient3421"
       gradientUnits="userSpaceOnUse"
       gradientTransform="translate(68.035596,-44.728768)"
       x1="36.003227"
       y1="29.3969"
       x2="42.699848"
       y2="29.3969" />
    <linearGradient
       inkscape:collect="always"
       xlink:href="#linearGradient3197"
       id="linearGradient3423"
       gradientUnits="userSpaceOnUse"
       gradientTransform="translate(41.516697,-44.728768)"
       x1="38.54076"
       y1="26.656343"
       x2="52.48494"
       y2="28.429644" />
    <radialGradient
       inkscape:collect="always"
       xlink:href="#linearGradient3603"
       id="radialGradient3425"
       gradientUnits="userSpaceOnUse"
       gradientTransform="matrix(1.43204,-0.383714,0.398273,1.486375,-24.97994,10.45051)"
       cx="43.800343"
       cy="15.429785"
       fx="43.800343"
       fy="15.429785"
       r="2.6196473" />
    <radialGradient
       inkscape:collect="always"
       xlink:href="#linearGradient3603"
       id="radialGradient3427"
       gradientUnits="userSpaceOnUse"
       gradientTransform="matrix(1.43204,-0.383714,0.398273,1.486375,-24.97994,10.45051)"
       cx="43.800343"
       cy="15.429785"
       fx="43.800343"
       fy="15.429785"
       r="2.6196473" />
    <linearGradient
       inkscape:collect="always"
       xlink:href="#linearGradient3634"
       id="linearGradient3429"
       gradientUnits="userSpaceOnUse"
       gradientTransform="translate(41.516697,-44.728768)"
       x1="36.003227"
       y1="29.3969"
       x2="42.699848"
       y2="29.3969" />
    <radialGradient
       inkscape:collect="always"
       xlink:href="#linearGradient3603"
       id="radialGradient3431"
       gradientUnits="userSpaceOnUse"
       gradientTransform="matrix(1.43204,-0.383714,0.398273,1.486375,-24.97994,10.45051)"
       cx="43.800343"
       cy="15.429785"
       fx="43.800343"
       fy="15.429785"
       r="2.6196473" />
    <radialGradient
       inkscape:collect="always"
       xlink:href="#linearGradient3603"
       id="radialGradient3433"
       gradientUnits="userSpaceOnUse"
       gradientTransform="matrix(1.43204,-0.383714,0.398273,1.486375,-24.97994,10.45051)"
       cx="43.800343"
       cy="15.429785"
       fx="43.800343"
       fy="15.429785"
       r="2.6196473" />
    <linearGradient
       inkscape:collect="always"
       xlink:href="#linearGradient3004"
       id="linearGradient3435"
       gradientUnits="userSpaceOnUse"
       gradientTransform="matrix(0.707108,0.707106,-0.707106,0.707108,60.98475,-2.271363)"
       x1="56.90382"
       y1="108.80531"
       x2="48.122787"
       y2="117.97591" />
    <linearGradient
       inkscape:collect="always"
       xlink:href="#linearGradient3225"
       id="linearGradient3437"
       gradientUnits="userSpaceOnUse"
       gradientTransform="matrix(0.707108,0.707106,-0.707106,0.707108,71.165776,1.8110667)"
       x1="24.894003"
       y1="101.84745"
       x2="50.270184"
       y2="101.84745" />
    <linearGradient
       inkscape:collect="always"
       xlink:href="#linearGradient3225"
       id="linearGradient3439"
       gradientUnits="userSpaceOnUse"
       gradientTransform="matrix(0.26743808,0,0,0.14742505,104.93317,55.939863)"
       x1="-23.214106"
       y1="-64.644836"
       x2="-20.225784"
       y2="-13.333566" />
    <linearGradient
       inkscape:collect="always"
       xlink:href="#linearGradient3225"
       id="linearGradient3441"
       gradientUnits="userSpaceOnUse"
       gradientTransform="matrix(0.23100207,0,0,0.14742505,103.95225,58.603264)"
       x1="-23.214106"
       y1="-64.644836"
       x2="-20.225784"
       y2="-13.333566" />
    <linearGradient
       inkscape:collect="always"
       xlink:href="#linearGradient3225"
       id="linearGradient3443"
       gradientUnits="userSpaceOnUse"
       gradientTransform="matrix(0.20438206,0,0,0.14742505,103.23559,61.136665)"
       x1="-23.214106"
       y1="-64.644836"
       x2="-20.225784"
       y2="-13.333566" />
    <linearGradient
       inkscape:collect="always"
       xlink:href="#linearGradient3225"
       id="linearGradient3445"
       gradientUnits="userSpaceOnUse"
       gradientTransform="matrix(0.17829706,0,0,0.14742505,102.53334,63.605266)"
       x1="-23.214106"
       y1="-64.644836"
       x2="-20.225784"
       y2="-13.333566" />
    <linearGradient
       inkscape:collect="always"
       xlink:href="#linearGradient3225"
       id="linearGradient3447"
       gradientUnits="userSpaceOnUse"
       gradientTransform="matrix(0.707108,0.707106,-0.707106,0.707108,68.077962,4.8218296)"
       x1="28.294514"
       y1="45.975697"
       x2="86.086845"
       y2="129.41786" />
    <linearGradient
       inkscape:collect="always"
       xlink:href="#linearGradient2945"
       id="linearGradient3449"
       gradientUnits="userSpaceOnUse"
       gradientTransform="translate(51.548,-44.728767)"
       x1="50.225857"
       y1="55.274342"
       x2="50.225857"
       y2="50.108566" />
    <linearGradient
       inkscape:collect="always"
       xlink:href="#linearGradient2964"
       id="linearGradient3451"
       gradientUnits="userSpaceOnUse"
       gradientTransform="translate(51.548,-44.728767)"
       x1="26.218166"
       y1="47.293644"
       x2="26.218166"
       y2="51.283363" />
    <linearGradient
       inkscape:collect="always"
       xlink:href="#linearGradient2945"
       id="linearGradient3453"
       gradientUnits="userSpaceOnUse"
       gradientTransform="translate(51.548,-30.992723)"
       x1="50.225857"
       y1="55.274342"
       x2="50.225857"
       y2="50.108566" />
    <linearGradient
       inkscape:collect="always"
       xlink:href="#linearGradient2964"
       id="linearGradient3455"
       gradientUnits="userSpaceOnUse"
       gradientTransform="translate(51.548,-30.992723)"
       x1="26.218166"
       y1="47.293644"
       x2="26.218166"
       y2="51.283363" />
    <linearGradient
       inkscape:collect="always"
       xlink:href="#linearGradient2945"
       id="linearGradient3457"
       gradientUnits="userSpaceOnUse"
       gradientTransform="translate(51.548001,-17.256679)"
       x1="50.225857"
       y1="55.274342"
       x2="50.225857"
       y2="50.108566" />
    <linearGradient
       inkscape:collect="always"
       xlink:href="#linearGradient2964"
       id="linearGradient3459"
       gradientUnits="userSpaceOnUse"
       gradientTransform="translate(51.548001,-17.256679)"
       x1="26.218166"
       y1="47.293644"
       x2="26.218166"
       y2="51.283363" />
    <linearGradient
       inkscape:collect="always"
       xlink:href="#linearGradient3014"
       id="linearGradient3461"
       gradientUnits="userSpaceOnUse"
       gradientTransform="matrix(0.707108,0.707106,-0.707106,0.707108,60.501122,-2.7549894)"
       x1="57.673443"
       y1="96.847885"
       x2="57.673443"
       y2="86.428795" />
    <linearGradient
       inkscape:collect="always"
       xlink:href="#linearGradient3036"
       id="linearGradient3463"
       gradientUnits="userSpaceOnUse"
       gradientTransform="matrix(0.707108,0.707106,-0.707106,0.707108,60.501122,-2.7549894)"
       x1="25.886337"
       y1="67.406197"
       x2="35.311226"
       y2="67.406197" />
  </defs>
  <sodipodi:namedview
     id="base"
     pagecolor="#ffffff"
     bordercolor="#666666"
     borderopacity="1.0"
     inkscape:pageopacity="0.0"
     inkscape:pageshadow="2"
     inkscape:zoom="4"
     inkscape:cx="48"
     inkscape:cy="48"
     inkscape:current-layer="layer1"
     showgrid="false"
     inkscape:document-units="px"
     inkscape:grid-bbox="true"
     guidetolerance="0.1px"
     showguides="true"
     inkscape:guide-bbox="true"
     inkscape:window-width="1002"
     inkscape:window-height="718"
     inkscape:window-x="44"
     inkscape:window-y="24"
     fit-margin-top="0"
     fit-margin-left="0"
     fit-margin-right="0"
     fit-margin-bottom="0"
     inkscape:window-maximized="0" />
  <metadata
     id="metadata1312">
    <rdf:RDF>
      <cc:Work
         rdf:about="">
        <dc:format>image/svg+xml</dc:format>
        <dc:type
           rdf:resource="http://purl.org/dc/dcmitype/StillImage" />
        <cc:license
           rdf:resource="http://creativecommons.org/licenses/GPL/2.0/" />
        <dc:contributor>
          <cc:Agent>
            <dc:title>Oxygen team</dc:title>
          </cc:Agent>
        </dc:contributor>
        <dc:title></dc:title>
      </cc:Work>
      <cc:License
         rdf:about="http://creativecommons.org/licenses/LGPL/2.1/">
        <cc:permits
           rdf:resource="http://web.resource.org/cc/Reproduction" />
        <cc:permits
           rdf:resource="http://web.resource.org/cc/Distribution" />
        <cc:requires
           rdf:resource="http://web.resource.org/cc/Notice" />
        <cc:permits
           rdf:resource="http://web.resource.org/cc/DerivativeWorks" />
        <cc:requires
           rdf:resource="http://web.resource.org/cc/ShareAlike" />
        <cc:requires
           rdf:resource="http://web.resource.org/cc/SourceCode" />
      </cc:License>
    </rdf:RDF>
  </metadata>
  <g
     id="layer1"
     inkscape:label="Layer 1"
     inkscape:groupmode="layer"
     transform="translate(0,-31.999999)">
    <g
       id="g3359"
       transform="matrix(0.6875,0,0,0.6875,4,36)">
      <rect
         id="rect3642"
         transform="matrix(0.70710778,0.70710578,-0.70710578,0.70710778,0,0)"
         style="fill:url(#linearGradient3419);fill-opacity:1;fill-rule:nonzero;stroke:none"
         width="7.979444"
         height="32.145763"
         x="107.70483"
         y="-31.404741"
         rx="3.989722"
         ry="3.989722" />
      <path
         inkscape:connector-curvature="0"
         id="rect3349"
         d="m 101.31522,56.63469 c -1.638825,-1.638823 -4.283194,-1.638817 -5.922016,9e-6 L 78.31218,73.715771 c -1.638821,1.638826 -1.63882,4.283196 9e-6,5.922019 1.638828,1.638824 4.283197,1.638818 5.922019,-8e-6 L 101.31523,62.55671 c 1.63882,-1.638827 1.63882,-4.283196 -1e-5,-5.92202 z m -0.26516,0.265166 c 1.48703,1.487022 1.46493,3.882569 -0.0221,5.369592 L 83.946945,79.35052 c -1.487019,1.487023 -3.860468,1.48703 -5.347495,8e-6 -1.487026,-1.487022 -1.487026,-3.860472 -7e-6,-5.347495 L 95.680467,56.92196 c 1.487018,-1.487022 3.882565,-1.509126 5.369593,-0.0221 z"
         style="font-size:medium;font-style:normal;font-variant:normal;font-weight:normal;font-stretch:normal;text-indent:0;text-align:start;text-decoration:none;line-height:normal;letter-spacing:normal;word-spacing:normal;text-transform:none;direction:ltr;block-progression:tb;writing-mode:lr-tb;text-anchor:start;baseline-shift:baseline;color:#000000;fill:#000000;fill-opacity:1;fill-rule:nonzero;stroke:none;stroke-width:0.40000013;marker:none;visibility:visible;display:inline;overflow:visible;enable-background:accumulate;font-family:Sans;-inkscape-font-specification:Sans" />
      <rect
         transform="matrix(0.70710778,0.70710578,-0.70710578,0.70710778,0,0)"
         ry="3.989722"
         rx="3.989722"
         y="-31.404741"
         x="107.70483"
         height="32.145763"
         width="7.979444"
         id="rect3644"
         style="fill:url(#linearGradient3421);fill-opacity:1;fill-rule:nonzero;stroke:none" />
      <rect
         id="rect3046"
         transform="matrix(0.70710778,0.70710578,-0.70710578,0.70710778,0,0)"
         ry="3.989722"
         rx="3.989722"
         y="-31.404741"
         x="81.185936"
         height="32.145763"
         width="7.979444"
         style="fill:url(#linearGradient3423);fill-opacity:1;fill-rule:nonzero;stroke:none" />
      <path
         inkscape:connector-curvature="0"
         id="rect3333"
         d="m 82.576867,37.896387 c -1.638826,-1.638821 -4.283197,-1.638818 -5.922019,9e-6 L 59.573824,54.977468 c -1.638821,1.638826 -1.638818,4.283198 8e-6,5.922019 1.638827,1.638822 4.283198,1.638818 5.92202,-8e-6 L 82.576876,43.818406 c 1.638821,-1.638826 1.638817,-4.283197 -9e-6,-5.922019 z m -0.265164,0.265166 c 1.487022,1.487018 1.464929,3.882569 -0.02209,5.369592 L 65.208589,60.612217 c -1.487019,1.487023 -3.860472,1.487026 -5.347495,8e-6 -1.487023,-1.487019 -1.509124,-3.882569 -0.02211,-5.369592 L 76.920013,38.16156 c 1.487019,-1.487023 3.904667,-1.487026 5.39169,-7e-6 z"
         style="font-size:medium;font-style:normal;font-variant:normal;font-weight:normal;font-stretch:normal;text-indent:0;text-align:start;text-decoration:none;line-height:normal;letter-spacing:normal;word-spacing:normal;text-transform:none;direction:ltr;block-progression:tb;writing-mode:lr-tb;text-anchor:start;baseline-shift:baseline;color:#000000;fill:#000000;fill-opacity:1;fill-rule:nonzero;stroke:none;stroke-width:0.40000013;marker:none;visibility:visible;display:inline;overflow:visible;enable-background:accumulate;font-family:Sans;-inkscape-font-specification:Sans" />
      <path
         sodipodi:type="arc"
         style="opacity:0.49180328;fill:url(#radialGradient3425);fill-opacity:1;fill-rule:nonzero;stroke:none"
         id="path3646"
         sodipodi:cx="43.889168"
         sodipodi:cy="16"
         sodipodi:rx="2.6196473"
         sodipodi:ry="2.1360202"
         d="m 46.508815,16 c 0,1.179691 -1.172856,2.13602 -2.619647,2.13602 -1.446791,0 -2.619647,-0.956329 -2.619647,-2.13602 0,-1.179691 1.172856,-2.13602 2.619647,-2.13602 1.446791,0 2.619647,0.956329 2.619647,2.13602 z"
         transform="matrix(0.88722043,0.88721792,-0.88721792,0.88722043,74.556538,5.4513117)" />
      <path
         transform="matrix(0.88722043,0.88721792,-0.50031073,0.50031214,69.192466,10.815398)"
         d="m 46.508815,16 c 0,1.179691 -1.172856,2.13602 -2.619647,2.13602 -1.446791,0 -2.619647,-0.956329 -2.619647,-2.13602 0,-1.179691 1.172856,-2.13602 2.619647,-2.13602 1.446791,0 2.619647,0.956329 2.619647,2.13602 z"
         sodipodi:ry="2.1360202"
         sodipodi:rx="2.6196473"
         sodipodi:cy="16"
         sodipodi:cx="43.889168"
         id="path3648"
         style="opacity:0.49180328;fill:url(#radialGradient3427);fill-opacity:1;fill-rule:nonzero;stroke:none"
         sodipodi:type="arc" />
      <rect
         transform="matrix(0.70710778,0.70710578,-0.70710578,0.70710778,0,0)"
         style="fill:url(#linearGradient3429);fill-opacity:1;fill-rule:nonzero;stroke:none"
         id="rect3632"
         width="7.979444"
         height="32.145763"
         x="81.185936"
         y="-31.404741"
         rx="3.989722"
         ry="3.989722" />
      <path
         transform="matrix(0.88722043,0.88721792,-0.88721792,0.88722043,55.804819,-13.300355)"
         d="m 46.508815,16 c 0,1.179691 -1.172856,2.13602 -2.619647,2.13602 -1.446791,0 -2.619647,-0.956329 -2.619647,-2.13602 0,-1.179691 1.172856,-2.13602 2.619647,-2.13602 1.446791,0 2.619647,0.956329 2.619647,2.13602 z"
         sodipodi:ry="2.1360202"
         sodipodi:rx="2.6196473"
         sodipodi:cy="16"
         sodipodi:cx="43.889168"
         id="path3601"
         style="opacity:0.49180328;fill:url(#radialGradient3431);fill-opacity:1;fill-rule:nonzero;stroke:none"
         sodipodi:type="arc" />
      <path
         sodipodi:type="arc"
         style="opacity:0.49180328;fill:url(#radialGradient3433);fill-opacity:1;fill-rule:nonzero;stroke:none"
         id="path3619"
         sodipodi:cx="43.889168"
         sodipodi:cy="16"
         sodipodi:rx="2.6196473"
         sodipodi:ry="2.1360202"
         d="m 46.508815,16 c 0,1.179691 -1.172856,2.13602 -2.619647,2.13602 -1.446791,0 -2.619647,-0.956329 -2.619647,-2.13602 0,-1.179691 1.172856,-2.13602 2.619647,-2.13602 1.446791,0 2.619647,0.956329 2.619647,2.13602 z"
         transform="matrix(0.88722043,0.88721792,-0.50031073,0.50031214,50.440747,-7.9362679)" />
      <path
         inkscape:connector-curvature="0"
         id="path3002"
         d="m 27.9375,107.0625 a 2.750276,2.750276 0 0 0 -1.84375,1 c -2.295676,2.67642 -4.798755,4.93537 -7.15625,5.84375 -2.357495,0.90838 -4.538435,0.90767 -7.84375,-1.5 a 2.750276,2.750276 0 1 0 -3.25,4.4375 c 4.458016,3.24732 9.214311,3.67027 13.0625,2.1875 3.848189,-1.48277 6.835069,-4.44507 9.375,-7.40625 a 2.750276,2.750276 0 0 0 -2.34375,-4.5625 z"
         style="font-size:medium;font-style:normal;font-variant:normal;font-weight:normal;font-stretch:normal;text-indent:0;text-align:start;text-decoration:none;line-height:normal;letter-spacing:normal;word-spacing:normal;text-transform:none;direction:ltr;block-progression:tb;writing-mode:lr-tb;text-anchor:start;baseline-shift:baseline;color:#000000;fill:url(#linearGradient3435);fill-opacity:1;stroke:none;stroke-width:5.50000191;marker:none;visibility:visible;display:inline;overflow:visible;enable-background:accumulate;font-family:Sans;-inkscape-font-specification:Sans" />
      <path
         inkscape:connector-curvature="0"
         sodipodi:nodetypes="ccccccc"
         id="path1976"
         d="m 29.684353,97.115589 -4.242379,10.253761 5.404452,5.40443 10.253747,-4.2424 -4.171351,-4.17134 -3.073119,-3.07311 -4.17135,-4.171341 z"
         style="fill:url(#linearGradient3437);fill-opacity:1;fill-rule:evenodd;stroke:none" />
      <rect
         transform="matrix(0.70710778,0.70710578,-0.70710578,0.70710778,0,0)"
         ry="0.87233371"
         rx="0.70774192"
         y="47.811771"
         x="88.894966"
         height="1.9488288"
         width="17.67651"
         id="rect2880"
         style="fill:url(#linearGradient3439);fill-opacity:1;fill-rule:nonzero;stroke:none" />
      <rect
         transform="matrix(0.70710778,0.70710578,-0.70710578,0.70710778,0,0)"
         style="fill:url(#linearGradient3441);fill-opacity:1;fill-rule:nonzero;stroke:none"
         id="rect2890"
         width="15.268261"
         height="1.9488288"
         x="90.099091"
         y="50.475174"
         rx="0.63433218"
         ry="0.78837615" />
      <rect
         transform="matrix(0.70710778,0.70710578,-0.70710578,0.70710778,0,0)"
         ry="0.67889601"
         rx="0.60976702"
         y="53.008644"
         x="90.978821"
         height="1.9488288"
         width="13.508807"
         id="rect2894"
         style="fill:url(#linearGradient3443);fill-opacity:1;fill-rule:nonzero;stroke:none" />
      <rect
         transform="matrix(0.70710778,0.70710578,-0.70710578,0.70710778,0,0)"
         style="fill:url(#linearGradient3445);fill-opacity:1;fill-rule:nonzero;stroke:none"
         id="rect2898"
         width="11.784711"
         height="1.9488288"
         x="91.840866"
         y="55.477165"
         rx="0.57594091"
         ry="0.61139458" />
      <path
         style="fill:#989898;fill-opacity:1;fill-rule:nonzero;stroke:none"
         d="m 57.340812,52.951986 28.655737,28.655655 c 2.042434,2.042428 2.05028,5.323119 0.0176,7.35581 L 57.995511,116.98216 c -2.032687,2.0327 -5.028313,1.67991 -7.35581,-0.0176 -11.081663,-8.08202 -20.516118,-17.636148 -28.655737,-28.655657 -1.711919,-2.317614 -2.050282,-5.323117 -0.0176,-7.35581 L 49.985002,52.934411 c 2.032685,-2.032691 5.313376,-2.024854 7.35581,0.01758 z"
         id="path2917"
         sodipodi:nodetypes="ccccssccc"
         inkscape:connector-curvature="0" />
      <path
         sodipodi:nodetypes="ccccssccc"
         id="rect1969"
         d="m 57.258334,53.514343 28.014648,28.014569 c 1.99674,1.996734 1.996744,5.211697 1e-5,7.208437 L 57.749907,116.26051 c -1.996735,1.99674 -4.931534,1.65804 -7.208437,1e-5 C 39.700699,108.36635 30.477594,99.02568 22.526822,88.245953 20.854621,85.978769 20.530077,83.034257 22.526811,81.037517 L 50.049896,53.514354 c 1.996735,-1.99674 5.211698,-1.996746 7.208438,-1.1e-5 z"
         style="fill:url(#linearGradient3447);fill-opacity:1;fill-rule:nonzero;stroke:none"
         inkscape:connector-curvature="0" />
      <rect
         transform="matrix(0.70710778,0.70710578,-0.70710578,0.70710778,0,0)"
         ry="3.989722"
         rx="3.989722"
         y="2.5648913"
         x="77.766174"
         height="7.979444"
         width="39.897221"
         id="rect2935"
         style="fill:url(#linearGradient3449);fill-opacity:1;fill-rule:nonzero;stroke:none" />
      <rect
         transform="matrix(0.70710778,0.70710578,-0.70710578,0.70710778,0,0)"
         style="fill:url(#linearGradient3451);fill-opacity:1;fill-rule:nonzero;stroke:none"
         id="rect2962"
         width="39.897221"
         height="7.979444"
         x="77.766174"
         y="2.5648913"
         rx="3.989722"
         ry="3.989722" />
      <rect
         transform="matrix(0.70710778,0.70710578,-0.70710578,0.70710778,0,0)"
         style="fill:url(#linearGradient3453);fill-opacity:1;fill-rule:nonzero;stroke:none"
         id="rect2982"
         width="39.897221"
         height="7.979444"
         x="77.766174"
         y="16.300936"
         rx="3.989722"
         ry="3.989722" />
      <rect
         transform="matrix(0.70710778,0.70710578,-0.70710578,0.70710778,0,0)"
         ry="3.989722"
         rx="3.989722"
         y="16.300936"
         x="77.766174"
         height="7.979444"
         width="39.897221"
         id="rect2984"
         style="fill:url(#linearGradient3455);fill-opacity:1;fill-rule:nonzero;stroke:none" />
      <rect
         transform="matrix(0.70710778,0.70710578,-0.70710578,0.70710778,0,0)"
         ry="3.989722"
         rx="3.989722"
         y="30.03698"
         x="77.766174"
         height="7.979444"
         width="39.897221"
         id="rect2992"
         style="fill:url(#linearGradient3457);fill-opacity:1;fill-rule:nonzero;stroke:none" />
      <rect
         transform="matrix(0.70710778,0.70710578,-0.70710578,0.70710778,0,0)"
         style="fill:url(#linearGradient3459);fill-opacity:1;fill-rule:nonzero;stroke:none"
         id="rect2994"
         width="39.897221"
         height="7.979444"
         x="77.766174"
         y="30.03698"
         rx="3.989722"
         ry="3.989722" />
      <path
         sodipodi:nodetypes="csscc"
         id="path3012"
         d="m 57.995511,116.98216 c -2.032687,2.0327 -5.028313,1.67991 -7.35581,-0.0176 -11.081663,-8.08202 -20.516118,-17.636148 -28.655737,-28.655657 -1.711919,-2.317614 -2.050282,-5.323117 -0.0176,-7.35581 l 36.029142,36.029037 z"
         style="fill:url(#linearGradient3461);fill-opacity:1;fill-rule:nonzero;stroke:none"
         inkscape:connector-curvature="0" />
      <path
         sodipodi:nodetypes="ccccssccc"
         id="path3034"
         d="m 55.9266,54.366202 28.655737,28.655655 c 2.042434,2.042428 3.464492,3.908903 1.431807,5.941594 L 57.995511,116.98216 c -2.032687,2.0327 -5.028313,1.67991 -7.35581,-0.0176 -11.081663,-8.08202 -20.516118,-17.636148 -28.655737,-28.655657 -1.711919,-2.317614 -2.050282,-5.323117 -0.0176,-7.35581 L 49.985002,52.934411 c 2.032685,-2.032691 3.899164,-0.610638 5.941598,1.431791 z"
         style="fill:url(#linearGradient3463);fill-opacity:1;fill-rule:nonzero;stroke:none"
         inkscape:connector-curvature="0" />
    </g>
  </g>
</svg>
