<?xml version="1.0" encoding="UTF-8" standalone="no"?>
<!-- Created with Inkscape (http://www.inkscape.org/) -->

<svg
   xmlns:dc="http://purl.org/dc/elements/1.1/"
   xmlns:cc="http://creativecommons.org/ns#"
   xmlns:rdf="http://www.w3.org/1999/02/22-rdf-syntax-ns#"
   xmlns:svg="http://www.w3.org/2000/svg"
   xmlns="http://www.w3.org/2000/svg"
   xmlns:xlink="http://www.w3.org/1999/xlink"
   xmlns:sodipodi="http://sodipodi.sourceforge.net/DTD/sodipodi-0.dtd"
   xmlns:inkscape="http://www.inkscape.org/namespaces/inkscape"
   sodipodi:docname="applications-office-small.svg"
   inkscape:version="0.48.4 r9939"
   version="1.1"
   id="svg4810"
   height="22"
   width="22"
   inkscape:export-filename="applications-office.png"
   inkscape:export-xdpi="22.5"
   inkscape:export-ydpi="22.5">
  <sodipodi:namedview
     id="base"
     pagecolor="#ffffff"
     bordercolor="#666666"
     borderopacity="1.0"
     inkscape:pageopacity="0.0"
     inkscape:pageshadow="2"
     inkscape:zoom="16"
     inkscape:cx="11"
     inkscape:cy="11"
     inkscape:current-layer="layer1"
     showgrid="true"
     inkscape:document-units="px"
     inkscape:grid-bbox="true"
     inkscape:window-width="1026"
     inkscape:window-height="728"
     inkscape:window-x="0"
     inkscape:window-y="56"
     inkscape:window-maximized="0"
     inkscape:object-paths="false"
     inkscape:snap-global="true"
     inkscape:snap-midpoints="false"
     inkscape:snap-intersection-paths="false"
     inkscape:object-nodes="false"
     inkscape:snap-smooth-nodes="false" />
  <defs
     id="defs4812">
    <linearGradient
       id="linearGradient4170">
      <stop
         style="stop-color:#606060;stop-opacity:1;"
         offset="0"
         id="stop4172" />
      <stop
         id="stop4174"
         offset="0.28894278"
         style="stop-color:#ffffff;stop-opacity:1;" />
      <stop
         style="stop-color:#fafafa;stop-opacity:1;"
         offset="0.65265679"
         id="stop4176" />
      <stop
         style="stop-color:#d7d7d7;stop-opacity:1;"
         offset="0.72287548"
         id="stop4178" />
      <stop
         id="stop4180"
         offset="0.83745664"
         style="stop-color:#000000;stop-opacity:1" />
      <stop
         style="stop-color:#d5d5d5;stop-opacity:1;"
         offset="1"
         id="stop4182" />
    </linearGradient>
    <linearGradient
       id="linearGradient4052">
      <stop
         style="stop-color:#404040;stop-opacity:1;"
         offset="0"
         id="stop4054" />
      <stop
         style="stop-color:#404040;stop-opacity:0;"
         offset="1"
         id="stop4056" />
    </linearGradient>
    <radialGradient
       gradientUnits="userSpaceOnUse"
       r="139.55859"
       cy="112.3047"
       cx="102"
       id="XMLID_8_">
      <stop
         id="stop41"
         style="stop-color:#efefef;stop-opacity:1;"
         offset="0" />
      <stop
         id="stop47"
         style="stop-color:#f9f9f9;stop-opacity:1;"
         offset="0.18851049" />
      <stop
         id="stop49"
         style="stop-color:#FAFAFA"
         offset="0.25718147" />
      <stop
         id="stop51"
         style="stop-color:#FFFFFF"
         offset="0.30111277" />
      <stop
         id="stop53"
         style="stop-color:#FAFAFA"
         offset="0.5313" />
      <stop
         id="stop55"
         style="stop-color:#EBECEC"
         offset="0.8449" />
      <stop
         id="stop57"
         style="stop-color:#E1E2E3"
         offset="1" />
    </radialGradient>
    <linearGradient
       id="linearGradient4334">
      <stop
         style="stop-color:#f7ffc1;stop-opacity:1;"
         offset="0"
         id="stop4336" />
      <stop
         id="stop4338"
         offset="0.29999998"
         style="stop-color:#e6ff41;stop-opacity:1;" />
      <stop
         style="stop-color:#7fff01;stop-opacity:1;"
         offset="1"
         id="stop4340" />
    </linearGradient>
    <linearGradient
       id="linearGradient3825"
       inkscape:collect="always">
      <stop
         id="stop3827"
         offset="0"
         style="stop-color:#000000;stop-opacity:1;" />
      <stop
         id="stop3829"
         offset="1"
         style="stop-color:#000000;stop-opacity:0;" />
    </linearGradient>
    <radialGradient
       gradientUnits="userSpaceOnUse"
       gradientTransform="matrix(0.9792,0,0,0.9725,133.0002,20.8762)"
       r="55.147999"
       cy="-0.2148"
       cx="48"
       id="radialGradient4084-105-153">
      <stop
         id="stop6008"
         style="stop-color:#86ff41;stop-opacity:1;"
         offset="0" />
      <stop
         id="stop6010"
         style="stop-color:#49ff21;stop-opacity:1;"
         offset="0.35530001" />
      <stop
         id="stop6012"
         style="stop-color:#01a000;stop-opacity:1;"
         offset="0.61940002" />
      <stop
         id="stop6014"
         style="stop-color:#009000;stop-opacity:1;"
         offset="0.75739998" />
      <stop
         id="stop6016"
         style="stop-color:#008000;stop-opacity:1;"
         offset="1" />
    </radialGradient>
    <linearGradient
       inkscape:collect="always"
       id="linearGradient4380-6">
      <stop
         style="stop-color:#ffffff;stop-opacity:1;"
         offset="0"
         id="stop4382-3" />
      <stop
         style="stop-color:#ffffff;stop-opacity:0;"
         offset="1"
         id="stop4384-9" />
    </linearGradient>
    <linearGradient
       id="linearGradient3950-2">
      <stop
         style="stop-color:#ff8941;stop-opacity:1;"
         offset="0"
         id="stop3952-9" />
      <stop
         style="stop-color:#c04800;stop-opacity:1;"
         offset="1"
         id="stop3954-0" />
    </linearGradient>
    <linearGradient
       id="linearGradient2919-5">
      <stop
         style="stop-color:#003580;stop-opacity:1;"
         offset="0"
         id="stop2921-0" />
      <stop
         style="stop-color:#418eff;stop-opacity:1;"
         offset="1"
         id="stop2923-3" />
    </linearGradient>
    <linearGradient
       id="linearGradient3800-3"
       inkscape:collect="always">
      <stop
         id="stop3802-5"
         offset="0"
         style="stop-color:#64d7eb;stop-opacity:1;" />
      <stop
         id="stop3804-8"
         offset="1"
         style="stop-color:#64d7eb;stop-opacity:0;" />
    </linearGradient>
    <radialGradient
       id="XMLID_4_-0"
       cx="48"
       cy="-0.2148"
       r="55.147999"
       gradientTransform="matrix(0.9792,0,0,0.9725,133.0002,20.8762)"
       gradientUnits="userSpaceOnUse">
      <stop
         offset="0"
         style="stop-color:#72D13D"
         id="stop3082-0" />
      <stop
         offset="0.3553"
         style="stop-color:#35AC1C"
         id="stop3084-9" />
      <stop
         offset="0.6194"
         style="stop-color:#0F9508"
         id="stop3086-1" />
      <stop
         offset="0.7574"
         style="stop-color:#008C00"
         id="stop3088-6" />
      <stop
         offset="1"
         style="stop-color:#007A00"
         id="stop3090-9" />
    </radialGradient>
    <radialGradient
       gradientUnits="userSpaceOnUse"
       gradientTransform="matrix(0.9792,0,0,0.9725,133.0002,20.8762)"
       r="55.147999"
       cy="-0.2148"
       cx="48"
       id="radialGradient4665-2">
      <stop
         id="stop4667-7"
         style="stop-color:#f5c31a;stop-opacity:1"
         offset="0" />
      <stop
         id="stop4669-9"
         style="stop-color:#e97b00;stop-opacity:1;"
         offset="1" />
    </radialGradient>
    <linearGradient
       id="linearGradient3370-6">
      <stop
         id="stop3372-8"
         offset="0"
         style="stop-color:#418fff;stop-opacity:1;" />
      <stop
         style="stop-color:#0168ff;stop-opacity:1;"
         offset="0.5"
         id="stop3374-1" />
      <stop
         id="stop3376-2"
         offset="1"
         style="stop-color:#003280;stop-opacity:1;" />
    </linearGradient>
    <linearGradient
       inkscape:collect="always"
       id="linearGradient3973-6">
      <stop
         style="stop-color:#ffffff;stop-opacity:1;"
         offset="0"
         id="stop3975-1" />
      <stop
         style="stop-color:#ffffff;stop-opacity:0;"
         offset="1"
         id="stop3977-2" />
    </linearGradient>
    <linearGradient
       id="linearGradient11687-8"
       inkscape:collect="always">
      <stop
         id="stop11689-8"
         offset="0"
         style="stop-color:#000000;stop-opacity:1;" />
      <stop
         id="stop11691-8"
         offset="1"
         style="stop-color:#000000;stop-opacity:0;" />
    </linearGradient>
    <linearGradient
       id="linearGradient5542-6">
      <stop
         id="stop5544-8"
         offset="0"
         style="stop-color:#818181;stop-opacity:1" />
      <stop
         style="stop-color:#ffffff;stop-opacity:1;"
         offset="0.16666667"
         id="stop5546-9" />
      <stop
         id="stop5558-0"
         offset="0.30087379"
         style="stop-color:#fafafa;stop-opacity:1;" />
      <stop
         id="stop5552-6"
         offset="0.41666666"
         style="stop-color:#d7d7d7;stop-opacity:1;" />
      <stop
         style="stop-color:#000000;stop-opacity:1"
         offset="0.44844013"
         id="stop5554-8" />
      <stop
         id="stop5556-7"
         offset="1"
         style="stop-color:#d5d5d5;stop-opacity:1;" />
    </linearGradient>
    <clipPath
       clipPathUnits="userSpaceOnUse"
       id="clipPath5899-0">
      <path
         inkscape:connector-curvature="0"
         style="fill:url(#linearGradient5903);fill-opacity:1;fill-rule:nonzero;stroke:none"
         d="m 2410.6562,-1125.5312 -0.125,20.4062 0.125,0 0,-0.1875 c 2.1955,-2.1403 6.6911,-3.5937 11.875,-3.5937 5.1841,0 9.6796,1.4533 11.875,3.5937 l 0,0.1875 0.125,0 -0.125,-20.4062 -23.75,0 z"
         id="path5901-4" />
    </clipPath>
    <linearGradient
       id="linearGradient5938-8">
      <stop
         style="stop-color:#5b5b5b;stop-opacity:1;"
         offset="0"
         id="stop5940-6" />
      <stop
         style="stop-color:#202020;stop-opacity:1;"
         offset="1"
         id="stop5943-2" />
    </linearGradient>
    <linearGradient
       inkscape:collect="always"
       id="linearGradient6140-2">
      <stop
         style="stop-color:#ffffff;stop-opacity:1;"
         offset="0"
         id="stop6142-8" />
      <stop
         style="stop-color:#ffffff;stop-opacity:0;"
         offset="1"
         id="stop6144-3" />
    </linearGradient>
    <linearGradient
       inkscape:collect="always"
       id="linearGradient6213-1">
      <stop
         style="stop-color:#ffffff;stop-opacity:1;"
         offset="0"
         id="stop6215-7" />
      <stop
         style="stop-color:#ffffff;stop-opacity:0;"
         offset="1"
         id="stop6218-8" />
    </linearGradient>
    <linearGradient
       inkscape:collect="always"
       xlink:href="#radialGradient4084-105-153"
       id="linearGradient3186"
       gradientUnits="userSpaceOnUse"
       gradientTransform="matrix(0.49066511,0,0,0.49066511,28.413836,-2.7614024)"
       x1="46.117153"
       y1="-44.827198"
       x2="46.117153"
       y2="60.317043" />
    <radialGradient
       inkscape:collect="always"
       xlink:href="#linearGradient4380-6"
       id="radialGradient3188"
       gradientUnits="userSpaceOnUse"
       gradientTransform="matrix(0.26545218,0,0,0.18233807,42.70058,2.5899836)"
       cx="63.4366"
       cy="-0.80576962"
       fx="63.4366"
       fy="-0.80576962"
       r="39.184292" />
    <linearGradient
       inkscape:collect="always"
       xlink:href="#linearGradient3950-2"
       id="linearGradient3190"
       gradientUnits="userSpaceOnUse"
       gradientTransform="matrix(0.50189208,0,0,0.50189208,29.851462,-1.4551756)"
       x1="112.13757"
       y1="24.155968"
       x2="112.13757"
       y2="96.228043" />
    <linearGradient
       inkscape:collect="always"
       xlink:href="#linearGradient2919-5"
       id="linearGradient3192"
       gradientUnits="userSpaceOnUse"
       gradientTransform="matrix(0.48085047,0,0,0.48085047,29.510799,1.8096818)"
       x1="56.207039"
       y1="123.3195"
       x2="56.207039"
       y2="35.510601" />
    <radialGradient
       inkscape:collect="always"
       xlink:href="#linearGradient3800-3"
       id="radialGradient3194"
       gradientUnits="userSpaceOnUse"
       gradientTransform="matrix(0.22603853,-1.0007945e-8,0,0.18769888,45.993716,33.305448)"
       cx="64.686584"
       cy="139.65083"
       fx="64.686584"
       fy="139.65083"
       r="45.01022" />
    <radialGradient
       inkscape:collect="always"
       xlink:href="#XMLID_4_-0"
       id="radialGradient3196"
       gradientUnits="userSpaceOnUse"
       gradientTransform="matrix(0.73002991,-1.2849054e-8,0,0.50463459,19.494071,-13.725209)"
       cx="39.191303"
       cy="75.128395"
       fx="38.089832"
       fy="79.916908"
       r="35.96875" />
    <radialGradient
       inkscape:collect="always"
       xlink:href="#radialGradient4665-2"
       id="radialGradient3198"
       gradientUnits="userSpaceOnUse"
       gradientTransform="matrix(0.92865189,0,0,0.79061072,-12.206998,-18.417394)"
       cx="99.041145"
       cy="81.771805"
       fx="99.041145"
       fy="81.771805"
       r="21.625" />
    <radialGradient
       inkscape:collect="always"
       xlink:href="#linearGradient3370-6"
       id="radialGradient3200"
       gradientUnits="userSpaceOnUse"
       gradientTransform="matrix(0.47529863,1.7756153e-8,0,0.25499925,29.422927,22.003124)"
       cx="59.269905"
       cy="126.30224"
       fx="62.451874"
       fy="156.61607"
       r="41.734375" />
    <linearGradient
       inkscape:collect="always"
       xlink:href="#linearGradient3973-6"
       id="linearGradient3202"
       gradientUnits="userSpaceOnUse"
       gradientTransform="matrix(0.46800909,0,0,0.46800909,33.08729,0.5354512)"
       x1="116.59375"
       y1="20.306101"
       x2="116.59375"
       y2="73.692665" />
    <linearGradient
       inkscape:collect="always"
       xlink:href="#linearGradient3973-6"
       id="linearGradient3204"
       gradientUnits="userSpaceOnUse"
       gradientTransform="matrix(0.46680218,0,0,0.46680218,29.54807,-1.9683331)"
       x1="47.136333"
       y1="-9.3432493"
       x2="57.035828"
       y2="50.69762" />
    <linearGradient
       inkscape:collect="always"
       xlink:href="#linearGradient3973-6"
       id="linearGradient3206"
       gradientUnits="userSpaceOnUse"
       gradientTransform="matrix(0.50189208,0,0,0.50189208,28.826007,-1.3046079)"
       x1="93.83374"
       y1="84.017662"
       x2="58.429943"
       y2="22.696486" />
    <linearGradient
       inkscape:collect="always"
       xlink:href="#linearGradient3973-6"
       id="linearGradient3208"
       gradientUnits="userSpaceOnUse"
       gradientTransform="matrix(0.43911959,0,0,0.43911959,31.734147,5.7422316)"
       x1="51.379715"
       y1="35.236496"
       x2="51.379715"
       y2="108.5285" />
    <linearGradient
       inkscape:collect="always"
       xlink:href="#linearGradient11687-8"
       id="linearGradient3210"
       gradientUnits="userSpaceOnUse"
       gradientTransform="matrix(1.1242596,0,0,1.1242596,-44.405267,-70.813335)"
       x1="41.07682"
       y1="106.06594"
       x2="96.166519"
       y2="74.259888" />
    <linearGradient
       inkscape:collect="always"
       xlink:href="#linearGradient5542-6"
       id="linearGradient3212"
       gradientUnits="userSpaceOnUse"
       gradientTransform="matrix(0.34312995,0.2232376,-0.21096945,0.32427309,-967.94777,-97.332147)"
       x1="2205.9375"
       y1="-1222.1377"
       x2="2229.125"
       y2="-1222.1377" />
    <linearGradient
       inkscape:collect="always"
       xlink:href="#linearGradient5542-6"
       id="linearGradient3214"
       gradientUnits="userSpaceOnUse"
       gradientTransform="matrix(0.05008589,0.03258548,0.01087337,-0.01671302,-78.04934,-39.044167)"
       x1="2205.9375"
       y1="-1222.1377"
       x2="2229.125"
       y2="-1222.1377" />
    <linearGradient
       inkscape:collect="always"
       xlink:href="#linearGradient4052"
       id="linearGradient3216"
       gradientUnits="userSpaceOnUse"
       x1="21.640581"
       y1="39.946518"
       x2="28.613016"
       y2="41.196556" />
    <linearGradient
       inkscape:collect="always"
       xlink:href="#linearGradient4170"
       id="linearGradient3218"
       gradientUnits="userSpaceOnUse"
       gradientTransform="matrix(0.47506929,0.30907626,-0.33483261,0.51465839,-1428.996,-28.721163)"
       x1="2208.0518"
       y1="-1222.0073"
       x2="2234.4573"
       y2="-1223.3051" />
    <radialGradient
       inkscape:collect="always"
       xlink:href="#linearGradient5938-8"
       id="radialGradient3220"
       gradientUnits="userSpaceOnUse"
       gradientTransform="matrix(0.47506929,0.30907626,-2.1254545,3.266955,-3681.5904,3408.7126)"
       cx="2227.7837"
       cy="-1254.6573"
       fx="2227.7837"
       fy="-1254.6573"
       r="4.7629333" />
    <linearGradient
       inkscape:collect="always"
       xlink:href="#linearGradient6140-2"
       id="linearGradient3222"
       gradientUnits="userSpaceOnUse"
       gradientTransform="matrix(0.47506929,0.30907626,-0.30907626,0.47506929,-1400.8838,-96.874136)"
       x1="2227.0715"
       y1="-1248.1597"
       x2="2231.7791"
       y2="-1248.9692" />
    <linearGradient
       inkscape:collect="always"
       xlink:href="#linearGradient6213-1"
       id="linearGradient3224"
       gradientUnits="userSpaceOnUse"
       gradientTransform="matrix(0.47506929,0.30907626,-0.30907626,0.47506929,-1400.8838,-96.874136)"
       x1="2229.0273"
       y1="-1270.7157"
       x2="2231.1499"
       y2="-1270.7157" />
    <radialGradient
       inkscape:collect="always"
       xlink:href="#XMLID_8_"
       id="radialGradient4039"
       gradientUnits="userSpaceOnUse"
       gradientTransform="matrix(0.75,0,0,0.74974897,-2.015625,-31.997735)"
       cx="102"
       cy="112.3047"
       fx="115.08147"
       fy="124.32954"
       r="139.55859" />
    <linearGradient
       inkscape:collect="always"
       xlink:href="#linearGradient4334"
       id="linearGradient4041"
       gradientUnits="userSpaceOnUse"
       gradientTransform="matrix(0.75,0,0,0.74760555,3.9843728,-31.932955)"
       x1="56"
       y1="6.0605192"
       x2="56"
       y2="27.999998" />
    <linearGradient
       inkscape:collect="always"
       xlink:href="#linearGradient3825"
       id="linearGradient4043"
       gradientUnits="userSpaceOnUse"
       gradientTransform="matrix(0.75,0,0,0.75,4.5,-33.03125)"
       x1="20.488955"
       y1="21.857628"
       x2="20.488955"
       y2="7.8229141" />
  </defs>
  <metadata
     id="metadata4815">
    <rdf:RDF>
      <cc:Work
         rdf:about="">
        <dc:format>image/svg+xml</dc:format>
        <dc:type
           rdf:resource="http://purl.org/dc/dcmitype/StillImage" />
        <dc:title />
      </cc:Work>
    </rdf:RDF>
  </metadata>
  <g
     transform="translate(0,-42)"
     inkscape:groupmode="layer"
     inkscape:label="Layer 1"
     id="layer1">
    <path
       style="opacity:0.14999999999999999;fill:none;stroke:#000000;stroke-width:2.5;stroke-miterlimit:4;stroke-dasharray:none"
       d="m 2.2916667,43.375 0,19.25 16.5000003,0 0,-17.875 c 0,-0.759 -0.616,-1.375 -1.375,-1.375 z"
       id="path4002"
       inkscape:connector-curvature="0"
       sodipodi:nodetypes="cccssc" />
    <path
       sodipodi:nodetypes="cccssc"
       inkscape:connector-curvature="0"
       id="path3232"
       d="m 2.2916667,43.375 0,19.25 16.5000003,0 0,-17.875 c 0,-0.759 -0.616,-1.375 -1.375,-1.375 z"
       style="opacity:0.25000000000000000;fill:none;stroke:#000000;stroke-width:1.75;stroke-miterlimit:4;stroke-dasharray:none" />
    <path
       style="opacity:0.5;fill:none;stroke:#000000;stroke-width:1"
       d="m 2.2916667,43.375 0,19.25 16.5000003,0 0,-17.875 c 0,-0.759 -0.616,-1.375 -1.375,-1.375 z"
       id="path3183"
       inkscape:connector-curvature="0"
       sodipodi:nodetypes="cccssc" />
    <g
       id="g3147"
       transform="matrix(0.22916667,0,0,0.22916667,0,49.333333)">
      <path
         style="fill:#ffffff;fill-opacity:1"
         d="m 9.984375,-26 0,84 c 0,0 47.367188,0 47.367188,0 l 24.632812,0 0,-78 c 0,-3.312 -2.688,-6 -6,-6 l -66,0 z"
         id="path34"
         inkscape:connector-curvature="0" />
      <path
         style="fill:url(#radialGradient4039);fill-opacity:1"
         d="m 11.484375,-25.25 c -0.41325,0 -0.75,0.336893 -0.75,0.75 l 0,80.976562 c 0,0.413858 0.33675,0.75 0.75,0.75 l 44.390625,0 25.359375,0 0,-77.226562 c 0,-2.898002 -2.351998,-5.25 -5.25,-5.25 l -64.5,0 z"
         id="path59"
         inkscape:connector-curvature="0" />
      <path
         sodipodi:nodetypes="cccccccccccccccccccccccccccccccccccccccccccccccccccccccccccccccccccccccccccccccccccccccccccccccccccccccccccccccccccccccccccccccccccccccccccccccccccccccccccccccccccccccccccccccccccccccc"
         inkscape:connector-curvature="0"
         id="rect297"
         d="m 14,-6 0,58 63.96875,0 0,-58 z m 2,2 7.96875,0 0,6 L 16,2 z m 9.96875,0 12,0 0,6 L 38,2 l 0,2 0,6 -12,0 0,-6 11.96875,0 0,-2 L 26,2 25.96875,2 z m 14,0 L 52,-4 52,2 40,2 39.96875,2 z m 14,0 L 64,-4 64,2 53.96875,2 z m 12,0 L 76,-4 76,2 65.96875,2 z M 16,4 l 7.96875,0 0,6 L 16,10 z m 24,0 12,0 0,6 -12,0 z M 53.96875,4 64,4 l 0,6 -10.03125,0 z m 12,0 L 76,4 76,10 65.96875,10 z M 16,12 l 7.96875,0 0,6 L 16,18 z m 10,0 12,0 0,6 -12,0 z m 14,0 12,0 0,6 -12,0 z M 53.96875,12 64,12 l 0,6 -10.03125,0 z m 12,0 L 76,12 76,18 65.96875,18 z M 16,20 l 7.96875,0 0,6 L 16,26 z m 10,0 12,0 0,6 -12,0 z m 14,0 12,0 0,6 -12,0 z M 53.96875,20 64,20 l 0,6 -10.03125,0 z m 12,0 L 76,20 76,26 65.96875,26 z M 16,28 l 7.96875,0 0,6 L 16,34 z m 10,0 12,0 0,6 -12,0 z m 14,0 12,0 0,6 -12,0 z M 53.96875,28 64,28 l 0,6 -10.03125,0 z m 12,0 L 76,28 76,34 65.96875,34 z M 16,36 l 7.96875,0 0,6 L 16,42 z m 10,0 12,0 0,6 -12,0 z m 14,0 12,0 0,6 -12,0 z M 53.96875,36 64,36 l 0,6 -10.03125,0 z m 12,0 L 76,36 76,42 65.96875,42 z M 16,44 l 7.96875,0 0,6 L 16,50 z m 10,0 12,0 0,6 -12,0 z m 14,0 12,0 0,6 -12,0 z M 53.96875,44 64,44 l 0,6 -10.03125,0 z m 12,0 L 76,44 l 0,6 -10.03125,0 z"
         style="opacity:0.5;fill:#000000;fill-opacity:1" />
      <path
         style="fill:url(#linearGradient4041);fill-opacity:1;stroke:none"
         d="m 11.484373,-25.25 c -0.4155,0 -0.75,0.381375 -0.75,0.796875 l 0,13.704975 c 0,0.4155 0.3345,0.7499992 0.75,0.75 l 69.000002,0 c 0.4155,0 0.75,-0.334501 0.75,-0.75 l 0,-9.25185 c 0,-2.675581 -2.25,-5.25 -5.25,-5.25 l -64.500002,0 z"
         id="rect3022"
         sodipodi:nodetypes="ccccccccc"
         inkscape:connector-curvature="0" />
      <path
         style="opacity:0.60891089;fill:url(#linearGradient4043);fill-opacity:1;fill-rule:evenodd;stroke:none"
         d="m 18.9375,-23.445312 c -2.724109,0 -4.945312,2.221202 -4.945312,4.945312 0,2.724109 2.221203,4.945312 4.945312,4.945312 2.72411,0 4.945313,-2.221203 4.945313,-4.945312 -10e-7,-2.72411 -2.221203,-4.945312 -4.945313,-4.945312 z m 0,1.101562 c 2.128576,0 3.84375,1.715175 3.84375,3.84375 -1e-6,2.128575 -1.715175,3.84375 -3.84375,3.84375 -2.128574,-10e-7 -3.84375,-1.715175 -3.84375,-3.84375 0,-2.128575 1.715176,-3.84375 3.84375,-3.84375 z"
         id="path3820"
         sodipodi:nodetypes="csssccsssc"
         inkscape:connector-curvature="0" />
      <path
         style="opacity:0.25;color:#000000;fill:#000000;fill-opacity:1;fill-rule:evenodd;stroke:none;stroke-width:1px;marker:none;visibility:visible;display:inline;overflow:visible;enable-background:accumulate"
         d="m 29.9375,-21 44,0 c 1.108,0 2,0.446 2,1 0,0.554 -0.892,1 -2,1 l -44,0 c -1.108,0 -2,-0.446 -2,-1 0,-0.554 0.892,-1 2,-1 z"
         id="rect3882"
         inkscape:connector-curvature="0" />
      <path
         style="opacity:0.25;color:#000000;fill:#000000;fill-opacity:1;fill-rule:evenodd;stroke:none;stroke-width:1px;marker:none;visibility:visible;display:inline;overflow:visible;enable-background:accumulate"
         d="m 29.9375,-17 44,0 c 1.108,0 2,0.446 2,1 0,0.554 -0.892,1 -2,1 l -44,0 c -1.108,0 -2,-0.446 -2,-1 0,-0.554 0.892,-1 2,-1 z"
         id="rect3884"
         inkscape:connector-curvature="0" />
    </g>
    <g
       id="g3306"
       transform="matrix(0.22916667,0,0,0.22916667,0,49.333333)">
      <path
         sodipodi:nodetypes="scscccccccscscccccccsscccscscscccc"
         inkscape:connector-curvature="0"
         id="path3122"
         d="m 59.8125,-0.71875 c -14.671906,0 -26.76055,10.875217 -28.78125,25 -0.12771,0.896833 0.138483,1.798227 0.71875,2.46875 0.574677,0.664072 1.438692,1.091378 2.34375,1.09375 l 23.4375,0 c 1.096601,-0.0063 2.096736,-0.613907 2.65625,-1.5625 l 0.03125,0 c 0.0039,-0.0067 -0.0038,-0.0245 0,-0.03125 L 72.0625,5.78125 l 0,-0.03125 c 0.443214,-0.7732411 0.547345,-1.6785674 0.25,-2.53125 -0.292972,-0.8401406 -0.938032,-1.5389309 -1.78125,-1.875 -3.299988,-1.30731545 -6.919917,-2.0625 -10.71875,-2.0625 z m 18.75,7.25 C 77.449746,6.5622153 76.444059,7.1808321 75.90625,8.125 l -11.6875,20.3125 c -0.716281,1.230127 -0.499733,2.802874 0.5,3.8125 l 16.3125,16.34375 0.03125,0 c 0.654408,0.651908 1.55017,0.970863 2.4375,0.90625 0.885096,-0.06444 1.725186,-0.506161 2.28125,-1.25 3.704153,-4.954877 6,-11.117226 6,-17.8125 C 91.78125,21.05275 87.405942,12.704969 80.625,7.25 80.066747,6.8024995 79.343541,6.511338 78.5625,6.53125 z M 35.125,33.34375 c -0.907197,3.91e-4 -1.767366,0.387918 -2.34375,1.0625 -0.570252,0.667408 -0.825645,1.560557 -0.6875,2.4375 C 34.263278,50.481439 46.04382,61 60.28125,61 c 6.301575,0 12.084179,-2.138524 16.78125,-5.5625 0.720417,-0.526913 1.181513,-1.332761 1.25,-2.21875 0.06902,-0.892933 -0.253728,-1.784516 -0.875,-2.40625 L 60.8125,34.21875 c -0.560339,-0.559816 -1.314321,-0.877173 -2.125,-0.875 z"
         style="font-size:medium;font-style:normal;font-variant:normal;font-weight:normal;font-stretch:normal;text-indent:0;text-align:start;text-decoration:none;line-height:normal;letter-spacing:normal;word-spacing:normal;text-transform:none;direction:ltr;block-progression:tb;writing-mode:lr-tb;text-anchor:start;baseline-shift:baseline;opacity:0.5;color:#000000;fill:#000000;fill-opacity:1;stroke:none;stroke-width:2;marker:none;visibility:visible;display:inline;overflow:visible;enable-background:accumulate;font-family:Sans;-inkscape-font-specification:Sans" />
      <path
         inkscape:connector-curvature="0"
         id="path3896"
         d="m 59.816402,0.2592546 c -14.177032,0 -25.847482,10.5376874 -27.799244,24.1805894 -0.08552,0.600558 0.09328,1.20872 0.490235,1.667424 0.396956,0.458705 0.973143,0.722978 1.579758,0.724568 l 23.444592,0 c 0.748774,-0.0043 1.43844,-0.407517 1.809327,-1.057996 L 71.193699,5.2579052 C 71.495796,4.7308594 71.554421,4.0986865 71.354392,3.5250759 71.154364,2.9514653 70.715354,2.4928264 70.151036,2.2679148 66.958734,1.0032604 63.481479,0.2592546 59.816402,0.2592546 z"
         style="fill:url(#linearGradient3186);fill-opacity:1;stroke:none" />
      <path
         inkscape:connector-curvature="0"
         id="path4376"
         d="m 59.816403,0.76525308 c -13.923843,0 -25.376699,10.35450492 -27.293247,23.75125792 -0.06464,0.453942 0.06841,0.911142 0.367999,1.257329 0.299585,0.346189 0.734736,0.550789 1.195996,0.551999 l 23.444593,0 c 0.567099,-0.0032 1.083763,-0.320011 1.364662,-0.812664 L 70.749035,4.9972397 C 70.975896,4.6014515 71.024371,4.1317128 70.871701,3.6939105 70.719033,3.2561091 70.392598,2.9128555 69.967038,2.7432468 66.829058,1.5001128 63.412332,0.76525308 59.816403,0.76525308 z"
         style="fill:url(#radialGradient3188);fill-opacity:1;stroke:none" />
      <path
         inkscape:connector-curvature="0"
         id="path3894"
         d="m 78.597729,7.5475137 c -0.749004,0.020839 -1.432812,0.4311239 -1.803674,1.0822044 L 65.078012,28.940663 c -0.487888,0.83789 -0.352849,1.898914 0.329367,2.587881 l 16.358546,16.358543 c 0.440315,0.438633 1.049273,0.664647 1.669143,0.61951 0.619864,-0.04513 1.189659,-0.356983 1.561787,-0.854772 3.584042,-4.794211 5.78744,-10.738654 5.78744,-17.205486 0,-9.073048 -4.232812,-17.152787 -10.790677,-22.4283017 -0.39514,-0.3167478 -0.889632,-0.48343 -1.395889,-0.4705236 l 0,0 z"
         style="fill:url(#linearGradient3190);fill-opacity:1;stroke:none" />
      <path
         inkscape:connector-curvature="0"
         id="path3882"
         d="m 35.130739,34.342223 c -0.600575,2.58e-4 -1.170966,0.26329 -1.561101,0.719892 -0.390134,0.456602 -0.560943,1.061049 -0.467487,1.654307 2.093875,13.162135 13.437333,23.276167 27.183079,23.276167 6.075942,0 11.657551,-2.039182 16.198651,-5.34946 0.484095,-0.354067 0.789303,-0.901988 0.835527,-1.49996 0.04622,-0.597977 -0.171165,-1.18629 -0.595103,-1.610543 L 60.134964,34.943286 c -0.386588,-0.386228 -0.911117,-0.602528 -1.457578,-0.601063 l -23.546647,0 z"
         style="fill:url(#linearGradient3192);fill-opacity:1;stroke:none" />
      <path
         inkscape:connector-curvature="0"
         id="path4486"
         d="m 35.130739,34.829083 c -0.459568,1.96e-4 -0.903237,0.206171 -1.202126,0.555983 -0.298891,0.349813 -0.417395,0.806553 -0.345612,1.262232 2.057547,12.933775 13.192354,22.870451 26.702228,22.870451 5.968355,0 11.44765,-2.004132 15.913145,-5.259302 0.371612,-0.271796 0.610954,-0.68676 0.646143,-1.14202 0.03519,-0.45526 -0.138588,-0.904701 -0.465824,-1.232179 L 59.789352,35.294906 c -0.29624,-0.295964 -0.693216,-0.466946 -1.111967,-0.465823 l -23.546646,0 z"
         style="fill:url(#radialGradient3194);fill-opacity:1;stroke:none" />
      <path
         inkscape:connector-curvature="0"
         id="path3890"
         d="m 59.42341,2.9039146 c -12.502641,0 -22.758168,9.2619884 -24.47794,21.2832614 l 22.304392,0 11.27619,-19.5181655 C 65.702995,3.5506351 62.643196,2.9039146 59.42341,2.9039146 z"
         style="fill:url(#radialGradient3196);fill-opacity:1;stroke:none" />
      <path
         inkscape:connector-curvature="0"
         id="path3888"
         d="M 78.586549,10.934028 67.661459,29.873769 82.915626,45.12794 c 3.102944,-4.150667 4.987223,-9.264516 4.987223,-14.844663 0,-7.840372 -3.647693,-14.789102 -9.3163,-19.349249 z"
         style="fill:url(#radialGradient3198);fill-opacity:1;stroke:none" />
      <path
         inkscape:connector-curvature="0"
         sodipodi:nodetypes="csccc"
         id="path3880"
         d="m 36.740215,37.222997 c 1.770859,11.131651 11.461917,19.800169 23.097586,19.800169 5.132949,0 9.828377,-1.706052 13.681321,-4.514695 L 58.369496,37.358843 36.740215,37.222997 z"
         style="fill:url(#radialGradient3200);fill-opacity:1;stroke:none" />
      <path
         inkscape:connector-curvature="0"
         id="path3960"
         d="m 78.586549,10.934028 -10.92509,18.939741 1.111522,1.111522 C 75.720053,30.270584 82.125067,28.808428 87.654224,26.787835 86.747378,20.395106 83.395497,14.802618 78.586549,10.934028 z"
         style="fill:url(#linearGradient3202);fill-opacity:1;stroke:none" />
      <path
         inkscape:connector-curvature="0"
         id="path3962"
         d="m 59.42341,2.9039146 c -10.722564,0 -19.787887,6.8152387 -23.237997,16.3380764 11.616541,-1.084356 21.788536,-4.228201 28.927148,-8.650428 L 68.526052,4.6690105 C 65.702995,3.5506351 62.643196,2.9039146 59.42341,2.9039146 z"
         style="fill:url(#linearGradient3204);fill-opacity:1;stroke:none" />
      <path
         inkscape:connector-curvature="0"
         id="path4675"
         d="m 78.61655,9.696239 c 0.0024,0.00217 -0.0024,0.013533 0,0.015683 0.14952,0.1263243 0.308146,0.2469403 0.454841,0.37642 C 78.919054,9.9601732 78.771746,9.8210857 78.61655,9.6962385 z"
         style="fill:url(#linearGradient3206);fill-opacity:1;stroke:none" />
      <path
         inkscape:connector-curvature="0"
         sodipodi:nodetypes="ccccc"
         id="path3958"
         d="m 36.745067,37.2327 c 0.523244,3.289126 1.856548,6.473294 3.593079,9.15554 8.582772,-0.192429 16.55235,-1.547628 23.27334,-3.787407 L 58.369496,37.358843 36.745067,37.2327 z"
         style="fill:url(#linearGradient3208);fill-opacity:1;stroke:none" />
    </g>
    <g
       id="g3198"
       transform="matrix(0.22916667,0,0,0.22916667,0,49.333333)">
      <path
         inkscape:connector-curvature="0"
         sodipodi:nodetypes="cccc"
         id="path11685"
         d="M 17.999999,55.999998 C 38.332357,48.321497 59.530114,26.141788 66.49326,17.443887 L 60.928468,5.9167966 C 47.896422,19.93754 25.359368,39.142917 17.999999,55.999998 z"
         style="fill:url(#linearGradient3210);fill-opacity:1;stroke:none" />
      <path
         inkscape:connector-curvature="0"
         style="fill:url(#linearGradient3212);fill-opacity:1;fill-rule:nonzero;stroke:none"
         d="m 64.723589,-28.303767 c 1.967619,-3.024341 9.602402,1.754684 7.548809,4.911195 l -6.438763,10.647451 -8.23509,-5.357676 7.125044,-10.20097 z"
         id="path5566"
         sodipodi:nodetypes="csccc" />
      <path
         sodipodi:nodetypes="scccssscccsss"
         inkscape:connector-curvature="0"
         id="path6106-7"
         d="m 67.03125,-29.4375 c -0.99182,-0.07442 -1.903168,0.230192 -2.4375,1.03125 L 57.670923,-18.206421 64.875,-28.21875 c 0.451709,-0.694305 1.205096,-0.944024 2.125,-0.875 0.919904,0.06902 1.977646,0.469862 2.90625,1.0625 0.928604,0.592638 1.749883,1.379941 2.1875,2.1875 0.437617,0.807559 0.50614,1.613815 0.03125,2.34375 L 65.833635,-12.745121 72.40625,-23.3125 c 0.532004,-0.84185 0.472677,-1.815241 0,-2.6875 -0.477832,-0.881771 -1.343139,-1.693852 -2.3125,-2.3125 -0.969361,-0.618648 -2.061654,-1.049903 -3.0625,-1.125 z"
         style="font-size:medium;font-style:normal;font-variant:normal;font-weight:normal;font-stretch:normal;text-indent:0;text-align:start;text-decoration:none;line-height:normal;letter-spacing:normal;word-spacing:normal;text-transform:none;direction:ltr;block-progression:tb;writing-mode:lr-tb;text-anchor:start;baseline-shift:baseline;color:#000000;fill:#000000;fill-opacity:1;stroke:none;stroke-width:0.35433072;marker:none;visibility:visible;display:inline;overflow:visible;enable-background:accumulate;font-family:Sans;-inkscape-font-specification:Sans" />
      <path
         inkscape:connector-curvature="0"
         sodipodi:nodetypes="ccccc"
         id="path5629"
         d="m 26.882776,30.061298 c -5.142607,6.375504 -7.815109,14.413886 -7.697852,21.94839 l 2.159764,1.40512 c 6.935715,-2.9459 13.201637,-8.646422 16.946397,-15.931355 -1.364019,-4.024825 -7.191868,-7.983318 -11.408309,-7.422155 z"
         style="fill:#fefefe;fill-opacity:1;fill-rule:evenodd;stroke:none" />
      <path
         transform="matrix(0.62902695,0.40923987,-0.30907626,0.47506929,-1718.7017,-358.08086)"
         d="m 2242.6875,-1065.7003 c 0,0.466 -0.7555,0.8437 -1.6875,0.8437 -0.932,0 -1.6875,-0.3777 -1.6875,-0.8437 0,-0.466 0.7555,-0.8438 1.6875,-0.8438 0.932,0 1.6875,0.3778 1.6875,0.8438 z"
         sodipodi:ry="0.84375"
         sodipodi:rx="1.6875"
         sodipodi:cy="-1065.7003"
         sodipodi:cx="2241"
         id="path5639"
         style="fill:#000000;fill-opacity:1;fill-rule:nonzero;stroke:none"
         sodipodi:type="arc" />
      <path
         inkscape:connector-curvature="0"
         clip-path="none"
         sodipodi:nodetypes="cccc"
         id="path5709"
         d="m 36.999999,33.627239 c -0.49802,1.515125 -9.005622,14.16843 -18.152444,21.089212 8.848094,-4.329523 14.584009,-9.842603 20.345244,-19.872268 -0.913106,-0.240027 0.167627,-1.519658 -2.1928,-1.216944 z"
         style="opacity:0.68115946;fill:#2b2b2b;fill-opacity:1;fill-rule:evenodd;stroke:none" />
      <path
         inkscape:connector-curvature="0"
         transform="matrix(0.47506929,0.30907626,-0.30907626,0.47506929,-1459.9156,-189.85198)"
         clip-path="url(#clipPath5899-0)"
         id="path5779"
         d="m 2422.5312,-1109.6875 c -5.3743,0 -10.0363,1.4997 -12.3124,3.7187 l 0,0.1876 -0.125,0 0,1.4062 0.125,0 0,-0.1875 c 2.2761,-2.2189 6.9381,-3.7187 12.3124,-3.7187 5.3746,-1e-4 10.0366,1.4996 12.3126,3.7187 l 0,0.1875 0.125,0 0,-1.4062 -0.125,0 0,-0.1876 c -2.276,-2.2191 -6.938,-3.7187 -12.3126,-3.7187 z"
         style="fill:#000000;fill-opacity:1;fill-rule:nonzero;stroke:none" />
      <path
         inkscape:connector-curvature="0"
         id="path5905"
         d="m 33.652428,32.049733 c -2.154454,-1.422632 -4.663999,-2.277747 -6.772224,-1.997164 -0.03349,0.04109 -0.06855,0.08251 -0.101667,0.124056 4.260417,-0.405715 9.993209,3.540295 11.354039,7.555885 -0.461537,0.897936 -0.959796,1.771981 -1.493431,2.620374 0.593672,-0.923942 1.151474,-1.888054 1.657642,-2.872779 -0.682022,-2.012391 -2.489775,-4.007726 -4.64426,-5.430311 z"
         style="fill:#fefefe;fill-opacity:0.64024389;fill-rule:evenodd;stroke:none" />
      <path
         inkscape:connector-curvature="0"
         sodipodi:nodetypes="cccccscccccc"
         style="fill:url(#linearGradient3214);fill-opacity:1;fill-rule:nonzero;stroke:none"
         d="m 18.58458,54.907307 0.370835,-1.39583 0.992453,-1.525445 0.0058,0.0038 -0.0038,0.0048 c 0.158314,0.0759 0.362871,0.17454 0.623991,0.34104 0.277002,0.180229 0.426504,0.30183 0.565593,0.432885 l 0.0038,-0.0048 0.0058,0.0038 -1.03272,1.58735 -1.146029,0.792382 c -0.107145,-0.02979 -0.321363,-0.182718 -0.386459,-0.240626 z"
         id="path6364" />
      <path
         inkscape:connector-curvature="0"
         id="path6406"
         d="m 20.62747,52.308097 c -0.585952,-0.381223 -1.185701,-0.515899 -1.329669,-0.294614 -0.107933,0.165941 0.08004,0.472575 0.421422,0.781285 -0.236494,-0.234314 -0.348987,-0.470453 -0.267087,-0.596349 0.119653,-0.183698 0.601863,-0.0733 1.088428,0.243259 0.486614,0.316589 0.782995,0.712732 0.663442,0.896486 -0.08186,0.125896 -0.343385,0.118742 -0.65342,-0.0028 0.420547,0.186994 0.762251,0.224974 0.870208,0.05899 0.143969,-0.221285 -0.207363,-0.705381 -0.793324,-1.086594 z"
         style="fill:#000000;fill-opacity:1;fill-rule:nonzero;stroke:none" />
      <path
         inkscape:connector-curvature="0"
         sodipodi:nodetypes="ccccc"
         id="path5705-9"
         d="m 26.930318,30.092238 c -5.142605,6.375501 -7.815104,14.413882 -7.697853,21.948389 l 0.909724,0.0076 c 0.398518,-4.532171 4.359996,-13.544574 10.15176,-21.621889 -0.835754,-0.327016 -1.920541,-0.631168 -3.363631,-0.334132 z"
         style="fill:url(#linearGradient3216);fill-opacity:1;fill-rule:evenodd;stroke:none" />
      <path
         inkscape:connector-curvature="0"
         sodipodi:nodetypes="cccccscccccc"
         id="rect4757"
         d="m 62.837252,-17.141801 c -2.284034,-1.485984 -4.678447,-2.125011 -6.259244,-1.811306 l -29.457585,48.785664 0.05938,0.03863 0.05803,-0.08906 c 1.704482,-0.338245 4.289414,0.360775 6.752181,1.963017 2.462755,1.602262 4.149298,3.682163 4.530713,5.377545 l -0.05793,0.08906 0.05938,0.03863 28.507437,-49.403822 c -0.353771,-1.572322 -1.908243,-3.502394 -4.192277,-4.988377 l -5.8e-5,1.9e-5 z"
         style="fill:url(#linearGradient3218);fill-opacity:1;fill-rule:nonzero;stroke:none" />
      <path
         inkscape:connector-curvature="0"
         id="path5607"
         d="m 62.603208,-16.814481 c -2.318249,-1.508236 -4.74828,-2.156843 -6.352617,-1.838439 l -0.245141,0.376773 c 1.604394,-0.318451 4.034473,0.330069 6.352693,1.838353 2.318097,1.50813 3.89577,3.466969 4.254846,5.062821 l 0.245132,-0.376773 c -0.359114,-1.595805 -1.936817,-3.554595 -4.254913,-5.062735 z"
         style="opacity:0.80273976;fill:#000000;fill-opacity:1;fill-rule:nonzero;stroke:none" />
      <path
         inkscape:connector-curvature="0"
         sodipodi:nodetypes="cccscc"
         id="path5947"
         d="M 56.060593,-17.781646 37.173256,10.393088 c -0.258119,0.529047 -0.04323,0.669124 0.726488,0.353103 5.784286,-4.5091699 12.148841,-17.751358 19.445926,-27.86859 0.193741,-0.268691 0.715197,-0.934265 1.100816,-1.0195 -0.945168,-0.225252 -1.57927,0.17582 -2.385893,0.360253 z"
         style="opacity:0.39613528;fill:#000000;fill-opacity:1;fill-rule:evenodd;stroke:none" />
      <path
         inkscape:connector-curvature="0"
         sodipodi:nodetypes="cssssssc"
         id="path5936"
         d="m 59.284262,-18.046282 c -0.608041,-0.06063 -0.809561,-0.109282 -1.445706,-0.167181 -0.190673,-0.01729 -0.851617,0.08705 -1.25929,0.624778 -8.754198,11.5468681 -15.576575,27.0515846 -19.659069,28.266244 -0.847821,0.252222 -1.757615,0.407327 -1.389787,-0.397075 5.733497,-12.5385905 16.792378,-26.088715 18.69057,-28.639203 0.278952,-0.374707 0.991271,-0.432798 1.404161,-0.419433 1.297069,0.04208 2.560028,0.325543 3.659025,0.731813 z"
         style="fill:url(#radialGradient3220);fill-opacity:1;fill-rule:evenodd;stroke:none" />
      <path
         inkscape:connector-curvature="0"
         id="path6110"
         d="m 49.956814,-11.483118 c -0.04395,-0.03535 -0.101187,-0.05907 -0.16793,-0.06666 C 41.340548,3.6092976 37.384015,8.3290606 37.384015,8.3290606 c 0.895743,-2.221441 8.4782,-14.2774137 11.295998,-18.5920196 -0.746964,0.133995 -12.835497,19.2150242 -13.039335,20.773194 -0.02643,0.202017 0.478255,0.126357 0.599184,-0.01157 4.076229,-4.6495301 14.90381,-21.065835 13.716829,-21.981556 l 1.23e-4,-1.9e-4 z"
         style="fill:url(#linearGradient3222);fill-opacity:1;fill-rule:evenodd;stroke:none"
         sodipodi:nodetypes="ccccsscc" />
      <path
         inkscape:connector-curvature="0"
         sodipodi:nodetypes="cscsc"
         id="path6153"
         d="m 56.689881,-18.449481 c 0,0 -1.411954,-0.192351 -1.746442,0.216082 -3.218228,3.929881 -8.068777,14.7268841 -8.068777,14.7268841 0,0 5.852989,-10.9065091 9.47672,-14.6889381 0.08798,-0.09158 0.225666,-0.169352 0.338499,-0.254028 z"
         style="fill:url(#linearGradient3224);fill-opacity:1;fill-rule:evenodd;stroke:none" />
    </g>
  </g>
</svg>
