<?xml version="1.0" encoding="UTF-8" standalone="no"?>
<!-- Created with Inkscape (http://www.inkscape.org/) -->

<svg
   xmlns:dc="http://purl.org/dc/elements/1.1/"
   xmlns:cc="http://creativecommons.org/ns#"
   xmlns:rdf="http://www.w3.org/1999/02/22-rdf-syntax-ns#"
   xmlns:svg="http://www.w3.org/2000/svg"
   xmlns="http://www.w3.org/2000/svg"
   xmlns:xlink="http://www.w3.org/1999/xlink"
   xmlns:sodipodi="http://sodipodi.sourceforge.net/DTD/sodipodi-0.dtd"
   xmlns:inkscape="http://www.inkscape.org/namespaces/inkscape"
   width="96"
   height="96"
   id="svg10212"
   sodipodi:version="0.32"
   inkscape:version="0.48.4 r9939"
   version="1.0"
   sodipodi:docname="applications-video.svg"
   inkscape:output_extension="org.inkscape.output.svg.inkscape">
  <defs
     id="defs10214">
    <radialGradient
       id="radialGradient11304"
       cx="308.4458"
       cy="-306.1936"
       r="108.3108"
       gradientTransform="matrix(0.95,0,0,-0.95,-282.3963,-266.2798)"
       gradientUnits="userSpaceOnUse">
      <stop
         offset="0"
         style="stop-color:#4B4A57"
         id="stop11306" />
      <stop
         offset="1"
         style="stop-color:#000000"
         id="stop11308" />
    </radialGradient>
    <linearGradient
       id="linearGradient6475">
      <stop
         style="stop-color:#7b7b7b;stop-opacity:1;"
         offset="0"
         id="stop6477" />
      <stop
         style="stop-color:#a8a8a8;stop-opacity:1;"
         offset="1"
         id="stop6479" />
    </linearGradient>
    <radialGradient
       gradientUnits="userSpaceOnUse"
       gradientTransform="matrix(0.95,0,0,-0.95,-282.3963,-266.2798)"
       r="108.2344"
       cy="-306.1936"
       cx="308.47711"
       id="radialGradient3233">
      <stop
         id="stop3235"
         style="stop-color:#4B4A57"
         offset="0" />
      <stop
         id="stop3237"
         style="stop-color:#000000"
         offset="1" />
    </radialGradient>
    <linearGradient
       id="XMLID_50_"
       gradientUnits="userSpaceOnUse"
       x1="54.9575"
       y1="48.237999"
       x2="193.95799"
       y2="149.9045">
      <stop
         offset="0"
         style="stop-color:#FFFFFF"
         id="stop2678" />
      <stop
         offset="1"
         style="stop-color:#A4C0E4"
         id="stop2680" />
    </linearGradient>
    <linearGradient
       id="XMLID_49_"
       gradientUnits="userSpaceOnUse"
       x1="65.852997"
       y1="33.341599"
       x2="204.8535"
       y2="135.0081">
      <stop
         offset="0"
         style="stop-color:#FFFFFF"
         id="stop2669" />
      <stop
         offset="1"
         style="stop-color:#A4C0E4"
         id="stop2671" />
    </linearGradient>
    <linearGradient
       id="XMLID_48_"
       gradientUnits="userSpaceOnUse"
       x1="51.945301"
       y1="52.356701"
       x2="190.9458"
       y2="154.02319">
      <stop
         offset="0"
         style="stop-color:#FFFFFF"
         id="stop2660" />
      <stop
         offset="1"
         style="stop-color:#A4C0E4"
         id="stop2662" />
    </linearGradient>
    <linearGradient
       id="XMLID_47_"
       gradientUnits="userSpaceOnUse"
       x1="43.378399"
       y1="64.069603"
       x2="182.37891"
       y2="165.7361">
      <stop
         offset="0"
         style="stop-color:#FFFFFF"
         id="stop2651" />
      <stop
         offset="1"
         style="stop-color:#A4C0E4"
         id="stop2653" />
    </linearGradient>
    <linearGradient
       id="XMLID_46_"
       gradientUnits="userSpaceOnUse"
       x1="41.997101"
       y1="65.957298"
       x2="180.9976"
       y2="167.62379">
      <stop
         offset="0"
         style="stop-color:#FFFFFF"
         id="stop2642" />
      <stop
         offset="1"
         style="stop-color:#A4C0E4"
         id="stop2644" />
    </linearGradient>
    <linearGradient
       id="XMLID_45_"
       gradientUnits="userSpaceOnUse"
       x1="45.809101"
       y1="60.7463"
       x2="184.8096"
       y2="162.4128">
      <stop
         offset="0"
         style="stop-color:#FFFFFF"
         id="stop2633" />
      <stop
         offset="1"
         style="stop-color:#A4C0E4"
         id="stop2635" />
    </linearGradient>
    <linearGradient
       id="XMLID_44_"
       gradientUnits="userSpaceOnUse"
       x1="54.420399"
       y1="48.972401"
       x2="193.4209"
       y2="150.6389">
      <stop
         offset="0"
         style="stop-color:#FFFFFF"
         id="stop2624" />
      <stop
         offset="1"
         style="stop-color:#A4C0E4"
         id="stop2626" />
    </linearGradient>
    <linearGradient
       id="XMLID_43_"
       gradientUnits="userSpaceOnUse"
       x1="66.608398"
       y1="32.309299"
       x2="205.6089"
       y2="133.9758">
      <stop
         offset="0"
         style="stop-color:#FFFFFF"
         id="stop2615" />
      <stop
         offset="1"
         style="stop-color:#A4C0E4"
         id="stop2617" />
    </linearGradient>
    <linearGradient
       id="XMLID_36_"
       gradientUnits="userSpaceOnUse"
       x1="382.21729"
       y1="-305.7478"
       x2="382.21729"
       y2="-303.53589"
       gradientTransform="matrix(1,0,0,-1,-290,-266.4741)">
      <stop
         offset="0"
         style="stop-color:black;stop-opacity:0;"
         id="stop2530" />
      <stop
         offset="1"
         style="stop-color:#000000"
         id="stop2532" />
    </linearGradient>
    <radialGradient
       id="XMLID_34_"
       cx="308.4458"
       cy="-306.1936"
       r="108.3081"
       gradientTransform="matrix(0.95,0,0,-0.95,-282.3963,-266.2798)"
       gradientUnits="userSpaceOnUse">
      <stop
         offset="0"
         style="stop-color:#4B4A57"
         id="stop2516" />
      <stop
         offset="1"
         style="stop-color:#000000"
         id="stop2518" />
    </radialGradient>
    <radialGradient
       id="XMLID_33_"
       cx="308.48099"
       cy="-306.1936"
       r="108.2639"
       gradientTransform="matrix(0.95,0,0,-0.95,-282.3963,-266.2798)"
       gradientUnits="userSpaceOnUse">
      <stop
         offset="0"
         style="stop-color:#4B4A57"
         id="stop2509" />
      <stop
         offset="1"
         style="stop-color:#000000"
         id="stop2511" />
    </radialGradient>
    <radialGradient
       id="XMLID_32_"
       cx="308.4458"
       cy="-306.1936"
       r="108.3108"
       gradientTransform="matrix(0.95,0,0,-0.95,-282.3963,-266.2798)"
       gradientUnits="userSpaceOnUse">
      <stop
         offset="0"
         style="stop-color:#4B4A57"
         id="stop2502" />
      <stop
         offset="1"
         style="stop-color:#000000"
         id="stop2504" />
    </radialGradient>
    <filter
       inkscape:collect="always"
       id="filter8086"
       color-interpolation-filters="sRGB">
      <feGaussianBlur
         inkscape:collect="always"
         stdDeviation="0.47881728"
         id="feGaussianBlur8088" />
    </filter>
    <radialGradient
       id="XMLID_29_"
       cx="357.5249"
       cy="-322.54471"
       r="125.8389"
       gradientTransform="matrix(0.95,0,0,-0.8769,-282.3963,-263.2589)"
       gradientUnits="userSpaceOnUse">
      <stop
         offset="0"
         style="stop-color:#4B4A57"
         id="stop2479" />
      <stop
         offset="0.7396"
         style="stop-color:#000000"
         id="stop2481" />
    </radialGradient>
    <filter
       inkscape:collect="always"
       x="-0.058450524"
       width="1.116901"
       y="-0.53556991"
       height="2.0711398"
       id="filter4491"
       color-interpolation-filters="sRGB">
      <feGaussianBlur
         inkscape:collect="always"
         stdDeviation="2.3989068"
         id="feGaussianBlur4493" />
    </filter>
    <radialGradient
       id="XMLID_35_"
       cx="308.42529"
       cy="-306.1936"
       r="108.3234"
       gradientTransform="matrix(0.95,0,0,-0.95,-282.3963,-266.2798)"
       gradientUnits="userSpaceOnUse">
      <stop
         offset="0"
         style="stop-color:#4B4A57"
         id="stop2523" />
      <stop
         offset="1"
         style="stop-color:#000000"
         id="stop2525" />
    </radialGradient>
    <linearGradient
       id="XMLID_30_"
       gradientUnits="userSpaceOnUse"
       x1="377.70169"
       y1="-287.93329"
       x2="398.60251"
       y2="-342.19479"
       gradientTransform="matrix(1,0,0,-1,-290,-266.4741)">
      <stop
         offset="0"
         style="stop-color:#FFFFFF"
         id="stop2486" />
      <stop
         offset="1"
         style="stop-color:#A4C0E4"
         id="stop2488" />
    </linearGradient>
    <filter
       inkscape:collect="always"
       x="-0.038294856"
       width="1.0765897"
       y="-0.14214528"
       height="1.2842906"
       id="filter4096"
       color-interpolation-filters="sRGB">
      <feGaussianBlur
         inkscape:collect="always"
         stdDeviation="1.3715046"
         id="feGaussianBlur4098" />
    </filter>
    <linearGradient
       inkscape:collect="always"
       xlink:href="#XMLID_30_"
       id="linearGradient3682"
       gradientUnits="userSpaceOnUse"
       gradientTransform="matrix(1.0476514,0,0,-1.0499158,-323.71867,-277.82986)"
       x1="391.50293"
       y1="-305.59418"
       x2="391.88132"
       y2="-289.66342" />
    <linearGradient
       inkscape:collect="always"
       xlink:href="#XMLID_35_"
       id="linearGradient3684"
       gradientUnits="userSpaceOnUse"
       x1="90.531364"
       y1="40.26984"
       x2="90.516449"
       y2="25.827988" />
    <linearGradient
       inkscape:collect="always"
       xlink:href="#XMLID_35_"
       id="linearGradient3686"
       gradientUnits="userSpaceOnUse"
       x1="90.531364"
       y1="40.26984"
       x2="90.516449"
       y2="25.827988" />
    <linearGradient
       inkscape:collect="always"
       xlink:href="#XMLID_35_"
       id="linearGradient3688"
       gradientUnits="userSpaceOnUse"
       x1="90.531364"
       y1="40.26984"
       x2="90.516449"
       y2="25.827988" />
    <linearGradient
       inkscape:collect="always"
       xlink:href="#XMLID_35_"
       id="linearGradient3690"
       gradientUnits="userSpaceOnUse"
       x1="90.531364"
       y1="40.26984"
       x2="90.516449"
       y2="25.827988" />
    <linearGradient
       inkscape:collect="always"
       xlink:href="#XMLID_35_"
       id="linearGradient3692"
       gradientUnits="userSpaceOnUse"
       x1="90.531364"
       y1="40.26984"
       x2="90.516449"
       y2="25.827988" />
    <radialGradient
       inkscape:collect="always"
       xlink:href="#XMLID_29_"
       id="radialGradient3694"
       gradientUnits="userSpaceOnUse"
       gradientTransform="matrix(0.9643499,0,0,-0.8769,-302.37393,-259.25886)"
       cx="357.5249"
       cy="-322.54471"
       r="125.8389" />
    <linearGradient
       inkscape:collect="always"
       xlink:href="#XMLID_30_"
       id="linearGradient3696"
       gradientUnits="userSpaceOnUse"
       gradientTransform="matrix(1.0151052,0,0,-1.0473946,-310.09248,-278.13361)"
       x1="377.70169"
       y1="-287.93329"
       x2="398.60251"
       y2="-342.19479" />
    <radialGradient
       inkscape:collect="always"
       xlink:href="#XMLID_32_"
       id="radialGradient3698"
       gradientUnits="userSpaceOnUse"
       gradientTransform="matrix(0.95,0,0,-0.95,-282.3963,-266.2798)"
       cx="308.4458"
       cy="-306.1936"
       r="108.3108" />
    <radialGradient
       inkscape:collect="always"
       xlink:href="#XMLID_33_"
       id="radialGradient3700"
       gradientUnits="userSpaceOnUse"
       gradientTransform="matrix(0.95,0,0,-0.95,-282.3963,-266.2798)"
       cx="308.48099"
       cy="-306.1936"
       r="108.2639" />
    <radialGradient
       inkscape:collect="always"
       xlink:href="#XMLID_34_"
       id="radialGradient3702"
       gradientUnits="userSpaceOnUse"
       gradientTransform="matrix(0.95,0,0,-0.95,-282.3963,-266.2798)"
       cx="308.4458"
       cy="-306.1936"
       r="108.3081" />
    <radialGradient
       inkscape:collect="always"
       xlink:href="#XMLID_35_"
       id="radialGradient3704"
       gradientUnits="userSpaceOnUse"
       gradientTransform="matrix(0.95,0,0,-0.95,-282.3963,-266.2798)"
       cx="308.42529"
       cy="-306.1936"
       r="108.3234" />
    <linearGradient
       inkscape:collect="always"
       xlink:href="#XMLID_36_"
       id="linearGradient3706"
       gradientUnits="userSpaceOnUse"
       gradientTransform="matrix(1.0151052,0,0,-1.3562388,-310.09248,-371.66737)"
       x1="382.21729"
       y1="-305.7478"
       x2="382.21729"
       y2="-303.53589" />
    <linearGradient
       inkscape:collect="always"
       xlink:href="#XMLID_43_"
       id="linearGradient3708"
       gradientUnits="userSpaceOnUse"
       x1="66.608398"
       y1="32.309299"
       x2="205.6089"
       y2="133.9758" />
    <linearGradient
       inkscape:collect="always"
       xlink:href="#XMLID_44_"
       id="linearGradient3710"
       gradientUnits="userSpaceOnUse"
       x1="54.420399"
       y1="48.972401"
       x2="193.4209"
       y2="150.6389" />
    <linearGradient
       inkscape:collect="always"
       xlink:href="#XMLID_45_"
       id="linearGradient3712"
       gradientUnits="userSpaceOnUse"
       x1="45.809101"
       y1="60.7463"
       x2="184.8096"
       y2="162.4128" />
    <linearGradient
       inkscape:collect="always"
       xlink:href="#XMLID_46_"
       id="linearGradient3714"
       gradientUnits="userSpaceOnUse"
       x1="41.997101"
       y1="65.957298"
       x2="180.9976"
       y2="167.62379" />
    <linearGradient
       inkscape:collect="always"
       xlink:href="#XMLID_47_"
       id="linearGradient3716"
       gradientUnits="userSpaceOnUse"
       x1="43.378399"
       y1="64.069603"
       x2="182.37891"
       y2="165.7361" />
    <linearGradient
       inkscape:collect="always"
       xlink:href="#XMLID_48_"
       id="linearGradient3718"
       gradientUnits="userSpaceOnUse"
       x1="51.945301"
       y1="52.356701"
       x2="190.9458"
       y2="154.02319" />
    <linearGradient
       inkscape:collect="always"
       xlink:href="#XMLID_49_"
       id="linearGradient3720"
       gradientUnits="userSpaceOnUse"
       x1="65.852997"
       y1="33.341599"
       x2="204.8535"
       y2="135.0081" />
    <linearGradient
       inkscape:collect="always"
       xlink:href="#XMLID_50_"
       id="linearGradient3722"
       gradientUnits="userSpaceOnUse"
       x1="54.9575"
       y1="48.237999"
       x2="193.95799"
       y2="149.9045" />
    <linearGradient
       inkscape:collect="always"
       xlink:href="#radialGradient3233"
       id="linearGradient3724"
       gradientUnits="userSpaceOnUse"
       gradientTransform="matrix(0.8605517,0,0,0.9937136,6.1357198,0.2766044)"
       x1="35.889088"
       y1="24"
       x2="35.868271"
       y2="44" />
    <linearGradient
       inkscape:collect="always"
       xlink:href="#linearGradient6475"
       id="linearGradient3726"
       gradientUnits="userSpaceOnUse"
       x1="3.75"
       y1="18"
       x2="8"
       y2="18" />
    <linearGradient
       inkscape:collect="always"
       xlink:href="#radialGradient11304"
       id="linearGradient3728"
       gradientUnits="userSpaceOnUse"
       x1="39.882687"
       y1="-16.810888"
       x2="41.882687"
       y2="-16.810888" />
    <linearGradient
       inkscape:collect="always"
       xlink:href="#linearGradient6475"
       id="linearGradient3730"
       gradientUnits="userSpaceOnUse"
       x1="3.75"
       y1="18"
       x2="8"
       y2="18" />
    <linearGradient
       inkscape:collect="always"
       xlink:href="#radialGradient11304"
       id="linearGradient3732"
       gradientUnits="userSpaceOnUse"
       x1="28.557367"
       y1="45.063515"
       x2="30.557367"
       y2="45.063515" />
    <linearGradient
       inkscape:collect="always"
       xlink:href="#linearGradient6475"
       id="linearGradient3734"
       gradientUnits="userSpaceOnUse"
       x1="3.75"
       y1="18"
       x2="8"
       y2="18" />
    <linearGradient
       inkscape:collect="always"
       xlink:href="#radialGradient11304"
       id="linearGradient3736"
       gradientUnits="userSpaceOnUse"
       x1="5.6526489"
       y1="57.60675"
       x2="7.6526489"
       y2="57.60675" />
  </defs>
  <sodipodi:namedview
     id="base"
     pagecolor="#ffffff"
     bordercolor="#666666"
     borderopacity="1.0"
     inkscape:pageopacity="0.0"
     inkscape:pageshadow="2"
     inkscape:zoom="4"
     inkscape:cx="48"
     inkscape:cy="48"
     inkscape:document-units="px"
     inkscape:current-layer="layer1"
     width="128px"
     height="128px"
     inkscape:window-width="999"
     inkscape:window-height="717"
     inkscape:window-x="0"
     inkscape:window-y="25"
     showgrid="false"
     inkscape:window-maximized="0"
     fit-margin-top="0"
     fit-margin-left="0"
     fit-margin-right="0"
     fit-margin-bottom="0" />
  <metadata
     id="metadata10217">
    <rdf:RDF>
      <cc:Work
         rdf:about="">
        <dc:format>image/svg+xml</dc:format>
        <dc:type
           rdf:resource="http://purl.org/dc/dcmitype/StillImage" />
        <dc:title />
      </cc:Work>
    </rdf:RDF>
  </metadata>
  <g
     inkscape:label="Livello 1"
     inkscape:groupmode="layer"
     id="layer1"
     transform="translate(0,-32)">
    <g
       id="g3252"
       transform="matrix(0.75,0,0,0.75,-10.499999,34.842982)">
      <g
         transform="matrix(-0.964943,0.2624597,0.2624597,0.964943,141.25422,-39.142726)"
         id="g3274">
        <path
           sodipodi:nodetypes="csssc"
           id="path3331"
           d="m 125,28.75 c 0,1.104 -33.931995,2.23969 -58.426995,2.23969 C 42.078005,30.98969 36.25,29.854 36.25,28.75 c 0,-1.104 5.828005,-1.76031 30.323005,-1.76031 C 91.068005,26.98969 125,27.646 125,28.75 z"
           style="opacity:0.7;fill:#000000;fill-opacity:1;fill-rule:evenodd;stroke:none;filter:url(#filter4096)"
           transform="matrix(-1.0703794,0.01405904,0.00227256,1.0499572,162.78332,9.1112027)"
           inkscape:connector-curvature="0" />
        <rect
           transform="matrix(0.9999644,-0.00844007,-0.00868976,0.9999622,0,0)"
           id="rect3229"
           height="8.0192566"
           width="94.949684"
           y="33.050278"
           x="29.341936"
           style="fill:url(#linearGradient3682);fill-opacity:1" />
        <polygon
           transform="matrix(1.0476141,-0.00884225,-0.00912232,1.0497387,-19.916008,2.117426)"
           style="fill:url(#linearGradient3684);fill-opacity:1"
           points="50.418,29.628 50.418,29.626 47.002,29.626 47.002,37.265 47.002,37.265 47.136,37.265 "
           id="polygon3239" />
        <polygon
           transform="matrix(1.0476141,-0.00884225,-0.00912232,1.0497387,-19.916008,2.117426)"
           style="fill:url(#linearGradient3686);fill-opacity:1"
           points="63.815,37.265 71.045,37.265 74.331,29.628 74.331,29.626 67.099,29.626 67.099,29.628 67.099,29.628 "
           id="polygon3247" />
        <polygon
           transform="matrix(1.0476141,-0.00884225,-0.00912232,1.0497387,-19.916008,2.117426)"
           style="fill:url(#linearGradient3688);fill-opacity:1"
           points="87.399,37.265 94.629,37.265 97.909,29.628 97.909,29.626 90.683,29.626 90.683,29.628 90.683,29.628 "
           id="polygon3255" />
        <polygon
           transform="matrix(1.0476141,-0.00884225,-0.00912232,1.0497387,-19.916008,2.117426)"
           style="fill:url(#linearGradient3690);fill-opacity:1"
           points="111.159,37.265 118.392,37.265 121.674,29.628 121.674,29.626 114.44,29.626 114.44,29.628 114.44,29.628 "
           id="polygon3263" />
        <polygon
           transform="matrix(1.0476141,-0.00884225,-0.00912232,1.0497387,-19.916008,2.117426)"
           style="fill:url(#linearGradient3692);fill-opacity:1"
           points="137.633,37.265 137.633,29.626 137.504,29.626 137.504,29.628 137.504,29.628 134.22,37.265 "
           id="polygon3272" />
        <path
           transform="matrix(-0.9012664,0.24514,0.1953189,0.7180972,145.05203,26.272493)"
           d="m 124,117.875 c 0,2.96853 -22.04998,5.375 -49.25,5.375 -27.200024,0 -49.25,-2.40647 -49.25,-5.375 0,-2.96853 22.049976,-5.375 49.25,-5.375 27.20002,0 49.25,2.40647 49.25,5.375 z"
           sodipodi:ry="5.375"
           sodipodi:rx="49.25"
           sodipodi:cy="117.875"
           sodipodi:cx="74.75"
           id="path4102"
           style="opacity:0.7;fill:#000000;fill-opacity:1;fill-rule:evenodd;stroke:none;filter:url(#filter4491)"
           sodipodi:type="arc" />
      </g>
      <rect
         id="rect2483"
         height="72.344002"
         width="91.999992"
         y="39.655987"
         x="32.000004"
         style="fill:url(#radialGradient3694)" />
      <rect
         id="rect2490"
         height="8"
         width="91.999992"
         y="32.000011"
         x="32.000004"
         style="fill:url(#linearGradient3696)" />
      <path
         style="opacity:0.5;fill:#000000;fill-opacity:1;fill-rule:evenodd;stroke:none;filter:url(#filter8086)"
         d="m 40.148251,32.125724 7.79261,1.81214 -9.79261,10.06214 -2.14825,-0.04994 0,-11.95006 4.14825,0.12572 z"
         id="path7697"
         sodipodi:nodetypes="cccccc"
         inkscape:connector-curvature="0" />
      <g
         id="g2492"
         transform="matrix(1.0151052,0,0,1.0472575,-15.71198,0.9739544)">
        <radialGradient
           gradientUnits="userSpaceOnUse"
           gradientTransform="matrix(0.95,0,0,-0.95,-282.3963,-266.2798)"
           r="108.2344"
           cy="-306.1936"
           cx="308.47711"
           id="radialGradient11297">
          <stop
             id="stop11299"
             style="stop-color:#4B4A57"
             offset="0" />
          <stop
             id="stop11301"
             style="stop-color:#000000"
             offset="1" />
        </radialGradient>
        <radialGradient
           gradientUnits="userSpaceOnUse"
           gradientTransform="matrix(0.95,0,0,-0.95,-282.3963,-266.2798)"
           r="108.3108"
           cy="-306.1936"
           cx="308.4458"
           id="radialGradient10395">
          <stop
             id="stop10397"
             style="stop-color:#4B4A57"
             offset="0" />
          <stop
             id="stop10399"
             style="stop-color:#000000"
             offset="1" />
        </radialGradient>
        <polygon
           id="polygon2506"
           points="63.815,37.265 71.045,37.265 74.331,29.628 74.331,29.626 67.099,29.626 67.099,29.628 67.099,29.628 "
           style="fill:url(#radialGradient3698)" />
        <radialGradient
           gradientUnits="userSpaceOnUse"
           gradientTransform="matrix(0.95,0,0,-0.95,-282.3963,-266.2798)"
           r="108.2639"
           cy="-306.1936"
           cx="308.48099"
           id="radialGradient11311">
          <stop
             id="stop11313"
             style="stop-color:#4B4A57"
             offset="0" />
          <stop
             id="stop11315"
             style="stop-color:#000000"
             offset="1" />
        </radialGradient>
        <polygon
           id="polygon2513"
           points="87.399,37.265 94.629,37.265 97.909,29.628 97.909,29.626 90.683,29.626 90.683,29.628 90.683,29.628 "
           style="fill:url(#radialGradient3700)" />
        <radialGradient
           gradientUnits="userSpaceOnUse"
           gradientTransform="matrix(0.95,0,0,-0.95,-282.3963,-266.2798)"
           r="108.3081"
           cy="-306.1936"
           cx="308.4458"
           id="radialGradient11318">
          <stop
             id="stop11320"
             style="stop-color:#4B4A57"
             offset="0" />
          <stop
             id="stop11322"
             style="stop-color:#000000"
             offset="1" />
        </radialGradient>
        <polygon
           id="polygon2520"
           points="111.159,37.265 118.392,37.265 121.674,29.628 121.674,29.626 114.44,29.626 114.44,29.628 114.44,29.628 "
           style="fill:url(#radialGradient3702)" />
        <radialGradient
           gradientUnits="userSpaceOnUse"
           gradientTransform="matrix(0.95,0,0,-0.95,-282.3963,-266.2798)"
           r="108.3234"
           cy="-306.1936"
           cx="308.42529"
           id="radialGradient11325">
          <stop
             id="stop11327"
             style="stop-color:#4B4A57"
             offset="0" />
          <stop
             id="stop11329"
             style="stop-color:#000000"
             offset="1" />
        </radialGradient>
        <polygon
           id="polygon2527"
           points="137.633,37.265 137.633,29.626 137.504,29.626 137.504,29.628 137.504,29.628 134.22,37.265 "
           style="fill:url(#radialGradient3704)" />
      </g>
      <rect
         id="rect2534"
         height="3"
         width="91.794945"
         y="40.000011"
         x="32.000004"
         style="fill:url(#linearGradient3706)" />
      <rect
         id="rect2536"
         height="2"
         width="91.999992"
         enable-background="new    "
         y="32.000011"
         x="32.000004"
         style="opacity:0.2;fill:#ffffff" />
      <g
         transform="matrix(1.0151052,0,0,1,-15.71198,3.8860044)"
         id="g2612">
        <linearGradient
           id="linearGradient11376"
           gradientUnits="userSpaceOnUse"
           x1="66.608398"
           y1="32.309299"
           x2="205.6089"
           y2="133.9758">
          <stop
             offset="0"
             style="stop-color:#FFFFFF"
             id="stop11378" />
          <stop
             offset="1"
             style="stop-color:#A4C0E4"
             id="stop11380" />
        </linearGradient>
        <rect
           style="fill:url(#linearGradient3708)"
           x="47.001999"
           y="50.113998"
           width="90.630997"
           height="2"
           id="rect2619" />
      </g>
      <g
         transform="matrix(1.0151052,0,0,1,-15.71198,4.3089944)"
         id="g2621">
        <linearGradient
           id="linearGradient11384"
           gradientUnits="userSpaceOnUse"
           x1="54.420399"
           y1="48.972401"
           x2="193.4209"
           y2="150.6389">
          <stop
             offset="0"
             style="stop-color:#FFFFFF"
             id="stop11386" />
          <stop
             offset="1"
             style="stop-color:#A4C0E4"
             id="stop11388" />
        </linearGradient>
        <rect
           style="fill:url(#linearGradient3710)"
           x="47.001999"
           y="75.691002"
           width="90.630997"
           height="2"
           id="rect2628" />
      </g>
      <g
         transform="matrix(1.0151052,0,0,1,-15.71198,2.2370044)"
         id="g2630">
        <linearGradient
           id="linearGradient11392"
           gradientUnits="userSpaceOnUse"
           x1="45.809101"
           y1="60.7463"
           x2="184.8096"
           y2="162.4128">
          <stop
             offset="0"
             style="stop-color:#FFFFFF"
             id="stop11394" />
          <stop
             offset="1"
             style="stop-color:#A4C0E4"
             id="stop11396" />
        </linearGradient>
        <rect
           style="fill:url(#linearGradient3712)"
           x="47.001999"
           y="93.763"
           width="90.630997"
           height="2"
           id="rect2637" />
      </g>
      <g
         transform="matrix(1.0151052,0,0,1,-15.71198,2.2370044)"
         id="g2639">
        <linearGradient
           id="linearGradient11400"
           gradientUnits="userSpaceOnUse"
           x1="41.997101"
           y1="65.957298"
           x2="180.9976"
           y2="167.62379">
          <stop
             offset="0"
             style="stop-color:#FFFFFF"
             id="stop11402" />
          <stop
             offset="1"
             style="stop-color:#A4C0E4"
             id="stop11404" />
        </linearGradient>
        <rect
           style="fill:url(#linearGradient3714)"
           x="47.001999"
           y="101.763"
           width="90.630997"
           height="2"
           id="rect2646" />
      </g>
      <g
         transform="matrix(1.0114496,0,0,1,-15.54016,4.2020044)"
         id="g2648">
        <linearGradient
           id="linearGradient11408"
           gradientUnits="userSpaceOnUse"
           x1="43.378399"
           y1="64.069603"
           x2="182.37891"
           y2="165.7361">
          <stop
             offset="0"
             style="stop-color:#FFFFFF"
             id="stop11410" />
          <stop
             offset="1"
             style="stop-color:#A4C0E4"
             id="stop11412" />
        </linearGradient>
        <rect
           style="fill:url(#linearGradient3716)"
           x="47.001999"
           y="83.797997"
           width="49.433998"
           height="2"
           id="rect2655" />
      </g>
      <g
         transform="matrix(1.0151052,0,0,1,-15.71198,4.2370044)"
         id="g2657">
        <linearGradient
           id="linearGradient11416"
           gradientUnits="userSpaceOnUse"
           x1="51.945301"
           y1="52.356701"
           x2="190.9458"
           y2="154.02319">
          <stop
             offset="0"
             style="stop-color:#FFFFFF"
             id="stop11418" />
          <stop
             offset="1"
             style="stop-color:#A4C0E4"
             id="stop11420" />
        </linearGradient>
        <rect
           style="fill:url(#linearGradient3718)"
           x="96.210999"
           y="77.250999"
           width="2"
           height="16.427999"
           id="rect2664" />
      </g>
      <g
         transform="matrix(1,0,0,1.0269373,-13.58001,1.6680644)"
         id="g2666">
        <linearGradient
           id="linearGradient11424"
           gradientUnits="userSpaceOnUse"
           x1="65.852997"
           y1="33.341599"
           x2="204.8535"
           y2="135.0081">
          <stop
             offset="0"
             style="stop-color:#FFFFFF"
             id="stop11426" />
          <stop
             offset="1"
             style="stop-color:#A4C0E4"
             id="stop11428" />
        </linearGradient>
        <rect
           style="fill:url(#linearGradient3720)"
           x="107.58"
           y="51.932999"
           width="2"
           height="25.318001"
           id="rect2673" />
      </g>
      <g
         transform="matrix(1,0,0,1.0269373,-14.31701,1.6680644)"
         id="g2675">
        <linearGradient
           id="linearGradient11432"
           gradientUnits="userSpaceOnUse"
           x1="54.9575"
           y1="48.237999"
           x2="193.95799"
           y2="149.9045">
          <stop
             offset="0"
             style="stop-color:#FFFFFF"
             id="stop11434" />
          <stop
             offset="1"
             style="stop-color:#A4C0E4"
             id="stop11436" />
        </linearGradient>
        <rect
           style="fill:url(#linearGradient3722)"
           x="76.317001"
           y="51.932999"
           width="2"
           height="25.318001"
           id="rect2682" />
      </g>
      <g
         id="g2684"
         transform="matrix(1.0538333,0,0,1.0561753,-22.25732,0.3028544)">
        <path
           id="path2686"
           d="m 59.077,71.67 0.322,-1.741 2.772,-2.181 c 3.437,-2.86 5.522,-4.854 5.522,-6.961 0,-1.056 -0.666,-2.018 -2.153,-2.018 -1.328,0 -2.384,0.484 -3.116,0.987 l -0.596,-1.927 c 1.122,-0.756 2.773,-1.307 4.331,-1.307 2.909,0 4.305,1.811 4.305,3.874 0,3.09 -2.656,5.497 -5.68,7.927 l -1.376,1.029 0,0.048 5.751,0 -0.435,2.271 -9.647,0 0,-0.001 z"
           style="fill:#ffffff"
           inkscape:connector-curvature="0" />
      </g>
      <g
         id="g2688"
         transform="matrix(1.0778766,0,0,1.0743302,-25.14148,-0.9983256)">
        <path
           id="path2690"
           d="m 95.758,71.67 0.732,-3.827 -6.367,0 0.342,-1.787 7.471,-9.278 3.161,0 -1.697,8.979 1.856,0 -0.395,2.087 -1.85,0 -0.734,3.827 -2.519,-0.001 0,0 z m 1.123,-5.914 0.82,-4.008 c 0.186,-0.871 0.439,-1.811 0.646,-2.656 l -0.094,0 c -0.639,0.96 -1.146,1.785 -1.834,2.702 l -3.207,3.918 -0.021,0.044 3.69,0 z"
           style="fill:#ffffff"
           inkscape:connector-curvature="0" />
      </g>
      <g
         id="g2692"
         transform="matrix(1.0521701,0,0,1.0565938,-23.24735,0.00977437)">
        <path
           id="path2694"
           d="m 131.887,59.067 -5.18,0 -0.914,2.979 c 0.252,-0.043 0.434,-0.043 0.688,-0.043 0.753,0 1.971,0.206 2.861,0.825 1.125,0.687 1.697,1.943 1.697,3.297 0,3.667 -3.022,5.795 -6.526,5.795 -1.652,0 -3.026,-0.435 -3.575,-0.848 l 0.732,-2.128 c 0.572,0.341 1.693,0.733 2.929,0.733 1.856,0 3.667,-1.239 3.667,-3.069 0,-1.444 -0.825,-2.549 -3.641,-2.549 -0.689,0 -1.168,0.049 -1.766,0.095 l 2.107,-7.377 7.377,0 -0.456,2.29 z"
           style="fill:#ffffff"
           inkscape:connector-curvature="0" />
      </g>
      <g
         id="g2696"
         transform="matrix(1.0151052,0,0,1,-13.68177,5.9999944)">
        <path
           id="path2698"
           d="m 103.396,82.257 c 0,0.704 -0.244,1.383 -0.685,1.817 -0.359,0.346 -0.846,0.552 -1.426,0.552 -0.998,0 -1.557,-0.705 -1.557,-1.604 0,-0.696 0.255,-1.39 0.705,-1.821 0.363,-0.345 0.852,-0.551 1.41,-0.551 1.017,0 1.553,0.684 1.553,1.607 z m -2.313,-0.63 c -0.308,0.309 -0.479,0.907 -0.479,1.366 0,0.544 0.245,0.948 0.808,0.948 0.239,0 0.467,-0.107 0.646,-0.28 0.303,-0.305 0.468,-0.937 0.468,-1.383 0,-0.479 -0.172,-0.944 -0.776,-0.944 -0.262,0 -0.489,0.114 -0.667,0.293 z"
           style="fill:#ffffff"
           inkscape:connector-curvature="0" />
        <path
           id="path2700"
           d="m 105.495,84.567 -0.262,-0.779 c -0.074,-0.234 -0.136,-0.419 -0.206,-0.656 l -0.012,0 c -0.124,0.216 -0.228,0.411 -0.396,0.688 l -0.449,0.749 -0.992,0 1.441,-1.97 -0.672,-1.885 0.867,0 0.232,0.735 c 0.07,0.244 0.119,0.413 0.18,0.641 l 0.016,0 c 0.144,-0.261 0.239,-0.445 0.365,-0.651 l 0.447,-0.725 0.982,0 -1.404,1.89 0.736,1.965 -0.873,-0.002 0,0 z"
           style="fill:#ffffff"
           inkscape:connector-curvature="0" />
        <path
           id="path2702"
           d="m 107.659,84.567 0.297,-1.573 -0.752,-2.28 0.883,0 0.244,0.979 c 0.069,0.318 0.108,0.499 0.151,0.694 l 0.011,0 c 0.114,-0.206 0.229,-0.423 0.391,-0.704 l 0.58,-0.971 0.982,0 -1.664,2.265 -0.3,1.59 -0.823,0 0,0 z"
           style="fill:#ffffff"
           inkscape:connector-curvature="0" />
        <path
           id="path2704"
           d="m 113.096,84.388 c -0.295,0.098 -0.76,0.217 -1.241,0.217 -0.533,0 -0.972,-0.135 -1.29,-0.422 -0.311,-0.271 -0.482,-0.693 -0.482,-1.188 0,-0.721 0.297,-1.346 0.785,-1.762 0.436,-0.359 1.03,-0.56 1.697,-0.56 0.505,0 0.879,0.098 1.025,0.172 l -0.244,0.695 c -0.18,-0.08 -0.477,-0.155 -0.818,-0.155 -0.385,0 -0.729,0.107 -0.982,0.309 -0.332,0.262 -0.558,0.716 -0.558,1.242 0,0.648 0.386,0.976 0.991,0.976 0.189,0 0.325,-0.03 0.418,-0.071 l 0.152,-0.812 -0.592,0 0.123,-0.656 1.399,0 -0.383,2.015 z"
           style="fill:#ffffff"
           inkscape:connector-curvature="0" />
        <path
           id="path2706"
           d="m 116.262,82.93 -1.37,0 -0.175,0.931 1.535,0 -0.131,0.707 -2.358,0 0.729,-3.854 2.279,0 -0.136,0.703 -1.453,0 -0.157,0.825 1.371,0 -0.134,0.688 z"
           style="fill:#ffffff"
           inkscape:connector-curvature="0" />
        <path
           id="path2708"
           d="m 116.715,84.567 0.732,-3.854 0.967,0 0.51,1.469 c 0.15,0.492 0.256,0.895 0.347,1.317 l 0.019,0 c 0.016,-0.396 0.067,-0.82 0.176,-1.385 l 0.264,-1.401 0.766,0 -0.724,3.854 -0.853,0 -0.541,-1.54 c -0.17,-0.521 -0.271,-0.866 -0.375,-1.344 l -0.017,0.01 c -0.048,0.375 -0.14,0.916 -0.255,1.524 l -0.249,1.35 -0.767,0 0,0 z"
           style="fill:#ffffff"
           inkscape:connector-curvature="0" />
      </g>
      <path
         sodipodi:nodetypes="cccccc"
         id="path6091"
         d="m 36.148251,24.125724 11.91761,9.93714 -11.91761,9.93714 L 32,43.950064 l 0,-19.95006 4.148251,0.12572 z"
         style="fill:url(#linearGradient3724);fill-opacity:1;fill-rule:evenodd;stroke:none"
         inkscape:connector-curvature="0" />
      <g
         transform="translate(-3.2026754e-7,4.3722898e-6)"
         id="g7693">
        <path
           sodipodi:type="arc"
           style="fill:url(#linearGradient3726);fill-opacity:1;fill-rule:evenodd;stroke:none"
           id="path6883"
           sodipodi:cx="5.875"
           sodipodi:cy="18"
           sodipodi:rx="2.125"
           sodipodi:ry="2"
           d="M 8,18 C 8,19.104569 7.0486051,20 5.875,20 4.7013949,20 3.75,19.104569 3.75,18 3.75,16.895431 4.7013949,16 5.875,16 7.0486051,16 8,16.895431 8,18 z"
           transform="matrix(0.4705882,0,0,-0.5,32.235294,36)" />
        <rect
           style="opacity:0.5;fill:url(#linearGradient3728);fill-opacity:1;fill-rule:evenodd;stroke:none"
           id="rect7282"
           width="2"
           height="0.5"
           x="39.882687"
           y="-17.060888"
           transform="matrix(0.5,0.8660254,-0.8660254,0.5,0,0)"
           inkscape:transform-center-x="1.5625"
           inkscape:transform-center-y="-8.375" />
      </g>
      <g
         transform="translate(-3.2026754e-7,4.3722898e-6)"
         id="g7689">
        <path
           transform="matrix(0.4705882,0,0,-0.5,32.211834,50)"
           d="M 8,18 C 8,19.104569 7.0486051,20 5.875,20 4.7013949,20 3.75,19.104569 3.75,18 3.75,16.895431 4.7013949,16 5.875,16 7.0486051,16 8,16.895431 8,18 z"
           sodipodi:ry="2"
           sodipodi:rx="2.125"
           sodipodi:cy="18"
           sodipodi:cx="5.875"
           id="path7274"
           style="fill:url(#linearGradient3730);fill-opacity:1;fill-rule:evenodd;stroke:none"
           sodipodi:type="arc" />
        <rect
           inkscape:transform-center-y="-1.8041619"
           inkscape:transform-center-x="8.3262822"
           transform="matrix(0.9921016,-0.1254369,0.1254369,0.9921016,0,0)"
           y="44.813515"
           x="28.557367"
           height="0.5"
           width="2"
           id="rect7284"
           style="opacity:0.5;fill:url(#linearGradient3732);fill-opacity:1;fill-rule:evenodd;stroke:none" />
      </g>
      <g
         transform="translate(-2.0000003,4.3722898e-6)"
         id="g7681">
        <path
           sodipodi:type="arc"
           style="fill:url(#linearGradient3734);fill-opacity:1;fill-rule:evenodd;stroke:none"
           id="path7278"
           sodipodi:cx="5.875"
           sodipodi:cy="18"
           sodipodi:rx="2.125"
           sodipodi:ry="2"
           d="M 8,18 C 8,19.104569 7.0486051,20 5.875,20 4.7013949,20 3.75,19.104569 3.75,18 3.75,16.895431 4.7013949,16 5.875,16 7.0486051,16 8,16.895431 8,18 z"
           transform="matrix(0.4705882,0,0,-0.5,44.211835,43)" />
        <rect
           style="opacity:0.5;fill:url(#linearGradient3736);fill-opacity:1;fill-rule:evenodd;stroke:none"
           id="rect7286"
           width="2"
           height="0.5"
           x="5.6526489"
           y="57.35675"
           transform="matrix(0.675375,-0.7374745,0.7374745,0.675375,0,0)"
           inkscape:transform-center-x="7.5163515"
           inkscape:transform-center-y="4.0107854" />
      </g>
    </g>
  </g>
</svg>
