<?xml version="1.0" encoding="UTF-8" standalone="no"?>
<!-- Created with Inkscape (http://www.inkscape.org/) -->

<svg
   xmlns:dc="http://purl.org/dc/elements/1.1/"
   xmlns:cc="http://creativecommons.org/ns#"
   xmlns:rdf="http://www.w3.org/1999/02/22-rdf-syntax-ns#"
   xmlns:svg="http://www.w3.org/2000/svg"
   xmlns="http://www.w3.org/2000/svg"
   xmlns:xlink="http://www.w3.org/1999/xlink"
   xmlns:sodipodi="http://sodipodi.sourceforge.net/DTD/sodipodi-0.dtd"
   xmlns:inkscape="http://www.inkscape.org/namespaces/inkscape"
   width="22"
   height="22"
   id="svg2"
   sodipodi:version="0.32"
   inkscape:version="0.48.3.1 r9886"
   version="1.0"
   sodipodi:docname="applications-other-22.svg"
   inkscape:output_extension="org.inkscape.output.svgz.inkscape"
   inkscape:export-filename="applications-other.png"
   inkscape:export-xdpi="90"
   inkscape:export-ydpi="90">
  <defs
     id="defs4">
    <linearGradient
       inkscape:collect="always"
       id="linearGradient3157">
      <stop
         style="stop-color:#aac5e5;stop-opacity:1"
         offset="0"
         id="stop3159" />
      <stop
         style="stop-color:#397aca;stop-opacity:1"
         offset="1"
         id="stop3161" />
    </linearGradient>
    <linearGradient
       inkscape:collect="always"
       id="linearGradient3145">
      <stop
         style="stop-color:#eeeeec;stop-opacity:1"
         offset="0"
         id="stop3147" />
      <stop
         style="stop-color:#ffffff;stop-opacity:1"
         offset="1"
         id="stop3149" />
    </linearGradient>
    <linearGradient
       id="linearGradient10207-3">
      <stop
         id="stop10209-4"
         offset="0"
         style="stop-color:#b4b4b4;stop-opacity:1;" />
      <stop
         style="stop-color:#d1d1d1;stop-opacity:1;"
         offset="0.5"
         id="stop4937-4" />
      <stop
         id="stop10211-0"
         offset="1"
         style="stop-color:#fafafa;stop-opacity:1;" />
    </linearGradient>
    <linearGradient
       inkscape:collect="always"
       id="linearGradient4993-4">
      <stop
         style="stop-color:#ffffff;stop-opacity:1;"
         offset="0"
         id="stop4995-2" />
      <stop
         style="stop-color:#ffffff;stop-opacity:0;"
         offset="1"
         id="stop4997-3" />
    </linearGradient>
    <clipPath
       clipPathUnits="userSpaceOnUse"
       id="clipPath5073-1">
      <path
         inkscape:connector-curvature="0"
         id="path5075-4"
         d="m 76.90625,-70.062499 c -2.912256,3.972096 -7.607051,6.5625 -12.90625,6.5625 -4.895788,0 -9.283068,-2.188651 -12.21875,-5.65625 -23.139626,-4.28557 -26.617645,14.039708 -31.5,30.75 0.408832,0.434 0.807117,0.86458 1.28125,1.34375 2.32718,2.30274 3.94598,3.67766 6.5625,5.65625 0.78852,0.57188 1.78325,0.6855 2.46875,0 l 7.09375,-6.25 c 0.76064,-0.63163 1.70649,-0.62292 2.375,-0.25 l 0.09375,-0.09375 c 3.52766,2.01717 7.328189,3.60952 11.34375,4.6875 l 0,0.15625 c 0.736402,0.20901 1.440029,0.85927 1.53125,1.84375 l 0.59375,9.4375 c 10e-7,0.96944 0.78805,1.59681 1.75,1.75 3.249233,0.45108 5.351147,0.60772 8.625,0.625 3.273854,-0.01728 5.375768,-0.17392 8.625,-0.625 0.961947,-0.15319 1.75,-0.78056 1.75,-1.75 l 0.59375,-9.4375 c 0.09122,-0.98448 0.794849,-1.63474 1.53125,-1.84375 l 0,-0.15625 c 4.015558,-1.07798 7.816095,-2.67033 11.34375,-4.6875 l 0.09375,0.09375 c 0.668508,-0.37292 1.614362,-0.38163 2.375,0.25 l 7.09375,6.25 c 0.685504,0.68551 1.680237,0.57189 2.46875,0 2.61651,-1.97859 4.23531,-3.35351 6.5625,-5.65625 0.48542,-0.49057 0.8952,-0.93141 1.3125,-1.375 3.92353,-7.086674 -25.609227,-43.434539 -30.84375,-31.625 z"
         clip-path="none"
         mask="none"
         style="opacity:0.43122678;fill:url(#radialGradient5077);fill-opacity:1;stroke:none"
         sodipodi:nodetypes="csccccccccccccccccccccccccccc" />
    </clipPath>
    <linearGradient
       inkscape:collect="always"
       id="linearGradient5131-3">
      <stop
         style="stop-color:#767676;stop-opacity:1;"
         offset="0"
         id="stop5133-2" />
      <stop
         style="stop-color:#767676;stop-opacity:0;"
         offset="1"
         id="stop5135-2" />
    </linearGradient>
    <linearGradient
       id="linearGradient3292-7">
      <stop
         style="stop-color:#000000;stop-opacity:1;"
         offset="0"
         id="stop3294-7" />
      <stop
         id="stop3304-7"
         offset="0.5"
         style="stop-color:#ffffff;stop-opacity:1;" />
      <stop
         style="stop-color:#ffffff;stop-opacity:1;"
         offset="1"
         id="stop3296-5" />
    </linearGradient>
    <linearGradient
       gradientTransform="matrix(0,1,-1,0,-39.9985,140.0029)"
       y2="-383.9971"
       x2="-12.0029"
       y1="-383.9971"
       x1="-84.002403"
       gradientUnits="userSpaceOnUse"
       id="linearGradient5958-7-0">
      <stop
         id="stop5960-4-3"
         style="stop-color:#6ccb34;stop-opacity:1;"
         offset="0" />
      <stop
         id="stop5962-5-1"
         style="stop-color:#afe41f;stop-opacity:1;"
         offset="1" />
    </linearGradient>
    <linearGradient
       id="linearGradient6894-4">
      <stop
         style="stop-color:#bce93f;stop-opacity:0.2857143;"
         offset="0"
         id="stop6896-9" />
      <stop
         style="stop-color:#eefacd;stop-opacity:1;"
         offset="1"
         id="stop6898-3" />
    </linearGradient>
    <linearGradient
       id="linearGradient6918-0">
      <stop
         style="stop-color:#6f9500;stop-opacity:0;"
         offset="0"
         id="stop6920-2" />
      <stop
         id="stop6926-8"
         offset="0.86141014"
         style="stop-color:#4c5e19;stop-opacity:0.3137255;" />
      <stop
         style="stop-color:#374b00;stop-opacity:1;"
         offset="1"
         id="stop6922-3" />
    </linearGradient>
    <linearGradient
       inkscape:collect="always"
       xlink:href="#linearGradient3157"
       id="linearGradient7829"
       gradientUnits="userSpaceOnUse"
       gradientTransform="matrix(0.5384616,0,0,3.5,6.2307692,-47.5)"
       x1="13.499998"
       y1="14.82112"
       x2="13.499998"
       y2="17.003796" />
    <linearGradient
       inkscape:collect="always"
       xlink:href="#linearGradient3157"
       id="linearGradient7832"
       gradientUnits="userSpaceOnUse"
       x1="7"
       y1="16"
       x2="20"
       y2="16" />
    <linearGradient
       inkscape:collect="always"
       xlink:href="#linearGradient3145"
       id="linearGradient7835"
       gradientUnits="userSpaceOnUse"
       gradientTransform="matrix(1,0,0,0.9444444,0,0.1111111)"
       x1="22.312057"
       y1="12.263187"
       x2="7.8301668"
       y2="4.6025558" />
    <linearGradient
       inkscape:collect="always"
       xlink:href="#linearGradient10207-3"
       id="linearGradient7843"
       gradientUnits="userSpaceOnUse"
       gradientTransform="matrix(0.89255418,0,0,0.89255418,1.3444194,0.39439532)"
       spreadMethod="reflect"
       x1="64"
       y1="81.5"
       x2="64"
       y2="12.678303" />
    <radialGradient
       inkscape:collect="always"
       xlink:href="#linearGradient4993-4"
       id="radialGradient7845"
       gradientUnits="userSpaceOnUse"
       gradientTransform="matrix(1,0,0,0.5780636,0,-101.84696)"
       cx="94.818924"
       cy="67.895119"
       fx="94.818924"
       fy="67.895119"
       r="43.734375" />
    <radialGradient
       inkscape:collect="always"
       xlink:href="#linearGradient4993-4"
       id="radialGradient7847"
       gradientUnits="userSpaceOnUse"
       gradientTransform="matrix(1,0,0,0.5780636,0,-101.84696)"
       cx="94.818924"
       cy="67.895119"
       fx="94.818924"
       fy="67.895119"
       r="43.734375" />
    <linearGradient
       inkscape:collect="always"
       xlink:href="#linearGradient5131-3"
       id="linearGradient7849"
       gradientUnits="userSpaceOnUse"
       gradientTransform="translate(-230.03067,39.46691)"
       x1="283.5"
       y1="-52.5"
       x2="282.5"
       y2="128.5" />
    <linearGradient
       inkscape:collect="always"
       xlink:href="#linearGradient3292-7"
       id="linearGradient7851"
       gradientUnits="userSpaceOnUse"
       x1="310.84995"
       y1="-27.656115"
       x2="310.84995"
       y2="270.16995" />
    <radialGradient
       inkscape:collect="always"
       xlink:href="#linearGradient5958-7-0"
       id="radialGradient7853"
       gradientUnits="userSpaceOnUse"
       gradientTransform="matrix(0.92357382,0,0,0.92357382,4.9144563,4.929911)"
       cx="64.303314"
       cy="64.505531"
       fx="64.935219"
       fy="78.426399"
       r="18.199051" />
    <linearGradient
       inkscape:collect="always"
       xlink:href="#linearGradient6894-4"
       id="linearGradient7855"
       gradientUnits="userSpaceOnUse"
       gradientTransform="matrix(1.3325954,0,0,1.4423054,-31.104818,-35.319033)"
       x1="80.092743"
       y1="69.24884"
       x2="80.092743"
       y2="56.05217" />
    <radialGradient
       inkscape:collect="always"
       xlink:href="#linearGradient6918-0"
       id="radialGradient7857"
       gradientUnits="userSpaceOnUse"
       gradientTransform="matrix(1.0790252,0,0,1.0790252,-5.0815811,-5.0975613)"
       cx="64.303314"
       cy="64.505531"
       fx="64.017342"
       fy="52.49477"
       r="18.199051" />
  </defs>
  <sodipodi:namedview
     id="base"
     pagecolor="#ffffff"
     bordercolor="#666666"
     borderopacity="1.0"
     gridtolerance="10000"
     guidetolerance="10"
     objecttolerance="10"
     inkscape:pageopacity="0.0"
     inkscape:pageshadow="2"
     inkscape:zoom="20"
     inkscape:cx="11"
     inkscape:cy="11"
     inkscape:document-units="px"
     inkscape:current-layer="layer1"
     width="22px"
     height="22px"
     showgrid="false"
     showborder="true"
     inkscape:window-width="1019"
     inkscape:window-height="723"
     inkscape:window-x="20"
     inkscape:window-y="0"
     inkscape:window-maximized="0">
    <inkscape:grid
       id="GridFromPre046Settings"
       type="xygrid"
       originx="0px"
       originy="0px"
       spacingx="1px"
       spacingy="1px"
       color="#3f3fff"
       empcolor="#3f3fff"
       opacity="0.15"
       empopacity="0.38"
       empspacing="4"
       visible="true"
       enabled="true"
       snapvisiblegridlinesonly="true" />
  </sodipodi:namedview>
  <metadata
     id="metadata7">
    <rdf:RDF>
      <cc:Work
         rdf:about="">
        <dc:format>image/svg+xml</dc:format>
        <dc:type
           rdf:resource="http://purl.org/dc/dcmitype/StillImage" />
        <dc:title></dc:title>
      </cc:Work>
    </rdf:RDF>
  </metadata>
  <g
     inkscape:label="Layer 1"
     inkscape:groupmode="layer"
     id="layer1">
    <g
       id="g7899">
      <rect
         ry="0.86512262"
         rx="0.95164359"
         transform="matrix(1.0508136,0,0,1.1559055,-0.6895052,-2.8225036)"
         style="opacity:0.25;fill:#000000;fill-opacity:1;stroke:none"
         id="rect3230"
         width="15.226297"
         height="1.7302452"
         x="6.0692911"
         y="18.103937" />
      <g
         id="g7892">
        <path
           sodipodi:type="inkscape:offset"
           inkscape:radius="0.5"
           inkscape:original="M 7 2 L 7 19 L 20 19 L 20 2 L 7 2 z "
           xlink:href="#rect2170"
           style="opacity:0.15;fill:#000000;fill-opacity:1;stroke:none"
           id="path7841"
           inkscape:href="#rect2170"
           d="M 6.90625,1 A 1.0001,1.0001 0 0 0 6,2 l 0,17 a 1.0001,1.0001 0 0 0 1,1 l 13,0 a 1.0001,1.0001 0 0 0 1,-1 L 21,2 A 1.0001,1.0001 0 0 0 20,1 L 7,1 A 1.0001,1.0001 0 0 0 6.90625,1 z" />
        <path
           style="opacity:0.75;fill:#000000;fill-opacity:1;stroke:none"
           d="M 6.9375,1.75 A 0.250025,0.250025 0 0 0 6.78125,1.875 0.250025,0.250025 0 0 0 6.75,1.96875 0.250025,0.250025 0 0 0 6.75,2 l 0,17 a 0.250025,0.250025 0 0 0 0,0.0625 0.250025,0.250025 0 0 0 0.125,0.15625 A 0.250025,0.250025 0 0 0 6.96875,19.25 0.250025,0.250025 0 0 0 7,19.25 l 13,0 a 0.250025,0.250025 0 0 0 0.0625,0 0.250025,0.250025 0 0 0 0.15625,-0.125 A 0.250025,0.250025 0 0 0 20.25,19.03125 0.250025,0.250025 0 0 0 20.25,19 l 0,-17 a 0.250025,0.250025 0 0 0 0,-0.0625 A 0.250025,0.250025 0 0 0 20.125,1.78125 0.250025,0.250025 0 0 0 20.03125,1.75 0.250025,0.250025 0 0 0 20,1.75 l -13,0 a 0.250025,0.250025 0 0 0 -0.0625,0 z"
           id="path7838" />
        <rect
           style="fill:url(#linearGradient7835);fill-opacity:1;stroke:none"
           id="rect2170"
           width="13"
           height="17"
           x="7"
           y="2" />
        <rect
           y="15"
           x="7"
           height="2"
           width="13"
           id="rect3153"
           style="fill:url(#linearGradient7832);fill-opacity:1;stroke:none" />
        <rect
           style="fill:url(#linearGradient7829);fill-opacity:1;stroke:none"
           id="rect3165"
           width="7"
           height="7"
           x="10"
           y="5"
           rx="0.76220471"
           ry="0.76220471" />
      </g>
    </g>
    <g
       id="g7908">
      <path
         transform="matrix(1.5315354,0,0,1.4750732,-4.0287074,-9.5967708)"
         d="m 13.077535,20.403578 a 4.5705767,0.67793244 0 1 1 -9.1411537,0 4.5705767,0.67793244 0 1 1 9.1411537,0 z"
         sodipodi:ry="0.67793244"
         sodipodi:rx="4.5705767"
         sodipodi:cy="20.403578"
         sodipodi:cx="8.506958"
         id="path7806"
         style="opacity:0.25;color:#000000;fill:#000000;fill-opacity:1;fill-rule:nonzero;stroke:none;stroke-width:1;marker:none;visibility:visible;display:inline;overflow:visible;enable-background:accumulate"
         sodipodi:type="arc" />
      <g
         transform="matrix(0.12163971,0,0,0.12163971,0.88977886,7.503816)"
         id="g6304">
        <path
           sodipodi:type="inkscape:offset"
           inkscape:radius="4"
           inkscape:original="M 58.46875 3.96875 C 55.546659 3.984173 53.681365 4.1286367 50.78125 4.53125 C 49.922657 4.6679715 49.21875 5.2284634 49.21875 6.09375 L 48.6875 14.5 C 48.6085 15.352559 48.010594 15.921346 47.375 16.125 C 47.35551 16.1312 47.33205 16.1507 47.3125 16.15625 C 43.638 17.142674 40.152546 18.571705 36.9375 20.4375 C 36.35596 20.689138 35.589409 20.671646 34.96875 20.15625 L 28.65625 14.59375 C 28.044406 13.981904 27.1413 14.083316 26.4375 14.59375 C 24.102119 16.359749 22.670887 17.56968 20.59375 19.625 C 18.538426 21.702134 17.29725 23.164614 15.53125 25.5 C 15.020819 26.203796 14.919406 27.075654 15.53125 27.6875 L 21.125 34.03125 C 21.547822 34.540434 21.769966 35.210073 21.53125 35.6875 L 21.46875 35.78125 C 19.464503 39.172599 17.914962 42.875266 16.90625 46.78125 C 16.89568 46.79967 16.88623 46.82559 16.875 46.84375 C 16.591874 47.301488 16.127776 47.657685 15.46875 47.71875 L 7.03125 48.25 C 6.1659721 48.25 5.6054804 48.953907 5.46875 49.8125 C 5.0661367 52.712616 4.9216733 54.609159 4.90625 57.53125 C 4.921673 60.453341 5.0661367 62.318634 5.46875 65.21875 C 5.6054804 66.077338 6.1659721 66.78125 7.03125 66.78125 L 15.46875 67.3125 C 16.242903 67.38424 16.754268 67.871011 17 68.4375 C 17.984693 72.135668 19.461579 75.641016 21.34375 78.875 C 21.676602 79.471679 21.688764 80.321091 21.125 81 L 15.53125 87.34375 C 14.919406 87.955592 15.020816 88.827453 15.53125 89.53125 C 17.29725 91.866627 18.538426 93.329107 20.59375 95.40625 C 22.670887 97.46157 24.102118 98.671505 26.4375 100.4375 C 27.141298 100.94793 28.044406 101.04935 28.65625 100.4375 L 34.96875 94.875 C 35.64766 94.311236 36.497071 94.323399 37.09375 94.65625 L 37.1875 94.5625 C 40.336123 96.362933 43.728398 97.787844 47.3125 98.75 L 47.3125 98.875 C 47.969778 99.061553 48.60608 99.652555 48.6875 100.53125 L 49.21875 108.9375 C 49.21875 109.80278 49.922657 110.36327 50.78125 110.5 C 53.681365 110.90262 55.546659 111.04708 58.46875 111.0625 C 61.390842 111.0471 63.256135 110.90262 66.15625 110.5 C 67.014839 110.36327 67.71875 109.80278 67.71875 108.9375 L 68.25 100.53125 C 68.33142 99.652555 68.967722 99.061553 69.625 98.875 L 69.625 98.75 C 73.209102 97.787844 76.601377 96.362933 79.75 94.5625 L 79.84375 94.65625 C 80.440429 94.323399 81.28984 94.311236 81.96875 94.875 L 88.28125 100.4375 C 88.893105 101.04936 89.796212 100.94794 90.5 100.4375 C 92.835379 98.671505 94.266606 97.46157 96.34375 95.40625 C 98.39907 93.329107 99.640251 91.866627 101.40625 89.53125 C 101.9167 88.827462 102.01811 87.9556 101.40625 87.34375 L 95.8125 81 C 95.248736 80.321087 95.260899 79.471679 95.59375 78.875 C 97.475924 75.641016 98.952807 72.135668 99.9375 68.4375 C 100.18323 67.871011 100.69459 67.384235 101.46875 67.3125 L 109.90625 66.78125 C 110.77154 66.78125 111.33203 66.077338 111.46875 65.21875 C 111.87136 62.318634 112.01582 60.453341 112.03125 57.53125 C 112.01585 54.609159 111.87136 52.712616 111.46875 49.8125 C 111.33203 48.953907 110.77154 48.25 109.90625 48.25 L 101.46875 47.71875 C 100.80972 47.65768 100.34563 47.301488 100.0625 46.84375 C 100.0575 46.82418 100.03635 46.80081 100.03125 46.78125 C 99.022544 42.875266 97.199214 39.304688 95.4375 35.78125 L 95.40625 35.6875 C 95.167537 35.210073 95.389615 34.540434 95.8125 34.03125 L 101.40625 27.6875 C 102.0181 27.075645 101.91668 26.203796 101.40625 25.5 C 99.640255 23.164614 98.39907 21.702134 96.34375 19.625 C 94.266616 17.569671 92.835388 16.359749 90.5 14.59375 C 89.796213 14.083316 88.893105 13.981904 88.28125 14.59375 L 81.96875 20.15625 C 81.348089 20.671646 80.58154 20.689138 80 20.4375 C 76.784953 18.571705 73.2995 17.142674 69.625 16.15625 C 69.60545 16.15075 69.58199 16.13125 69.5625 16.125 C 68.926906 15.921346 68.329001 15.352559 68.25 14.5 L 67.71875 6.09375 C 67.71875 5.2284634 67.014839 4.6679715 66.15625 4.53125 C 63.256135 4.1286367 61.390842 3.9841734 58.46875 3.96875 z "
           xlink:href="#path3139-4"
           style="opacity:0.15;fill:#000000;fill-opacity:1;stroke:none"
           id="path6302"
           inkscape:href="#path3139-4"
           d="m 58.4375,-0.03125 c -3.044937,0.01607139 -5.216334,0.17693456 -8.21875,0.59375 a 4.0004,4.0004 0 0 0 -0.0625,0.03125 C 49.056287,0.76890704 47.921889,1.2029018 46.9375,2.125 46.008863,2.9948744 45.358858,4.412463 45.28125,5.84375 l -0.0625,0 0,0.25 -0.4375,6.6875 c -2.870915,0.870977 -5.623139,2.018509 -8.25,3.40625 L 31.5,11.75 c -0.01021,-0.01021 -0.02095,-0.02113 -0.03125,-0.03125 l -0.15625,-0.125 -0.03125,0.03125 c -1.073072,-0.964795 -2.573452,-1.478765 -3.84375,-1.4375 -1.344812,0.04369 -2.43552,0.497552 -3.34375,1.15625 a 4.0004,4.0004 0 0 0 -0.0625,0.0625 c -2.409342,1.821928 -4.077751,3.225567 -6.25,5.375 A 4.0004,4.0004 0 0 0 17.75,16.8125 c -2.14929,2.172097 -3.580984,3.86749 -5.40625,6.28125 a 4.0004,4.0004 0 0 0 -0.0625,0.0625 C 11.639071,24.041704 11.169962,25.14362 11.125,26.5 c -0.04244,1.280354 0.491737,2.759831 1.4375,3.8125 l -0.03125,0.03125 0.125,0.15625 0.03125,0.03125 4.4375,5.03125 c -1.396445,2.616458 -2.55382,5.369036 -3.4375,8.25 l -6.65625,0.4375 -0.25,0 0,0.0625 C 5.3499581,44.390109 3.9323673,45.04012 3.0625,45.96875 2.1404094,46.953131 1.7064161,48.087551 1.53125,49.1875 A 4.0004,4.0004 0 0 0 1.5,49.25 C 1.0826464,52.256294 0.92232091,54.455214 0.90625,57.5 a 4.0004,4.0004 0 0 0 0,0.0625 c 0.0160714,3.044937 0.1769346,5.216333 0.59375,8.21875 a 4.0004,4.0004 0 0 0 0.03125,0.0625 c 0.175167,1.099948 0.609163,2.234371 1.53125,3.21875 0.8698638,0.928628 2.2874518,1.578641 3.71875,1.65625 l 0,0.0625 0.25,0 6.6875,0.4375 c 0.891105,2.87407 2.038827,5.614769 3.4375,8.21875 L 12.6875,84.5 c -0.01012,0.01012 -0.02122,0.02103 -0.03125,0.03125 l -0.125,0.15625 0.03125,0.03125 c -0.945769,1.052669 -1.479941,2.532144 -1.4375,3.8125 0.04496,1.356382 0.514064,2.45829 1.15625,3.34375 a 4.0004,4.0004 0 0 0 0.0625,0.0625 c 1.825264,2.413749 3.256963,4.109146 5.40625,6.28125 A 4.0004,4.0004 0 0 0 17.78125,98.25 c 2.172246,2.14943 3.840653,3.55307 6.25,5.375 a 4.0004,4.0004 0 0 0 0.0625,0.0625 c 0.908224,0.65869 1.998938,1.11256 3.34375,1.15625 1.270298,0.0413 2.770672,-0.47269 3.84375,-1.4375 l 0.03125,0.0313 0.15625,-0.125 L 31.5,103.28125 36.65625,98.75 c 2.567405,1.35477 5.292734,2.47595 8.125,3.34375 l 0.4375,6.84375 0,0.25 0.0625,0 c 0.07761,1.43129 0.727619,2.84888 1.65625,3.71875 0.984383,0.92209 2.118803,1.35608 3.21875,1.53125 a 4.0004,4.0004 0 0 0 0.0625,0.0313 c 3.002423,0.41682 5.173814,0.57768 8.21875,0.59375 a 4.0004,4.0004 0 0 0 0.0625,0 c 3.044966,-0.0161 5.216345,-0.17693 8.21875,-0.59375 a 4.0004,4.0004 0 0 0 0.0625,-0.0313 c 1.099946,-0.17517 2.234369,-0.60916 3.21875,-1.53125 0.92863,-0.86987 1.578641,-2.28745 1.65625,-3.71875 l 0.0625,0 0,-0.25 0.4375,-6.84375 c 2.832266,-0.8678 5.557595,-1.98898 8.125,-3.34375 l 5.15625,4.53125 c 0.01021,0.0102 0.02095,0.0211 0.03125,0.0313 l 0.15625,0.125 0.03125,-0.0313 c 1.07307,0.9648 2.573435,1.47877 3.84375,1.4375 1.34483,-0.0437 2.435521,-0.49753 3.34375,-1.15625 a 4.0004,4.0004 0 0 0 0.0625,-0.0625 c 2.409345,-1.82193 4.077751,-3.22557 6.25,-5.375 a 4.0004,4.0004 0 0 0 0.03125,-0.03125 c 2.14928,-2.1721 3.58098,-3.867498 5.40625,-6.28125 a 4.0004,4.0004 0 0 0 0.0625,-0.0625 c 0.64222,-0.885466 1.11129,-1.98734 1.15625,-3.34375 0.0424,-1.280383 -0.49173,-2.759839 -1.4375,-3.8125 l 0.0313,-0.03125 -0.125,-0.15625 L 104.25,84.5 99.78125,79.4375 c 1.39868,-2.603982 2.5464,-5.344681 3.4375,-8.21875 l 6.6875,-0.4375 0.25,0 0,-0.0625 c 1.43129,-0.07761 2.84888,-0.727612 3.71875,-1.65625 0.9221,-0.98439 1.35609,-2.118788 1.53125,-3.21875 a 4.0004,4.0004 0 0 0 0.0313,-0.0625 c 0.41681,-3.002418 0.57767,-5.17382 0.59375,-8.21875 a 4.0004,4.0004 0 0 0 0,-0.0625 c -0.0161,-3.044824 -0.1764,-5.243732 -0.59375,-8.25 a 4.0004,4.0004 0 0 0 -0.0313,-0.0625 c -0.17516,-1.099963 -0.60915,-2.234358 -1.53125,-3.21875 -0.86988,-0.92864 -2.28746,-1.578642 -3.71875,-1.65625 l 0,-0.0625 -0.25,0 -6.6875,-0.4375 c -0.96957,-2.982693 -2.18266,-5.703171 -3.4375,-8.21875 l 4.46875,-5.0625 0.0313,-0.03125 0.125,-0.15625 -0.0313,-0.03125 c 0.94575,-1.052665 1.47995,-2.53214 1.4375,-3.8125 -0.045,-1.356386 -0.51408,-2.458309 -1.15625,-3.34375 a 4.0004,4.0004 0 0 0 -0.0625,-0.0625 c -1.82527,-2.413768 -3.25697,-4.109158 -5.40625,-6.28125 a 4.0004,4.0004 0 0 0 -0.03125,-0.03125 c -2.172251,-2.149447 -3.840653,-3.553074 -6.25,-5.375 a 4.0004,4.0004 0 0 0 -0.0625,-0.0625 C 91.935513,10.685035 90.844813,10.231186 89.5,10.1875 c -1.270299,-0.04126 -2.770678,0.472721 -3.84375,1.4375 l -0.03125,-0.03125 -0.15625,0.125 c -0.0103,0.01012 -0.02104,0.02104 -0.03125,0.03125 l -5.03125,4.4375 c -2.626861,-1.387741 -5.379086,-2.535273 -8.25,-3.40625 l -0.4375,-6.6875 0,-0.25 -0.0625,0 C 71.578642,4.412458 70.928636,2.9948717 70,2.125 69.015612,1.2029047 67.881212,0.76890772 66.78125,0.59375 A 4.0004,4.0004 0 0 0 66.71875,0.5625 C 63.716333,0.14568452 61.544938,-0.0151782 58.5,-0.03125 a 4.0004,4.0004 0 0 0 -0.0625,0 z" />
        <path
           inkscape:connector-curvature="0"
           style="opacity:0.75;fill:#000000;fill-opacity:1;stroke:none"
           d="m 58.46875,2.96875 c -2.952803,0.015585 -4.88681,0.1563362 -7.8125,0.5625 a 1.0001,1.0001 0 0 0 -0.03125,0 C 50.028037,3.6263098 49.458573,3.882945 49,4.3125 48.557881,4.7266425 48.271719,5.3565626 48.25,6.03125 l -0.03125,0 0,0.0625 -0.53125,8.3125 0,0.03125 c -0.05069,0.412002 -0.338274,0.658129 -0.625,0.75 -0.02268,0.0072 -0.01265,-0.0067 -0.03125,0 -0.06171,0.01752 -0.03146,0.0181 -0.0625,0.03125 -0.05031,0.02487 -0.120691,0.05996 -0.125,0.0625 -3.638733,0.996852 -7.108843,2.40093 -10.3125,4.25 -0.0088,0.0038 -0.02228,-0.0036 -0.03125,0 -0.267612,0.107197 -0.598676,0.09916 -0.90625,-0.15625 l -6.21875,-5.5 c -0.01791,-0.01791 -0.04412,-0.01402 -0.0625,-0.03125 -0.494111,-0.463175 -1.143676,-0.675946 -1.75,-0.65625 -0.628877,0.02043 -1.227767,0.237663 -1.71875,0.59375 -2.353871,1.779981 -3.867835,3.046152 -5.96875,5.125 -2.078816,2.100875 -3.375433,3.64502 -5.15625,6 -0.351956,0.485287 -0.573002,1.06159 -0.59375,1.6875 -0.02,0.603463 0.19805,1.261684 0.65625,1.75 l 0.03125,0.0625 5.53125,6.25 0.03125,0.03125 c 0.200353,0.278817 0.218384,0.570519 0.25,0.53125 0.0015,-0.0019 -0.0017,0.03465 0,0.03125 a 1.0001,1.0001 0 0 0 -0.03125,0.03125 c -2.006984,3.39598 -3.528999,7.09794 -4.5625,11 -0.08407,0.146503 -0.08066,0.161677 0,0.03125 -0.0051,0.0082 -0.02613,-0.008 -0.03125,0 -0.13842,0.216103 -0.283484,0.369846 -0.59375,0.40625 -0.01147,0.0013 -0.01933,-0.0011 -0.03125,0 L 7.03125,47.25 l -0.0625,0 0,0.03125 c -0.6746858,0.02172 -1.3046093,0.307883 -1.71875,0.75 -0.4295531,0.458571 -0.6861846,1.02804 -0.78125,1.625 a 1.0001,1.0001 0 0 0 0,0.03125 c -0.4062984,2.92666 -0.5469148,4.890985 -0.5625,7.84375 0.015585,2.952803 0.1563362,4.886809 0.5625,7.8125 a 1.0001,1.0001 0 0 0 0,0.03125 C 4.5638156,65.971957 4.8204478,66.541429 5.25,67 c 0.4141398,0.442117 1.0440625,0.728281 1.71875,0.75 l 0,0.03125 0.0625,0 8.34375,0.53125 0.03125,0 c 0.377307,0.04474 0.563682,0.245811 0.6875,0.53125 1.007991,3.726451 2.476909,7.269912 4.375,10.53125 0.141198,0.253115 0.172353,0.641914 -0.125,1 l -5.53125,6.25 c -0.01769,0.01769 -0.01421,0.04434 -0.03125,0.0625 -0.458202,0.488315 -0.676253,1.146536 -0.65625,1.75 0.02075,0.625911 0.241791,1.202211 0.59375,1.6875 1.780816,2.35497 3.077435,3.899117 5.15625,6 2.100914,2.078848 3.614877,3.345022 5.96875,5.125 0.49098,0.35608 1.089873,0.57332 1.71875,0.59375 0.606324,0.0197 1.255887,-0.19307 1.75,-0.65625 l 0.0625,-0.0313 6.21875,-5.5 c 0.358087,-0.297354 0.746883,-0.266198 1,-0.125 a 1.0001,1.0001 0 0 0 0.5,0.125 c 0.0081,0.0045 0.02314,-0.0045 0.03125,0 2.947041,1.643281 6.118135,2.938783 9.4375,3.875 0.01282,0.0036 0.01842,0.02765 0.03125,0.03125 a 1.0001,1.0001 0 0 0 0.4375,0.28125 c 0.279961,0.07946 0.603342,0.32558 0.65625,0.75 l 0,0.0313 0.53125,8.3125 0,0.0625 0.03125,0 c 0.02172,0.67469 0.307882,1.30461 0.75,1.71875 0.458571,0.42955 1.028041,0.68618 1.625,0.78125 a 1.0001,1.0001 0 0 0 0.03125,0 c 2.925692,0.40617 4.859698,0.54692 7.8125,0.5625 2.952811,-0.0156 4.886812,-0.15633 7.8125,-0.5625 a 1.0001,1.0001 0 0 0 0.03125,0 c 0.596957,-0.0951 1.166429,-0.3517 1.625,-0.78125 0.442118,-0.41414 0.728281,-1.04406 0.75,-1.71875 l 0.03125,0 0,-0.0625 0.53125,-8.3125 0,-0.0313 c 0.05291,-0.42442 0.376289,-0.67054 0.65625,-0.75 a 1.0001,1.0001 0 0 0 0.4375,-0.28125 c 3.333474,-0.936826 6.510325,-2.256621 9.46875,-3.90625 0.0081,-0.0045 0.02314,0.0045 0.03125,0 a 1.0001,1.0001 0 0 0 0.5,-0.125 c 0.253117,-0.141198 0.641913,-0.172354 1,0.125 l 6.21875,5.5 c 0.01791,0.0179 0.04412,0.014 0.0625,0.0313 0.494115,0.46318 1.143672,0.67595 1.75,0.65625 0.628881,-0.0204 1.227772,-0.23766 1.71875,-0.59375 2.353871,-1.779978 3.86783,-3.046153 5.96875,-5.125 2.07881,-2.100882 3.37543,-3.645029 5.15625,-6 0.35197,-0.485287 0.573,-1.061582 0.59375,-1.6875 0.02,-0.603471 -0.19804,-1.261685 -0.65625,-1.75 l -0.0313,-0.0625 -5.53125,-6.25 c -0.297357,-0.358092 -0.266199,-0.746882 -0.125,-1 1.898094,-3.261338 3.367009,-6.804799 4.375,-10.53125 0.12382,-0.285443 0.31019,-0.486516 0.6875,-0.53125 l 0.0313,0 8.34375,-0.53125 0.0625,0 0,-0.03125 c 0.67469,-0.02172 1.30461,-0.30788 1.71875,-0.75 0.42955,-0.458574 0.68619,-1.028039 0.78125,-1.625 a 1.0001,1.0001 0 0 0 0,-0.03125 c 0.40616,-2.925692 0.54691,-4.859699 0.5625,-7.8125 -0.0156,-2.952774 -0.15621,-4.917096 -0.5625,-7.84375 a 1.0001,1.0001 0 0 0 0,-0.03125 c -0.0951,-0.596963 -0.35169,-1.166426 -0.78125,-1.625 -0.41414,-0.44212 -1.04406,-0.728281 -1.71875,-0.75 l 0,-0.03125 -0.0625,0 -8.34375,-0.53125 c -0.0119,-0.0011 -0.0198,0.0013 -0.0313,0 -0.31028,-0.03641 -0.45532,-0.190139 -0.59375,-0.40625 -3.5e-4,-1.47e-4 -0.0311,-4.9e-5 -0.0313,0 -4.9e-4,1.3e-4 -7.5e-4,-0.03248 0,-0.03125 -1.053921,-3.930762 -2.845275,-7.47221 -4.5625,-10.90625 a 1.0001,1.0001 0 0 0 0,-0.03125 A 1.0001,1.0001 0 0 0 96.3125,35.25 c 0.037,0.074 0.04002,-0.270322 0.25,-0.5625 l 0.03125,-0.03125 5.53125,-6.25 0.0313,-0.0625 c 0.4582,-0.488318 0.67626,-1.146536 0.65625,-1.75 -0.0208,-0.62591 -0.2418,-1.202216 -0.59375,-1.6875 -1.78081,-2.354981 -3.07744,-3.899126 -5.15625,-6 -2.100913,-2.078859 -3.614872,-3.345019 -5.96875,-5.125 -0.490979,-0.356091 -1.089873,-0.573321 -1.71875,-0.59375 -0.606324,-0.0197 -1.255885,0.193079 -1.75,0.65625 -0.01838,0.01723 -0.04459,0.01334 -0.0625,0.03125 l -6.21875,5.5 c -0.307577,0.255412 -0.638637,0.263448 -0.90625,0.15625 -0.0081,-0.0047 -0.02316,0.0047 -0.03125,0 -3.203657,-1.84907 -6.673767,-3.253148 -10.3125,-4.25 0.0046,0.0027 -0.06235,-0.03607 -0.125,-0.0625 -0.02238,-0.0061 -0.04011,-0.02522 -0.0625,-0.03125 -0.01847,-0.0067 -0.0087,0.0072 -0.03125,0 -0.286726,-0.09187 -0.574314,-0.337996 -0.625,-0.75 l 0,-0.03125 -0.53125,-8.3125 0,-0.0625 -0.03125,0 C 68.665781,5.3565612 68.379619,4.7266418 67.9375,4.3125 67.478927,3.8829457 66.909461,3.62631 66.3125,3.53125 a 1.0001,1.0001 0 0 0 -0.03125,0 C 63.35556,3.1250862 61.421553,2.9843355 58.46875,2.96875 z"
           id="path6296" />
        <path
           inkscape:connector-curvature="0"
           style="opacity:0.25;fill:#000000;fill-opacity:1;stroke:none"
           d="M 58.46875,1.96875 C 55.485236,1.9844972 53.451266,2.1527856 50.5,2.5625 a 2.0002,2.0002 0 0 0 -0.03125,0 C 49.70412,2.6842589 48.946345,3.0000139 48.3125,3.59375 47.706992,4.1609426 47.288594,5.0405048 47.25,5.96875 l -0.03125,0 0,0.125 L 46.6875,14.25 c -3.699984,1.001583 -7.197294,2.476782 -10.46875,4.34375 l -0.03125,0 L 30.0625,13.1875 29.96875,13.09375 29.9375,13.125 C 29.251316,12.497567 28.357134,12.160672 27.53125,12.1875 26.663728,12.21568 25.880065,12.511793 25.25,12.96875 A 2.0002,2.0002 0 0 0 25.21875,13 c -2.372361,1.793963 -3.906557,3.116374 -6.03125,5.21875 -2.102307,2.124616 -3.454367,3.687927 -5.25,6.0625 a 2.0002,2.0002 0 0 0 -0.03125,0.03125 c -0.448697,0.618676 -0.752431,1.3806 -0.78125,2.25 -0.02741,0.826959 0.320405,1.73094 0.9375,2.40625 L 14.03125,29 l 0.09375,0.09375 5.375,6.125 c -1.873252,3.257702 -3.334064,6.795956 -4.34375,10.5 l -8.125,0.53125 -0.125,0 0,0.03125 c -0.9282459,0.03859 -1.807811,0.456995 -2.375,1.0625 C 3.9375177,47.977591 3.6217657,48.735377 3.5,49.5 a 2.0002,2.0002 0 0 0 0,0.03125 c -0.4099835,2.953205 -0.5780029,5.016561 -0.59375,8 C 2.9219972,60.514764 3.0902856,62.548733 3.5,65.5 a 2.0002,2.0002 0 0 0 0,0.03125 c 0.1217661,0.764621 0.4375195,1.52241 1.03125,2.15625 0.5671872,0.605504 1.4467508,1.023906 2.375,1.0625 l 0,0.03125 0.125,0 8.15625,0.53125 c 1.017861,3.687969 2.503595,7.199087 4.375,10.4375 l -5.4375,6.1875 -0.09375,0.09375 0.03125,0.03125 c -0.617098,0.67531 -0.964912,1.57929 -0.9375,2.40625 0.02882,0.869401 0.332548,1.631321 0.78125,2.25 A 2.0002,2.0002 0 0 0 13.9375,90.75 c 1.795632,2.374563 3.147694,3.937877 5.25,6.0625 2.124692,2.102375 3.658885,3.42479 6.03125,5.21875 a 2.0002,2.0002 0 0 0 0.03125,0.0313 c 0.630061,0.45695 1.413728,0.75307 2.28125,0.78125 0.825884,0.0268 1.720063,-0.31006 2.40625,-0.9375 l 0.03125,0.0313 0.09375,-0.0937 6.125,-5.40625 a 2.0002,2.0002 0 0 0 0.6875,0.21875 c 0.0082,0.0045 0.02306,-0.0045 0.03125,0 2.875917,1.579221 5.932969,2.854923 9.15625,3.78125 a 2.0002,2.0002 0 0 0 0.625,0.34375 l 0.53125,8.15625 0,0.125 0.03125,0 c 0.03859,0.92825 0.456995,1.80781 1.0625,2.375 0.633842,0.59373 1.391628,0.90948 2.15625,1.03125 a 2.0002,2.0002 0 0 0 0.03125,0 c 2.951269,0.40972 4.985237,0.57801 7.96875,0.59375 2.983529,-0.0157 5.01749,-0.18403 7.96875,-0.59375 a 2.0002,2.0002 0 0 0 0.03125,0 c 0.76462,-0.12177 1.522409,-0.43752 2.15625,-1.03125 0.605505,-0.56719 1.023906,-1.44675 1.0625,-2.375 l 0.03125,0 0,-0.125 0.53125,-8.15625 a 2.0002,2.0002 0 0 0 0.625,-0.34375 c 3.223281,-0.926327 6.280333,-2.202029 9.15625,-3.78125 0.0082,-0.0045 0.02306,0.0045 0.03125,0 A 2.0002,2.0002 0 0 0 80.75,96.4375 l 6.125,5.40625 0.09375,0.0937 L 87,101.90625 c 0.686186,0.62744 1.580357,0.96433 2.40625,0.9375 0.867531,-0.0282 1.651189,-0.32428 2.28125,-0.78125 a 2.0002,2.0002 0 0 0 0.03125,-0.0313 c 2.372362,-1.79396 3.906553,-3.116377 6.03125,-5.21875 2.1023,-2.124622 3.45437,-3.687935 5.25,-6.0625 a 2.0002,2.0002 0 0 0 0.0313,-0.03125 c 0.44872,-0.61868 0.75243,-1.380585 0.78125,-2.25 0.0274,-0.826974 -0.3204,-1.730943 -0.9375,-2.40625 l 0.0313,-0.03125 -0.0939,-0.0937 L 97.375,79.75 c 1.871409,-3.238414 3.35714,-6.749532 4.375,-10.4375 l 8.15625,-0.53125 0.125,0 0,-0.03125 c 0.92825,-0.03859 1.80781,-0.456991 2.375,-1.0625 0.59374,-0.633846 0.90949,-1.391622 1.03125,-2.15625 a 2.0002,2.0002 0 0 0 0,-0.03125 c 0.40971,-2.951267 0.578,-4.98524 0.59375,-7.96875 -0.0157,-2.983458 -0.18377,-5.046808 -0.59375,-8 a 2.0002,2.0002 0 0 0 0,-0.03125 c -0.12176,-0.76463 -0.43751,-1.522404 -1.03125,-2.15625 -0.56719,-0.60551 -1.44675,-1.023906 -2.375,-1.0625 l 0,-0.03125 -0.125,0 -8.125,-0.53125 C 100.71948,41.916451 99.027853,38.488572 97.40625,35.25 L 102.8125,29.09375 102.90625,29 102.875,28.96875 c 0.61709,-0.67531 0.96491,-1.579288 0.9375,-2.40625 -0.0288,-0.869402 -0.33256,-1.631331 -0.78125,-2.25 A 2.0002,2.0002 0 0 0 103,24.28125 C 101.20437,21.906673 99.852301,20.343363 97.75,18.21875 95.625308,16.116362 94.091118,14.793963 91.71875,13 A 2.0002,2.0002 0 0 0 91.6875,12.96875 C 91.057435,12.511784 90.273772,12.215681 89.40625,12.1875 88.580365,12.160672 87.686187,12.497575 87,13.125 L 86.96875,13.09375 86.875,13.1875 80.75,18.59375 c -0.0081,-0.0046 -0.02314,0.0046 -0.03125,0 C 77.467145,16.738112 73.987934,15.281987 70.3125,14.28125 70.29006,14.27514 70.272452,14.256078 70.25,14.25 l -0.53125,-8.15625 0,-0.125 -0.03125,0 C 69.648906,5.0405021 69.230508,4.1609412 68.625,3.59375 67.991155,3.0000153 67.233378,2.6842592 66.46875,2.5625 a 2.0002,2.0002 0 0 0 -0.03125,0 C 63.486234,2.1527856 61.452265,1.9844976 58.46875,1.96875 z"
           id="path6299" />
        <path
           inkscape:connector-curvature="0"
           style="fill:url(#linearGradient7843);fill-opacity:1;stroke:none"
           d="m 58.467887,3.964612 c -2.922091,0.015423 -4.798164,0.1552331 -7.698279,0.5578464 -0.858593,0.1367215 -1.56197,0.6966832 -1.56197,1.5619698 l -0.529954,8.4234798 c -0.079,0.852559 -0.675345,1.414101 -1.310939,1.617755 -0.01949,0.0062 -0.03624,0.02234 -0.05579,0.02789 -3.6745,0.986424 -7.160896,2.429622 -10.375942,4.295417 -0.58154,0.251638 -1.331803,0.236473 -1.952462,-0.278923 l -6.331557,-5.578464 c -0.611844,-0.611846 -1.499693,-0.510434 -2.203493,0 -2.335381,1.765999 -3.78025,2.99319 -5.857387,5.04851 -2.055324,2.077134 -3.282509,3.522001 -5.048509,5.857387 -0.510431,0.703796 -0.611844,1.591647 0,2.203493 l 5.578463,6.331556 c 0.422822,0.509184 0.657101,1.16822 0.418385,1.645647 l -0.05578,0.111569 c -2.004247,3.391349 -3.565629,7.08359 -4.574341,10.989574 -0.01057,0.01842 -0.01666,0.03763 -0.02789,0.05579 -0.283126,0.457738 -0.763482,0.831489 -1.422508,0.892554 l -8.4234805,0.529954 c -0.8652779,0 -1.4252396,0.703377 -1.56197,1.56197 -0.4026133,2.900116 -0.542423,4.776189 -0.5578463,7.69828 0.015423,2.922091 0.155233,4.798164 0.5578463,7.69828 0.1367304,0.858588 0.6966921,1.561969 1.56197,1.561969 l 8.4234805,0.529954 c 0.774153,0.07174 1.288345,0.577096 1.534077,1.143585 0.984693,3.698168 2.469031,7.197743 4.351202,10.431727 0.332852,0.596679 0.340625,1.440908 -0.223139,2.119817 l -5.578463,6.331556 c -0.611844,0.611842 -0.510434,1.499695 0,2.203492 1.766,2.335377 2.993185,3.780244 5.048509,5.857387 2.077137,2.05532 3.522005,3.282511 5.857387,5.048506 0.703798,0.51043 1.591649,0.61185 2.203493,0 l 6.331557,-5.57846 c 0.67891,-0.563764 1.523137,-0.55599 2.119816,-0.223139 l 0.08368,-0.08363 c 3.148623,1.800433 6.540809,3.221692 10.124911,4.183848 l 0,0.139461 c 0.657278,0.186553 1.285304,0.766945 1.366724,1.64564 l 0.529954,8.42348 c 0,0.86528 0.703377,1.42524 1.56197,1.56197 2.900115,0.40262 4.776188,0.54243 7.698279,0.55785 2.922092,-0.0154 4.798165,-0.15523 7.69828,-0.55785 0.858589,-0.13673 1.56197,-0.69669 1.56197,-1.56197 l 0.529954,-8.42348 c 0.08142,-0.878695 0.709446,-1.459087 1.366724,-1.64564 l 0,-0.139461 c 3.584102,-0.962156 6.976288,-2.383415 10.124911,-4.183848 l 0.08368,0.08363 c 0.596679,-0.332851 1.440906,-0.340625 2.119816,0.223139 l 6.331553,5.57846 c 0.611855,0.61186 1.499705,0.51044 2.203493,0 2.335379,-1.765995 3.780245,-2.993186 5.857389,-5.048506 2.05532,-2.077143 3.28251,-3.52201 5.048509,-5.857387 0.51045,-0.703788 0.61186,-1.591642 0,-2.203492 L 95.8157,81.003196 c -0.563764,-0.678913 -0.55599,-1.523138 -0.223139,-2.119817 1.882174,-3.233984 3.366509,-6.733559 4.351202,-10.431727 0.245727,-0.566489 0.759917,-1.07185 1.534077,-1.143585 l 8.42348,-0.529954 c 0.86529,0 1.42525,-0.703381 1.56197,-1.561969 0.40261,-2.900116 0.54242,-4.776189 0.55785,-7.69828 -0.0154,-2.922091 -0.15524,-4.798164 -0.55785,-7.69828 -0.13672,-0.858593 -0.69668,-1.56197 -1.56197,-1.56197 l -8.42348,-0.529954 c -0.65903,-0.06107 -1.13938,-0.434816 -1.42251,-0.892554 -0.005,-0.01957 -0.0228,-0.03623 -0.0279,-0.05579 -1.008706,-3.905984 -2.812621,-7.466136 -4.574335,-10.989574 l -0.05579,-0.111569 c -0.238713,-0.477427 -0.0045,-1.136463 0.418385,-1.645647 l 5.57846,-6.331556 c 0.61185,-0.611855 0.51043,-1.499697 0,-2.203493 -1.765995,-2.335386 -2.993186,-3.780253 -5.048506,-5.857387 -2.077134,-2.055329 -3.522001,-3.282511 -5.857389,-5.04851 -0.703787,-0.510434 -1.591638,-0.611846 -2.203493,0 l -6.331552,5.578464 c -0.620661,0.515396 -1.370923,0.530561 -1.952463,0.278923 -3.215047,-1.865795 -6.701442,-3.308993 -10.375942,-4.295417 -0.01955,-0.0055 -0.0363,-0.02164 -0.05579,-0.02789 -0.635594,-0.203654 -1.231938,-0.765196 -1.310939,-1.617755 L 67.728137,6.0844282 c 0,-0.8652866 -0.703381,-1.4252483 -1.56197,-1.5619698 -2.900115,-0.4026133 -4.776188,-0.542423 -7.69828,-0.5578464 z"
           id="path3139-4"
           sodipodi:nodetypes="ccccssccccccccsccscccccccccccccccccccccccccccccccccccccccccccccccssssccccccccsscccc" />
        <path
           inkscape:connector-curvature="0"
           style="opacity:0.43122678;fill:url(#radialGradient7845);fill-opacity:1;stroke:none"
           mask="none"
           clip-path="url(#clipPath5073-1)"
           d="m 76.90625,-70.062499 c -2.912256,3.972096 -7.607051,6.5625 -12.90625,6.5625 -4.895788,0 -9.283068,-2.188651 -12.21875,-5.65625 l -31.5,30.75 c 0.408832,0.434 0.807117,0.86458 1.28125,1.34375 2.32718,2.30274 3.94598,3.67766 6.5625,5.65625 0.78852,0.57188 1.78325,0.6855 2.46875,0 l 7.09375,-6.25 c 0.76064,-0.63163 1.70649,-0.62292 2.375,-0.25 l 0.09375,-0.09375 c 3.52766,2.01717 7.328189,3.60952 11.34375,4.6875 l 0,0.15625 c 0.736402,0.20901 1.440029,0.85927 1.53125,1.84375 l 0.59375,9.4375 c 10e-7,0.96944 0.78805,1.59681 1.75,1.75 3.249233,0.45108 5.351147,0.60772 8.625,0.625 3.273854,-0.01728 5.375768,-0.17392 8.625,-0.625 0.961947,-0.15319 1.75,-0.78056 1.75,-1.75 l 0.59375,-9.4375 c 0.09122,-0.98448 0.794849,-1.63474 1.53125,-1.84375 l 0,-0.15625 c 4.015558,-1.07798 7.816095,-2.67033 11.34375,-4.6875 l 0.09375,0.09375 c 0.668508,-0.37292 1.614362,-0.38163 2.375,0.25 l 7.09375,6.25 c 0.685504,0.68551 1.680237,0.57189 2.46875,0 2.61651,-1.97859 4.23531,-3.35351 6.5625,-5.65625 0.48542,-0.49057 0.8952,-0.93141 1.3125,-1.375 l -30.84375,-31.625 z"
           id="path4953-0"
           transform="matrix(0.89255418,0,0,0.89255418,1.3444194,128.47592)" />
        <path
           inkscape:connector-curvature="0"
           id="path5079-4"
           d="m 76.90625,-70.062499 c -2.912256,3.972096 -7.607051,6.5625 -12.90625,6.5625 -4.895788,0 -9.283068,-2.188651 -12.21875,-5.65625 l -31.5,30.75 c 0.408832,0.434 0.807117,0.86458 1.28125,1.34375 2.32718,2.30274 3.94598,3.67766 6.5625,5.65625 0.78852,0.57188 1.78325,0.6855 2.46875,0 l 7.09375,-6.25 c 0.76064,-0.63163 1.70649,-0.62292 2.375,-0.25 l 0.09375,-0.09375 c 3.52766,2.01717 7.328189,3.60952 11.34375,4.6875 l 0,0.15625 c 0.736402,0.20901 1.440029,0.85927 1.53125,1.84375 l 0.59375,9.4375 c 10e-7,0.96944 0.78805,1.59681 1.75,1.75 3.249233,0.45108 5.351147,0.60772 8.625,0.625 3.273854,-0.01728 5.375768,-0.17392 8.625,-0.625 0.961947,-0.15319 1.75,-0.78056 1.75,-1.75 l 0.59375,-9.4375 c 0.09122,-0.98448 0.794849,-1.63474 1.53125,-1.84375 l 0,-0.15625 c 4.015558,-1.07798 7.816095,-2.67033 11.34375,-4.6875 l 0.09375,0.09375 c 0.668508,-0.37292 1.614362,-0.38163 2.375,0.25 l 7.09375,6.25 c 0.685504,0.68551 1.680237,0.57189 2.46875,0 2.61651,-1.97859 4.23531,-3.35351 6.5625,-5.65625 0.48542,-0.49057 0.8952,-0.93141 1.3125,-1.375 l -30.84375,-31.625 z"
           clip-path="url(#clipPath5073-1)"
           mask="none"
           style="opacity:0.43122678;fill:url(#radialGradient7847);fill-opacity:1;stroke:none"
           transform="matrix(-0.89255418,0,0,-0.89255418,115.57979,-13.432652)" />
        <path
           inkscape:connector-curvature="0"
           mask="none"
           style="fill:none;stroke:url(#linearGradient7849);stroke-width:1;stroke-linecap:round;stroke-linejoin:round;stroke-miterlimit:4;stroke-opacity:1;stroke-dasharray:none;stroke-dashoffset:1.08779998"
           d="m 63.969328,3.96691 c -3.27385,0.01728 -5.37577,0.17392 -8.625,0.625 -0.96195,0.15318 -1.75,0.78055 -1.75,1.75 l -0.59375,9.4375 c -0.08851,0.95519 -0.75664,1.58433 -1.46875,1.8125 -0.02183,0.007 -0.0406,0.02503 -0.0625,0.03125 -4.11684,1.10517 -8.02293,2.7221 -11.625,4.8125 -0.65155,0.28193 -1.49213,0.26494 -2.1875,-0.3125 l -7.09375,-6.25 c -0.6855,-0.6855 -1.68023,-0.57188 -2.46875,0 -2.61651,1.97859 -4.23532,3.3535 -6.5625,5.65625 -2.30274,2.32718 -3.67766,3.94598 -5.65625,6.5625 -0.57188,0.78852 -0.6855,1.78325 0,2.46875 l 6.25,7.09375 c 0.47372,0.57048 0.7362,1.30885 0.46875,1.84375 l -0.0625,0.125 c -2.24552,3.7996 -3.99486,7.936315 -5.125,12.312505 -0.01184,0.02064 -0.01867,0.04216 -0.03125,0.0625 -0.31721,0.512841 -0.85539,0.931584 -1.59375,1 l -9.4375003,0.59375 c -0.9694401,0 -1.5968101,0.78805 -1.7500001,1.75 -0.45108,3.249232 -0.60772,5.351147 -0.625,8.625 0.01728,3.273853 0.17392,5.375768 0.625,8.625 0.15319,0.961946 0.78056,1.75 1.7500001,1.75 l 9.4375003,0.59375 c 0.86735,0.08037 1.44344,0.646567 1.71875,1.28125 1.10323,4.143354 2.76625,8.064208 4.875,11.6875 0.37292,0.668507 0.38163,1.614364 -0.25,2.375 l -6.25,7.09375 c -0.6855,0.685496 -0.57188,1.680225 0,2.468755 1.97859,2.61651 3.35351,4.23531 5.65625,6.5625 2.32718,2.30274 3.94598,3.67766 6.5625,5.65625 0.78852,0.57188 1.78325,0.6855 2.46875,0 l 7.09375,-6.25 c 0.76064,-0.63163 1.70649,-0.62292 2.375,-0.25 l 0.09375,-0.0937 c 3.52766,2.01717 7.32819,3.60952 11.34375,4.6875 l 0,0.15625 c 0.7364,0.20901 1.44003,0.85927 1.53125,1.84375 l 0.59375,9.4375 c 0,0.96944 0.78805,1.59681 1.75,1.75 3.24923,0.45108 5.35115,0.60772 8.625,0.625 3.27385,-0.0173 5.37577,-0.17392 8.625,-0.625 0.96195,-0.15319 1.75,-0.78056 1.75,-1.75 l 0.59375,-9.4375 c 0.09122,-0.98448 0.79485,-1.63474 1.53125,-1.84375 l 0,-0.15625 c 4.01556,-1.07798 7.8161,-2.67033 11.34375,-4.6875 l 0.09375,0.0937 c 0.66851,-0.37292 1.61436,-0.38163 2.375,0.25 l 7.09375,6.25 c 0.6855,0.68551 1.68024,0.57189 2.46875,0 2.616512,-1.97859 4.235312,-3.35351 6.562502,-5.65625 2.30274,-2.32719 3.67766,-3.94599 5.65625,-6.5625 0.57189,-0.78852 0.68551,-1.78325 0,-2.468755 l -6.25,-7.09375 c -0.63163,-0.76064 -0.62292,-1.706493 -0.25,-2.375 2.10875,-3.623292 3.77177,-7.544146 4.875,-11.6875 0.27531,-0.634683 0.8514,-1.20088 1.71875,-1.28125 l 9.4375,-0.59375 c 0.96945,0 1.59682,-0.788054 1.75,-1.75 0.45108,-3.249232 0.60772,-5.351147 0.625,-8.625 -0.0173,-3.273853 -0.17392,-5.375768 -0.625,-8.625 -0.15318,-0.96195 -0.78055,-1.75 -1.75,-1.75 l -9.4375,-0.59375 c -0.73836,-0.06842 -1.27654,-0.487159 -1.59375,-1 -0.006,-0.02192 -0.0256,-0.04059 -0.0313,-0.0625 -1.13014,-4.37619 -3.15121,-8.36491 -5.125,-12.312505 l -0.0625,-0.125 c -0.26745,-0.5349 -0.005,-1.27327 0.46875,-1.84375 l 6.25,-7.09375 c 0.68551,-0.68551 0.57188,-1.68023 0,-2.46875 -1.97859,-2.61652 -3.35351,-4.23532 -5.65625,-6.5625 -2.32718,-2.30275 -3.94598,-3.67766 -6.562502,-5.65625 -0.78852,-0.57188 -1.78324,-0.68551 -2.46875,0 l -7.09375,6.25 c -0.69538,0.57744 -1.53595,0.59443 -2.1875,0.3125 -3.60207,-2.0904 -7.50816,-3.70733 -11.625,-4.8125 -0.0219,-0.0062 -0.04067,-0.02425 -0.0625,-0.03125 -0.71211,-0.22817 -1.38024,-0.85731 -1.46875,-1.8125 l -0.59375,-9.4375 c 0,-0.96945 -0.78805,-1.59682 -1.75,-1.75 -3.24923,-0.45108 -5.35115,-0.60772 -8.625,-0.625 z"
           id="path5139-3"
           sodipodi:nodetypes="ccccssccccccccsccscccccccccccccccccccccccccccccccccccccccccccccccssssccccccccsscccc"
           transform="matrix(0.89255418,0,0,0.89255418,1.3444181,0.39439532)" />
        <path
           transform="matrix(0.52590488,0,0,0.52590488,-105.00962,0.27838863)"
           d="m 366.04225,108.83997 c 0,30.48187 -24.71044,55.19231 -55.1923,55.19231 -30.48187,0 -55.19231,-24.71044 -55.19231,-55.19231 0,-30.481866 24.71044,-55.192303 55.19231,-55.192303 30.48186,0 55.1923,24.710437 55.1923,55.192303 z"
           sodipodi:ry="55.192307"
           sodipodi:rx="55.192307"
           sodipodi:cy="108.83997"
           sodipodi:cx="310.84995"
           id="path3300-9"
           style="fill:none;stroke:url(#linearGradient7851);stroke-width:1.69717801;stroke-linecap:round;stroke-linejoin:round;stroke-miterlimit:4;stroke-opacity:1;stroke-dasharray:none;stroke-dashoffset:1.08779998"
           sodipodi:type="arc" />
        <path
           inkscape:connector-curvature="0"
           style="fill:#343434;fill-opacity:0.07755103;stroke:none"
           d="M 64,31.46875 C 46.048934,31.46875 31.468751,46.048934 31.46875,64 31.46875,81.951066 46.048937,96.531253 64,96.53125 81.951066,96.53125 96.53125,81.951065 96.53125,64 96.53125,46.048934 81.951069,31.468751 64,31.46875 z"
           id="path3326-9"
           sodipodi:nodetypes="csssc"
           transform="matrix(0.89255418,0,0,0.89255418,1.3444181,0.39439532)" />
        <g
           id="g6285">
          <path
             sodipodi:type="arc"
             style="fill:#000000;fill-opacity:0.44751383;stroke:none"
             id="path6914-7"
             sodipodi:cx="67.203072"
             sodipodi:cy="65.086487"
             sodipodi:rx="12.582703"
             sodipodi:ry="12.582703"
             d="m 79.785774,65.086487 c 0,6.949235 -5.633468,12.582702 -12.582702,12.582702 -6.949235,0 -12.582703,-5.633467 -12.582703,-12.582702 0,-6.949235 5.633468,-12.582703 12.582703,-12.582703 6.949234,0 12.582702,5.633468 12.582702,12.582703 z"
             transform="matrix(1.3185459,0,0.01014266,1.2678326,-30.368506,-22.242051)" />
          <path
             transform="matrix(0.89255418,0,0,0.89255418,1.3444181,0.39439532)"
             d="m 82.502365,64.505531 c 0,10.051059 -8.147993,18.199051 -18.199051,18.199051 -10.051058,0 -18.199051,-8.147992 -18.199051,-18.199051 0,-10.051058 8.147993,-18.199051 18.199051,-18.199051 10.051058,0 18.199051,8.147993 18.199051,18.199051 z"
             sodipodi:ry="18.199051"
             sodipodi:rx="18.199051"
             sodipodi:cy="64.505531"
             sodipodi:cx="64.303314"
             id="path2938-3"
             style="fill:url(#radialGradient7853);fill-opacity:1;stroke:none"
             sodipodi:type="arc" />
          <path
             transform="matrix(0.89255418,0,0,0.89255418,1.3444181,0.39439532)"
             id="path6876-1"
             d="m 64.313114,45.597574 c -10.445813,0 -18.93429,8.456 -18.93429,18.901812 0,10.445813 8.488477,18.93429 18.93429,18.93429 10.445812,0 18.901812,-8.488477 18.901812,-18.93429 0,-10.445812 -8.456,-18.901812 -18.901812,-18.901812 z m 0,1.331571 c 9.707182,0 17.570241,7.863059 17.570241,17.570241 0,9.707182 -7.863059,17.570242 -17.570241,17.570242 -9.707182,0 -17.570242,-7.86306 -17.570242,-17.570242 0,-9.707182 7.86306,-17.570241 17.570242,-17.570241 z"
             style="fill:#3b4d09;fill-opacity:1;stroke:none"
             inkscape:connector-curvature="0" />
          <path
             sodipodi:nodetypes="csssc"
             id="path6891-1"
             d="m 70.683723,50.100202 c 0,4.441976 -5.383239,8.042908 -12.023802,8.042908 -6.640563,0 -12.023802,-3.600932 -12.023802,-8.042908 0,-4.441974 5.383239,-8.215984 12.023802,-8.215984 6.640563,0 12.023802,3.77401 12.023802,8.215984 z"
             style="fill:url(#linearGradient7855);fill-opacity:1;stroke:none"
             inkscape:connector-curvature="0" />
          <path
             transform="matrix(0.89255418,0,0,0.89255418,1.3444181,0.39439532)"
             sodipodi:type="arc"
             style="fill:url(#radialGradient7857);fill-opacity:1;stroke:none"
             id="path6916-7"
             sodipodi:cx="64.303314"
             sodipodi:cy="64.505531"
             sodipodi:rx="18.199051"
             sodipodi:ry="18.199051"
             d="m 82.502365,64.505531 c 0,10.051059 -8.147993,18.199051 -18.199051,18.199051 -10.051058,0 -18.199051,-8.147992 -18.199051,-18.199051 0,-10.051058 8.147993,-18.199051 18.199051,-18.199051 10.051058,0 18.199051,8.147993 18.199051,18.199051 z" />
        </g>
      </g>
    </g>
  </g>
</svg>
