<?xml version="1.0" encoding="UTF-8" standalone="no"?>
<!-- Created with Inkscape (http://www.inkscape.org/) -->

<svg
   xmlns:dc="http://purl.org/dc/elements/1.1/"
   xmlns:cc="http://creativecommons.org/ns#"
   xmlns:rdf="http://www.w3.org/1999/02/22-rdf-syntax-ns#"
   xmlns:svg="http://www.w3.org/2000/svg"
   xmlns="http://www.w3.org/2000/svg"
   xmlns:xlink="http://www.w3.org/1999/xlink"
   xmlns:sodipodi="http://sodipodi.sourceforge.net/DTD/sodipodi-0.dtd"
   xmlns:inkscape="http://www.inkscape.org/namespaces/inkscape"
   width="96"
   height="96"
   id="svg2"
   sodipodi:version="0.32"
   inkscape:version="0.48.3.1 r9886"
   version="1.0"
   sodipodi:docname="emblem-unreadable1.svg"
   inkscape:output_extension="org.inkscape.output.svgz.inkscape"
   inkscape:export-filename="/home/david/sandbox/status-busy-32.png"
   inkscape:export-xdpi="22.5"
   inkscape:export-ydpi="22.5">
  <defs
     id="defs4">
    <linearGradient
       id="linearGradient3152">
      <stop
         style="stop-color:#d5d5d5;stop-opacity:1;"
         offset="0"
         id="stop3154" />
      <stop
         id="stop7048"
         offset="0.5"
         style="stop-color:#d5d5d5;stop-opacity:1;" />
      <stop
         style="stop-color:#ffffff;stop-opacity:1;"
         offset="1"
         id="stop3156" />
    </linearGradient>
    <linearGradient
       inkscape:collect="always"
       xlink:href="#linearGradient3152"
       id="linearGradient3014"
       gradientUnits="userSpaceOnUse"
       gradientTransform="matrix(0.65624998,0,0,0.65624998,5.9999985,37.999999)"
       x1="56.25"
       y1="48"
       x2="57"
       y2="64.007812" />
    <linearGradient
       id="linearGradient3148">
      <stop
         style="stop-color:#600000;stop-opacity:1;"
         offset="0"
         id="stop3150" />
      <stop
         style="stop-color:#bf0000;stop-opacity:1"
         offset="1"
         id="stop3152" />
    </linearGradient>
    <linearGradient
       id="linearGradient3166">
      <stop
         style="stop-color:#e20800;stop-opacity:1"
         offset="0"
         id="stop3168" />
      <stop
         id="stop3564"
         offset="0.48148149"
         style="stop-color:#d80500;stop-opacity:1;" />
      <stop
         style="stop-color:#590000;stop-opacity:1"
         offset="1"
         id="stop3170" />
    </linearGradient>
    <linearGradient
       inkscape:collect="always"
       id="linearGradient3188">
      <stop
         style="stop-color:#ffaa00;stop-opacity:1;"
         offset="0"
         id="stop3190" />
      <stop
         style="stop-color:#ffaa00;stop-opacity:0;"
         offset="1"
         id="stop3192" />
    </linearGradient>
    <filter
       color-interpolation-filters="sRGB"
       inkscape:collect="always"
       id="filter3318">
      <feGaussianBlur
         inkscape:collect="always"
         stdDeviation="0.33907178"
         id="feGaussianBlur3320" />
    </filter>
    <linearGradient
       id="linearGradient3203">
      <stop
         style="stop-color:#ffbfbf;stop-opacity:1;"
         offset="0"
         id="stop3205" />
      <stop
         style="stop-color:#ffbfbf;stop-opacity:0;"
         offset="1"
         id="stop3207" />
    </linearGradient>
    <linearGradient
       inkscape:collect="always"
       id="linearGradient3254">
      <stop
         style="stop-color:#ffffff;stop-opacity:1;"
         offset="0"
         id="stop3256" />
      <stop
         style="stop-color:#ffffff;stop-opacity:0;"
         offset="1"
         id="stop3258" />
    </linearGradient>
    <linearGradient
       inkscape:collect="always"
       id="linearGradient3282">
      <stop
         style="stop-color:#ffffff;stop-opacity:1;"
         offset="0"
         id="stop3284" />
      <stop
         style="stop-color:#ffffff;stop-opacity:0;"
         offset="1"
         id="stop3286" />
    </linearGradient>
    <linearGradient
       inkscape:collect="always"
       xlink:href="#linearGradient3188"
       id="linearGradient3130"
       gradientUnits="userSpaceOnUse"
       x1="59.355339"
       y1="114.03454"
       x2="59.757221"
       y2="17.476311" />
    <linearGradient
       inkscape:collect="always"
       xlink:href="#linearGradient3282"
       id="linearGradient3139"
       gradientUnits="userSpaceOnUse"
       gradientTransform="matrix(0.80769232,0,0,0.80769232,-3.6923078,28.307664)"
       x1="58.855938"
       y1="13.276386"
       x2="58.800629"
       y2="43.014843" />
    <linearGradient
       inkscape:collect="always"
       xlink:href="#linearGradient3254"
       id="linearGradient3142"
       gradientUnits="userSpaceOnUse"
       gradientTransform="matrix(0.80769232,0,0,0.80769232,-3.6923078,28.307664)"
       x1="97.911537"
       y1="86.30513"
       x2="71.094215"
       y2="39.373199" />
    <linearGradient
       inkscape:collect="always"
       xlink:href="#linearGradient3203"
       id="linearGradient3145"
       gradientUnits="userSpaceOnUse"
       gradientTransform="matrix(0.80769232,0,0,0.80769232,-3.6923078,28.307664)"
       x1="64.968697"
       y1="9.5585432"
       x2="89.705704"
       y2="101.87831" />
    <radialGradient
       inkscape:collect="always"
       xlink:href="#linearGradient3166"
       id="radialGradient3149"
       gradientUnits="userSpaceOnUse"
       gradientTransform="matrix(1.1463173,0,0,1.1380565,-25.364301,8.8845639)"
       cx="63.999996"
       cy="74.182564"
       fx="63.999996"
       fy="74.182564"
       r="48" />
    <linearGradient
       inkscape:collect="always"
       xlink:href="#linearGradient3148"
       id="linearGradient3153"
       gradientUnits="userSpaceOnUse"
       gradientTransform="matrix(0.80769232,0,0,0.80766016,-3.6923078,28.311395)"
       x1="71.937202"
       y1="114.73783"
       x2="71.937202"
       y2="7.5424786" />
  </defs>
  <sodipodi:namedview
     id="base"
     pagecolor="#ffffff"
     bordercolor="#666666"
     borderopacity="1.0"
     gridtolerance="10000"
     guidetolerance="10"
     objecttolerance="10"
     inkscape:pageopacity="0.0"
     inkscape:pageshadow="2"
     inkscape:zoom="4.35"
     inkscape:cx="48"
     inkscape:cy="48"
     inkscape:document-units="px"
     inkscape:current-layer="layer1"
     width="128px"
     height="128px"
     inkscape:showpageshadow="false"
     showgrid="false"
     inkscape:window-width="1024"
     inkscape:window-height="699"
     inkscape:window-x="0"
     inkscape:window-y="26"
     inkscape:window-maximized="0"
     fit-margin-top="0"
     fit-margin-left="0"
     fit-margin-right="0"
     fit-margin-bottom="0">
    <inkscape:grid
       id="GridFromPre046Settings"
       type="xygrid"
       originx="0px"
       originy="0px"
       spacingx="4px"
       spacingy="4px"
       color="#3f3fff"
       empcolor="#3f3fff"
       opacity="0.15"
       empopacity="0.38"
       empspacing="2"
       visible="true"
       enabled="true"
       snapvisiblegridlinesonly="true" />
  </sodipodi:namedview>
  <metadata
     id="metadata7">
    <rdf:RDF>
      <cc:Work
         rdf:about="">
        <dc:format>image/svg+xml</dc:format>
        <dc:type
           rdf:resource="http://purl.org/dc/dcmitype/StillImage" />
        <dc:title></dc:title>
      </cc:Work>
    </rdf:RDF>
  </metadata>
  <g
     inkscape:label="Layer 1"
     inkscape:groupmode="layer"
     id="layer1"
     transform="translate(0,-32)">
    <g
       id="g3925">
      <path
         style="fill:none;fill-opacity:1;stroke:#550000"
         d="m 31.375003,38.003356 c -0.565674,0.06117 -1.092906,0.315683 -1.492647,0.720558 L 6.7205949,61.884754 c -0.4629346,0.46456 -0.722169,1.094106 -0.7205876,1.749929 l 0,32.733987 c -0.00162,0.655823 0.257653,1.285368 0.7205876,1.749928 L 29.882356,121.27945 c 0.464579,0.46289 1.09415,0.72213 1.75,0.72055 l 32.73529,0 c 0.655849,0.002 1.28542,-0.25766 1.749999,-0.72055 L 89.279411,98.118598 c 0.462928,-0.46456 0.722165,-1.094105 0.720582,-1.749928 l 0,-32.733987 c 0.0016,-0.655823 -0.257654,-1.285369 -0.720582,-1.749929 L 66.117645,38.723914 c -0.464579,-0.462916 -1.09415,-0.72214 -1.749999,-0.720558 l -32.73529,0 c -0.08572,-0.0045 -0.171627,-0.0045 -0.257353,0 z"
         id="path3155"
         sodipodi:nodetypes="cccccccccccccccccc"
         inkscape:connector-curvature="0" />
      <path
         inkscape:connector-curvature="0"
         sodipodi:nodetypes="cccccccccccccccccc"
         id="path3134"
         d="m 31.375003,38.003356 c -0.565674,0.06117 -1.092906,0.315683 -1.492647,0.720558 L 6.7205949,61.884754 c -0.4629346,0.46456 -0.722169,1.094106 -0.7205876,1.749929 l 0,32.733987 c -0.00162,0.655823 0.257653,1.285368 0.7205876,1.749928 L 29.882356,121.27945 c 0.464579,0.46289 1.09415,0.72213 1.75,0.72055 l 32.73529,0 c 0.655849,0.002 1.28542,-0.25766 1.749999,-0.72055 L 89.279411,98.118598 c 0.462928,-0.46456 0.722165,-1.094105 0.720582,-1.749928 l 0,-32.733987 c 0.0016,-0.655823 -0.257654,-1.285369 -0.720582,-1.749929 L 66.117645,38.723914 c -0.464579,-0.462916 -1.09415,-0.72214 -1.749999,-0.720558 l -32.73529,0 c -0.08572,-0.0045 -0.171627,-0.0045 -0.257353,0 z"
         style="fill:url(#linearGradient3153);fill-opacity:1;stroke:none" />
      <path
         inkscape:connector-curvature="0"
         id="rect3129"
         d="m 31.947116,41.230741 -22.7163468,22.716347 0,32.105769 22.7163468,22.716343 32.105769,0 22.716346,-22.716343 0,-32.105769 -22.716346,-22.716347 -32.105769,0 z"
         style="fill:url(#radialGradient3149);fill-opacity:1;stroke:none" />
      <path
         transform="matrix(0.8144548,0,0,0.8144548,-4.1251058,27.874865)"
         inkscape:connector-curvature="0"
         id="path3174"
         d="m 44.03125,15.5625 a 0.43886976,0.43886976 0 0 0 -0.21875,0.125 l -28.125,28.125 a 0.43886976,0.43886976 0 0 0 -0.125,0.3125 l 0,39.75 a 0.43886976,0.43886976 0 0 0 0.125,0.3125 l 28.125,28.125 a 0.43886976,0.43886976 0 0 0 0.3125,0.125 l 39.75,0 a 0.43886976,0.43886976 0 0 0 0.3125,-0.125 l 28.125,-28.125 a 0.43886976,0.43886976 0 0 0 0.125,-0.3125 l 0,-39.75 a 0.43886976,0.43886976 0 0 0 -0.125,-0.3125 l -28.125,-28.125 a 0.43886976,0.43886976 0 0 0 -0.3125,-0.125 l -39.75,0 a 0.43886976,0.43886976 0 0 0 -0.09375,0 z m 0.28125,0.875 39.375,0 27.875,27.875 0,39.375 -27.875,27.875 -39.375,0 -27.875,-27.875 0,-39.375 27.875,-27.875 z"
         style="font-size:medium;font-style:normal;font-variant:normal;font-weight:normal;font-stretch:normal;text-indent:0;text-align:start;text-decoration:none;line-height:normal;letter-spacing:normal;word-spacing:normal;text-transform:none;direction:ltr;block-progression:tb;writing-mode:lr-tb;text-anchor:start;baseline-shift:baseline;color:#000000;fill:url(#linearGradient3130);fill-opacity:1;stroke:none;stroke-width:0.87765175;marker:none;visibility:visible;display:inline;overflow:visible;filter:url(#filter3318);enable-background:accumulate;font-family:Sans;-inkscape-font-specification:Sans" />
      <path
         inkscape:connector-curvature="0"
         id="path3196"
         d="m 31.947116,41.230741 -22.7163468,22.716347 0,17.11298 C 18.699363,82.877239 29.1249,83.88699 40.09976,83.886991 c 17.501233,0 33.675984,-2.569051 46.669471,-6.890625 l 0,-13.049278 -22.716346,-22.716347 -32.105769,0 z"
         style="fill:url(#linearGradient3145);fill-opacity:1;stroke:none" />
      <path
         inkscape:connector-curvature="0"
         sodipodi:nodetypes="cccccccccsccc"
         id="path3211"
         d="m 64.126587,41.275752 0.286907,0.536762 c 5.637166,5.637165 16.121944,16.580994 21.75979,22.218842 l -0.236985,6.629673 -0.129465,5.802926 c -24.184073,7.239846 -50.895041,8.979803 -75.768372,4.45743 0,-0.03366 0,-0.0673 0,-0.100961 l -0.8076928,0 0,0.239644 C 18.699363,82.877239 29.1249,83.88699 40.09976,83.886991 c 17.501233,0 33.675984,-2.569051 46.669471,-6.890625 l 0,-13.049278 -22.642644,-22.671336 z"
         style="opacity:0.90499998;fill:url(#linearGradient3142);fill-opacity:1;stroke:none" />
      <path
         inkscape:connector-curvature="0"
         sodipodi:nodetypes="ccccccccc"
         id="path3273"
         d="m 31.947116,40.826894 -22.7163468,23.120194 0,1.211538 22.7163468,-22.716346 32.105769,0 22.716346,22.716346 0,-1.211538 -22.716346,-23.120194 -32.105769,0 z"
         style="fill:url(#linearGradient3139);fill-opacity:1;stroke:none" />
    </g>
    <g
       id="g3020">
      <rect
         style="fill:url(#linearGradient3014);fill-opacity:1;stroke:none"
         id="rect5203"
         width="52.5"
         height="21"
         x="21.749998"
         y="69.5" />
      <rect
         y="69.5"
         x="21.749998"
         height="21"
         width="52.5"
         id="rect3011"
         style="fill:none;stroke:#800000;stroke-width:1;stroke-miterlimit:0;stroke-opacity:1;stroke-dasharray:none" />
    </g>
  </g>
</svg>
