<?xml version="1.0" encoding="UTF-8" standalone="no"?>
<!-- Created with Inkscape (http://www.inkscape.org/) -->

<svg
   xmlns:dc="http://purl.org/dc/elements/1.1/"
   xmlns:cc="http://creativecommons.org/ns#"
   xmlns:rdf="http://www.w3.org/1999/02/22-rdf-syntax-ns#"
   xmlns:svg="http://www.w3.org/2000/svg"
   xmlns="http://www.w3.org/2000/svg"
   xmlns:xlink="http://www.w3.org/1999/xlink"
   xmlns:sodipodi="http://sodipodi.sourceforge.net/DTD/sodipodi-0.dtd"
   xmlns:inkscape="http://www.inkscape.org/namespaces/inkscape"
   width="96"
   height="96"
   id="svg7526"
   sodipodi:version="0.32"
   inkscape:version="0.48.3.1 r9886"
   sodipodi:docname="folder-remote.svg"
   inkscape:output_extension="org.inkscape.output.svg.inkscape"
   version="1.1"
   inkscape:export-filename="folder-remote.png"
   inkscape:export-xdpi="90"
   inkscape:export-ydpi="90">
  <defs
     id="defs7528">
    <linearGradient
       inkscape:collect="always"
       xlink:href="#linearGradient5048-45"
       id="linearGradient3247"
       gradientUnits="userSpaceOnUse"
       gradientTransform="matrix(0.125709,0,0,0.0864706,2.5651808,-10.70427)"
       x1="302.85715"
       y1="366.64789"
       x2="302.85715"
       y2="609.50507" />
    <linearGradient
       id="linearGradient5048-45">
      <stop
         style="stop-color:black;stop-opacity:0;"
         offset="0"
         id="stop5050-9" />
      <stop
         id="stop5056-0"
         offset="0.5"
         style="stop-color:black;stop-opacity:1;" />
      <stop
         style="stop-color:black;stop-opacity:0;"
         offset="1"
         id="stop5052-64" />
    </linearGradient>
    <radialGradient
       inkscape:collect="always"
       xlink:href="#linearGradient5060-1"
       id="radialGradient3244"
       gradientUnits="userSpaceOnUse"
       gradientTransform="matrix(0.125709,0,0,0.0864706,2.5899204,-10.70427)"
       cx="605.71429"
       cy="486.64789"
       fx="605.71429"
       fy="486.64789"
       r="117.14286" />
    <linearGradient
       inkscape:collect="always"
       id="linearGradient5060-1">
      <stop
         style="stop-color:black;stop-opacity:1;"
         offset="0"
         id="stop5062-3" />
      <stop
         style="stop-color:black;stop-opacity:0;"
         offset="1"
         id="stop5064-5" />
    </linearGradient>
    <radialGradient
       inkscape:collect="always"
       xlink:href="#linearGradient5060-1"
       id="radialGradient3241"
       gradientUnits="userSpaceOnUse"
       gradientTransform="matrix(-0.125709,0,0,0.0864706,93.410098,-10.70427)"
       cx="605.71429"
       cy="486.64789"
       fx="605.71429"
       fy="486.64789"
       r="117.14286" />
    <linearGradient
       inkscape:collect="always"
       xlink:href="#linearGradient4064-7-9"
       id="linearGradient3230"
       gradientUnits="userSpaceOnUse"
       gradientTransform="matrix(2,0,0,2,-94,-48)"
       x1="71"
       y1="8"
       x2="71"
       y2="41.5" />
    <linearGradient
       id="linearGradient4064-7-9">
      <stop
         style="stop-color:#767778;stop-opacity:1;"
         offset="0"
         id="stop4066-4-9" />
      <stop
         style="stop-color:#767778;stop-opacity:0.50196081;"
         offset="1"
         id="stop4068-8-8" />
    </linearGradient>
    <linearGradient
       inkscape:collect="always"
       xlink:href="#linearGradient4054-7-3"
       id="linearGradient3232"
       gradientUnits="userSpaceOnUse"
       gradientTransform="matrix(2,0,0,2,-94,-48)"
       x1="71"
       y1="8"
       x2="71"
       y2="41.5" />
    <linearGradient
       id="linearGradient4054-7-3">
      <stop
         style="stop-color:#545556;stop-opacity:1;"
         offset="0"
         id="stop4056-0-5" />
      <stop
         style="stop-color:#545556;stop-opacity:0.50196081;"
         offset="1"
         id="stop4058-9-9" />
    </linearGradient>
    <linearGradient
       inkscape:collect="always"
       xlink:href="#linearGradient9101-5"
       id="linearGradient3227-0"
       gradientUnits="userSpaceOnUse"
       gradientTransform="matrix(0.75086228,0,0,0.3333332,-6.0605797,-28.166666)"
       x1="71.999496"
       y1="14.2578"
       x2="71.999496"
       y2="19.9583" />
    <linearGradient
       gradientTransform="matrix(1.0033404,0,0,1,-8.2374684,8)"
       y2="19.9583"
       x2="71.999496"
       y1="14.2578"
       x1="71.999496"
       gradientUnits="userSpaceOnUse"
       id="linearGradient9101-5">
      <stop
         id="stop9103-1"
         style="stop-color:#545556;stop-opacity:0;"
         offset="0.25" />
      <stop
         id="stop9105-03"
         style="stop-color:#545556;stop-opacity:1;"
         offset="1" />
    </linearGradient>
    <linearGradient
       inkscape:collect="always"
       xlink:href="#linearGradient9073-9-6"
       id="linearGradient3259"
       gradientUnits="userSpaceOnUse"
       gradientTransform="matrix(0.7031318,0,0,0.7105376,-69.874472,-254.68002)"
       x1="167.64111"
       y1="328.87747"
       x2="167.64111"
       y2="407.69193" />
    <linearGradient
       id="linearGradient9073-9-6">
      <stop
         id="stop9075-9-8"
         offset="0"
         style="stop-color:#aaabac;stop-opacity:1" />
      <stop
         id="stop9077-5-4"
         offset="1"
         style="stop-color:#767778;stop-opacity:1" />
    </linearGradient>
    <linearGradient
       inkscape:collect="always"
       xlink:href="#linearGradient9087-5-2"
       id="linearGradient3261"
       gradientUnits="userSpaceOnUse"
       gradientTransform="matrix(2,0,0,2,-365.99542,-54)"
       x1="206.99738"
       y1="16.499895"
       x2="206.99738"
       y2="44.50021" />
    <linearGradient
       inkscape:collect="always"
       id="linearGradient9087-5-2">
      <stop
         style="stop-color:#767778;stop-opacity:1"
         offset="0"
         id="stop9089-5-3" />
      <stop
         style="stop-color:#545556;stop-opacity:1"
         offset="1"
         id="stop9091-1-5" />
    </linearGradient>
    <linearGradient
       inkscape:collect="always"
       xlink:href="#linearGradient10176-4"
       id="linearGradient3256"
       gradientUnits="userSpaceOnUse"
       gradientTransform="matrix(0.9204022,0,0,1.885618,-11.468937,-87.058428)"
       x1="7.2379346"
       y1="36.005047"
       x2="122.17093"
       y2="36.005047" />
    <linearGradient
       id="linearGradient10176-4"
       gradientUnits="userSpaceOnUse"
       x1="71.999496"
       y1="14.2578"
       x2="71.999496"
       y2="19.9583"
       gradientTransform="matrix(1.0033404,0,0,1,-8.2374684,8)">
      <stop
         offset="0.00445589"
         style="stop-color:#eaeaea;stop-opacity:0;"
         id="stop10178-34" />
      <stop
         id="stop10180-4"
         style="stop-color:#ffffff;stop-opacity:0.52941179;"
         offset="0.46138024" />
      <stop
         offset="1"
         style="stop-color:#f5f5f5;stop-opacity:0"
         id="stop10182-28" />
    </linearGradient>
  </defs>
  <sodipodi:namedview
     id="base"
     pagecolor="#ffffff"
     bordercolor="#666666"
     borderopacity="1.0"
     inkscape:pageopacity="0.0"
     inkscape:pageshadow="2"
     inkscape:zoom="6.2395833"
     inkscape:cx="48"
     inkscape:cy="48"
     inkscape:current-layer="layer1"
     showgrid="true"
     inkscape:grid-bbox="true"
     inkscape:document-units="px"
     inkscape:window-width="1058"
     inkscape:window-height="811"
     inkscape:window-x="37"
     inkscape:window-y="50"
     inkscape:window-maximized="0"
     inkscape:snap-object-midpoints="true"
     inkscape:object-paths="false"
     inkscape:snap-midpoints="true"
     inkscape:snap-nodes="false"
     fit-margin-top="0"
     fit-margin-left="0"
     fit-margin-right="0"
     fit-margin-bottom="0" />
  <metadata
     id="metadata7531">
    <rdf:RDF>
      <cc:Work
         rdf:about="">
        <dc:format>image/svg+xml</dc:format>
        <dc:type
           rdf:resource="http://purl.org/dc/dcmitype/StillImage" />
        <dc:title />
      </cc:Work>
    </rdf:RDF>
  </metadata>
  <g
     id="layer1"
     inkscape:label="Layer 1"
     inkscape:groupmode="layer"
     transform="translate(0,48)">
    <g
       id="g3274">
      <g
         id="g3269">
        <rect
           style="opacity:0.40206185;fill:url(#linearGradient3247);fill-opacity:1;fill-rule:nonzero;stroke:none;stroke-width:1;marker:none;visibility:visible;display:inline;overflow:visible"
           id="rect13073"
           width="60.699482"
           height="21.000004"
           x="17.650259"
           y="21" />
        <path
           style="opacity:0.40206185;fill:url(#radialGradient3244);fill-opacity:1;fill-rule:nonzero;stroke:none;stroke-width:1;marker:none;visibility:visible;display:inline;overflow:visible"
           d="m 78.349742,21.000718 c 0,0 0,20.998846 0,20.998846 C 84.823444,42.039084 94.000004,37.294788 94,31.49879 94,25.70279 86.775836,21.00072 78.349742,21.000718 z"
           id="path13075"
           sodipodi:nodetypes="cccc"
           inkscape:connector-curvature="0" />
        <path
           sodipodi:nodetypes="cccc"
           id="path13077"
           d="m 17.65026,21.000718 c 0,0 0,20.998846 0,20.998846 -6.473703,0.03952 -15.6502598,-4.704776 -15.6502598,-10.500774 0,-5.796 7.224163,-10.49807 15.6502598,-10.498072 z"
           style="opacity:0.40206185;fill:url(#radialGradient3241);fill-opacity:1;fill-rule:nonzero;stroke:none;stroke-width:1;marker:none;visibility:visible;display:inline;overflow:visible"
           inkscape:connector-curvature="0" />
      </g>
      <g
         id="g3263">
        <path
           style="color:#000000;fill:url(#linearGradient3230);fill-opacity:1;fill-rule:evenodd;stroke:url(#linearGradient3232);stroke-width:1;stroke-linecap:butt;stroke-linejoin:miter;stroke-miterlimit:4;stroke-opacity:1;stroke-dasharray:none;stroke-dashoffset:0;marker:none;visibility:visible;display:inline;overflow:visible;enable-background:accumulate"
           d="m 63,-32 c -1.108,0 -2.0895,0.4645 -2.8125,1.1875 L 56.375,-27 11,-27 c -2.216,0 -4,1.784 -4,4 l 0,56 c 0,1.108 0.892,2 2,2 l 78,0 c 1.108,0 2,-0.892 2,-2 l 0,-61 c 0,-2.216 -1.784,-4 -4,-4 z"
           id="rect3142"
           inkscape:connector-curvature="0"
           sodipodi:nodetypes="sscsccccccss" />
        <path
           style="opacity:0.5;fill:url(#linearGradient3227-0);fill-opacity:1;display:inline;enable-background:new"
           id="path39053"
           d="m 7.5014969,-23.5 c 0.00626,0.583332 0.012514,1.251666 0.018752,2 l 80.9609801,0 c 0.0063,-0.748334 0.01256,-1.416668 0.01883,-2 l -80.9999993,0 0.0015,0 z"
           inkscape:connector-curvature="0" />
        <path
           inkscape:connector-curvature="0"
           sodipodi:nodetypes="cccccccccc"
           style="opacity:0.9;color:#000000;fill:url(#linearGradient3259);fill-opacity:1;fill-rule:nonzero;stroke:url(#linearGradient3261);stroke-width:0.99958181;stroke-linecap:butt;stroke-linejoin:miter;stroke-miterlimit:4;stroke-opacity:1;stroke-dasharray:none;stroke-dashoffset:0;marker:none;visibility:visible;display:inline;overflow:visible;enable-background:new"
           id="path3300"
           d="m 90.493984,33 c -0.06074,1.170968 -1.335732,2.000418 -2.499686,2.000418 l -79.9899374,0 c -1.163934,0 -2.438312,-0.82945 -2.499686,-2.000418 l -2.499684,-51.999792 c -0.08468,-1.168834 0.835794,-2.000416 1.999748,-2.000416 l 85.9891834,0 c 1.163954,0 2.088616,0.831582 1.999748,2.000416 L 90.493984,33 z" />
        <rect
           style="fill:url(#linearGradient3256);fill-opacity:1;stroke:none;display:inline;enable-background:new"
           id="rect3521-5"
           width="89"
           height="2"
           x="3.4999948"
           y="-20.5"
           rx="0"
           ry="0" />
      </g>
    </g>
    <path
       style="opacity:0.6;fill:#ffffff;fill-rule:evenodd;stroke:none"
       d="m 48.000056,-10 c -9.38884,0 -17,7.61116 -17,17 0,9.38884 7.61116,17 17,17 9.38884,0 17,-7.61116 17,-17 0,-9.38884 -7.61116,-17 -17,-17 z m -1.25,2.0625 c 0.08102,-0.0066 0.16862,0.0052 0.25,0 l 0,7.625 c -1.954124,-0.06698 -3.80654,-0.330174 -5.5,-0.75 0.35385,-1.10433 0.753262,-2.116908 1.25,-3 0.777082,-1.38148 1.695922,-2.426394 2.625,-3.125 0.46454,-0.349304 0.937622,-0.59539 1.375,-0.75 z m 2.25,0 c 0.08138,0.0052 0.16898,-0.0066 0.25,0 0.437378,0.1546 0.91046,0.400696 1.375,0.75 0.929078,0.698606 1.847918,1.74352 2.625,3.125 0.496738,0.883092 0.896148,1.89567 1.25,3 -1.69346,0.419826 -3.545876,0.683026 -5.5,0.75 l 0,-7.625 z m -7.0625,1.25 c -0.513936,0.615026 -1.011702,1.305526 -1.4375,2.0625 -0.497918,0.885186 -0.879732,1.884748 -1.25,2.9375 -0.828224,-0.307226 -1.62176,-0.673958 -2.3125,-1.0625 -0.05348,-0.03008 -0.07428,-0.09348 -0.125,-0.125 1.417624,-1.599076 3.14277,-2.92974 5.125,-3.8125 z m 12.125,0 c 1.994448,0.888202 3.765338,2.199794 5.1875,3.8125 -0.06614,0.03968 -0.11812,0.08598 -0.1875,0.125 -0.69074,0.388542 -1.484276,0.755274 -2.3125,1.0625 -0.37027,-1.052752 -0.752084,-2.052314 -1.25,-2.9375 -0.4258,-0.756974 -0.923564,-1.447474 -1.4375,-2.0625 z m -18.625,5.5625 c 0.304064,0.21674 0.598972,0.434578 0.9375,0.625 0.678202,0.381488 1.409842,0.68876 2.1875,1 -0.413224,1.710802 -0.68387,3.562808 -0.75,5.5 l -4.75,0 c 0.1709,-2.63061 1.020192,-5.045188 2.375,-7.125 z m 25.125,0 c 1.354806,2.079812 2.204102,4.49439 2.375,7.125 l -4.75,0 c -0.06614,-1.937192 -0.336778,-3.789198 -0.75,-5.5 0.777658,-0.31124 1.509298,-0.618512 2.1875,-1 0.338754,-0.19056 0.6292,-0.41111 0.9375,-0.625 z m -19.625,2.375 c 1.865892,0.512474 3.902826,0.861682 6.0625,0.9375 l 0,3.8125 -6.6875,0 c 0.0591,-1.669716 0.315764,-3.257784 0.625,-4.75 z m 14.125,0 c 0.309236,1.492216 0.565904,3.080284 0.625,4.75 l -6.6875,0 0,-3.8125 c 2.159672,-0.07582 4.196608,-0.425026 6.0625,-0.9375 z m -22,6.75 4.75,0 c 0.06614,1.937192 0.336776,3.789198 0.75,5.5 -0.777658,0.31124 -1.509298,0.618512 -2.1875,1 -0.331176,0.18628 -0.636454,0.414018 -0.9375,0.625 -1.354808,-2.079812 -2.204102,-4.49439 -2.375,-7.125 z m 7.25,0 6.6875,0 0,3.8125 c -2.159674,0.07582 -4.196608,0.425026 -6.0625,0.9375 C 40.62832,11.257784 40.37165,9.669716 40.312556,8 z m 8.6875,0 6.6875,0 c -0.0591,1.669716 -0.315764,3.257784 -0.625,4.75 -1.865892,-0.512474 -3.902828,-0.861682 -6.0625,-0.9375 l 0,-3.8125 z m 9.1875,0 4.75,0 c -0.1709,2.63061 -1.020194,5.045188 -2.375,7.125 -0.30044,-0.203404 -0.612348,-0.442102 -0.9375,-0.625 -0.678202,-0.381488 -1.409842,-0.68876 -2.1875,-1 0.413222,-1.710802 0.68387,-3.562808 0.75,-5.5 z m -11.1875,6.3125 0,7.625 c -0.08138,-0.0052 -0.16898,0.0066 -0.25,0 -0.437378,-0.15462 -0.91046,-0.400696 -1.375,-0.75 -0.929078,-0.698606 -1.847918,-1.74352 -2.625,-3.125 -0.496738,-0.883092 -0.89615,-1.89567 -1.25,-3 1.69346,-0.419826 3.545876,-0.683026 5.5,-0.75 z m 2,0 c 1.954124,0.06698 3.80654,0.330174 5.5,0.75 -0.353852,1.10433 -0.753262,2.116908 -1.25,3 -0.777082,1.38148 -1.695922,2.426394 -2.625,3.125 -0.46454,0.349304 -0.937622,0.59539 -1.375,0.75 -0.08102,0.0066 -0.16862,-0.0052 -0.25,0 l 0,-7.625 z m -9.75,1.375 c 0.370268,1.052754 0.752082,2.052314 1.25,2.9375 0.425798,0.756974 0.923564,1.447474 1.4375,2.0625 -1.98223,-0.88276 -3.707376,-2.213424 -5.125,-3.8125 0.0506,-0.031 0.07186,-0.09512 0.125,-0.125 0.69074,-0.38854 1.484276,-0.755274 2.3125,-1.0625 z m 17.5,0 c 0.828224,0.307226 1.62176,0.67396 2.3125,1.0625 0.05386,0.0303 0.07294,0.09428 0.125,0.125 -1.417624,1.599076 -3.142772,2.92974 -5.125,3.8125 0.513936,-0.615026 1.0117,-1.305526 1.4375,-2.0625 0.497916,-0.885186 0.87973,-1.884746 1.25,-2.9375 z"
       id="path3121"
       inkscape:connector-curvature="0" />
    <path
       style="opacity:0.25;fill:#000000;fill-rule:evenodd;stroke:none"
       d="m 48,-11 c -9.38884,0 -17,7.61116 -17,17 0,0.335636 0.04332,0.669174 0.0625,1 0.49356,-8.510112 7.210388,-15.322962 15.6875,-15.9375 0.0822,-0.006 0.16748,0.0048 0.25,0 C 47.330826,-8.956686 47.664364,-9 48,-9 c 0.335636,0 0.669174,0.04332 1,0.0625 0.08252,0.0048 0.1678,-0.006 0.25,0 C 57.727112,-8.322962 64.44394,-1.510112 64.9375,7 64.956686,6.669174 65,6.335636 65,6 65,-3.38884 57.38884,-11 48,-11 z m -6.0625,5.3125 C 41.25679,-5.384354 40.618034,-5.026518 40,-4.625 c -0.271922,0.611086 -0.514374,1.267566 -0.75,1.9375 -0.382142,-0.14176 -0.701818,-0.336612 -1.0625,-0.5 -0.474908,0.423526 -0.95321,0.836722 -1.375,1.3125 0.05072,0.03152 0.07152,0.09492 0.125,0.125 0.69074,0.388542 1.484276,0.755274 2.3125,1.0625 0.370268,-1.052752 0.752082,-2.052314 1.25,-2.9375 0.425798,-0.756974 0.923564,-1.447474 1.4375,-2.0625 z m 12.125,0 c 0.513936,0.615026 1.0117,1.305526 1.4375,2.0625 0.497916,0.885186 0.87973,1.884748 1.25,2.9375 0.828224,-0.307226 1.62176,-0.673958 2.3125,-1.0625 0.06938,-0.03902 0.12136,-0.08532 0.1875,-0.125 -0.42314,-0.479832 -0.893414,-0.8892 -1.375,-1.3125 -0.376684,0.1722 -0.724376,0.35139 -1.125,0.5 C 56.514374,-3.357434 56.27192,-4.013914 56,-4.625 55.377768,-5.020698 54.741492,-5.38512 54.0625,-5.6875 z m -11.875,3.75 c -0.259096,0.59292 -0.473284,1.206456 -0.6875,1.875 1.69346,0.419826 3.545876,0.68302 5.5,0.75 l 0,-2 c -1.698634,-0.05822 -3.30517,-0.296254 -4.8125,-0.625 z m 11.625,0 C 52.30517,-1.608754 50.698634,-1.370718 49,-1.3125 l 0,2 c 1.954124,-0.06698 3.80654,-0.330174 5.5,-0.75 -0.214216,-0.668544 -0.428404,-1.28208 -0.6875,-1.875 z M 38.25,1.3125 C 38.044084,2.506654 37.856386,3.714446 37.8125,5 l -4.5,0 c -0.13144,0.647924 -0.205906,1.321274 -0.25,2 l 4.75,0 C 37.87864,5.062808 38.149276,3.210802 38.5625,1.5 38.4454,1.45314 38.36498,1.35946 38.25,1.3125 z m 19.5,0 C 57.63502,1.35946 57.5546,1.45314 57.4375,1.5 c 0.413222,1.710802 0.68386,3.562808 0.75,5.5 l 4.75,0 C 62.8934,6.321274 62.81894,5.647924 62.6875,5 l -4.5,0 C 58.143608,3.714446 57.955914,2.506654 57.75,1.3125 z M 40.5,5 C 40.41938,5.655986 40.33672,6.315602 40.3125,7 L 47,7 47,5 40.5,5 z m 8.5,0 0,2 6.6875,0 C 55.66328,6.315744 55.6431,5.655854 55.5625,5 L 49,5 z M 33.0625,9 c 0.1709,2.63061 1.020192,5.045188 2.375,7.125 0.301046,-0.210982 0.606324,-0.43872 0.9375,-0.625 0.678202,-0.381488 1.409842,-0.68876 2.1875,-1 -0.139,-0.575484 -0.208124,-1.207192 -0.3125,-1.8125 -0.648648,0.264866 -1.298918,0.488454 -1.875,0.8125 -0.331176,0.18628 -0.636454,0.414018 -0.9375,0.625 C 34.432248,12.581802 33.690512,10.863304 33.3125,9 l -0.25,0 z m 7.25,0 c 0.0591,1.669716 0.315764,3.257784 0.625,4.75 1.865892,-0.512474 3.902826,-0.86168 6.0625,-0.9375 l 0,-2 C 44.840326,10.88832 42.803392,11.237526 40.9375,11.75 40.755016,10.869428 40.616074,9.94441 40.5,9 l -0.1875,0 z m 15.25,0 c -0.11608,0.944556 -0.31749,1.8693 -0.5,2.75 C 53.196608,11.237526 51.159672,10.888318 49,10.8125 l 0,2 c 2.159672,0.07582 4.196608,0.425026 6.0625,0.9375 0.309236,-1.492216 0.5659,-3.080284 0.625,-4.75 l -0.125,0 z m 7.125,0 c -0.378012,1.863304 -1.119748,3.581802 -2.125,5.125 -0.30044,-0.203404 -0.612348,-0.442102 -0.9375,-0.625 -0.576082,-0.324046 -1.226352,-0.547634 -1.875,-0.8125 -0.10438,0.605308 -0.1735,1.237016 -0.3125,1.8125 0.777658,0.31124 1.509298,0.618512 2.1875,1 0.325152,0.1829 0.63706,0.421596 0.9375,0.625 1.354806,-2.079812 2.2041,-4.49439 2.375,-7.125 l -0.25,0 z m -20.5,6.9375 c -0.226716,0.04944 -0.46609,0.0701 -0.6875,0.125 0.35385,1.10433 0.753262,2.116908 1.25,3 0.777082,1.38148 1.695922,2.426394 2.625,3.125 0.46454,0.349304 0.937622,0.59538 1.375,0.75 0.0822,0.006 0.16748,-0.0048 0.25,0 l 0,-2 c -0.08138,-0.0052 -0.16898,0.0066 -0.25,0 -0.437378,-0.15462 -0.91046,-0.400696 -1.375,-0.75 -0.929078,-0.698606 -1.847918,-1.74352 -2.625,-3.125 -0.19602,-0.348482 -0.39361,-0.73851 -0.5625,-1.125 z m 11.625,0 c -0.16888,0.38649 -0.36648,0.776518 -0.5625,1.125 -0.777082,1.38148 -1.695922,2.426394 -2.625,3.125 -0.46454,0.349304 -0.937622,0.59539 -1.375,0.75 -0.08102,0.0066 -0.16862,-0.0052 -0.25,0 l 0,2 c 0.08138,-0.0052 0.16898,0.0066 0.25,0 0.437378,-0.15462 0.91046,-0.400696 1.375,-0.75 0.929078,-0.698606 1.847918,-1.74352 2.625,-3.125 0.496738,-0.883092 0.896148,-1.89567 1.25,-3 -0.22141,-0.0549 -0.460784,-0.07556 -0.6875,-0.125 z m -15.625,1.25 c -0.421032,0.19072 -0.877966,0.353232 -1.25,0.5625 -0.05314,0.02988 -0.0744,0.094 -0.125,0.125 1.417624,1.599076 3.14277,2.92974 5.125,3.8125 -0.513936,-0.615026 -1.011702,-1.305526 -1.4375,-2.0625 -0.181062,-0.321886 -0.344616,-0.650808 -0.5,-1 -0.646206,-0.41982 -1.239384,-0.92639 -1.8125,-1.4375 z m 19.625,0 C 57.239384,17.69861 56.646206,18.20518 56,18.625 c -0.15538,0.349192 -0.31894,0.678114 -0.5,1 -0.4258,0.756974 -0.923564,1.447474 -1.4375,2.0625 1.982228,-0.88276 3.707376,-2.213424 5.125,-3.8125 -0.05206,-0.03072 -0.07114,-0.0947 -0.125,-0.125 -0.372034,-0.209268 -0.828968,-0.371774 -1.25,-0.5625 z"
       id="path3928"
       inkscape:connector-curvature="0" />
  </g>
</svg>
