<?xml version="1.0" encoding="UTF-8" standalone="no"?>
<!-- Created with Inkscape (http://www.inkscape.org/) -->

<svg
   xmlns:dc="http://purl.org/dc/elements/1.1/"
   xmlns:cc="http://creativecommons.org/ns#"
   xmlns:rdf="http://www.w3.org/1999/02/22-rdf-syntax-ns#"
   xmlns:svg="http://www.w3.org/2000/svg"
   xmlns="http://www.w3.org/2000/svg"
   xmlns:xlink="http://www.w3.org/1999/xlink"
   xmlns:sodipodi="http://sodipodi.sourceforge.net/DTD/sodipodi-0.dtd"
   xmlns:inkscape="http://www.inkscape.org/namespaces/inkscape"
   width="96"
   height="96"
   id="svg8331"
   sodipodi:version="0.32"
   inkscape:version="0.48.3.1 r9886"
   sodipodi:docname="stock_bookmark.svg"
   inkscape:output_extension="org.inkscape.output.svg.inkscape"
   version="1.1">
  <defs
     id="defs8333">
    <linearGradient
       inkscape:collect="always"
       xlink:href="#linearGradient5048-28"
       id="linearGradient3247"
       gradientUnits="userSpaceOnUse"
       gradientTransform="matrix(0.125709,0,0,0.0864706,2.5651808,-10.70427)"
       x1="302.85715"
       y1="366.64789"
       x2="302.85715"
       y2="609.50507" />
    <linearGradient
       id="linearGradient5048-28">
      <stop
         style="stop-color:black;stop-opacity:0;"
         offset="0"
         id="stop5050-69" />
      <stop
         id="stop5056-7"
         offset="0.5"
         style="stop-color:black;stop-opacity:1;" />
      <stop
         style="stop-color:black;stop-opacity:0;"
         offset="1"
         id="stop5052-9" />
    </linearGradient>
    <radialGradient
       inkscape:collect="always"
       xlink:href="#linearGradient5060-4"
       id="radialGradient3244"
       gradientUnits="userSpaceOnUse"
       gradientTransform="matrix(0.125709,0,0,0.0864706,2.5899204,-10.70427)"
       cx="605.71429"
       cy="486.64789"
       fx="605.71429"
       fy="486.64789"
       r="117.14286" />
    <linearGradient
       inkscape:collect="always"
       id="linearGradient5060-4">
      <stop
         style="stop-color:black;stop-opacity:1;"
         offset="0"
         id="stop5062-8" />
      <stop
         style="stop-color:black;stop-opacity:0;"
         offset="1"
         id="stop5064-8" />
    </linearGradient>
    <radialGradient
       inkscape:collect="always"
       xlink:href="#linearGradient5060-4"
       id="radialGradient3241"
       gradientUnits="userSpaceOnUse"
       gradientTransform="matrix(-0.125709,0,0,0.0864706,93.410098,-10.70427)"
       cx="605.71429"
       cy="486.64789"
       fx="605.71429"
       fy="486.64789"
       r="117.14286" />
    <linearGradient
       inkscape:collect="always"
       xlink:href="#linearGradient4064-7-2"
       id="linearGradient3230"
       gradientUnits="userSpaceOnUse"
       gradientTransform="matrix(2,0,0,2,-94,-48)"
       x1="71"
       y1="8"
       x2="71"
       y2="41.5" />
    <linearGradient
       id="linearGradient4064-7-2">
      <stop
         style="stop-color:#c22f2f;stop-opacity:1;"
         offset="0"
         id="stop4066-4-95" />
      <stop
         style="stop-color:#c22f2f;stop-opacity:0.50196081;"
         offset="1"
         id="stop4068-8-7" />
    </linearGradient>
    <linearGradient
       inkscape:collect="always"
       xlink:href="#linearGradient4054-7-99"
       id="linearGradient3232"
       gradientUnits="userSpaceOnUse"
       gradientTransform="matrix(2,0,0,2,-94,-48)"
       x1="71"
       y1="8"
       x2="71"
       y2="41.5" />
    <linearGradient
       id="linearGradient4054-7-99">
      <stop
         style="stop-color:#a40000;stop-opacity:1;"
         offset="0"
         id="stop4056-0-7" />
      <stop
         style="stop-color:#a40000;stop-opacity:0.50196081;"
         offset="1"
         id="stop4058-9-8" />
    </linearGradient>
    <linearGradient
       inkscape:collect="always"
       xlink:href="#linearGradient9101-4"
       id="linearGradient3227"
       gradientUnits="userSpaceOnUse"
       gradientTransform="matrix(0.75086228,0,0,0.3333332,-6.0605797,-28.166666)"
       x1="71.999496"
       y1="14.2578"
       x2="71.999496"
       y2="19.9583" />
    <linearGradient
       gradientTransform="matrix(1.0033404,0,0,1,-8.2374684,8)"
       y2="19.9583"
       x2="71.999496"
       y1="14.2578"
       x1="71.999496"
       gradientUnits="userSpaceOnUse"
       id="linearGradient9101-4">
      <stop
         id="stop9103-2"
         style="stop-color:#a40000;stop-opacity:0;"
         offset="0.25" />
      <stop
         id="stop9105-8"
         style="stop-color:#a40000;stop-opacity:1;"
         offset="1" />
    </linearGradient>
    <linearGradient
       inkscape:collect="always"
       xlink:href="#linearGradient9073-9-7"
       id="linearGradient3259"
       gradientUnits="userSpaceOnUse"
       gradientTransform="matrix(0.7031318,0,0,0.7105376,-69.874472,-254.68002)"
       x1="167.64111"
       y1="328.87747"
       x2="167.64111"
       y2="407.69193" />
    <linearGradient
       id="linearGradient9073-9-7">
      <stop
         id="stop9075-9-14"
         offset="0"
         style="stop-color:#e47070;stop-opacity:1" />
      <stop
         id="stop9077-5-8"
         offset="1"
         style="stop-color:#c22f2f;stop-opacity:1" />
    </linearGradient>
    <linearGradient
       inkscape:collect="always"
       xlink:href="#linearGradient9087-5-7"
       id="linearGradient3261"
       gradientUnits="userSpaceOnUse"
       gradientTransform="matrix(2,0,0,2,-365.99542,-54)"
       x1="206.99738"
       y1="16.499895"
       x2="206.99738"
       y2="44.50021" />
    <linearGradient
       inkscape:collect="always"
       id="linearGradient9087-5-7">
      <stop
         style="stop-color:#c22f2f;stop-opacity:1"
         offset="0"
         id="stop9089-5-4" />
      <stop
         style="stop-color:#a40000;stop-opacity:1"
         offset="1"
         id="stop9091-1-7" />
    </linearGradient>
    <linearGradient
       inkscape:collect="always"
       xlink:href="#linearGradient10176-2"
       id="linearGradient3256"
       gradientUnits="userSpaceOnUse"
       gradientTransform="matrix(0.9204022,0,0,1.885618,-11.468937,-87.058428)"
       x1="7.2379346"
       y1="36.005047"
       x2="122.17093"
       y2="36.005047" />
    <linearGradient
       id="linearGradient10176-2"
       gradientUnits="userSpaceOnUse"
       x1="71.999496"
       y1="14.2578"
       x2="71.999496"
       y2="19.9583"
       gradientTransform="matrix(1.0033404,0,0,1,-8.2374684,8)">
      <stop
         offset="0.00445589"
         style="stop-color:#eaeaea;stop-opacity:0;"
         id="stop10178-0" />
      <stop
         id="stop10180-4"
         style="stop-color:#ffffff;stop-opacity:0.52941179;"
         offset="0.46138024" />
      <stop
         offset="1"
         style="stop-color:#f5f5f5;stop-opacity:0"
         id="stop10182-0" />
    </linearGradient>
  </defs>
  <sodipodi:namedview
     id="base"
     pagecolor="#ffffff"
     bordercolor="#666666"
     borderopacity="1.0"
     inkscape:pageopacity="0.0"
     inkscape:pageshadow="2"
     inkscape:zoom="6.2395833"
     inkscape:cx="48"
     inkscape:cy="48"
     inkscape:current-layer="layer1"
     showgrid="true"
     inkscape:grid-bbox="true"
     inkscape:document-units="px"
     inkscape:window-width="1058"
     inkscape:window-height="811"
     inkscape:window-x="181"
     inkscape:window-y="29"
     inkscape:window-maximized="0"
     fit-margin-top="0"
     fit-margin-left="0"
     fit-margin-right="0"
     fit-margin-bottom="0" />
  <metadata
     id="metadata8336">
    <rdf:RDF>
      <cc:Work
         rdf:about="">
        <dc:format>image/svg+xml</dc:format>
        <dc:type
           rdf:resource="http://purl.org/dc/dcmitype/StillImage" />
        <dc:title />
      </cc:Work>
    </rdf:RDF>
  </metadata>
  <g
     id="layer1"
     inkscape:label="Layer 1"
     inkscape:groupmode="layer"
     transform="translate(0,48)">
    <g
       id="g3274">
      <g
         id="g3269">
        <rect
           style="opacity:0.40206185;fill:url(#linearGradient3247);fill-opacity:1;fill-rule:nonzero;stroke:none;stroke-width:1;marker:none;visibility:visible;display:inline;overflow:visible"
           id="rect13073"
           width="60.699482"
           height="21.000004"
           x="17.650259"
           y="21" />
        <path
           style="opacity:0.40206185;fill:url(#radialGradient3244);fill-opacity:1;fill-rule:nonzero;stroke:none;stroke-width:1;marker:none;visibility:visible;display:inline;overflow:visible"
           d="m 78.349742,21.000718 c 0,0 0,20.998846 0,20.998846 C 84.823444,42.039084 94.000004,37.294788 94,31.49879 94,25.70279 86.775836,21.00072 78.349742,21.000718 z"
           id="path13075"
           sodipodi:nodetypes="cccc"
           inkscape:connector-curvature="0" />
        <path
           sodipodi:nodetypes="cccc"
           id="path13077"
           d="m 17.65026,21.000718 c 0,0 0,20.998846 0,20.998846 -6.473703,0.03952 -15.6502598,-4.704776 -15.6502598,-10.500774 0,-5.796 7.224163,-10.49807 15.6502598,-10.498072 z"
           style="opacity:0.40206185;fill:url(#radialGradient3241);fill-opacity:1;fill-rule:nonzero;stroke:none;stroke-width:1;marker:none;visibility:visible;display:inline;overflow:visible"
           inkscape:connector-curvature="0" />
      </g>
      <g
         id="g3263">
        <path
           style="color:#000000;fill:url(#linearGradient3230);fill-opacity:1;fill-rule:evenodd;stroke:url(#linearGradient3232);stroke-width:1;stroke-linecap:butt;stroke-linejoin:miter;stroke-miterlimit:4;stroke-opacity:1;stroke-dasharray:none;stroke-dashoffset:0;marker:none;visibility:visible;display:inline;overflow:visible;enable-background:accumulate"
           d="m 63,-32 c -1.108,0 -2.0895,0.4645 -2.8125,1.1875 L 56.375,-27 11,-27 c -2.216,0 -4,1.784 -4,4 l 0,56 c 0,1.108 0.892,2 2,2 l 78,0 c 1.108,0 2,-0.892 2,-2 l 0,-61 c 0,-2.216 -1.784,-4 -4,-4 z"
           id="rect3142"
           inkscape:connector-curvature="0"
           sodipodi:nodetypes="sscsccccccss" />
        <path
           style="opacity:0.5;fill:url(#linearGradient3227);fill-opacity:1;display:inline;enable-background:new"
           id="path39053"
           d="m 7.5014969,-23.5 c 0.00626,0.583332 0.012514,1.251666 0.018752,2 l 80.9609801,0 c 0.0063,-0.748334 0.01256,-1.416668 0.01883,-2 l -80.9999993,0 0.0015,0 z"
           inkscape:connector-curvature="0" />
        <path
           inkscape:connector-curvature="0"
           sodipodi:nodetypes="cccccccccc"
           style="opacity:0.9;color:#000000;fill:url(#linearGradient3259);fill-opacity:1;fill-rule:nonzero;stroke:url(#linearGradient3261);stroke-width:0.99958181;stroke-linecap:butt;stroke-linejoin:miter;stroke-miterlimit:4;stroke-opacity:1;stroke-dasharray:none;stroke-dashoffset:0;marker:none;visibility:visible;display:inline;overflow:visible;enable-background:new"
           id="path3300"
           d="m 90.493984,33 c -0.06074,1.170968 -1.335732,2.000418 -2.499686,2.000418 l -79.9899374,0 c -1.163934,0 -2.438312,-0.82945 -2.499686,-2.000418 l -2.499684,-51.999792 c -0.08468,-1.168834 0.835794,-2.000416 1.999748,-2.000416 l 85.9891834,0 c 1.163954,0 2.088616,0.831582 1.999748,2.000416 L 90.493984,33 z" />
        <rect
           style="fill:url(#linearGradient3256);fill-opacity:1;stroke:none;display:inline;enable-background:new"
           id="rect3521-5"
           width="89"
           height="2"
           x="3.4999948"
           y="-20.5"
           rx="0"
           ry="0" />
      </g>
    </g>
    <path
       sodipodi:type="star"
       style="opacity:0.6;fill:#ffffff;fill-rule:evenodd;stroke:none"
       id="path3110"
       sodipodi:sides="5"
       sodipodi:cx="9.625"
       sodipodi:cy="26.5"
       sodipodi:r1="8.3982887"
       sodipodi:r2="4.8608632"
       sodipodi:arg1="-1.5707963"
       sodipodi:arg2="-0.9424778"
       inkscape:flatsided="false"
       inkscape:rounded="0.18352206"
       inkscape:randomized="0"
       d="m 9.6250002,18.101711 c 0.9729498,0 2.0700108,3.893882 2.8571438,4.465768 0.787133,0.571886 4.829445,0.411977 5.130103,1.337307 0.300658,0.925331 -3.063633,3.171973 -3.364291,4.097303 -0.300658,0.925331 1.100567,4.720384 0.313434,5.292269 -0.787133,0.571886 -3.96344,-1.933495 -4.93639,-1.933495 -0.97295,0 -4.1492573,2.505381 -4.9363904,1.933495 C 3.9014765,32.722473 5.3027024,28.92742 5.0020444,28.002089 4.7013863,27.076759 1.3370948,24.830116 1.6377529,23.904786 1.9384109,22.979455 5.9807232,23.139365 6.7678563,22.567479 7.5549894,21.995593 8.6520502,18.101711 9.6250002,18.101711 z"
       inkscape:transform-center-y="-0.79544683"
       transform="matrix(2.0945804,0,0,2.0945804,28.596896,-47.915488)" />
    <path
       style="opacity:0.25;fill:#000000;fill-rule:evenodd;stroke:none"
       d="m 48.75,-11 c -2.037922,0 -4.351286,8.17714 -6,9.375 -1.648714,1.19786 -10.120248,0.811822 -10.75,2.75 -0.12526,0.385518 0.12874,0.939046 0.5,1.5 1.868576,-1.357378 8.770212,-1.174872 10.25,-2.25 1.648714,-1.19786 3.962078,-9.375 6,-9.375 2.037922,0 4.351286,8.17714 6,9.375 C 56.213234,1.438102 63.04072,1.25353 65,2.5625 65.350682,2.020506 65.621822,1.49993 65.5,1.125 64.870248,-0.81318 56.398714,-0.42714 54.75,-1.625 53.101286,-2.82286 50.787922,-11 48.75,-11 z M 39.0625,11.75 C 38.713628,14.346014 37.584614,18.291646 38,20.0625 38.294846,17.19591 39.49389,13.077684 39.0625,11.75 z m 19.375,0 c -0.425008,1.308042 0.74499,5.326842 1.0625,8.1875 0.348166,-1.821484 -0.720686,-5.642758 -1.0625,-8.1875 z"
       id="path3113"
       inkscape:connector-curvature="0" />
  </g>
</svg>
