<?xml version="1.0" encoding="UTF-8" standalone="no"?>
<!-- Created with Inkscape (http://www.inkscape.org/) -->

<svg
   xmlns:dc="http://purl.org/dc/elements/1.1/"
   xmlns:cc="http://creativecommons.org/ns#"
   xmlns:rdf="http://www.w3.org/1999/02/22-rdf-syntax-ns#"
   xmlns:svg="http://www.w3.org/2000/svg"
   xmlns="http://www.w3.org/2000/svg"
   xmlns:xlink="http://www.w3.org/1999/xlink"
   xmlns:sodipodi="http://sodipodi.sourceforge.net/DTD/sodipodi-0.dtd"
   xmlns:inkscape="http://www.inkscape.org/namespaces/inkscape"
   width="96"
   height="96"
   id="svg7368"
   sodipodi:version="0.32"
   inkscape:version="0.48.3.1 r9886"
   sodipodi:docname="folder-saved-search.svg"
   inkscape:output_extension="org.inkscape.output.svg.inkscape"
   version="1.1">
  <defs
     id="defs7370">
    <linearGradient
       inkscape:collect="always"
       xlink:href="#linearGradient5048-2"
       id="linearGradient3247"
       gradientUnits="userSpaceOnUse"
       gradientTransform="matrix(0.125709,0,0,0.0864706,2.5651808,-10.70427)"
       x1="302.85715"
       y1="366.64789"
       x2="302.85715"
       y2="609.50507" />
    <linearGradient
       id="linearGradient5048-2">
      <stop
         style="stop-color:black;stop-opacity:0;"
         offset="0"
         id="stop5050-0" />
      <stop
         id="stop5056-4"
         offset="0.5"
         style="stop-color:black;stop-opacity:1;" />
      <stop
         style="stop-color:black;stop-opacity:0;"
         offset="1"
         id="stop5052-8" />
    </linearGradient>
    <radialGradient
       inkscape:collect="always"
       xlink:href="#linearGradient5060-9"
       id="radialGradient3244"
       gradientUnits="userSpaceOnUse"
       gradientTransform="matrix(0.125709,0,0,0.0864706,2.5899204,-10.70427)"
       cx="605.71429"
       cy="486.64789"
       fx="605.71429"
       fy="486.64789"
       r="117.14286" />
    <linearGradient
       inkscape:collect="always"
       id="linearGradient5060-9">
      <stop
         style="stop-color:black;stop-opacity:1;"
         offset="0"
         id="stop5062-33" />
      <stop
         style="stop-color:black;stop-opacity:0;"
         offset="1"
         id="stop5064-6" />
    </linearGradient>
    <radialGradient
       inkscape:collect="always"
       xlink:href="#linearGradient5060-9"
       id="radialGradient3241"
       gradientUnits="userSpaceOnUse"
       gradientTransform="matrix(-0.125709,0,0,0.0864706,93.410098,-10.70427)"
       cx="605.71429"
       cy="486.64789"
       fx="605.71429"
       fy="486.64789"
       r="117.14286" />
    <linearGradient
       inkscape:collect="always"
       xlink:href="#linearGradient4064-7-3"
       id="linearGradient3230"
       gradientUnits="userSpaceOnUse"
       gradientTransform="matrix(2,0,0,2,-94,-48)"
       x1="71"
       y1="8"
       x2="71"
       y2="41.5" />
    <linearGradient
       id="linearGradient4064-7-3">
      <stop
         style="stop-color:#709937;stop-opacity:1;"
         offset="0"
         id="stop4066-4-3" />
      <stop
         style="stop-color:#709937;stop-opacity:0.50196081;"
         offset="1"
         id="stop4068-8-8" />
    </linearGradient>
    <linearGradient
       inkscape:collect="always"
       xlink:href="#linearGradient4054-7-7"
       id="linearGradient3232"
       gradientUnits="userSpaceOnUse"
       gradientTransform="matrix(2,0,0,2,-94,-48)"
       x1="71"
       y1="8"
       x2="71"
       y2="41.5" />
    <linearGradient
       id="linearGradient4054-7-7">
      <stop
         style="stop-color:#51751e;stop-opacity:1;"
         offset="0"
         id="stop4056-0-7" />
      <stop
         style="stop-color:#51751e;stop-opacity:0.50196081;"
         offset="1"
         id="stop4058-9-8" />
    </linearGradient>
    <linearGradient
       inkscape:collect="always"
       xlink:href="#linearGradient9101-0"
       id="linearGradient3227"
       gradientUnits="userSpaceOnUse"
       gradientTransform="matrix(0.75086228,0,0,0.3333332,-6.0605797,-28.166666)"
       x1="71.999496"
       y1="14.2578"
       x2="71.999496"
       y2="19.9583" />
    <linearGradient
       gradientTransform="matrix(1.0033404,0,0,1,-8.2374684,8)"
       y2="19.9583"
       x2="71.999496"
       y1="14.2578"
       x1="71.999496"
       gradientUnits="userSpaceOnUse"
       id="linearGradient9101-0">
      <stop
         id="stop9103-9"
         style="stop-color:#51751e;stop-opacity:0;"
         offset="0.25" />
      <stop
         id="stop9105-1"
         style="stop-color:#51751e;stop-opacity:1;"
         offset="1" />
    </linearGradient>
    <linearGradient
       inkscape:collect="always"
       xlink:href="#linearGradient9073-9-3"
       id="linearGradient3259"
       gradientUnits="userSpaceOnUse"
       gradientTransform="matrix(0.7031318,0,0,0.7105376,-69.874472,-254.68002)"
       x1="167.64111"
       y1="328.87747"
       x2="167.64111"
       y2="407.69193" />
    <linearGradient
       id="linearGradient9073-9-3">
      <stop
         id="stop9075-9-0"
         offset="0"
         style="stop-color:#aacb7d;stop-opacity:1" />
      <stop
         id="stop9077-5-8"
         offset="1"
         style="stop-color:#709937;stop-opacity:1" />
    </linearGradient>
    <linearGradient
       inkscape:collect="always"
       xlink:href="#linearGradient9087-5-0"
       id="linearGradient3261"
       gradientUnits="userSpaceOnUse"
       gradientTransform="matrix(2,0,0,2,-365.99542,-54)"
       x1="206.99738"
       y1="16.499895"
       x2="206.99738"
       y2="44.50021" />
    <linearGradient
       inkscape:collect="always"
       id="linearGradient9087-5-0">
      <stop
         style="stop-color:#709937;stop-opacity:1"
         offset="0"
         id="stop9089-5-7" />
      <stop
         style="stop-color:#51751e;stop-opacity:1"
         offset="1"
         id="stop9091-1-6" />
    </linearGradient>
    <linearGradient
       inkscape:collect="always"
       xlink:href="#linearGradient10176-0"
       id="linearGradient3256"
       gradientUnits="userSpaceOnUse"
       gradientTransform="matrix(0.9204022,0,0,1.885618,-11.468937,-87.058428)"
       x1="7.2379346"
       y1="36.005047"
       x2="122.17093"
       y2="36.005047" />
    <linearGradient
       id="linearGradient10176-0"
       gradientUnits="userSpaceOnUse"
       x1="71.999496"
       y1="14.2578"
       x2="71.999496"
       y2="19.9583"
       gradientTransform="matrix(1.0033404,0,0,1,-8.2374684,8)">
      <stop
         offset="0.00445589"
         style="stop-color:#eaeaea;stop-opacity:0;"
         id="stop10178-00" />
      <stop
         id="stop10180-1"
         style="stop-color:#ffffff;stop-opacity:0.52941179;"
         offset="0.46138024" />
      <stop
         offset="1"
         style="stop-color:#f5f5f5;stop-opacity:0"
         id="stop10182-15" />
    </linearGradient>
  </defs>
  <sodipodi:namedview
     id="base"
     pagecolor="#ffffff"
     bordercolor="#666666"
     borderopacity="1.0"
     inkscape:pageopacity="0.0"
     inkscape:pageshadow="2"
     inkscape:zoom="6.09375"
     inkscape:cx="48"
     inkscape:cy="48"
     inkscape:current-layer="layer1"
     showgrid="true"
     inkscape:grid-bbox="true"
     inkscape:document-units="px"
     inkscape:window-width="1044"
     inkscape:window-height="797"
     inkscape:window-x="166"
     inkscape:window-y="25"
     inkscape:window-maximized="0"
     fit-margin-top="0"
     fit-margin-left="0"
     fit-margin-right="0"
     fit-margin-bottom="0" />
  <metadata
     id="metadata7373">
    <rdf:RDF>
      <cc:Work
         rdf:about="">
        <dc:format>image/svg+xml</dc:format>
        <dc:type
           rdf:resource="http://purl.org/dc/dcmitype/StillImage" />
      </cc:Work>
    </rdf:RDF>
  </metadata>
  <g
     id="layer1"
     inkscape:label="Layer 1"
     inkscape:groupmode="layer"
     transform="translate(0,48)">
    <g
       id="g3274">
      <g
         id="g3269">
        <rect
           style="opacity:0.40206185;fill:url(#linearGradient3247);fill-opacity:1;fill-rule:nonzero;stroke:none;stroke-width:1;marker:none;visibility:visible;display:inline;overflow:visible"
           id="rect13073"
           width="60.699482"
           height="21.000004"
           x="17.650259"
           y="21" />
        <path
           style="opacity:0.40206185;fill:url(#radialGradient3244);fill-opacity:1;fill-rule:nonzero;stroke:none;stroke-width:1;marker:none;visibility:visible;display:inline;overflow:visible"
           d="m 78.349742,21.000718 c 0,0 0,20.998846 0,20.998846 C 84.823444,42.039084 94.000004,37.294788 94,31.49879 94,25.70279 86.775836,21.00072 78.349742,21.000718 z"
           id="path13075"
           sodipodi:nodetypes="cccc"
           inkscape:connector-curvature="0" />
        <path
           sodipodi:nodetypes="cccc"
           id="path13077"
           d="m 17.65026,21.000718 c 0,0 0,20.998846 0,20.998846 -6.473703,0.03952 -15.6502598,-4.704776 -15.6502598,-10.500774 0,-5.796 7.224163,-10.49807 15.6502598,-10.498072 z"
           style="opacity:0.40206185;fill:url(#radialGradient3241);fill-opacity:1;fill-rule:nonzero;stroke:none;stroke-width:1;marker:none;visibility:visible;display:inline;overflow:visible"
           inkscape:connector-curvature="0" />
      </g>
      <g
         id="g3263">
        <path
           style="color:#000000;fill:url(#linearGradient3230);fill-opacity:1;fill-rule:evenodd;stroke:url(#linearGradient3232);stroke-width:1;stroke-linecap:butt;stroke-linejoin:miter;stroke-miterlimit:4;stroke-opacity:1;stroke-dasharray:none;stroke-dashoffset:0;marker:none;visibility:visible;display:inline;overflow:visible;enable-background:accumulate"
           d="m 63,-32 c -1.108,0 -2.0895,0.4645 -2.8125,1.1875 L 56.375,-27 11,-27 c -2.216,0 -4,1.784 -4,4 l 0,56 c 0,1.108 0.892,2 2,2 l 78,0 c 1.108,0 2,-0.892 2,-2 l 0,-61 c 0,-2.216 -1.784,-4 -4,-4 z"
           id="rect3142"
           inkscape:connector-curvature="0"
           sodipodi:nodetypes="sscsccccccss" />
        <path
           style="opacity:0.5;fill:url(#linearGradient3227);fill-opacity:1;display:inline;enable-background:new"
           id="path39053"
           d="m 7.5014969,-23.5 c 0.00626,0.583332 0.012514,1.251666 0.018752,2 l 80.9609801,0 c 0.0063,-0.748334 0.01256,-1.416668 0.01883,-2 l -80.9999993,0 0.0015,0 z"
           inkscape:connector-curvature="0" />
        <path
           inkscape:connector-curvature="0"
           sodipodi:nodetypes="cccccccccc"
           style="opacity:0.9;color:#000000;fill:url(#linearGradient3259);fill-opacity:1;fill-rule:nonzero;stroke:url(#linearGradient3261);stroke-width:0.99958181;stroke-linecap:butt;stroke-linejoin:miter;stroke-miterlimit:4;stroke-opacity:1;stroke-dasharray:none;stroke-dashoffset:0;marker:none;visibility:visible;display:inline;overflow:visible;enable-background:new"
           id="path3300"
           d="m 90.493984,33 c -0.06074,1.170968 -1.335732,2.000418 -2.499686,2.000418 l -79.9899374,0 c -1.163934,0 -2.438312,-0.82945 -2.499686,-2.000418 l -2.499684,-51.999792 c -0.08468,-1.168834 0.835794,-2.000416 1.999748,-2.000416 l 85.9891834,0 c 1.163954,0 2.088616,0.831582 1.999748,2.000416 L 90.493984,33 z" />
        <rect
           style="fill:url(#linearGradient3256);fill-opacity:1;stroke:none;display:inline;enable-background:new"
           id="rect3521-5"
           width="89"
           height="2"
           x="3.4999948"
           y="-20.5"
           rx="0"
           ry="0" />
      </g>
    </g>
    <path
       style="opacity:0.6;fill:#ffffff;fill-opacity:1;fill-rule:evenodd;stroke:none;stroke-width:2.296875;marker:none;visibility:visible;display:inline;overflow:visible"
       d="M 44.72602,-8.033738 C 38.197368,-7.531182 33,-2.010704 33,4.638776 c -2e-6,6.976506 5.74859,12.725098 12.725098,12.725098 3.420122,0 6.541388,-1.349884 8.833952,-3.575648 0.141,0.35993 0.374344,0.70548 0.630996,0.999078 0.233454,0.25685 0.528364,0.504978 0.841328,0.68358 l 8.413288,5.047972 c 1.597244,0.958348 3.66896,0.440418 4.627308,-1.156826 0.958348,-1.597244 0.440418,-3.668962 -1.156828,-4.627308 L 59.501856,9.686748 c -0.568904,-0.354006 -1.228838,-0.548338 -1.89299,-0.52583 0.53605,-1.400446 0.788746,-2.941528 0.788746,-4.522142 0,-6.976504 -5.696008,-12.672514 -12.672514,-12.672514 -0.327026,0 -0.677998,-0.02472 -0.999078,0 z m 0.683578,5.047972 c 0.09852,-0.0036 0.216002,0 0.3155,0 4.245234,2e-6 7.624542,3.379306 7.624542,7.624542 -2e-6,4.245238 -3.379308,7.624542 -7.624542,7.624542 -4.245238,0 -7.624542,-3.379304 -7.624542,-7.624542 -2e-6,-4.145738 3.204342,-7.471246 7.309042,-7.624542 z"
       id="path2347"
       inkscape:r_cx="true"
       inkscape:r_cy="true"
       inkscape:connector-curvature="0" />
    <path
       style="opacity:0.25;fill:#000000;fill-opacity:1;fill-rule:evenodd;stroke:none;stroke-width:2.296875;marker:none;visibility:visible;display:inline;overflow:visible"
       d="M 44.75,-9.0625 C 38.221348,-8.559944 33,-3.02448 33,3.625 c 0,0.249584 0.048,0.503766 0.0625,0.75 0.594908,-6.08734 5.566888,-10.966354 11.6875,-11.4375 0.32108,-0.02472 0.672974,0 1,0 6.759034,0 12.285114,5.384968 12.625,12.0625 0.04342,-0.450078 0,-0.915768 0,-1.375 0,-6.976504 -5.648494,-12.6875 -12.625,-12.6875 -0.327026,0 -0.67892,-0.02472 -1,0 z M 38.1875,4.625 c -0.04302,0.332176 -0.0625,0.655118 -0.0625,1 0,4.245238 3.379762,7.625 7.625,7.625 4.245234,0 7.624998,-3.379762 7.625,-7.625 0,-0.33982 -0.08298,-0.672566 -0.125,-1 -0.482888,3.763068 -3.594586,6.625 -7.5,6.625 -3.906092,0 -7.080458,-2.860972 -7.5625,-6.625 z M 58.125,8.25 c -0.12822,0.64756 -0.269026,1.334072 -0.5,1.9375 0.664152,-0.0225 1.306096,0.146 1.875,0.5 l 8.4375,5.0625 c 0.756494,0.453896 1.207404,1.1528 1.4375,1.9375 0.484342,-1.464874 -0.0591,-3.110466 -1.4375,-3.9375 L 59.5,8.6875 C 59.082638,8.427792 58.60607,8.315262 58.125,8.25 z"
       id="path3132"
       inkscape:connector-curvature="0" />
  </g>
</svg>
