<?xml version="1.0" encoding="UTF-8" standalone="no"?>
<!-- Created with Inkscape (http://www.inkscape.org/) -->

<svg
   xmlns:dc="http://purl.org/dc/elements/1.1/"
   xmlns:cc="http://creativecommons.org/ns#"
   xmlns:rdf="http://www.w3.org/1999/02/22-rdf-syntax-ns#"
   xmlns:svg="http://www.w3.org/2000/svg"
   xmlns="http://www.w3.org/2000/svg"
   xmlns:xlink="http://www.w3.org/1999/xlink"
   xmlns:sodipodi="http://sodipodi.sourceforge.net/DTD/sodipodi-0.dtd"
   xmlns:inkscape="http://www.inkscape.org/namespaces/inkscape"
   width="96"
   height="95.999992"
   id="svg8025"
   sodipodi:version="0.32"
   inkscape:version="0.48.4 r9939"
   sodipodi:docname="preferences-desktop.svg"
   inkscape:output_extension="org.inkscape.output.svg.inkscape"
   version="1.1">
  <sodipodi:namedview
     id="base"
     pagecolor="#ffffff"
     bordercolor="#666666"
     borderopacity="1.0"
     inkscape:pageopacity="0.0"
     inkscape:pageshadow="2"
     inkscape:zoom="4"
     inkscape:cx="48"
     inkscape:cy="47.999996"
     inkscape:current-layer="layer1"
     showgrid="true"
     inkscape:grid-bbox="true"
     inkscape:document-units="px"
     inkscape:window-width="1062"
     inkscape:window-height="716"
     inkscape:window-x="6"
     inkscape:window-y="25"
     inkscape:object-paths="true"
     inkscape:snap-midpoints="true"
     inkscape:window-maximized="0"
     fit-margin-top="0"
     fit-margin-left="0"
     fit-margin-right="0"
     fit-margin-bottom="0"
     inkscape:snap-global="false"
     inkscape:object-nodes="true"
     inkscape:snap-intersection-paths="true"
     inkscape:snap-smooth-nodes="true" />
  <defs
     id="defs8027">
    <linearGradient
       inkscape:collect="always"
       xlink:href="#linearGradient5048-5-0"
       id="linearGradient3081-6"
       gradientUnits="userSpaceOnUse"
       gradientTransform="matrix(2.774389,0,0,1.969706,-1892.179,-872.8854)"
       x1="302.85715"
       y1="366.64789"
       x2="302.85715"
       y2="609.50507" />
    <linearGradient
       id="linearGradient5048-5-0">
      <stop
         style="stop-color:black;stop-opacity:0;"
         offset="0"
         id="stop5050-6-7" />
      <stop
         id="stop5056-8-8"
         offset="0.5"
         style="stop-color:black;stop-opacity:1;" />
      <stop
         style="stop-color:black;stop-opacity:0;"
         offset="1"
         id="stop5052-5-5" />
    </linearGradient>
    <radialGradient
       inkscape:collect="always"
       xlink:href="#linearGradient5060-8-8"
       id="radialGradient3083-0"
       gradientUnits="userSpaceOnUse"
       gradientTransform="matrix(2.774389,0,0,1.969706,-1891.633,-872.8854)"
       cx="605.71429"
       cy="486.64789"
       fx="605.71429"
       fy="486.64789"
       r="117.14286" />
    <linearGradient
       inkscape:collect="always"
       id="linearGradient5060-8-8">
      <stop
         style="stop-color:black;stop-opacity:1;"
         offset="0"
         id="stop5062-4-5" />
      <stop
         style="stop-color:black;stop-opacity:0;"
         offset="1"
         id="stop5064-3-3" />
    </linearGradient>
    <radialGradient
       inkscape:collect="always"
       xlink:href="#linearGradient5060-8-8"
       id="radialGradient3085-3"
       gradientUnits="userSpaceOnUse"
       gradientTransform="matrix(-2.774389,0,0,1.969706,112.7623,-872.8854)"
       cx="605.71429"
       cy="486.64789"
       fx="605.71429"
       fy="486.64789"
       r="117.14286" />
    <linearGradient
       inkscape:collect="always"
       xlink:href="#linearGradient2699-8"
       id="linearGradient3017"
       gradientUnits="userSpaceOnUse"
       gradientTransform="matrix(1.9090906,0,0,1.8749999,-2.2300954,44.871573)"
       x1="-45.955624"
       y1="-11.072424"
       x2="-1.9915352"
       y2="-39.003159" />
    <linearGradient
       id="linearGradient2699-8">
      <stop
         style="stop-color:#dcddde;stop-opacity:1"
         offset="0"
         id="stop2701-2" />
      <stop
         style="stop-color:#767778;stop-opacity:1;"
         offset="1"
         id="stop2703-8" />
    </linearGradient>
    <radialGradient
       inkscape:collect="always"
       xlink:href="#linearGradient5687-7"
       id="radialGradient3014"
       gradientUnits="userSpaceOnUse"
       gradientTransform="matrix(2.333333,0,0,1.6666665,-7.9999972,-41.333332)"
       cx="24"
       cy="44"
       fx="24"
       fy="44"
       r="18" />
    <linearGradient
       id="linearGradient5687-7">
      <stop
         style="stop-color:#ffffff;stop-opacity:1;"
         offset="0"
         id="stop5689-4" />
      <stop
         style="stop-color:#ffffff;stop-opacity:0;"
         offset="1"
         id="stop5691-1" />
    </linearGradient>
    <linearGradient
       gradientUnits="userSpaceOnUse"
       y2="25.180189"
       x2="14.854273"
       y1="21.465454"
       x1="20.166023"
       id="linearGradient3867-872"
       xlink:href="#linearGradient3861-569"
       inkscape:collect="always" />
    <linearGradient
       id="linearGradient3861-569">
      <stop
         id="stop3920"
         offset="0"
         style="stop-color:#808080;stop-opacity:1;" />
      <stop
         id="stop3922"
         offset="1"
         style="stop-color:#ffffff;stop-opacity:1;" />
    </linearGradient>
    <radialGradient
       inkscape:collect="always"
       xlink:href="#linearGradient4174-356-69-241-549-25-450"
       id="radialGradient4148"
       gradientUnits="userSpaceOnUse"
       gradientTransform="matrix(-1.7758505,-0.02786099,-0.03654851,1.5588765,325.18839,-14.867255)"
       cx="173.35292"
       cy="29.473955"
       fx="173.35292"
       fy="29.473955"
       r="7.125" />
    <linearGradient
       id="linearGradient4174-356-69-241-549-25-450">
      <stop
         style="stop-color:#ffffff;stop-opacity:1;"
         offset="0"
         id="stop3926" />
      <stop
         style="stop-color:#6b6b6b;stop-opacity:0;"
         offset="1"
         id="stop3928" />
    </linearGradient>
    <radialGradient
       r="59.069851"
       fy="47.896503"
       fx="78.344902"
       cy="47.896503"
       cx="78.344902"
       gradientTransform="matrix(-0.37025388,-0.03006526,-0.03284367,0.33694888,60.289174,16.388395)"
       gradientUnits="userSpaceOnUse"
       id="radialGradient3086-39"
       xlink:href="#linearGradient22831-422-821-904-481-173-523"
       inkscape:collect="always" />
    <linearGradient
       id="linearGradient22831-422-821-904-481-173-523">
      <stop
         style="stop-color:#ffffff;stop-opacity:1;"
         offset="0"
         id="stop3914" />
      <stop
         style="stop-color:#e4e4e4;stop-opacity:0;"
         offset="1"
         id="stop3916" />
    </linearGradient>
    <radialGradient
       r="4.1422901"
       fy="64.803642"
       fx="77.371063"
       cy="64.803642"
       cx="77.371063"
       gradientTransform="matrix(0.26492683,0.01820607,0.04570102,3.5557619,-57.511884,-214.26584)"
       gradientUnits="userSpaceOnUse"
       id="radialGradient3081-913"
       xlink:href="#linearGradient15825-203-768-249-357-665"
       inkscape:collect="always" />
    <linearGradient
       id="linearGradient15825-203-768-249-357-665">
      <stop
         style="stop-color:#ffffff;stop-opacity:1;"
         offset="0"
         id="stop3932" />
      <stop
         style="stop-color:#818181;stop-opacity:0;"
         offset="1"
         id="stop3934" />
    </linearGradient>
  </defs>
  <metadata
     id="metadata8030">
    <rdf:RDF>
      <cc:Work
         rdf:about="">
        <dc:format>image/svg+xml</dc:format>
        <dc:type
           rdf:resource="http://purl.org/dc/dcmitype/StillImage" />
      </cc:Work>
    </rdf:RDF>
  </metadata>
  <g
     transform="translate(5.3561751e-6,47.999989)"
     inkscape:groupmode="layer"
     inkscape:label="Layer 1"
     id="layer1">
    <g
       id="g3045">
      <g
         style="display:inline"
         transform="matrix(0.04728054,0,0,0.04390026,90.052984,27.615633)"
         id="g13071">
        <rect
           style="opacity:0.40206185;fill:url(#linearGradient3081-6);fill-opacity:1;fill-rule:nonzero;stroke:none;stroke-width:1;marker:none;visibility:visible;display:inline;overflow:visible"
           id="rect13073"
           width="1339.6335"
           height="478.35718"
           x="-1559.2523"
           y="-150.69685" />
        <path
           style="opacity:0.40206185;fill:url(#radialGradient3083-0);fill-opacity:1;fill-rule:nonzero;stroke:none;stroke-width:1;marker:none;visibility:visible;display:inline;overflow:visible"
           d="m -219.61876,-150.68038 c 0,0 0,478.33079 0,478.33079 142.874166,0.90045 345.40022,-107.16966 345.40014,-239.196175 0,-132.026537 -159.436816,-239.134595 -345.40014,-239.134615 z"
           id="path13075"
           sodipodi:nodetypes="cccc"
           inkscape:connector-curvature="0" />
        <path
           sodipodi:nodetypes="cccc"
           id="path13077"
           d="m -1559.2523,-150.68038 c 0,0 0,478.33079 0,478.33079 -142.8742,0.90045 -345.4002,-107.16966 -345.4002,-239.196175 0,-132.026537 159.4368,-239.134595 345.4002,-239.134615 z"
           style="opacity:0.40206185;fill:url(#radialGradient3085-3);fill-opacity:1;fill-rule:nonzero;stroke:none;stroke-width:1;marker:none;visibility:visible;display:inline;overflow:visible"
           inkscape:connector-curvature="0" />
      </g>
      <g
         id="g3036">
        <rect
           style="opacity:0.1;fill:#000000;fill-opacity:1;stroke:none"
           id="rect3047"
           transform="matrix(-0.99999878,0.00156153,-0.0010661,-0.99999943,0,0)"
           y="-35.013905"
           x="-92.968971"
           height="65.877884"
           width="89.942261"
           ry="5.8127556"
           rx="5.8657999" />
        <g
           id="g3025">
          <rect
             style="fill:#545556;fill-opacity:1;stroke:none"
             id="rect3803"
             transform="matrix(-0.9999988,0.00154862,-0.00107499,-0.99999942,0,0)"
             y="-34.015121"
             x="-91.969597"
             height="63.881588"
             width="87.943535"
             ry="5.6366115"
             rx="5.7354484" />
          <rect
             rx="3.9072537"
             ry="3.7505727"
             width="83.943741"
             height="59.882195"
             x="-89.969696"
             y="-32.015381"
             transform="matrix(-0.9999988,0.00154764,-0.00107568,-0.99999942,0,0)"
             id="rect3580"
             style="fill:url(#linearGradient3017);fill-opacity:1;stroke:none" />
          <path
             id="rect3466"
             d="m 6.0000018,-27.999998 83.9999952,0 0,59.999994 -83.9999952,0 z"
             style="opacity:0.25;fill:url(#radialGradient3014);fill-opacity:1;fill-rule:evenodd;stroke:none;display:inline;enable-background:new"
             inkscape:connector-curvature="0" />
          <path
             sodipodi:nodetypes="csssscc"
             inkscape:connector-curvature="0"
             id="rect3909"
             d="M 4.059033,7.1663415 4.000004,-25.867245 c -0.00396,-2.216334 1.821389,-4.003486 4.0890821,-4.007059 L 87.843429,-29.99998 c 2.267693,-0.0036 4.086239,1.777851 4.097535,3.994159 l 0.05904,11.582971 z"
             style="opacity:0.25;fill:#ffffff;fill-opacity:1;stroke:none" />
          <path
             inkscape:connector-curvature="0"
             id="rect3871"
             d="m 86.249999,-29.999997 -76.499992,0.125 c -3.1774337,0.0049 -5.7533548,2.50232 -5.7499988,5.625 l 0.0625,52.624992 c 0.00336,3.122682 2.5725652,5.62992 5.7499989,5.625 l 76.4999919,-0.125 c 3.177433,-0.005 5.690855,-2.502318 5.687499,-5.625 l -0.0625,-52.624992 c -0.0034,-3.12268 -2.510066,-5.62992 -5.687499,-5.625 z m -0.1875,2 c 2.164616,-0.0033 3.872763,1.672184 3.874999,3.75 l 0.0625,52.374992 c 0.0022,2.077816 -1.710383,3.74665 -3.874999,3.75 l -76.124992,0.125 c -2.1646158,0.0034 -3.9352637,-1.672184 -3.9374997,-3.75 l -0.0625,-52.374992 c -0.0022,-2.077816 1.7728838,-3.74665 3.9374996,-3.75 l 76.1249921,-0.125 z"
             style="opacity:0.25;fill:#000000;fill-opacity:1;stroke:none" />
        </g>
      </g>
    </g>
    <g
       id="g4132"
       transform="matrix(1.7789556,0,0,1.7789556,6.9881832,-37.951122)">
      <path
         sodipodi:nodetypes="cccccccccccccccccccsscsscccccccccccscccc"
         inkscape:connector-curvature="0"
         id="path4069"
         d="m 20.96875,12.96875 c -2.253749,-0.02333 -3.774917,0.556456 -5.046413,1.888646 0,0 -0.222564,0.355002 -0.203587,0.361354 l -0.1875,0.59375 5.1875,1.78125 c 0.08517,0.671916 0.10951,1.136962 0.15625,2.25 -0.162126,0.389181 -0.46573,1.035778 -0.75,1.65625 l -2.46875,1.78125 c -0.02615,0.01706 -0.04097,0.01695 -0.0625,0.03125 L 17.3125,23.53125 12.4375,21.5 c 0.02129,0.408557 -0.02085,0.888997 -0.03125,1.3125 0.88133,3.114677 2.959538,5.20981 4.53125,5.9375 -0.0534,0.185745 -0.05761,0.265507 0,0.25 0,0 0.501905,0.10745 1.28125,0.25 0.243138,0.04398 0.506956,0.09913 0.8125,0.15625 0.661734,0.124446 1.325783,0.240768 2.125,0.40625 0.06904,0.01415 0.11801,0.01686 0.1875,0.03125 0.144533,0.03608 0.294225,0.05305 0.4375,0.09375 2.015882,0.431772 4.068423,0.955347 4.78125,1.375 2.334109,1.374127 9.039601,11.585237 11.90625,13.375 0.815291,0.509017 1.604976,0.731866 2.34375,0.75 3.303796,0.240183 5.578865,-3.793789 3.6875,-6.625 C 43.418757,37.193971 32.126375,28.800959 30.9375,27.28125 29.422751,25.344974 27.90625,17.96875 27.90625,17.96875 27.90382,17.95714 27.8772,17.94928 27.875,17.9375 c -0.277013,-2.311678 -2.338118,-4.216404 -5.09375,-4.78125 -0.380642,-0.08719 -0.782032,-0.154866 -1.1875,-0.1875 -0.02553,-0.0021 -0.06812,0.0018 -0.09375,0 -0.02371,-7.61e-4 -0.03984,0.0014 -0.0625,0 -0.02612,-0.0018 -0.32412,0.0013 -0.40625,0 -0.01473,-2.29e-4 -0.04775,1.53e-4 -0.0625,0 z m 19.875,25.46875 c 0.13733,0.0098 0.27802,0.0047 0.40625,0.03125 0.02129,0.003 0.04144,0.02778 0.0625,0.03125 1.27723,0.29523 2.0827,1.366798 2.0625,2.5 -0.02443,1.370727 -1.313457,2.76353 -2.625,2.75 -0.108819,-0.0011 -0.204553,-0.01383 -0.3125,-0.03125 -1.115876,-0.276759 -2.091842,-1.385046 -2.09375,-2.46875 -0.0027,-1.510004 1.188448,-2.82603 2.5,-2.8125 z"
         style="opacity:0.5;fill:none;stroke:#000000;stroke-width:0.56212759" />
      <g
         id="g4045">
        <path
           sodipodi:nodetypes="cccsc"
           inkscape:r_cy="true"
           inkscape:r_cx="true"
           id="path4070"
           d="m 12.435587,21.490651 4.866519,2.048405 2.90996,-2.106939 c 0.358595,0.490015 0.429655,7.38427 -1.307407,7.285953 -3.180035,-0.179978 -5.411834,-3.293555 -6.469072,-7.227419 z"
           style="fill:url(#linearGradient3867-872);fill-opacity:1;fill-rule:evenodd;stroke:none"
           inkscape:connector-curvature="0" />
        <path
           inkscape:r_cy="true"
           inkscape:r_cx="true"
           id="path4072"
           d="m 12.60821,21.71907 4.616563,1.943031 0.194978,3.212645 -0.577451,1.399721 c -2.004105,-1.141431 -3.444765,-3.61839 -4.234094,-6.555397 z"
           style="opacity:0.51376145;fill:url(#radialGradient4148);fill-opacity:1;fill-rule:evenodd;stroke:none"
           inkscape:connector-curvature="0" />
        <path
           inkscape:connector-curvature="0"
           sodipodi:nodetypes="cccssssccccssssccssss"
           inkscape:r_cy="true"
           inkscape:r_cx="true"
           id="path4076"
           d="m 21.78186,12.998489 c 3.243745,0.261075 5.78913,2.351361 6.098723,4.934924 0.0022,0.01178 0.0087,0.03626 0.01113,0.04787 0,0 1.520162,7.373055 3.034911,9.309331 1.188875,1.519709 12.480076,9.917784 13.561319,11.536313 2.283692,3.41849 -1.490367,8.588598 -5.838586,5.873841 -2.866652,-1.789765 -9.580167,-11.99134 -11.914276,-13.365467 -1.577765,-0.928819 -9.62783,-2.294554 -9.62783,-2.294554 -0.460867,0.124056 3.038876,-6.943994 3.966916,-9.171746 -0.06231,-1.484051 -0.06416,-1.604579 -0.257911,-2.952022 -1.831092,-0.634444 -5.199803,-1.761336 -5.199803,-1.761336 1.271489,-1.33219 3.290704,-2.18691 5.544455,-2.163587 0.01475,1.53e-4 0.03301,2.66e-4 0.04774,4.96e-4 0.08213,0.0013 0.379887,0.0026 0.406006,0.0044 0.02266,0.0014 0.05987,1.05e-4 0.08358,8.66e-4 0.02561,0.0018 0.05805,-0.0012 0.08358,8.64e-4 z m 19.074873,25.440028 c -1.311552,-0.01353 -2.5242,1.310347 -2.521501,2.820351 0.0022,1.249226 1.303961,2.497161 2.615511,2.510734 1.311545,0.01353 2.589953,-1.357968 2.614383,-2.728691 0.02348,-1.317199 -1.050772,-2.585239 -2.708393,-2.602394 z"
           style="fill:#cecece;fill-opacity:1;fill-rule:evenodd;stroke:none" />
        <path
           inkscape:connector-curvature="0"
           style="fill:url(#radialGradient3086-39);fill-opacity:1;fill-rule:evenodd;stroke:none"
           d="m 21.596526,12.970154 c 3.243744,0.261072 5.78913,2.351359 6.098723,4.934924 0.0022,0.01178 0.0087,0.03626 0.01113,0.04787 0,0 1.520162,7.373057 3.034914,9.309331 1.188877,1.519708 12.480073,9.917784 13.561319,11.536313 2.283692,3.418486 -1.490367,8.588596 -5.838587,5.873838 -2.866649,-1.789763 -9.580167,-11.991337 -11.914276,-13.365464 -1.577703,-0.92882 -9.627763,-2.294553 -9.627763,-2.294553 -0.460868,0.124059 3.038873,-6.943998 3.966914,-9.171745 -0.06232,-1.484051 -0.06422,-1.604577 -0.257911,-2.952022 -1.831153,-0.634447 -5.199865,-1.761338 -5.199865,-1.761338 1.271496,-1.33219 3.290706,-2.186913 5.544455,-2.163587 0.01475,1.53e-4 0.03301,2.66e-4 0.04774,4.95e-4 0.08213,0.0013 0.379887,0.0026 0.406006,0.0044 0.02266,0.0014 0.05987,1.05e-4 0.08358,8.66e-4 0.02563,0.0018 0.05805,-0.0012 0.08358,8.64e-4 z m 19.074872,25.44003 c -1.311552,-0.01353 -2.524202,1.310339 -2.521503,2.820344 0.0022,1.249224 1.303964,2.497159 2.615516,2.510736 1.311543,0.01353 2.589951,-1.357968 2.614381,-2.728695 0.02348,-1.317194 -1.050777,-2.58523 -2.708394,-2.602385 z"
           id="path4078"
           inkscape:r_cx="true"
           inkscape:r_cy="true"
           sodipodi:nodetypes="cccssssccccssssccssss" />
        <path
           inkscape:connector-curvature="0"
           inkscape:r_cy="true"
           inkscape:r_cx="true"
           sodipodi:nodetypes="ccccccccccscc"
           id="path4080"
           d="m 27.162384,18.179819 -2.434549,5.932828 -1.161212,-0.438378 -1.714798,4.317982 0.956889,0.405964 -1.017907,1.554712 c -1.359641,-0.386237 -2.741809,-0.538582 -4.794034,-0.950765 1.159675,-2.650697 3.188095,-7.196057 4.058212,-9.293565 -0.06123,-1.483962 -0.06861,-1.603119 -0.260636,-2.95042 -1.821068,-0.633627 -5.175148,-1.616145 -5.175148,-1.616145 1.265409,-1.3327 3.950572,-2.003418 5.985932,-1.713489 3.19696,0.4554 5.15988,2.271906 5.557098,4.751343 z"
           style="fill:#ffffff;fill-opacity:1;fill-rule:evenodd;stroke:none" />
        <rect
           transform="matrix(-0.9359444,-0.35214782,-0.41829104,0.90831305,0,0)"
           inkscape:r_cy="true"
           inkscape:r_cx="true"
           y="13.984957"
           x="-36.374897"
           height="4.5897069"
           width="4.9285455"
           id="rect4088"
           style="fill:#4c4c4c;fill-opacity:1;fill-rule:evenodd;stroke:none" />
        <rect
           style="fill:url(#radialGradient3081-913);fill-opacity:1;fill-rule:evenodd;stroke:none"
           id="rect4090"
           width="2.847183"
           height="3.8700895"
           x="-35.476196"
           y="15.633965"
           inkscape:r_cx="true"
           inkscape:r_cy="true"
           transform="matrix(-0.94917899,-0.31473678,-0.41600616,0.9093618,0,0)" />
        <path
           inkscape:connector-curvature="0"
           inkscape:r_cy="true"
           inkscape:r_cx="true"
           sodipodi:nodetypes="ccccc"
           id="path4098"
           d="m 20.920728,16.943361 -5.187635,-1.756285 -0.20549,0.61525 5.43887,1.895154 -0.04574,-0.754119 z"
           style="fill:#b3b3b3;fill-opacity:1;fill-rule:evenodd;stroke:none" />
        <path
           inkscape:connector-curvature="0"
           inkscape:r_cy="true"
           inkscape:r_cx="true"
           sodipodi:nodetypes="csscc"
           id="path4100"
           d="M 17.319032,28.257329 C 15.816579,28.03726 13.35705,25.023796 12.46529,21.561041 c -0.03967,-0.154036 -0.106495,1.102056 -0.05986,1.266925 0.903928,3.19454 3.069012,5.3099 4.653127,5.984433 z"
           style="fill:#b3b3b3;fill-opacity:1;fill-rule:evenodd;stroke:none" />
        <path
           inkscape:connector-curvature="0"
           sodipodi:nodetypes="ccccccc"
           inkscape:r_cy="true"
           inkscape:r_cx="true"
           id="path4108"
           d="m 17.669264,23.293965 c 0.03391,0.09526 0.03139,2.991 0.01783,3.093917 0.02361,1.588961 -0.348808,1.700746 -0.378229,1.986977 -0.311749,-0.103855 -0.09744,0.03297 -0.380654,-0.126196 0.0206,-0.139877 0.370482,-1.123872 0.517218,-1.47763 -0.04697,-0.788804 -0.142499,-3.002795 -0.154569,-3.212712 0.144733,-0.105905 0.200243,-0.148058 0.378514,-0.264371 z"
           style="opacity:0.25;fill:#0e0e0e;fill-opacity:1;fill-rule:evenodd;stroke:none" />
        <path
           inkscape:connector-curvature="0"
           sodipodi:nodetypes="ccsss"
           inkscape:r_cy="true"
           inkscape:r_cx="true"
           id="path4116"
           d="m 41.01791,37.484997 c -2.005686,-0.384188 -4.172064,1.937771 -3.648318,4.019162 -1.538114,-1.168351 -8.450703,-9.419472 -8.843954,-10.322581 -0.602191,-1.382943 0.811379,-2.71472 2.231742,-2.174559 0.990699,0.376756 10.391079,8.502986 10.26053,8.477978 z"
           style="opacity:0.8;fill:#999999;fill-opacity:1;fill-rule:evenodd;stroke:none" />
        <path
           inkscape:connector-curvature="0"
           id="path3364"
           d="m 29.854725,29.590908 c -0.751328,0.11304 -1.023174,1.214782 -0.435434,1.684495 1.594625,2.227942 3.44573,4.253814 5.208201,6.346787 0.632945,0.722482 1.279536,1.433506 1.955092,2.116516 0.609641,-0.256682 0.466769,-1.136937 1.042787,-1.470764 0.488891,-0.568438 1.126867,-1.015444 1.84299,-1.245211 -2.519022,-2.272397 -5.139202,-4.430516 -7.785575,-6.552007 -0.444869,-0.329133 -0.870504,-0.724232 -1.393648,-0.918054 -0.144022,-0.03027 -0.299467,-0.02479 -0.434413,0.03824 z"
           style="opacity:0.25;fill:#000000;fill-opacity:1;fill-rule:evenodd;stroke:none" />
      </g>
    </g>
  </g>
</svg>
