<?xml version="1.0" encoding="UTF-8" standalone="no"?>
<!-- Created with Inkscape (http://www.inkscape.org/) -->

<svg
   xmlns:dc="http://purl.org/dc/elements/1.1/"
   xmlns:cc="http://creativecommons.org/ns#"
   xmlns:rdf="http://www.w3.org/1999/02/22-rdf-syntax-ns#"
   xmlns:svg="http://www.w3.org/2000/svg"
   xmlns="http://www.w3.org/2000/svg"
   xmlns:xlink="http://www.w3.org/1999/xlink"
   xmlns:sodipodi="http://sodipodi.sourceforge.net/DTD/sodipodi-0.dtd"
   xmlns:inkscape="http://www.inkscape.org/namespaces/inkscape"
   version="1.1"
   inkscape:output_extension="org.inkscape.output.svg.inkscape"
   sodipodi:docname="baobab.svg"
   inkscape:version="0.48.3.1 r9886"
   sodipodi:version="0.32"
   id="svg7217"
   height="96"
   width="96"
   inkscape:export-filename="folder.png"
   inkscape:export-xdpi="90"
   inkscape:export-ydpi="90">
  <defs
     id="defs7219">
    <linearGradient
       id="linearGradient10176"
       gradientUnits="userSpaceOnUse"
       x1="71.999496"
       y1="14.2578"
       x2="71.999496"
       y2="19.9583"
       gradientTransform="matrix(1.0033404,0,0,1,-8.2374684,8)">
      <stop
         offset="0.00445589"
         style="stop-color:#eaeaea;stop-opacity:0;"
         id="stop10178" />
      <stop
         id="stop10180"
         style="stop-color:#ffffff;stop-opacity:0.52941179;"
         offset="0.46138024" />
      <stop
         offset="1"
         style="stop-color:#f5f5f5;stop-opacity:0"
         id="stop10182" />
    </linearGradient>
    <linearGradient
       gradientTransform="matrix(1.0033404,0,0,1,-8.2374684,8)"
       y2="19.9583"
       x2="71.999496"
       y1="14.2578"
       x1="71.999496"
       gradientUnits="userSpaceOnUse"
       id="linearGradient9101">
      <stop
         id="stop9103"
         style="stop-color:#212223;stop-opacity:0;"
         offset="0.25" />
      <stop
         id="stop9105"
         style="stop-color:#212223;stop-opacity:1;"
         offset="1" />
    </linearGradient>
    <linearGradient
       inkscape:collect="always"
       id="linearGradient5060">
      <stop
         style="stop-color:black;stop-opacity:1;"
         offset="0"
         id="stop5062" />
      <stop
         style="stop-color:black;stop-opacity:0;"
         offset="1"
         id="stop5064" />
    </linearGradient>
    <linearGradient
       id="linearGradient5048">
      <stop
         style="stop-color:black;stop-opacity:0;"
         offset="0"
         id="stop5050" />
      <stop
         id="stop5056"
         offset="0.5"
         style="stop-color:black;stop-opacity:1;" />
      <stop
         style="stop-color:black;stop-opacity:0;"
         offset="1"
         id="stop5052" />
    </linearGradient>
    <linearGradient
       id="linearGradient9073-9">
      <stop
         id="stop9075-9"
         offset="0"
         style="stop-color:#878889;stop-opacity:1" />
      <stop
         id="stop9077-5"
         offset="1"
         style="stop-color:#434445;stop-opacity:1" />
    </linearGradient>
    <linearGradient
       inkscape:collect="always"
       id="linearGradient9087-5">
      <stop
         style="stop-color:#434445;stop-opacity:1"
         offset="0"
         id="stop9089-5" />
      <stop
         style="stop-color:#212223;stop-opacity:1"
         offset="1"
         id="stop9091-1" />
    </linearGradient>
    <linearGradient
       id="linearGradient4064-7">
      <stop
         style="stop-color:#434445;stop-opacity:1;"
         offset="0"
         id="stop4066-4" />
      <stop
         style="stop-color:#434445;stop-opacity:0.50196081;"
         offset="1"
         id="stop4068-8" />
    </linearGradient>
    <linearGradient
       id="linearGradient4054-7">
      <stop
         style="stop-color:#212223;stop-opacity:1;"
         offset="0"
         id="stop4056-0" />
      <stop
         style="stop-color:#212223;stop-opacity:0.50196081;"
         offset="1"
         id="stop4058-9" />
    </linearGradient>
    <linearGradient
       inkscape:collect="always"
       xlink:href="#linearGradient9101"
       id="linearGradient3227"
       gradientUnits="userSpaceOnUse"
       gradientTransform="matrix(0.75086228,0,0,0.3333332,-6.0605797,-28.166666)"
       x1="71.999496"
       y1="14.2578"
       x2="71.999496"
       y2="19.9583" />
    <linearGradient
       inkscape:collect="always"
       xlink:href="#linearGradient4064-7"
       id="linearGradient3230"
       gradientUnits="userSpaceOnUse"
       gradientTransform="matrix(2,0,0,2,-94,-48)"
       x1="71"
       y1="8"
       x2="71"
       y2="41.5" />
    <linearGradient
       inkscape:collect="always"
       xlink:href="#linearGradient4054-7"
       id="linearGradient3232"
       gradientUnits="userSpaceOnUse"
       gradientTransform="matrix(2,0,0,2,-94,-48)"
       x1="71"
       y1="8"
       x2="71"
       y2="41.5" />
    <radialGradient
       inkscape:collect="always"
       xlink:href="#linearGradient5060"
       id="radialGradient3241"
       gradientUnits="userSpaceOnUse"
       gradientTransform="matrix(-0.125709,0,0,0.0864706,93.410098,-10.70427)"
       cx="605.71429"
       cy="486.64789"
       fx="605.71429"
       fy="486.64789"
       r="117.14286" />
    <radialGradient
       inkscape:collect="always"
       xlink:href="#linearGradient5060"
       id="radialGradient3244"
       gradientUnits="userSpaceOnUse"
       gradientTransform="matrix(0.125709,0,0,0.0864706,2.5899204,-10.70427)"
       cx="605.71429"
       cy="486.64789"
       fx="605.71429"
       fy="486.64789"
       r="117.14286" />
    <linearGradient
       inkscape:collect="always"
       xlink:href="#linearGradient5048"
       id="linearGradient3247"
       gradientUnits="userSpaceOnUse"
       gradientTransform="matrix(0.125709,0,0,0.0864706,2.5651808,-10.70427)"
       x1="302.85715"
       y1="366.64789"
       x2="302.85715"
       y2="609.50507" />
    <linearGradient
       inkscape:collect="always"
       xlink:href="#linearGradient10176"
       id="linearGradient3256"
       gradientUnits="userSpaceOnUse"
       gradientTransform="matrix(0.9204022,0,0,1.885618,-11.468937,-87.058428)"
       x1="7.2379346"
       y1="36.005047"
       x2="122.17093"
       y2="36.005047" />
    <linearGradient
       inkscape:collect="always"
       xlink:href="#linearGradient9073-9"
       id="linearGradient3259"
       gradientUnits="userSpaceOnUse"
       gradientTransform="matrix(0.7031318,0,0,0.7105376,-69.874472,-254.68002)"
       x1="167.64111"
       y1="328.87747"
       x2="167.64111"
       y2="407.69193" />
    <linearGradient
       inkscape:collect="always"
       xlink:href="#linearGradient9087-5"
       id="linearGradient3261"
       gradientUnits="userSpaceOnUse"
       gradientTransform="matrix(2,0,0,2,-365.99542,-54)"
       x1="206.99738"
       y1="16.499895"
       x2="206.99738"
       y2="44.50021" />
    <linearGradient
       inkscape:collect="always"
       xlink:href="#linearGradient6699-3"
       id="linearGradient4154"
       gradientUnits="userSpaceOnUse"
       gradientTransform="matrix(1.9955406,0,0,1.9955406,95.19107,14.107146)"
       x1="-26.43412"
       y1="14.381306"
       x2="-15.630386"
       y2="30.013348" />
    <linearGradient
       id="linearGradient6699-3">
      <stop
         id="stop6701-7"
         style="stop-color:#f7a164;stop-opacity:1;"
         offset="0" />
      <stop
         id="stop6295-7"
         style="stop-color:#e11c26;stop-opacity:1;"
         offset="1" />
    </linearGradient>
    <linearGradient
       inkscape:collect="always"
       xlink:href="#linearGradient6711-3"
       id="linearGradient4156"
       gradientUnits="userSpaceOnUse"
       gradientTransform="matrix(1.9955406,0,0,1.9955406,95.19107,14.107146)"
       x1="-19.536037"
       y1="21.99547"
       x2="-8.7596264"
       y2="30.070206" />
    <linearGradient
       id="linearGradient6711-3">
      <stop
         id="stop6713-9"
         style="stop-color:#8badea;stop-opacity:1"
         offset="0" />
      <stop
         id="stop6715-2"
         style="stop-color:#3b7caf;stop-opacity:1"
         offset="1" />
    </linearGradient>
    <linearGradient
       inkscape:collect="always"
       xlink:href="#linearGradient6719-4"
       id="linearGradient4158"
       gradientUnits="userSpaceOnUse"
       gradientTransform="matrix(1.9955406,0,0,1.9955406,95.19107,14.107146)"
       x1="-17.863041"
       y1="30.827509"
       x2="-20.821646"
       y2="25.015009" />
    <linearGradient
       id="linearGradient6719-4">
      <stop
         id="stop6721-4"
         style="stop-color:#8cab2a;stop-opacity:1"
         offset="0" />
      <stop
         id="stop6723-4"
         style="stop-color:#d7e866;stop-opacity:1"
         offset="1" />
    </linearGradient>
    <linearGradient
       inkscape:collect="always"
       xlink:href="#linearGradient6687-4"
       id="linearGradient4160"
       gradientUnits="userSpaceOnUse"
       x1="-20.75"
       y1="29"
       x2="-19.5"
       y2="18.75" />
    <linearGradient
       id="linearGradient6687-4"
       inkscape:collect="always">
      <stop
         id="stop6689-7"
         offset="0"
         style="stop-color:#ffffff;stop-opacity:1;" />
      <stop
         id="stop6691-6"
         offset="1"
         style="stop-color:#ffffff;stop-opacity:0;" />
    </linearGradient>
  </defs>
  <sodipodi:namedview
     id="base"
     pagecolor="#ffffff"
     bordercolor="#666666"
     borderopacity="1.0"
     inkscape:pageopacity="0.0"
     inkscape:pageshadow="2"
     inkscape:zoom="6.2395833"
     inkscape:cx="48"
     inkscape:cy="48"
     inkscape:current-layer="layer1"
     showgrid="true"
     inkscape:grid-bbox="true"
     inkscape:document-units="px"
     inkscape:window-width="1058"
     inkscape:window-height="811"
     inkscape:window-x="20"
     inkscape:window-y="57"
     inkscape:window-maximized="0"
     inkscape:object-paths="true"
     inkscape:snap-intersection-paths="true"
     inkscape:object-nodes="true"
     inkscape:snap-smooth-nodes="true"
     inkscape:snap-midpoints="true"
     inkscape:snap-object-midpoints="true"
     fit-margin-top="0"
     fit-margin-left="0"
     fit-margin-right="0"
     fit-margin-bottom="0" />
  <metadata
     id="metadata7222">
    <rdf:RDF>
      <cc:Work
         rdf:about="">
        <dc:format>image/svg+xml</dc:format>
        <dc:type
           rdf:resource="http://purl.org/dc/dcmitype/StillImage" />
        <dc:title />
      </cc:Work>
    </rdf:RDF>
  </metadata>
  <g
     id="layer1"
     inkscape:label="Layer 1"
     inkscape:groupmode="layer"
     transform="translate(0,48)">
    <g
       id="g3274">
      <g
         id="g3269">
        <rect
           style="opacity:0.40206185;fill:url(#linearGradient3247);fill-opacity:1;fill-rule:nonzero;stroke:none;stroke-width:1;marker:none;visibility:visible;display:inline;overflow:visible"
           id="rect13073"
           width="60.699482"
           height="21.000004"
           x="17.650259"
           y="21" />
        <path
           style="opacity:0.40206185;fill:url(#radialGradient3244);fill-opacity:1;fill-rule:nonzero;stroke:none;stroke-width:1;marker:none;visibility:visible;display:inline;overflow:visible"
           d="m 78.349742,21.000718 c 0,0 0,20.998846 0,20.998846 C 84.823444,42.039084 94.000004,37.294788 94,31.49879 94,25.70279 86.775836,21.00072 78.349742,21.000718 z"
           id="path13075"
           sodipodi:nodetypes="cccc"
           inkscape:connector-curvature="0" />
        <path
           sodipodi:nodetypes="cccc"
           id="path13077"
           d="m 17.65026,21.000718 c 0,0 0,20.998846 0,20.998846 -6.473703,0.03952 -15.6502598,-4.704776 -15.6502598,-10.500774 0,-5.796 7.224163,-10.49807 15.6502598,-10.498072 z"
           style="opacity:0.40206185;fill:url(#radialGradient3241);fill-opacity:1;fill-rule:nonzero;stroke:none;stroke-width:1;marker:none;visibility:visible;display:inline;overflow:visible"
           inkscape:connector-curvature="0" />
      </g>
      <g
         id="g3263">
        <path
           style="color:#000000;fill:url(#linearGradient3230);fill-opacity:1;fill-rule:evenodd;stroke:url(#linearGradient3232);stroke-width:1;stroke-linecap:butt;stroke-linejoin:miter;stroke-miterlimit:4;stroke-opacity:1;stroke-dasharray:none;stroke-dashoffset:0;marker:none;visibility:visible;display:inline;overflow:visible;enable-background:accumulate"
           d="m 63,-32 c -1.108,0 -2.0895,0.4645 -2.8125,1.1875 L 56.375,-27 11,-27 c -2.216,0 -4,1.784 -4,4 l 0,56 c 0,1.108 0.892,2 2,2 l 78,0 c 1.108,0 2,-0.892 2,-2 l 0,-61 c 0,-2.216 -1.784,-4 -4,-4 z"
           id="rect3142"
           inkscape:connector-curvature="0"
           sodipodi:nodetypes="sscsccccccss" />
        <path
           style="opacity:0.5;fill:url(#linearGradient3227);fill-opacity:1;display:inline;enable-background:new"
           id="path39053"
           d="m 7.5014969,-23.5 c 0.00626,0.583332 0.012514,1.251666 0.018752,2 l 80.9609801,0 c 0.0063,-0.748334 0.01256,-1.416668 0.01883,-2 l -80.9999993,0 0.0015,0 z"
           inkscape:connector-curvature="0" />
        <path
           inkscape:connector-curvature="0"
           sodipodi:nodetypes="cccccccccc"
           style="opacity:0.9;color:#000000;fill:url(#linearGradient3259);fill-opacity:1;fill-rule:nonzero;stroke:url(#linearGradient3261);stroke-width:0.99958181;stroke-linecap:butt;stroke-linejoin:miter;stroke-miterlimit:4;stroke-opacity:1;stroke-dasharray:none;stroke-dashoffset:0;marker:none;visibility:visible;display:inline;overflow:visible;enable-background:new"
           id="path3300"
           d="m 90.493984,33 c -0.06074,1.170968 -1.335732,2.000418 -2.499686,2.000418 l -79.9899374,0 c -1.163934,0 -2.438312,-0.82945 -2.499686,-2.000418 l -2.499684,-51.999792 c -0.08468,-1.168834 0.835794,-2.000416 1.999748,-2.000416 l 85.9891834,0 c 1.163954,0 2.088616,0.831582 1.999748,2.000416 L 90.493984,33 z" />
        <rect
           style="fill:url(#linearGradient3256);fill-opacity:1;stroke:none;display:inline;enable-background:new"
           id="rect3521-5"
           width="89"
           height="2"
           x="3.4999948"
           y="-20.5"
           rx="0"
           ry="0" />
      </g>
    </g>
    <g
       transform="translate(0,-48)"
       id="g3154">
      <path
         sodipodi:type="inkscape:offset"
         inkscape:radius="1.0934147"
         inkscape:original="M 64 52.03125 C 57.193212 52.03125 51.008034 53.840557 46.46875 56.84375 C 41.929466 59.846943 39 64.114457 39 68.90625 L 39 73.03125 C 39 77.19881 41.221108 80.972791 44.78125 83.84375 C 48.247475 86.638973 53.043369 88.577983 58.4375 89.40625 C 58.45065 89.408269 58.455592 89.435495 58.46875 89.4375 A 1.004851 1.004851 0 0 0 58.78125 89.5625 C 62.542667 90.298443 68.371633 90.24407 72.40625 88.9375 C 72.425514 88.932655 72.449477 88.942346 72.46875 88.9375 C 72.850007 88.84164 73.22722 88.739396 73.625 88.625 C 73.809255 88.573503 73.892213 88.535318 73.90625 88.53125 C 74.135292 88.463306 74.181802 88.432747 74.0625 88.46875 C 74.501001 88.339061 74.945079 88.190521 75.40625 88.03125 A 1.004851 1.004851 0 0 0 75.4375 88.03125 C 75.576647 87.983133 75.680937 87.942221 75.78125 87.90625 C 76.159624 87.770405 76.51076 87.647451 76.875 87.5 C 77.181175 87.377459 77.494762 87.233341 77.8125 87.09375 C 77.98042 87.018767 78.139097 86.942009 78.28125 86.875 C 78.289454 86.871216 78.304283 86.878794 78.3125 86.875 C 78.782979 86.657798 79.277142 86.408942 79.75 86.15625 C 79.998686 86.020622 79.983311 86.008243 79.875 86.0625 C 79.882721 86.058311 79.898534 86.066696 79.90625 86.0625 C 82.660866 84.564498 85.063306 82.633842 86.71875 80.15625 C 86.918338 79.86559 87.057464 79.623415 87.1875 79.40625 A 1.004851 1.004851 0 0 0 87.1875 79.375 C 87.243208 79.279028 87.321034 79.156027 87.40625 79 C 87.411654 78.990106 87.40079 78.97892 87.40625 78.96875 C 87.564769 78.680465 87.717408 78.397524 87.84375 78.125 A 1.004851 1.004851 0 0 0 87.84375 78.09375 C 87.853283 78.072485 87.835729 78.082529 87.84375 78.0625 C 87.853573 78.040586 87.835565 78.05178 87.84375 78.03125 C 88.038956 77.605804 88.254985 77.179024 88.40625 76.71875 C 88.416656 76.686707 88.443942 76.609053 88.46875 76.53125 C 88.472525 76.51941 88.464788 76.512874 88.46875 76.5 C 88.716083 75.695055 88.897166 74.834383 88.96875 73.96875 C 88.970453 73.948151 88.967168 73.926884 88.96875 73.90625 C 88.973533 73.895648 88.986851 73.885332 89 73.75 A 1.004851 1.004851 0 0 0 89 73.65625 L 89 73.03125 L 89 68.90625 C 89 64.114506 86.070388 59.846957 81.53125 56.84375 C 76.992112 53.840543 70.80741 52.03125 64 52.03125 z "
         style="opacity:0.07999998;fill:#000000;fill-rule:nonzero;stroke:none;display:inline"
         id="path4134"
         d="m 64,50.9375 c -7.000548,0 -13.373065,1.856117 -18.125,5 -4.756273,3.146753 -7.96875,7.731317 -7.96875,12.96875 l 0,4.125 c 0,4.556051 2.435859,8.630863 6.1875,11.65625 3.583851,2.890079 8.459045,4.83871 13.875,5.71875 0.04558,0.02528 0.09512,0.06319 0.09375,0.0625 -0.0022,-0.0011 0.158556,0.06342 0.15625,0.0625 -0.0023,-9.22e-4 0.158625,0.06323 0.15625,0.0625 -0.0024,-7.25e-4 0.189928,0.03177 0.1875,0.03125 3.927304,0.7684 9.69752,0.719648 14,-0.625 0.03724,-0.01164 0.08798,0.01184 0.125,0 0.03384,-0.0059 0.0226,0.01003 0.0625,0 0.384463,-0.09667 0.759224,-0.19863 1.15625,-0.3125 0.01186,-0.0033 0.01987,0.0033 0.03125,0 0.102449,-0.02949 0.187718,-0.07119 0.25,-0.09375 0.0346,-0.01253 0.07731,-0.0248 0.09375,-0.03125 0.02947,-0.0083 0.0675,-0.02302 0.09375,-0.03125 0.0525,-0.01647 0.09228,-0.0188 0.1875,-0.0625 0.336829,-0.103018 0.661105,-0.227831 1,-0.34375 a 1.093524,1.093524 0 0 0 0.09375,-0.03125 c 0.03174,-0.01091 0.06194,-0.02026 0.09375,-0.03125 a 1.093524,1.093524 0 0 0 0.03125,0 c 0.160588,-0.05553 0.29599,-0.09667 0.375,-0.125 0.373376,-0.134051 0.730171,-0.277666 1.125,-0.4375 0.341631,-0.136732 0.662193,-0.271571 0.96875,-0.40625 0.16346,-0.07299 0.312978,-0.128443 0.4375,-0.1875 0.01826,-0.0087 0.04527,-0.02313 0.0625,-0.03125 0.0036,-0.0013 0.03116,4.4e-5 0.03125,0 0.494505,-0.228294 0.979794,-0.488705 1.46875,-0.75 a 1.093524,1.093524 0 0 0 0.03125,0 c 0.05017,-0.02736 0.0851,-0.07047 0.125,-0.09375 0.01773,-0.01035 0.04567,-0.021 0.0625,-0.03125 2.837695,-1.548945 5.353023,-3.583051 7.125,-6.21875 l 0.03125,0 c 0.0043,-0.0065 -0.0043,-0.02476 0,-0.03125 0.2158,-0.316657 0.380854,-0.582272 0.5,-0.78125 a 1.093524,1.093524 0 0 0 0,-0.03125 c 0.0067,-0.01161 0.05248,-0.04582 0.0625,-0.0625 a 1.093524,1.093524 0 0 0 0.03125,-0.09375 c 0.04494,-0.07483 0.09223,-0.132789 0.15625,-0.25 0.0089,-0.01623 -0.0078,-0.01517 0,-0.03125 0.161271,-0.293289 0.322529,-0.590846 0.46875,-0.90625 a 1.093524,1.093524 0 0 0 0,-0.0625 1.093524,1.093524 0 0 0 0.03125,-0.0625 c 0.0035,-0.0075 -0.0035,-0.02372 0,-0.03125 0.0026,-0.007 -0.0027,-0.02357 0,-0.03125 A 1.093524,1.093524 0 0 0 88.90625,78.375 c 0.0033,-0.01174 -0.0032,-0.0183 0,-0.03125 0.0021,-0.0083 -0.002,-0.0224 0,-0.03125 0.0051,-0.01093 0.02606,-0.02022 0.03125,-0.03125 0.167525,-0.355854 0.34324,-0.741755 0.5,-1.21875 -0.0027,0.0084 0.03117,-0.08923 0.0625,-0.1875 0.0089,-0.02807 -0.0061,-0.03406 0,-0.0625 0.0042,-0.01375 -0.0035,-0.0172 0,-0.03125 0.253864,-0.832263 0.447867,-1.713241 0.53125,-2.625 0.0098,-0.03676 0.02506,-0.06247 0.03125,-0.09375 0.01631,-0.197251 0.01162,-0.213998 0,-0.0625 0.0075,-0.04796 0.02637,-0.106065 0.03125,-0.15625 a 1.093524,1.093524 0 0 0 0,-0.03125 c -9.2e-5,0.002 -3.9e-5,-0.09874 0,-0.15625 l 0,-0.0625 0,-0.5625 0,-4.125 c 0,-5.237411 -3.212636,-9.821986 -7.96875,-12.96875 -4.751774,-3.143893 -11.123849,-5 -18.125,-5 z m 24.75,26.5 c 0.02018,0.028 0.03146,0.06284 0.03125,0.0625 -0.01573,-0.02385 -0.01308,-0.03521 -0.03125,-0.0625 z"
         transform="translate(-6,-5)" />
      <path
         sodipodi:type="inkscape:offset"
         inkscape:radius="1.0047505"
         inkscape:original="M 64 53.03125 C 50.745894 53.03125 40 60.144152 40 68.90625 L 40 73.03125 C 40 80.651886 48.128623 87.003666 58.96875 88.53125 L 58.96875 88.5625 C 62.532137 89.259697 68.405791 89.198943 72.15625 87.96875 C 72.557271 87.867896 72.94768 87.770154 73.34375 87.65625 C 73.44032 87.62926 73.529085 87.5903 73.625 87.5625 C 73.67833 87.54668 73.728032 87.51606 73.78125 87.5 C 74.22397 87.369063 74.665718 87.241576 75.09375 87.09375 C 75.210349 87.05343 75.321628 87.0103 75.4375 86.96875 C 75.802723 86.837626 76.146542 86.705586 76.5 86.5625 C 76.805082 86.440396 77.107828 86.318605 77.40625 86.1875 C 77.564803 86.1167 77.719175 86.041964 77.875 85.96875 C 78.346706 85.751177 78.830175 85.522302 79.28125 85.28125 C 79.32786 85.25583 79.35993 85.21315 79.40625 85.1875 C 82.066257 83.74435 84.330138 81.905842 85.875 79.59375 C 86.036345 79.358784 86.16824 79.11592 86.3125 78.875 C 86.38509 78.749943 86.462781 78.627533 86.53125 78.5 C 86.677222 78.236488 86.812398 77.957349 86.9375 77.6875 C 86.9414 77.6788 86.9336 77.66495 86.9375 77.65625 C 87.125636 77.247945 87.298963 76.827794 87.4375 76.40625 C 87.45757 76.34445 87.48083 76.281043 87.5 76.21875 C 87.739752 75.444297 87.906551 74.654848 87.96875 73.84375 C 87.97595 73.77956 87.99372 73.720886 88 73.65625 L 88 73.03125 L 88 68.90625 C 88 60.144152 77.255384 53.03125 64 53.03125 z "
         style="opacity:0.15;fill:#000000;fill-rule:nonzero;stroke:none;display:inline"
         id="path4136"
         d="m 64,52.03125 c -6.806788,0 -12.991966,1.809307 -17.53125,4.8125 C 41.929466,59.846943 39,64.114457 39,68.90625 l 0,4.125 c 0,4.16756 2.221108,7.941541 5.78125,10.8125 3.466225,2.795223 8.262119,4.734233 13.65625,5.5625 0.01315,0.002 0.01809,0.02925 0.03125,0.03125 a 1.004851,1.004851 0 0 0 0.3125,0.125 c 3.761417,0.735943 9.590383,0.68157 13.625,-0.625 0.01926,-0.0048 0.04323,0.0048 0.0625,0 0.381257,-0.09586 0.75847,-0.198104 1.15625,-0.3125 0.184255,-0.0515 0.267213,-0.08968 0.28125,-0.09375 0.229042,-0.06794 0.275552,-0.0985 0.15625,-0.0625 0.438501,-0.129689 0.882579,-0.278229 1.34375,-0.4375 a 1.004851,1.004851 0 0 0 0.03125,0 c 0.139147,-0.04812 0.243437,-0.08903 0.34375,-0.125 0.378374,-0.135845 0.72951,-0.258799 1.09375,-0.40625 0.306175,-0.122541 0.619762,-0.266659 0.9375,-0.40625 0.16792,-0.07498 0.326597,-0.151741 0.46875,-0.21875 0.0082,-0.0038 0.02303,0.0038 0.03125,0 0.470479,-0.217202 0.964642,-0.466058 1.4375,-0.71875 0.248686,-0.135628 0.233311,-0.148007 0.125,-0.09375 0.0077,-0.0042 0.02353,0.0042 0.03125,0 2.754616,-1.498002 5.157056,-3.428658 6.8125,-5.90625 0.199588,-0.29066 0.338714,-0.532835 0.46875,-0.75 a 1.004851,1.004851 0 0 0 0,-0.03125 c 0.05571,-0.09597 0.133534,-0.218973 0.21875,-0.375 0.0054,-0.0099 -0.0055,-0.02108 0,-0.03125 0.158519,-0.288285 0.311158,-0.571226 0.4375,-0.84375 a 1.004851,1.004851 0 0 0 0,-0.03125 c 0.0095,-0.02126 -0.008,-0.01122 0,-0.03125 0.0098,-0.02191 -0.0082,-0.01072 0,-0.03125 0.195206,-0.425446 0.411235,-0.852226 0.5625,-1.3125 0.01041,-0.03204 0.03769,-0.109697 0.0625,-0.1875 0.0038,-0.01184 -0.004,-0.01838 0,-0.03125 0.247333,-0.804945 0.428416,-1.665617 0.5,-2.53125 0.0017,-0.0206 -0.0016,-0.04187 0,-0.0625 0.0048,-0.0106 0.0181,-0.02092 0.03125,-0.15625 a 1.004851,1.004851 0 0 0 0,-0.09375 l 0,-0.625 0,-4.125 C 89,64.114506 86.070388,59.846957 81.53125,56.84375 76.992112,53.840543 70.80741,52.03125 64,52.03125 z"
         transform="translate(-6,-5)" />
      <path
         inkscape:connector-curvature="0"
         style="opacity:0.3;fill:#000000;fill-rule:nonzero;stroke:none;display:inline"
         d="m 58,48.03125 c -13.25411,0 -24,7.112902 -24,15.875 l 0,4.125 c 0,7.620636 8.12862,13.972416 18.96875,15.5 l 0,0.03125 c 3.56339,0.697197 9.43704,0.636443 13.1875,-0.59375 0.40102,-0.100854 0.79143,-0.198596 1.1875,-0.3125 0.0966,-0.02699 0.18533,-0.06595 0.28125,-0.09375 0.0533,-0.01582 0.10303,-0.04644 0.15625,-0.0625 0.44272,-0.130937 0.88447,-0.258424 1.3125,-0.40625 0.1166,-0.04032 0.22788,-0.08345 0.34375,-0.125 0.36522,-0.131124 0.70904,-0.263164 1.0625,-0.40625 0.30508,-0.122104 0.60783,-0.243895 0.90625,-0.375 0.15855,-0.0708 0.31293,-0.145536 0.46875,-0.21875 0.47171,-0.217573 0.95517,-0.446448 1.40625,-0.6875 0.0466,-0.02542 0.0787,-0.0681 0.125,-0.09375 2.66001,-1.44315 4.92389,-3.281658 6.46875,-5.59375 0.16134,-0.234966 0.29324,-0.47783 0.4375,-0.71875 0.0726,-0.125057 0.15028,-0.247467 0.21875,-0.375 0.14597,-0.263512 0.28115,-0.542651 0.40625,-0.8125 0.004,-0.0087 -0.004,-0.02255 0,-0.03125 0.18814,-0.408305 0.36146,-0.828456 0.5,-1.25 0.0201,-0.0618 0.0433,-0.125207 0.0625,-0.1875 0.23975,-0.774453 0.40655,-1.563902 0.46875,-2.375 0.007,-0.06419 0.025,-0.122864 0.0313,-0.1875 l 0,-0.625 0,-4.125 c 0,-8.762098 -10.74462,-15.875 -24,-15.875 z"
         id="path4138" />
      <g
         id="g3145">
        <path
           inkscape:r_cy="true"
           inkscape:r_cx="true"
           style="fill:#b82525;fill-opacity:1;fill-rule:nonzero;stroke:none;display:inline"
           d="M 81.17354,62.905192 C 78.42252,56.147206 69.09442,51.171249 58.00065,51.171249 c -11.09378,0 -20.42189,4.975957 -23.17291,11.733943 l -0.82774,0 0,4.130703 c 0,8.76075 10.74654,15.861951 24.00064,15.861951 C 71.25603,82.897846 82,75.796645 82,67.035895 l 0,-4.130703 -0.82646,0 0,0 z"
           id="path4140"
           inkscape:connector-curvature="0" />
        <path
           inkscape:r_cy="true"
           inkscape:r_cx="true"
           style="fill:url(#linearGradient4154);fill-opacity:1;fill-rule:nonzero;stroke:none;display:inline"
           d="M 82,62.905192 C 82,71.667288 71.25603,78.76849 58.00064,78.76849 44.74526,78.76849 34,71.667288 34,62.905192 34,54.143094 44.74654,47.041894 58.00064,47.041894 71.25603,47.041894 82,54.143094 82,62.905192 l 0,0 z"
           id="path4142"
           inkscape:connector-curvature="0" />
        <path
           inkscape:r_cy="true"
           inkscape:r_cx="true"
           style="fill:#39619a;fill-opacity:1;fill-rule:nonzero;stroke:none;display:inline"
           d="m 82,67.653683 -0.0307,-4.323174 c -2.60238,8.981485 -8.45423,12.78647 -15.81164,14.649259 l 0,3.979955 c 7.96348,-2.002764 15.09025,-6.562825 15.8424,-14.30604 l 0,0 z"
           id="path4144"
           inkscape:connector-curvature="0" />
        <path
           inkscape:r_cy="true"
           inkscape:r_cx="true"
           style="fill:url(#linearGradient4156);fill-opacity:1;fill-rule:nonzero;stroke:none;display:inline"
           d="M 82,62.905192 C 81.45031,73.041496 68.91375,77.66347 66.11276,77.839788 l -8.1134,-14.934596 23.99936,0 10e-4,0 z"
           id="path4146"
           inkscape:connector-curvature="0" />
        <path
           inkscape:r_cy="true"
           inkscape:r_cx="true"
           style="fill:#70851f;fill-opacity:1;fill-rule:nonzero;stroke:none;display:inline"
           d="m 52.97654,82.550592 0,-4.129356 c 4.5167,0.588178 8.66053,0.691817 13.13622,-0.426664 l 0.0448,3.966498 c -3.75046,1.230193 -9.61768,1.288067 -13.18107,0.59087 l 0,-0.0013 z"
           id="path4148"
           inkscape:connector-curvature="0" />
        <path
           inkscape:r_cy="true"
           inkscape:r_cx="true"
           style="fill:url(#linearGradient4158);fill-opacity:1;fill-rule:nonzero;stroke:none;display:inline"
           d="m 57.99936,62.906536 8.1134,14.933252 c -4.96773,1.893744 -13.13622,0.581448 -13.13622,0.581448 l 5.02282,-15.5147 z"
           id="path4150"
           inkscape:connector-curvature="0" />
        <path
           inkscape:r_cy="true"
           inkscape:r_cx="true"
           sodipodi:type="arc"
           style="opacity:0.25;color:#000000;fill:none;stroke:url(#linearGradient4160);stroke-width:0.49625126;stroke-linecap:butt;stroke-linejoin:miter;stroke-miterlimit:4;stroke-opacity:1;stroke-dasharray:none;stroke-dashoffset:0;marker:none;visibility:visible;display:block;overflow:visible"
           id="path4152"
           sodipodi:cx="-18.625"
           sodipodi:cy="24.375"
           sodipodi:rx="11.75"
           sodipodi:ry="7.75"
           d="m -6.875,24.375 c 0,4.280207 -5.260654,7.75 -11.75,7.75 -6.489346,0 -11.75,-3.469793 -11.75,-7.75 0,-4.280207 5.260654,-7.75 11.75,-7.75 6.489346,0 11.75,3.469793 11.75,7.75 z"
           transform="matrix(2.0142824,0,0,2.0159357,95.54013,13.610022)" />
      </g>
    </g>
  </g>
</svg>
